M48
; DRILL file {KiCad (7.0.0)} date Tue Feb 28 08:30:03 2023
; FORMAT={-:-/ absolute / inch / decimal}
; #@! TF.CreationDate,2023-02-28T08:30:03+09:00
; #@! TF.GenerationSoftware,Kicad,Pcbnew,(7.0.0)
; #@! TF.FileFunction,Plated,1,2,PTH
FMAT,2
INCH
; #@! TA.AperFunction,Plated,PTH,ComponentDrill
T1C0.0118
; #@! TA.AperFunction,Plated,PTH,ViaDrill
T2C0.0157
; #@! TA.AperFunction,Plated,PTH,ComponentDrill
T3C0.0157
; #@! TA.AperFunction,Plated,PTH,ComponentDrill
T4C0.0276
; #@! TA.AperFunction,Plated,PTH,ComponentDrill
T5C0.0300
; #@! TA.AperFunction,Plated,PTH,ComponentDrill
T6C0.0315
; #@! TA.AperFunction,Plated,PTH,ComponentDrill
T7C0.0402
; #@! TA.AperFunction,Plated,PTH,ComponentDrill
T8C0.0472
%
G90
G05
T2
X5.2756Y-3.5433
X6.1024Y-3.3465
X6.1024Y-4.0945
X6.8504Y-3.3465
X6.8504Y-4.0945
T4
X4.45Y-3.5
X4.45Y-3.6
X4.75Y-3.5
X4.75Y-3.6
T5
X4.5031Y-3.9
X4.6031Y-3.9
X4.7031Y-3.9
X4.8031Y-3.9
T6
X5.478Y-3.9845
X5.478Y-4.7345
X5.778Y-3.9845
X5.778Y-4.7345
X6.228Y-3.9845
X6.228Y-4.7345
X6.528Y-3.9845
X6.528Y-4.7345
X6.978Y-3.9845
X6.978Y-4.7345
X7.278Y-3.9845
X7.278Y-4.7345
T7
X4.35Y-3.1
X4.35Y-3.2
X4.35Y-3.3
X4.35Y-3.4
X4.35Y-3.5
X4.35Y-3.6
X4.35Y-3.7
X4.95Y-3.1
X4.95Y-3.2
X4.95Y-3.3
X4.95Y-3.4
X4.95Y-3.5
X4.95Y-3.6
X4.95Y-3.7
T8
X5.478Y-3.522
X5.478Y-4.272
X5.728Y-3.422
X5.728Y-4.172
X6.228Y-3.522
X6.228Y-4.272
X6.478Y-3.422
X6.478Y-4.172
X6.978Y-3.522
X6.978Y-4.272
X7.228Y-3.422
X7.228Y-4.172
T1
G00X5.6142Y-3.8543
M15
G01X5.6417Y-3.8543
M16
G05
G00X5.6142Y-4.6043
M15
G01X5.6417Y-4.6043
M16
G05
G00X5.811Y-3.4037
M15
G01X5.8386Y-3.4034
M16
G05
G00X5.811Y-4.1537
M15
G01X5.8386Y-4.1534
M16
G05
G00X6.3642Y-3.8543
M15
G01X6.3917Y-3.8543
M16
G05
G00X6.3642Y-4.6043
M15
G01X6.3917Y-4.6043
M16
G05
G00X6.561Y-3.4037
M15
G01X6.5886Y-3.4034
M16
G05
G00X6.561Y-4.1537
M15
G01X6.5886Y-4.1534
M16
G05
G00X7.1142Y-3.8543
M15
G01X7.1417Y-3.8543
M16
G05
G00X7.1142Y-4.6043
M15
G01X7.1417Y-4.6043
M16
G05
G00X7.311Y-3.4037
M15
G01X7.3386Y-3.4034
M16
G05
G00X7.311Y-4.1537
M15
G01X7.3386Y-4.1534
M16
G05
T3
G00X5.4154Y-3.7756
M15
G01X5.439Y-3.7756
M16
G05
G00X5.4154Y-4.5256
M15
G01X5.439Y-4.5256
M16
G05
G00X6.1654Y-3.7756
M15
G01X6.189Y-3.7756
M16
G05
G00X6.1654Y-4.5256
M15
G01X6.189Y-4.5256
M16
G05
G00X6.9154Y-3.7756
M15
G01X6.939Y-3.7756
M16
G05
G00X6.9154Y-4.5256
M15
G01X6.939Y-4.5256
M16
G05
T0
M30
