%TF.GenerationSoftware,KiCad,Pcbnew,(7.0.0)*%
%TF.CreationDate,2023-02-28T08:30:01+09:00*%
%TF.ProjectId,sgkey,73676b65-792e-46b6-9963-61645f706362,rev?*%
%TF.SameCoordinates,Original*%
%TF.FileFunction,Legend,Top*%
%TF.FilePolarity,Positive*%
%FSLAX46Y46*%
G04 Gerber Fmt 4.6, Leading zero omitted, Abs format (unit mm)*
G04 Created by KiCad (PCBNEW (7.0.0)) date 2023-02-28 08:30:01*
%MOMM*%
%LPD*%
G01*
G04 APERTURE LIST*
%ADD10C,0.150000*%
%ADD11C,0.300000*%
%ADD12C,0.120000*%
%ADD13C,0.127000*%
%ADD14C,0.200000*%
G04 APERTURE END LIST*
D10*
X124350600Y-106427800D02*
X124477600Y-106961200D01*
X111676000Y-109247200D02*
X111980800Y-108840800D01*
X116806800Y-113235000D02*
X116781400Y-112828600D01*
X113504800Y-107139000D02*
X114190600Y-106631000D01*
X113835000Y-108510600D02*
X113454000Y-108739200D01*
X122496400Y-108358200D02*
X122242400Y-108332800D01*
X120388200Y-112803200D02*
X119981800Y-112244400D01*
X122902800Y-106275400D02*
X123207600Y-106046800D01*
X124757000Y-109018600D02*
X125036400Y-109526600D01*
X125239600Y-110644200D02*
X125163400Y-111304600D01*
X120870800Y-117502200D02*
X121099400Y-118188000D01*
X120413600Y-108510600D02*
X120769200Y-108129600D01*
X114114400Y-108459800D02*
X113835000Y-108510600D01*
X112996800Y-107647000D02*
X113504800Y-107139000D01*
G36*
X109771000Y-109171000D02*
G01*
X108120000Y-108663000D01*
X108120000Y-107901000D01*
X109771000Y-107520000D01*
X109771000Y-109171000D01*
G37*
X109771000Y-109171000D02*
X108120000Y-108663000D01*
X108120000Y-107901000D01*
X109771000Y-107520000D01*
X109771000Y-109171000D01*
X118788000Y-114276400D02*
X118889600Y-113895400D01*
X122458300Y-106986600D02*
X122648800Y-106732600D01*
X117632300Y-113514400D02*
X117568800Y-113819200D01*
X122166200Y-106783400D02*
X122750400Y-107189800D01*
X117060800Y-113514400D02*
X116806800Y-113235000D01*
X112133200Y-107697800D02*
X112565000Y-108256600D01*
X111422000Y-121236000D02*
X125138000Y-121236000D01*
X125773000Y-121871000D02*
G75*
G03*
X126789000Y-120855000I0J1016000D01*
G01*
X124604600Y-112904800D02*
X124706200Y-115419400D01*
X124731600Y-116511600D02*
X124757000Y-118848400D01*
X117441800Y-112168200D02*
X117314800Y-111939600D01*
X118178400Y-114555800D02*
X118559400Y-114479600D01*
X111447400Y-109780600D02*
X111676000Y-109247200D01*
G36*
X128440000Y-103964000D02*
G01*
X128440000Y-104726000D01*
X126789000Y-105107000D01*
X126789000Y-103456000D01*
X128440000Y-103964000D01*
G37*
X128440000Y-103964000D02*
X128440000Y-104726000D01*
X126789000Y-105107000D01*
X126789000Y-103456000D01*
X128440000Y-103964000D01*
X125900000Y-101551000D02*
X119169000Y-101551000D01*
X122521800Y-109475800D02*
X122725000Y-109298000D01*
G36*
X109771000Y-117299000D02*
G01*
X108120000Y-116791000D01*
X108120000Y-116029000D01*
X109771000Y-115648000D01*
X109771000Y-117299000D01*
G37*
X109771000Y-117299000D02*
X108120000Y-116791000D01*
X108120000Y-116029000D01*
X109771000Y-115648000D01*
X109771000Y-117299000D01*
X118559400Y-114479600D02*
X118788000Y-114276400D01*
X118584800Y-111558600D02*
X118940400Y-111711000D01*
X112107800Y-106402400D02*
X111955400Y-106910400D01*
X116806800Y-109628200D02*
X116933800Y-110339400D01*
X117822800Y-114403400D02*
X118178400Y-114555800D01*
G36*
X122242400Y-108332800D02*
G01*
X121988400Y-108434400D01*
X121836000Y-108586800D01*
X121201000Y-107875600D01*
X121988400Y-107697800D01*
X122242400Y-108332800D01*
G37*
X122242400Y-108332800D02*
X121988400Y-108434400D01*
X121836000Y-108586800D01*
X121201000Y-107875600D01*
X121988400Y-107697800D01*
X122242400Y-108332800D01*
X118407000Y-116156000D02*
X118838800Y-116156000D01*
X111574400Y-117019600D02*
X111574400Y-120143800D01*
X118889600Y-113895400D02*
X118965800Y-113438200D01*
G36*
X114579000Y-108709000D02*
G01*
X114368400Y-108561400D01*
X114114400Y-108459800D01*
X113835000Y-108510600D01*
X113454000Y-108739200D01*
X113352400Y-108942400D01*
X113352400Y-109247200D01*
X113454000Y-109526600D01*
X111561700Y-109513900D01*
X111676000Y-109247200D01*
X112234800Y-108485200D01*
X112565000Y-108256600D01*
X113098400Y-107926400D01*
X113708000Y-107748600D01*
X114520800Y-107748600D01*
X114579000Y-108709000D01*
G37*
X114579000Y-108709000D02*
X114368400Y-108561400D01*
X114114400Y-108459800D01*
X113835000Y-108510600D01*
X113454000Y-108739200D01*
X113352400Y-108942400D01*
X113352400Y-109247200D01*
X113454000Y-109526600D01*
X111561700Y-109513900D01*
X111676000Y-109247200D01*
X112234800Y-108485200D01*
X112565000Y-108256600D01*
X113098400Y-107926400D01*
X113708000Y-107748600D01*
X114520800Y-107748600D01*
X114579000Y-108709000D01*
X114546200Y-108790000D02*
X114368400Y-108561400D01*
X119550000Y-113082600D02*
X119321400Y-113412800D01*
X110660000Y-121871000D02*
X125773000Y-121871000D01*
X126154000Y-104091000D02*
G75*
G03*
X125265000Y-103202000I-889000J0D01*
G01*
X117492600Y-111634800D02*
X117797400Y-111482400D01*
X114190600Y-106631000D02*
X114901800Y-106326200D01*
X122852000Y-109069400D02*
X122852000Y-108764600D01*
X124452200Y-108586800D02*
X124757000Y-109018600D01*
X122242400Y-108332800D02*
X121988400Y-108434400D01*
X122725000Y-109298000D02*
X122852000Y-109069400D01*
X122013800Y-109475800D02*
X122267800Y-109552000D01*
X118838800Y-116156000D02*
X119397600Y-116308400D01*
X123487000Y-107901000D02*
X123995000Y-108205800D01*
X114470000Y-118950000D02*
X114622400Y-118492800D01*
X112006200Y-107342200D02*
X112133200Y-107697800D01*
X125163400Y-111304600D02*
X125061800Y-111965000D01*
X116679800Y-116384600D02*
X117264000Y-116206800D01*
X123283800Y-113768400D02*
X122623400Y-113793800D01*
X116197200Y-108612200D02*
X116552800Y-109069400D01*
X119626200Y-110517200D02*
X119702400Y-109958400D01*
X120870800Y-113209600D02*
X120388200Y-112803200D01*
X121632800Y-120270800D02*
X121632800Y-120702600D01*
G36*
X128440000Y-118188000D02*
G01*
X128440000Y-118950000D01*
X126789000Y-119331000D01*
X126789000Y-117680000D01*
X128440000Y-118188000D01*
G37*
X128440000Y-118188000D02*
X128440000Y-118950000D01*
X126789000Y-119331000D01*
X126789000Y-117680000D01*
X128440000Y-118188000D01*
X117797400Y-116181400D02*
X118407000Y-116156000D01*
X123715600Y-105919800D02*
X124045800Y-106072200D01*
X121404200Y-106402400D02*
X122166200Y-106783400D01*
X114368400Y-108561400D02*
X114114400Y-108459800D01*
X114343000Y-119559600D02*
X114470000Y-118950000D01*
X117035400Y-112473000D02*
X117441800Y-112168200D01*
X115460600Y-113362000D02*
X114901800Y-113565200D01*
G36*
X109771000Y-105234000D02*
G01*
X108120000Y-104726000D01*
X108120000Y-103964000D01*
X109771000Y-103583000D01*
X109771000Y-105234000D01*
G37*
X109771000Y-105234000D02*
X108120000Y-104726000D01*
X108120000Y-103964000D01*
X109771000Y-103583000D01*
X109771000Y-105234000D01*
X119778600Y-111685600D02*
X119626200Y-111076000D01*
X124706200Y-115419400D02*
X124731600Y-116511600D01*
X116933800Y-110339400D02*
X116933800Y-111152200D01*
X122750400Y-107189800D02*
X123258400Y-107672400D01*
X125163400Y-110060000D02*
X125239600Y-110644200D01*
X111625200Y-112193600D02*
X111549000Y-114479600D01*
X111345800Y-110415600D02*
X111447400Y-109780600D01*
X116502000Y-112498400D02*
X116044800Y-112981000D01*
X116552800Y-109069400D02*
X116806800Y-109628200D01*
X112565000Y-108256600D02*
X112996800Y-107647000D01*
X117797400Y-111482400D02*
X118178400Y-111482400D01*
X118483200Y-105843600D02*
X119575400Y-105970600D01*
G36*
X128440000Y-108087219D02*
G01*
X128440000Y-108849219D01*
X126789000Y-109230219D01*
X126789000Y-107579219D01*
X128440000Y-108087219D01*
G37*
X128440000Y-108087219D02*
X128440000Y-108849219D01*
X126789000Y-109230219D01*
X126789000Y-107579219D01*
X128440000Y-108087219D01*
X113708000Y-107748600D02*
X114520800Y-107748600D01*
X111980800Y-108840800D02*
X112234800Y-108485200D01*
G36*
X128440000Y-116156000D02*
G01*
X128440000Y-116918000D01*
X126789000Y-117299000D01*
X126789000Y-115648000D01*
X128440000Y-116156000D01*
G37*
X128440000Y-116156000D02*
X128440000Y-116918000D01*
X126789000Y-117299000D01*
X126789000Y-115648000D01*
X128440000Y-116156000D01*
X123995000Y-108205800D02*
X124452200Y-108586800D01*
X117797400Y-113463600D02*
X117467200Y-113565200D01*
X114419200Y-109526600D02*
X114571600Y-109323400D01*
X116781400Y-112828600D02*
X117035400Y-112473000D01*
X117391000Y-101551000D02*
G75*
G03*
X119169000Y-101551000I889000J0D01*
G01*
X117797400Y-112473000D02*
X117441800Y-112168200D01*
X121988400Y-108434400D02*
X121836000Y-108586800D01*
X121836000Y-109323400D02*
X122013800Y-109475800D01*
X124045800Y-106072200D02*
X124350600Y-106427800D01*
X113454000Y-108739200D02*
X113352400Y-108942400D01*
X122648800Y-107723200D02*
X122953600Y-107774000D01*
X110406000Y-104091000D02*
X110406000Y-120220000D01*
X112488800Y-113336600D02*
X112057000Y-112904800D01*
X114317600Y-120245400D02*
X114343000Y-119559600D01*
X114901800Y-106326200D02*
X115714600Y-106072200D01*
X126154000Y-120220000D02*
X126154000Y-104091000D01*
X112234800Y-108485200D02*
X112565000Y-108256600D01*
X117264000Y-116206800D02*
X117797400Y-116181400D01*
X123207600Y-106046800D02*
X123715600Y-105919800D01*
X117391000Y-101551000D02*
X110787000Y-101551000D01*
X122623400Y-113793800D02*
X121963000Y-113768400D01*
G36*
X128440000Y-112092000D02*
G01*
X128440000Y-112854000D01*
X126789000Y-113235000D01*
X126789000Y-111584000D01*
X128440000Y-112092000D01*
G37*
X128440000Y-112092000D02*
X128440000Y-112854000D01*
X126789000Y-113235000D01*
X126789000Y-111584000D01*
X128440000Y-112092000D01*
X109771000Y-120982000D02*
G75*
G03*
X110660000Y-121871000I889000J0D01*
G01*
G36*
X128440000Y-114124000D02*
G01*
X128440000Y-114886000D01*
X126789000Y-115267000D01*
X126789000Y-113616000D01*
X128440000Y-114124000D01*
G37*
X128440000Y-114124000D02*
X128440000Y-114886000D01*
X126789000Y-115267000D01*
X126789000Y-113616000D01*
X128440000Y-114124000D01*
X116552800Y-105945200D02*
X117467200Y-105869000D01*
X111345800Y-111050600D02*
X111345800Y-110415600D01*
X112539600Y-106021400D02*
X112107800Y-106402400D01*
X122953600Y-107774000D02*
X123487000Y-107901000D01*
X113098400Y-107926400D02*
X112565000Y-108256600D01*
X113682600Y-109704400D02*
X113936600Y-109780600D01*
X125061800Y-111965000D02*
X124884000Y-112447600D01*
G36*
X115181200Y-107951800D02*
G01*
X115714600Y-108231200D01*
X116197200Y-108612200D01*
X116552800Y-109069400D01*
X116806800Y-109628200D01*
X116933800Y-110339400D01*
X114589000Y-110369000D01*
X114546200Y-108790000D01*
X114520800Y-107748600D01*
X115181200Y-107951800D01*
G37*
X115181200Y-107951800D02*
X115714600Y-108231200D01*
X116197200Y-108612200D01*
X116552800Y-109069400D01*
X116806800Y-109628200D01*
X116933800Y-110339400D01*
X114589000Y-110369000D01*
X114546200Y-108790000D01*
X114520800Y-107748600D01*
X115181200Y-107951800D01*
X113098400Y-106783400D02*
X113250800Y-107393000D01*
X111295000Y-103202000D02*
G75*
G03*
X110406000Y-104091000I0J-889000D01*
G01*
X124477600Y-106961200D02*
X124325200Y-107291400D01*
G36*
X109771000Y-119331000D02*
G01*
X108120000Y-118823000D01*
X108120000Y-118061000D01*
X109771000Y-117680000D01*
X109771000Y-119331000D01*
G37*
X109771000Y-119331000D02*
X108120000Y-118823000D01*
X108120000Y-118061000D01*
X109771000Y-117680000D01*
X109771000Y-119331000D01*
X113708000Y-107748600D02*
X113098400Y-107926400D01*
X125138000Y-121236000D02*
G75*
G03*
X126154000Y-120220000I0J1016000D01*
G01*
G36*
X128440000Y-110060000D02*
G01*
X128440000Y-110822000D01*
X126789000Y-111203000D01*
X126789000Y-109552000D01*
X128440000Y-110060000D01*
G37*
X128440000Y-110060000D02*
X128440000Y-110822000D01*
X126789000Y-111203000D01*
X126789000Y-109552000D01*
X128440000Y-110060000D01*
X121734400Y-108840800D02*
X121709000Y-109094800D01*
X119626200Y-111076000D02*
X119626200Y-110517200D01*
X120439000Y-116943400D02*
X120870800Y-117502200D01*
X121099400Y-118188000D02*
X121302600Y-118823000D01*
X119550000Y-112701600D02*
X119550000Y-113082600D01*
X118229200Y-113336600D02*
X117797400Y-113463600D01*
G36*
X122648800Y-107723200D02*
G01*
X123487000Y-107901000D01*
X123995000Y-108205800D01*
X124452200Y-108586800D01*
X124757000Y-109018600D01*
X125036400Y-109526600D01*
X125239600Y-110644200D01*
X125061800Y-111965000D01*
X124884000Y-112447600D01*
X124604600Y-112904800D01*
X124299800Y-113285800D01*
X123842600Y-113565200D01*
X123283800Y-113768400D01*
X122623400Y-113793800D01*
X121963000Y-113768400D01*
X121404200Y-113514400D01*
X120870800Y-113209600D01*
X120388200Y-112803200D01*
X119981800Y-112244400D01*
X119778600Y-111685600D01*
X119626200Y-111076000D01*
X119626200Y-110517200D01*
X119702400Y-109958400D01*
X119829400Y-109399600D01*
X120108800Y-108866200D01*
X120769200Y-108129600D01*
X121201000Y-107875600D01*
X121836000Y-108586800D01*
X121734400Y-108840800D01*
X121709000Y-109094800D01*
X121836000Y-109323400D01*
X122013800Y-109475800D01*
X122267800Y-109552000D01*
X122521800Y-109475800D01*
X122725000Y-109298000D01*
X122852000Y-109069400D01*
X122852000Y-108764600D01*
X122725000Y-108536000D01*
X122496400Y-108358200D01*
X122242400Y-108332800D01*
X121988400Y-107697800D01*
X122648800Y-107723200D01*
G37*
X122648800Y-107723200D02*
X123487000Y-107901000D01*
X123995000Y-108205800D01*
X124452200Y-108586800D01*
X124757000Y-109018600D01*
X125036400Y-109526600D01*
X125239600Y-110644200D01*
X125061800Y-111965000D01*
X124884000Y-112447600D01*
X124604600Y-112904800D01*
X124299800Y-113285800D01*
X123842600Y-113565200D01*
X123283800Y-113768400D01*
X122623400Y-113793800D01*
X121963000Y-113768400D01*
X121404200Y-113514400D01*
X120870800Y-113209600D01*
X120388200Y-112803200D01*
X119981800Y-112244400D01*
X119778600Y-111685600D01*
X119626200Y-111076000D01*
X119626200Y-110517200D01*
X119702400Y-109958400D01*
X119829400Y-109399600D01*
X120108800Y-108866200D01*
X120769200Y-108129600D01*
X121201000Y-107875600D01*
X121836000Y-108586800D01*
X121734400Y-108840800D01*
X121709000Y-109094800D01*
X121836000Y-109323400D01*
X122013800Y-109475800D01*
X122267800Y-109552000D01*
X122521800Y-109475800D01*
X122725000Y-109298000D01*
X122852000Y-109069400D01*
X122852000Y-108764600D01*
X122725000Y-108536000D01*
X122496400Y-108358200D01*
X122242400Y-108332800D01*
X121988400Y-107697800D01*
X122648800Y-107723200D01*
X113936600Y-109780600D02*
X114190600Y-109729800D01*
G36*
X109771000Y-115267000D02*
G01*
X108120000Y-114759000D01*
X108120000Y-113997000D01*
X109771000Y-113616000D01*
X109771000Y-115267000D01*
G37*
X109771000Y-115267000D02*
X108120000Y-114759000D01*
X108120000Y-113997000D01*
X109771000Y-113616000D01*
X109771000Y-115267000D01*
X114520800Y-107748600D02*
X115181200Y-107951800D01*
X121709000Y-109094800D02*
X121836000Y-109323400D01*
X117467200Y-105869000D02*
X118483200Y-105843600D01*
X115943200Y-116892600D02*
X116679800Y-116384600D01*
X115714600Y-108231200D02*
X116197200Y-108612200D01*
X115181200Y-107951800D02*
X115714600Y-108231200D01*
X126789000Y-102440000D02*
G75*
G03*
X125900000Y-101551000I-889000J0D01*
G01*
G36*
X128440000Y-106074483D02*
G01*
X128440000Y-106836483D01*
X126789000Y-107217483D01*
X126789000Y-105566483D01*
X128440000Y-106074483D01*
G37*
X128440000Y-106074483D02*
X128440000Y-106836483D01*
X126789000Y-107217483D01*
X126789000Y-105566483D01*
X128440000Y-106074483D01*
X109771000Y-102567000D02*
X109771000Y-120982000D01*
X118991200Y-112015800D02*
X119372200Y-112346000D01*
X119575400Y-105970600D02*
X120566000Y-106123000D01*
X116806800Y-111914200D02*
X116502000Y-112498400D01*
X119702400Y-109958400D02*
X119829400Y-109399600D01*
X119372200Y-112346000D02*
X119550000Y-112701600D01*
X111955400Y-106910400D02*
X112006200Y-107342200D01*
X125036400Y-109526600D02*
X125163400Y-110060000D01*
X111549000Y-114479600D02*
X111574400Y-117019600D01*
X113428600Y-106326200D02*
X113847700Y-106885000D01*
X122725000Y-108536000D02*
X122496400Y-108358200D01*
X118991200Y-112015800D02*
X118788000Y-112320600D01*
X114978000Y-117959400D02*
X115384400Y-117426000D01*
X118788000Y-112320600D02*
X118559400Y-112473000D01*
X117568800Y-113819200D02*
X117619600Y-114174800D01*
X126789000Y-120855000D02*
X126789000Y-102440000D01*
X123614000Y-106783400D02*
X123258400Y-107672400D01*
X111625200Y-112193600D02*
X111422000Y-111609400D01*
X124757000Y-118848400D02*
X124680800Y-120778800D01*
X124884000Y-112447600D02*
X124604600Y-112904800D01*
X118661000Y-113387400D02*
X118229200Y-113336600D01*
X119397600Y-116308400D02*
X119931000Y-116537000D01*
G36*
X116933800Y-110339400D02*
G01*
X116933800Y-111152200D01*
X116806800Y-111914200D01*
X116502000Y-112498400D01*
X116044800Y-112981000D01*
X115460600Y-113362000D01*
X114292200Y-113743000D01*
X113606400Y-113768400D01*
X112996800Y-113590600D01*
X112488800Y-113336600D01*
X112057000Y-112904800D01*
X111625200Y-112193600D01*
X111422000Y-111609400D01*
X111345800Y-111050600D01*
X111345800Y-110415600D01*
X111447400Y-109780600D01*
X111561700Y-109513900D01*
X113454000Y-109526600D01*
X113682600Y-109704400D01*
X113936600Y-109780600D01*
X114190600Y-109729800D01*
X114495400Y-109425000D01*
X116933800Y-110339400D01*
G37*
X116933800Y-110339400D02*
X116933800Y-111152200D01*
X116806800Y-111914200D01*
X116502000Y-112498400D01*
X116044800Y-112981000D01*
X115460600Y-113362000D01*
X114292200Y-113743000D01*
X113606400Y-113768400D01*
X112996800Y-113590600D01*
X112488800Y-113336600D01*
X112057000Y-112904800D01*
X111625200Y-112193600D01*
X111422000Y-111609400D01*
X111345800Y-111050600D01*
X111345800Y-110415600D01*
X111447400Y-109780600D01*
X111561700Y-109513900D01*
X113454000Y-109526600D01*
X113682600Y-109704400D01*
X113936600Y-109780600D01*
X114190600Y-109729800D01*
X114495400Y-109425000D01*
X116933800Y-110339400D01*
X118965800Y-113438200D02*
X118661000Y-113387400D01*
X114292200Y-113743000D02*
X113606400Y-113768400D01*
X123258400Y-107672400D02*
X123487000Y-107901000D01*
X120108800Y-108866200D02*
X120413600Y-108510600D01*
X115384400Y-117426000D02*
X115943200Y-116892600D01*
X119829400Y-109399600D02*
X120108800Y-108866200D01*
X114571600Y-109323400D02*
X114571600Y-109069400D01*
X116044800Y-112981000D02*
X115460600Y-113362000D01*
X111853800Y-112523800D02*
X111625200Y-112193600D01*
X114571600Y-109069400D02*
X114546200Y-108790000D01*
X124325200Y-107291400D02*
X124147400Y-107697800D01*
X116933800Y-111152200D02*
X116806800Y-111914200D01*
G36*
X109771000Y-113235000D02*
G01*
X108120000Y-112727000D01*
X108120000Y-111965000D01*
X109771000Y-111584000D01*
X109771000Y-113235000D01*
G37*
X109771000Y-113235000D02*
X108120000Y-112727000D01*
X108120000Y-111965000D01*
X109771000Y-111584000D01*
X109771000Y-113235000D01*
X119321400Y-113412800D02*
X118965800Y-113438200D01*
X120566000Y-106123000D02*
X121404200Y-106402400D01*
X121201000Y-107875600D02*
X121988400Y-107697800D01*
X115714600Y-106072200D02*
X116552800Y-105945200D01*
X125265000Y-103202000D02*
X111295000Y-103202000D01*
X113022200Y-106046800D02*
X113428600Y-106326200D01*
X112996800Y-113590600D02*
X112488800Y-113336600D01*
X114901800Y-113565200D02*
X114292200Y-113743000D01*
X124299800Y-113285800D02*
X123842600Y-113565200D01*
X122267800Y-109552000D02*
X122521800Y-109475800D01*
X110787000Y-101551000D02*
G75*
G03*
X109771000Y-102567000I0J-1016000D01*
G01*
X118940400Y-111711000D02*
X118991200Y-112015800D01*
X121988400Y-107697800D02*
X122648800Y-107723200D01*
X123842600Y-113565200D02*
X123283800Y-113768400D01*
X119981800Y-112244400D02*
X119778600Y-111685600D01*
X113352400Y-108942400D02*
X113352400Y-109247200D01*
X113022200Y-106046800D02*
X112539600Y-106021400D01*
X114190600Y-109729800D02*
X114419200Y-109526600D01*
X121836000Y-108586800D02*
X121734400Y-108840800D01*
X114343000Y-120728000D02*
X114317600Y-120245400D01*
X113352400Y-109247200D02*
X113454000Y-109526600D01*
X112057000Y-112904800D02*
X111853800Y-112523800D01*
X121302600Y-118823000D02*
X121531200Y-119686600D01*
X118178400Y-111482400D02*
X118584800Y-111558600D01*
X121531200Y-119686600D02*
X121632800Y-120270800D01*
X117619600Y-114174800D02*
X117822800Y-114403400D01*
X122648800Y-106732600D02*
X122902800Y-106275400D01*
X124147400Y-107697800D02*
X123741000Y-108053400D01*
G36*
X109771000Y-107266000D02*
G01*
X108120000Y-106758000D01*
X108120000Y-105996000D01*
X109771000Y-105615000D01*
X109771000Y-107266000D01*
G37*
X109771000Y-107266000D02*
X108120000Y-106758000D01*
X108120000Y-105996000D01*
X109771000Y-105615000D01*
X109771000Y-107266000D01*
X117467200Y-113565200D02*
X117060800Y-113514400D01*
X112641200Y-107062800D02*
X113250800Y-107393000D01*
X118559400Y-112473000D02*
X118153000Y-112574600D01*
X124299800Y-113285800D02*
X124604600Y-112904800D01*
X117314800Y-111939600D02*
X117492600Y-111634800D01*
X121963000Y-113768400D02*
X121404200Y-113514400D01*
X111574400Y-120143800D02*
X111625200Y-120804200D01*
X123868000Y-107418400D02*
X123258400Y-107672400D01*
X119931000Y-116537000D02*
X120439000Y-116943400D01*
G36*
X109771000Y-111330000D02*
G01*
X108120000Y-110822000D01*
X108120000Y-110060000D01*
X109771000Y-109679000D01*
X109771000Y-111330000D01*
G37*
X109771000Y-111330000D02*
X108120000Y-110822000D01*
X108120000Y-110060000D01*
X109771000Y-109679000D01*
X109771000Y-111330000D01*
X121404200Y-113514400D02*
X120870800Y-113209600D01*
X110406000Y-120220000D02*
G75*
G03*
X111422000Y-121236000I1016000J0D01*
G01*
X118153000Y-112574600D02*
X117797400Y-112473000D01*
X122852000Y-108764600D02*
X122725000Y-108536000D01*
X113454000Y-109526600D02*
X113682600Y-109704400D01*
X120769200Y-108129600D02*
X121201000Y-107875600D01*
X113606400Y-113768400D02*
X112996800Y-113590600D01*
X111422000Y-111609400D02*
X111345800Y-111050600D01*
X114622400Y-118492800D02*
X114978000Y-117959400D01*
G36*
X135126127Y-123662612D02*
G01*
X135631221Y-123662612D01*
X135631221Y-124286897D01*
X135126127Y-124286897D01*
X135126127Y-126234001D01*
X135129347Y-126278470D01*
X135141712Y-126321884D01*
X135163350Y-126354445D01*
X135200316Y-126378715D01*
X135242047Y-126387759D01*
X135258018Y-126388362D01*
X135587258Y-126388362D01*
X135587258Y-126915927D01*
X134950272Y-126915927D01*
X134897035Y-126914122D01*
X134847232Y-126908706D01*
X134800864Y-126899681D01*
X134757931Y-126887045D01*
X134718432Y-126870799D01*
X134682368Y-126850943D01*
X134649739Y-126827477D01*
X134620545Y-126800400D01*
X134594785Y-126769713D01*
X134572459Y-126735416D01*
X134553569Y-126697509D01*
X134538113Y-126655991D01*
X134526091Y-126610864D01*
X134517505Y-126562126D01*
X134512353Y-126509778D01*
X134510635Y-126453819D01*
X134510635Y-124286897D01*
X134027034Y-124286897D01*
X134027034Y-123662612D01*
X134510635Y-123662612D01*
X134510635Y-122431628D01*
X135126127Y-122431628D01*
X135126127Y-123662612D01*
G37*
G36*
X137968137Y-123091084D02*
G01*
X137352645Y-123091084D01*
X137352645Y-122431628D01*
X137968137Y-122431628D01*
X137968137Y-123091084D01*
G37*
G36*
X137968137Y-126915927D02*
G01*
X137352645Y-126915927D01*
X137352645Y-123662612D01*
X137968137Y-123662612D01*
X137968137Y-126915927D01*
G37*
G36*
X141381675Y-126915927D02*
G01*
X140766183Y-126915927D01*
X140766183Y-124322068D01*
X140764637Y-124283004D01*
X140758927Y-124243334D01*
X140747249Y-124205782D01*
X140724924Y-124170519D01*
X140722219Y-124167706D01*
X140691097Y-124142201D01*
X140655862Y-124122960D01*
X140616512Y-124109984D01*
X140573048Y-124103272D01*
X140546364Y-124102249D01*
X140496798Y-124105333D01*
X140447263Y-124114584D01*
X140397758Y-124130001D01*
X140360649Y-124145612D01*
X140323558Y-124164692D01*
X140286483Y-124187240D01*
X140249426Y-124213258D01*
X140212386Y-124242744D01*
X140175363Y-124275700D01*
X140150691Y-124299598D01*
X140150691Y-126915927D01*
X139535199Y-126915927D01*
X139535199Y-123662612D01*
X140150691Y-123662612D01*
X140150691Y-123815997D01*
X140189072Y-123792099D01*
X140227276Y-123769743D01*
X140265306Y-123748929D01*
X140303160Y-123729657D01*
X140340838Y-123711926D01*
X140378341Y-123695738D01*
X140415668Y-123681091D01*
X140452819Y-123667986D01*
X140508218Y-123651219D01*
X140563221Y-123637921D01*
X140617829Y-123628092D01*
X140672043Y-123621732D01*
X140725861Y-123618841D01*
X140743713Y-123618648D01*
X140796217Y-123619997D01*
X140846386Y-123624041D01*
X140894220Y-123630781D01*
X140939718Y-123640218D01*
X140982880Y-123652351D01*
X141023707Y-123667180D01*
X141062198Y-123684706D01*
X141098353Y-123704927D01*
X141132173Y-123727845D01*
X141163658Y-123753459D01*
X141183350Y-123772033D01*
X141218793Y-123810370D01*
X141250749Y-123851007D01*
X141279220Y-123893946D01*
X141304204Y-123939187D01*
X141325702Y-123986728D01*
X141343714Y-124036571D01*
X141358240Y-124088715D01*
X141369280Y-124143160D01*
X141376833Y-124199906D01*
X141379932Y-124239016D01*
X141381481Y-124279148D01*
X141381675Y-124299598D01*
X141381675Y-126915927D01*
G37*
G36*
X143256483Y-125442654D02*
G01*
X143740084Y-123662612D01*
X144399540Y-123662612D01*
X143344411Y-127158216D01*
X143326978Y-127211453D01*
X143307652Y-127261256D01*
X143286433Y-127307624D01*
X143263322Y-127350557D01*
X143238318Y-127390056D01*
X143211420Y-127426120D01*
X143182630Y-127458749D01*
X143151947Y-127487944D01*
X143119371Y-127513704D01*
X143084903Y-127536029D01*
X143048541Y-127554920D01*
X143010286Y-127570376D01*
X142970139Y-127582397D01*
X142928099Y-127590984D01*
X142884165Y-127596136D01*
X142838339Y-127597853D01*
X142266811Y-127597853D01*
X142266811Y-127091782D01*
X142509100Y-127091782D01*
X142548694Y-127090708D01*
X142591925Y-127086587D01*
X142630485Y-127079374D01*
X142669568Y-127067052D01*
X142706448Y-127047818D01*
X142735466Y-127020169D01*
X142760265Y-126983075D01*
X142780877Y-126942717D01*
X142797333Y-126904249D01*
X142813759Y-126860285D01*
X142830153Y-126810826D01*
X142838339Y-126784036D01*
X142948737Y-126409856D01*
X142134920Y-123662612D01*
X142794376Y-123662612D01*
X143256483Y-125442654D01*
G37*
G36*
X146075679Y-123619591D02*
G01*
X146118612Y-123622419D01*
X146160859Y-123627132D01*
X146202418Y-123633730D01*
X146243291Y-123642214D01*
X146283476Y-123652583D01*
X146322975Y-123664837D01*
X146361787Y-123678976D01*
X146399911Y-123695001D01*
X146437349Y-123712911D01*
X146474100Y-123732706D01*
X146510164Y-123754386D01*
X146545541Y-123777952D01*
X146580231Y-123803403D01*
X146614235Y-123830739D01*
X146647551Y-123859960D01*
X146673251Y-123820676D01*
X146700891Y-123785256D01*
X146730472Y-123753700D01*
X146761994Y-123726008D01*
X146795456Y-123702180D01*
X146830859Y-123682217D01*
X146868202Y-123666117D01*
X146907486Y-123653881D01*
X146948711Y-123645509D01*
X146991876Y-123641001D01*
X147021731Y-123640142D01*
X147285513Y-123640142D01*
X147285513Y-124079779D01*
X147109658Y-124079779D01*
X147063591Y-124082474D01*
X147021864Y-124090560D01*
X146984479Y-124104036D01*
X146945347Y-124127323D01*
X146912466Y-124158373D01*
X146889840Y-124190177D01*
X146905181Y-124235850D01*
X146918477Y-124284943D01*
X146927107Y-124324007D01*
X146934586Y-124364994D01*
X146940914Y-124407904D01*
X146946092Y-124452738D01*
X146950119Y-124499495D01*
X146952996Y-124548176D01*
X146954721Y-124598780D01*
X146955297Y-124651307D01*
X146954438Y-124710727D01*
X146951862Y-124768086D01*
X146947569Y-124823384D01*
X146941558Y-124876621D01*
X146933830Y-124927798D01*
X146924385Y-124976913D01*
X146913222Y-125023968D01*
X146900342Y-125068963D01*
X146885745Y-125111896D01*
X146869430Y-125152768D01*
X146851398Y-125191580D01*
X146831649Y-125228331D01*
X146810182Y-125263021D01*
X146786998Y-125295650D01*
X146762097Y-125326219D01*
X146735478Y-125354727D01*
X146705055Y-125384066D01*
X146674112Y-125411513D01*
X146642651Y-125437067D01*
X146610670Y-125460728D01*
X146578171Y-125482496D01*
X146528448Y-125511599D01*
X146477558Y-125536443D01*
X146425500Y-125557028D01*
X146372274Y-125573355D01*
X146317880Y-125585422D01*
X146262319Y-125593230D01*
X146205590Y-125596779D01*
X146186420Y-125597016D01*
X146141961Y-125596432D01*
X146099443Y-125594680D01*
X146058865Y-125591761D01*
X146007781Y-125586051D01*
X145960146Y-125578266D01*
X145915960Y-125568405D01*
X145875225Y-125556467D01*
X145837940Y-125542454D01*
X145812240Y-125530581D01*
X145774313Y-125559516D01*
X145742963Y-125588433D01*
X145711395Y-125626962D01*
X145691519Y-125665461D01*
X145683337Y-125703929D01*
X145689553Y-125751971D01*
X145707680Y-125790371D01*
X145737501Y-125828740D01*
X145746783Y-125838327D01*
X145781023Y-125865576D01*
X145815739Y-125885551D01*
X145858200Y-125905132D01*
X145908406Y-125924317D01*
X145946180Y-125936888D01*
X145987396Y-125949283D01*
X146032054Y-125961503D01*
X146080155Y-125973547D01*
X146131697Y-125985416D01*
X146186683Y-125997109D01*
X146245110Y-126008627D01*
X146306980Y-126019969D01*
X146372292Y-126031135D01*
X146406239Y-126036653D01*
X146473413Y-126047987D01*
X146537672Y-126060008D01*
X146599015Y-126072717D01*
X146657443Y-126086112D01*
X146712954Y-126100194D01*
X146765551Y-126114963D01*
X146815231Y-126130419D01*
X146861996Y-126146562D01*
X146905845Y-126163392D01*
X146946779Y-126180909D01*
X146984797Y-126199112D01*
X147019899Y-126218003D01*
X147067086Y-126247627D01*
X147107712Y-126278797D01*
X147131152Y-126300435D01*
X147162579Y-126334567D01*
X147190915Y-126371017D01*
X147216160Y-126409786D01*
X147238313Y-126450873D01*
X147257376Y-126494279D01*
X147273347Y-126540003D01*
X147286227Y-126588045D01*
X147296016Y-126638406D01*
X147302713Y-126691085D01*
X147306320Y-126746083D01*
X147307006Y-126784036D01*
X147304688Y-126837511D01*
X147297733Y-126890591D01*
X147286141Y-126943275D01*
X147269912Y-126995565D01*
X147249047Y-127047460D01*
X147223544Y-127098960D01*
X147203967Y-127133074D01*
X147182328Y-127167012D01*
X147158629Y-127200775D01*
X147132869Y-127234362D01*
X147105048Y-127267774D01*
X147075167Y-127301010D01*
X147043224Y-127334071D01*
X147008706Y-127366013D01*
X146971096Y-127395895D01*
X146930395Y-127423715D01*
X146886603Y-127449475D01*
X146839720Y-127473175D01*
X146789746Y-127494813D01*
X146736680Y-127514391D01*
X146680524Y-127531907D01*
X146621276Y-127547363D01*
X146558936Y-127560759D01*
X146493506Y-127572093D01*
X146424984Y-127581367D01*
X146353372Y-127588579D01*
X146278668Y-127593731D01*
X146200873Y-127596823D01*
X146160816Y-127597595D01*
X146119986Y-127597853D01*
X146080582Y-127597638D01*
X146004218Y-127595921D01*
X145931113Y-127592486D01*
X145861267Y-127587334D01*
X145794681Y-127580465D01*
X145731353Y-127571878D01*
X145671284Y-127561574D01*
X145614475Y-127549553D01*
X145560925Y-127535814D01*
X145510634Y-127520358D01*
X145463602Y-127503185D01*
X145419829Y-127484294D01*
X145379315Y-127463686D01*
X145342060Y-127441361D01*
X145308065Y-127417318D01*
X145277328Y-127391558D01*
X145263182Y-127378034D01*
X145223898Y-127336235D01*
X145188478Y-127293267D01*
X145156922Y-127249131D01*
X145129230Y-127203828D01*
X145105402Y-127157357D01*
X145085438Y-127109718D01*
X145069338Y-127060912D01*
X145057102Y-127010937D01*
X145048730Y-126959795D01*
X145044222Y-126907485D01*
X145043364Y-126871963D01*
X145044738Y-126828343D01*
X145048859Y-126785410D01*
X145052737Y-126761565D01*
X145614892Y-126761565D01*
X145619331Y-126816738D01*
X145632649Y-126866483D01*
X145654846Y-126910802D01*
X145685921Y-126949693D01*
X145725875Y-126983159D01*
X145774707Y-127011197D01*
X145812194Y-127026874D01*
X145853628Y-127040140D01*
X145899008Y-127050993D01*
X145948333Y-127059435D01*
X146001605Y-127065465D01*
X146058822Y-127069082D01*
X146119986Y-127070288D01*
X146191916Y-127069254D01*
X146259205Y-127066152D01*
X146321853Y-127060980D01*
X146379861Y-127053741D01*
X146433228Y-127044433D01*
X146481954Y-127033057D01*
X146526040Y-127019612D01*
X146565485Y-127004099D01*
X146615952Y-126976950D01*
X146655977Y-126945148D01*
X146685561Y-126908692D01*
X146704704Y-126867582D01*
X146713405Y-126821818D01*
X146713985Y-126805529D01*
X146712363Y-126765935D01*
X146706135Y-126722704D01*
X146695235Y-126684144D01*
X146676616Y-126645062D01*
X146651638Y-126612337D01*
X146647551Y-126608181D01*
X146610914Y-126580597D01*
X146571255Y-126559929D01*
X146521155Y-126539278D01*
X146481954Y-126525520D01*
X146438113Y-126511770D01*
X146389630Y-126498027D01*
X146336508Y-126484293D01*
X146278744Y-126470565D01*
X146216340Y-126456846D01*
X146149295Y-126443134D01*
X146077610Y-126429430D01*
X146001284Y-126415733D01*
X145961381Y-126408887D01*
X145920318Y-126402044D01*
X145878094Y-126395202D01*
X145834711Y-126388362D01*
X145795427Y-126414054D01*
X145760007Y-126441668D01*
X145728451Y-126471206D01*
X145700759Y-126502668D01*
X145676931Y-126536053D01*
X145656967Y-126571361D01*
X145640867Y-126608593D01*
X145628631Y-126647748D01*
X145620259Y-126688827D01*
X145615751Y-126731829D01*
X145614892Y-126761565D01*
X145052737Y-126761565D01*
X145055729Y-126743163D01*
X145065346Y-126701604D01*
X145077710Y-126660731D01*
X145092823Y-126620546D01*
X145110683Y-126581047D01*
X145131291Y-126542235D01*
X145154647Y-126504111D01*
X145180750Y-126466673D01*
X145209602Y-126429922D01*
X145241200Y-126393858D01*
X145275547Y-126358481D01*
X145312642Y-126323791D01*
X145352484Y-126289787D01*
X145395073Y-126256471D01*
X145343917Y-126233651D01*
X145297792Y-126206588D01*
X145256699Y-126175284D01*
X145220638Y-126139738D01*
X145189609Y-126099951D01*
X145163611Y-126055921D01*
X145142646Y-126007650D01*
X145126712Y-125955137D01*
X145115809Y-125898382D01*
X145111337Y-125858188D01*
X145109100Y-125816110D01*
X145108821Y-125794364D01*
X145111912Y-125748920D01*
X145121186Y-125703082D01*
X145136642Y-125656848D01*
X145158280Y-125610220D01*
X145186101Y-125563197D01*
X145220104Y-125515778D01*
X145246207Y-125483946D01*
X145275059Y-125451939D01*
X145306658Y-125419756D01*
X145341004Y-125387398D01*
X145378099Y-125354864D01*
X145417941Y-125322155D01*
X145460531Y-125289270D01*
X145428588Y-125252889D01*
X145398707Y-125215310D01*
X145370886Y-125176532D01*
X145345126Y-125136557D01*
X145321427Y-125095383D01*
X145299788Y-125053010D01*
X145280211Y-125009440D01*
X145262694Y-124964671D01*
X145247238Y-124918704D01*
X145233843Y-124871538D01*
X145222508Y-124823174D01*
X145213235Y-124773612D01*
X145206022Y-124722851D01*
X145200870Y-124670892D01*
X145197779Y-124617735D01*
X145197582Y-124607344D01*
X145790747Y-124607344D01*
X145791861Y-124663302D01*
X145795204Y-124715650D01*
X145800776Y-124764388D01*
X145808577Y-124809516D01*
X145818606Y-124851033D01*
X145830864Y-124888940D01*
X145853430Y-124939032D01*
X145881010Y-124981001D01*
X145913605Y-125014847D01*
X145951214Y-125040569D01*
X145993839Y-125058169D01*
X146041477Y-125067646D01*
X146076023Y-125069451D01*
X146127179Y-125065390D01*
X146173304Y-125053205D01*
X146214397Y-125032898D01*
X146250458Y-125004467D01*
X146281487Y-124967914D01*
X146307485Y-124923237D01*
X146328450Y-124870438D01*
X146339632Y-124830726D01*
X146348578Y-124787403D01*
X146355287Y-124740470D01*
X146359759Y-124689927D01*
X146361996Y-124635774D01*
X146362275Y-124607344D01*
X146361157Y-124551504D01*
X146357802Y-124499266D01*
X146352212Y-124450631D01*
X146344384Y-124405599D01*
X146334321Y-124364169D01*
X146322021Y-124326342D01*
X146299378Y-124276356D01*
X146271703Y-124234476D01*
X146238996Y-124200702D01*
X146201258Y-124175034D01*
X146158488Y-124157471D01*
X146110686Y-124148014D01*
X146076023Y-124146213D01*
X146025041Y-124150266D01*
X145979073Y-124162425D01*
X145938121Y-124182689D01*
X145902183Y-124211060D01*
X145871259Y-124247536D01*
X145845350Y-124292118D01*
X145824456Y-124344805D01*
X145813313Y-124384434D01*
X145804398Y-124427665D01*
X145797712Y-124474498D01*
X145793254Y-124524934D01*
X145791025Y-124578973D01*
X145790747Y-124607344D01*
X145197582Y-124607344D01*
X145196748Y-124563380D01*
X145197779Y-124509112D01*
X145200870Y-124456218D01*
X145206022Y-124404698D01*
X145213235Y-124354552D01*
X145222508Y-124305780D01*
X145233843Y-124258382D01*
X145247238Y-124212357D01*
X145262694Y-124167706D01*
X145280211Y-124124430D01*
X145299788Y-124082527D01*
X145321427Y-124041998D01*
X145345126Y-124002842D01*
X145370886Y-123965061D01*
X145398707Y-123928654D01*
X145428588Y-123893620D01*
X145460531Y-123859960D01*
X145491156Y-123830739D01*
X145522461Y-123803403D01*
X145554446Y-123777952D01*
X145587109Y-123754386D01*
X145620452Y-123732706D01*
X145654475Y-123712911D01*
X145706782Y-123686753D01*
X145760617Y-123664837D01*
X145815981Y-123647163D01*
X145872874Y-123633730D01*
X145911651Y-123627132D01*
X145951108Y-123622419D01*
X145991244Y-123619591D01*
X146032059Y-123618648D01*
X146075679Y-123619591D01*
G37*
G36*
X148906671Y-123641001D02*
G01*
X148959050Y-123643577D01*
X149009711Y-123647870D01*
X149058655Y-123653881D01*
X149105882Y-123661609D01*
X149151391Y-123671054D01*
X149195183Y-123682217D01*
X149237258Y-123695096D01*
X149277615Y-123709694D01*
X149316255Y-123726008D01*
X149353178Y-123744040D01*
X149388383Y-123763790D01*
X149421871Y-123785256D01*
X149453642Y-123808440D01*
X149498078Y-123846436D01*
X149512031Y-123859960D01*
X149541252Y-123890930D01*
X149568588Y-123923265D01*
X149594039Y-123956967D01*
X149617605Y-123992035D01*
X149639285Y-124028469D01*
X149659080Y-124066269D01*
X149676990Y-124105436D01*
X149693015Y-124145969D01*
X149707154Y-124187868D01*
X149719408Y-124231133D01*
X149729777Y-124275765D01*
X149738261Y-124321763D01*
X149744859Y-124369127D01*
X149749572Y-124417857D01*
X149752400Y-124467953D01*
X149753343Y-124519416D01*
X149753343Y-126080616D01*
X149752400Y-126132079D01*
X149749572Y-126182176D01*
X149744859Y-126230906D01*
X149738261Y-126278270D01*
X149729777Y-126324268D01*
X149719408Y-126368899D01*
X149707154Y-126412165D01*
X149693015Y-126454064D01*
X149676990Y-126494597D01*
X149659080Y-126533763D01*
X149639285Y-126571564D01*
X149617605Y-126607998D01*
X149594039Y-126643066D01*
X149568588Y-126676767D01*
X149541252Y-126709103D01*
X149512031Y-126740072D01*
X149468883Y-126779356D01*
X149437971Y-126803399D01*
X149405342Y-126825724D01*
X149370995Y-126846332D01*
X149334931Y-126865223D01*
X149297150Y-126882396D01*
X149257651Y-126897852D01*
X149216435Y-126911591D01*
X149173502Y-126923612D01*
X149128851Y-126933916D01*
X149082483Y-126942503D01*
X149034398Y-126949372D01*
X148984595Y-126954524D01*
X148933075Y-126957959D01*
X148879838Y-126959676D01*
X148852575Y-126959891D01*
X148798479Y-126959032D01*
X148746101Y-126956456D01*
X148695439Y-126952163D01*
X148646495Y-126946152D01*
X148599269Y-126938424D01*
X148553759Y-126928979D01*
X148509967Y-126917816D01*
X148467893Y-126904936D01*
X148427535Y-126890339D01*
X148388895Y-126874024D01*
X148351973Y-126855992D01*
X148316767Y-126836243D01*
X148283279Y-126814776D01*
X148251509Y-126791592D01*
X148207073Y-126753596D01*
X148193120Y-126740072D01*
X148163780Y-126709103D01*
X148136333Y-126676767D01*
X148110779Y-126643066D01*
X148087118Y-126607998D01*
X148065350Y-126571564D01*
X148045475Y-126533763D01*
X148027492Y-126494597D01*
X148011403Y-126454064D01*
X147997206Y-126412165D01*
X147984903Y-126368899D01*
X147974492Y-126324268D01*
X147965974Y-126278270D01*
X147959349Y-126230906D01*
X147954616Y-126182176D01*
X147952570Y-126146073D01*
X148566323Y-126146073D01*
X148568469Y-126186216D01*
X148576712Y-126231554D01*
X148591138Y-126273800D01*
X148611746Y-126312955D01*
X148638536Y-126349019D01*
X148654250Y-126365892D01*
X148686447Y-126391778D01*
X148724909Y-126411306D01*
X148762862Y-126422984D01*
X148805417Y-126429991D01*
X148852575Y-126432326D01*
X148892169Y-126430704D01*
X148935400Y-126424476D01*
X148973960Y-126413577D01*
X149013043Y-126394957D01*
X149045767Y-126369979D01*
X149049923Y-126365892D01*
X149079805Y-126331374D01*
X149103504Y-126293764D01*
X149121021Y-126253063D01*
X149132355Y-126209271D01*
X149137078Y-126170417D01*
X149137851Y-126146073D01*
X149137851Y-124453959D01*
X149135704Y-124413816D01*
X149127461Y-124368479D01*
X149113035Y-124326232D01*
X149092427Y-124287077D01*
X149065637Y-124251013D01*
X149049923Y-124234140D01*
X149018107Y-124208255D01*
X148979933Y-124188727D01*
X148942151Y-124177049D01*
X148899699Y-124170042D01*
X148852575Y-124167706D01*
X148812957Y-124169328D01*
X148769635Y-124175557D01*
X148730915Y-124186456D01*
X148691558Y-124205076D01*
X148658466Y-124230053D01*
X148654250Y-124234140D01*
X148624368Y-124268659D01*
X148600669Y-124306268D01*
X148583152Y-124346969D01*
X148571818Y-124390761D01*
X148567095Y-124429616D01*
X148566323Y-124453959D01*
X148566323Y-126146073D01*
X147952570Y-126146073D01*
X147951777Y-126132079D01*
X147950831Y-126080616D01*
X147950831Y-124519416D01*
X147951777Y-124467953D01*
X147954616Y-124417857D01*
X147959349Y-124369127D01*
X147965974Y-124321763D01*
X147974492Y-124275765D01*
X147984903Y-124231133D01*
X147997206Y-124187868D01*
X148011403Y-124145969D01*
X148027492Y-124105436D01*
X148045475Y-124066269D01*
X148065350Y-124028469D01*
X148087118Y-123992035D01*
X148110779Y-123956967D01*
X148136333Y-123923265D01*
X148163780Y-123890930D01*
X148193120Y-123859960D01*
X148236268Y-123820676D01*
X148267179Y-123796634D01*
X148299809Y-123774308D01*
X148334155Y-123753700D01*
X148370219Y-123734810D01*
X148408001Y-123717636D01*
X148447499Y-123702180D01*
X148488715Y-123688442D01*
X148531649Y-123676421D01*
X148576299Y-123666117D01*
X148622667Y-123657530D01*
X148670753Y-123650661D01*
X148720555Y-123645509D01*
X148772075Y-123642074D01*
X148825313Y-123640357D01*
X148852575Y-123640142D01*
X148906671Y-123641001D01*
G37*
G36*
X152859135Y-125143701D02*
G01*
X150441131Y-125143701D01*
X150441131Y-124519416D01*
X152859135Y-124519416D01*
X152859135Y-125143701D01*
G37*
G36*
X154382233Y-123618648D02*
G01*
X154439134Y-123619591D01*
X154494310Y-123622419D01*
X154547761Y-123627132D01*
X154599487Y-123633730D01*
X154649488Y-123642214D01*
X154697765Y-123652583D01*
X154744316Y-123664837D01*
X154789142Y-123678976D01*
X154832243Y-123695001D01*
X154873619Y-123712911D01*
X154913271Y-123732706D01*
X154951197Y-123754386D01*
X154987398Y-123777952D01*
X155021875Y-123803403D01*
X155054626Y-123830739D01*
X155085653Y-123859960D01*
X155115076Y-123890758D01*
X155142775Y-123922578D01*
X155168749Y-123955421D01*
X155192997Y-123989287D01*
X155215521Y-124024176D01*
X155236320Y-124060087D01*
X155255394Y-124097021D01*
X155272743Y-124134978D01*
X155288367Y-124173957D01*
X155302266Y-124213960D01*
X155314440Y-124254985D01*
X155324889Y-124297033D01*
X155333613Y-124340104D01*
X155340612Y-124384197D01*
X155345886Y-124429313D01*
X155349435Y-124475452D01*
X154777907Y-124563380D01*
X154777134Y-124523323D01*
X154773699Y-124473520D01*
X154767517Y-124427839D01*
X154758587Y-124386280D01*
X154746909Y-124348842D01*
X154728448Y-124307841D01*
X154705693Y-124273279D01*
X154689979Y-124255634D01*
X154655237Y-124224111D01*
X154619397Y-124197931D01*
X154582460Y-124177094D01*
X154544426Y-124161600D01*
X154505294Y-124151449D01*
X154465066Y-124146640D01*
X154448667Y-124146213D01*
X154402600Y-124147811D01*
X154360873Y-124152605D01*
X154316532Y-124162577D01*
X154278442Y-124177152D01*
X154241903Y-124199972D01*
X154228849Y-124211670D01*
X154198967Y-124246189D01*
X154175268Y-124283798D01*
X154157751Y-124324499D01*
X154146417Y-124368291D01*
X154141694Y-124407145D01*
X154140921Y-124431489D01*
X154147791Y-124483467D01*
X154161959Y-124525596D01*
X154183855Y-124570421D01*
X154213479Y-124617942D01*
X154237521Y-124651121D01*
X154264999Y-124685498D01*
X154295911Y-124721074D01*
X154330257Y-124757848D01*
X154368039Y-124795820D01*
X154409255Y-124834990D01*
X154453905Y-124875359D01*
X154501991Y-124916926D01*
X154553510Y-124959692D01*
X154580558Y-124981524D01*
X154621286Y-125014325D01*
X154661159Y-125046782D01*
X154700176Y-125078896D01*
X154738339Y-125110667D01*
X154775647Y-125142094D01*
X154812101Y-125173178D01*
X154847699Y-125203918D01*
X154882443Y-125234315D01*
X154916331Y-125264368D01*
X154949365Y-125294078D01*
X154981544Y-125323444D01*
X155012868Y-125352467D01*
X155043338Y-125381147D01*
X155072952Y-125409483D01*
X155101712Y-125437475D01*
X155129616Y-125465124D01*
X155161559Y-125498525D01*
X155191440Y-125532780D01*
X155219261Y-125567890D01*
X155245021Y-125603854D01*
X155268720Y-125640674D01*
X155290359Y-125678348D01*
X155309936Y-125716878D01*
X155327453Y-125756262D01*
X155342909Y-125796501D01*
X155356304Y-125837595D01*
X155367639Y-125879543D01*
X155376912Y-125922347D01*
X155384125Y-125966005D01*
X155389277Y-126010519D01*
X155392368Y-126055887D01*
X155393399Y-126102110D01*
X155392456Y-126145646D01*
X155389628Y-126188327D01*
X155384915Y-126230154D01*
X155378317Y-126271126D01*
X155369833Y-126311243D01*
X155359464Y-126350505D01*
X155347210Y-126388912D01*
X155333071Y-126426464D01*
X155317046Y-126463162D01*
X155299136Y-126499004D01*
X155279341Y-126533992D01*
X155257661Y-126568125D01*
X155234095Y-126601403D01*
X155208644Y-126633826D01*
X155181308Y-126665395D01*
X155152087Y-126696108D01*
X155118599Y-126728051D01*
X155084080Y-126757932D01*
X155048532Y-126785753D01*
X155011952Y-126811513D01*
X154974343Y-126835212D01*
X154935703Y-126856851D01*
X154896032Y-126876428D01*
X154855332Y-126893945D01*
X154813600Y-126909401D01*
X154770839Y-126922796D01*
X154727047Y-126934131D01*
X154682225Y-126943404D01*
X154636372Y-126950617D01*
X154589489Y-126955769D01*
X154541575Y-126958860D01*
X154492631Y-126959891D01*
X154435730Y-126958944D01*
X154380554Y-126956105D01*
X154327103Y-126951373D01*
X154275377Y-126944748D01*
X154225376Y-126936230D01*
X154177100Y-126925819D01*
X154130549Y-126913515D01*
X154085722Y-126899318D01*
X154042621Y-126883229D01*
X154001245Y-126865247D01*
X153961594Y-126845371D01*
X153923667Y-126823603D01*
X153887466Y-126799942D01*
X153852990Y-126774388D01*
X153820238Y-126746941D01*
X153789212Y-126717602D01*
X153759700Y-126686491D01*
X153731738Y-126653488D01*
X153705326Y-126618592D01*
X153680463Y-126581803D01*
X153657149Y-126543121D01*
X153635384Y-126502546D01*
X153615170Y-126460078D01*
X153596504Y-126415718D01*
X153579388Y-126369464D01*
X153563821Y-126321318D01*
X153549804Y-126271278D01*
X153537336Y-126219346D01*
X153526418Y-126165521D01*
X153517049Y-126109803D01*
X153509229Y-126052193D01*
X153502959Y-125992689D01*
X154096958Y-125882291D01*
X154098117Y-125934607D01*
X154101594Y-125984209D01*
X154107390Y-126031098D01*
X154115505Y-126075274D01*
X154125938Y-126116736D01*
X154138689Y-126155484D01*
X154159297Y-126202929D01*
X154184026Y-126245549D01*
X154212878Y-126283346D01*
X154228849Y-126300435D01*
X154263591Y-126331958D01*
X154299431Y-126358137D01*
X154336368Y-126378974D01*
X154374402Y-126394468D01*
X154413534Y-126404620D01*
X154453762Y-126409428D01*
X154470161Y-126409856D01*
X154516777Y-126407709D01*
X154560149Y-126401269D01*
X154600277Y-126390536D01*
X154637162Y-126375509D01*
X154677141Y-126351810D01*
X154712450Y-126321928D01*
X154737780Y-126291780D01*
X154758818Y-126256288D01*
X154775562Y-126215454D01*
X154788012Y-126169277D01*
X154794882Y-126128488D01*
X154799003Y-126084280D01*
X154800377Y-126036653D01*
X154796702Y-125990262D01*
X154785677Y-125941948D01*
X154767301Y-125891710D01*
X154741576Y-125839549D01*
X154720342Y-125803706D01*
X154695841Y-125767009D01*
X154668074Y-125729456D01*
X154637040Y-125691049D01*
X154602739Y-125651787D01*
X154565171Y-125611670D01*
X154524337Y-125570698D01*
X154480236Y-125528872D01*
X154432868Y-125486190D01*
X154382233Y-125442654D01*
X154330858Y-125399206D01*
X154281025Y-125356787D01*
X154232734Y-125315400D01*
X154185984Y-125275042D01*
X154140776Y-125235716D01*
X154097110Y-125197419D01*
X154054986Y-125160153D01*
X154014404Y-125123917D01*
X153975363Y-125088712D01*
X153937864Y-125054537D01*
X153901907Y-125021392D01*
X153867491Y-124989278D01*
X153834618Y-124958195D01*
X153803286Y-124928141D01*
X153773496Y-124899118D01*
X153745248Y-124871126D01*
X153713821Y-124836607D01*
X153685485Y-124798998D01*
X153660240Y-124758297D01*
X153638086Y-124714505D01*
X153619024Y-124667622D01*
X153603053Y-124617648D01*
X153590173Y-124564582D01*
X153580384Y-124508425D01*
X153575575Y-124469270D01*
X153572141Y-124428741D01*
X153570080Y-124386838D01*
X153569393Y-124343561D01*
X153571325Y-124290647D01*
X153577121Y-124238884D01*
X153586781Y-124188271D01*
X153600305Y-124138809D01*
X153617693Y-124090498D01*
X153638945Y-124043337D01*
X153664061Y-123997327D01*
X153693041Y-123952467D01*
X153725885Y-123908758D01*
X153762593Y-123866200D01*
X153789212Y-123838467D01*
X153831776Y-123799183D01*
X153877036Y-123763763D01*
X153924993Y-123732207D01*
X153975645Y-123704515D01*
X154028994Y-123680687D01*
X154066058Y-123666948D01*
X154104320Y-123654927D01*
X154143781Y-123644623D01*
X154184440Y-123636036D01*
X154226297Y-123629167D01*
X154269352Y-123624015D01*
X154313606Y-123620580D01*
X154359058Y-123618863D01*
X154382233Y-123618648D01*
G37*
G36*
X157267863Y-123619591D02*
G01*
X157310797Y-123622419D01*
X157353043Y-123627132D01*
X157394602Y-123633730D01*
X157435475Y-123642214D01*
X157475661Y-123652583D01*
X157515159Y-123664837D01*
X157553971Y-123678976D01*
X157592096Y-123695001D01*
X157629534Y-123712911D01*
X157666284Y-123732706D01*
X157702348Y-123754386D01*
X157737725Y-123777952D01*
X157772416Y-123803403D01*
X157806419Y-123830739D01*
X157839735Y-123859960D01*
X157865435Y-123820676D01*
X157893075Y-123785256D01*
X157922656Y-123753700D01*
X157954178Y-123726008D01*
X157987640Y-123702180D01*
X158023043Y-123682217D01*
X158060386Y-123666117D01*
X158099670Y-123653881D01*
X158140895Y-123645509D01*
X158184060Y-123641001D01*
X158213915Y-123640142D01*
X158477697Y-123640142D01*
X158477697Y-124079779D01*
X158301842Y-124079779D01*
X158255775Y-124082474D01*
X158214049Y-124090560D01*
X158176663Y-124104036D01*
X158137531Y-124127323D01*
X158104650Y-124158373D01*
X158082024Y-124190177D01*
X158097365Y-124235850D01*
X158110661Y-124284943D01*
X158119291Y-124324007D01*
X158126770Y-124364994D01*
X158133098Y-124407904D01*
X158138276Y-124452738D01*
X158142303Y-124499495D01*
X158145180Y-124548176D01*
X158146906Y-124598780D01*
X158147481Y-124651307D01*
X158146622Y-124710727D01*
X158144046Y-124768086D01*
X158139753Y-124823384D01*
X158133742Y-124876621D01*
X158126014Y-124927798D01*
X158116569Y-124976913D01*
X158105406Y-125023968D01*
X158092526Y-125068963D01*
X158077929Y-125111896D01*
X158061614Y-125152768D01*
X158043582Y-125191580D01*
X158023833Y-125228331D01*
X158002366Y-125263021D01*
X157979182Y-125295650D01*
X157954281Y-125326219D01*
X157927662Y-125354727D01*
X157897239Y-125384066D01*
X157866296Y-125411513D01*
X157834835Y-125437067D01*
X157802854Y-125460728D01*
X157770355Y-125482496D01*
X157720632Y-125511599D01*
X157669742Y-125536443D01*
X157617684Y-125557028D01*
X157564458Y-125573355D01*
X157510064Y-125585422D01*
X157454503Y-125593230D01*
X157397774Y-125596779D01*
X157378605Y-125597016D01*
X157334146Y-125596432D01*
X157291627Y-125594680D01*
X157251050Y-125591761D01*
X157199965Y-125586051D01*
X157152330Y-125578266D01*
X157108145Y-125568405D01*
X157067410Y-125556467D01*
X157030124Y-125542454D01*
X157004424Y-125530581D01*
X156966497Y-125559516D01*
X156935147Y-125588433D01*
X156903579Y-125626962D01*
X156883704Y-125665461D01*
X156875522Y-125703929D01*
X156881737Y-125751971D01*
X156899865Y-125790371D01*
X156929685Y-125828740D01*
X156938967Y-125838327D01*
X156973207Y-125865576D01*
X157007923Y-125885551D01*
X157050384Y-125905132D01*
X157100590Y-125924317D01*
X157138364Y-125936888D01*
X157179580Y-125949283D01*
X157224238Y-125961503D01*
X157272339Y-125973547D01*
X157323882Y-125985416D01*
X157378867Y-125997109D01*
X157437294Y-126008627D01*
X157499164Y-126019969D01*
X157564476Y-126031135D01*
X157598423Y-126036653D01*
X157665598Y-126047987D01*
X157729856Y-126060008D01*
X157791199Y-126072717D01*
X157849627Y-126086112D01*
X157905139Y-126100194D01*
X157957735Y-126114963D01*
X158007415Y-126130419D01*
X158054180Y-126146562D01*
X158098029Y-126163392D01*
X158138963Y-126180909D01*
X158176981Y-126199112D01*
X158212083Y-126218003D01*
X158259270Y-126247627D01*
X158299896Y-126278797D01*
X158323336Y-126300435D01*
X158354763Y-126334567D01*
X158383099Y-126371017D01*
X158408344Y-126409786D01*
X158430497Y-126450873D01*
X158449560Y-126494279D01*
X158465531Y-126540003D01*
X158478411Y-126588045D01*
X158488200Y-126638406D01*
X158494897Y-126691085D01*
X158498504Y-126746083D01*
X158499191Y-126784036D01*
X158496872Y-126837511D01*
X158489917Y-126890591D01*
X158478325Y-126943275D01*
X158462096Y-126995565D01*
X158441231Y-127047460D01*
X158415728Y-127098960D01*
X158396151Y-127133074D01*
X158374512Y-127167012D01*
X158350813Y-127200775D01*
X158325053Y-127234362D01*
X158297232Y-127267774D01*
X158267351Y-127301010D01*
X158235408Y-127334071D01*
X158200890Y-127366013D01*
X158163280Y-127395895D01*
X158122580Y-127423715D01*
X158078788Y-127449475D01*
X158031905Y-127473175D01*
X157981930Y-127494813D01*
X157928865Y-127514391D01*
X157872708Y-127531907D01*
X157813460Y-127547363D01*
X157751121Y-127560759D01*
X157685690Y-127572093D01*
X157617169Y-127581367D01*
X157545556Y-127588579D01*
X157470852Y-127593731D01*
X157393057Y-127596823D01*
X157353000Y-127597595D01*
X157312170Y-127597853D01*
X157272766Y-127597638D01*
X157196402Y-127595921D01*
X157123297Y-127592486D01*
X157053451Y-127587334D01*
X156986865Y-127580465D01*
X156923537Y-127571878D01*
X156863469Y-127561574D01*
X156806659Y-127549553D01*
X156753109Y-127535814D01*
X156702818Y-127520358D01*
X156655786Y-127503185D01*
X156612013Y-127484294D01*
X156571499Y-127463686D01*
X156534245Y-127441361D01*
X156500249Y-127417318D01*
X156469513Y-127391558D01*
X156455367Y-127378034D01*
X156416083Y-127336235D01*
X156380663Y-127293267D01*
X156349107Y-127249131D01*
X156321415Y-127203828D01*
X156297587Y-127157357D01*
X156277623Y-127109718D01*
X156261523Y-127060912D01*
X156249287Y-127010937D01*
X156240915Y-126959795D01*
X156236407Y-126907485D01*
X156235548Y-126871963D01*
X156236922Y-126828343D01*
X156241043Y-126785410D01*
X156244921Y-126761565D01*
X156807076Y-126761565D01*
X156811516Y-126816738D01*
X156824833Y-126866483D01*
X156847030Y-126910802D01*
X156878105Y-126949693D01*
X156918059Y-126983159D01*
X156966891Y-127011197D01*
X157004379Y-127026874D01*
X157045812Y-127040140D01*
X157091192Y-127050993D01*
X157140517Y-127059435D01*
X157193789Y-127065465D01*
X157251007Y-127069082D01*
X157312170Y-127070288D01*
X157384100Y-127069254D01*
X157451389Y-127066152D01*
X157514037Y-127060980D01*
X157572045Y-127053741D01*
X157625412Y-127044433D01*
X157674138Y-127033057D01*
X157718224Y-127019612D01*
X157757669Y-127004099D01*
X157808136Y-126976950D01*
X157848161Y-126945148D01*
X157877745Y-126908692D01*
X157896888Y-126867582D01*
X157905589Y-126821818D01*
X157906169Y-126805529D01*
X157904547Y-126765935D01*
X157898319Y-126722704D01*
X157887420Y-126684144D01*
X157868800Y-126645062D01*
X157843822Y-126612337D01*
X157839735Y-126608181D01*
X157803099Y-126580597D01*
X157763440Y-126559929D01*
X157713339Y-126539278D01*
X157674138Y-126525520D01*
X157630297Y-126511770D01*
X157581815Y-126498027D01*
X157528692Y-126484293D01*
X157470928Y-126470565D01*
X157408524Y-126456846D01*
X157341480Y-126443134D01*
X157269794Y-126429430D01*
X157193468Y-126415733D01*
X157153565Y-126408887D01*
X157112502Y-126402044D01*
X157070278Y-126395202D01*
X157026895Y-126388362D01*
X156987611Y-126414054D01*
X156952191Y-126441668D01*
X156920635Y-126471206D01*
X156892943Y-126502668D01*
X156869115Y-126536053D01*
X156849151Y-126571361D01*
X156833051Y-126608593D01*
X156820815Y-126647748D01*
X156812443Y-126688827D01*
X156807935Y-126731829D01*
X156807076Y-126761565D01*
X156244921Y-126761565D01*
X156247913Y-126743163D01*
X156257530Y-126701604D01*
X156269895Y-126660731D01*
X156285007Y-126620546D01*
X156302867Y-126581047D01*
X156323475Y-126542235D01*
X156346831Y-126504111D01*
X156372935Y-126466673D01*
X156401786Y-126429922D01*
X156433385Y-126393858D01*
X156467731Y-126358481D01*
X156504826Y-126323791D01*
X156544668Y-126289787D01*
X156587258Y-126256471D01*
X156536101Y-126233651D01*
X156489977Y-126206588D01*
X156448884Y-126175284D01*
X156412823Y-126139738D01*
X156381793Y-126099951D01*
X156355796Y-126055921D01*
X156334830Y-126007650D01*
X156318896Y-125955137D01*
X156307994Y-125898382D01*
X156303521Y-125858188D01*
X156301285Y-125816110D01*
X156301005Y-125794364D01*
X156304096Y-125748920D01*
X156313370Y-125703082D01*
X156328826Y-125656848D01*
X156350464Y-125610220D01*
X156378285Y-125563197D01*
X156412288Y-125515778D01*
X156438392Y-125483946D01*
X156467243Y-125451939D01*
X156498842Y-125419756D01*
X156533188Y-125387398D01*
X156570283Y-125354864D01*
X156610125Y-125322155D01*
X156652715Y-125289270D01*
X156620772Y-125252889D01*
X156590891Y-125215310D01*
X156563070Y-125176532D01*
X156537310Y-125136557D01*
X156513611Y-125095383D01*
X156491972Y-125053010D01*
X156472395Y-125009440D01*
X156454878Y-124964671D01*
X156439422Y-124918704D01*
X156426027Y-124871538D01*
X156414692Y-124823174D01*
X156405419Y-124773612D01*
X156398206Y-124722851D01*
X156393054Y-124670892D01*
X156389963Y-124617735D01*
X156389766Y-124607344D01*
X156982931Y-124607344D01*
X156984045Y-124663302D01*
X156987389Y-124715650D01*
X156992960Y-124764388D01*
X157000761Y-124809516D01*
X157010790Y-124851033D01*
X157023048Y-124888940D01*
X157045614Y-124939032D01*
X157073194Y-124981001D01*
X157105789Y-125014847D01*
X157143399Y-125040569D01*
X157186023Y-125058169D01*
X157233662Y-125067646D01*
X157268207Y-125069451D01*
X157319363Y-125065390D01*
X157365488Y-125053205D01*
X157406581Y-125032898D01*
X157442642Y-125004467D01*
X157473671Y-124967914D01*
X157499669Y-124923237D01*
X157520635Y-124870438D01*
X157531816Y-124830726D01*
X157540762Y-124787403D01*
X157547471Y-124740470D01*
X157551943Y-124689927D01*
X157554180Y-124635774D01*
X157554459Y-124607344D01*
X157553341Y-124551504D01*
X157549987Y-124499266D01*
X157544396Y-124450631D01*
X157536569Y-124405599D01*
X157526505Y-124364169D01*
X157514205Y-124326342D01*
X157491562Y-124276356D01*
X157463887Y-124234476D01*
X157431181Y-124200702D01*
X157393442Y-124175034D01*
X157350672Y-124157471D01*
X157302870Y-124148014D01*
X157268207Y-124146213D01*
X157217225Y-124150266D01*
X157171258Y-124162425D01*
X157130305Y-124182689D01*
X157094367Y-124211060D01*
X157063443Y-124247536D01*
X157037535Y-124292118D01*
X157016640Y-124344805D01*
X157005497Y-124384434D01*
X156996582Y-124427665D01*
X156989896Y-124474498D01*
X156985438Y-124524934D01*
X156983210Y-124578973D01*
X156982931Y-124607344D01*
X156389766Y-124607344D01*
X156388933Y-124563380D01*
X156389963Y-124509112D01*
X156393054Y-124456218D01*
X156398206Y-124404698D01*
X156405419Y-124354552D01*
X156414692Y-124305780D01*
X156426027Y-124258382D01*
X156439422Y-124212357D01*
X156454878Y-124167706D01*
X156472395Y-124124430D01*
X156491972Y-124082527D01*
X156513611Y-124041998D01*
X156537310Y-124002842D01*
X156563070Y-123965061D01*
X156590891Y-123928654D01*
X156620772Y-123893620D01*
X156652715Y-123859960D01*
X156683341Y-123830739D01*
X156714646Y-123803403D01*
X156746630Y-123777952D01*
X156779294Y-123754386D01*
X156812637Y-123732706D01*
X156846659Y-123712911D01*
X156898966Y-123686753D01*
X156952801Y-123664837D01*
X157008165Y-123647163D01*
X157065058Y-123633730D01*
X157103835Y-123627132D01*
X157143292Y-123622419D01*
X157183428Y-123619591D01*
X157224243Y-123618648D01*
X157267863Y-123619591D01*
G37*
G36*
X159737013Y-124563380D02*
G01*
X160417963Y-123662612D01*
X161121382Y-123662612D01*
X160308542Y-124783198D01*
X161209309Y-126915927D01*
X160549854Y-126915927D01*
X159890398Y-125333233D01*
X159737013Y-125509088D01*
X159737013Y-126915927D01*
X159121521Y-126915927D01*
X159121521Y-122431628D01*
X159737013Y-122431628D01*
X159737013Y-124563380D01*
G37*
G36*
X162891662Y-123641088D02*
G01*
X162939312Y-123643928D01*
X162985756Y-123648660D01*
X163030995Y-123655285D01*
X163075027Y-123663803D01*
X163117853Y-123674214D01*
X163159474Y-123686517D01*
X163199889Y-123700714D01*
X163239097Y-123716804D01*
X163277100Y-123734786D01*
X163313897Y-123754661D01*
X163349487Y-123776429D01*
X163383872Y-123800090D01*
X163417051Y-123825644D01*
X163449024Y-123853091D01*
X163479791Y-123882431D01*
X163511733Y-123915919D01*
X163541615Y-123950437D01*
X163569436Y-123985986D01*
X163595196Y-124022565D01*
X163618895Y-124060175D01*
X163640533Y-124098815D01*
X163660111Y-124138485D01*
X163677628Y-124179186D01*
X163693084Y-124220917D01*
X163706479Y-124263679D01*
X163717813Y-124307471D01*
X163727087Y-124352293D01*
X163734300Y-124398146D01*
X163739452Y-124445029D01*
X163742543Y-124492942D01*
X163743573Y-124541886D01*
X163743573Y-125398690D01*
X162556553Y-125398690D01*
X162556553Y-126124580D01*
X162558700Y-126164723D01*
X162566943Y-126210060D01*
X162581368Y-126252307D01*
X162601976Y-126291462D01*
X162628767Y-126327526D01*
X162644480Y-126344399D01*
X162676677Y-126369904D01*
X162715139Y-126389145D01*
X162753092Y-126400651D01*
X162795648Y-126407555D01*
X162842806Y-126409856D01*
X162882400Y-126408258D01*
X162925631Y-126402121D01*
X162964190Y-126391382D01*
X163003273Y-126373036D01*
X163035998Y-126348426D01*
X163040154Y-126344399D01*
X163070035Y-126309880D01*
X163093734Y-126272271D01*
X163111251Y-126231570D01*
X163122586Y-126187778D01*
X163127308Y-126148923D01*
X163128081Y-126124580D01*
X163128081Y-125772870D01*
X163743573Y-125772870D01*
X163743573Y-126080616D01*
X163742630Y-126132079D01*
X163739803Y-126182176D01*
X163735089Y-126230906D01*
X163728491Y-126278270D01*
X163720008Y-126324268D01*
X163709639Y-126368899D01*
X163697385Y-126412165D01*
X163683245Y-126454064D01*
X163667221Y-126494597D01*
X163649311Y-126533763D01*
X163629516Y-126571564D01*
X163607835Y-126607998D01*
X163584270Y-126643066D01*
X163558819Y-126676767D01*
X163531483Y-126709103D01*
X163502261Y-126740072D01*
X163462765Y-126779356D01*
X163418650Y-126814776D01*
X163369915Y-126846332D01*
X163334858Y-126865223D01*
X163297749Y-126882396D01*
X163258586Y-126897852D01*
X163217370Y-126911591D01*
X163174101Y-126923612D01*
X163128779Y-126933916D01*
X163081403Y-126942503D01*
X163031974Y-126949372D01*
X162980493Y-126954524D01*
X162926958Y-126957959D01*
X162871370Y-126959676D01*
X162842806Y-126959891D01*
X162788710Y-126959032D01*
X162736331Y-126956456D01*
X162685670Y-126952163D01*
X162636726Y-126946152D01*
X162589499Y-126938424D01*
X162543990Y-126928979D01*
X162500198Y-126917816D01*
X162458123Y-126904936D01*
X162417766Y-126890339D01*
X162379126Y-126874024D01*
X162342203Y-126855992D01*
X162306998Y-126836243D01*
X162273510Y-126814776D01*
X162241739Y-126791592D01*
X162197303Y-126753596D01*
X162183350Y-126740072D01*
X162154010Y-126709103D01*
X162126563Y-126676767D01*
X162101009Y-126643066D01*
X162077348Y-126607998D01*
X162055580Y-126571564D01*
X162035705Y-126533763D01*
X162017723Y-126494597D01*
X162001633Y-126454064D01*
X161987437Y-126412165D01*
X161975133Y-126368899D01*
X161964722Y-126324268D01*
X161956204Y-126278270D01*
X161949579Y-126230906D01*
X161944847Y-126182176D01*
X161942007Y-126132079D01*
X161941061Y-126080616D01*
X161941061Y-124871126D01*
X162556553Y-124871126D01*
X163128081Y-124871126D01*
X163128081Y-124475452D01*
X163125934Y-124435310D01*
X163117691Y-124389972D01*
X163103266Y-124347726D01*
X163082658Y-124308571D01*
X163055867Y-124272507D01*
X163040154Y-124255634D01*
X163008337Y-124230129D01*
X162970163Y-124210888D01*
X162932382Y-124199382D01*
X162889929Y-124192478D01*
X162842806Y-124190177D01*
X162803188Y-124191775D01*
X162759865Y-124197911D01*
X162721145Y-124208650D01*
X162681788Y-124226996D01*
X162648696Y-124251607D01*
X162644480Y-124255634D01*
X162614599Y-124289397D01*
X162590900Y-124324739D01*
X162573383Y-124361662D01*
X162562048Y-124400165D01*
X162556896Y-124440247D01*
X162556553Y-124453959D01*
X162556553Y-124871126D01*
X161941061Y-124871126D01*
X161941061Y-124541886D01*
X161942091Y-124492942D01*
X161945183Y-124445029D01*
X161950335Y-124398146D01*
X161957547Y-124352293D01*
X161966821Y-124307471D01*
X161978155Y-124263679D01*
X161991550Y-124220917D01*
X162007006Y-124179186D01*
X162024523Y-124138485D01*
X162044101Y-124098815D01*
X162065739Y-124060175D01*
X162089438Y-124022565D01*
X162115198Y-123985986D01*
X162143019Y-123950437D01*
X162172901Y-123915919D01*
X162204843Y-123882431D01*
X162235728Y-123853091D01*
X162267812Y-123825644D01*
X162301094Y-123800090D01*
X162335574Y-123776429D01*
X162371253Y-123754661D01*
X162408130Y-123734786D01*
X162446205Y-123716804D01*
X162485478Y-123700714D01*
X162525950Y-123686517D01*
X162567620Y-123674214D01*
X162610489Y-123663803D01*
X162654555Y-123655285D01*
X162699820Y-123648660D01*
X162746284Y-123643928D01*
X162793945Y-123641088D01*
X162842806Y-123640142D01*
X162891662Y-123641088D01*
G37*
G36*
X165640852Y-125442654D02*
G01*
X166124452Y-123662612D01*
X166783908Y-123662612D01*
X165728779Y-127158216D01*
X165711346Y-127211453D01*
X165692020Y-127261256D01*
X165670802Y-127307624D01*
X165647690Y-127350557D01*
X165622686Y-127390056D01*
X165595789Y-127426120D01*
X165566999Y-127458749D01*
X165536316Y-127487944D01*
X165503740Y-127513704D01*
X165469271Y-127536029D01*
X165432909Y-127554920D01*
X165394655Y-127570376D01*
X165354507Y-127582397D01*
X165312467Y-127590984D01*
X165268534Y-127596136D01*
X165222708Y-127597853D01*
X164651180Y-127597853D01*
X164651180Y-127091782D01*
X164893468Y-127091782D01*
X164933063Y-127090708D01*
X164976293Y-127086587D01*
X165014853Y-127079374D01*
X165053936Y-127067052D01*
X165090817Y-127047818D01*
X165119835Y-127020169D01*
X165144633Y-126983075D01*
X165165246Y-126942717D01*
X165181702Y-126904249D01*
X165198127Y-126860285D01*
X165214522Y-126810826D01*
X165222708Y-126784036D01*
X165333106Y-126409856D01*
X164519288Y-123662612D01*
X165178744Y-123662612D01*
X165640852Y-125442654D01*
G37*
D11*
%TO.C,G\u002A\u002A\u002A*%
X116788572Y-80402500D02*
X116645715Y-80331071D01*
X116645715Y-80331071D02*
X116431429Y-80331071D01*
X116431429Y-80331071D02*
X116217143Y-80402500D01*
X116217143Y-80402500D02*
X116074286Y-80545357D01*
X116074286Y-80545357D02*
X116002857Y-80688214D01*
X116002857Y-80688214D02*
X115931429Y-80973928D01*
X115931429Y-80973928D02*
X115931429Y-81188214D01*
X115931429Y-81188214D02*
X116002857Y-81473928D01*
X116002857Y-81473928D02*
X116074286Y-81616785D01*
X116074286Y-81616785D02*
X116217143Y-81759642D01*
X116217143Y-81759642D02*
X116431429Y-81831071D01*
X116431429Y-81831071D02*
X116574286Y-81831071D01*
X116574286Y-81831071D02*
X116788572Y-81759642D01*
X116788572Y-81759642D02*
X116860000Y-81688214D01*
X116860000Y-81688214D02*
X116860000Y-81188214D01*
X116860000Y-81188214D02*
X116574286Y-81188214D01*
X117717143Y-80331071D02*
X117717143Y-80688214D01*
X117360000Y-80545357D02*
X117717143Y-80688214D01*
X117717143Y-80688214D02*
X118074286Y-80545357D01*
X117502857Y-80973928D02*
X117717143Y-80688214D01*
X117717143Y-80688214D02*
X117931429Y-80973928D01*
X118860000Y-80331071D02*
X118860000Y-80688214D01*
X118502857Y-80545357D02*
X118860000Y-80688214D01*
X118860000Y-80688214D02*
X119217143Y-80545357D01*
X118645714Y-80973928D02*
X118860000Y-80688214D01*
X118860000Y-80688214D02*
X119074286Y-80973928D01*
X120002857Y-80331071D02*
X120002857Y-80688214D01*
X119645714Y-80545357D02*
X120002857Y-80688214D01*
X120002857Y-80688214D02*
X120360000Y-80545357D01*
X119788571Y-80973928D02*
X120002857Y-80688214D01*
X120002857Y-80688214D02*
X120217143Y-80973928D01*
G36*
X115535676Y-85055676D02*
G01*
X115535676Y-86257027D01*
X114334325Y-86257027D01*
X113132973Y-86257027D01*
X113132973Y-85055676D01*
X113132973Y-84197568D01*
X113476216Y-84197568D01*
X113476216Y-85055676D01*
X113476216Y-85913784D01*
X114334325Y-85913784D01*
X115192433Y-85913784D01*
X115192433Y-85055676D01*
X115192433Y-84197568D01*
X114334325Y-84197568D01*
X113476216Y-84197568D01*
X113132973Y-84197568D01*
X113132973Y-83854325D01*
X114334325Y-83854325D01*
X115535676Y-83854325D01*
X115535676Y-85055676D01*
G37*
G36*
X123087027Y-85398919D02*
G01*
X123087027Y-85913784D01*
X122915406Y-85913784D01*
X122743784Y-85913784D01*
X122743784Y-85742162D01*
X122743784Y-85570541D01*
X122572162Y-85570541D01*
X122400541Y-85570541D01*
X122400541Y-85742162D01*
X122400541Y-85913784D01*
X122057298Y-85913784D01*
X121714054Y-85913784D01*
X121714054Y-86085406D01*
X121714054Y-86257027D01*
X121542433Y-86257027D01*
X121370811Y-86257027D01*
X121370811Y-86085406D01*
X121370811Y-85913784D01*
X121199189Y-85913784D01*
X121027568Y-85913784D01*
X121027568Y-86085406D01*
X121027568Y-86257027D01*
X120855946Y-86257027D01*
X120684325Y-86257027D01*
X120684325Y-85913784D01*
X120684325Y-85570541D01*
X120855946Y-85570541D01*
X121027568Y-85570541D01*
X121370811Y-85570541D01*
X121370811Y-85742162D01*
X121370811Y-85913784D01*
X121542433Y-85913784D01*
X121714054Y-85913784D01*
X121714054Y-85742162D01*
X121714054Y-85570541D01*
X121542433Y-85570541D01*
X121370811Y-85570541D01*
X121027568Y-85570541D01*
X121027568Y-85398919D01*
X121027568Y-85227298D01*
X121370811Y-85227298D01*
X121714054Y-85227298D01*
X121714054Y-85398919D01*
X121714054Y-85570541D01*
X121885676Y-85570541D01*
X122057298Y-85570541D01*
X122057298Y-85398919D01*
X122057298Y-85227298D01*
X122400541Y-85227298D01*
X122743784Y-85227298D01*
X122743784Y-85055676D01*
X122743784Y-84884054D01*
X122915406Y-84884054D01*
X123087027Y-84884054D01*
X123087027Y-85398919D01*
G37*
G36*
X117251892Y-84025946D02*
G01*
X117251892Y-84197568D01*
X117423514Y-84197568D01*
X117595135Y-84197568D01*
X117595135Y-84025946D01*
X117595135Y-83854325D01*
X117938379Y-83854325D01*
X117938379Y-84369189D01*
X117938379Y-84884054D01*
X118110000Y-84884054D01*
X118281622Y-84884054D01*
X118281622Y-84369189D01*
X118281622Y-84197568D01*
X118624865Y-84197568D01*
X118624865Y-84369189D01*
X118624865Y-84540811D01*
X118796487Y-84540811D01*
X118968108Y-84540811D01*
X118968108Y-84712433D01*
X118968108Y-84884054D01*
X119311352Y-84884054D01*
X119654595Y-84884054D01*
X119654595Y-84540811D01*
X119654595Y-84197568D01*
X119482973Y-84197568D01*
X119311352Y-84197568D01*
X119311352Y-84369189D01*
X119311352Y-84540811D01*
X119139730Y-84540811D01*
X118968108Y-84540811D01*
X118968108Y-84369189D01*
X118968108Y-84197568D01*
X118796487Y-84197568D01*
X118624865Y-84197568D01*
X118281622Y-84197568D01*
X118281622Y-83854325D01*
X118110000Y-83854325D01*
X117938379Y-83854325D01*
X117595135Y-83854325D01*
X117423514Y-83854325D01*
X117251892Y-83854325D01*
X117251892Y-83682703D01*
X117251892Y-83511081D01*
X117080271Y-83511081D01*
X116908649Y-83511081D01*
X116908649Y-83167838D01*
X116908649Y-82824595D01*
X117080271Y-82824595D01*
X117251892Y-82824595D01*
X117251892Y-83167838D01*
X117251892Y-83511081D01*
X117423514Y-83511081D01*
X117595135Y-83511081D01*
X117595135Y-83167838D01*
X117938379Y-83167838D01*
X117938379Y-83339460D01*
X117938379Y-83511081D01*
X118281622Y-83511081D01*
X118624865Y-83511081D01*
X118624865Y-83682703D01*
X118624865Y-83854325D01*
X118796487Y-83854325D01*
X118968108Y-83854325D01*
X118968108Y-83682703D01*
X118968108Y-83511081D01*
X118796487Y-83511081D01*
X118624865Y-83511081D01*
X118624865Y-83339460D01*
X118624865Y-83167838D01*
X118281622Y-83167838D01*
X117938379Y-83167838D01*
X117595135Y-83167838D01*
X117595135Y-82824595D01*
X117423514Y-82824595D01*
X117251892Y-82824595D01*
X117251892Y-82652973D01*
X117251892Y-82481352D01*
X117595135Y-82481352D01*
X117938379Y-82481352D01*
X117938379Y-82652973D01*
X117938379Y-82824595D01*
X118110000Y-82824595D01*
X118281622Y-82824595D01*
X118281622Y-82481352D01*
X118281622Y-82138108D01*
X118796487Y-82138108D01*
X119311352Y-82138108D01*
X119311352Y-82481352D01*
X119311352Y-82824595D01*
X119139730Y-82824595D01*
X118968108Y-82824595D01*
X118968108Y-82652973D01*
X118968108Y-82481352D01*
X118796487Y-82481352D01*
X118624865Y-82481352D01*
X118624865Y-82652973D01*
X118624865Y-82824595D01*
X118796487Y-82824595D01*
X118968108Y-82824595D01*
X118968108Y-82996216D01*
X118968108Y-83167838D01*
X119139730Y-83167838D01*
X119311352Y-83167838D01*
X119311352Y-83339460D01*
X119311352Y-83511081D01*
X119482973Y-83511081D01*
X119654595Y-83511081D01*
X119654595Y-83682703D01*
X119654595Y-83854325D01*
X119826216Y-83854325D01*
X119997838Y-83854325D01*
X119997838Y-83511081D01*
X120341081Y-83511081D01*
X120341081Y-84025946D01*
X120341081Y-84540811D01*
X120855946Y-84540811D01*
X121370811Y-84540811D01*
X121370811Y-84025946D01*
X121370811Y-83511081D01*
X120855946Y-83511081D01*
X120341081Y-83511081D01*
X119997838Y-83511081D01*
X119997838Y-83167838D01*
X120341081Y-83167838D01*
X120684325Y-83167838D01*
X120684325Y-82996216D01*
X120684325Y-82824595D01*
X120855946Y-82824595D01*
X121027568Y-82824595D01*
X121027568Y-82996216D01*
X121027568Y-83167838D01*
X121370811Y-83167838D01*
X121714054Y-83167838D01*
X121714054Y-82996216D01*
X121714054Y-82824595D01*
X121542433Y-82824595D01*
X121370811Y-82824595D01*
X121370811Y-82481352D01*
X121370811Y-82138108D01*
X121542433Y-82138108D01*
X121714054Y-82138108D01*
X121714054Y-81966487D01*
X121714054Y-81794865D01*
X121885676Y-81794865D01*
X122057298Y-81794865D01*
X122057298Y-81451622D01*
X122057298Y-81108379D01*
X121885676Y-81108379D01*
X121714054Y-81108379D01*
X121714054Y-81451622D01*
X121714054Y-81794865D01*
X121370811Y-81794865D01*
X121027568Y-81794865D01*
X121027568Y-81623244D01*
X121027568Y-81451622D01*
X121199189Y-81451622D01*
X121370811Y-81451622D01*
X121370811Y-81280000D01*
X121370811Y-81108379D01*
X121199189Y-81108379D01*
X121027568Y-81108379D01*
X121027568Y-81280000D01*
X121027568Y-81451622D01*
X120512703Y-81451622D01*
X119997838Y-81451622D01*
X119997838Y-81623244D01*
X119997838Y-81794865D01*
X120341081Y-81794865D01*
X120684325Y-81794865D01*
X120684325Y-81966487D01*
X120684325Y-82138108D01*
X120341081Y-82138108D01*
X119997838Y-82138108D01*
X119997838Y-82652973D01*
X119997838Y-83167838D01*
X119654595Y-83167838D01*
X119311352Y-83167838D01*
X119311352Y-82996216D01*
X119311352Y-82824595D01*
X119482973Y-82824595D01*
X119654595Y-82824595D01*
X119654595Y-81966487D01*
X119654595Y-81108379D01*
X119482973Y-81108379D01*
X119311352Y-81108379D01*
X119311352Y-81280000D01*
X119311352Y-81451622D01*
X119139730Y-81451622D01*
X118968108Y-81451622D01*
X118968108Y-81280000D01*
X118968108Y-81108379D01*
X118796487Y-81108379D01*
X118624865Y-81108379D01*
X118624865Y-81280000D01*
X118624865Y-81451622D01*
X118453244Y-81451622D01*
X118281622Y-81451622D01*
X118281622Y-81108379D01*
X118281622Y-80765135D01*
X118453244Y-80765135D01*
X118624865Y-80765135D01*
X118624865Y-80593514D01*
X118624865Y-80421892D01*
X118968108Y-80421892D01*
X118968108Y-80593514D01*
X118968108Y-80765135D01*
X119139730Y-80765135D01*
X119311352Y-80765135D01*
X119311352Y-80593514D01*
X119311352Y-80421892D01*
X119139730Y-80421892D01*
X118968108Y-80421892D01*
X118624865Y-80421892D01*
X118281622Y-80421892D01*
X117938379Y-80421892D01*
X117938379Y-79735406D01*
X117938379Y-79048919D01*
X118281622Y-79048919D01*
X118624865Y-79048919D01*
X118624865Y-78705676D01*
X118624865Y-78362433D01*
X118796487Y-78362433D01*
X118968108Y-78362433D01*
X118968108Y-78705676D01*
X118968108Y-79048919D01*
X119311352Y-79048919D01*
X119654595Y-79048919D01*
X119654595Y-78877298D01*
X119654595Y-78705676D01*
X119826216Y-78705676D01*
X119997838Y-78705676D01*
X119997838Y-78362433D01*
X119997838Y-78019189D01*
X120169460Y-78019189D01*
X120341081Y-78019189D01*
X120341081Y-78534054D01*
X120341081Y-79048919D01*
X120169460Y-79048919D01*
X119997838Y-79048919D01*
X119997838Y-79392162D01*
X119997838Y-79735406D01*
X119826216Y-79735406D01*
X119654595Y-79735406D01*
X119654595Y-79563784D01*
X119654595Y-79392162D01*
X119139730Y-79392162D01*
X118624865Y-79392162D01*
X118624865Y-79563784D01*
X118624865Y-79735406D01*
X118968108Y-79735406D01*
X119311352Y-79735406D01*
X119311352Y-80078649D01*
X119311352Y-80421892D01*
X119482973Y-80421892D01*
X119654595Y-80421892D01*
X119654595Y-80250271D01*
X119654595Y-80078649D01*
X119826216Y-80078649D01*
X119997838Y-80078649D01*
X119997838Y-80421892D01*
X119997838Y-80765135D01*
X119826216Y-80765135D01*
X119654595Y-80765135D01*
X119654595Y-80936757D01*
X119654595Y-81108379D01*
X120169460Y-81108379D01*
X120684325Y-81108379D01*
X120684325Y-80765135D01*
X120684325Y-80421892D01*
X120512703Y-80421892D01*
X120341081Y-80421892D01*
X120341081Y-80250271D01*
X120341081Y-80078649D01*
X120684325Y-80078649D01*
X121027568Y-80078649D01*
X121027568Y-79735406D01*
X121027568Y-79392162D01*
X121370811Y-79392162D01*
X121714054Y-79392162D01*
X121714054Y-79735406D01*
X121714054Y-80078649D01*
X121885676Y-80078649D01*
X122057298Y-80078649D01*
X122057298Y-79735406D01*
X122057298Y-79392162D01*
X122400541Y-79392162D01*
X122743784Y-79392162D01*
X122743784Y-79220541D01*
X122743784Y-79048919D01*
X122915406Y-79048919D01*
X123087027Y-79048919D01*
X123087027Y-79220541D01*
X123087027Y-79392162D01*
X122915406Y-79392162D01*
X122743784Y-79392162D01*
X122743784Y-79563784D01*
X122743784Y-79735406D01*
X122572162Y-79735406D01*
X122400541Y-79735406D01*
X122400541Y-79907027D01*
X122400541Y-80078649D01*
X122228919Y-80078649D01*
X122057298Y-80078649D01*
X122057298Y-80250271D01*
X122057298Y-80421892D01*
X121885676Y-80421892D01*
X121714054Y-80421892D01*
X121714054Y-80250271D01*
X121714054Y-80078649D01*
X121542433Y-80078649D01*
X121370811Y-80078649D01*
X121370811Y-80421892D01*
X121370811Y-80765135D01*
X122057298Y-80765135D01*
X122743784Y-80765135D01*
X122743784Y-80421892D01*
X122743784Y-80078649D01*
X122915406Y-80078649D01*
X123087027Y-80078649D01*
X123087027Y-80936757D01*
X123087027Y-81794865D01*
X122915406Y-81794865D01*
X122743784Y-81794865D01*
X122743784Y-81451622D01*
X122743784Y-81108379D01*
X122572162Y-81108379D01*
X122400541Y-81108379D01*
X122400541Y-81451622D01*
X122400541Y-81794865D01*
X122228919Y-81794865D01*
X122057298Y-81794865D01*
X122057298Y-81966487D01*
X122057298Y-82138108D01*
X121885676Y-82138108D01*
X121714054Y-82138108D01*
X121714054Y-82309730D01*
X121714054Y-82481352D01*
X121885676Y-82481352D01*
X122057298Y-82481352D01*
X122057298Y-82309730D01*
X122057298Y-82138108D01*
X122400541Y-82138108D01*
X122743784Y-82138108D01*
X122743784Y-82309730D01*
X122743784Y-82481352D01*
X122400541Y-82481352D01*
X122057298Y-82481352D01*
X122057298Y-82652973D01*
X122057298Y-82824595D01*
X122228919Y-82824595D01*
X122400541Y-82824595D01*
X122400541Y-82996216D01*
X122400541Y-83167838D01*
X122572162Y-83167838D01*
X122743784Y-83167838D01*
X122743784Y-83339460D01*
X122743784Y-83511081D01*
X122400541Y-83511081D01*
X122057298Y-83511081D01*
X122057298Y-83854325D01*
X122057298Y-84197568D01*
X121885676Y-84197568D01*
X121714054Y-84197568D01*
X121714054Y-84369189D01*
X121714054Y-84540811D01*
X121885676Y-84540811D01*
X122057298Y-84540811D01*
X122057298Y-84712433D01*
X122057298Y-84884054D01*
X121370811Y-84884054D01*
X120684325Y-84884054D01*
X120684325Y-85227298D01*
X120684325Y-85570541D01*
X120341081Y-85570541D01*
X119997838Y-85570541D01*
X119997838Y-85398919D01*
X119997838Y-85227298D01*
X120169460Y-85227298D01*
X120341081Y-85227298D01*
X120341081Y-85055676D01*
X120341081Y-84884054D01*
X119997838Y-84884054D01*
X119654595Y-84884054D01*
X119654595Y-85055676D01*
X119654595Y-85227298D01*
X119482973Y-85227298D01*
X119311352Y-85227298D01*
X119311352Y-85398919D01*
X119311352Y-85570541D01*
X119139730Y-85570541D01*
X118968108Y-85570541D01*
X118968108Y-85913784D01*
X118968108Y-86257027D01*
X118796487Y-86257027D01*
X118624865Y-86257027D01*
X118624865Y-85913784D01*
X118624865Y-85570541D01*
X118453244Y-85570541D01*
X118281622Y-85570541D01*
X118281622Y-85398919D01*
X118281622Y-85227298D01*
X118624865Y-85227298D01*
X118624865Y-85398919D01*
X118624865Y-85570541D01*
X118796487Y-85570541D01*
X118968108Y-85570541D01*
X118968108Y-85398919D01*
X118968108Y-85227298D01*
X118796487Y-85227298D01*
X118624865Y-85227298D01*
X118281622Y-85227298D01*
X118110000Y-85227298D01*
X117938379Y-85227298D01*
X117938379Y-85398919D01*
X117938379Y-85570541D01*
X117595135Y-85570541D01*
X117251892Y-85570541D01*
X117251892Y-85742162D01*
X117251892Y-85913784D01*
X117080271Y-85913784D01*
X116908649Y-85913784D01*
X116908649Y-86085406D01*
X116908649Y-86257027D01*
X116393784Y-86257027D01*
X115878919Y-86257027D01*
X115878919Y-85913784D01*
X115878919Y-85570541D01*
X116050541Y-85570541D01*
X116222162Y-85570541D01*
X116222162Y-85398919D01*
X116222162Y-85227298D01*
X116050541Y-85227298D01*
X115878919Y-85227298D01*
X115878919Y-84884054D01*
X115878919Y-84540811D01*
X116050541Y-84540811D01*
X116222162Y-84540811D01*
X116222162Y-84712433D01*
X116222162Y-84884054D01*
X116393784Y-84884054D01*
X116565406Y-84884054D01*
X116565406Y-85227298D01*
X116565406Y-85570541D01*
X116393784Y-85570541D01*
X116222162Y-85570541D01*
X116222162Y-85742162D01*
X116222162Y-85913784D01*
X116393784Y-85913784D01*
X116565406Y-85913784D01*
X116565406Y-85742162D01*
X116565406Y-85570541D01*
X116737027Y-85570541D01*
X116908649Y-85570541D01*
X116908649Y-85398919D01*
X116908649Y-85227298D01*
X117251892Y-85227298D01*
X117595135Y-85227298D01*
X117595135Y-85055676D01*
X117595135Y-84884054D01*
X117251892Y-84884054D01*
X116908649Y-84884054D01*
X116908649Y-84712433D01*
X116908649Y-84540811D01*
X116565406Y-84540811D01*
X116222162Y-84540811D01*
X116222162Y-84369189D01*
X116222162Y-84197568D01*
X116565406Y-84197568D01*
X116908649Y-84197568D01*
X116908649Y-84025946D01*
X116908649Y-83854325D01*
X117080271Y-83854325D01*
X117251892Y-83854325D01*
X117251892Y-84025946D01*
G37*
G36*
X116565406Y-77332703D02*
G01*
X116393784Y-77332703D01*
X116222162Y-77332703D01*
X116222162Y-77161081D01*
X116222162Y-76989460D01*
X116393784Y-76989460D01*
X116565406Y-76989460D01*
X116565406Y-77161081D01*
X116565406Y-77332703D01*
X116737027Y-77332703D01*
X116908649Y-77332703D01*
X117251892Y-77332703D01*
X117251892Y-77675946D01*
X117423514Y-77675946D01*
X117595135Y-77675946D01*
X117595135Y-77332703D01*
X117595135Y-76989460D01*
X117766757Y-76989460D01*
X117938379Y-76989460D01*
X117938379Y-76817838D01*
X117938379Y-76646216D01*
X117766757Y-76646216D01*
X117595135Y-76646216D01*
X117595135Y-76817838D01*
X117595135Y-76989460D01*
X117423514Y-76989460D01*
X117251892Y-76989460D01*
X117251892Y-77332703D01*
X116908649Y-77332703D01*
X116908649Y-76989460D01*
X116908649Y-76646216D01*
X116393784Y-76646216D01*
X115878919Y-76646216D01*
X115878919Y-76474595D01*
X115878919Y-76302973D01*
X116565406Y-76302973D01*
X117251892Y-76302973D01*
X117251892Y-76474595D01*
X117251892Y-76646216D01*
X117423514Y-76646216D01*
X117595135Y-76646216D01*
X117595135Y-76474595D01*
X117595135Y-76302973D01*
X117938379Y-76302973D01*
X118281622Y-76302973D01*
X118281622Y-76646216D01*
X118281622Y-76989460D01*
X118453244Y-76989460D01*
X118624865Y-76989460D01*
X118624865Y-76817838D01*
X118624865Y-76646216D01*
X118968108Y-76646216D01*
X119311352Y-76646216D01*
X119311352Y-76474595D01*
X119311352Y-76302973D01*
X119482973Y-76302973D01*
X119654595Y-76302973D01*
X119654595Y-76474595D01*
X119654595Y-76646216D01*
X119482973Y-76646216D01*
X119311352Y-76646216D01*
X119311352Y-76817838D01*
X119311352Y-76989460D01*
X119139730Y-76989460D01*
X118968108Y-76989460D01*
X118968108Y-77161081D01*
X118968108Y-77332703D01*
X118796487Y-77332703D01*
X118624865Y-77332703D01*
X118624865Y-77504325D01*
X118624865Y-77675946D01*
X118453244Y-77675946D01*
X118281622Y-77675946D01*
X118281622Y-77332703D01*
X118281622Y-76989460D01*
X118110000Y-76989460D01*
X117938379Y-76989460D01*
X117938379Y-77332703D01*
X117938379Y-77675946D01*
X118110000Y-77675946D01*
X118281622Y-77675946D01*
X118281622Y-78190811D01*
X118281622Y-78705676D01*
X118110000Y-78705676D01*
X117938379Y-78705676D01*
X117938379Y-78534054D01*
X117938379Y-78362433D01*
X117766757Y-78362433D01*
X117595135Y-78362433D01*
X117595135Y-78190811D01*
X117595135Y-78019189D01*
X117423514Y-78019189D01*
X117251892Y-78019189D01*
X117251892Y-78190811D01*
X117251892Y-78362433D01*
X117080271Y-78362433D01*
X116908649Y-78362433D01*
X116908649Y-78190811D01*
X116908649Y-78019189D01*
X116737027Y-78019189D01*
X116565406Y-78019189D01*
X116565406Y-78190811D01*
X116565406Y-78362433D01*
X116393784Y-78362433D01*
X116222162Y-78362433D01*
X116222162Y-78534054D01*
X116222162Y-78705676D01*
X116393784Y-78705676D01*
X116565406Y-78705676D01*
X116565406Y-79048919D01*
X116565406Y-79392162D01*
X116393784Y-79392162D01*
X116222162Y-79392162D01*
X116222162Y-79563784D01*
X116222162Y-79735406D01*
X116050541Y-79735406D01*
X115878919Y-79735406D01*
X115878919Y-79907027D01*
X115878919Y-80078649D01*
X116050541Y-80078649D01*
X116222162Y-80078649D01*
X116222162Y-80250271D01*
X116222162Y-80421892D01*
X115878919Y-80421892D01*
X115535676Y-80421892D01*
X115535676Y-80250271D01*
X115535676Y-80078649D01*
X115364054Y-80078649D01*
X115192433Y-80078649D01*
X115192433Y-79907027D01*
X115192433Y-79735406D01*
X115364054Y-79735406D01*
X115535676Y-79735406D01*
X115535676Y-79563784D01*
X115535676Y-79392162D01*
X115364054Y-79392162D01*
X115192433Y-79392162D01*
X115192433Y-79563784D01*
X115192433Y-79735406D01*
X115020811Y-79735406D01*
X114849189Y-79735406D01*
X114849189Y-79907027D01*
X114849189Y-80078649D01*
X114677568Y-80078649D01*
X114505946Y-80078649D01*
X114505946Y-80250271D01*
X114505946Y-80421892D01*
X114677568Y-80421892D01*
X114849189Y-80421892D01*
X114849189Y-80593514D01*
X114849189Y-80765135D01*
X114677568Y-80765135D01*
X114505946Y-80765135D01*
X114505946Y-80936757D01*
X114505946Y-81108379D01*
X114334325Y-81108379D01*
X114162703Y-81108379D01*
X114162703Y-81280000D01*
X114162703Y-81451622D01*
X113819460Y-81451622D01*
X113476216Y-81451622D01*
X113476216Y-81623244D01*
X113476216Y-81794865D01*
X113647838Y-81794865D01*
X113819460Y-81794865D01*
X113819460Y-81966487D01*
X113819460Y-82138108D01*
X113647838Y-82138108D01*
X113476216Y-82138108D01*
X113476216Y-82309730D01*
X113476216Y-82481352D01*
X113647838Y-82481352D01*
X113819460Y-82481352D01*
X113819460Y-82309730D01*
X113819460Y-82138108D01*
X113991081Y-82138108D01*
X114162703Y-82138108D01*
X114162703Y-81794865D01*
X114162703Y-81451622D01*
X114334325Y-81451622D01*
X114505946Y-81451622D01*
X114505946Y-81623244D01*
X114505946Y-81794865D01*
X114677568Y-81794865D01*
X114849189Y-81794865D01*
X114849189Y-81623244D01*
X114849189Y-81451622D01*
X115020811Y-81451622D01*
X115192433Y-81451622D01*
X115192433Y-81623244D01*
X115192433Y-81794865D01*
X115364054Y-81794865D01*
X115535676Y-81794865D01*
X115535676Y-81966487D01*
X115535676Y-82138108D01*
X115878919Y-82138108D01*
X116222162Y-82138108D01*
X116222162Y-81966487D01*
X116222162Y-81794865D01*
X116393784Y-81794865D01*
X116565406Y-81794865D01*
X116565406Y-81280000D01*
X116565406Y-80765135D01*
X116393784Y-80765135D01*
X116222162Y-80765135D01*
X116222162Y-80593514D01*
X116222162Y-80421892D01*
X116565406Y-80421892D01*
X116908649Y-80421892D01*
X116908649Y-81108379D01*
X116908649Y-81794865D01*
X117080271Y-81794865D01*
X117251892Y-81794865D01*
X117251892Y-81623244D01*
X117251892Y-81451622D01*
X117423514Y-81451622D01*
X117595135Y-81451622D01*
X117595135Y-81623244D01*
X117595135Y-81794865D01*
X117766757Y-81794865D01*
X117938379Y-81794865D01*
X117938379Y-81966487D01*
X117938379Y-82138108D01*
X117595135Y-82138108D01*
X117251892Y-82138108D01*
X117251892Y-82309730D01*
X117251892Y-82481352D01*
X117080271Y-82481352D01*
X116908649Y-82481352D01*
X116908649Y-82652973D01*
X116908649Y-82824595D01*
X116737027Y-82824595D01*
X116565406Y-82824595D01*
X116565406Y-82652973D01*
X116565406Y-82481352D01*
X116050541Y-82481352D01*
X115535676Y-82481352D01*
X115535676Y-82652973D01*
X115535676Y-82824595D01*
X115364054Y-82824595D01*
X115192433Y-82824595D01*
X115192433Y-82652973D01*
X115192433Y-82481352D01*
X115364054Y-82481352D01*
X115535676Y-82481352D01*
X115535676Y-82309730D01*
X115535676Y-82138108D01*
X114849189Y-82138108D01*
X114162703Y-82138108D01*
X114162703Y-82309730D01*
X114162703Y-82481352D01*
X113991081Y-82481352D01*
X113819460Y-82481352D01*
X113819460Y-82652973D01*
X113819460Y-82824595D01*
X113991081Y-82824595D01*
X114162703Y-82824595D01*
X114162703Y-82652973D01*
X114162703Y-82481352D01*
X114505946Y-82481352D01*
X114849189Y-82481352D01*
X114849189Y-82996216D01*
X114849189Y-83511081D01*
X113991081Y-83511081D01*
X113132973Y-83511081D01*
X113132973Y-82481352D01*
X113132973Y-81451622D01*
X113304595Y-81451622D01*
X113476216Y-81451622D01*
X113476216Y-81280000D01*
X113476216Y-81108379D01*
X113304595Y-81108379D01*
X113132973Y-81108379D01*
X113132973Y-80078649D01*
X113132973Y-79392162D01*
X113476216Y-79392162D01*
X113476216Y-79735406D01*
X113476216Y-80078649D01*
X113647838Y-80078649D01*
X113819460Y-80078649D01*
X113819460Y-80250271D01*
X113819460Y-80421892D01*
X113647838Y-80421892D01*
X113476216Y-80421892D01*
X113476216Y-80593514D01*
X113476216Y-80765135D01*
X113819460Y-80765135D01*
X114162703Y-80765135D01*
X114162703Y-80250271D01*
X114162703Y-79735406D01*
X113991081Y-79735406D01*
X113819460Y-79735406D01*
X113819460Y-79563784D01*
X113819460Y-79392162D01*
X113647838Y-79392162D01*
X113476216Y-79392162D01*
X113132973Y-79392162D01*
X113132973Y-79048919D01*
X113476216Y-79048919D01*
X113819460Y-79048919D01*
X113819460Y-79220541D01*
X113819460Y-79392162D01*
X113991081Y-79392162D01*
X114162703Y-79392162D01*
X114162703Y-79220541D01*
X114162703Y-79048919D01*
X114505946Y-79048919D01*
X114849189Y-79048919D01*
X114849189Y-79220541D01*
X114849189Y-79392162D01*
X115020811Y-79392162D01*
X115192433Y-79392162D01*
X115192433Y-79220541D01*
X115192433Y-79048919D01*
X115364054Y-79048919D01*
X115535676Y-79048919D01*
X115535676Y-79220541D01*
X115535676Y-79392162D01*
X115878919Y-79392162D01*
X116222162Y-79392162D01*
X116222162Y-79220541D01*
X116222162Y-79048919D01*
X116050541Y-79048919D01*
X115878919Y-79048919D01*
X115878919Y-78705676D01*
X115878919Y-78362433D01*
X116050541Y-78362433D01*
X116222162Y-78362433D01*
X116222162Y-78190811D01*
X116222162Y-78019189D01*
X116393784Y-78019189D01*
X116565406Y-78019189D01*
X116565406Y-77675946D01*
X116565406Y-77332703D01*
G37*
G36*
X120341081Y-86085406D02*
G01*
X120341081Y-86257027D01*
X119997838Y-86257027D01*
X119654595Y-86257027D01*
X119654595Y-86085406D01*
X119654595Y-85913784D01*
X119997838Y-85913784D01*
X120341081Y-85913784D01*
X120341081Y-86085406D01*
G37*
G36*
X119654595Y-85742162D02*
G01*
X119654595Y-85913784D01*
X119482973Y-85913784D01*
X119311352Y-85913784D01*
X119311352Y-85742162D01*
X119311352Y-85570541D01*
X119482973Y-85570541D01*
X119654595Y-85570541D01*
X119654595Y-85742162D01*
G37*
G36*
X123087027Y-84369189D02*
G01*
X123087027Y-84540811D01*
X122915406Y-84540811D01*
X122743784Y-84540811D01*
X122743784Y-84712433D01*
X122743784Y-84884054D01*
X122572162Y-84884054D01*
X122400541Y-84884054D01*
X122400541Y-84540811D01*
X122400541Y-84197568D01*
X122743784Y-84197568D01*
X123087027Y-84197568D01*
X123087027Y-84369189D01*
G37*
G36*
X123087027Y-82652973D02*
G01*
X123087027Y-82824595D01*
X122915406Y-82824595D01*
X122743784Y-82824595D01*
X122743784Y-82652973D01*
X122743784Y-82481352D01*
X122915406Y-82481352D01*
X123087027Y-82481352D01*
X123087027Y-82652973D01*
G37*
G36*
X121027568Y-79220541D02*
G01*
X121027568Y-79392162D01*
X120855946Y-79392162D01*
X120684325Y-79392162D01*
X120684325Y-79563784D01*
X120684325Y-79735406D01*
X120512703Y-79735406D01*
X120341081Y-79735406D01*
X120341081Y-79563784D01*
X120341081Y-79392162D01*
X120512703Y-79392162D01*
X120684325Y-79392162D01*
X120684325Y-79220541D01*
X120684325Y-79048919D01*
X120855946Y-79048919D01*
X121027568Y-79048919D01*
X121027568Y-79220541D01*
G37*
G36*
X120341081Y-77332703D02*
G01*
X120341081Y-77675946D01*
X120169460Y-77675946D01*
X119997838Y-77675946D01*
X119997838Y-77847568D01*
X119997838Y-78019189D01*
X119826216Y-78019189D01*
X119654595Y-78019189D01*
X119654595Y-77847568D01*
X119654595Y-77675946D01*
X119826216Y-77675946D01*
X119997838Y-77675946D01*
X119997838Y-77332703D01*
X119997838Y-76989460D01*
X120169460Y-76989460D01*
X120341081Y-76989460D01*
X120341081Y-77332703D01*
G37*
G36*
X119997838Y-76817838D02*
G01*
X119997838Y-76989460D01*
X119826216Y-76989460D01*
X119654595Y-76989460D01*
X119654595Y-76817838D01*
X119654595Y-76646216D01*
X119826216Y-76646216D01*
X119997838Y-76646216D01*
X119997838Y-76817838D01*
G37*
G36*
X118281622Y-86085406D02*
G01*
X118281622Y-86257027D01*
X118110000Y-86257027D01*
X117938379Y-86257027D01*
X117938379Y-86085406D01*
X117938379Y-85913784D01*
X118110000Y-85913784D01*
X118281622Y-85913784D01*
X118281622Y-86085406D01*
G37*
G36*
X116565406Y-83511081D02*
G01*
X116565406Y-83854325D01*
X116222162Y-83854325D01*
X115878919Y-83854325D01*
X115878919Y-83511081D01*
X115878919Y-83167838D01*
X116222162Y-83167838D01*
X116565406Y-83167838D01*
X116565406Y-83511081D01*
G37*
G36*
X115535676Y-83339460D02*
G01*
X115535676Y-83511081D01*
X115364054Y-83511081D01*
X115192433Y-83511081D01*
X115192433Y-83339460D01*
X115192433Y-83167838D01*
X115364054Y-83167838D01*
X115535676Y-83167838D01*
X115535676Y-83339460D01*
G37*
G36*
X115535676Y-77504325D02*
G01*
X115535676Y-78705676D01*
X114334325Y-78705676D01*
X113132973Y-78705676D01*
X113132973Y-77504325D01*
X113132973Y-76646216D01*
X113476216Y-76646216D01*
X113476216Y-77504325D01*
X113476216Y-78362433D01*
X114334325Y-78362433D01*
X115192433Y-78362433D01*
X115192433Y-77504325D01*
X115192433Y-76646216D01*
X114334325Y-76646216D01*
X113476216Y-76646216D01*
X113132973Y-76646216D01*
X113132973Y-76302973D01*
X114334325Y-76302973D01*
X115535676Y-76302973D01*
X115535676Y-77504325D01*
G37*
G36*
X123087027Y-77504325D02*
G01*
X123087027Y-78705676D01*
X121885676Y-78705676D01*
X120684325Y-78705676D01*
X120684325Y-77504325D01*
X120684325Y-76646216D01*
X121027568Y-76646216D01*
X121027568Y-77504325D01*
X121027568Y-78362433D01*
X121885676Y-78362433D01*
X122743784Y-78362433D01*
X122743784Y-77504325D01*
X122743784Y-76646216D01*
X121885676Y-76646216D01*
X121027568Y-76646216D01*
X120684325Y-76646216D01*
X120684325Y-76302973D01*
X121885676Y-76302973D01*
X123087027Y-76302973D01*
X123087027Y-77504325D01*
G37*
G36*
X114849189Y-85055676D02*
G01*
X114849189Y-85570541D01*
X114334325Y-85570541D01*
X113819460Y-85570541D01*
X113819460Y-85055676D01*
X113819460Y-84540811D01*
X114334325Y-84540811D01*
X114849189Y-84540811D01*
X114849189Y-85055676D01*
G37*
G36*
X121027568Y-84025946D02*
G01*
X121027568Y-84197568D01*
X120855946Y-84197568D01*
X120684325Y-84197568D01*
X120684325Y-84025946D01*
X120684325Y-83854325D01*
X120855946Y-83854325D01*
X121027568Y-83854325D01*
X121027568Y-84025946D01*
G37*
G36*
X116222162Y-81623244D02*
G01*
X116222162Y-81794865D01*
X115878919Y-81794865D01*
X115535676Y-81794865D01*
X115535676Y-81623244D01*
X115535676Y-81451622D01*
X115878919Y-81451622D01*
X116222162Y-81451622D01*
X116222162Y-81623244D01*
G37*
G36*
X115535676Y-81280000D02*
G01*
X115535676Y-81451622D01*
X115364054Y-81451622D01*
X115192433Y-81451622D01*
X115192433Y-81280000D01*
X115192433Y-81108379D01*
X115364054Y-81108379D01*
X115535676Y-81108379D01*
X115535676Y-81280000D01*
G37*
G36*
X118281622Y-81623244D02*
G01*
X118281622Y-81794865D01*
X118110000Y-81794865D01*
X117938379Y-81794865D01*
X117938379Y-81623244D01*
X117938379Y-81451622D01*
X118110000Y-81451622D01*
X118281622Y-81451622D01*
X118281622Y-81623244D01*
G37*
G36*
X116222162Y-80936757D02*
G01*
X116222162Y-81108379D01*
X116050541Y-81108379D01*
X115878919Y-81108379D01*
X115878919Y-80936757D01*
X115878919Y-80765135D01*
X116050541Y-80765135D01*
X116222162Y-80765135D01*
X116222162Y-80936757D01*
G37*
G36*
X117938379Y-80936757D02*
G01*
X117938379Y-81108379D01*
X117595135Y-81108379D01*
X117251892Y-81108379D01*
X117251892Y-80936757D01*
X117251892Y-80765135D01*
X117595135Y-80765135D01*
X117938379Y-80765135D01*
X117938379Y-80936757D01*
G37*
G36*
X115535676Y-80593514D02*
G01*
X115535676Y-80765135D01*
X115364054Y-80765135D01*
X115192433Y-80765135D01*
X115192433Y-80593514D01*
X115192433Y-80421892D01*
X115364054Y-80421892D01*
X115535676Y-80421892D01*
X115535676Y-80593514D01*
G37*
G36*
X116908649Y-79563784D02*
G01*
X116908649Y-79735406D01*
X116737027Y-79735406D01*
X116565406Y-79735406D01*
X116565406Y-79907027D01*
X116565406Y-80078649D01*
X116393784Y-80078649D01*
X116222162Y-80078649D01*
X116222162Y-79907027D01*
X116222162Y-79735406D01*
X116393784Y-79735406D01*
X116565406Y-79735406D01*
X116565406Y-79563784D01*
X116565406Y-79392162D01*
X116737027Y-79392162D01*
X116908649Y-79392162D01*
X116908649Y-79563784D01*
G37*
G36*
X117595135Y-79907027D02*
G01*
X117595135Y-80078649D01*
X117423514Y-80078649D01*
X117251892Y-80078649D01*
X117251892Y-79907027D01*
X117251892Y-79735406D01*
X117423514Y-79735406D01*
X117595135Y-79735406D01*
X117595135Y-79907027D01*
G37*
G36*
X117595135Y-78534054D02*
G01*
X117595135Y-78705676D01*
X117766757Y-78705676D01*
X117938379Y-78705676D01*
X117938379Y-78877298D01*
X117938379Y-79048919D01*
X117766757Y-79048919D01*
X117595135Y-79048919D01*
X117595135Y-79220541D01*
X117595135Y-79392162D01*
X117423514Y-79392162D01*
X117251892Y-79392162D01*
X117251892Y-78877298D01*
X117251892Y-78362433D01*
X117423514Y-78362433D01*
X117595135Y-78362433D01*
X117595135Y-78534054D01*
G37*
G36*
X116908649Y-78534054D02*
G01*
X116908649Y-78705676D01*
X116737027Y-78705676D01*
X116565406Y-78705676D01*
X116565406Y-78534054D01*
X116565406Y-78362433D01*
X116737027Y-78362433D01*
X116908649Y-78362433D01*
X116908649Y-78534054D01*
G37*
G36*
X119654595Y-78362433D02*
G01*
X119654595Y-78705676D01*
X119482973Y-78705676D01*
X119311352Y-78705676D01*
X119311352Y-78362433D01*
X119311352Y-78019189D01*
X119482973Y-78019189D01*
X119654595Y-78019189D01*
X119654595Y-78362433D01*
G37*
G36*
X119654595Y-77504325D02*
G01*
X119654595Y-77675946D01*
X119482973Y-77675946D01*
X119311352Y-77675946D01*
X119311352Y-77847568D01*
X119311352Y-78019189D01*
X118968108Y-78019189D01*
X118624865Y-78019189D01*
X118624865Y-77847568D01*
X118624865Y-77675946D01*
X118796487Y-77675946D01*
X118968108Y-77675946D01*
X118968108Y-77504325D01*
X118968108Y-77332703D01*
X119311352Y-77332703D01*
X119654595Y-77332703D01*
X119654595Y-77504325D01*
G37*
G36*
X114849189Y-77504325D02*
G01*
X114849189Y-78019189D01*
X114334325Y-78019189D01*
X113819460Y-78019189D01*
X113819460Y-77504325D01*
X113819460Y-76989460D01*
X114334325Y-76989460D01*
X114849189Y-76989460D01*
X114849189Y-77504325D01*
G37*
G36*
X122400541Y-77504325D02*
G01*
X122400541Y-78019189D01*
X121885676Y-78019189D01*
X121370811Y-78019189D01*
X121370811Y-77504325D01*
X121370811Y-76989460D01*
X121885676Y-76989460D01*
X122400541Y-76989460D01*
X122400541Y-77504325D01*
G37*
D12*
%TO.C,D4*%
X140180000Y-120257500D02*
X140830000Y-120257500D01*
X140830000Y-119137500D02*
X140830000Y-121377500D01*
X140830000Y-121377500D02*
X145070000Y-121377500D01*
X141430000Y-119137500D02*
X141430000Y-121377500D01*
X141550000Y-119137500D02*
X141550000Y-121377500D01*
X141670000Y-119137500D02*
X141670000Y-121377500D01*
X145070000Y-119137500D02*
X140830000Y-119137500D01*
X145070000Y-121377500D02*
X145070000Y-119137500D01*
X145720000Y-120257500D02*
X145070000Y-120257500D01*
%TO.C,D5*%
X159230000Y-120257500D02*
X159880000Y-120257500D01*
X159880000Y-119137500D02*
X159880000Y-121377500D01*
X159880000Y-121377500D02*
X164120000Y-121377500D01*
X160480000Y-119137500D02*
X160480000Y-121377500D01*
X160600000Y-119137500D02*
X160600000Y-121377500D01*
X160720000Y-119137500D02*
X160720000Y-121377500D01*
X164120000Y-119137500D02*
X159880000Y-119137500D01*
X164120000Y-121377500D02*
X164120000Y-119137500D01*
X164770000Y-120257500D02*
X164120000Y-120257500D01*
%TO.C,R1*%
X119710000Y-91440000D02*
X118760000Y-91440000D01*
X118760000Y-92360000D02*
X118760000Y-90520000D01*
X118760000Y-90520000D02*
X114920000Y-90520000D01*
X114920000Y-92360000D02*
X118760000Y-92360000D01*
X114920000Y-90520000D02*
X114920000Y-92360000D01*
X113970000Y-91440000D02*
X114920000Y-91440000D01*
D13*
%TO.C,U1*%
X109210000Y-75860000D02*
X109210000Y-96860000D01*
X109210000Y-96860000D02*
X127010000Y-96860000D01*
X127010000Y-75860000D02*
X109210000Y-75860000D01*
X127010000Y-96860000D02*
X127010000Y-75860000D01*
D14*
X108510000Y-78740000D02*
G75*
G03*
X108510000Y-78740000I-100000J0D01*
G01*
D12*
%TO.C,D1*%
X140180000Y-101207500D02*
X140830000Y-101207500D01*
X140830000Y-100087500D02*
X140830000Y-102327500D01*
X140830000Y-102327500D02*
X145070000Y-102327500D01*
X141430000Y-100087500D02*
X141430000Y-102327500D01*
X141550000Y-100087500D02*
X141550000Y-102327500D01*
X141670000Y-100087500D02*
X141670000Y-102327500D01*
X145070000Y-100087500D02*
X140830000Y-100087500D01*
X145070000Y-102327500D02*
X145070000Y-100087500D01*
X145720000Y-101207500D02*
X145070000Y-101207500D01*
%TO.C,D3*%
X178280000Y-101207500D02*
X178930000Y-101207500D01*
X178930000Y-100087500D02*
X178930000Y-102327500D01*
X178930000Y-102327500D02*
X183170000Y-102327500D01*
X179530000Y-100087500D02*
X179530000Y-102327500D01*
X179650000Y-100087500D02*
X179650000Y-102327500D01*
X179770000Y-100087500D02*
X179770000Y-102327500D01*
X183170000Y-100087500D02*
X178930000Y-100087500D01*
X183170000Y-102327500D02*
X183170000Y-100087500D01*
X183820000Y-101207500D02*
X183170000Y-101207500D01*
%TO.C,D2*%
X159230000Y-101207500D02*
X159880000Y-101207500D01*
X159880000Y-100087500D02*
X159880000Y-102327500D01*
X159880000Y-102327500D02*
X164120000Y-102327500D01*
X160480000Y-100087500D02*
X160480000Y-102327500D01*
X160600000Y-100087500D02*
X160600000Y-102327500D01*
X160720000Y-100087500D02*
X160720000Y-102327500D01*
X164120000Y-100087500D02*
X159880000Y-100087500D01*
X164120000Y-102327500D02*
X164120000Y-100087500D01*
X164770000Y-101207500D02*
X164120000Y-101207500D01*
%TO.C,R2*%
X119710000Y-88900000D02*
X118760000Y-88900000D01*
X118760000Y-89820000D02*
X118760000Y-87980000D01*
X118760000Y-87980000D02*
X114920000Y-87980000D01*
X114920000Y-89820000D02*
X118760000Y-89820000D01*
X114920000Y-87980000D02*
X114920000Y-89820000D01*
X113970000Y-88900000D02*
X114920000Y-88900000D01*
%TO.C,D6*%
X178280000Y-120257500D02*
X178930000Y-120257500D01*
X178930000Y-119137500D02*
X178930000Y-121377500D01*
X178930000Y-121377500D02*
X183170000Y-121377500D01*
X179530000Y-119137500D02*
X179530000Y-121377500D01*
X179650000Y-119137500D02*
X179650000Y-121377500D01*
X179770000Y-119137500D02*
X179770000Y-121377500D01*
X183170000Y-119137500D02*
X178930000Y-119137500D01*
X183170000Y-121377500D02*
X183170000Y-119137500D01*
X183820000Y-120257500D02*
X183170000Y-120257500D01*
%TD*%
M02*
