%TF.GenerationSoftware,KiCad,Pcbnew,(7.0.0)*%
%TF.CreationDate,2023-02-28T08:30:01+09:00*%
%TF.ProjectId,sgkey,73676b65-792e-46b6-9963-61645f706362,rev?*%
%TF.SameCoordinates,Original*%
%TF.FileFunction,Soldermask,Bot*%
%TF.FilePolarity,Negative*%
%FSLAX46Y46*%
G04 Gerber Fmt 4.6, Leading zero omitted, Abs format (unit mm)*
G04 Created by KiCad (PCBNEW (7.0.0)) date 2023-02-28 08:30:01*
%MOMM*%
%LPD*%
G01*
G04 APERTURE LIST*
G04 Aperture macros list*
%AMHorizOval*
0 Thick line with rounded ends*
0 $1 width*
0 $2 $3 position (X,Y) of the first rounded end (center of the circle)*
0 $4 $5 position (X,Y) of the second rounded end (center of the circle)*
0 Add line between two ends*
20,1,$1,$2,$3,$4,$5,0*
0 Add two circle primitives to create the rounded ends*
1,1,$1,$2,$3*
1,1,$1,$4,$5*%
G04 Aperture macros list end*
%ADD10R,1.600000X1.600000*%
%ADD11O,1.600000X1.600000*%
%ADD12C,2.200000*%
%ADD13C,1.800000*%
%ADD14C,1.700000*%
%ADD15C,4.900000*%
%ADD16O,2.200000X1.600000*%
%ADD17C,2.400000*%
%ADD18O,2.200000X1.500000*%
%ADD19HorizOval,1.500000X1.449945X0.012653X-1.449945X-0.012653X0*%
%ADD20C,1.400000*%
%ADD21O,1.400000X1.400000*%
%ADD22R,1.530000X1.530000*%
%ADD23C,1.530000*%
%ADD24C,1.524000*%
G04 APERTURE END LIST*
D10*
%TO.C,D4*%
X139139999Y-120257499D03*
D11*
X146759999Y-120257499D03*
%TD*%
D12*
%TO.C,H1*%
X105000000Y-77000000D03*
%TD*%
D10*
%TO.C,D5*%
X158189999Y-120257499D03*
D11*
X165809999Y-120257499D03*
%TD*%
D13*
%TO.C,SW5*%
X156500000Y-111050000D03*
D14*
X156920000Y-111050000D03*
D15*
X162000000Y-111050000D03*
D14*
X167080000Y-111050000D03*
D13*
X167500000Y-111050000D03*
D16*
X156899999Y-114949999D03*
D17*
X158190000Y-108510000D03*
D18*
X161999999Y-116949999D03*
D17*
X164540000Y-105970000D03*
D19*
X165900041Y-105509598D03*
%TD*%
D12*
%TO.C,H2*%
X190000000Y-77000000D03*
%TD*%
D20*
%TO.C,R1*%
X120650000Y-91440000D03*
D21*
X113029999Y-91439999D03*
%TD*%
D13*
%TO.C,SW2*%
X156500000Y-92000000D03*
D14*
X156920000Y-92000000D03*
D15*
X162000000Y-92000000D03*
D14*
X167080000Y-92000000D03*
D13*
X167500000Y-92000000D03*
D16*
X156899999Y-95899999D03*
D17*
X158190000Y-89460000D03*
D18*
X161999999Y-97899999D03*
D17*
X164540000Y-86920000D03*
D19*
X165900041Y-86459598D03*
%TD*%
D22*
%TO.C,U1*%
X110489999Y-78739999D03*
D23*
X110490000Y-81280000D03*
X110490000Y-83820000D03*
X110490000Y-86360000D03*
X110490000Y-88900000D03*
X110490000Y-91440000D03*
X110490000Y-93980000D03*
X125730000Y-93980000D03*
X125730000Y-91440000D03*
X125730000Y-88900000D03*
X125730000Y-86360000D03*
X125730000Y-83820000D03*
X125730000Y-81280000D03*
X125730000Y-78740000D03*
%TD*%
D12*
%TO.C,H3*%
X105000000Y-126000000D03*
%TD*%
D13*
%TO.C,SW3*%
X175550000Y-92000000D03*
D14*
X175970000Y-92000000D03*
D15*
X181050000Y-92000000D03*
D14*
X186130000Y-92000000D03*
D13*
X186550000Y-92000000D03*
D16*
X175949999Y-95899999D03*
D17*
X177240000Y-89460000D03*
D18*
X181049999Y-97899999D03*
D17*
X183590000Y-86920000D03*
D19*
X184950041Y-86459598D03*
%TD*%
D10*
%TO.C,D1*%
X139139999Y-101207499D03*
D11*
X146759999Y-101207499D03*
%TD*%
D24*
%TO.C,U2*%
X114380000Y-99060000D03*
X116920000Y-99060000D03*
X119460000Y-99060000D03*
X122000000Y-99060000D03*
%TD*%
D10*
%TO.C,D3*%
X177239999Y-101207499D03*
D11*
X184859999Y-101207499D03*
%TD*%
D13*
%TO.C,SW6*%
X175550000Y-111050000D03*
D14*
X175970000Y-111050000D03*
D15*
X181050000Y-111050000D03*
D14*
X186130000Y-111050000D03*
D13*
X186550000Y-111050000D03*
D16*
X175949999Y-114949999D03*
D17*
X177240000Y-108510000D03*
D18*
X181049999Y-116949999D03*
D17*
X183590000Y-105970000D03*
D19*
X184950041Y-105509598D03*
%TD*%
D13*
%TO.C,SW4*%
X137450000Y-111050000D03*
D14*
X137870000Y-111050000D03*
D15*
X142950000Y-111050000D03*
D14*
X148030000Y-111050000D03*
D13*
X148450000Y-111050000D03*
D16*
X137849999Y-114949999D03*
D17*
X139140000Y-108510000D03*
D18*
X142949999Y-116949999D03*
D17*
X145490000Y-105970000D03*
D19*
X146850041Y-105509598D03*
%TD*%
D10*
%TO.C,D2*%
X158189999Y-101207499D03*
D11*
X165809999Y-101207499D03*
%TD*%
D13*
%TO.C,SW1*%
X137450000Y-92000000D03*
D14*
X137870000Y-92000000D03*
D15*
X142950000Y-92000000D03*
D14*
X148030000Y-92000000D03*
D13*
X148450000Y-92000000D03*
D16*
X137849999Y-95899999D03*
D17*
X139140000Y-89460000D03*
D18*
X142949999Y-97899999D03*
D17*
X145490000Y-86920000D03*
D19*
X146850041Y-86459598D03*
%TD*%
D12*
%TO.C,H4*%
X190000000Y-126000000D03*
%TD*%
D20*
%TO.C,R2*%
X120650000Y-88900000D03*
D21*
X113029999Y-88899999D03*
%TD*%
D10*
%TO.C,D6*%
X177239999Y-120257499D03*
D11*
X184859999Y-120257499D03*
%TD*%
M02*
