%TF.GenerationSoftware,KiCad,Pcbnew,(7.0.0)*%
%TF.CreationDate,2023-05-23T14:58:40+09:00*%
%TF.ProjectId,sgkb,73676b62-2e6b-4696-9361-645f70636258,rev?*%
%TF.SameCoordinates,Original*%
%TF.FileFunction,Soldermask,Bot*%
%TF.FilePolarity,Negative*%
%FSLAX46Y46*%
G04 Gerber Fmt 4.6, Leading zero omitted, Abs format (unit mm)*
G04 Created by KiCad (PCBNEW (7.0.0)) date 2023-05-23 14:58:40*
%MOMM*%
%LPD*%
G01*
G04 APERTURE LIST*
G04 Aperture macros list*
%AMHorizOval*
0 Thick line with rounded ends*
0 $1 width*
0 $2 $3 position (X,Y) of the first rounded end (center of the circle)*
0 $4 $5 position (X,Y) of the second rounded end (center of the circle)*
0 Add line between two ends*
20,1,$1,$2,$3,$4,$5,0*
0 Add two circle primitives to create the rounded ends*
1,1,$1,$2,$3*
1,1,$1,$4,$5*%
G04 Aperture macros list end*
%ADD10C,3.050000*%
%ADD11C,4.000000*%
%ADD12C,1.800000*%
%ADD13C,1.700000*%
%ADD14C,4.900000*%
%ADD15O,2.200000X1.600000*%
%ADD16C,2.400000*%
%ADD17O,2.200000X1.500000*%
%ADD18HorizOval,1.500000X1.449945X0.012653X-1.449945X-0.012653X0*%
%ADD19R,1.600000X1.600000*%
%ADD20O,1.600000X1.600000*%
%ADD21C,2.200000*%
%ADD22C,1.200000*%
%ADD23C,1.524000*%
G04 APERTURE END LIST*
D10*
%TO.C,SW32*%
X54775000Y-121587500D03*
D11*
X54775000Y-136827500D03*
D12*
X61175000Y-128587500D03*
D13*
X61595000Y-128587500D03*
D14*
X66675000Y-128587500D03*
D13*
X71755000Y-128587500D03*
D12*
X72175000Y-128587500D03*
D10*
X78575000Y-121587500D03*
D11*
X78575000Y-136827500D03*
D15*
X61574999Y-132487499D03*
D16*
X62865000Y-126047500D03*
D17*
X66674999Y-134487499D03*
D16*
X69215000Y-123507500D03*
D18*
X70575041Y-123047098D03*
%TD*%
D12*
%TO.C,SW43*%
X94512500Y-147637500D03*
D13*
X94932500Y-147637500D03*
D14*
X100012500Y-147637500D03*
D13*
X105092500Y-147637500D03*
D12*
X105512500Y-147637500D03*
D15*
X94912499Y-151537499D03*
D16*
X96202500Y-145097500D03*
D17*
X100012499Y-153537499D03*
D16*
X102552500Y-142557500D03*
D18*
X103912541Y-142097098D03*
%TD*%
D19*
%TO.C,D41*%
X66674999Y-142620999D03*
D20*
X66674999Y-150240999D03*
%TD*%
D19*
%TO.C,D35*%
X123697999Y-123570999D03*
D20*
X123697999Y-131190999D03*
%TD*%
D12*
%TO.C,SW13*%
X80225000Y-90487500D03*
D13*
X80645000Y-90487500D03*
D14*
X85725000Y-90487500D03*
D13*
X90805000Y-90487500D03*
D12*
X91225000Y-90487500D03*
D15*
X80624999Y-94387499D03*
D16*
X81915000Y-87947500D03*
D17*
X85724999Y-96387499D03*
D16*
X88265000Y-85407500D03*
D18*
X89625041Y-84947098D03*
%TD*%
D12*
%TO.C,SW41*%
X51650000Y-147637500D03*
D13*
X52070000Y-147637500D03*
D14*
X57150000Y-147637500D03*
D13*
X62230000Y-147637500D03*
D12*
X62650000Y-147637500D03*
D15*
X52049999Y-151537499D03*
D16*
X53340000Y-145097500D03*
D17*
X57149999Y-153537499D03*
D16*
X59690000Y-142557500D03*
D18*
X61050041Y-142097098D03*
%TD*%
D19*
%TO.C,D8*%
X161924999Y-66420999D03*
D20*
X161924999Y-74040999D03*
%TD*%
D19*
%TO.C,D43*%
X90550999Y-142493999D03*
D20*
X90550999Y-150113999D03*
%TD*%
D12*
%TO.C,SW34*%
X108800000Y-128587500D03*
D13*
X109220000Y-128587500D03*
D14*
X114300000Y-128587500D03*
D13*
X119380000Y-128587500D03*
D12*
X119800000Y-128587500D03*
D15*
X109199999Y-132487499D03*
D16*
X110490000Y-126047500D03*
D17*
X114299999Y-134487499D03*
D16*
X116840000Y-123507500D03*
D18*
X118200041Y-123047098D03*
%TD*%
D12*
%TO.C,SW27*%
X161187500Y-109537500D03*
D13*
X161607500Y-109537500D03*
D14*
X166687500Y-109537500D03*
D13*
X171767500Y-109537500D03*
D12*
X172187500Y-109537500D03*
D15*
X161587499Y-113437499D03*
D16*
X162877500Y-106997500D03*
D17*
X166687499Y-115437499D03*
D16*
X169227500Y-104457500D03*
D18*
X170587541Y-103997098D03*
%TD*%
D19*
%TO.C,D32*%
X69595999Y-119125999D03*
D20*
X61975999Y-119125999D03*
%TD*%
D19*
%TO.C,D45*%
X128523999Y-142620999D03*
D20*
X128523999Y-150240999D03*
%TD*%
D19*
%TO.C,D3*%
X83819999Y-81025999D03*
D20*
X76199999Y-81025999D03*
%TD*%
D12*
%TO.C,SW25*%
X123087500Y-109537500D03*
D13*
X123507500Y-109537500D03*
D14*
X128587500Y-109537500D03*
D13*
X133667500Y-109537500D03*
D12*
X134087500Y-109537500D03*
D15*
X123487499Y-113437499D03*
D16*
X124777500Y-106997500D03*
D17*
X128587499Y-115437499D03*
D16*
X131127500Y-104457500D03*
D18*
X132487541Y-103997098D03*
%TD*%
D12*
%TO.C,SW6*%
X127850000Y-71437500D03*
D13*
X128270000Y-71437500D03*
D14*
X133350000Y-71437500D03*
D13*
X138430000Y-71437500D03*
D12*
X138850000Y-71437500D03*
D15*
X128249999Y-75337499D03*
D16*
X129540000Y-68897500D03*
D17*
X133349999Y-77337499D03*
D16*
X135890000Y-66357500D03*
D18*
X137250041Y-65897098D03*
%TD*%
D12*
%TO.C,SW4*%
X89750000Y-71437500D03*
D13*
X90170000Y-71437500D03*
D14*
X95250000Y-71437500D03*
D13*
X100330000Y-71437500D03*
D12*
X100750000Y-71437500D03*
D15*
X90149999Y-75337499D03*
D16*
X91440000Y-68897500D03*
D17*
X95249999Y-77337499D03*
D16*
X97790000Y-66357500D03*
D18*
X99150041Y-65897098D03*
%TD*%
D19*
%TO.C,D5*%
X104774999Y-66293999D03*
D20*
X104774999Y-73913999D03*
%TD*%
D19*
%TO.C,D22*%
X54832249Y-104393999D03*
D20*
X54832249Y-112013999D03*
%TD*%
D12*
%TO.C,SW7*%
X146900000Y-71437500D03*
D13*
X147320000Y-71437500D03*
D14*
X152400000Y-71437500D03*
D13*
X157480000Y-71437500D03*
D12*
X157900000Y-71437500D03*
D15*
X147299999Y-75337499D03*
D16*
X148590000Y-68897500D03*
D17*
X152399999Y-77337499D03*
D16*
X154940000Y-66357500D03*
D18*
X156300041Y-65897098D03*
%TD*%
D12*
%TO.C,SW17*%
X156425000Y-90487500D03*
D13*
X156845000Y-90487500D03*
D14*
X161925000Y-90487500D03*
D13*
X167005000Y-90487500D03*
D12*
X167425000Y-90487500D03*
D15*
X156824999Y-94387499D03*
D16*
X158115000Y-87947500D03*
D17*
X161924999Y-96387499D03*
D16*
X164465000Y-85407500D03*
D18*
X165825041Y-84947098D03*
%TD*%
D12*
%TO.C,SW24*%
X104037500Y-109537500D03*
D13*
X104457500Y-109537500D03*
D14*
X109537500Y-109537500D03*
D13*
X114617500Y-109537500D03*
D12*
X115037500Y-109537500D03*
D15*
X104437499Y-113437499D03*
D16*
X105727500Y-106997500D03*
D17*
X109537499Y-115437499D03*
D16*
X112077500Y-104457500D03*
D18*
X113437541Y-103997098D03*
%TD*%
D19*
%TO.C,D46*%
X147573999Y-142620999D03*
D20*
X147573999Y-150240999D03*
%TD*%
D12*
%TO.C,SW37*%
X165950000Y-128587500D03*
D13*
X166370000Y-128587500D03*
D14*
X171450000Y-128587500D03*
D13*
X176530000Y-128587500D03*
D12*
X176950000Y-128587500D03*
D15*
X166349999Y-132487499D03*
D16*
X167640000Y-126047500D03*
D17*
X171449999Y-134487499D03*
D16*
X173990000Y-123507500D03*
D18*
X175350041Y-123047098D03*
%TD*%
D21*
%TO.C,H1*%
X104775000Y-80962500D03*
%TD*%
D12*
%TO.C,SW12*%
X56412500Y-90487500D03*
D13*
X56832500Y-90487500D03*
D14*
X61912500Y-90487500D03*
D13*
X66992500Y-90487500D03*
D12*
X67412500Y-90487500D03*
D15*
X56812499Y-94387499D03*
D16*
X58102500Y-87947500D03*
D17*
X61912499Y-96387499D03*
D16*
X64452500Y-85407500D03*
D18*
X65812541Y-84947098D03*
%TD*%
D21*
%TO.C,H6*%
X76200000Y-100012500D03*
%TD*%
D19*
%TO.C,D6*%
X123824999Y-66420999D03*
D20*
X123824999Y-74040999D03*
%TD*%
D19*
%TO.C,D24*%
X100075999Y-104393999D03*
D20*
X100075999Y-112013999D03*
%TD*%
D21*
%TO.C,H5*%
X171450000Y-80962500D03*
%TD*%
D12*
%TO.C,SW23*%
X84987500Y-109537500D03*
D13*
X85407500Y-109537500D03*
D14*
X90487500Y-109537500D03*
D13*
X95567500Y-109537500D03*
D12*
X95987500Y-109537500D03*
D15*
X85387499Y-113437499D03*
D16*
X86677500Y-106997500D03*
D17*
X90487499Y-115437499D03*
D16*
X93027500Y-104457500D03*
D18*
X94387541Y-103997098D03*
%TD*%
D19*
%TO.C,D14*%
X95376999Y-85343999D03*
D20*
X95376999Y-92963999D03*
%TD*%
D21*
%TO.C,H3*%
X142875000Y-80962500D03*
%TD*%
D12*
%TO.C,SW33*%
X89750000Y-128587500D03*
D13*
X90170000Y-128587500D03*
D14*
X95250000Y-128587500D03*
D13*
X100330000Y-128587500D03*
D12*
X100750000Y-128587500D03*
D15*
X90149999Y-132487499D03*
D16*
X91440000Y-126047500D03*
D17*
X95249999Y-134487499D03*
D16*
X97790000Y-123507500D03*
D18*
X99150041Y-123047098D03*
%TD*%
D12*
%TO.C,SW15*%
X118325000Y-90487500D03*
D13*
X118745000Y-90487500D03*
D14*
X123825000Y-90487500D03*
D13*
X128905000Y-90487500D03*
D12*
X129325000Y-90487500D03*
D15*
X118724999Y-94387499D03*
D16*
X120015000Y-87947500D03*
D17*
X123824999Y-96387499D03*
D16*
X126365000Y-85407500D03*
D18*
X127725041Y-84947098D03*
%TD*%
D12*
%TO.C,SW46*%
X151662500Y-147637500D03*
D13*
X152082500Y-147637500D03*
D14*
X157162500Y-147637500D03*
D13*
X162242500Y-147637500D03*
D12*
X162662500Y-147637500D03*
D15*
X152062499Y-151537499D03*
D16*
X153352500Y-145097500D03*
D17*
X157162499Y-153537499D03*
D16*
X159702500Y-142557500D03*
D18*
X161062541Y-142097098D03*
%TD*%
D19*
%TO.C,D42*%
X71373999Y-142620999D03*
D20*
X71373999Y-150240999D03*
%TD*%
D12*
%TO.C,SW42*%
X75462500Y-147637500D03*
D13*
X75882500Y-147637500D03*
D14*
X80962500Y-147637500D03*
D13*
X86042500Y-147637500D03*
D12*
X86462500Y-147637500D03*
D15*
X75862499Y-151537499D03*
D16*
X77152500Y-145097500D03*
D17*
X80962499Y-153537499D03*
D16*
X83502500Y-142557500D03*
D18*
X84862541Y-142097098D03*
%TD*%
D12*
%TO.C,SW2*%
X51650000Y-71437500D03*
D13*
X52070000Y-71437500D03*
D14*
X57150000Y-71437500D03*
D13*
X62230000Y-71437500D03*
D12*
X62650000Y-71437500D03*
D15*
X52049999Y-75337499D03*
D16*
X53340000Y-68897500D03*
D17*
X57149999Y-77337499D03*
D16*
X59690000Y-66357500D03*
D18*
X61050041Y-65897098D03*
%TD*%
D19*
%TO.C,D13*%
X76199999Y-85343999D03*
D20*
X76199999Y-92963999D03*
%TD*%
D21*
%TO.C,H4*%
X161925000Y-138112500D03*
%TD*%
D12*
%TO.C,SW3*%
X70700000Y-71437500D03*
D13*
X71120000Y-71437500D03*
D14*
X76200000Y-71437500D03*
D13*
X81280000Y-71437500D03*
D12*
X81700000Y-71437500D03*
D15*
X71099999Y-75337499D03*
D16*
X72390000Y-68897500D03*
D17*
X76199999Y-77337499D03*
D16*
X78740000Y-66357500D03*
D18*
X80100041Y-65897098D03*
%TD*%
D19*
%TO.C,D12*%
X52387499Y-85470999D03*
D20*
X52387499Y-93090999D03*
%TD*%
D19*
%TO.C,D23*%
X81025999Y-104393999D03*
D20*
X81025999Y-112013999D03*
%TD*%
D19*
%TO.C,D36*%
X142874999Y-123570999D03*
D20*
X142874999Y-131190999D03*
%TD*%
D19*
%TO.C,D25*%
X118998999Y-104393999D03*
D20*
X118998999Y-112013999D03*
%TD*%
D19*
%TO.C,D4*%
X85724999Y-66420999D03*
D20*
X85724999Y-74040999D03*
%TD*%
D12*
%TO.C,SW26*%
X142137500Y-109537500D03*
D13*
X142557500Y-109537500D03*
D14*
X147637500Y-109537500D03*
D13*
X152717500Y-109537500D03*
D12*
X153137500Y-109537500D03*
D15*
X142537499Y-113437499D03*
D16*
X143827500Y-106997500D03*
D17*
X147637499Y-115437499D03*
D16*
X150177500Y-104457500D03*
D18*
X151537541Y-103997098D03*
%TD*%
D19*
%TO.C,D44*%
X109473999Y-142493999D03*
D20*
X109473999Y-150113999D03*
%TD*%
D12*
%TO.C,SW14*%
X99275000Y-90487500D03*
D13*
X99695000Y-90487500D03*
D14*
X104775000Y-90487500D03*
D13*
X109855000Y-90487500D03*
D12*
X110275000Y-90487500D03*
D15*
X99674999Y-94387499D03*
D16*
X100965000Y-87947500D03*
D17*
X104774999Y-96387499D03*
D16*
X107315000Y-85407500D03*
D18*
X108675041Y-84947098D03*
%TD*%
D12*
%TO.C,SW35*%
X127850000Y-128587500D03*
D13*
X128270000Y-128587500D03*
D14*
X133350000Y-128587500D03*
D13*
X138430000Y-128587500D03*
D12*
X138850000Y-128587500D03*
D15*
X128249999Y-132487499D03*
D16*
X129540000Y-126047500D03*
D17*
X133349999Y-134487499D03*
D16*
X135890000Y-123507500D03*
D18*
X137250041Y-123047098D03*
%TD*%
D12*
%TO.C,SW22*%
X58793750Y-109537500D03*
D13*
X59213750Y-109537500D03*
D14*
X64293750Y-109537500D03*
D13*
X69373750Y-109537500D03*
D12*
X69793750Y-109537500D03*
D15*
X59193749Y-113437499D03*
D16*
X60483750Y-106997500D03*
D17*
X64293749Y-115437499D03*
D16*
X66833750Y-104457500D03*
D18*
X68193791Y-103997098D03*
%TD*%
D12*
%TO.C,SW5*%
X108800000Y-71437500D03*
D13*
X109220000Y-71437500D03*
D14*
X114300000Y-71437500D03*
D13*
X119380000Y-71437500D03*
D12*
X119800000Y-71437500D03*
D15*
X109199999Y-75337499D03*
D16*
X110490000Y-68897500D03*
D17*
X114299999Y-77337499D03*
D16*
X116840000Y-66357500D03*
D18*
X118200041Y-65897098D03*
%TD*%
D19*
%TO.C,D33*%
X85851999Y-123570999D03*
D20*
X85851999Y-131190999D03*
%TD*%
D12*
%TO.C,SW16*%
X137375000Y-90487500D03*
D13*
X137795000Y-90487500D03*
D14*
X142875000Y-90487500D03*
D13*
X147955000Y-90487500D03*
D12*
X148375000Y-90487500D03*
D15*
X137774999Y-94387499D03*
D16*
X139065000Y-87947500D03*
D17*
X142874999Y-96387499D03*
D16*
X145415000Y-85407500D03*
D18*
X146775041Y-84947098D03*
%TD*%
D19*
%TO.C,D37*%
X161924999Y-123443999D03*
D20*
X161924999Y-131063999D03*
%TD*%
D12*
%TO.C,SW44*%
X113562500Y-147637500D03*
D13*
X113982500Y-147637500D03*
D14*
X119062500Y-147637500D03*
D13*
X124142500Y-147637500D03*
D12*
X124562500Y-147637500D03*
D15*
X113962499Y-151537499D03*
D16*
X115252500Y-145097500D03*
D17*
X119062499Y-153537499D03*
D16*
X121602500Y-142557500D03*
D18*
X122962541Y-142097098D03*
%TD*%
D19*
%TO.C,D34*%
X104774999Y-123316999D03*
D20*
X104774999Y-130936999D03*
%TD*%
D19*
%TO.C,D15*%
X114299999Y-85343999D03*
D20*
X114299999Y-92963999D03*
%TD*%
D12*
%TO.C,SW36*%
X146900000Y-128587500D03*
D13*
X147320000Y-128587500D03*
D14*
X152400000Y-128587500D03*
D13*
X157480000Y-128587500D03*
D12*
X157900000Y-128587500D03*
D15*
X147299999Y-132487499D03*
D16*
X148590000Y-126047500D03*
D17*
X152399999Y-134487499D03*
D16*
X154940000Y-123507500D03*
D18*
X156300041Y-123047098D03*
%TD*%
D19*
%TO.C,D16*%
X132968999Y-85343999D03*
D20*
X132968999Y-92963999D03*
%TD*%
D12*
%TO.C,SW45*%
X132612500Y-147637500D03*
D13*
X133032500Y-147637500D03*
D14*
X138112500Y-147637500D03*
D13*
X143192500Y-147637500D03*
D12*
X143612500Y-147637500D03*
D15*
X133012499Y-151537499D03*
D16*
X134302500Y-145097500D03*
D17*
X138112499Y-153537499D03*
D16*
X140652500Y-142557500D03*
D18*
X142012541Y-142097098D03*
%TD*%
D19*
%TO.C,D17*%
X152399999Y-85470999D03*
D20*
X152399999Y-93090999D03*
%TD*%
D12*
%TO.C,SW8*%
X165950000Y-71437500D03*
D13*
X166370000Y-71437500D03*
D14*
X171450000Y-71437500D03*
D13*
X176530000Y-71437500D03*
D12*
X176950000Y-71437500D03*
D15*
X166349999Y-75337499D03*
D16*
X167640000Y-68897500D03*
D17*
X171449999Y-77337499D03*
D16*
X173990000Y-66357500D03*
D18*
X175350041Y-65897098D03*
%TD*%
D19*
%TO.C,D27*%
X157098999Y-104520999D03*
D20*
X157098999Y-112140999D03*
%TD*%
D21*
%TO.C,H7*%
X85725000Y-138112500D03*
%TD*%
%TO.C,H8*%
X157162500Y-100012500D03*
%TD*%
D19*
%TO.C,D26*%
X138048999Y-104393999D03*
D20*
X138048999Y-112013999D03*
%TD*%
D19*
%TO.C,D2*%
X61213999Y-81025999D03*
D20*
X53593999Y-81025999D03*
%TD*%
D19*
%TO.C,D7*%
X142874999Y-66420999D03*
D20*
X142874999Y-74040999D03*
%TD*%
D21*
%TO.C,H2*%
X123825000Y-138112500D03*
%TD*%
D22*
%TO.C,J1*%
X176000000Y-89500000D03*
X176000000Y-82500000D03*
%TD*%
D23*
%TO.C,U1*%
X66675000Y-65024000D03*
X66675000Y-67564000D03*
X66675000Y-70104000D03*
X66675000Y-72644000D03*
X66675000Y-75184000D03*
X66675000Y-77724000D03*
X66675000Y-80264000D03*
X48895000Y-80264000D03*
X48895000Y-77724000D03*
X48895000Y-75184000D03*
X48895000Y-72644000D03*
X48895000Y-70104000D03*
X48895000Y-67564000D03*
X48895000Y-65024000D03*
%TD*%
M02*
