%TF.GenerationSoftware,KiCad,Pcbnew,(7.0.0)*%
%TF.CreationDate,2023-05-23T14:58:40+09:00*%
%TF.ProjectId,sgkb,73676b62-2e6b-4696-9361-645f70636258,rev?*%
%TF.SameCoordinates,Original*%
%TF.FileFunction,Copper,L1,Top*%
%TF.FilePolarity,Positive*%
%FSLAX46Y46*%
G04 Gerber Fmt 4.6, Leading zero omitted, Abs format (unit mm)*
G04 Created by KiCad (PCBNEW (7.0.0)) date 2023-05-23 14:58:40*
%MOMM*%
%LPD*%
G01*
G04 APERTURE LIST*
G04 Aperture macros list*
%AMHorizOval*
0 Thick line with rounded ends*
0 $1 width*
0 $2 $3 position (X,Y) of the first rounded end (center of the circle)*
0 $4 $5 position (X,Y) of the second rounded end (center of the circle)*
0 Add line between two ends*
20,1,$1,$2,$3,$4,$5,0*
0 Add two circle primitives to create the rounded ends*
1,1,$1,$2,$3*
1,1,$1,$4,$5*%
G04 Aperture macros list end*
%TA.AperFunction,ComponentPad*%
%ADD10O,2.200000X1.600000*%
%TD*%
%TA.AperFunction,ComponentPad*%
%ADD11C,2.400000*%
%TD*%
%TA.AperFunction,ComponentPad*%
%ADD12O,2.200000X1.500000*%
%TD*%
%TA.AperFunction,ComponentPad*%
%ADD13HorizOval,1.500000X1.449945X0.012653X-1.449945X-0.012653X0*%
%TD*%
%TA.AperFunction,ComponentPad*%
%ADD14R,1.600000X1.600000*%
%TD*%
%TA.AperFunction,ComponentPad*%
%ADD15O,1.600000X1.600000*%
%TD*%
%TA.AperFunction,ComponentPad*%
%ADD16O,1.700000X2.500000*%
%TD*%
%TA.AperFunction,ComponentPad*%
%ADD17C,1.524000*%
%TD*%
%TA.AperFunction,ViaPad*%
%ADD18C,0.300000*%
%TD*%
%TA.AperFunction,Conductor*%
%ADD19C,0.250000*%
%TD*%
G04 APERTURE END LIST*
D10*
%TO.P,SW32,1,1*%
%TO.N,COL2*%
X61574999Y-132487499D03*
D11*
X62865000Y-126047500D03*
D12*
%TO.P,SW32,2,2*%
%TO.N,Net-(D32-A)*%
X66674999Y-134487499D03*
D11*
X69215000Y-123507500D03*
D13*
X70575041Y-123047098D03*
%TD*%
D10*
%TO.P,SW43,1,1*%
%TO.N,COL3*%
X94912499Y-151537499D03*
D11*
X96202500Y-145097500D03*
D12*
%TO.P,SW43,2,2*%
%TO.N,Net-(D43-A)*%
X100012499Y-153537499D03*
D11*
X102552500Y-142557500D03*
D13*
X103912541Y-142097098D03*
%TD*%
D14*
%TO.P,D41,1,K*%
%TO.N,ROW5*%
X66674999Y-142620999D03*
D15*
%TO.P,D41,2,A*%
%TO.N,Net-(D41-A)*%
X66674999Y-150240999D03*
%TD*%
D14*
%TO.P,D35,1,K*%
%TO.N,ROW4*%
X123697999Y-123570999D03*
D15*
%TO.P,D35,2,A*%
%TO.N,Net-(D35-A)*%
X123697999Y-131190999D03*
%TD*%
D10*
%TO.P,SW13,1,1*%
%TO.N,COL3*%
X80624999Y-94387499D03*
D11*
X81915000Y-87947500D03*
D12*
%TO.P,SW13,2,2*%
%TO.N,Net-(D13-A)*%
X85724999Y-96387499D03*
D11*
X88265000Y-85407500D03*
D13*
X89625041Y-84947098D03*
%TD*%
D10*
%TO.P,SW41,1,1*%
%TO.N,COL1*%
X52049999Y-151537499D03*
D11*
X53340000Y-145097500D03*
D12*
%TO.P,SW41,2,2*%
%TO.N,Net-(D41-A)*%
X57149999Y-153537499D03*
D11*
X59690000Y-142557500D03*
D13*
X61050041Y-142097098D03*
%TD*%
D14*
%TO.P,D8,1,K*%
%TO.N,Net-(D8-K)*%
X161924999Y-66420999D03*
D15*
%TO.P,D8,2,A*%
%TO.N,ROW1*%
X161924999Y-74040999D03*
%TD*%
D14*
%TO.P,D43,1,K*%
%TO.N,ROW5*%
X90550999Y-142493999D03*
D15*
%TO.P,D43,2,A*%
%TO.N,Net-(D43-A)*%
X90550999Y-150113999D03*
%TD*%
D10*
%TO.P,SW34,1,1*%
%TO.N,COL4*%
X109199999Y-132487499D03*
D11*
X110490000Y-126047500D03*
D12*
%TO.P,SW34,2,2*%
%TO.N,Net-(D34-A)*%
X114299999Y-134487499D03*
D11*
X116840000Y-123507500D03*
D13*
X118200041Y-123047098D03*
%TD*%
D10*
%TO.P,SW27,1,1*%
%TO.N,COL4*%
X161587499Y-113437499D03*
D11*
X162877500Y-106997500D03*
D12*
%TO.P,SW27,2,2*%
%TO.N,Net-(D27-K)*%
X166687499Y-115437499D03*
D11*
X169227500Y-104457500D03*
D13*
X170587541Y-103997098D03*
%TD*%
D14*
%TO.P,D32,1,K*%
%TO.N,ROW4*%
X69595999Y-119125999D03*
D15*
%TO.P,D32,2,A*%
%TO.N,Net-(D32-A)*%
X61975999Y-119125999D03*
%TD*%
D14*
%TO.P,D45,1,K*%
%TO.N,ROW5*%
X128523999Y-142620999D03*
D15*
%TO.P,D45,2,A*%
%TO.N,Net-(D45-A)*%
X128523999Y-150240999D03*
%TD*%
D14*
%TO.P,D3,1,K*%
%TO.N,ROW1*%
X83819999Y-81025999D03*
D15*
%TO.P,D3,2,A*%
%TO.N,Net-(D3-A)*%
X76199999Y-81025999D03*
%TD*%
D10*
%TO.P,SW25,1,1*%
%TO.N,COL5*%
X123487499Y-113437499D03*
D11*
X124777500Y-106997500D03*
D12*
%TO.P,SW25,2,2*%
%TO.N,Net-(D25-A)*%
X128587499Y-115437499D03*
D11*
X131127500Y-104457500D03*
D13*
X132487541Y-103997098D03*
%TD*%
D10*
%TO.P,SW6,1,1*%
%TO.N,COL5*%
X128249999Y-75337499D03*
D11*
X129540000Y-68897500D03*
D12*
%TO.P,SW6,2,2*%
%TO.N,Net-(D6-K)*%
X133349999Y-77337499D03*
D11*
X135890000Y-66357500D03*
D13*
X137250041Y-65897098D03*
%TD*%
D10*
%TO.P,SW4,1,1*%
%TO.N,COL4*%
X90149999Y-75337499D03*
D11*
X91440000Y-68897500D03*
D12*
%TO.P,SW4,2,2*%
%TO.N,Net-(D4-A)*%
X95249999Y-77337499D03*
D11*
X97790000Y-66357500D03*
D13*
X99150041Y-65897098D03*
%TD*%
D14*
%TO.P,D5,1,K*%
%TO.N,ROW1*%
X104774999Y-66293999D03*
D15*
%TO.P,D5,2,A*%
%TO.N,Net-(D5-A)*%
X104774999Y-73913999D03*
%TD*%
D14*
%TO.P,D22,1,K*%
%TO.N,ROW3*%
X54832249Y-104393999D03*
D15*
%TO.P,D22,2,A*%
%TO.N,Net-(D22-A)*%
X54832249Y-112013999D03*
%TD*%
D10*
%TO.P,SW7,1,1*%
%TO.N,COL4*%
X147299999Y-75337499D03*
D11*
X148590000Y-68897500D03*
D12*
%TO.P,SW7,2,2*%
%TO.N,Net-(D7-K)*%
X152399999Y-77337499D03*
D11*
X154940000Y-66357500D03*
D13*
X156300041Y-65897098D03*
%TD*%
D10*
%TO.P,SW17,1,1*%
%TO.N,COL4*%
X156824999Y-94387499D03*
D11*
X158115000Y-87947500D03*
D12*
%TO.P,SW17,2,2*%
%TO.N,Net-(D17-K)*%
X161924999Y-96387499D03*
D11*
X164465000Y-85407500D03*
D13*
X165825041Y-84947098D03*
%TD*%
D10*
%TO.P,SW24,1,1*%
%TO.N,COL4*%
X104437499Y-113437499D03*
D11*
X105727500Y-106997500D03*
D12*
%TO.P,SW24,2,2*%
%TO.N,Net-(D24-A)*%
X109537499Y-115437499D03*
D11*
X112077500Y-104457500D03*
D13*
X113437541Y-103997098D03*
%TD*%
D14*
%TO.P,D46,1,K*%
%TO.N,Net-(D46-K)*%
X147573999Y-142620999D03*
D15*
%TO.P,D46,2,A*%
%TO.N,ROW5*%
X147573999Y-150240999D03*
%TD*%
D10*
%TO.P,SW37,1,1*%
%TO.N,COL4*%
X166349999Y-132487499D03*
D11*
X167640000Y-126047500D03*
D12*
%TO.P,SW37,2,2*%
%TO.N,Net-(D37-K)*%
X171449999Y-134487499D03*
D11*
X173990000Y-123507500D03*
D13*
X175350041Y-123047098D03*
%TD*%
D10*
%TO.P,SW12,1,1*%
%TO.N,COL2*%
X56812499Y-94387499D03*
D11*
X58102500Y-87947500D03*
D12*
%TO.P,SW12,2,2*%
%TO.N,Net-(D12-A)*%
X61912499Y-96387499D03*
D11*
X64452500Y-85407500D03*
D13*
X65812541Y-84947098D03*
%TD*%
D14*
%TO.P,D6,1,K*%
%TO.N,Net-(D6-K)*%
X123824999Y-66420999D03*
D15*
%TO.P,D6,2,A*%
%TO.N,ROW1*%
X123824999Y-74040999D03*
%TD*%
D14*
%TO.P,D24,1,K*%
%TO.N,ROW3*%
X100075999Y-104393999D03*
D15*
%TO.P,D24,2,A*%
%TO.N,Net-(D24-A)*%
X100075999Y-112013999D03*
%TD*%
D10*
%TO.P,SW23,1,1*%
%TO.N,COL3*%
X85387499Y-113437499D03*
D11*
X86677500Y-106997500D03*
D12*
%TO.P,SW23,2,2*%
%TO.N,Net-(D23-A)*%
X90487499Y-115437499D03*
D11*
X93027500Y-104457500D03*
D13*
X94387541Y-103997098D03*
%TD*%
D14*
%TO.P,D14,1,K*%
%TO.N,ROW2*%
X95376999Y-85343999D03*
D15*
%TO.P,D14,2,A*%
%TO.N,Net-(D14-A)*%
X95376999Y-92963999D03*
%TD*%
D10*
%TO.P,SW33,1,1*%
%TO.N,COL3*%
X90149999Y-132487499D03*
D11*
X91440000Y-126047500D03*
D12*
%TO.P,SW33,2,2*%
%TO.N,Net-(D33-A)*%
X95249999Y-134487499D03*
D11*
X97790000Y-123507500D03*
D13*
X99150041Y-123047098D03*
%TD*%
D10*
%TO.P,SW15,1,1*%
%TO.N,COL5*%
X118724999Y-94387499D03*
D11*
X120015000Y-87947500D03*
D12*
%TO.P,SW15,2,2*%
%TO.N,Net-(D15-A)*%
X123824999Y-96387499D03*
D11*
X126365000Y-85407500D03*
D13*
X127725041Y-84947098D03*
%TD*%
D10*
%TO.P,SW46,1,1*%
%TO.N,COL5*%
X152062499Y-151537499D03*
D11*
X153352500Y-145097500D03*
D12*
%TO.P,SW46,2,2*%
%TO.N,Net-(D46-K)*%
X157162499Y-153537499D03*
D11*
X159702500Y-142557500D03*
D13*
X161062541Y-142097098D03*
%TD*%
D14*
%TO.P,D42,1,K*%
%TO.N,ROW5*%
X71373999Y-142620999D03*
D15*
%TO.P,D42,2,A*%
%TO.N,Net-(D42-A)*%
X71373999Y-150240999D03*
%TD*%
D10*
%TO.P,SW42,1,1*%
%TO.N,COL2*%
X75862499Y-151537499D03*
D11*
X77152500Y-145097500D03*
D12*
%TO.P,SW42,2,2*%
%TO.N,Net-(D42-A)*%
X80962499Y-153537499D03*
D11*
X83502500Y-142557500D03*
D13*
X84862541Y-142097098D03*
%TD*%
D10*
%TO.P,SW2,1,1*%
%TO.N,COL2*%
X52049999Y-75337499D03*
D11*
X53340000Y-68897500D03*
D12*
%TO.P,SW2,2,2*%
%TO.N,Net-(D2-A)*%
X57149999Y-77337499D03*
D11*
X59690000Y-66357500D03*
D13*
X61050041Y-65897098D03*
%TD*%
D14*
%TO.P,D13,1,K*%
%TO.N,ROW2*%
X76199999Y-85343999D03*
D15*
%TO.P,D13,2,A*%
%TO.N,Net-(D13-A)*%
X76199999Y-92963999D03*
%TD*%
D10*
%TO.P,SW3,1,1*%
%TO.N,COL3*%
X71099999Y-75337499D03*
D11*
X72390000Y-68897500D03*
D12*
%TO.P,SW3,2,2*%
%TO.N,Net-(D3-A)*%
X76199999Y-77337499D03*
D11*
X78740000Y-66357500D03*
D13*
X80100041Y-65897098D03*
%TD*%
D14*
%TO.P,D12,1,K*%
%TO.N,ROW2*%
X52387499Y-85470999D03*
D15*
%TO.P,D12,2,A*%
%TO.N,Net-(D12-A)*%
X52387499Y-93090999D03*
%TD*%
D14*
%TO.P,D23,1,K*%
%TO.N,ROW3*%
X81025999Y-104393999D03*
D15*
%TO.P,D23,2,A*%
%TO.N,Net-(D23-A)*%
X81025999Y-112013999D03*
%TD*%
D14*
%TO.P,D36,1,K*%
%TO.N,Net-(D36-K)*%
X142874999Y-123570999D03*
D15*
%TO.P,D36,2,A*%
%TO.N,ROW4*%
X142874999Y-131190999D03*
%TD*%
D14*
%TO.P,D25,1,K*%
%TO.N,ROW3*%
X118998999Y-104393999D03*
D15*
%TO.P,D25,2,A*%
%TO.N,Net-(D25-A)*%
X118998999Y-112013999D03*
%TD*%
D14*
%TO.P,D4,1,K*%
%TO.N,ROW1*%
X85724999Y-66420999D03*
D15*
%TO.P,D4,2,A*%
%TO.N,Net-(D4-A)*%
X85724999Y-74040999D03*
%TD*%
D10*
%TO.P,SW26,1,1*%
%TO.N,COL5*%
X142537499Y-113437499D03*
D11*
X143827500Y-106997500D03*
D12*
%TO.P,SW26,2,2*%
%TO.N,Net-(D26-K)*%
X147637499Y-115437499D03*
D11*
X150177500Y-104457500D03*
D13*
X151537541Y-103997098D03*
%TD*%
D14*
%TO.P,D44,1,K*%
%TO.N,ROW5*%
X109473999Y-142493999D03*
D15*
%TO.P,D44,2,A*%
%TO.N,Net-(D44-A)*%
X109473999Y-150113999D03*
%TD*%
D10*
%TO.P,SW14,1,1*%
%TO.N,COL4*%
X99674999Y-94387499D03*
D11*
X100965000Y-87947500D03*
D12*
%TO.P,SW14,2,2*%
%TO.N,Net-(D14-A)*%
X104774999Y-96387499D03*
D11*
X107315000Y-85407500D03*
D13*
X108675041Y-84947098D03*
%TD*%
D10*
%TO.P,SW35,1,1*%
%TO.N,COL5*%
X128249999Y-132487499D03*
D11*
X129540000Y-126047500D03*
D12*
%TO.P,SW35,2,2*%
%TO.N,Net-(D35-A)*%
X133349999Y-134487499D03*
D11*
X135890000Y-123507500D03*
D13*
X137250041Y-123047098D03*
%TD*%
D10*
%TO.P,SW22,1,1*%
%TO.N,COL2*%
X59193749Y-113437499D03*
D11*
X60483750Y-106997500D03*
D12*
%TO.P,SW22,2,2*%
%TO.N,Net-(D22-A)*%
X64293749Y-115437499D03*
D11*
X66833750Y-104457500D03*
D13*
X68193791Y-103997098D03*
%TD*%
D10*
%TO.P,SW5,1,1*%
%TO.N,COL5*%
X109199999Y-75337499D03*
D11*
X110490000Y-68897500D03*
D12*
%TO.P,SW5,2,2*%
%TO.N,Net-(D5-A)*%
X114299999Y-77337499D03*
D11*
X116840000Y-66357500D03*
D13*
X118200041Y-65897098D03*
%TD*%
D14*
%TO.P,D33,1,K*%
%TO.N,ROW4*%
X85851999Y-123570999D03*
D15*
%TO.P,D33,2,A*%
%TO.N,Net-(D33-A)*%
X85851999Y-131190999D03*
%TD*%
D10*
%TO.P,SW16,1,1*%
%TO.N,COL5*%
X137774999Y-94387499D03*
D11*
X139065000Y-87947500D03*
D12*
%TO.P,SW16,2,2*%
%TO.N,Net-(D16-K)*%
X142874999Y-96387499D03*
D11*
X145415000Y-85407500D03*
D13*
X146775041Y-84947098D03*
%TD*%
D14*
%TO.P,D37,1,K*%
%TO.N,Net-(D37-K)*%
X161924999Y-123443999D03*
D15*
%TO.P,D37,2,A*%
%TO.N,ROW4*%
X161924999Y-131063999D03*
%TD*%
D10*
%TO.P,SW44,1,1*%
%TO.N,COL4*%
X113962499Y-151537499D03*
D11*
X115252500Y-145097500D03*
D12*
%TO.P,SW44,2,2*%
%TO.N,Net-(D44-A)*%
X119062499Y-153537499D03*
D11*
X121602500Y-142557500D03*
D13*
X122962541Y-142097098D03*
%TD*%
D14*
%TO.P,D34,1,K*%
%TO.N,ROW4*%
X104774999Y-123316999D03*
D15*
%TO.P,D34,2,A*%
%TO.N,Net-(D34-A)*%
X104774999Y-130936999D03*
%TD*%
D14*
%TO.P,D15,1,K*%
%TO.N,ROW2*%
X114299999Y-85343999D03*
D15*
%TO.P,D15,2,A*%
%TO.N,Net-(D15-A)*%
X114299999Y-92963999D03*
%TD*%
D10*
%TO.P,SW36,1,1*%
%TO.N,COL5*%
X147299999Y-132487499D03*
D11*
X148590000Y-126047500D03*
D12*
%TO.P,SW36,2,2*%
%TO.N,Net-(D36-K)*%
X152399999Y-134487499D03*
D11*
X154940000Y-123507500D03*
D13*
X156300041Y-123047098D03*
%TD*%
D14*
%TO.P,D16,1,K*%
%TO.N,Net-(D16-K)*%
X132968999Y-85343999D03*
D15*
%TO.P,D16,2,A*%
%TO.N,ROW2*%
X132968999Y-92963999D03*
%TD*%
D10*
%TO.P,SW45,1,1*%
%TO.N,COL5*%
X133012499Y-151537499D03*
D11*
X134302500Y-145097500D03*
D12*
%TO.P,SW45,2,2*%
%TO.N,Net-(D45-A)*%
X138112499Y-153537499D03*
D11*
X140652500Y-142557500D03*
D13*
X142012541Y-142097098D03*
%TD*%
D14*
%TO.P,D17,1,K*%
%TO.N,Net-(D17-K)*%
X152399999Y-85470999D03*
D15*
%TO.P,D17,2,A*%
%TO.N,ROW2*%
X152399999Y-93090999D03*
%TD*%
D10*
%TO.P,SW8,1,1*%
%TO.N,COL3*%
X166349999Y-75337499D03*
D11*
X167640000Y-68897500D03*
D12*
%TO.P,SW8,2,2*%
%TO.N,Net-(D8-K)*%
X171449999Y-77337499D03*
D11*
X173990000Y-66357500D03*
D13*
X175350041Y-65897098D03*
%TD*%
D14*
%TO.P,D27,1,K*%
%TO.N,Net-(D27-K)*%
X157098999Y-104520999D03*
D15*
%TO.P,D27,2,A*%
%TO.N,ROW3*%
X157098999Y-112140999D03*
%TD*%
D14*
%TO.P,D26,1,K*%
%TO.N,Net-(D26-K)*%
X138048999Y-104393999D03*
D15*
%TO.P,D26,2,A*%
%TO.N,ROW3*%
X138048999Y-112013999D03*
%TD*%
D14*
%TO.P,D2,1,K*%
%TO.N,ROW1*%
X61213999Y-81025999D03*
D15*
%TO.P,D2,2,A*%
%TO.N,Net-(D2-A)*%
X53593999Y-81025999D03*
%TD*%
D14*
%TO.P,D7,1,K*%
%TO.N,Net-(D7-K)*%
X142874999Y-66420999D03*
D15*
%TO.P,D7,2,A*%
%TO.N,ROW1*%
X142874999Y-74040999D03*
%TD*%
D16*
%TO.P,J1,A*%
%TO.N,VCC*%
X178099999Y-92799999D03*
%TO.P,J1,B*%
%TO.N,GND*%
X173899999Y-84299999D03*
%TO.P,J1,C*%
%TO.N,unconnected-(J1-PadC)*%
X173899999Y-87299999D03*
%TO.P,J1,D*%
%TO.N,RX*%
X173899999Y-91299999D03*
%TD*%
D17*
%TO.P,U1,1,PA02_A0_D0*%
%TO.N,ROW1*%
X66675000Y-65024000D03*
%TO.P,U1,2,PA4_A1_D1*%
%TO.N,ROW2*%
X66675000Y-67564000D03*
%TO.P,U1,3,PA10_A2_D2*%
%TO.N,ROW3*%
X66675000Y-70104000D03*
%TO.P,U1,4,PA11_A3_D3*%
%TO.N,ROW4*%
X66675000Y-72644000D03*
%TO.P,U1,5,PA8_A4_D4_SDA*%
%TO.N,ROW5*%
X66675000Y-75184000D03*
%TO.P,U1,6,PA9_A5_D5_SCL*%
%TO.N,COL1*%
X66675000Y-77724000D03*
%TO.P,U1,7,PB08_A6_D6_TX*%
%TO.N,COL5*%
X66675000Y-80264000D03*
%TO.P,U1,8,PB09_A7_D7_RX*%
%TO.N,RX*%
X48895000Y-80264000D03*
%TO.P,U1,9,PA7_A8_D8_SCK*%
%TO.N,COL4*%
X48895000Y-77724000D03*
%TO.P,U1,10,PA5_A9_D9_MISO*%
%TO.N,COL3*%
X48895000Y-75184000D03*
%TO.P,U1,11,PA6_A10_D10_MOSI*%
%TO.N,COL2*%
X48895000Y-72644000D03*
%TO.P,U1,12,3V3*%
%TO.N,VCC*%
X48895000Y-70104000D03*
%TO.P,U1,13,GND*%
%TO.N,GND*%
X48895000Y-67564000D03*
%TO.P,U1,14,5V*%
%TO.N,unconnected-(U1-5V-Pad14)*%
X48895000Y-65024000D03*
%TD*%
D18*
%TO.N,ROW4*%
X63500000Y-74676000D03*
%TO.N,COL1*%
X69596000Y-135890000D03*
%TD*%
D19*
%TO.N,ROW1*%
X86995000Y-63500000D02*
X102870000Y-63500000D01*
X61214000Y-74676622D02*
X61214000Y-81026000D01*
X68199000Y-63500000D02*
X84455000Y-63500000D01*
X85725000Y-64770000D02*
X85725000Y-66421000D01*
X63925000Y-67774000D02*
X63925000Y-71965622D01*
X84455000Y-63500000D02*
X85725000Y-64770000D01*
X63925000Y-71965622D02*
X61214000Y-74676622D01*
X104775000Y-65405000D02*
X104775000Y-66294000D01*
X85725000Y-64770000D02*
X86995000Y-63500000D01*
X102870000Y-63500000D02*
X104775000Y-65405000D01*
X66675000Y-65024000D02*
X63925000Y-67774000D01*
X66675000Y-65024000D02*
X68199000Y-63500000D01*
%TO.N,Net-(D2-A)*%
X60890000Y-67557500D02*
X60890000Y-73597500D01*
X59690000Y-66357500D02*
X60890000Y-67557500D01*
X60890000Y-73597500D02*
X57150000Y-77337500D01*
%TO.N,Net-(D3-A)*%
X78740000Y-66357500D02*
X79940000Y-67557500D01*
X79940000Y-73597500D02*
X76200000Y-77337500D01*
X79940000Y-67557500D02*
X79940000Y-73597500D01*
X76200000Y-77337500D02*
X76200000Y-81026000D01*
%TO.N,Net-(D4-A)*%
X97790000Y-66357500D02*
X98990000Y-67557500D01*
X98990000Y-73597500D02*
X95250000Y-77337500D01*
X98990000Y-67557500D02*
X98990000Y-73597500D01*
%TO.N,Net-(D5-A)*%
X116840000Y-66357500D02*
X118040000Y-67557500D01*
X118040000Y-67557500D02*
X118040000Y-73597500D01*
X118040000Y-73597500D02*
X114300000Y-77337500D01*
%TO.N,Net-(D6-K)*%
X137090000Y-73597500D02*
X133350000Y-77337500D01*
X135890000Y-66357500D02*
X137090000Y-67557500D01*
X137090000Y-67557500D02*
X137090000Y-73597500D01*
%TO.N,Net-(D7-K)*%
X154940000Y-66357500D02*
X156140000Y-67557500D01*
X156140000Y-73597500D02*
X152400000Y-77337500D01*
X156140000Y-67557500D02*
X156140000Y-73597500D01*
%TO.N,Net-(D8-K)*%
X175190000Y-67557500D02*
X175190000Y-73597500D01*
X173990000Y-66357500D02*
X175190000Y-67557500D01*
X175190000Y-73597500D02*
X171450000Y-77337500D01*
%TO.N,Net-(D13-A)*%
X89465000Y-86607500D02*
X89465000Y-92647500D01*
X88265000Y-85407500D02*
X89465000Y-86607500D01*
X89465000Y-92647500D02*
X85725000Y-96387500D01*
%TO.N,Net-(D14-A)*%
X108515000Y-86607500D02*
X108515000Y-92647500D01*
X107315000Y-85407500D02*
X108515000Y-86607500D01*
X108515000Y-92647500D02*
X104775000Y-96387500D01*
%TO.N,Net-(D15-A)*%
X127565000Y-92647500D02*
X123825000Y-96387500D01*
X126365000Y-85407500D02*
X127565000Y-86607500D01*
X127565000Y-86607500D02*
X127565000Y-92647500D01*
%TO.N,Net-(D16-K)*%
X145415000Y-85407500D02*
X146615000Y-86607500D01*
X146615000Y-92647500D02*
X142875000Y-96387500D01*
X146615000Y-86607500D02*
X146615000Y-92647500D01*
%TO.N,Net-(D17-K)*%
X165665000Y-86607500D02*
X165665000Y-92647500D01*
X164465000Y-85407500D02*
X165665000Y-86607500D01*
X165665000Y-92647500D02*
X161925000Y-96387500D01*
%TO.N,Net-(D23-A)*%
X94227500Y-105657500D02*
X94227500Y-111697500D01*
X94227500Y-111697500D02*
X90487500Y-115437500D01*
X93027500Y-104457500D02*
X94227500Y-105657500D01*
%TO.N,Net-(D24-A)*%
X112362500Y-104742500D02*
X112362500Y-112612500D01*
X112362500Y-112612500D02*
X109537500Y-115437500D01*
X112077500Y-104457500D02*
X112362500Y-104742500D01*
%TO.N,Net-(D25-A)*%
X132327500Y-111697500D02*
X128587500Y-115437500D01*
X131127500Y-104457500D02*
X132327500Y-105657500D01*
X132327500Y-105657500D02*
X132327500Y-111697500D01*
%TO.N,Net-(D26-K)*%
X150177500Y-104457500D02*
X151377500Y-105657500D01*
X151377500Y-105657500D02*
X151377500Y-111697500D01*
X151377500Y-111697500D02*
X147637500Y-115437500D01*
%TO.N,Net-(D27-K)*%
X169227500Y-104457500D02*
X170427500Y-105657500D01*
X170427500Y-105657500D02*
X170427500Y-111697500D01*
X170427500Y-111697500D02*
X166687500Y-115437500D01*
%TO.N,Net-(D33-A)*%
X97790000Y-123507500D02*
X98990000Y-124707500D01*
X98990000Y-124707500D02*
X98990000Y-130747500D01*
X98990000Y-130747500D02*
X95250000Y-134487500D01*
%TO.N,Net-(D34-A)*%
X118040000Y-124707500D02*
X118040000Y-130747500D01*
X118040000Y-130747500D02*
X114300000Y-134487500D01*
X116840000Y-123507500D02*
X118040000Y-124707500D01*
%TO.N,Net-(D35-A)*%
X137090000Y-124707500D02*
X137090000Y-130747500D01*
X137090000Y-130747500D02*
X133350000Y-134487500D01*
X135890000Y-123507500D02*
X137090000Y-124707500D01*
%TO.N,Net-(D36-K)*%
X156140000Y-124707500D02*
X156140000Y-130747500D01*
X156140000Y-130747500D02*
X152400000Y-134487500D01*
X154940000Y-123507500D02*
X156140000Y-124707500D01*
%TO.N,Net-(D37-K)*%
X175190000Y-130747500D02*
X171450000Y-134487500D01*
X173990000Y-123507500D02*
X175190000Y-124707500D01*
X175190000Y-124707500D02*
X175190000Y-130747500D01*
%TO.N,Net-(D41-A)*%
X59690000Y-142557500D02*
X60890000Y-143757500D01*
X60890000Y-149797500D02*
X57150000Y-153537500D01*
X60890000Y-143757500D02*
X60890000Y-149797500D01*
%TO.N,Net-(D42-A)*%
X84702500Y-149797500D02*
X80962500Y-153537500D01*
X83502500Y-142557500D02*
X84702500Y-143757500D01*
X84702500Y-143757500D02*
X84702500Y-149797500D01*
%TO.N,Net-(D43-A)*%
X103752500Y-143757500D02*
X103752500Y-149797500D01*
X102552500Y-142557500D02*
X103752500Y-143757500D01*
X103752500Y-149797500D02*
X100012500Y-153537500D01*
%TO.N,Net-(D44-A)*%
X122802500Y-149797500D02*
X119062500Y-153537500D01*
X122802500Y-143757500D02*
X122802500Y-149797500D01*
X121602500Y-142557500D02*
X122802500Y-143757500D01*
%TO.N,Net-(D45-A)*%
X141852500Y-149797500D02*
X138112500Y-153537500D01*
X140652500Y-142557500D02*
X141852500Y-143757500D01*
X141852500Y-143757500D02*
X141852500Y-149797500D01*
%TO.N,Net-(D46-K)*%
X160902500Y-143757500D02*
X160902500Y-149797500D01*
X159702500Y-142557500D02*
X160902500Y-143757500D01*
X160902500Y-149797500D02*
X157162500Y-153537500D01*
%TO.N,ROW2*%
X76200000Y-83566000D02*
X76200000Y-85344000D01*
X69675000Y-72215000D02*
X69675000Y-77041000D01*
X69425000Y-71965000D02*
X69675000Y-72215000D01*
X66675000Y-67564000D02*
X69425000Y-70314000D01*
X69425000Y-70314000D02*
X69425000Y-71965000D01*
X69675000Y-77041000D02*
X76200000Y-83566000D01*
%TO.N,ROW3*%
X68834000Y-77216000D02*
X75075000Y-83457000D01*
X75075000Y-94125000D02*
X81026000Y-100076000D01*
X81026000Y-100076000D02*
X81026000Y-104394000D01*
X68834000Y-72263000D02*
X68834000Y-77216000D01*
X75075000Y-83457000D02*
X75075000Y-94125000D01*
X66675000Y-70104000D02*
X68834000Y-72263000D01*
%TO.N,ROW4*%
X68148750Y-117678750D02*
X69596000Y-119126000D01*
X62927500Y-75248500D02*
X62927500Y-87507347D01*
X65278000Y-89857847D02*
X65278000Y-106526597D01*
X62927500Y-87507347D02*
X65278000Y-89857847D01*
X65278000Y-106526597D02*
X68148750Y-109397347D01*
X68148750Y-109397347D02*
X68148750Y-117678750D01*
X63500000Y-74676000D02*
X62927500Y-75248500D01*
%TO.N,ROW5*%
X80950000Y-135843743D02*
X80950000Y-137846000D01*
X75946000Y-105156000D02*
X75946000Y-130839743D01*
X80950000Y-137846000D02*
X84109601Y-141005601D01*
X75946000Y-130839743D02*
X80950000Y-135843743D01*
X73660000Y-85344000D02*
X73660000Y-102870000D01*
X73660000Y-102870000D02*
X75946000Y-105156000D01*
X68834000Y-80518000D02*
X73660000Y-85344000D01*
X84109601Y-141005601D02*
X89062601Y-141005601D01*
X68072000Y-78231302D02*
X68834000Y-78993302D01*
X89062601Y-141005601D02*
X90551000Y-142494000D01*
X66675000Y-75184000D02*
X66675000Y-76073000D01*
X68834000Y-78993302D02*
X68834000Y-80518000D01*
X68072000Y-77470000D02*
X68072000Y-78231302D01*
X66675000Y-76073000D02*
X68072000Y-77470000D01*
%TO.N,COL1*%
X73450000Y-132036000D02*
X69596000Y-135890000D01*
X71882000Y-121365742D02*
X73450000Y-122933742D01*
X67762000Y-78811000D02*
X67762000Y-82494000D01*
X67762000Y-82494000D02*
X71882000Y-86614000D01*
X71882000Y-86614000D02*
X71882000Y-121365742D01*
X66675000Y-77724000D02*
X67762000Y-78811000D01*
X73450000Y-122933742D02*
X73450000Y-132036000D01*
%TO.N,COL2*%
X56812500Y-103326250D02*
X60483750Y-106997500D01*
X52050000Y-75337500D02*
X53340000Y-74047500D01*
X77152500Y-150247500D02*
X75862500Y-151537500D01*
X58102500Y-87947500D02*
X58102500Y-93097500D01*
X77152500Y-145097500D02*
X77152500Y-150247500D01*
X71755000Y-139700000D02*
X77152500Y-145097500D01*
X68787500Y-139700000D02*
X71755000Y-139700000D01*
X51588500Y-75337500D02*
X52050000Y-75337500D01*
X48895000Y-72644000D02*
X51588500Y-75337500D01*
X59193750Y-113437500D02*
X59193750Y-122376250D01*
X62865000Y-131197500D02*
X61575000Y-132487500D01*
X60483750Y-112147500D02*
X59193750Y-113437500D01*
X52050000Y-75337500D02*
X52050000Y-81895000D01*
X53340000Y-74047500D02*
X53340000Y-68897500D01*
X58102500Y-93097500D02*
X56812500Y-94387500D01*
X62865000Y-126047500D02*
X62865000Y-131197500D01*
X56812500Y-94387500D02*
X56812500Y-103326250D01*
X61575000Y-132487500D02*
X68787500Y-139700000D01*
X59193750Y-122376250D02*
X62865000Y-126047500D01*
X52050000Y-81895000D02*
X58102500Y-87947500D01*
X60483750Y-106997500D02*
X60483750Y-112147500D01*
%TO.N,COL3*%
X72390000Y-74047500D02*
X71100000Y-75337500D01*
X80625000Y-94912500D02*
X86677500Y-100965000D01*
X91440000Y-131197500D02*
X90150000Y-132487500D01*
X85387500Y-113437500D02*
X85387500Y-119995000D01*
X86677500Y-100965000D02*
X86677500Y-106997500D01*
X91440000Y-126047500D02*
X91440000Y-131197500D01*
X86677500Y-106997500D02*
X86677500Y-112147500D01*
X96202500Y-150247500D02*
X94912500Y-151537500D01*
X80625000Y-94387500D02*
X80625000Y-94912500D01*
X71100000Y-75337500D02*
X71100000Y-77196000D01*
X85387500Y-119995000D02*
X91440000Y-126047500D01*
X86677500Y-112147500D02*
X85387500Y-113437500D01*
X75075000Y-81171000D02*
X75075000Y-81491991D01*
X81530509Y-87947500D02*
X81915000Y-87947500D01*
X90150000Y-132487500D02*
X90150000Y-139045000D01*
X167640000Y-68897500D02*
X167640000Y-74047500D01*
X72390000Y-68897500D02*
X72390000Y-74047500D01*
X81915000Y-87947500D02*
X81915000Y-93097500D01*
X75075000Y-81491991D02*
X81530509Y-87947500D01*
X71100000Y-77196000D02*
X75075000Y-81171000D01*
X96202500Y-145097500D02*
X96202500Y-150247500D01*
X90150000Y-139045000D02*
X96202500Y-145097500D01*
X167640000Y-74047500D02*
X166350000Y-75337500D01*
X81915000Y-93097500D02*
X80625000Y-94387500D01*
%TO.N,COL4*%
X162877500Y-100965000D02*
X162877500Y-106997500D01*
X90150000Y-75337500D02*
X90150000Y-77132500D01*
X148590000Y-74047500D02*
X147300000Y-75337500D01*
X167640000Y-126047500D02*
X167640000Y-131197500D01*
X91440000Y-74047500D02*
X90150000Y-75337500D01*
X100965000Y-87947500D02*
X100965000Y-93097500D01*
X90150000Y-77132500D02*
X100965000Y-87947500D01*
X110490000Y-126047500D02*
X110490000Y-131197500D01*
X100965000Y-93097500D02*
X99675000Y-94387500D01*
X104437500Y-113437500D02*
X104437500Y-119995000D01*
X105727500Y-106997500D02*
X105727500Y-112147500D01*
X104437500Y-119995000D02*
X110490000Y-126047500D01*
X109200000Y-132487500D02*
X109200000Y-139045000D01*
X147300000Y-77132500D02*
X158115000Y-87947500D01*
X161587500Y-119995000D02*
X167640000Y-126047500D01*
X105727500Y-112147500D02*
X104437500Y-113437500D01*
X110490000Y-131197500D02*
X109200000Y-132487500D01*
X109200000Y-139045000D02*
X115252500Y-145097500D01*
X115252500Y-150247500D02*
X113962500Y-151537500D01*
X148590000Y-68897500D02*
X148590000Y-74047500D01*
X156825000Y-94912500D02*
X162877500Y-100965000D01*
X167640000Y-131197500D02*
X166350000Y-132487500D01*
X99675000Y-100945000D02*
X105727500Y-106997500D01*
X115252500Y-145097500D02*
X115252500Y-150247500D01*
X99675000Y-94387500D02*
X99675000Y-100945000D01*
X161587500Y-113437500D02*
X161587500Y-119995000D01*
X147300000Y-75337500D02*
X147300000Y-77132500D01*
X156825000Y-94387500D02*
X156825000Y-94912500D01*
X91440000Y-68897500D02*
X91440000Y-74047500D01*
X162877500Y-106997500D02*
X162877500Y-112147500D01*
X162877500Y-112147500D02*
X161587500Y-113437500D01*
X158115000Y-93097500D02*
X156825000Y-94387500D01*
X158115000Y-87947500D02*
X158115000Y-93097500D01*
%TO.N,COL5*%
X102870000Y-67310000D02*
X102870000Y-66040000D01*
X82628832Y-66320328D02*
X82621060Y-65429802D01*
X129540000Y-68897500D02*
X129540000Y-74047500D01*
X129540000Y-126047500D02*
X129540000Y-131197500D01*
X65588000Y-67113749D02*
X65588000Y-79177000D01*
X87630000Y-67468750D02*
X86518750Y-68580000D01*
X128250000Y-77132500D02*
X139065000Y-87947500D01*
X82628832Y-66753832D02*
X82628832Y-66320328D01*
X148590000Y-131197500D02*
X147300000Y-132487500D01*
X136161000Y-154686000D02*
X148914000Y-154686000D01*
X123487500Y-113437500D02*
X123487500Y-119995000D01*
X139065000Y-87947500D02*
X139065000Y-93097500D01*
X72126176Y-66477000D02*
X66224749Y-66477000D01*
X81950268Y-64770000D02*
X73833176Y-64770000D01*
X84455000Y-68580000D02*
X82628832Y-66753832D01*
X88323000Y-64712000D02*
X87630000Y-65405000D01*
X110490000Y-74047500D02*
X109200000Y-75337500D01*
X87630000Y-65405000D02*
X87630000Y-67468750D01*
X102870000Y-66040000D02*
X101542000Y-64712000D01*
X148590000Y-126047500D02*
X148590000Y-131197500D01*
X134302500Y-145097500D02*
X134302500Y-150247500D01*
X153352500Y-145097500D02*
X153352500Y-150247500D01*
X153352500Y-150247500D02*
X152062500Y-151537500D01*
X143827500Y-112147500D02*
X142537500Y-113437500D01*
X109200000Y-75337500D02*
X109200000Y-77132500D01*
X129540000Y-131197500D02*
X128250000Y-132487500D01*
X102870000Y-67310000D02*
X103505000Y-67945000D01*
X108108750Y-68897500D02*
X107156250Y-67945000D01*
X137775000Y-94387500D02*
X137775000Y-100945000D01*
X128250000Y-139045000D02*
X134302500Y-145097500D01*
X133012500Y-151537500D02*
X136161000Y-154686000D01*
X73833176Y-64770000D02*
X72126176Y-66477000D01*
X137775000Y-100945000D02*
X143827500Y-106997500D01*
X128250000Y-132487500D02*
X128250000Y-139045000D01*
X65588000Y-79177000D02*
X66675000Y-80264000D01*
X66224749Y-66477000D02*
X65588000Y-67113749D01*
X118725000Y-100945000D02*
X124777500Y-106997500D01*
X128250000Y-75337500D02*
X128250000Y-77132500D01*
X147300000Y-139045000D02*
X153352500Y-145097500D01*
X110490000Y-68897500D02*
X108108750Y-68897500D01*
X101542000Y-64712000D02*
X88323000Y-64712000D01*
X148914000Y-154686000D02*
X152062500Y-151537500D01*
X120015000Y-93097500D02*
X118725000Y-94387500D01*
X124777500Y-106997500D02*
X124777500Y-112147500D01*
X86518750Y-68580000D02*
X84455000Y-68580000D01*
X109200000Y-77132500D02*
X120015000Y-87947500D01*
X82621060Y-65429802D02*
X81985869Y-64805601D01*
X110490000Y-68897500D02*
X110490000Y-74047500D01*
X147300000Y-132487500D02*
X147300000Y-139045000D01*
X120015000Y-87947500D02*
X120015000Y-93097500D01*
X107156250Y-67945000D02*
X103505000Y-67945000D01*
X134302500Y-150247500D02*
X133012500Y-151537500D01*
X142537500Y-119995000D02*
X148590000Y-126047500D01*
X142537500Y-113437500D02*
X142537500Y-119995000D01*
X129540000Y-74047500D02*
X128250000Y-75337500D01*
X123487500Y-119995000D02*
X129540000Y-126047500D01*
X143827500Y-106997500D02*
X143827500Y-112147500D01*
X118725000Y-94387500D02*
X118725000Y-100945000D01*
X139065000Y-93097500D02*
X137775000Y-94387500D01*
X81985869Y-64805601D02*
X81950268Y-64770000D01*
X124777500Y-112147500D02*
X123487500Y-113437500D01*
%TO.N,GND*%
X164000000Y-76887500D02*
X164000000Y-65000000D01*
X50436000Y-67564000D02*
X48895000Y-67564000D01*
X173900000Y-84300000D02*
X171412500Y-84300000D01*
X171412500Y-84300000D02*
X164000000Y-76887500D01*
X161000000Y-62000000D02*
X56000000Y-62000000D01*
X164000000Y-65000000D02*
X161000000Y-62000000D01*
X56000000Y-62000000D02*
X50436000Y-67564000D01*
%TD*%
M02*
