%TF.GenerationSoftware,KiCad,Pcbnew,(7.0.0)*%
%TF.CreationDate,2023-04-04T17:59:29+09:00*%
%TF.ProjectId,fric10key,66726963-3130-46b6-9579-2e6b69636164,rev?*%
%TF.SameCoordinates,Original*%
%TF.FileFunction,Soldermask,Top*%
%TF.FilePolarity,Negative*%
%FSLAX46Y46*%
G04 Gerber Fmt 4.6, Leading zero omitted, Abs format (unit mm)*
G04 Created by KiCad (PCBNEW (7.0.0)) date 2023-04-04 17:59:29*
%MOMM*%
%LPD*%
G01*
G04 APERTURE LIST*
%ADD10R,1.600000X1.600000*%
%ADD11O,1.600000X1.600000*%
%ADD12C,1.800000*%
%ADD13C,1.700000*%
%ADD14C,4.900000*%
%ADD15C,3.050000*%
%ADD16C,4.000000*%
%ADD17C,2.200000*%
%ADD18C,1.524000*%
G04 APERTURE END LIST*
D10*
%TO.C,D8*%
X152399999Y-42862499D03*
D11*
X160019999Y-42862499D03*
%TD*%
D12*
%TO.C,SW23*%
X132612500Y-133350000D03*
D13*
X133032500Y-133350000D03*
D14*
X138112500Y-133350000D03*
D13*
X143192500Y-133350000D03*
D12*
X143612500Y-133350000D03*
%TD*%
%TO.C,SW4*%
X151662500Y-33337500D03*
D13*
X152082500Y-33337500D03*
D14*
X157162500Y-33337500D03*
D13*
X162242500Y-33337500D03*
D12*
X162662500Y-33337500D03*
%TD*%
D10*
%TO.C,D21*%
X97631249Y-142874999D03*
D11*
X105251249Y-142874999D03*
%TD*%
D12*
%TO.C,SW26*%
X113562500Y-152400000D03*
D13*
X113982500Y-152400000D03*
D14*
X119062500Y-152400000D03*
D13*
X124142500Y-152400000D03*
D12*
X124562500Y-152400000D03*
%TD*%
D10*
%TO.C,D6*%
X128587499Y-57149999D03*
D11*
X128587499Y-49529999D03*
%TD*%
D10*
%TO.C,D14*%
X114299999Y-104774999D03*
D11*
X121919999Y-104774999D03*
%TD*%
D10*
%TO.C,D13*%
X97631249Y-104774999D03*
D11*
X105251249Y-104774999D03*
%TD*%
D12*
%TO.C,SW19*%
X132612500Y-114300000D03*
D13*
X133032500Y-114300000D03*
D14*
X138112500Y-114300000D03*
D13*
X143192500Y-114300000D03*
D12*
X143612500Y-114300000D03*
%TD*%
%TO.C,SW14*%
X113562500Y-95250000D03*
D13*
X113982500Y-95250000D03*
D14*
X119062500Y-95250000D03*
D13*
X124142500Y-95250000D03*
D12*
X124562500Y-95250000D03*
%TD*%
D10*
%TO.C,D7*%
X147637499Y-57149999D03*
D11*
X147637499Y-49529999D03*
%TD*%
D12*
%TO.C,SW2*%
X113562500Y-33337500D03*
D13*
X113982500Y-33337500D03*
D14*
X119062500Y-33337500D03*
D13*
X124142500Y-33337500D03*
D12*
X124562500Y-33337500D03*
%TD*%
%TO.C,SW16*%
X151662500Y-95250000D03*
D13*
X152082500Y-95250000D03*
D14*
X157162500Y-95250000D03*
D13*
X162242500Y-95250000D03*
D12*
X162662500Y-95250000D03*
%TD*%
D15*
%TO.C,SW24*%
X164162500Y-130975000D03*
D16*
X148922500Y-130975000D03*
D12*
X157162500Y-137375000D03*
D13*
X157162500Y-137795000D03*
D14*
X157162500Y-142875000D03*
D13*
X157162500Y-147955000D03*
D12*
X157162500Y-148375000D03*
D15*
X164162500Y-154775000D03*
D16*
X148922500Y-154775000D03*
%TD*%
D10*
%TO.C,D12*%
X152399999Y-85724999D03*
D11*
X160019999Y-85724999D03*
%TD*%
D17*
%TO.C,H7*%
X145256250Y-142875000D03*
%TD*%
D12*
%TO.C,SW20*%
X151662500Y-114300000D03*
D13*
X152082500Y-114300000D03*
D14*
X157162500Y-114300000D03*
D13*
X162242500Y-114300000D03*
D12*
X162662500Y-114300000D03*
%TD*%
%TO.C,SW3*%
X132612500Y-33337500D03*
D13*
X133032500Y-33337500D03*
D14*
X138112500Y-33337500D03*
D13*
X143192500Y-33337500D03*
D12*
X143612500Y-33337500D03*
%TD*%
D10*
%TO.C,D5*%
X109537499Y-57149999D03*
D11*
X109537499Y-49529999D03*
%TD*%
D12*
%TO.C,SW12*%
X151662500Y-76200000D03*
D13*
X152082500Y-76200000D03*
D14*
X157162500Y-76200000D03*
D13*
X162242500Y-76200000D03*
D12*
X162662500Y-76200000D03*
%TD*%
%TO.C,SW10*%
X113562500Y-76200000D03*
D13*
X113982500Y-76200000D03*
D14*
X119062500Y-76200000D03*
D13*
X124142500Y-76200000D03*
D12*
X124562500Y-76200000D03*
%TD*%
D17*
%TO.C,H5*%
X164306250Y-85725000D03*
%TD*%
D10*
%TO.C,D1*%
X97631249Y-42862499D03*
D11*
X105251249Y-42862499D03*
%TD*%
D17*
%TO.C,H8*%
X128587500Y-85725000D03*
%TD*%
D10*
%TO.C,D23*%
X128587499Y-138112499D03*
D11*
X128587499Y-130492499D03*
%TD*%
D10*
%TO.C,D26*%
X128587499Y-157162499D03*
D11*
X128587499Y-149542499D03*
%TD*%
D10*
%TO.C,D24*%
X114299999Y-142874999D03*
D11*
X121919999Y-142874999D03*
%TD*%
D10*
%TO.C,D3*%
X133349999Y-42862499D03*
D11*
X140969999Y-42862499D03*
%TD*%
D12*
%TO.C,SW1*%
X94512500Y-33337500D03*
D13*
X94932500Y-33337500D03*
D14*
X100012500Y-33337500D03*
D13*
X105092500Y-33337500D03*
D12*
X105512500Y-33337500D03*
%TD*%
D17*
%TO.C,H6*%
X164306250Y-123825000D03*
%TD*%
D10*
%TO.C,D22*%
X109537499Y-138112499D03*
D11*
X109537499Y-130492499D03*
%TD*%
D12*
%TO.C,SW9*%
X94512500Y-76200000D03*
D13*
X94932500Y-76200000D03*
D14*
X100012500Y-76200000D03*
D13*
X105092500Y-76200000D03*
D12*
X105512500Y-76200000D03*
%TD*%
D10*
%TO.C,D11*%
X133349999Y-85724999D03*
D11*
X140969999Y-85724999D03*
%TD*%
D10*
%TO.C,D4*%
X147637499Y-38099999D03*
D11*
X147637499Y-30479999D03*
%TD*%
D10*
%TO.C,D17*%
X97631249Y-123824999D03*
D11*
X105251249Y-123824999D03*
%TD*%
D12*
%TO.C,SW27*%
X132612500Y-152400000D03*
D13*
X133032500Y-152400000D03*
D14*
X138112500Y-152400000D03*
D13*
X143192500Y-152400000D03*
D12*
X143612500Y-152400000D03*
%TD*%
%TO.C,SW18*%
X113562500Y-114300000D03*
D13*
X113982500Y-114300000D03*
D14*
X119062500Y-114300000D03*
D13*
X124142500Y-114300000D03*
D12*
X124562500Y-114300000D03*
%TD*%
%TO.C,SW11*%
X132612500Y-76200000D03*
D13*
X133032500Y-76200000D03*
D14*
X138112500Y-76200000D03*
D13*
X143192500Y-76200000D03*
D12*
X143612500Y-76200000D03*
%TD*%
D10*
%TO.C,D20*%
X152399999Y-123824999D03*
D11*
X160019999Y-123824999D03*
%TD*%
D12*
%TO.C,SW25*%
X94512500Y-152400000D03*
D13*
X94932500Y-152400000D03*
D14*
X100012500Y-152400000D03*
D13*
X105092500Y-152400000D03*
D12*
X105512500Y-152400000D03*
%TD*%
%TO.C,SW6*%
X113562500Y-52387500D03*
D13*
X113982500Y-52387500D03*
D14*
X119062500Y-52387500D03*
D13*
X124142500Y-52387500D03*
D12*
X124562500Y-52387500D03*
%TD*%
%TO.C,SW15*%
X132612500Y-95250000D03*
D13*
X133032500Y-95250000D03*
D14*
X138112500Y-95250000D03*
D13*
X143192500Y-95250000D03*
D12*
X143612500Y-95250000D03*
%TD*%
%TO.C,SW5*%
X94512500Y-52387500D03*
D13*
X94932500Y-52387500D03*
D14*
X100012500Y-52387500D03*
D13*
X105092500Y-52387500D03*
D12*
X105512500Y-52387500D03*
%TD*%
%TO.C,SW22*%
X113562500Y-133350000D03*
D13*
X113982500Y-133350000D03*
D14*
X119062500Y-133350000D03*
D13*
X124142500Y-133350000D03*
D12*
X124562500Y-133350000D03*
%TD*%
%TO.C,SW17*%
X94512500Y-114300000D03*
D13*
X94932500Y-114300000D03*
D14*
X100012500Y-114300000D03*
D13*
X105092500Y-114300000D03*
D12*
X105512500Y-114300000D03*
%TD*%
D10*
%TO.C,D19*%
X133349999Y-123824999D03*
D11*
X140969999Y-123824999D03*
%TD*%
D10*
%TO.C,D9*%
X97631249Y-85724999D03*
D11*
X105251249Y-85724999D03*
%TD*%
D17*
%TO.C,H2*%
X92868750Y-85725000D03*
%TD*%
D10*
%TO.C,D25*%
X109537499Y-157162499D03*
D11*
X109537499Y-149542499D03*
%TD*%
D10*
%TO.C,D10*%
X114299999Y-85724999D03*
D11*
X121919999Y-85724999D03*
%TD*%
D10*
%TO.C,D15*%
X133349999Y-104774999D03*
D11*
X140969999Y-104774999D03*
%TD*%
D12*
%TO.C,SW13*%
X94512500Y-95250000D03*
D13*
X94932500Y-95250000D03*
D14*
X100012500Y-95250000D03*
D13*
X105092500Y-95250000D03*
D12*
X105512500Y-95250000D03*
%TD*%
D17*
%TO.C,H1*%
X92868750Y-42862500D03*
%TD*%
D10*
%TO.C,D27*%
X133349999Y-142874999D03*
D11*
X140969999Y-142874999D03*
%TD*%
D12*
%TO.C,SW7*%
X132612500Y-52387500D03*
D13*
X133032500Y-52387500D03*
D14*
X138112500Y-52387500D03*
D13*
X143192500Y-52387500D03*
D12*
X143612500Y-52387500D03*
%TD*%
D10*
%TO.C,D16*%
X152399999Y-104774999D03*
D11*
X160019999Y-104774999D03*
%TD*%
D10*
%TO.C,D2*%
X114299999Y-42862499D03*
D11*
X121919999Y-42862499D03*
%TD*%
D17*
%TO.C,H4*%
X164306250Y-42862500D03*
%TD*%
%TO.C,H3*%
X92868750Y-142875000D03*
%TD*%
D12*
%TO.C,SW8*%
X151662500Y-52387500D03*
D13*
X152082500Y-52387500D03*
D14*
X157162500Y-52387500D03*
D13*
X162242500Y-52387500D03*
D12*
X162662500Y-52387500D03*
%TD*%
%TO.C,SW21*%
X94512500Y-133350000D03*
D13*
X94932500Y-133350000D03*
D14*
X100012500Y-133350000D03*
D13*
X105092500Y-133350000D03*
D12*
X105512500Y-133350000D03*
%TD*%
D10*
%TO.C,D18*%
X114299999Y-123824999D03*
D11*
X121919999Y-123824999D03*
%TD*%
D18*
%TO.C,U1*%
X127900000Y-26920000D03*
X127900000Y-29460000D03*
X127900000Y-32000000D03*
X127900000Y-34540000D03*
X127900000Y-37080000D03*
X127900000Y-39620000D03*
X127900000Y-42160000D03*
X110120000Y-42160000D03*
X110120000Y-39620000D03*
X110120000Y-37080000D03*
X110120000Y-34540000D03*
X110120000Y-32000000D03*
X110120000Y-29460000D03*
X110120000Y-26920000D03*
%TD*%
M02*
