%TF.GenerationSoftware,KiCad,Pcbnew,(7.0.0)*%
%TF.CreationDate,2023-04-04T17:59:29+09:00*%
%TF.ProjectId,fric10key,66726963-3130-46b6-9579-2e6b69636164,rev?*%
%TF.SameCoordinates,Original*%
%TF.FileFunction,Soldermask,Bot*%
%TF.FilePolarity,Negative*%
%FSLAX46Y46*%
G04 Gerber Fmt 4.6, Leading zero omitted, Abs format (unit mm)*
G04 Created by KiCad (PCBNEW (7.0.0)) date 2023-04-04 17:59:29*
%MOMM*%
%LPD*%
G01*
G04 APERTURE LIST*
G04 Aperture macros list*
%AMHorizOval*
0 Thick line with rounded ends*
0 $1 width*
0 $2 $3 position (X,Y) of the first rounded end (center of the circle)*
0 $4 $5 position (X,Y) of the second rounded end (center of the circle)*
0 Add line between two ends*
20,1,$1,$2,$3,$4,$5,0*
0 Add two circle primitives to create the rounded ends*
1,1,$1,$2,$3*
1,1,$1,$4,$5*%
G04 Aperture macros list end*
%ADD10R,1.600000X1.600000*%
%ADD11O,1.600000X1.600000*%
%ADD12C,1.800000*%
%ADD13C,1.700000*%
%ADD14C,4.900000*%
%ADD15O,2.200000X1.600000*%
%ADD16C,2.400000*%
%ADD17O,2.200000X1.500000*%
%ADD18HorizOval,1.500000X1.449945X0.012653X-1.449945X-0.012653X0*%
%ADD19C,3.050000*%
%ADD20C,4.000000*%
%ADD21O,1.600000X2.200000*%
%ADD22O,1.500000X2.200000*%
%ADD23HorizOval,1.500000X0.012653X-1.449945X-0.012653X1.449945X0*%
%ADD24C,2.200000*%
%ADD25C,1.524000*%
G04 APERTURE END LIST*
D10*
%TO.C,D8*%
X152399999Y-42862499D03*
D11*
X160019999Y-42862499D03*
%TD*%
D12*
%TO.C,SW23*%
X132612500Y-133350000D03*
D13*
X133032500Y-133350000D03*
D14*
X138112500Y-133350000D03*
D13*
X143192500Y-133350000D03*
D12*
X143612500Y-133350000D03*
D15*
X133012499Y-137249999D03*
D16*
X134302500Y-130810000D03*
D17*
X138112499Y-139249999D03*
D16*
X140652500Y-128270000D03*
D18*
X142012541Y-127809598D03*
%TD*%
D12*
%TO.C,SW4*%
X151662500Y-33337500D03*
D13*
X152082500Y-33337500D03*
D14*
X157162500Y-33337500D03*
D13*
X162242500Y-33337500D03*
D12*
X162662500Y-33337500D03*
D15*
X152062499Y-37237499D03*
D16*
X153352500Y-30797500D03*
D17*
X157162499Y-39237499D03*
D16*
X159702500Y-28257500D03*
D18*
X161062541Y-27797098D03*
%TD*%
D10*
%TO.C,D21*%
X97631249Y-142874999D03*
D11*
X105251249Y-142874999D03*
%TD*%
D12*
%TO.C,SW26*%
X113562500Y-152400000D03*
D13*
X113982500Y-152400000D03*
D14*
X119062500Y-152400000D03*
D13*
X124142500Y-152400000D03*
D12*
X124562500Y-152400000D03*
D15*
X113962499Y-156299999D03*
D16*
X115252500Y-149860000D03*
D17*
X119062499Y-158299999D03*
D16*
X121602500Y-147320000D03*
D18*
X122962541Y-146859598D03*
%TD*%
D10*
%TO.C,D6*%
X128587499Y-57149999D03*
D11*
X128587499Y-49529999D03*
%TD*%
D10*
%TO.C,D14*%
X114299999Y-104774999D03*
D11*
X121919999Y-104774999D03*
%TD*%
D10*
%TO.C,D13*%
X97631249Y-104774999D03*
D11*
X105251249Y-104774999D03*
%TD*%
D12*
%TO.C,SW19*%
X132612500Y-114300000D03*
D13*
X133032500Y-114300000D03*
D14*
X138112500Y-114300000D03*
D13*
X143192500Y-114300000D03*
D12*
X143612500Y-114300000D03*
D15*
X133012499Y-118199999D03*
D16*
X134302500Y-111760000D03*
D17*
X138112499Y-120199999D03*
D16*
X140652500Y-109220000D03*
D18*
X142012541Y-108759598D03*
%TD*%
D12*
%TO.C,SW14*%
X113562500Y-95250000D03*
D13*
X113982500Y-95250000D03*
D14*
X119062500Y-95250000D03*
D13*
X124142500Y-95250000D03*
D12*
X124562500Y-95250000D03*
D15*
X113962499Y-99149999D03*
D16*
X115252500Y-92710000D03*
D17*
X119062499Y-101149999D03*
D16*
X121602500Y-90170000D03*
D18*
X122962541Y-89709598D03*
%TD*%
D10*
%TO.C,D7*%
X147637499Y-57149999D03*
D11*
X147637499Y-49529999D03*
%TD*%
D12*
%TO.C,SW2*%
X113562500Y-33337500D03*
D13*
X113982500Y-33337500D03*
D14*
X119062500Y-33337500D03*
D13*
X124142500Y-33337500D03*
D12*
X124562500Y-33337500D03*
D15*
X113962499Y-37237499D03*
D16*
X115252500Y-30797500D03*
D17*
X119062499Y-39237499D03*
D16*
X121602500Y-28257500D03*
D18*
X122962541Y-27797098D03*
%TD*%
D12*
%TO.C,SW16*%
X151662500Y-95250000D03*
D13*
X152082500Y-95250000D03*
D14*
X157162500Y-95250000D03*
D13*
X162242500Y-95250000D03*
D12*
X162662500Y-95250000D03*
D15*
X152062499Y-99149999D03*
D16*
X153352500Y-92710000D03*
D17*
X157162499Y-101149999D03*
D16*
X159702500Y-90170000D03*
D18*
X161062541Y-89709598D03*
%TD*%
D19*
%TO.C,SW24*%
X164162500Y-130975000D03*
D20*
X148922500Y-130975000D03*
D12*
X157162500Y-137375000D03*
D13*
X157162500Y-137795000D03*
D14*
X157162500Y-142875000D03*
D13*
X157162500Y-147955000D03*
D12*
X157162500Y-148375000D03*
D19*
X164162500Y-154775000D03*
D20*
X148922500Y-154775000D03*
D21*
X153262499Y-137774999D03*
D16*
X159702500Y-139065000D03*
D22*
X151262499Y-142874999D03*
D16*
X162242500Y-145415000D03*
D23*
X162702900Y-146775041D03*
%TD*%
D10*
%TO.C,D12*%
X152399999Y-85724999D03*
D11*
X160019999Y-85724999D03*
%TD*%
D24*
%TO.C,H7*%
X145256250Y-142875000D03*
%TD*%
D12*
%TO.C,SW20*%
X151662500Y-114300000D03*
D13*
X152082500Y-114300000D03*
D14*
X157162500Y-114300000D03*
D13*
X162242500Y-114300000D03*
D12*
X162662500Y-114300000D03*
D15*
X152062499Y-118199999D03*
D16*
X153352500Y-111760000D03*
D17*
X157162499Y-120199999D03*
D16*
X159702500Y-109220000D03*
D18*
X161062541Y-108759598D03*
%TD*%
D12*
%TO.C,SW3*%
X132612500Y-33337500D03*
D13*
X133032500Y-33337500D03*
D14*
X138112500Y-33337500D03*
D13*
X143192500Y-33337500D03*
D12*
X143612500Y-33337500D03*
D15*
X133012499Y-37237499D03*
D16*
X134302500Y-30797500D03*
D17*
X138112499Y-39237499D03*
D16*
X140652500Y-28257500D03*
D18*
X142012541Y-27797098D03*
%TD*%
D10*
%TO.C,D5*%
X109537499Y-57149999D03*
D11*
X109537499Y-49529999D03*
%TD*%
D12*
%TO.C,SW12*%
X151662500Y-76200000D03*
D13*
X152082500Y-76200000D03*
D14*
X157162500Y-76200000D03*
D13*
X162242500Y-76200000D03*
D12*
X162662500Y-76200000D03*
D15*
X152062499Y-80099999D03*
D16*
X153352500Y-73660000D03*
D17*
X157162499Y-82099999D03*
D16*
X159702500Y-71120000D03*
D18*
X161062541Y-70659598D03*
%TD*%
D12*
%TO.C,SW10*%
X113562500Y-76200000D03*
D13*
X113982500Y-76200000D03*
D14*
X119062500Y-76200000D03*
D13*
X124142500Y-76200000D03*
D12*
X124562500Y-76200000D03*
D15*
X113962499Y-80099999D03*
D16*
X115252500Y-73660000D03*
D17*
X119062499Y-82099999D03*
D16*
X121602500Y-71120000D03*
D18*
X122962541Y-70659598D03*
%TD*%
D24*
%TO.C,H5*%
X164306250Y-85725000D03*
%TD*%
D10*
%TO.C,D1*%
X97631249Y-42862499D03*
D11*
X105251249Y-42862499D03*
%TD*%
D24*
%TO.C,H8*%
X128587500Y-85725000D03*
%TD*%
D10*
%TO.C,D23*%
X128587499Y-138112499D03*
D11*
X128587499Y-130492499D03*
%TD*%
D10*
%TO.C,D26*%
X128587499Y-157162499D03*
D11*
X128587499Y-149542499D03*
%TD*%
D10*
%TO.C,D24*%
X114299999Y-142874999D03*
D11*
X121919999Y-142874999D03*
%TD*%
D10*
%TO.C,D3*%
X133349999Y-42862499D03*
D11*
X140969999Y-42862499D03*
%TD*%
D12*
%TO.C,SW1*%
X94512500Y-33337500D03*
D13*
X94932500Y-33337500D03*
D14*
X100012500Y-33337500D03*
D13*
X105092500Y-33337500D03*
D12*
X105512500Y-33337500D03*
D15*
X94912499Y-37237499D03*
D16*
X96202500Y-30797500D03*
D17*
X100012499Y-39237499D03*
D16*
X102552500Y-28257500D03*
D18*
X103912541Y-27797098D03*
%TD*%
D24*
%TO.C,H6*%
X164306250Y-123825000D03*
%TD*%
D10*
%TO.C,D22*%
X109537499Y-138112499D03*
D11*
X109537499Y-130492499D03*
%TD*%
D12*
%TO.C,SW9*%
X94512500Y-76200000D03*
D13*
X94932500Y-76200000D03*
D14*
X100012500Y-76200000D03*
D13*
X105092500Y-76200000D03*
D12*
X105512500Y-76200000D03*
D15*
X94912499Y-80099999D03*
D16*
X96202500Y-73660000D03*
D17*
X100012499Y-82099999D03*
D16*
X102552500Y-71120000D03*
D18*
X103912541Y-70659598D03*
%TD*%
D10*
%TO.C,D11*%
X133349999Y-85724999D03*
D11*
X140969999Y-85724999D03*
%TD*%
D10*
%TO.C,D4*%
X147637499Y-38099999D03*
D11*
X147637499Y-30479999D03*
%TD*%
D10*
%TO.C,D17*%
X97631249Y-123824999D03*
D11*
X105251249Y-123824999D03*
%TD*%
D12*
%TO.C,SW27*%
X132612500Y-152400000D03*
D13*
X133032500Y-152400000D03*
D14*
X138112500Y-152400000D03*
D13*
X143192500Y-152400000D03*
D12*
X143612500Y-152400000D03*
D15*
X133012499Y-156299999D03*
D16*
X134302500Y-149860000D03*
D17*
X138112499Y-158299999D03*
D16*
X140652500Y-147320000D03*
D18*
X142012541Y-146859598D03*
%TD*%
D12*
%TO.C,SW18*%
X113562500Y-114300000D03*
D13*
X113982500Y-114300000D03*
D14*
X119062500Y-114300000D03*
D13*
X124142500Y-114300000D03*
D12*
X124562500Y-114300000D03*
D15*
X113962499Y-118199999D03*
D16*
X115252500Y-111760000D03*
D17*
X119062499Y-120199999D03*
D16*
X121602500Y-109220000D03*
D18*
X122962541Y-108759598D03*
%TD*%
D12*
%TO.C,SW11*%
X132612500Y-76200000D03*
D13*
X133032500Y-76200000D03*
D14*
X138112500Y-76200000D03*
D13*
X143192500Y-76200000D03*
D12*
X143612500Y-76200000D03*
D15*
X133012499Y-80099999D03*
D16*
X134302500Y-73660000D03*
D17*
X138112499Y-82099999D03*
D16*
X140652500Y-71120000D03*
D18*
X142012541Y-70659598D03*
%TD*%
D10*
%TO.C,D20*%
X152399999Y-123824999D03*
D11*
X160019999Y-123824999D03*
%TD*%
D12*
%TO.C,SW25*%
X94512500Y-152400000D03*
D13*
X94932500Y-152400000D03*
D14*
X100012500Y-152400000D03*
D13*
X105092500Y-152400000D03*
D12*
X105512500Y-152400000D03*
D15*
X94912499Y-156299999D03*
D16*
X96202500Y-149860000D03*
D17*
X100012499Y-158299999D03*
D16*
X102552500Y-147320000D03*
D18*
X103912541Y-146859598D03*
%TD*%
D12*
%TO.C,SW6*%
X113562500Y-52387500D03*
D13*
X113982500Y-52387500D03*
D14*
X119062500Y-52387500D03*
D13*
X124142500Y-52387500D03*
D12*
X124562500Y-52387500D03*
D15*
X113962499Y-56287499D03*
D16*
X115252500Y-49847500D03*
D17*
X119062499Y-58287499D03*
D16*
X121602500Y-47307500D03*
D18*
X122962541Y-46847098D03*
%TD*%
D12*
%TO.C,SW15*%
X132612500Y-95250000D03*
D13*
X133032500Y-95250000D03*
D14*
X138112500Y-95250000D03*
D13*
X143192500Y-95250000D03*
D12*
X143612500Y-95250000D03*
D15*
X133012499Y-99149999D03*
D16*
X134302500Y-92710000D03*
D17*
X138112499Y-101149999D03*
D16*
X140652500Y-90170000D03*
D18*
X142012541Y-89709598D03*
%TD*%
D12*
%TO.C,SW5*%
X94512500Y-52387500D03*
D13*
X94932500Y-52387500D03*
D14*
X100012500Y-52387500D03*
D13*
X105092500Y-52387500D03*
D12*
X105512500Y-52387500D03*
D15*
X94912499Y-56287499D03*
D16*
X96202500Y-49847500D03*
D17*
X100012499Y-58287499D03*
D16*
X102552500Y-47307500D03*
D18*
X103912541Y-46847098D03*
%TD*%
D12*
%TO.C,SW22*%
X113562500Y-133350000D03*
D13*
X113982500Y-133350000D03*
D14*
X119062500Y-133350000D03*
D13*
X124142500Y-133350000D03*
D12*
X124562500Y-133350000D03*
D15*
X113962499Y-137249999D03*
D16*
X115252500Y-130810000D03*
D17*
X119062499Y-139249999D03*
D16*
X121602500Y-128270000D03*
D18*
X122962541Y-127809598D03*
%TD*%
D12*
%TO.C,SW17*%
X94512500Y-114300000D03*
D13*
X94932500Y-114300000D03*
D14*
X100012500Y-114300000D03*
D13*
X105092500Y-114300000D03*
D12*
X105512500Y-114300000D03*
D15*
X94912499Y-118199999D03*
D16*
X96202500Y-111760000D03*
D17*
X100012499Y-120199999D03*
D16*
X102552500Y-109220000D03*
D18*
X103912541Y-108759598D03*
%TD*%
D10*
%TO.C,D19*%
X133349999Y-123824999D03*
D11*
X140969999Y-123824999D03*
%TD*%
D10*
%TO.C,D9*%
X97631249Y-85724999D03*
D11*
X105251249Y-85724999D03*
%TD*%
D24*
%TO.C,H2*%
X92868750Y-85725000D03*
%TD*%
D10*
%TO.C,D25*%
X109537499Y-157162499D03*
D11*
X109537499Y-149542499D03*
%TD*%
D10*
%TO.C,D10*%
X114299999Y-85724999D03*
D11*
X121919999Y-85724999D03*
%TD*%
D10*
%TO.C,D15*%
X133349999Y-104774999D03*
D11*
X140969999Y-104774999D03*
%TD*%
D12*
%TO.C,SW13*%
X94512500Y-95250000D03*
D13*
X94932500Y-95250000D03*
D14*
X100012500Y-95250000D03*
D13*
X105092500Y-95250000D03*
D12*
X105512500Y-95250000D03*
D15*
X94912499Y-99149999D03*
D16*
X96202500Y-92710000D03*
D17*
X100012499Y-101149999D03*
D16*
X102552500Y-90170000D03*
D18*
X103912541Y-89709598D03*
%TD*%
D24*
%TO.C,H1*%
X92868750Y-42862500D03*
%TD*%
D10*
%TO.C,D27*%
X133349999Y-142874999D03*
D11*
X140969999Y-142874999D03*
%TD*%
D12*
%TO.C,SW7*%
X132612500Y-52387500D03*
D13*
X133032500Y-52387500D03*
D14*
X138112500Y-52387500D03*
D13*
X143192500Y-52387500D03*
D12*
X143612500Y-52387500D03*
D15*
X133012499Y-56287499D03*
D16*
X134302500Y-49847500D03*
D17*
X138112499Y-58287499D03*
D16*
X140652500Y-47307500D03*
D18*
X142012541Y-46847098D03*
%TD*%
D10*
%TO.C,D16*%
X152399999Y-104774999D03*
D11*
X160019999Y-104774999D03*
%TD*%
D10*
%TO.C,D2*%
X114299999Y-42862499D03*
D11*
X121919999Y-42862499D03*
%TD*%
D24*
%TO.C,H4*%
X164306250Y-42862500D03*
%TD*%
%TO.C,H3*%
X92868750Y-142875000D03*
%TD*%
D12*
%TO.C,SW8*%
X151662500Y-52387500D03*
D13*
X152082500Y-52387500D03*
D14*
X157162500Y-52387500D03*
D13*
X162242500Y-52387500D03*
D12*
X162662500Y-52387500D03*
D15*
X152062499Y-56287499D03*
D16*
X153352500Y-49847500D03*
D17*
X157162499Y-58287499D03*
D16*
X159702500Y-47307500D03*
D18*
X161062541Y-46847098D03*
%TD*%
D12*
%TO.C,SW21*%
X94512500Y-133350000D03*
D13*
X94932500Y-133350000D03*
D14*
X100012500Y-133350000D03*
D13*
X105092500Y-133350000D03*
D12*
X105512500Y-133350000D03*
D15*
X94912499Y-137249999D03*
D16*
X96202500Y-130810000D03*
D17*
X100012499Y-139249999D03*
D16*
X102552500Y-128270000D03*
D18*
X103912541Y-127809598D03*
%TD*%
D10*
%TO.C,D18*%
X114299999Y-123824999D03*
D11*
X121919999Y-123824999D03*
%TD*%
D25*
%TO.C,U1*%
X127900000Y-26920000D03*
X127900000Y-29460000D03*
X127900000Y-32000000D03*
X127900000Y-34540000D03*
X127900000Y-37080000D03*
X127900000Y-39620000D03*
X127900000Y-42160000D03*
X110120000Y-42160000D03*
X110120000Y-39620000D03*
X110120000Y-37080000D03*
X110120000Y-34540000D03*
X110120000Y-32000000D03*
X110120000Y-29460000D03*
X110120000Y-26920000D03*
%TD*%
M02*
