M48
; DRILL file {KiCad (7.0.0)} date Tue Apr  4 17:59:33 2023
; FORMAT={-:-/ absolute / inch / decimal}
; #@! TF.CreationDate,2023-04-04T17:59:33+09:00
; #@! TF.GenerationSoftware,Kicad,Pcbnew,(7.0.0)
; #@! TF.FileFunction,Plated,1,2,PTH
FMAT,2
INCH
; #@! TA.AperFunction,Plated,PTH,ComponentDrill
T1C0.0118
; #@! TA.AperFunction,Plated,PTH,ComponentDrill
T2C0.0157
; #@! TA.AperFunction,Plated,PTH,ComponentDrill
T3C0.0300
; #@! TA.AperFunction,Plated,PTH,ComponentDrill
T4C0.0315
; #@! TA.AperFunction,Plated,PTH,ComponentDrill
T5C0.0472
%
G90
G05
T3
X4.3354Y-1.0598
X4.3354Y-1.1598
X4.3354Y-1.2598
X4.3354Y-1.3598
X4.3354Y-1.4598
X4.3354Y-1.5598
X4.3354Y-1.6598
X5.0354Y-1.0598
X5.0354Y-1.1598
X5.0354Y-1.2598
X5.0354Y-1.3598
X5.0354Y-1.4598
X5.0354Y-1.5598
X5.0354Y-1.6598
T4
X3.8438Y-1.6875
X3.8438Y-3.375
X3.8438Y-4.125
X3.8438Y-4.875
X3.8438Y-5.625
X4.1437Y-1.6875
X4.1437Y-3.375
X4.1437Y-4.125
X4.1437Y-4.875
X4.1437Y-5.625
X4.3125Y-1.95
X4.3125Y-2.25
X4.3125Y-5.1375
X4.3125Y-5.4375
X4.3125Y-5.8875
X4.3125Y-6.1875
X4.5Y-1.6875
X4.5Y-3.375
X4.5Y-4.125
X4.5Y-4.875
X4.5Y-5.625
X4.8Y-1.6875
X4.8Y-3.375
X4.8Y-4.125
X4.8Y-4.875
X4.8Y-5.625
X5.0625Y-1.95
X5.0625Y-2.25
X5.0625Y-5.1375
X5.0625Y-5.4375
X5.0625Y-5.8875
X5.0625Y-6.1875
X5.25Y-1.6875
X5.25Y-3.375
X5.25Y-4.125
X5.25Y-4.875
X5.25Y-5.625
X5.55Y-1.6875
X5.55Y-3.375
X5.55Y-4.125
X5.55Y-4.875
X5.55Y-5.625
X5.8125Y-1.2
X5.8125Y-1.5
X5.8125Y-1.95
X5.8125Y-2.25
X6.0Y-1.6875
X6.0Y-3.375
X6.0Y-4.125
X6.0Y-4.875
X6.3Y-1.6875
X6.3Y-3.375
X6.3Y-4.125
X6.3Y-4.875
T5
X3.7875Y-1.2125
X3.7875Y-1.9625
X3.7875Y-2.9
X3.7875Y-3.65
X3.7875Y-4.4
X3.7875Y-5.15
X3.7875Y-5.9
X4.0375Y-1.1125
X4.0375Y-1.8625
X4.0375Y-2.8
X4.0375Y-3.55
X4.0375Y-4.3
X4.0375Y-5.05
X4.0375Y-5.8
X4.5375Y-1.2125
X4.5375Y-1.9625
X4.5375Y-2.9
X4.5375Y-3.65
X4.5375Y-4.4
X4.5375Y-5.15
X4.5375Y-5.9
X4.7875Y-1.1125
X4.7875Y-1.8625
X4.7875Y-2.8
X4.7875Y-3.55
X4.7875Y-4.3
X4.7875Y-5.05
X4.7875Y-5.8
X5.2875Y-1.2125
X5.2875Y-1.9625
X5.2875Y-2.9
X5.2875Y-3.65
X5.2875Y-4.4
X5.2875Y-5.15
X5.2875Y-5.9
X5.5375Y-1.1125
X5.5375Y-1.8625
X5.5375Y-2.8
X5.5375Y-3.55
X5.5375Y-4.3
X5.5375Y-5.05
X5.5375Y-5.8
X6.0375Y-1.2125
X6.0375Y-1.9625
X6.0375Y-2.9
X6.0375Y-3.65
X6.0375Y-4.4
X6.2875Y-1.1125
X6.2875Y-1.8625
X6.2875Y-2.8
X6.2875Y-3.55
X6.2875Y-4.3
X6.2875Y-5.475
X6.3875Y-5.725
T1
G00X3.9237Y-1.5448
M15
G01X3.9513Y-1.5448
M16
G05
G00X3.9237Y-2.2948
M15
G01X3.9513Y-2.2948
M16
G05
G00X3.9237Y-3.2323
M15
G01X3.9513Y-3.2323
M16
G05
G00X3.9237Y-3.9823
M15
G01X3.9513Y-3.9823
M16
G05
G00X3.9237Y-4.7323
M15
G01X3.9513Y-4.7323
M16
G05
G00X3.9237Y-5.4823
M15
G01X3.9513Y-5.4823
M16
G05
G00X3.9237Y-6.2323
M15
G01X3.9513Y-6.2323
M16
G05
G00X4.1206Y-1.0941
M15
G01X4.1481Y-1.0939
M16
G05
G00X4.1206Y-1.8441
M15
G01X4.1481Y-1.8439
M16
G05
G00X4.1206Y-2.7816
M15
G01X4.1481Y-2.7814
M16
G05
G00X4.1206Y-3.5316
M15
G01X4.1481Y-3.5314
M16
G05
G00X4.1206Y-4.2816
M15
G01X4.1481Y-4.2814
M16
G05
G00X4.1206Y-5.0316
M15
G01X4.1481Y-5.0314
M16
G05
G00X4.1206Y-5.7816
M15
G01X4.1481Y-5.7814
M16
G05
G00X4.6737Y-1.5448
M15
G01X4.7013Y-1.5448
M16
G05
G00X4.6737Y-2.2948
M15
G01X4.7013Y-2.2948
M16
G05
G00X4.6737Y-3.2323
M15
G01X4.7013Y-3.2323
M16
G05
G00X4.6737Y-3.9823
M15
G01X4.7013Y-3.9823
M16
G05
G00X4.6737Y-4.7323
M15
G01X4.7013Y-4.7323
M16
G05
G00X4.6737Y-5.4823
M15
G01X4.7013Y-5.4823
M16
G05
G00X4.6737Y-6.2323
M15
G01X4.7013Y-6.2323
M16
G05
G00X4.8706Y-1.0941
M15
G01X4.8981Y-1.0939
M16
G05
G00X4.8706Y-1.8441
M15
G01X4.8981Y-1.8439
M16
G05
G00X4.8706Y-2.7816
M15
G01X4.8981Y-2.7814
M16
G05
G00X4.8706Y-3.5316
M15
G01X4.8981Y-3.5314
M16
G05
G00X4.8706Y-4.2816
M15
G01X4.8981Y-4.2814
M16
G05
G00X4.8706Y-5.0316
M15
G01X4.8981Y-5.0314
M16
G05
G00X4.8706Y-5.7816
M15
G01X4.8981Y-5.7814
M16
G05
G00X5.4237Y-1.5448
M15
G01X5.4513Y-1.5448
M16
G05
G00X5.4237Y-2.2948
M15
G01X5.4513Y-2.2948
M16
G05
G00X5.4237Y-3.2323
M15
G01X5.4513Y-3.2323
M16
G05
G00X5.4237Y-3.9823
M15
G01X5.4513Y-3.9823
M16
G05
G00X5.4237Y-4.7323
M15
G01X5.4513Y-4.7323
M16
G05
G00X5.4237Y-5.4823
M15
G01X5.4513Y-5.4823
M16
G05
G00X5.4237Y-6.2323
M15
G01X5.4513Y-6.2323
M16
G05
G00X5.6206Y-1.0941
M15
G01X5.6481Y-1.0939
M16
G05
G00X5.6206Y-1.8441
M15
G01X5.6481Y-1.8439
M16
G05
G00X5.6206Y-2.7816
M15
G01X5.6481Y-2.7814
M16
G05
G00X5.6206Y-3.5316
M15
G01X5.6481Y-3.5314
M16
G05
G00X5.6206Y-4.2816
M15
G01X5.6481Y-4.2814
M16
G05
G00X5.6206Y-5.0316
M15
G01X5.6481Y-5.0314
M16
G05
G00X5.6206Y-5.7816
M15
G01X5.6481Y-5.7814
M16
G05
G00X5.9552Y-5.6112
M15
G01X5.9552Y-5.6388
M16
G05
G00X6.1737Y-1.5448
M15
G01X6.2013Y-1.5448
M16
G05
G00X6.1737Y-2.2948
M15
G01X6.2013Y-2.2948
M16
G05
G00X6.1737Y-3.2323
M15
G01X6.2013Y-3.2323
M16
G05
G00X6.1737Y-3.9823
M15
G01X6.2013Y-3.9823
M16
G05
G00X6.1737Y-4.7323
M15
G01X6.2013Y-4.7323
M16
G05
G00X6.3706Y-1.0941
M15
G01X6.3981Y-1.0939
M16
G05
G00X6.3706Y-1.8441
M15
G01X6.3981Y-1.8439
M16
G05
G00X6.3706Y-2.7816
M15
G01X6.3981Y-2.7814
M16
G05
G00X6.3706Y-3.5316
M15
G01X6.3981Y-3.5314
M16
G05
G00X6.3706Y-4.2816
M15
G01X6.3981Y-4.2814
M16
G05
G00X6.4059Y-5.8081
M15
G01X6.4061Y-5.8356
M16
G05
T2
G00X3.7249Y-1.466
M15
G01X3.7485Y-1.466
M16
G05
G00X3.7249Y-2.216
M15
G01X3.7485Y-2.216
M16
G05
G00X3.7249Y-3.1535
M15
G01X3.7485Y-3.1535
M16
G05
G00X3.7249Y-3.9035
M15
G01X3.7485Y-3.9035
M16
G05
G00X3.7249Y-4.6535
M15
G01X3.7485Y-4.6535
M16
G05
G00X3.7249Y-5.4035
M15
G01X3.7485Y-5.4035
M16
G05
G00X3.7249Y-6.1535
M15
G01X3.7485Y-6.1535
M16
G05
G00X4.4749Y-1.466
M15
G01X4.4985Y-1.466
M16
G05
G00X4.4749Y-2.216
M15
G01X4.4985Y-2.216
M16
G05
G00X4.4749Y-3.1535
M15
G01X4.4985Y-3.1535
M16
G05
G00X4.4749Y-3.9035
M15
G01X4.4985Y-3.9035
M16
G05
G00X4.4749Y-4.6535
M15
G01X4.4985Y-4.6535
M16
G05
G00X4.4749Y-5.4035
M15
G01X4.4985Y-5.4035
M16
G05
G00X4.4749Y-6.1535
M15
G01X4.4985Y-6.1535
M16
G05
G00X5.2249Y-1.466
M15
G01X5.2485Y-1.466
M16
G05
G00X5.2249Y-2.216
M15
G01X5.2485Y-2.216
M16
G05
G00X5.2249Y-3.1535
M15
G01X5.2485Y-3.1535
M16
G05
G00X5.2249Y-3.9035
M15
G01X5.2485Y-3.9035
M16
G05
G00X5.2249Y-4.6535
M15
G01X5.2485Y-4.6535
M16
G05
G00X5.2249Y-5.4035
M15
G01X5.2485Y-5.4035
M16
G05
G00X5.2249Y-6.1535
M15
G01X5.2485Y-6.1535
M16
G05
G00X5.9749Y-1.466
M15
G01X5.9985Y-1.466
M16
G05
G00X5.9749Y-2.216
M15
G01X5.9985Y-2.216
M16
G05
G00X5.9749Y-3.1535
M15
G01X5.9985Y-3.1535
M16
G05
G00X5.9749Y-3.9035
M15
G01X5.9985Y-3.9035
M16
G05
G00X5.9749Y-4.6535
M15
G01X5.9985Y-4.6535
M16
G05
G00X6.034Y-5.4124
M15
G01X6.034Y-5.436
M16
G05
T0
M30
