%TF.GenerationSoftware,KiCad,Pcbnew,(7.0.0)*%
%TF.CreationDate,2023-04-04T17:59:29+09:00*%
%TF.ProjectId,fric10key,66726963-3130-46b6-9579-2e6b69636164,rev?*%
%TF.SameCoordinates,Original*%
%TF.FileFunction,Copper,L1,Top*%
%TF.FilePolarity,Positive*%
%FSLAX46Y46*%
G04 Gerber Fmt 4.6, Leading zero omitted, Abs format (unit mm)*
G04 Created by KiCad (PCBNEW (7.0.0)) date 2023-04-04 17:59:29*
%MOMM*%
%LPD*%
G01*
G04 APERTURE LIST*
G04 Aperture macros list*
%AMHorizOval*
0 Thick line with rounded ends*
0 $1 width*
0 $2 $3 position (X,Y) of the first rounded end (center of the circle)*
0 $4 $5 position (X,Y) of the second rounded end (center of the circle)*
0 Add line between two ends*
20,1,$1,$2,$3,$4,$5,0*
0 Add two circle primitives to create the rounded ends*
1,1,$1,$2,$3*
1,1,$1,$4,$5*%
G04 Aperture macros list end*
%TA.AperFunction,ComponentPad*%
%ADD10R,1.600000X1.600000*%
%TD*%
%TA.AperFunction,ComponentPad*%
%ADD11O,1.600000X1.600000*%
%TD*%
%TA.AperFunction,ComponentPad*%
%ADD12O,2.200000X1.600000*%
%TD*%
%TA.AperFunction,ComponentPad*%
%ADD13C,2.400000*%
%TD*%
%TA.AperFunction,ComponentPad*%
%ADD14O,2.200000X1.500000*%
%TD*%
%TA.AperFunction,ComponentPad*%
%ADD15HorizOval,1.500000X1.449945X0.012653X-1.449945X-0.012653X0*%
%TD*%
%TA.AperFunction,ComponentPad*%
%ADD16O,1.600000X2.200000*%
%TD*%
%TA.AperFunction,ComponentPad*%
%ADD17O,1.500000X2.200000*%
%TD*%
%TA.AperFunction,ComponentPad*%
%ADD18HorizOval,1.500000X0.012653X-1.449945X-0.012653X1.449945X0*%
%TD*%
%TA.AperFunction,ComponentPad*%
%ADD19C,1.524000*%
%TD*%
%TA.AperFunction,Conductor*%
%ADD20C,0.250000*%
%TD*%
G04 APERTURE END LIST*
D10*
%TO.P,D8,1,K*%
%TO.N,ROW2*%
X152399999Y-42862499D03*
D11*
%TO.P,D8,2,A*%
%TO.N,Net-(D8-A)*%
X160019999Y-42862499D03*
%TD*%
D12*
%TO.P,SW23,1,1*%
%TO.N,COL3*%
X133012499Y-137249999D03*
D13*
X134302500Y-130810000D03*
D14*
%TO.P,SW23,2,2*%
%TO.N,Net-(D23-A)*%
X138112499Y-139249999D03*
D13*
X140652500Y-128270000D03*
D15*
X142012541Y-127809598D03*
%TD*%
D12*
%TO.P,SW4,1,1*%
%TO.N,COL4*%
X152062499Y-37237499D03*
D13*
X153352500Y-30797500D03*
D14*
%TO.P,SW4,2,2*%
%TO.N,Net-(D4-A)*%
X157162499Y-39237499D03*
D13*
X159702500Y-28257500D03*
D15*
X161062541Y-27797098D03*
%TD*%
D10*
%TO.P,D21,1,K*%
%TO.N,ROW6*%
X97631249Y-142874999D03*
D11*
%TO.P,D21,2,A*%
%TO.N,Net-(D21-A)*%
X105251249Y-142874999D03*
%TD*%
D12*
%TO.P,SW26,1,1*%
%TO.N,COL2*%
X113962499Y-156299999D03*
D13*
X115252500Y-149860000D03*
D14*
%TO.P,SW26,2,2*%
%TO.N,Net-(D26-A)*%
X119062499Y-158299999D03*
D13*
X121602500Y-147320000D03*
D15*
X122962541Y-146859598D03*
%TD*%
D10*
%TO.P,D6,1,K*%
%TO.N,ROW2*%
X128587499Y-57149999D03*
D11*
%TO.P,D6,2,A*%
%TO.N,Net-(D6-A)*%
X128587499Y-49529999D03*
%TD*%
D10*
%TO.P,D14,1,K*%
%TO.N,ROW4*%
X114299999Y-104774999D03*
D11*
%TO.P,D14,2,A*%
%TO.N,Net-(D14-A)*%
X121919999Y-104774999D03*
%TD*%
D10*
%TO.P,D13,1,K*%
%TO.N,ROW4*%
X97631249Y-104774999D03*
D11*
%TO.P,D13,2,A*%
%TO.N,Net-(D13-A)*%
X105251249Y-104774999D03*
%TD*%
D12*
%TO.P,SW19,1,1*%
%TO.N,COL3*%
X133012499Y-118199999D03*
D13*
X134302500Y-111760000D03*
D14*
%TO.P,SW19,2,2*%
%TO.N,Net-(D19-A)*%
X138112499Y-120199999D03*
D13*
X140652500Y-109220000D03*
D15*
X142012541Y-108759598D03*
%TD*%
D12*
%TO.P,SW14,1,1*%
%TO.N,COL2*%
X113962499Y-99149999D03*
D13*
X115252500Y-92710000D03*
D14*
%TO.P,SW14,2,2*%
%TO.N,Net-(D14-A)*%
X119062499Y-101149999D03*
D13*
X121602500Y-90170000D03*
D15*
X122962541Y-89709598D03*
%TD*%
D10*
%TO.P,D7,1,K*%
%TO.N,ROW2*%
X147637499Y-57149999D03*
D11*
%TO.P,D7,2,A*%
%TO.N,Net-(D7-A)*%
X147637499Y-49529999D03*
%TD*%
D12*
%TO.P,SW2,1,1*%
%TO.N,COL2*%
X113962499Y-37237499D03*
D13*
X115252500Y-30797500D03*
D14*
%TO.P,SW2,2,2*%
%TO.N,Net-(D2-A)*%
X119062499Y-39237499D03*
D13*
X121602500Y-28257500D03*
D15*
X122962541Y-27797098D03*
%TD*%
D12*
%TO.P,SW16,1,1*%
%TO.N,COL4*%
X152062499Y-99149999D03*
D13*
X153352500Y-92710000D03*
D14*
%TO.P,SW16,2,2*%
%TO.N,Net-(D16-A)*%
X157162499Y-101149999D03*
D13*
X159702500Y-90170000D03*
D15*
X161062541Y-89709598D03*
%TD*%
D16*
%TO.P,SW24,1,1*%
%TO.N,COL4*%
X153262499Y-137774999D03*
D13*
X159702500Y-139065000D03*
D17*
%TO.P,SW24,2,2*%
%TO.N,Net-(D24-A)*%
X151262499Y-142874999D03*
D13*
X162242500Y-145415000D03*
D18*
X162702900Y-146775041D03*
%TD*%
D10*
%TO.P,D12,1,K*%
%TO.N,ROW3*%
X152399999Y-85724999D03*
D11*
%TO.P,D12,2,A*%
%TO.N,Net-(D12-A)*%
X160019999Y-85724999D03*
%TD*%
D12*
%TO.P,SW20,1,1*%
%TO.N,COL4*%
X152062499Y-118199999D03*
D13*
X153352500Y-111760000D03*
D14*
%TO.P,SW20,2,2*%
%TO.N,Net-(D20-A)*%
X157162499Y-120199999D03*
D13*
X159702500Y-109220000D03*
D15*
X161062541Y-108759598D03*
%TD*%
D12*
%TO.P,SW3,1,1*%
%TO.N,COL3*%
X133012499Y-37237499D03*
D13*
X134302500Y-30797500D03*
D14*
%TO.P,SW3,2,2*%
%TO.N,Net-(D3-A)*%
X138112499Y-39237499D03*
D13*
X140652500Y-28257500D03*
D15*
X142012541Y-27797098D03*
%TD*%
D10*
%TO.P,D5,1,K*%
%TO.N,ROW2*%
X109537499Y-57149999D03*
D11*
%TO.P,D5,2,A*%
%TO.N,Net-(D5-A)*%
X109537499Y-49529999D03*
%TD*%
D12*
%TO.P,SW12,1,1*%
%TO.N,COL4*%
X152062499Y-80099999D03*
D13*
X153352500Y-73660000D03*
D14*
%TO.P,SW12,2,2*%
%TO.N,Net-(D12-A)*%
X157162499Y-82099999D03*
D13*
X159702500Y-71120000D03*
D15*
X161062541Y-70659598D03*
%TD*%
D12*
%TO.P,SW10,1,1*%
%TO.N,COL2*%
X113962499Y-80099999D03*
D13*
X115252500Y-73660000D03*
D14*
%TO.P,SW10,2,2*%
%TO.N,Net-(D10-A)*%
X119062499Y-82099999D03*
D13*
X121602500Y-71120000D03*
D15*
X122962541Y-70659598D03*
%TD*%
D10*
%TO.P,D1,1,K*%
%TO.N,ROW1*%
X97631249Y-42862499D03*
D11*
%TO.P,D1,2,A*%
%TO.N,Net-(D1-A)*%
X105251249Y-42862499D03*
%TD*%
D10*
%TO.P,D23,1,K*%
%TO.N,ROW6*%
X128587499Y-138112499D03*
D11*
%TO.P,D23,2,A*%
%TO.N,Net-(D23-A)*%
X128587499Y-130492499D03*
%TD*%
D10*
%TO.P,D26,1,K*%
%TO.N,ROW7*%
X128587499Y-157162499D03*
D11*
%TO.P,D26,2,A*%
%TO.N,Net-(D26-A)*%
X128587499Y-149542499D03*
%TD*%
D10*
%TO.P,D24,1,K*%
%TO.N,ROW6*%
X114299999Y-142874999D03*
D11*
%TO.P,D24,2,A*%
%TO.N,Net-(D24-A)*%
X121919999Y-142874999D03*
%TD*%
D10*
%TO.P,D3,1,K*%
%TO.N,ROW1*%
X133349999Y-42862499D03*
D11*
%TO.P,D3,2,A*%
%TO.N,Net-(D3-A)*%
X140969999Y-42862499D03*
%TD*%
D12*
%TO.P,SW1,1,1*%
%TO.N,COL1*%
X94912499Y-37237499D03*
D13*
X96202500Y-30797500D03*
D14*
%TO.P,SW1,2,2*%
%TO.N,Net-(D1-A)*%
X100012499Y-39237499D03*
D13*
X102552500Y-28257500D03*
D15*
X103912541Y-27797098D03*
%TD*%
D10*
%TO.P,D22,1,K*%
%TO.N,ROW6*%
X109537499Y-138112499D03*
D11*
%TO.P,D22,2,A*%
%TO.N,Net-(D22-A)*%
X109537499Y-130492499D03*
%TD*%
D12*
%TO.P,SW9,1,1*%
%TO.N,COL1*%
X94912499Y-80099999D03*
D13*
X96202500Y-73660000D03*
D14*
%TO.P,SW9,2,2*%
%TO.N,Net-(D9-A)*%
X100012499Y-82099999D03*
D13*
X102552500Y-71120000D03*
D15*
X103912541Y-70659598D03*
%TD*%
D10*
%TO.P,D11,1,K*%
%TO.N,ROW3*%
X133349999Y-85724999D03*
D11*
%TO.P,D11,2,A*%
%TO.N,Net-(D11-A)*%
X140969999Y-85724999D03*
%TD*%
D10*
%TO.P,D4,1,K*%
%TO.N,ROW1*%
X147637499Y-38099999D03*
D11*
%TO.P,D4,2,A*%
%TO.N,Net-(D4-A)*%
X147637499Y-30479999D03*
%TD*%
D10*
%TO.P,D17,1,K*%
%TO.N,ROW5*%
X97631249Y-123824999D03*
D11*
%TO.P,D17,2,A*%
%TO.N,Net-(D17-A)*%
X105251249Y-123824999D03*
%TD*%
D12*
%TO.P,SW27,1,1*%
%TO.N,COL3*%
X133012499Y-156299999D03*
D13*
X134302500Y-149860000D03*
D14*
%TO.P,SW27,2,2*%
%TO.N,Net-(D27-A)*%
X138112499Y-158299999D03*
D13*
X140652500Y-147320000D03*
D15*
X142012541Y-146859598D03*
%TD*%
D12*
%TO.P,SW18,1,1*%
%TO.N,COL2*%
X113962499Y-118199999D03*
D13*
X115252500Y-111760000D03*
D14*
%TO.P,SW18,2,2*%
%TO.N,Net-(D18-A)*%
X119062499Y-120199999D03*
D13*
X121602500Y-109220000D03*
D15*
X122962541Y-108759598D03*
%TD*%
D12*
%TO.P,SW11,1,1*%
%TO.N,COL3*%
X133012499Y-80099999D03*
D13*
X134302500Y-73660000D03*
D14*
%TO.P,SW11,2,2*%
%TO.N,Net-(D11-A)*%
X138112499Y-82099999D03*
D13*
X140652500Y-71120000D03*
D15*
X142012541Y-70659598D03*
%TD*%
D10*
%TO.P,D20,1,K*%
%TO.N,ROW5*%
X152399999Y-123824999D03*
D11*
%TO.P,D20,2,A*%
%TO.N,Net-(D20-A)*%
X160019999Y-123824999D03*
%TD*%
D12*
%TO.P,SW25,1,1*%
%TO.N,COL1*%
X94912499Y-156299999D03*
D13*
X96202500Y-149860000D03*
D14*
%TO.P,SW25,2,2*%
%TO.N,Net-(D25-A)*%
X100012499Y-158299999D03*
D13*
X102552500Y-147320000D03*
D15*
X103912541Y-146859598D03*
%TD*%
D12*
%TO.P,SW6,1,1*%
%TO.N,COL2*%
X113962499Y-56287499D03*
D13*
X115252500Y-49847500D03*
D14*
%TO.P,SW6,2,2*%
%TO.N,Net-(D6-A)*%
X119062499Y-58287499D03*
D13*
X121602500Y-47307500D03*
D15*
X122962541Y-46847098D03*
%TD*%
D12*
%TO.P,SW15,1,1*%
%TO.N,COL3*%
X133012499Y-99149999D03*
D13*
X134302500Y-92710000D03*
D14*
%TO.P,SW15,2,2*%
%TO.N,Net-(D15-A)*%
X138112499Y-101149999D03*
D13*
X140652500Y-90170000D03*
D15*
X142012541Y-89709598D03*
%TD*%
D12*
%TO.P,SW5,1,1*%
%TO.N,COL1*%
X94912499Y-56287499D03*
D13*
X96202500Y-49847500D03*
D14*
%TO.P,SW5,2,2*%
%TO.N,Net-(D5-A)*%
X100012499Y-58287499D03*
D13*
X102552500Y-47307500D03*
D15*
X103912541Y-46847098D03*
%TD*%
D12*
%TO.P,SW22,1,1*%
%TO.N,COL2*%
X113962499Y-137249999D03*
D13*
X115252500Y-130810000D03*
D14*
%TO.P,SW22,2,2*%
%TO.N,Net-(D22-A)*%
X119062499Y-139249999D03*
D13*
X121602500Y-128270000D03*
D15*
X122962541Y-127809598D03*
%TD*%
D12*
%TO.P,SW17,1,1*%
%TO.N,COL1*%
X94912499Y-118199999D03*
D13*
X96202500Y-111760000D03*
D14*
%TO.P,SW17,2,2*%
%TO.N,Net-(D17-A)*%
X100012499Y-120199999D03*
D13*
X102552500Y-109220000D03*
D15*
X103912541Y-108759598D03*
%TD*%
D10*
%TO.P,D19,1,K*%
%TO.N,ROW5*%
X133349999Y-123824999D03*
D11*
%TO.P,D19,2,A*%
%TO.N,Net-(D19-A)*%
X140969999Y-123824999D03*
%TD*%
D10*
%TO.P,D9,1,K*%
%TO.N,ROW3*%
X97631249Y-85724999D03*
D11*
%TO.P,D9,2,A*%
%TO.N,Net-(D9-A)*%
X105251249Y-85724999D03*
%TD*%
D10*
%TO.P,D25,1,K*%
%TO.N,ROW7*%
X109537499Y-157162499D03*
D11*
%TO.P,D25,2,A*%
%TO.N,Net-(D25-A)*%
X109537499Y-149542499D03*
%TD*%
D10*
%TO.P,D10,1,K*%
%TO.N,ROW3*%
X114299999Y-85724999D03*
D11*
%TO.P,D10,2,A*%
%TO.N,Net-(D10-A)*%
X121919999Y-85724999D03*
%TD*%
D10*
%TO.P,D15,1,K*%
%TO.N,ROW4*%
X133349999Y-104774999D03*
D11*
%TO.P,D15,2,A*%
%TO.N,Net-(D15-A)*%
X140969999Y-104774999D03*
%TD*%
D12*
%TO.P,SW13,1,1*%
%TO.N,COL1*%
X94912499Y-99149999D03*
D13*
X96202500Y-92710000D03*
D14*
%TO.P,SW13,2,2*%
%TO.N,Net-(D13-A)*%
X100012499Y-101149999D03*
D13*
X102552500Y-90170000D03*
D15*
X103912541Y-89709598D03*
%TD*%
D10*
%TO.P,D27,1,K*%
%TO.N,ROW7*%
X133349999Y-142874999D03*
D11*
%TO.P,D27,2,A*%
%TO.N,Net-(D27-A)*%
X140969999Y-142874999D03*
%TD*%
D12*
%TO.P,SW7,1,1*%
%TO.N,COL3*%
X133012499Y-56287499D03*
D13*
X134302500Y-49847500D03*
D14*
%TO.P,SW7,2,2*%
%TO.N,Net-(D7-A)*%
X138112499Y-58287499D03*
D13*
X140652500Y-47307500D03*
D15*
X142012541Y-46847098D03*
%TD*%
D10*
%TO.P,D16,1,K*%
%TO.N,ROW4*%
X152399999Y-104774999D03*
D11*
%TO.P,D16,2,A*%
%TO.N,Net-(D16-A)*%
X160019999Y-104774999D03*
%TD*%
D10*
%TO.P,D2,1,K*%
%TO.N,ROW1*%
X114299999Y-42862499D03*
D11*
%TO.P,D2,2,A*%
%TO.N,Net-(D2-A)*%
X121919999Y-42862499D03*
%TD*%
D12*
%TO.P,SW8,1,1*%
%TO.N,COL4*%
X152062499Y-56287499D03*
D13*
X153352500Y-49847500D03*
D14*
%TO.P,SW8,2,2*%
%TO.N,Net-(D8-A)*%
X157162499Y-58287499D03*
D13*
X159702500Y-47307500D03*
D15*
X161062541Y-46847098D03*
%TD*%
D12*
%TO.P,SW21,1,1*%
%TO.N,COL1*%
X94912499Y-137249999D03*
D13*
X96202500Y-130810000D03*
D14*
%TO.P,SW21,2,2*%
%TO.N,Net-(D21-A)*%
X100012499Y-139249999D03*
D13*
X102552500Y-128270000D03*
D15*
X103912541Y-127809598D03*
%TD*%
D10*
%TO.P,D18,1,K*%
%TO.N,ROW5*%
X114299999Y-123824999D03*
D11*
%TO.P,D18,2,A*%
%TO.N,Net-(D18-A)*%
X121919999Y-123824999D03*
%TD*%
D19*
%TO.P,U1,1,PA02_A0_D0*%
%TO.N,ROW1*%
X127900000Y-26920000D03*
%TO.P,U1,2,PA4_A1_D1*%
%TO.N,ROW2*%
X127900000Y-29460000D03*
%TO.P,U1,3,PA10_A2_D2*%
%TO.N,ROW3*%
X127900000Y-32000000D03*
%TO.P,U1,4,PA11_A3_D3*%
%TO.N,ROW4*%
X127900000Y-34540000D03*
%TO.P,U1,5,PA8_A4_D4_SDA*%
%TO.N,ROW5*%
X127900000Y-37080000D03*
%TO.P,U1,6,PA9_A5_D5_SCL*%
%TO.N,ROW6*%
X127900000Y-39620000D03*
%TO.P,U1,7,PB08_A6_D6_TX*%
%TO.N,COL4*%
X127900000Y-42160000D03*
%TO.P,U1,8,PB09_A7_D7_RX*%
%TO.N,COL3*%
X110120000Y-42160000D03*
%TO.P,U1,9,PA7_A8_D8_SCK*%
%TO.N,COL2*%
X110120000Y-39620000D03*
%TO.P,U1,10,PA5_A9_D9_MISO*%
%TO.N,COL1*%
X110120000Y-37080000D03*
%TO.P,U1,11,PA6_A10_D10_MOSI*%
%TO.N,ROW7*%
X110120000Y-34540000D03*
%TO.P,U1,12,3V3*%
%TO.N,VCC*%
X110120000Y-32000000D03*
%TO.P,U1,13,GND*%
%TO.N,GND*%
X110120000Y-29460000D03*
%TO.P,U1,14,5V*%
%TO.N,unconnected-(U1-5V-Pad14)*%
X110120000Y-26920000D03*
%TD*%
D20*
%TO.N,ROW1*%
X131337500Y-40850000D02*
X133350000Y-42862500D01*
X128120000Y-26920000D02*
X131337500Y-30137500D01*
X131337500Y-30137500D02*
X131337500Y-40850000D01*
X127900000Y-26920000D02*
X128120000Y-26920000D01*
%TO.N,Net-(D1-A)*%
X100012500Y-39237500D02*
X101626250Y-39237500D01*
X103752500Y-29457500D02*
X103752500Y-35497500D01*
X101626250Y-39237500D02*
X105251250Y-42862500D01*
X103752500Y-35497500D02*
X100012500Y-39237500D01*
X102552500Y-28257500D02*
X103752500Y-29457500D01*
%TO.N,Net-(D2-A)*%
X122802500Y-35497500D02*
X119062500Y-39237500D01*
X119062500Y-39237500D02*
X119062500Y-40005000D01*
X121602500Y-28257500D02*
X122802500Y-29457500D01*
X119062500Y-40005000D02*
X121920000Y-42862500D01*
X122802500Y-29457500D02*
X122802500Y-35497500D01*
%TO.N,Net-(D3-A)*%
X141852500Y-35497500D02*
X138112500Y-39237500D01*
X140652500Y-28257500D02*
X141852500Y-29457500D01*
X138112500Y-39237500D02*
X138112500Y-40005000D01*
X138112500Y-40005000D02*
X140970000Y-42862500D01*
X141852500Y-29457500D02*
X141852500Y-35497500D01*
%TO.N,Net-(D4-A)*%
X160902500Y-35497500D02*
X157162500Y-39237500D01*
X160902500Y-29457500D02*
X160902500Y-35497500D01*
X149860000Y-28257500D02*
X147637500Y-30480000D01*
X159702500Y-28257500D02*
X160902500Y-29457500D01*
X159702500Y-28257500D02*
X149860000Y-28257500D01*
%TO.N,ROW2*%
X129712500Y-56025000D02*
X129712500Y-31272500D01*
X128587500Y-57150000D02*
X129712500Y-56025000D01*
X152400000Y-42862500D02*
X152400000Y-46358491D01*
X152400000Y-46358491D02*
X147637500Y-51120991D01*
X147637500Y-51120991D02*
X147637500Y-57150000D01*
X129712500Y-31272500D02*
X127900000Y-29460000D01*
%TO.N,Net-(D5-A)*%
X102552500Y-47307500D02*
X103752500Y-48507500D01*
X103752500Y-54547500D02*
X100012500Y-58287500D01*
X103752500Y-48507500D02*
X103752500Y-54547500D01*
%TO.N,Net-(D6-A)*%
X121602500Y-47307500D02*
X122802500Y-48507500D01*
X122802500Y-48507500D02*
X122802500Y-54547500D01*
X122802500Y-54547500D02*
X119062500Y-58287500D01*
%TO.N,Net-(D7-A)*%
X141852500Y-48507500D02*
X141852500Y-54547500D01*
X143112500Y-46837500D02*
X145805000Y-49530000D01*
X145805000Y-49530000D02*
X147637500Y-49530000D01*
X141852500Y-54547500D02*
X138112500Y-58287500D01*
X140652500Y-47307500D02*
X141852500Y-48507500D01*
%TO.N,Net-(D8-A)*%
X160902500Y-54547500D02*
X157162500Y-58287500D01*
X160020000Y-46990000D02*
X159702500Y-47307500D01*
X160902500Y-48507500D02*
X160902500Y-54547500D01*
X160020000Y-42862500D02*
X160020000Y-46990000D01*
X159702500Y-47307500D02*
X160902500Y-48507500D01*
%TO.N,ROW3*%
X127449749Y-28373000D02*
X128473000Y-28373000D01*
X130500000Y-30400000D02*
X130500000Y-82875000D01*
X126813000Y-29009749D02*
X127449749Y-28373000D01*
X128473000Y-28373000D02*
X130500000Y-30400000D01*
X126813000Y-30913000D02*
X126813000Y-29009749D01*
X127900000Y-32000000D02*
X126813000Y-30913000D01*
X130500000Y-82875000D02*
X133350000Y-85725000D01*
%TO.N,Net-(D9-A)*%
X103752500Y-78360000D02*
X100012500Y-82100000D01*
X102552500Y-71120000D02*
X103752500Y-72320000D01*
X103752500Y-72320000D02*
X103752500Y-78360000D01*
%TO.N,Net-(D10-A)*%
X122802500Y-78360000D02*
X119062500Y-82100000D01*
X121602500Y-71120000D02*
X122802500Y-72320000D01*
X119062500Y-82867500D02*
X121920000Y-85725000D01*
X122802500Y-72320000D02*
X122802500Y-78360000D01*
X119062500Y-82100000D02*
X119062500Y-82867500D01*
%TO.N,Net-(D11-A)*%
X138112500Y-82867500D02*
X140970000Y-85725000D01*
X141852500Y-78360000D02*
X138112500Y-82100000D01*
X138112500Y-82100000D02*
X138112500Y-82867500D01*
X140652500Y-71120000D02*
X141852500Y-72320000D01*
X141852500Y-72320000D02*
X141852500Y-78360000D01*
%TO.N,Net-(D12-A)*%
X160902500Y-78360000D02*
X157162500Y-82100000D01*
X157162500Y-82867500D02*
X160020000Y-85725000D01*
X160902500Y-72320000D02*
X160902500Y-78360000D01*
X157162500Y-82100000D02*
X157162500Y-82867500D01*
X159702500Y-71120000D02*
X160902500Y-72320000D01*
%TO.N,ROW4*%
X125900000Y-102763000D02*
X125900000Y-36540000D01*
X125900000Y-36540000D02*
X127900000Y-34540000D01*
X114300000Y-104775000D02*
X115425000Y-105900000D01*
X115425000Y-105900000D02*
X122763000Y-105900000D01*
X122763000Y-105900000D02*
X125900000Y-102763000D01*
%TO.N,Net-(D13-A)*%
X103752500Y-91370000D02*
X103752500Y-97410000D01*
X102552500Y-90170000D02*
X103752500Y-91370000D01*
X103752500Y-97410000D02*
X100012500Y-101150000D01*
%TO.N,Net-(D14-A)*%
X122802500Y-97410000D02*
X119062500Y-101150000D01*
X122802500Y-91370000D02*
X122802500Y-97410000D01*
X119062500Y-101917500D02*
X121920000Y-104775000D01*
X119062500Y-101150000D02*
X119062500Y-101917500D01*
X121602500Y-90170000D02*
X122802500Y-91370000D01*
%TO.N,Net-(D15-A)*%
X141852500Y-97410000D02*
X138112500Y-101150000D01*
X138112500Y-101150000D02*
X138112500Y-101917500D01*
X140652500Y-90170000D02*
X141852500Y-91370000D01*
X141852500Y-91370000D02*
X141852500Y-97410000D01*
X138112500Y-101917500D02*
X140970000Y-104775000D01*
%TO.N,Net-(D16-A)*%
X159702500Y-90170000D02*
X160902500Y-91370000D01*
X160902500Y-97410000D02*
X157162500Y-101150000D01*
X157162500Y-101917500D02*
X160020000Y-104775000D01*
X160902500Y-91370000D02*
X160902500Y-97410000D01*
X157162500Y-101150000D02*
X157162500Y-101917500D01*
%TO.N,ROW5*%
X127900000Y-37080000D02*
X126813000Y-38167000D01*
X126813000Y-38167000D02*
X126813000Y-117288000D01*
X126813000Y-117288000D02*
X133350000Y-123825000D01*
%TO.N,Net-(D17-A)*%
X103752500Y-110420000D02*
X103752500Y-116460000D01*
X102552500Y-109220000D02*
X103752500Y-110420000D01*
X103752500Y-116460000D02*
X100012500Y-120200000D01*
%TO.N,Net-(D18-A)*%
X121602500Y-109220000D02*
X122802500Y-110420000D01*
X122802500Y-110420000D02*
X122802500Y-116460000D01*
X119062500Y-120967500D02*
X121920000Y-123825000D01*
X122802500Y-116460000D02*
X119062500Y-120200000D01*
X119062500Y-120200000D02*
X119062500Y-120967500D01*
%TO.N,Net-(D19-A)*%
X141852500Y-116460000D02*
X138112500Y-120200000D01*
X138112500Y-120200000D02*
X138112500Y-120967500D01*
X138112500Y-120967500D02*
X140970000Y-123825000D01*
X141852500Y-110420000D02*
X141852500Y-116460000D01*
X140652500Y-109220000D02*
X141852500Y-110420000D01*
%TO.N,Net-(D20-A)*%
X160902500Y-110420000D02*
X160902500Y-116460000D01*
X160902500Y-116460000D02*
X157162500Y-120200000D01*
X159702500Y-109220000D02*
X160902500Y-110420000D01*
X157162500Y-120200000D02*
X157162500Y-120967500D01*
X157162500Y-120967500D02*
X160020000Y-123825000D01*
%TO.N,ROW6*%
X128197251Y-33300000D02*
X127662749Y-33300000D01*
X128987000Y-38533000D02*
X128987000Y-34089749D01*
X125491332Y-31128583D02*
X125491332Y-27291332D01*
X127662749Y-33300000D02*
X125491332Y-31128583D01*
X125491332Y-27291332D02*
X124905601Y-26705601D01*
X112200000Y-31500000D02*
X112200000Y-140775000D01*
X128987000Y-34089749D02*
X128197251Y-33300000D01*
X124905601Y-26705601D02*
X116994399Y-26705601D01*
X116994399Y-26705601D02*
X112200000Y-31500000D01*
X127900000Y-39620000D02*
X128987000Y-38533000D01*
X112200000Y-140775000D02*
X114300000Y-142875000D01*
%TO.N,Net-(D21-A)*%
X103752500Y-129470000D02*
X103752500Y-135510000D01*
X102552500Y-128270000D02*
X103752500Y-129470000D01*
X101626250Y-139250000D02*
X105251250Y-142875000D01*
X100012500Y-139250000D02*
X101626250Y-139250000D01*
X103752500Y-135510000D02*
X100012500Y-139250000D01*
%TO.N,Net-(D22-A)*%
X121602500Y-128270000D02*
X122802500Y-129470000D01*
X122802500Y-129470000D02*
X122802500Y-135510000D01*
X122802500Y-135510000D02*
X119062500Y-139250000D01*
%TO.N,Net-(D23-A)*%
X141852500Y-129470000D02*
X141852500Y-135510000D01*
X140652500Y-128270000D02*
X141852500Y-129470000D01*
X141852500Y-135510000D02*
X138112500Y-139250000D01*
%TO.N,Net-(D24-A)*%
X161957500Y-145700000D02*
X162242500Y-145415000D01*
X154087500Y-145700000D02*
X161957500Y-145700000D01*
X151262500Y-142875000D02*
X154087500Y-145700000D01*
%TO.N,ROW7*%
X109537500Y-157162500D02*
X111207000Y-155493000D01*
X111207000Y-155493000D02*
X111207000Y-35627000D01*
X111207000Y-35627000D02*
X110120000Y-34540000D01*
%TO.N,Net-(D25-A)*%
X103752500Y-154560000D02*
X100012500Y-158300000D01*
X103752500Y-148520000D02*
X103752500Y-154560000D01*
X105012500Y-146850000D02*
X107705000Y-149542500D01*
X102552500Y-147320000D02*
X103752500Y-148520000D01*
X107705000Y-149542500D02*
X109537500Y-149542500D01*
%TO.N,Net-(D26-A)*%
X122802500Y-148520000D02*
X122802500Y-154560000D01*
X128587500Y-149542500D02*
X126755000Y-149542500D01*
X126755000Y-149542500D02*
X124062500Y-146850000D01*
X121602500Y-147320000D02*
X122802500Y-148520000D01*
X122802500Y-154560000D02*
X119062500Y-158300000D01*
%TO.N,Net-(D27-A)*%
X141852500Y-148520000D02*
X141852500Y-154560000D01*
X141852500Y-154560000D02*
X138112500Y-158300000D01*
X140970000Y-147002500D02*
X140652500Y-147320000D01*
X140652500Y-147320000D02*
X141852500Y-148520000D01*
X140970000Y-142875000D02*
X140970000Y-147002500D01*
%TO.N,COL1*%
X94912500Y-137250000D02*
X96375000Y-138712500D01*
X94912500Y-56287500D02*
X94912500Y-72370000D01*
X94912500Y-37237500D02*
X96375000Y-38700000D01*
X96202500Y-111760000D02*
X96202500Y-116910000D01*
X96375000Y-119662500D02*
X96375000Y-130637500D01*
X96202500Y-130810000D02*
X96202500Y-135960000D01*
X94912500Y-80100000D02*
X96375000Y-81562500D01*
X96375000Y-49675000D02*
X96202500Y-49847500D01*
X96375000Y-130637500D02*
X96202500Y-130810000D01*
X96202500Y-78810000D02*
X94912500Y-80100000D01*
X96375000Y-81562500D02*
X96375000Y-92537500D01*
X96202500Y-135960000D02*
X94912500Y-137250000D01*
X96375000Y-111587500D02*
X96202500Y-111760000D01*
X96202500Y-116910000D02*
X94912500Y-118200000D01*
X96375000Y-100612500D02*
X96375000Y-111587500D01*
X102275000Y-44600000D02*
X105104741Y-44600000D01*
X94912500Y-72370000D02*
X96202500Y-73660000D01*
X96202500Y-149860000D02*
X96202500Y-155010000D01*
X105104741Y-44600000D02*
X107200000Y-42504741D01*
X96202500Y-30797500D02*
X96202500Y-35947500D01*
X107200000Y-42504741D02*
X107200000Y-40000000D01*
X94912500Y-37237500D02*
X102275000Y-44600000D01*
X96375000Y-92537500D02*
X96202500Y-92710000D01*
X96202500Y-155010000D02*
X94912500Y-156300000D01*
X96202500Y-49847500D02*
X96202500Y-54997500D01*
X96375000Y-138712500D02*
X96375000Y-149687500D01*
X96202500Y-35947500D02*
X94912500Y-37237500D01*
X94912500Y-99150000D02*
X96375000Y-100612500D01*
X96202500Y-97860000D02*
X94912500Y-99150000D01*
X96202500Y-73660000D02*
X96202500Y-78810000D01*
X96202500Y-54997500D02*
X94912500Y-56287500D01*
X94912500Y-118200000D02*
X96375000Y-119662500D01*
X96375000Y-149687500D02*
X96202500Y-149860000D01*
X96202500Y-92710000D02*
X96202500Y-97860000D01*
X107200000Y-40000000D02*
X110120000Y-37080000D01*
X96375000Y-38700000D02*
X96375000Y-49675000D01*
%TO.N,COL2*%
X115425000Y-92537500D02*
X115252500Y-92710000D01*
X115252500Y-73660000D02*
X115252500Y-78810000D01*
X113962500Y-56287500D02*
X113962500Y-72370000D01*
X113000000Y-100112500D02*
X113000000Y-109507500D01*
X113962500Y-80100000D02*
X115425000Y-81562500D01*
X115252500Y-149860000D02*
X115252500Y-155010000D01*
X115425000Y-119662500D02*
X115425000Y-130637500D01*
X115252500Y-35947500D02*
X113962500Y-37237500D01*
X115252500Y-49847500D02*
X115252500Y-54997500D01*
X113962500Y-72370000D02*
X115252500Y-73660000D01*
X115252500Y-97860000D02*
X113962500Y-99150000D01*
X115425000Y-149687500D02*
X115252500Y-149860000D01*
X115252500Y-130810000D02*
X115252500Y-135960000D01*
X115252500Y-135960000D02*
X113962500Y-137250000D01*
X115252500Y-54997500D02*
X113962500Y-56287500D01*
X115425000Y-49675000D02*
X115252500Y-49847500D01*
X115252500Y-78810000D02*
X113962500Y-80100000D01*
X115425000Y-38700000D02*
X115425000Y-49675000D01*
X113962500Y-37237500D02*
X115425000Y-38700000D01*
X115425000Y-81562500D02*
X115425000Y-92537500D01*
X115252500Y-116910000D02*
X113962500Y-118200000D01*
X115252500Y-111760000D02*
X115252500Y-116910000D01*
X113000000Y-109507500D02*
X115252500Y-111760000D01*
X115425000Y-130637500D02*
X115252500Y-130810000D01*
X113962500Y-137250000D02*
X115425000Y-138712500D01*
X113962500Y-118200000D02*
X115425000Y-119662500D01*
X115252500Y-30797500D02*
X115252500Y-35947500D01*
X115252500Y-155010000D02*
X113962500Y-156300000D01*
X115425000Y-138712500D02*
X115425000Y-149687500D01*
X113962500Y-99150000D02*
X113000000Y-100112500D01*
X115252500Y-92710000D02*
X115252500Y-97860000D01*
%TO.N,COL3*%
X134302500Y-78810000D02*
X133012500Y-80100000D01*
X134302500Y-35947500D02*
X133012500Y-37237500D01*
X134475000Y-130637500D02*
X134302500Y-130810000D01*
X134475000Y-92537500D02*
X134302500Y-92710000D01*
X133012500Y-80100000D02*
X134475000Y-81562500D01*
X134475000Y-81562500D02*
X134475000Y-92537500D01*
X134475000Y-119662500D02*
X134475000Y-130637500D01*
X134302500Y-73660000D02*
X134302500Y-78810000D01*
X133012500Y-99150000D02*
X134475000Y-100612500D01*
X134302500Y-49847500D02*
X134302500Y-54997500D01*
X134475000Y-100612500D02*
X134475000Y-111587500D01*
X134302500Y-116910000D02*
X133012500Y-118200000D01*
X134475000Y-49675000D02*
X134302500Y-49847500D01*
X133012500Y-37237500D02*
X134475000Y-38700000D01*
X134302500Y-130810000D02*
X134302500Y-135960000D01*
X134302500Y-30797500D02*
X134302500Y-35947500D01*
X133012500Y-137250000D02*
X134475000Y-138712500D01*
X133012500Y-72370000D02*
X134302500Y-73660000D01*
X134302500Y-92710000D02*
X134302500Y-97860000D01*
X134475000Y-138712500D02*
X134475000Y-149687500D01*
X134475000Y-149687500D02*
X134302500Y-149860000D01*
X134302500Y-155010000D02*
X133012500Y-156300000D01*
X133012500Y-56287500D02*
X133012500Y-72370000D01*
X134475000Y-111587500D02*
X134302500Y-111760000D01*
X134302500Y-54997500D02*
X133012500Y-56287500D01*
X134302500Y-149860000D02*
X134302500Y-155010000D01*
X133012500Y-118200000D02*
X134475000Y-119662500D01*
X134302500Y-97860000D02*
X133012500Y-99150000D01*
X134302500Y-135960000D02*
X133012500Y-137250000D01*
X134475000Y-38700000D02*
X134475000Y-49675000D01*
X134302500Y-111760000D02*
X134302500Y-116910000D01*
%TO.N,COL4*%
X153525000Y-111587500D02*
X153352500Y-111760000D01*
X152062500Y-99150000D02*
X153525000Y-100612500D01*
X153352500Y-116910000D02*
X152062500Y-118200000D01*
X153525000Y-100612500D02*
X153525000Y-111587500D01*
X153525000Y-119662500D02*
X153525000Y-137512500D01*
X153352500Y-111760000D02*
X153352500Y-116910000D01*
X153352500Y-78810000D02*
X152062500Y-80100000D01*
X153262500Y-137775000D02*
X154552500Y-139065000D01*
X153352500Y-92710000D02*
X153352500Y-97860000D01*
X153525000Y-49675000D02*
X153352500Y-49847500D01*
X153352500Y-35947500D02*
X152062500Y-37237500D01*
X153352500Y-73660000D02*
X153352500Y-78810000D01*
X152062500Y-118200000D02*
X153525000Y-119662500D01*
X153352500Y-30797500D02*
X153352500Y-35947500D01*
X154552500Y-139065000D02*
X159702500Y-139065000D01*
X152062500Y-80100000D02*
X153525000Y-81562500D01*
X153525000Y-92537500D02*
X153352500Y-92710000D01*
X153352500Y-49847500D02*
X153352500Y-54997500D01*
X153352500Y-97860000D02*
X152062500Y-99150000D01*
X153525000Y-81562500D02*
X153525000Y-92537500D01*
X153352500Y-54997500D02*
X152062500Y-56287500D01*
X153525000Y-38700000D02*
X153525000Y-49675000D01*
X153525000Y-137512500D02*
X153262500Y-137775000D01*
X152062500Y-56287500D02*
X152062500Y-72370000D01*
X152062500Y-37237500D02*
X153525000Y-38700000D01*
X152062500Y-72370000D02*
X153352500Y-73660000D01*
%TD*%
M02*
