%TF.GenerationSoftware,KiCad,Pcbnew,(7.0.0)*%
%TF.CreationDate,2023-04-04T17:59:29+09:00*%
%TF.ProjectId,fric10key,66726963-3130-46b6-9579-2e6b69636164,rev?*%
%TF.SameCoordinates,Original*%
%TF.FileFunction,Legend,Top*%
%TF.FilePolarity,Positive*%
%FSLAX46Y46*%
G04 Gerber Fmt 4.6, Leading zero omitted, Abs format (unit mm)*
G04 Created by KiCad (PCBNEW (7.0.0)) date 2023-04-04 17:59:29*
%MOMM*%
%LPD*%
G01*
G04 APERTURE LIST*
%ADD10C,0.120000*%
G04 APERTURE END LIST*
D10*
%TO.C,D8*%
X153440000Y-42862500D02*
X154090000Y-42862500D01*
X154090000Y-41742500D02*
X154090000Y-43982500D01*
X154090000Y-43982500D02*
X158330000Y-43982500D01*
X154690000Y-41742500D02*
X154690000Y-43982500D01*
X154810000Y-41742500D02*
X154810000Y-43982500D01*
X154930000Y-41742500D02*
X154930000Y-43982500D01*
X158330000Y-41742500D02*
X154090000Y-41742500D01*
X158330000Y-43982500D02*
X158330000Y-41742500D01*
X158980000Y-42862500D02*
X158330000Y-42862500D01*
%TO.C,D21*%
X98671250Y-142875000D02*
X99321250Y-142875000D01*
X99321250Y-141755000D02*
X99321250Y-143995000D01*
X99321250Y-143995000D02*
X103561250Y-143995000D01*
X99921250Y-141755000D02*
X99921250Y-143995000D01*
X100041250Y-141755000D02*
X100041250Y-143995000D01*
X100161250Y-141755000D02*
X100161250Y-143995000D01*
X103561250Y-141755000D02*
X99321250Y-141755000D01*
X103561250Y-143995000D02*
X103561250Y-141755000D01*
X104211250Y-142875000D02*
X103561250Y-142875000D01*
%TO.C,D6*%
X128587500Y-56110000D02*
X128587500Y-55460000D01*
X127467500Y-55460000D02*
X129707500Y-55460000D01*
X129707500Y-55460000D02*
X129707500Y-51220000D01*
X127467500Y-54860000D02*
X129707500Y-54860000D01*
X127467500Y-54740000D02*
X129707500Y-54740000D01*
X127467500Y-54620000D02*
X129707500Y-54620000D01*
X127467500Y-51220000D02*
X127467500Y-55460000D01*
X129707500Y-51220000D02*
X127467500Y-51220000D01*
X128587500Y-50570000D02*
X128587500Y-51220000D01*
%TO.C,D14*%
X115340000Y-104775000D02*
X115990000Y-104775000D01*
X115990000Y-103655000D02*
X115990000Y-105895000D01*
X115990000Y-105895000D02*
X120230000Y-105895000D01*
X116590000Y-103655000D02*
X116590000Y-105895000D01*
X116710000Y-103655000D02*
X116710000Y-105895000D01*
X116830000Y-103655000D02*
X116830000Y-105895000D01*
X120230000Y-103655000D02*
X115990000Y-103655000D01*
X120230000Y-105895000D02*
X120230000Y-103655000D01*
X120880000Y-104775000D02*
X120230000Y-104775000D01*
%TO.C,D13*%
X98671250Y-104775000D02*
X99321250Y-104775000D01*
X99321250Y-103655000D02*
X99321250Y-105895000D01*
X99321250Y-105895000D02*
X103561250Y-105895000D01*
X99921250Y-103655000D02*
X99921250Y-105895000D01*
X100041250Y-103655000D02*
X100041250Y-105895000D01*
X100161250Y-103655000D02*
X100161250Y-105895000D01*
X103561250Y-103655000D02*
X99321250Y-103655000D01*
X103561250Y-105895000D02*
X103561250Y-103655000D01*
X104211250Y-104775000D02*
X103561250Y-104775000D01*
%TO.C,D7*%
X147637500Y-56110000D02*
X147637500Y-55460000D01*
X146517500Y-55460000D02*
X148757500Y-55460000D01*
X148757500Y-55460000D02*
X148757500Y-51220000D01*
X146517500Y-54860000D02*
X148757500Y-54860000D01*
X146517500Y-54740000D02*
X148757500Y-54740000D01*
X146517500Y-54620000D02*
X148757500Y-54620000D01*
X146517500Y-51220000D02*
X146517500Y-55460000D01*
X148757500Y-51220000D02*
X146517500Y-51220000D01*
X147637500Y-50570000D02*
X147637500Y-51220000D01*
%TO.C,D12*%
X153440000Y-85725000D02*
X154090000Y-85725000D01*
X154090000Y-84605000D02*
X154090000Y-86845000D01*
X154090000Y-86845000D02*
X158330000Y-86845000D01*
X154690000Y-84605000D02*
X154690000Y-86845000D01*
X154810000Y-84605000D02*
X154810000Y-86845000D01*
X154930000Y-84605000D02*
X154930000Y-86845000D01*
X158330000Y-84605000D02*
X154090000Y-84605000D01*
X158330000Y-86845000D02*
X158330000Y-84605000D01*
X158980000Y-85725000D02*
X158330000Y-85725000D01*
%TO.C,D5*%
X109537500Y-56110000D02*
X109537500Y-55460000D01*
X108417500Y-55460000D02*
X110657500Y-55460000D01*
X110657500Y-55460000D02*
X110657500Y-51220000D01*
X108417500Y-54860000D02*
X110657500Y-54860000D01*
X108417500Y-54740000D02*
X110657500Y-54740000D01*
X108417500Y-54620000D02*
X110657500Y-54620000D01*
X108417500Y-51220000D02*
X108417500Y-55460000D01*
X110657500Y-51220000D02*
X108417500Y-51220000D01*
X109537500Y-50570000D02*
X109537500Y-51220000D01*
%TO.C,D1*%
X98671250Y-42862500D02*
X99321250Y-42862500D01*
X99321250Y-41742500D02*
X99321250Y-43982500D01*
X99321250Y-43982500D02*
X103561250Y-43982500D01*
X99921250Y-41742500D02*
X99921250Y-43982500D01*
X100041250Y-41742500D02*
X100041250Y-43982500D01*
X100161250Y-41742500D02*
X100161250Y-43982500D01*
X103561250Y-41742500D02*
X99321250Y-41742500D01*
X103561250Y-43982500D02*
X103561250Y-41742500D01*
X104211250Y-42862500D02*
X103561250Y-42862500D01*
%TO.C,D23*%
X128587500Y-137072500D02*
X128587500Y-136422500D01*
X127467500Y-136422500D02*
X129707500Y-136422500D01*
X129707500Y-136422500D02*
X129707500Y-132182500D01*
X127467500Y-135822500D02*
X129707500Y-135822500D01*
X127467500Y-135702500D02*
X129707500Y-135702500D01*
X127467500Y-135582500D02*
X129707500Y-135582500D01*
X127467500Y-132182500D02*
X127467500Y-136422500D01*
X129707500Y-132182500D02*
X127467500Y-132182500D01*
X128587500Y-131532500D02*
X128587500Y-132182500D01*
%TO.C,D26*%
X128587500Y-156122500D02*
X128587500Y-155472500D01*
X127467500Y-155472500D02*
X129707500Y-155472500D01*
X129707500Y-155472500D02*
X129707500Y-151232500D01*
X127467500Y-154872500D02*
X129707500Y-154872500D01*
X127467500Y-154752500D02*
X129707500Y-154752500D01*
X127467500Y-154632500D02*
X129707500Y-154632500D01*
X127467500Y-151232500D02*
X127467500Y-155472500D01*
X129707500Y-151232500D02*
X127467500Y-151232500D01*
X128587500Y-150582500D02*
X128587500Y-151232500D01*
%TO.C,D24*%
X115340000Y-142875000D02*
X115990000Y-142875000D01*
X115990000Y-141755000D02*
X115990000Y-143995000D01*
X115990000Y-143995000D02*
X120230000Y-143995000D01*
X116590000Y-141755000D02*
X116590000Y-143995000D01*
X116710000Y-141755000D02*
X116710000Y-143995000D01*
X116830000Y-141755000D02*
X116830000Y-143995000D01*
X120230000Y-141755000D02*
X115990000Y-141755000D01*
X120230000Y-143995000D02*
X120230000Y-141755000D01*
X120880000Y-142875000D02*
X120230000Y-142875000D01*
%TO.C,D3*%
X134390000Y-42862500D02*
X135040000Y-42862500D01*
X135040000Y-41742500D02*
X135040000Y-43982500D01*
X135040000Y-43982500D02*
X139280000Y-43982500D01*
X135640000Y-41742500D02*
X135640000Y-43982500D01*
X135760000Y-41742500D02*
X135760000Y-43982500D01*
X135880000Y-41742500D02*
X135880000Y-43982500D01*
X139280000Y-41742500D02*
X135040000Y-41742500D01*
X139280000Y-43982500D02*
X139280000Y-41742500D01*
X139930000Y-42862500D02*
X139280000Y-42862500D01*
%TO.C,D22*%
X109537500Y-137072500D02*
X109537500Y-136422500D01*
X108417500Y-136422500D02*
X110657500Y-136422500D01*
X110657500Y-136422500D02*
X110657500Y-132182500D01*
X108417500Y-135822500D02*
X110657500Y-135822500D01*
X108417500Y-135702500D02*
X110657500Y-135702500D01*
X108417500Y-135582500D02*
X110657500Y-135582500D01*
X108417500Y-132182500D02*
X108417500Y-136422500D01*
X110657500Y-132182500D02*
X108417500Y-132182500D01*
X109537500Y-131532500D02*
X109537500Y-132182500D01*
%TO.C,D11*%
X134390000Y-85725000D02*
X135040000Y-85725000D01*
X135040000Y-84605000D02*
X135040000Y-86845000D01*
X135040000Y-86845000D02*
X139280000Y-86845000D01*
X135640000Y-84605000D02*
X135640000Y-86845000D01*
X135760000Y-84605000D02*
X135760000Y-86845000D01*
X135880000Y-84605000D02*
X135880000Y-86845000D01*
X139280000Y-84605000D02*
X135040000Y-84605000D01*
X139280000Y-86845000D02*
X139280000Y-84605000D01*
X139930000Y-85725000D02*
X139280000Y-85725000D01*
%TO.C,D4*%
X147637500Y-37060000D02*
X147637500Y-36410000D01*
X146517500Y-36410000D02*
X148757500Y-36410000D01*
X148757500Y-36410000D02*
X148757500Y-32170000D01*
X146517500Y-35810000D02*
X148757500Y-35810000D01*
X146517500Y-35690000D02*
X148757500Y-35690000D01*
X146517500Y-35570000D02*
X148757500Y-35570000D01*
X146517500Y-32170000D02*
X146517500Y-36410000D01*
X148757500Y-32170000D02*
X146517500Y-32170000D01*
X147637500Y-31520000D02*
X147637500Y-32170000D01*
%TO.C,D17*%
X98671250Y-123825000D02*
X99321250Y-123825000D01*
X99321250Y-122705000D02*
X99321250Y-124945000D01*
X99321250Y-124945000D02*
X103561250Y-124945000D01*
X99921250Y-122705000D02*
X99921250Y-124945000D01*
X100041250Y-122705000D02*
X100041250Y-124945000D01*
X100161250Y-122705000D02*
X100161250Y-124945000D01*
X103561250Y-122705000D02*
X99321250Y-122705000D01*
X103561250Y-124945000D02*
X103561250Y-122705000D01*
X104211250Y-123825000D02*
X103561250Y-123825000D01*
%TO.C,D20*%
X153440000Y-123825000D02*
X154090000Y-123825000D01*
X154090000Y-122705000D02*
X154090000Y-124945000D01*
X154090000Y-124945000D02*
X158330000Y-124945000D01*
X154690000Y-122705000D02*
X154690000Y-124945000D01*
X154810000Y-122705000D02*
X154810000Y-124945000D01*
X154930000Y-122705000D02*
X154930000Y-124945000D01*
X158330000Y-122705000D02*
X154090000Y-122705000D01*
X158330000Y-124945000D02*
X158330000Y-122705000D01*
X158980000Y-123825000D02*
X158330000Y-123825000D01*
%TO.C,D19*%
X134390000Y-123825000D02*
X135040000Y-123825000D01*
X135040000Y-122705000D02*
X135040000Y-124945000D01*
X135040000Y-124945000D02*
X139280000Y-124945000D01*
X135640000Y-122705000D02*
X135640000Y-124945000D01*
X135760000Y-122705000D02*
X135760000Y-124945000D01*
X135880000Y-122705000D02*
X135880000Y-124945000D01*
X139280000Y-122705000D02*
X135040000Y-122705000D01*
X139280000Y-124945000D02*
X139280000Y-122705000D01*
X139930000Y-123825000D02*
X139280000Y-123825000D01*
%TO.C,D9*%
X98671250Y-85725000D02*
X99321250Y-85725000D01*
X99321250Y-84605000D02*
X99321250Y-86845000D01*
X99321250Y-86845000D02*
X103561250Y-86845000D01*
X99921250Y-84605000D02*
X99921250Y-86845000D01*
X100041250Y-84605000D02*
X100041250Y-86845000D01*
X100161250Y-84605000D02*
X100161250Y-86845000D01*
X103561250Y-84605000D02*
X99321250Y-84605000D01*
X103561250Y-86845000D02*
X103561250Y-84605000D01*
X104211250Y-85725000D02*
X103561250Y-85725000D01*
%TO.C,D25*%
X109537500Y-156122500D02*
X109537500Y-155472500D01*
X108417500Y-155472500D02*
X110657500Y-155472500D01*
X110657500Y-155472500D02*
X110657500Y-151232500D01*
X108417500Y-154872500D02*
X110657500Y-154872500D01*
X108417500Y-154752500D02*
X110657500Y-154752500D01*
X108417500Y-154632500D02*
X110657500Y-154632500D01*
X108417500Y-151232500D02*
X108417500Y-155472500D01*
X110657500Y-151232500D02*
X108417500Y-151232500D01*
X109537500Y-150582500D02*
X109537500Y-151232500D01*
%TO.C,D10*%
X115340000Y-85725000D02*
X115990000Y-85725000D01*
X115990000Y-84605000D02*
X115990000Y-86845000D01*
X115990000Y-86845000D02*
X120230000Y-86845000D01*
X116590000Y-84605000D02*
X116590000Y-86845000D01*
X116710000Y-84605000D02*
X116710000Y-86845000D01*
X116830000Y-84605000D02*
X116830000Y-86845000D01*
X120230000Y-84605000D02*
X115990000Y-84605000D01*
X120230000Y-86845000D02*
X120230000Y-84605000D01*
X120880000Y-85725000D02*
X120230000Y-85725000D01*
%TO.C,D15*%
X134390000Y-104775000D02*
X135040000Y-104775000D01*
X135040000Y-103655000D02*
X135040000Y-105895000D01*
X135040000Y-105895000D02*
X139280000Y-105895000D01*
X135640000Y-103655000D02*
X135640000Y-105895000D01*
X135760000Y-103655000D02*
X135760000Y-105895000D01*
X135880000Y-103655000D02*
X135880000Y-105895000D01*
X139280000Y-103655000D02*
X135040000Y-103655000D01*
X139280000Y-105895000D02*
X139280000Y-103655000D01*
X139930000Y-104775000D02*
X139280000Y-104775000D01*
%TO.C,D27*%
X134390000Y-142875000D02*
X135040000Y-142875000D01*
X135040000Y-141755000D02*
X135040000Y-143995000D01*
X135040000Y-143995000D02*
X139280000Y-143995000D01*
X135640000Y-141755000D02*
X135640000Y-143995000D01*
X135760000Y-141755000D02*
X135760000Y-143995000D01*
X135880000Y-141755000D02*
X135880000Y-143995000D01*
X139280000Y-141755000D02*
X135040000Y-141755000D01*
X139280000Y-143995000D02*
X139280000Y-141755000D01*
X139930000Y-142875000D02*
X139280000Y-142875000D01*
%TO.C,D16*%
X153440000Y-104775000D02*
X154090000Y-104775000D01*
X154090000Y-103655000D02*
X154090000Y-105895000D01*
X154090000Y-105895000D02*
X158330000Y-105895000D01*
X154690000Y-103655000D02*
X154690000Y-105895000D01*
X154810000Y-103655000D02*
X154810000Y-105895000D01*
X154930000Y-103655000D02*
X154930000Y-105895000D01*
X158330000Y-103655000D02*
X154090000Y-103655000D01*
X158330000Y-105895000D02*
X158330000Y-103655000D01*
X158980000Y-104775000D02*
X158330000Y-104775000D01*
%TO.C,D2*%
X115340000Y-42862500D02*
X115990000Y-42862500D01*
X115990000Y-41742500D02*
X115990000Y-43982500D01*
X115990000Y-43982500D02*
X120230000Y-43982500D01*
X116590000Y-41742500D02*
X116590000Y-43982500D01*
X116710000Y-41742500D02*
X116710000Y-43982500D01*
X116830000Y-41742500D02*
X116830000Y-43982500D01*
X120230000Y-41742500D02*
X115990000Y-41742500D01*
X120230000Y-43982500D02*
X120230000Y-41742500D01*
X120880000Y-42862500D02*
X120230000Y-42862500D01*
%TO.C,D18*%
X115340000Y-123825000D02*
X115990000Y-123825000D01*
X115990000Y-122705000D02*
X115990000Y-124945000D01*
X115990000Y-124945000D02*
X120230000Y-124945000D01*
X116590000Y-122705000D02*
X116590000Y-124945000D01*
X116710000Y-122705000D02*
X116710000Y-124945000D01*
X116830000Y-122705000D02*
X116830000Y-124945000D01*
X120230000Y-122705000D02*
X115990000Y-122705000D01*
X120230000Y-124945000D02*
X120230000Y-122705000D01*
X120880000Y-123825000D02*
X120230000Y-123825000D01*
%TD*%
M02*
