M48
; DRILL file {KiCad (7.0.0)} date Tue Apr  4 17:59:33 2023
; FORMAT={-:-/ absolute / inch / decimal}
; #@! TF.CreationDate,2023-04-04T17:59:33+09:00
; #@! TF.GenerationSoftware,Kicad,Pcbnew,(7.0.0)
; #@! TF.FileFunction,NonPlated,1,2,NPTH
FMAT,2
INCH
; #@! TA.AperFunction,NonPlated,NPTH,ComponentDrill
T1C0.0669
; #@! TA.AperFunction,NonPlated,NPTH,ComponentDrill
T2C0.0709
; #@! TA.AperFunction,NonPlated,NPTH,ComponentDrill
T3C0.0866
; #@! TA.AperFunction,NonPlated,NPTH,ComponentDrill
T4C0.1201
; #@! TA.AperFunction,NonPlated,NPTH,ComponentDrill
T5C0.1575
; #@! TA.AperFunction,NonPlated,NPTH,ComponentDrill
T6C0.1929
%
G90
G05
T1
X3.7375Y-1.3125
X3.7375Y-2.0625
X3.7375Y-3.0
X3.7375Y-3.75
X3.7375Y-4.5
X3.7375Y-5.25
X3.7375Y-6.0
X4.1375Y-1.3125
X4.1375Y-2.0625
X4.1375Y-3.0
X4.1375Y-3.75
X4.1375Y-4.5
X4.1375Y-5.25
X4.1375Y-6.0
X4.4875Y-1.3125
X4.4875Y-2.0625
X4.4875Y-3.0
X4.4875Y-3.75
X4.4875Y-4.5
X4.4875Y-5.25
X4.4875Y-6.0
X4.8875Y-1.3125
X4.8875Y-2.0625
X4.8875Y-3.0
X4.8875Y-3.75
X4.8875Y-4.5
X4.8875Y-5.25
X4.8875Y-6.0
X5.2375Y-1.3125
X5.2375Y-2.0625
X5.2375Y-3.0
X5.2375Y-3.75
X5.2375Y-4.5
X5.2375Y-5.25
X5.2375Y-6.0
X5.6375Y-1.3125
X5.6375Y-2.0625
X5.6375Y-3.0
X5.6375Y-3.75
X5.6375Y-4.5
X5.6375Y-5.25
X5.6375Y-6.0
X5.9875Y-1.3125
X5.9875Y-2.0625
X5.9875Y-3.0
X5.9875Y-3.75
X5.9875Y-4.5
X6.1875Y-5.425
X6.1875Y-5.825
X6.3875Y-1.3125
X6.3875Y-2.0625
X6.3875Y-3.0
X6.3875Y-3.75
X6.3875Y-4.5
T2
X3.721Y-1.3125
X3.721Y-2.0625
X3.721Y-3.0
X3.721Y-3.75
X3.721Y-4.5
X3.721Y-5.25
X3.721Y-6.0
X4.154Y-1.3125
X4.154Y-2.0625
X4.154Y-3.0
X4.154Y-3.75
X4.154Y-4.5
X4.154Y-5.25
X4.154Y-6.0
X4.471Y-1.3125
X4.471Y-2.0625
X4.471Y-3.0
X4.471Y-3.75
X4.471Y-4.5
X4.471Y-5.25
X4.471Y-6.0
X4.904Y-1.3125
X4.904Y-2.0625
X4.904Y-3.0
X4.904Y-3.75
X4.904Y-4.5
X4.904Y-5.25
X4.904Y-6.0
X5.221Y-1.3125
X5.221Y-2.0625
X5.221Y-3.0
X5.221Y-3.75
X5.221Y-4.5
X5.221Y-5.25
X5.221Y-6.0
X5.654Y-1.3125
X5.654Y-2.0625
X5.654Y-3.0
X5.654Y-3.75
X5.654Y-4.5
X5.654Y-5.25
X5.654Y-6.0
X5.971Y-1.3125
X5.971Y-2.0625
X5.971Y-3.0
X5.971Y-3.75
X5.971Y-4.5
X6.1875Y-5.4085
X6.1875Y-5.8415
X6.404Y-1.3125
X6.404Y-2.0625
X6.404Y-3.0
X6.404Y-3.75
X6.404Y-4.5
T3
X3.6562Y-1.6875
X3.6562Y-3.375
X3.6562Y-5.625
X5.0625Y-3.375
X5.7188Y-5.625
X6.4688Y-1.6875
X6.4688Y-3.375
X6.4688Y-4.875
T4
X6.4631Y-5.1565
X6.4631Y-6.0935
T5
X5.8631Y-5.1565
X5.8631Y-6.0935
T6
X3.9375Y-1.3125
X3.9375Y-2.0625
X3.9375Y-3.0
X3.9375Y-3.75
X3.9375Y-4.5
X3.9375Y-5.25
X3.9375Y-6.0
X4.6875Y-1.3125
X4.6875Y-2.0625
X4.6875Y-3.0
X4.6875Y-3.75
X4.6875Y-4.5
X4.6875Y-5.25
X4.6875Y-6.0
X5.4375Y-1.3125
X5.4375Y-2.0625
X5.4375Y-3.0
X5.4375Y-3.75
X5.4375Y-4.5
X5.4375Y-5.25
X5.4375Y-6.0
X6.1875Y-1.3125
X6.1875Y-2.0625
X6.1875Y-3.0
X6.1875Y-3.75
X6.1875Y-4.5
X6.1875Y-5.625
T0
M30
