%TF.GenerationSoftware,KiCad,Pcbnew,(7.0.0)*%
%TF.CreationDate,2023-04-04T17:59:29+09:00*%
%TF.ProjectId,fric10key,66726963-3130-46b6-9579-2e6b69636164,rev?*%
%TF.SameCoordinates,Original*%
%TF.FileFunction,Copper,L2,Bot*%
%TF.FilePolarity,Positive*%
%FSLAX46Y46*%
G04 Gerber Fmt 4.6, Leading zero omitted, Abs format (unit mm)*
G04 Created by KiCad (PCBNEW (7.0.0)) date 2023-04-04 17:59:29*
%MOMM*%
%LPD*%
G01*
G04 APERTURE LIST*
G04 Aperture macros list*
%AMHorizOval*
0 Thick line with rounded ends*
0 $1 width*
0 $2 $3 position (X,Y) of the first rounded end (center of the circle)*
0 $4 $5 position (X,Y) of the second rounded end (center of the circle)*
0 Add line between two ends*
20,1,$1,$2,$3,$4,$5,0*
0 Add two circle primitives to create the rounded ends*
1,1,$1,$2,$3*
1,1,$1,$4,$5*%
G04 Aperture macros list end*
%TA.AperFunction,ComponentPad*%
%ADD10R,1.600000X1.600000*%
%TD*%
%TA.AperFunction,ComponentPad*%
%ADD11O,1.600000X1.600000*%
%TD*%
%TA.AperFunction,ComponentPad*%
%ADD12O,2.200000X1.600000*%
%TD*%
%TA.AperFunction,ComponentPad*%
%ADD13C,2.400000*%
%TD*%
%TA.AperFunction,ComponentPad*%
%ADD14O,2.200000X1.500000*%
%TD*%
%TA.AperFunction,ComponentPad*%
%ADD15HorizOval,1.500000X1.449945X0.012653X-1.449945X-0.012653X0*%
%TD*%
%TA.AperFunction,ComponentPad*%
%ADD16O,1.600000X2.200000*%
%TD*%
%TA.AperFunction,ComponentPad*%
%ADD17O,1.500000X2.200000*%
%TD*%
%TA.AperFunction,ComponentPad*%
%ADD18HorizOval,1.500000X0.012653X-1.449945X-0.012653X1.449945X0*%
%TD*%
%TA.AperFunction,ComponentPad*%
%ADD19C,1.524000*%
%TD*%
%TA.AperFunction,Conductor*%
%ADD20C,0.250000*%
%TD*%
G04 APERTURE END LIST*
D10*
%TO.P,D8,1,K*%
%TO.N,ROW2*%
X152399999Y-42862499D03*
D11*
%TO.P,D8,2,A*%
%TO.N,Net-(D8-A)*%
X160019999Y-42862499D03*
%TD*%
D12*
%TO.P,SW23,1,1*%
%TO.N,COL3*%
X133012499Y-137249999D03*
D13*
X134302500Y-130810000D03*
D14*
%TO.P,SW23,2,2*%
%TO.N,Net-(D23-A)*%
X138112499Y-139249999D03*
D13*
X140652500Y-128270000D03*
D15*
X142012541Y-127809598D03*
%TD*%
D12*
%TO.P,SW4,1,1*%
%TO.N,COL4*%
X152062499Y-37237499D03*
D13*
X153352500Y-30797500D03*
D14*
%TO.P,SW4,2,2*%
%TO.N,Net-(D4-A)*%
X157162499Y-39237499D03*
D13*
X159702500Y-28257500D03*
D15*
X161062541Y-27797098D03*
%TD*%
D10*
%TO.P,D21,1,K*%
%TO.N,ROW6*%
X97631249Y-142874999D03*
D11*
%TO.P,D21,2,A*%
%TO.N,Net-(D21-A)*%
X105251249Y-142874999D03*
%TD*%
D12*
%TO.P,SW26,1,1*%
%TO.N,COL2*%
X113962499Y-156299999D03*
D13*
X115252500Y-149860000D03*
D14*
%TO.P,SW26,2,2*%
%TO.N,Net-(D26-A)*%
X119062499Y-158299999D03*
D13*
X121602500Y-147320000D03*
D15*
X122962541Y-146859598D03*
%TD*%
D10*
%TO.P,D6,1,K*%
%TO.N,ROW2*%
X128587499Y-57149999D03*
D11*
%TO.P,D6,2,A*%
%TO.N,Net-(D6-A)*%
X128587499Y-49529999D03*
%TD*%
D10*
%TO.P,D14,1,K*%
%TO.N,ROW4*%
X114299999Y-104774999D03*
D11*
%TO.P,D14,2,A*%
%TO.N,Net-(D14-A)*%
X121919999Y-104774999D03*
%TD*%
D10*
%TO.P,D13,1,K*%
%TO.N,ROW4*%
X97631249Y-104774999D03*
D11*
%TO.P,D13,2,A*%
%TO.N,Net-(D13-A)*%
X105251249Y-104774999D03*
%TD*%
D12*
%TO.P,SW19,1,1*%
%TO.N,COL3*%
X133012499Y-118199999D03*
D13*
X134302500Y-111760000D03*
D14*
%TO.P,SW19,2,2*%
%TO.N,Net-(D19-A)*%
X138112499Y-120199999D03*
D13*
X140652500Y-109220000D03*
D15*
X142012541Y-108759598D03*
%TD*%
D12*
%TO.P,SW14,1,1*%
%TO.N,COL2*%
X113962499Y-99149999D03*
D13*
X115252500Y-92710000D03*
D14*
%TO.P,SW14,2,2*%
%TO.N,Net-(D14-A)*%
X119062499Y-101149999D03*
D13*
X121602500Y-90170000D03*
D15*
X122962541Y-89709598D03*
%TD*%
D10*
%TO.P,D7,1,K*%
%TO.N,ROW2*%
X147637499Y-57149999D03*
D11*
%TO.P,D7,2,A*%
%TO.N,Net-(D7-A)*%
X147637499Y-49529999D03*
%TD*%
D12*
%TO.P,SW2,1,1*%
%TO.N,COL2*%
X113962499Y-37237499D03*
D13*
X115252500Y-30797500D03*
D14*
%TO.P,SW2,2,2*%
%TO.N,Net-(D2-A)*%
X119062499Y-39237499D03*
D13*
X121602500Y-28257500D03*
D15*
X122962541Y-27797098D03*
%TD*%
D12*
%TO.P,SW16,1,1*%
%TO.N,COL4*%
X152062499Y-99149999D03*
D13*
X153352500Y-92710000D03*
D14*
%TO.P,SW16,2,2*%
%TO.N,Net-(D16-A)*%
X157162499Y-101149999D03*
D13*
X159702500Y-90170000D03*
D15*
X161062541Y-89709598D03*
%TD*%
D16*
%TO.P,SW24,1,1*%
%TO.N,COL4*%
X153262499Y-137774999D03*
D13*
X159702500Y-139065000D03*
D17*
%TO.P,SW24,2,2*%
%TO.N,Net-(D24-A)*%
X151262499Y-142874999D03*
D13*
X162242500Y-145415000D03*
D18*
X162702900Y-146775041D03*
%TD*%
D10*
%TO.P,D12,1,K*%
%TO.N,ROW3*%
X152399999Y-85724999D03*
D11*
%TO.P,D12,2,A*%
%TO.N,Net-(D12-A)*%
X160019999Y-85724999D03*
%TD*%
D12*
%TO.P,SW20,1,1*%
%TO.N,COL4*%
X152062499Y-118199999D03*
D13*
X153352500Y-111760000D03*
D14*
%TO.P,SW20,2,2*%
%TO.N,Net-(D20-A)*%
X157162499Y-120199999D03*
D13*
X159702500Y-109220000D03*
D15*
X161062541Y-108759598D03*
%TD*%
D12*
%TO.P,SW3,1,1*%
%TO.N,COL3*%
X133012499Y-37237499D03*
D13*
X134302500Y-30797500D03*
D14*
%TO.P,SW3,2,2*%
%TO.N,Net-(D3-A)*%
X138112499Y-39237499D03*
D13*
X140652500Y-28257500D03*
D15*
X142012541Y-27797098D03*
%TD*%
D10*
%TO.P,D5,1,K*%
%TO.N,ROW2*%
X109537499Y-57149999D03*
D11*
%TO.P,D5,2,A*%
%TO.N,Net-(D5-A)*%
X109537499Y-49529999D03*
%TD*%
D12*
%TO.P,SW12,1,1*%
%TO.N,COL4*%
X152062499Y-80099999D03*
D13*
X153352500Y-73660000D03*
D14*
%TO.P,SW12,2,2*%
%TO.N,Net-(D12-A)*%
X157162499Y-82099999D03*
D13*
X159702500Y-71120000D03*
D15*
X161062541Y-70659598D03*
%TD*%
D12*
%TO.P,SW10,1,1*%
%TO.N,COL2*%
X113962499Y-80099999D03*
D13*
X115252500Y-73660000D03*
D14*
%TO.P,SW10,2,2*%
%TO.N,Net-(D10-A)*%
X119062499Y-82099999D03*
D13*
X121602500Y-71120000D03*
D15*
X122962541Y-70659598D03*
%TD*%
D10*
%TO.P,D1,1,K*%
%TO.N,ROW1*%
X97631249Y-42862499D03*
D11*
%TO.P,D1,2,A*%
%TO.N,Net-(D1-A)*%
X105251249Y-42862499D03*
%TD*%
D10*
%TO.P,D23,1,K*%
%TO.N,ROW6*%
X128587499Y-138112499D03*
D11*
%TO.P,D23,2,A*%
%TO.N,Net-(D23-A)*%
X128587499Y-130492499D03*
%TD*%
D10*
%TO.P,D26,1,K*%
%TO.N,ROW7*%
X128587499Y-157162499D03*
D11*
%TO.P,D26,2,A*%
%TO.N,Net-(D26-A)*%
X128587499Y-149542499D03*
%TD*%
D10*
%TO.P,D24,1,K*%
%TO.N,ROW6*%
X114299999Y-142874999D03*
D11*
%TO.P,D24,2,A*%
%TO.N,Net-(D24-A)*%
X121919999Y-142874999D03*
%TD*%
D10*
%TO.P,D3,1,K*%
%TO.N,ROW1*%
X133349999Y-42862499D03*
D11*
%TO.P,D3,2,A*%
%TO.N,Net-(D3-A)*%
X140969999Y-42862499D03*
%TD*%
D12*
%TO.P,SW1,1,1*%
%TO.N,COL1*%
X94912499Y-37237499D03*
D13*
X96202500Y-30797500D03*
D14*
%TO.P,SW1,2,2*%
%TO.N,Net-(D1-A)*%
X100012499Y-39237499D03*
D13*
X102552500Y-28257500D03*
D15*
X103912541Y-27797098D03*
%TD*%
D10*
%TO.P,D22,1,K*%
%TO.N,ROW6*%
X109537499Y-138112499D03*
D11*
%TO.P,D22,2,A*%
%TO.N,Net-(D22-A)*%
X109537499Y-130492499D03*
%TD*%
D12*
%TO.P,SW9,1,1*%
%TO.N,COL1*%
X94912499Y-80099999D03*
D13*
X96202500Y-73660000D03*
D14*
%TO.P,SW9,2,2*%
%TO.N,Net-(D9-A)*%
X100012499Y-82099999D03*
D13*
X102552500Y-71120000D03*
D15*
X103912541Y-70659598D03*
%TD*%
D10*
%TO.P,D11,1,K*%
%TO.N,ROW3*%
X133349999Y-85724999D03*
D11*
%TO.P,D11,2,A*%
%TO.N,Net-(D11-A)*%
X140969999Y-85724999D03*
%TD*%
D10*
%TO.P,D4,1,K*%
%TO.N,ROW1*%
X147637499Y-38099999D03*
D11*
%TO.P,D4,2,A*%
%TO.N,Net-(D4-A)*%
X147637499Y-30479999D03*
%TD*%
D10*
%TO.P,D17,1,K*%
%TO.N,ROW5*%
X97631249Y-123824999D03*
D11*
%TO.P,D17,2,A*%
%TO.N,Net-(D17-A)*%
X105251249Y-123824999D03*
%TD*%
D12*
%TO.P,SW27,1,1*%
%TO.N,COL3*%
X133012499Y-156299999D03*
D13*
X134302500Y-149860000D03*
D14*
%TO.P,SW27,2,2*%
%TO.N,Net-(D27-A)*%
X138112499Y-158299999D03*
D13*
X140652500Y-147320000D03*
D15*
X142012541Y-146859598D03*
%TD*%
D12*
%TO.P,SW18,1,1*%
%TO.N,COL2*%
X113962499Y-118199999D03*
D13*
X115252500Y-111760000D03*
D14*
%TO.P,SW18,2,2*%
%TO.N,Net-(D18-A)*%
X119062499Y-120199999D03*
D13*
X121602500Y-109220000D03*
D15*
X122962541Y-108759598D03*
%TD*%
D12*
%TO.P,SW11,1,1*%
%TO.N,COL3*%
X133012499Y-80099999D03*
D13*
X134302500Y-73660000D03*
D14*
%TO.P,SW11,2,2*%
%TO.N,Net-(D11-A)*%
X138112499Y-82099999D03*
D13*
X140652500Y-71120000D03*
D15*
X142012541Y-70659598D03*
%TD*%
D10*
%TO.P,D20,1,K*%
%TO.N,ROW5*%
X152399999Y-123824999D03*
D11*
%TO.P,D20,2,A*%
%TO.N,Net-(D20-A)*%
X160019999Y-123824999D03*
%TD*%
D12*
%TO.P,SW25,1,1*%
%TO.N,COL1*%
X94912499Y-156299999D03*
D13*
X96202500Y-149860000D03*
D14*
%TO.P,SW25,2,2*%
%TO.N,Net-(D25-A)*%
X100012499Y-158299999D03*
D13*
X102552500Y-147320000D03*
D15*
X103912541Y-146859598D03*
%TD*%
D12*
%TO.P,SW6,1,1*%
%TO.N,COL2*%
X113962499Y-56287499D03*
D13*
X115252500Y-49847500D03*
D14*
%TO.P,SW6,2,2*%
%TO.N,Net-(D6-A)*%
X119062499Y-58287499D03*
D13*
X121602500Y-47307500D03*
D15*
X122962541Y-46847098D03*
%TD*%
D12*
%TO.P,SW15,1,1*%
%TO.N,COL3*%
X133012499Y-99149999D03*
D13*
X134302500Y-92710000D03*
D14*
%TO.P,SW15,2,2*%
%TO.N,Net-(D15-A)*%
X138112499Y-101149999D03*
D13*
X140652500Y-90170000D03*
D15*
X142012541Y-89709598D03*
%TD*%
D12*
%TO.P,SW5,1,1*%
%TO.N,COL1*%
X94912499Y-56287499D03*
D13*
X96202500Y-49847500D03*
D14*
%TO.P,SW5,2,2*%
%TO.N,Net-(D5-A)*%
X100012499Y-58287499D03*
D13*
X102552500Y-47307500D03*
D15*
X103912541Y-46847098D03*
%TD*%
D12*
%TO.P,SW22,1,1*%
%TO.N,COL2*%
X113962499Y-137249999D03*
D13*
X115252500Y-130810000D03*
D14*
%TO.P,SW22,2,2*%
%TO.N,Net-(D22-A)*%
X119062499Y-139249999D03*
D13*
X121602500Y-128270000D03*
D15*
X122962541Y-127809598D03*
%TD*%
D12*
%TO.P,SW17,1,1*%
%TO.N,COL1*%
X94912499Y-118199999D03*
D13*
X96202500Y-111760000D03*
D14*
%TO.P,SW17,2,2*%
%TO.N,Net-(D17-A)*%
X100012499Y-120199999D03*
D13*
X102552500Y-109220000D03*
D15*
X103912541Y-108759598D03*
%TD*%
D10*
%TO.P,D19,1,K*%
%TO.N,ROW5*%
X133349999Y-123824999D03*
D11*
%TO.P,D19,2,A*%
%TO.N,Net-(D19-A)*%
X140969999Y-123824999D03*
%TD*%
D10*
%TO.P,D9,1,K*%
%TO.N,ROW3*%
X97631249Y-85724999D03*
D11*
%TO.P,D9,2,A*%
%TO.N,Net-(D9-A)*%
X105251249Y-85724999D03*
%TD*%
D10*
%TO.P,D25,1,K*%
%TO.N,ROW7*%
X109537499Y-157162499D03*
D11*
%TO.P,D25,2,A*%
%TO.N,Net-(D25-A)*%
X109537499Y-149542499D03*
%TD*%
D10*
%TO.P,D10,1,K*%
%TO.N,ROW3*%
X114299999Y-85724999D03*
D11*
%TO.P,D10,2,A*%
%TO.N,Net-(D10-A)*%
X121919999Y-85724999D03*
%TD*%
D10*
%TO.P,D15,1,K*%
%TO.N,ROW4*%
X133349999Y-104774999D03*
D11*
%TO.P,D15,2,A*%
%TO.N,Net-(D15-A)*%
X140969999Y-104774999D03*
%TD*%
D12*
%TO.P,SW13,1,1*%
%TO.N,COL1*%
X94912499Y-99149999D03*
D13*
X96202500Y-92710000D03*
D14*
%TO.P,SW13,2,2*%
%TO.N,Net-(D13-A)*%
X100012499Y-101149999D03*
D13*
X102552500Y-90170000D03*
D15*
X103912541Y-89709598D03*
%TD*%
D10*
%TO.P,D27,1,K*%
%TO.N,ROW7*%
X133349999Y-142874999D03*
D11*
%TO.P,D27,2,A*%
%TO.N,Net-(D27-A)*%
X140969999Y-142874999D03*
%TD*%
D12*
%TO.P,SW7,1,1*%
%TO.N,COL3*%
X133012499Y-56287499D03*
D13*
X134302500Y-49847500D03*
D14*
%TO.P,SW7,2,2*%
%TO.N,Net-(D7-A)*%
X138112499Y-58287499D03*
D13*
X140652500Y-47307500D03*
D15*
X142012541Y-46847098D03*
%TD*%
D10*
%TO.P,D16,1,K*%
%TO.N,ROW4*%
X152399999Y-104774999D03*
D11*
%TO.P,D16,2,A*%
%TO.N,Net-(D16-A)*%
X160019999Y-104774999D03*
%TD*%
D10*
%TO.P,D2,1,K*%
%TO.N,ROW1*%
X114299999Y-42862499D03*
D11*
%TO.P,D2,2,A*%
%TO.N,Net-(D2-A)*%
X121919999Y-42862499D03*
%TD*%
D12*
%TO.P,SW8,1,1*%
%TO.N,COL4*%
X152062499Y-56287499D03*
D13*
X153352500Y-49847500D03*
D14*
%TO.P,SW8,2,2*%
%TO.N,Net-(D8-A)*%
X157162499Y-58287499D03*
D13*
X159702500Y-47307500D03*
D15*
X161062541Y-46847098D03*
%TD*%
D12*
%TO.P,SW21,1,1*%
%TO.N,COL1*%
X94912499Y-137249999D03*
D13*
X96202500Y-130810000D03*
D14*
%TO.P,SW21,2,2*%
%TO.N,Net-(D21-A)*%
X100012499Y-139249999D03*
D13*
X102552500Y-128270000D03*
D15*
X103912541Y-127809598D03*
%TD*%
D10*
%TO.P,D18,1,K*%
%TO.N,ROW5*%
X114299999Y-123824999D03*
D11*
%TO.P,D18,2,A*%
%TO.N,Net-(D18-A)*%
X121919999Y-123824999D03*
%TD*%
D19*
%TO.P,U1,1,PA02_A0_D0*%
%TO.N,ROW1*%
X127900000Y-26920000D03*
%TO.P,U1,2,PA4_A1_D1*%
%TO.N,ROW2*%
X127900000Y-29460000D03*
%TO.P,U1,3,PA10_A2_D2*%
%TO.N,ROW3*%
X127900000Y-32000000D03*
%TO.P,U1,4,PA11_A3_D3*%
%TO.N,ROW4*%
X127900000Y-34540000D03*
%TO.P,U1,5,PA8_A4_D4_SDA*%
%TO.N,ROW5*%
X127900000Y-37080000D03*
%TO.P,U1,6,PA9_A5_D5_SCL*%
%TO.N,ROW6*%
X127900000Y-39620000D03*
%TO.P,U1,7,PB08_A6_D6_TX*%
%TO.N,COL4*%
X127900000Y-42160000D03*
%TO.P,U1,8,PB09_A7_D7_RX*%
%TO.N,COL3*%
X110120000Y-42160000D03*
%TO.P,U1,9,PA7_A8_D8_SCK*%
%TO.N,COL2*%
X110120000Y-39620000D03*
%TO.P,U1,10,PA5_A9_D9_MISO*%
%TO.N,COL1*%
X110120000Y-37080000D03*
%TO.P,U1,11,PA6_A10_D10_MOSI*%
%TO.N,ROW7*%
X110120000Y-34540000D03*
%TO.P,U1,12,3V3*%
%TO.N,VCC*%
X110120000Y-32000000D03*
%TO.P,U1,13,GND*%
%TO.N,GND*%
X110120000Y-29460000D03*
%TO.P,U1,14,5V*%
%TO.N,unconnected-(U1-5V-Pad14)*%
X110120000Y-26920000D03*
%TD*%
D20*
%TO.N,ROW1*%
X127200000Y-43500000D02*
X132712500Y-43500000D01*
X113175000Y-43987500D02*
X98756250Y-43987500D01*
X114300000Y-42862500D02*
X115425000Y-41737500D01*
X135900000Y-40312500D02*
X133350000Y-42862500D01*
X147637500Y-38100000D02*
X145425000Y-40312500D01*
X98756250Y-43987500D02*
X97631250Y-42862500D01*
X125437500Y-41737500D02*
X127200000Y-43500000D01*
X132712500Y-43500000D02*
X133350000Y-42862500D01*
X115425000Y-41737500D02*
X125437500Y-41737500D01*
X145425000Y-40312500D02*
X135900000Y-40312500D01*
X114300000Y-42862500D02*
X113175000Y-43987500D01*
%TO.N,ROW2*%
X109800000Y-57412500D02*
X114728490Y-57412500D01*
X109537500Y-57150000D02*
X109800000Y-57412500D01*
X136987500Y-57412500D02*
X137250000Y-57150000D01*
X114728490Y-57412500D02*
X114990990Y-57150000D01*
X137250000Y-57150000D02*
X147637500Y-57150000D01*
X114990990Y-57150000D02*
X128587500Y-57150000D01*
X128850000Y-57412500D02*
X136987500Y-57412500D01*
X128587500Y-57150000D02*
X128850000Y-57412500D01*
%TO.N,Net-(D5-A)*%
X107705000Y-49530000D02*
X109537500Y-49530000D01*
X105012500Y-46837500D02*
X107705000Y-49530000D01*
%TO.N,Net-(D6-A)*%
X124062500Y-46837500D02*
X126755000Y-49530000D01*
X126755000Y-49530000D02*
X128587500Y-49530000D01*
%TO.N,ROW3*%
X113175000Y-86850000D02*
X98756250Y-86850000D01*
X134475000Y-86850000D02*
X151275000Y-86850000D01*
X114300000Y-85725000D02*
X116875000Y-88300000D01*
X133350000Y-85725000D02*
X134475000Y-86850000D01*
X116875000Y-88300000D02*
X130775000Y-88300000D01*
X98756250Y-86850000D02*
X97631250Y-85725000D01*
X114300000Y-85725000D02*
X113175000Y-86850000D01*
X151275000Y-86850000D02*
X152400000Y-85725000D01*
X130775000Y-88300000D02*
X133350000Y-85725000D01*
%TO.N,Net-(D9-A)*%
X101626250Y-82100000D02*
X105251250Y-85725000D01*
X100012500Y-82100000D02*
X101626250Y-82100000D01*
%TO.N,ROW4*%
X113175000Y-105900000D02*
X98756250Y-105900000D01*
X117025000Y-107500000D02*
X130625000Y-107500000D01*
X114300000Y-104775000D02*
X113175000Y-105900000D01*
X134475000Y-105900000D02*
X151275000Y-105900000D01*
X133350000Y-104775000D02*
X134475000Y-105900000D01*
X130625000Y-107500000D02*
X133350000Y-104775000D01*
X151275000Y-105900000D02*
X152400000Y-104775000D01*
X98756250Y-105900000D02*
X97631250Y-104775000D01*
X114300000Y-104775000D02*
X117025000Y-107500000D01*
%TO.N,Net-(D13-A)*%
X101626250Y-101150000D02*
X105251250Y-104775000D01*
X100012500Y-101150000D02*
X101626250Y-101150000D01*
%TO.N,ROW5*%
X135125000Y-125600000D02*
X150625000Y-125600000D01*
X118125000Y-126600000D02*
X130575000Y-126600000D01*
X115350000Y-123825000D02*
X118125000Y-126600000D01*
X114300000Y-123825000D02*
X113175000Y-124950000D01*
X150625000Y-125600000D02*
X152400000Y-123825000D01*
X133350000Y-123825000D02*
X135125000Y-125600000D01*
X113175000Y-124950000D02*
X98756250Y-124950000D01*
X114300000Y-123825000D02*
X115350000Y-123825000D01*
X98756250Y-124950000D02*
X97631250Y-123825000D01*
X130575000Y-126600000D02*
X133350000Y-123825000D01*
%TO.N,Net-(D17-A)*%
X101626250Y-120200000D02*
X105251250Y-123825000D01*
X100012500Y-120200000D02*
X101626250Y-120200000D01*
%TO.N,ROW6*%
X109537500Y-138112500D02*
X104775000Y-138112500D01*
X115425000Y-141750000D02*
X124950000Y-141750000D01*
X114300000Y-142875000D02*
X109537500Y-138112500D01*
X114300000Y-142875000D02*
X115425000Y-141750000D01*
X100012500Y-142875000D02*
X97631250Y-142875000D01*
X104775000Y-138112500D02*
X100012500Y-142875000D01*
X124950000Y-141750000D02*
X128587500Y-138112500D01*
%TO.N,Net-(D22-A)*%
X109537500Y-130492500D02*
X111760000Y-128270000D01*
X111760000Y-128270000D02*
X121602500Y-128270000D01*
%TO.N,Net-(D23-A)*%
X140652500Y-128270000D02*
X130810000Y-128270000D01*
X130810000Y-128270000D02*
X128587500Y-130492500D01*
%TO.N,Net-(D24-A)*%
X135892220Y-139600000D02*
X127900000Y-139600000D01*
X151262500Y-142875000D02*
X151262500Y-138962500D01*
X151262500Y-138962500D02*
X149700000Y-137400000D01*
X149700000Y-137400000D02*
X138092220Y-137400000D01*
X127900000Y-139600000D02*
X124625000Y-142875000D01*
X138092220Y-137400000D02*
X135892220Y-139600000D01*
X124625000Y-142875000D02*
X121920000Y-142875000D01*
%TO.N,ROW7*%
X118329720Y-157162500D02*
X128587500Y-157162500D01*
X109537500Y-157162500D02*
X109800000Y-157425000D01*
X133350000Y-142875000D02*
X133350000Y-148655824D01*
X109800000Y-157425000D02*
X118067220Y-157425000D01*
X133350000Y-148655824D02*
X128587500Y-153418324D01*
X128587500Y-153418324D02*
X128587500Y-157162500D01*
X118067220Y-157425000D02*
X118329720Y-157162500D01*
%TO.N,COL2*%
X111580000Y-39620000D02*
X113962500Y-37237500D01*
X110120000Y-39620000D02*
X111580000Y-39620000D01*
%TO.N,COL3*%
X110120000Y-42160000D02*
X109000000Y-41040000D01*
X128505000Y-25000000D02*
X134302500Y-30797500D01*
X109000000Y-41040000D02*
X109000000Y-26400000D01*
X110400000Y-25000000D02*
X128505000Y-25000000D01*
X109000000Y-26400000D02*
X110400000Y-25000000D01*
%TO.N,COL4*%
X136687500Y-38792220D02*
X138504720Y-36975000D01*
X138504720Y-36975000D02*
X151800000Y-36975000D01*
X127900000Y-42160000D02*
X131267780Y-38792220D01*
X131267780Y-38792220D02*
X136687500Y-38792220D01*
X151800000Y-36975000D02*
X152062500Y-37237500D01*
%TD*%
M02*
