%TF.GenerationSoftware,KiCad,Pcbnew,(7.0.0)*%
%TF.CreationDate,2023-05-23T14:58:40+09:00*%
%TF.ProjectId,sgkb,73676b62-2e6b-4696-9361-645f70636258,rev?*%
%TF.SameCoordinates,Original*%
%TF.FileFunction,Legend,Top*%
%TF.FilePolarity,Positive*%
%FSLAX46Y46*%
G04 Gerber Fmt 4.6, Leading zero omitted, Abs format (unit mm)*
G04 Created by KiCad (PCBNEW (7.0.0)) date 2023-05-23 14:58:40*
%MOMM*%
%LPD*%
G01*
G04 APERTURE LIST*
%ADD10C,0.120000*%
G04 APERTURE END LIST*
D10*
%TO.C,D41*%
X66675000Y-143661000D02*
X66675000Y-144311000D01*
X67795000Y-144311000D02*
X65555000Y-144311000D01*
X65555000Y-144311000D02*
X65555000Y-148551000D01*
X67795000Y-144911000D02*
X65555000Y-144911000D01*
X67795000Y-145031000D02*
X65555000Y-145031000D01*
X67795000Y-145151000D02*
X65555000Y-145151000D01*
X67795000Y-148551000D02*
X67795000Y-144311000D01*
X65555000Y-148551000D02*
X67795000Y-148551000D01*
X66675000Y-149201000D02*
X66675000Y-148551000D01*
%TO.C,D35*%
X123698000Y-124611000D02*
X123698000Y-125261000D01*
X124818000Y-125261000D02*
X122578000Y-125261000D01*
X122578000Y-125261000D02*
X122578000Y-129501000D01*
X124818000Y-125861000D02*
X122578000Y-125861000D01*
X124818000Y-125981000D02*
X122578000Y-125981000D01*
X124818000Y-126101000D02*
X122578000Y-126101000D01*
X124818000Y-129501000D02*
X124818000Y-125261000D01*
X122578000Y-129501000D02*
X124818000Y-129501000D01*
X123698000Y-130151000D02*
X123698000Y-129501000D01*
%TO.C,D8*%
X161925000Y-67461000D02*
X161925000Y-68111000D01*
X163045000Y-68111000D02*
X160805000Y-68111000D01*
X160805000Y-68111000D02*
X160805000Y-72351000D01*
X163045000Y-68711000D02*
X160805000Y-68711000D01*
X163045000Y-68831000D02*
X160805000Y-68831000D01*
X163045000Y-68951000D02*
X160805000Y-68951000D01*
X163045000Y-72351000D02*
X163045000Y-68111000D01*
X160805000Y-72351000D02*
X163045000Y-72351000D01*
X161925000Y-73001000D02*
X161925000Y-72351000D01*
%TO.C,D43*%
X90551000Y-143534000D02*
X90551000Y-144184000D01*
X91671000Y-144184000D02*
X89431000Y-144184000D01*
X89431000Y-144184000D02*
X89431000Y-148424000D01*
X91671000Y-144784000D02*
X89431000Y-144784000D01*
X91671000Y-144904000D02*
X89431000Y-144904000D01*
X91671000Y-145024000D02*
X89431000Y-145024000D01*
X91671000Y-148424000D02*
X91671000Y-144184000D01*
X89431000Y-148424000D02*
X91671000Y-148424000D01*
X90551000Y-149074000D02*
X90551000Y-148424000D01*
%TO.C,D32*%
X68556000Y-119126000D02*
X67906000Y-119126000D01*
X67906000Y-120246000D02*
X67906000Y-118006000D01*
X67906000Y-118006000D02*
X63666000Y-118006000D01*
X67306000Y-120246000D02*
X67306000Y-118006000D01*
X67186000Y-120246000D02*
X67186000Y-118006000D01*
X67066000Y-120246000D02*
X67066000Y-118006000D01*
X63666000Y-120246000D02*
X67906000Y-120246000D01*
X63666000Y-118006000D02*
X63666000Y-120246000D01*
X63016000Y-119126000D02*
X63666000Y-119126000D01*
%TO.C,D45*%
X128524000Y-143661000D02*
X128524000Y-144311000D01*
X129644000Y-144311000D02*
X127404000Y-144311000D01*
X127404000Y-144311000D02*
X127404000Y-148551000D01*
X129644000Y-144911000D02*
X127404000Y-144911000D01*
X129644000Y-145031000D02*
X127404000Y-145031000D01*
X129644000Y-145151000D02*
X127404000Y-145151000D01*
X129644000Y-148551000D02*
X129644000Y-144311000D01*
X127404000Y-148551000D02*
X129644000Y-148551000D01*
X128524000Y-149201000D02*
X128524000Y-148551000D01*
%TO.C,D3*%
X82780000Y-81026000D02*
X82130000Y-81026000D01*
X82130000Y-82146000D02*
X82130000Y-79906000D01*
X82130000Y-79906000D02*
X77890000Y-79906000D01*
X81530000Y-82146000D02*
X81530000Y-79906000D01*
X81410000Y-82146000D02*
X81410000Y-79906000D01*
X81290000Y-82146000D02*
X81290000Y-79906000D01*
X77890000Y-82146000D02*
X82130000Y-82146000D01*
X77890000Y-79906000D02*
X77890000Y-82146000D01*
X77240000Y-81026000D02*
X77890000Y-81026000D01*
%TO.C,D5*%
X104775000Y-67334000D02*
X104775000Y-67984000D01*
X105895000Y-67984000D02*
X103655000Y-67984000D01*
X103655000Y-67984000D02*
X103655000Y-72224000D01*
X105895000Y-68584000D02*
X103655000Y-68584000D01*
X105895000Y-68704000D02*
X103655000Y-68704000D01*
X105895000Y-68824000D02*
X103655000Y-68824000D01*
X105895000Y-72224000D02*
X105895000Y-67984000D01*
X103655000Y-72224000D02*
X105895000Y-72224000D01*
X104775000Y-72874000D02*
X104775000Y-72224000D01*
%TO.C,D22*%
X54832250Y-105434000D02*
X54832250Y-106084000D01*
X55952250Y-106084000D02*
X53712250Y-106084000D01*
X53712250Y-106084000D02*
X53712250Y-110324000D01*
X55952250Y-106684000D02*
X53712250Y-106684000D01*
X55952250Y-106804000D02*
X53712250Y-106804000D01*
X55952250Y-106924000D02*
X53712250Y-106924000D01*
X55952250Y-110324000D02*
X55952250Y-106084000D01*
X53712250Y-110324000D02*
X55952250Y-110324000D01*
X54832250Y-110974000D02*
X54832250Y-110324000D01*
%TO.C,D46*%
X147574000Y-143661000D02*
X147574000Y-144311000D01*
X148694000Y-144311000D02*
X146454000Y-144311000D01*
X146454000Y-144311000D02*
X146454000Y-148551000D01*
X148694000Y-144911000D02*
X146454000Y-144911000D01*
X148694000Y-145031000D02*
X146454000Y-145031000D01*
X148694000Y-145151000D02*
X146454000Y-145151000D01*
X148694000Y-148551000D02*
X148694000Y-144311000D01*
X146454000Y-148551000D02*
X148694000Y-148551000D01*
X147574000Y-149201000D02*
X147574000Y-148551000D01*
%TO.C,D6*%
X123825000Y-67461000D02*
X123825000Y-68111000D01*
X124945000Y-68111000D02*
X122705000Y-68111000D01*
X122705000Y-68111000D02*
X122705000Y-72351000D01*
X124945000Y-68711000D02*
X122705000Y-68711000D01*
X124945000Y-68831000D02*
X122705000Y-68831000D01*
X124945000Y-68951000D02*
X122705000Y-68951000D01*
X124945000Y-72351000D02*
X124945000Y-68111000D01*
X122705000Y-72351000D02*
X124945000Y-72351000D01*
X123825000Y-73001000D02*
X123825000Y-72351000D01*
%TO.C,D24*%
X100076000Y-105434000D02*
X100076000Y-106084000D01*
X101196000Y-106084000D02*
X98956000Y-106084000D01*
X98956000Y-106084000D02*
X98956000Y-110324000D01*
X101196000Y-106684000D02*
X98956000Y-106684000D01*
X101196000Y-106804000D02*
X98956000Y-106804000D01*
X101196000Y-106924000D02*
X98956000Y-106924000D01*
X101196000Y-110324000D02*
X101196000Y-106084000D01*
X98956000Y-110324000D02*
X101196000Y-110324000D01*
X100076000Y-110974000D02*
X100076000Y-110324000D01*
%TO.C,D14*%
X95377000Y-86384000D02*
X95377000Y-87034000D01*
X96497000Y-87034000D02*
X94257000Y-87034000D01*
X94257000Y-87034000D02*
X94257000Y-91274000D01*
X96497000Y-87634000D02*
X94257000Y-87634000D01*
X96497000Y-87754000D02*
X94257000Y-87754000D01*
X96497000Y-87874000D02*
X94257000Y-87874000D01*
X96497000Y-91274000D02*
X96497000Y-87034000D01*
X94257000Y-91274000D02*
X96497000Y-91274000D01*
X95377000Y-91924000D02*
X95377000Y-91274000D01*
%TO.C,D42*%
X71374000Y-143661000D02*
X71374000Y-144311000D01*
X72494000Y-144311000D02*
X70254000Y-144311000D01*
X70254000Y-144311000D02*
X70254000Y-148551000D01*
X72494000Y-144911000D02*
X70254000Y-144911000D01*
X72494000Y-145031000D02*
X70254000Y-145031000D01*
X72494000Y-145151000D02*
X70254000Y-145151000D01*
X72494000Y-148551000D02*
X72494000Y-144311000D01*
X70254000Y-148551000D02*
X72494000Y-148551000D01*
X71374000Y-149201000D02*
X71374000Y-148551000D01*
%TO.C,D13*%
X76200000Y-86384000D02*
X76200000Y-87034000D01*
X77320000Y-87034000D02*
X75080000Y-87034000D01*
X75080000Y-87034000D02*
X75080000Y-91274000D01*
X77320000Y-87634000D02*
X75080000Y-87634000D01*
X77320000Y-87754000D02*
X75080000Y-87754000D01*
X77320000Y-87874000D02*
X75080000Y-87874000D01*
X77320000Y-91274000D02*
X77320000Y-87034000D01*
X75080000Y-91274000D02*
X77320000Y-91274000D01*
X76200000Y-91924000D02*
X76200000Y-91274000D01*
%TO.C,D12*%
X52387500Y-86511000D02*
X52387500Y-87161000D01*
X53507500Y-87161000D02*
X51267500Y-87161000D01*
X51267500Y-87161000D02*
X51267500Y-91401000D01*
X53507500Y-87761000D02*
X51267500Y-87761000D01*
X53507500Y-87881000D02*
X51267500Y-87881000D01*
X53507500Y-88001000D02*
X51267500Y-88001000D01*
X53507500Y-91401000D02*
X53507500Y-87161000D01*
X51267500Y-91401000D02*
X53507500Y-91401000D01*
X52387500Y-92051000D02*
X52387500Y-91401000D01*
%TO.C,D23*%
X81026000Y-105434000D02*
X81026000Y-106084000D01*
X82146000Y-106084000D02*
X79906000Y-106084000D01*
X79906000Y-106084000D02*
X79906000Y-110324000D01*
X82146000Y-106684000D02*
X79906000Y-106684000D01*
X82146000Y-106804000D02*
X79906000Y-106804000D01*
X82146000Y-106924000D02*
X79906000Y-106924000D01*
X82146000Y-110324000D02*
X82146000Y-106084000D01*
X79906000Y-110324000D02*
X82146000Y-110324000D01*
X81026000Y-110974000D02*
X81026000Y-110324000D01*
%TO.C,D36*%
X142875000Y-124611000D02*
X142875000Y-125261000D01*
X143995000Y-125261000D02*
X141755000Y-125261000D01*
X141755000Y-125261000D02*
X141755000Y-129501000D01*
X143995000Y-125861000D02*
X141755000Y-125861000D01*
X143995000Y-125981000D02*
X141755000Y-125981000D01*
X143995000Y-126101000D02*
X141755000Y-126101000D01*
X143995000Y-129501000D02*
X143995000Y-125261000D01*
X141755000Y-129501000D02*
X143995000Y-129501000D01*
X142875000Y-130151000D02*
X142875000Y-129501000D01*
%TO.C,D25*%
X118999000Y-105434000D02*
X118999000Y-106084000D01*
X120119000Y-106084000D02*
X117879000Y-106084000D01*
X117879000Y-106084000D02*
X117879000Y-110324000D01*
X120119000Y-106684000D02*
X117879000Y-106684000D01*
X120119000Y-106804000D02*
X117879000Y-106804000D01*
X120119000Y-106924000D02*
X117879000Y-106924000D01*
X120119000Y-110324000D02*
X120119000Y-106084000D01*
X117879000Y-110324000D02*
X120119000Y-110324000D01*
X118999000Y-110974000D02*
X118999000Y-110324000D01*
%TO.C,D4*%
X85725000Y-67461000D02*
X85725000Y-68111000D01*
X86845000Y-68111000D02*
X84605000Y-68111000D01*
X84605000Y-68111000D02*
X84605000Y-72351000D01*
X86845000Y-68711000D02*
X84605000Y-68711000D01*
X86845000Y-68831000D02*
X84605000Y-68831000D01*
X86845000Y-68951000D02*
X84605000Y-68951000D01*
X86845000Y-72351000D02*
X86845000Y-68111000D01*
X84605000Y-72351000D02*
X86845000Y-72351000D01*
X85725000Y-73001000D02*
X85725000Y-72351000D01*
%TO.C,D44*%
X109474000Y-143534000D02*
X109474000Y-144184000D01*
X110594000Y-144184000D02*
X108354000Y-144184000D01*
X108354000Y-144184000D02*
X108354000Y-148424000D01*
X110594000Y-144784000D02*
X108354000Y-144784000D01*
X110594000Y-144904000D02*
X108354000Y-144904000D01*
X110594000Y-145024000D02*
X108354000Y-145024000D01*
X110594000Y-148424000D02*
X110594000Y-144184000D01*
X108354000Y-148424000D02*
X110594000Y-148424000D01*
X109474000Y-149074000D02*
X109474000Y-148424000D01*
%TO.C,D33*%
X85852000Y-124611000D02*
X85852000Y-125261000D01*
X86972000Y-125261000D02*
X84732000Y-125261000D01*
X84732000Y-125261000D02*
X84732000Y-129501000D01*
X86972000Y-125861000D02*
X84732000Y-125861000D01*
X86972000Y-125981000D02*
X84732000Y-125981000D01*
X86972000Y-126101000D02*
X84732000Y-126101000D01*
X86972000Y-129501000D02*
X86972000Y-125261000D01*
X84732000Y-129501000D02*
X86972000Y-129501000D01*
X85852000Y-130151000D02*
X85852000Y-129501000D01*
%TO.C,D37*%
X161925000Y-124484000D02*
X161925000Y-125134000D01*
X163045000Y-125134000D02*
X160805000Y-125134000D01*
X160805000Y-125134000D02*
X160805000Y-129374000D01*
X163045000Y-125734000D02*
X160805000Y-125734000D01*
X163045000Y-125854000D02*
X160805000Y-125854000D01*
X163045000Y-125974000D02*
X160805000Y-125974000D01*
X163045000Y-129374000D02*
X163045000Y-125134000D01*
X160805000Y-129374000D02*
X163045000Y-129374000D01*
X161925000Y-130024000D02*
X161925000Y-129374000D01*
%TO.C,D34*%
X104775000Y-124357000D02*
X104775000Y-125007000D01*
X105895000Y-125007000D02*
X103655000Y-125007000D01*
X103655000Y-125007000D02*
X103655000Y-129247000D01*
X105895000Y-125607000D02*
X103655000Y-125607000D01*
X105895000Y-125727000D02*
X103655000Y-125727000D01*
X105895000Y-125847000D02*
X103655000Y-125847000D01*
X105895000Y-129247000D02*
X105895000Y-125007000D01*
X103655000Y-129247000D02*
X105895000Y-129247000D01*
X104775000Y-129897000D02*
X104775000Y-129247000D01*
%TO.C,D15*%
X114300000Y-86384000D02*
X114300000Y-87034000D01*
X115420000Y-87034000D02*
X113180000Y-87034000D01*
X113180000Y-87034000D02*
X113180000Y-91274000D01*
X115420000Y-87634000D02*
X113180000Y-87634000D01*
X115420000Y-87754000D02*
X113180000Y-87754000D01*
X115420000Y-87874000D02*
X113180000Y-87874000D01*
X115420000Y-91274000D02*
X115420000Y-87034000D01*
X113180000Y-91274000D02*
X115420000Y-91274000D01*
X114300000Y-91924000D02*
X114300000Y-91274000D01*
%TO.C,D16*%
X132969000Y-86384000D02*
X132969000Y-87034000D01*
X134089000Y-87034000D02*
X131849000Y-87034000D01*
X131849000Y-87034000D02*
X131849000Y-91274000D01*
X134089000Y-87634000D02*
X131849000Y-87634000D01*
X134089000Y-87754000D02*
X131849000Y-87754000D01*
X134089000Y-87874000D02*
X131849000Y-87874000D01*
X134089000Y-91274000D02*
X134089000Y-87034000D01*
X131849000Y-91274000D02*
X134089000Y-91274000D01*
X132969000Y-91924000D02*
X132969000Y-91274000D01*
%TO.C,D17*%
X152400000Y-86511000D02*
X152400000Y-87161000D01*
X153520000Y-87161000D02*
X151280000Y-87161000D01*
X151280000Y-87161000D02*
X151280000Y-91401000D01*
X153520000Y-87761000D02*
X151280000Y-87761000D01*
X153520000Y-87881000D02*
X151280000Y-87881000D01*
X153520000Y-88001000D02*
X151280000Y-88001000D01*
X153520000Y-91401000D02*
X153520000Y-87161000D01*
X151280000Y-91401000D02*
X153520000Y-91401000D01*
X152400000Y-92051000D02*
X152400000Y-91401000D01*
%TO.C,D27*%
X157099000Y-105561000D02*
X157099000Y-106211000D01*
X158219000Y-106211000D02*
X155979000Y-106211000D01*
X155979000Y-106211000D02*
X155979000Y-110451000D01*
X158219000Y-106811000D02*
X155979000Y-106811000D01*
X158219000Y-106931000D02*
X155979000Y-106931000D01*
X158219000Y-107051000D02*
X155979000Y-107051000D01*
X158219000Y-110451000D02*
X158219000Y-106211000D01*
X155979000Y-110451000D02*
X158219000Y-110451000D01*
X157099000Y-111101000D02*
X157099000Y-110451000D01*
%TO.C,D26*%
X138049000Y-105434000D02*
X138049000Y-106084000D01*
X139169000Y-106084000D02*
X136929000Y-106084000D01*
X136929000Y-106084000D02*
X136929000Y-110324000D01*
X139169000Y-106684000D02*
X136929000Y-106684000D01*
X139169000Y-106804000D02*
X136929000Y-106804000D01*
X139169000Y-106924000D02*
X136929000Y-106924000D01*
X139169000Y-110324000D02*
X139169000Y-106084000D01*
X136929000Y-110324000D02*
X139169000Y-110324000D01*
X138049000Y-110974000D02*
X138049000Y-110324000D01*
%TO.C,D2*%
X60174000Y-81026000D02*
X59524000Y-81026000D01*
X59524000Y-82146000D02*
X59524000Y-79906000D01*
X59524000Y-79906000D02*
X55284000Y-79906000D01*
X58924000Y-82146000D02*
X58924000Y-79906000D01*
X58804000Y-82146000D02*
X58804000Y-79906000D01*
X58684000Y-82146000D02*
X58684000Y-79906000D01*
X55284000Y-82146000D02*
X59524000Y-82146000D01*
X55284000Y-79906000D02*
X55284000Y-82146000D01*
X54634000Y-81026000D02*
X55284000Y-81026000D01*
%TO.C,D7*%
X142875000Y-67461000D02*
X142875000Y-68111000D01*
X143995000Y-68111000D02*
X141755000Y-68111000D01*
X141755000Y-68111000D02*
X141755000Y-72351000D01*
X143995000Y-68711000D02*
X141755000Y-68711000D01*
X143995000Y-68831000D02*
X141755000Y-68831000D01*
X143995000Y-68951000D02*
X141755000Y-68951000D01*
X143995000Y-72351000D02*
X143995000Y-68111000D01*
X141755000Y-72351000D02*
X143995000Y-72351000D01*
X142875000Y-73001000D02*
X142875000Y-72351000D01*
%TD*%
M02*
