M48
; DRILL file {KiCad (7.0.0)} date Tue May 23 14:58:43 2023
; FORMAT={-:-/ absolute / inch / decimal}
; #@! TF.CreationDate,2023-05-23T14:58:43+09:00
; #@! TF.GenerationSoftware,Kicad,Pcbnew,(7.0.0)
; #@! TF.FileFunction,Plated,1,2,PTH
FMAT,2
INCH
; #@! TA.AperFunction,Plated,PTH,ViaDrill
T1C0.0039
; #@! TA.AperFunction,Plated,PTH,ComponentDrill
T2C0.0118
; #@! TA.AperFunction,Plated,PTH,ComponentDrill
T3C0.0157
; #@! TA.AperFunction,Plated,PTH,ComponentDrill
T4C0.0300
; #@! TA.AperFunction,Plated,PTH,ComponentDrill
T5C0.0315
; #@! TA.AperFunction,Plated,PTH,ComponentDrill
T6C0.0394
; #@! TA.AperFunction,Plated,PTH,ComponentDrill
T7C0.0472
%
G90
G05
T1
X2.5Y-2.94
X2.74Y-5.35
T4
X1.925Y-2.56
X1.925Y-2.66
X1.925Y-2.76
X1.925Y-2.86
X1.925Y-2.96
X1.925Y-3.06
X1.925Y-3.16
X2.625Y-2.56
X2.625Y-2.66
X2.625Y-2.76
X2.625Y-2.86
X2.625Y-2.96
X2.625Y-3.06
X2.625Y-3.16
T5
X2.0625Y-3.365
X2.0625Y-3.665
X2.11Y-3.19
X2.1587Y-4.11
X2.1587Y-4.41
X2.41Y-3.19
X2.44Y-4.69
X2.625Y-5.615
X2.625Y-5.915
X2.74Y-4.69
X2.81Y-5.615
X2.81Y-5.915
X3.0Y-3.19
X3.0Y-3.36
X3.0Y-3.66
X3.19Y-4.11
X3.19Y-4.41
X3.3Y-3.19
X3.375Y-2.615
X3.375Y-2.915
X3.38Y-4.865
X3.38Y-5.165
X3.565Y-5.61
X3.565Y-5.91
X3.755Y-3.36
X3.755Y-3.66
X3.94Y-4.11
X3.94Y-4.41
X4.125Y-2.61
X4.125Y-2.91
X4.125Y-4.855
X4.125Y-5.155
X4.31Y-5.61
X4.31Y-5.91
X4.5Y-3.36
X4.5Y-3.66
X4.685Y-4.11
X4.685Y-4.41
X4.87Y-4.865
X4.87Y-5.165
X4.875Y-2.615
X4.875Y-2.915
X5.06Y-5.615
X5.06Y-5.915
X5.235Y-3.36
X5.235Y-3.66
X5.435Y-4.11
X5.435Y-4.41
X5.625Y-2.615
X5.625Y-2.915
X5.625Y-4.865
X5.625Y-5.165
X5.81Y-5.615
X5.81Y-5.915
X6.0Y-3.365
X6.0Y-3.665
X6.185Y-4.115
X6.185Y-4.415
X6.375Y-2.615
X6.375Y-2.915
X6.375Y-4.86
X6.375Y-5.16
T7
X2.1Y-2.7125
X2.1Y-5.7125
X2.2875Y-3.4625
X2.35Y-2.6125
X2.35Y-5.6125
X2.3813Y-4.2125
X2.475Y-4.9625
X2.5375Y-3.3625
X2.6313Y-4.1125
X2.725Y-4.8625
X2.85Y-2.7125
X3.0375Y-5.7125
X3.1Y-2.6125
X3.225Y-3.4625
X3.2875Y-5.6125
X3.4125Y-4.2125
X3.475Y-3.3625
X3.6Y-2.7125
X3.6Y-4.9625
X3.6625Y-4.1125
X3.7875Y-5.7125
X3.85Y-2.6125
X3.85Y-4.8625
X3.975Y-3.4625
X4.0375Y-5.6125
X4.1625Y-4.2125
X4.225Y-3.3625
X4.35Y-2.7125
X4.35Y-4.9625
X4.4125Y-4.1125
X4.5375Y-5.7125
X4.6Y-2.6125
X4.6Y-4.8625
X4.725Y-3.4625
X4.7875Y-5.6125
X4.9125Y-4.2125
X4.975Y-3.3625
X5.1Y-2.7125
X5.1Y-4.9625
X5.1625Y-4.1125
X5.2875Y-5.7125
X5.35Y-2.6125
X5.35Y-4.8625
X5.475Y-3.4625
X5.5375Y-5.6125
X5.6625Y-4.2125
X5.725Y-3.3625
X5.85Y-2.7125
X5.85Y-4.9625
X5.9125Y-4.1125
X6.0375Y-5.7125
X6.1Y-2.6125
X6.1Y-4.8625
X6.225Y-3.4625
X6.2875Y-5.6125
X6.4125Y-4.2125
X6.475Y-3.3625
X6.6Y-2.7125
X6.6Y-4.9625
X6.6625Y-4.1125
X6.85Y-2.6125
X6.85Y-4.8625
T2
G00X2.2362Y-3.0448
M15
G01X2.2638Y-3.0448
M16
G05
G00X2.2362Y-6.0448
M15
G01X2.2638Y-6.0448
M16
G05
G00X2.4237Y-3.7948
M15
G01X2.4513Y-3.7948
M16
G05
G00X2.4331Y-2.5941
M15
G01X2.4606Y-2.5939
M16
G05
G00X2.4331Y-5.5941
M15
G01X2.4606Y-5.5939
M16
G05
G00X2.5175Y-4.5448
M15
G01X2.545Y-4.5448
M16
G05
G00X2.6112Y-5.2948
M15
G01X2.6388Y-5.2948
M16
G05
G00X2.6206Y-3.3441
M15
G01X2.6481Y-3.3439
M16
G05
G00X2.7143Y-4.0941
M15
G01X2.7419Y-4.0939
M16
G05
G00X2.8081Y-4.8441
M15
G01X2.8356Y-4.8439
M16
G05
G00X2.9862Y-3.0448
M15
G01X3.0138Y-3.0448
M16
G05
G00X3.1737Y-6.0448
M15
G01X3.2013Y-6.0448
M16
G05
G00X3.1831Y-2.5941
M15
G01X3.2106Y-2.5939
M16
G05
G00X3.3612Y-3.7948
M15
G01X3.3888Y-3.7948
M16
G05
G00X3.3706Y-5.5941
M15
G01X3.3981Y-5.5939
M16
G05
G00X3.5487Y-4.5448
M15
G01X3.5763Y-4.5448
M16
G05
G00X3.5581Y-3.3441
M15
G01X3.5856Y-3.3439
M16
G05
G00X3.7362Y-3.0448
M15
G01X3.7638Y-3.0448
M16
G05
G00X3.7362Y-5.2948
M15
G01X3.7638Y-5.2948
M16
G05
G00X3.7456Y-4.0941
M15
G01X3.7731Y-4.0939
M16
G05
G00X3.9237Y-6.0448
M15
G01X3.9513Y-6.0448
M16
G05
G00X3.9331Y-2.5941
M15
G01X3.9606Y-2.5939
M16
G05
G00X3.9331Y-4.8441
M15
G01X3.9606Y-4.8439
M16
G05
G00X4.1112Y-3.7948
M15
G01X4.1388Y-3.7948
M16
G05
G00X4.1206Y-5.5941
M15
G01X4.1481Y-5.5939
M16
G05
G00X4.2987Y-4.5448
M15
G01X4.3263Y-4.5448
M16
G05
G00X4.3081Y-3.3441
M15
G01X4.3356Y-3.3439
M16
G05
G00X4.4862Y-3.0448
M15
G01X4.5138Y-3.0448
M16
G05
G00X4.4862Y-5.2948
M15
G01X4.5138Y-5.2948
M16
G05
G00X4.4956Y-4.0941
M15
G01X4.5231Y-4.0939
M16
G05
G00X4.6737Y-6.0448
M15
G01X4.7013Y-6.0448
M16
G05
G00X4.6831Y-2.5941
M15
G01X4.7106Y-2.5939
M16
G05
G00X4.6831Y-4.8441
M15
G01X4.7106Y-4.8439
M16
G05
G00X4.8612Y-3.7948
M15
G01X4.8888Y-3.7948
M16
G05
G00X4.8706Y-5.5941
M15
G01X4.8981Y-5.5939
M16
G05
G00X5.0487Y-4.5448
M15
G01X5.0763Y-4.5448
M16
G05
G00X5.0581Y-3.3441
M15
G01X5.0856Y-3.3439
M16
G05
G00X5.2362Y-3.0448
M15
G01X5.2638Y-3.0448
M16
G05
G00X5.2362Y-5.2948
M15
G01X5.2638Y-5.2948
M16
G05
G00X5.2456Y-4.0941
M15
G01X5.2731Y-4.0939
M16
G05
G00X5.4237Y-6.0448
M15
G01X5.4513Y-6.0448
M16
G05
G00X5.4331Y-2.5941
M15
G01X5.4606Y-2.5939
M16
G05
G00X5.4331Y-4.8441
M15
G01X5.4606Y-4.8439
M16
G05
G00X5.6112Y-3.7948
M15
G01X5.6388Y-3.7948
M16
G05
G00X5.6206Y-5.5941
M15
G01X5.6481Y-5.5939
M16
G05
G00X5.7987Y-4.5448
M15
G01X5.8263Y-4.5448
M16
G05
G00X5.8081Y-3.3441
M15
G01X5.8356Y-3.3439
M16
G05
G00X5.9862Y-3.0448
M15
G01X6.0138Y-3.0448
M16
G05
G00X5.9862Y-5.2948
M15
G01X6.0138Y-5.2948
M16
G05
G00X5.9956Y-4.0941
M15
G01X6.0231Y-4.0939
M16
G05
G00X6.1737Y-6.0448
M15
G01X6.2013Y-6.0448
M16
G05
G00X6.1831Y-2.5941
M15
G01X6.2106Y-2.5939
M16
G05
G00X6.1831Y-4.8441
M15
G01X6.2106Y-4.8439
M16
G05
G00X6.3612Y-3.7948
M15
G01X6.3888Y-3.7948
M16
G05
G00X6.3706Y-5.5941
M15
G01X6.3981Y-5.5939
M16
G05
G00X6.5487Y-4.5448
M15
G01X6.5763Y-4.5448
M16
G05
G00X6.5581Y-3.3441
M15
G01X6.5856Y-3.3439
M16
G05
G00X6.7362Y-3.0448
M15
G01X6.7638Y-3.0448
M16
G05
G00X6.7362Y-5.2948
M15
G01X6.7638Y-5.2948
M16
G05
G00X6.7456Y-4.0941
M15
G01X6.7731Y-4.0939
M16
G05
G00X6.9331Y-2.5941
M15
G01X6.9606Y-2.5939
M16
G05
G00X6.9331Y-4.8441
M15
G01X6.9606Y-4.8439
M16
G05
T3
G00X2.0374Y-2.966
M15
G01X2.061Y-2.966
M16
G05
G00X2.0374Y-5.966
M15
G01X2.061Y-5.966
M16
G05
G00X2.2249Y-3.716
M15
G01X2.2485Y-3.716
M16
G05
G00X2.3187Y-4.466
M15
G01X2.3423Y-4.466
M16
G05
G00X2.4124Y-5.216
M15
G01X2.436Y-5.216
M16
G05
G00X2.7874Y-2.966
M15
G01X2.811Y-2.966
M16
G05
G00X2.9749Y-5.966
M15
G01X2.9985Y-5.966
M16
G05
G00X3.1624Y-3.716
M15
G01X3.186Y-3.716
M16
G05
G00X3.3499Y-4.466
M15
G01X3.3735Y-4.466
M16
G05
G00X3.5374Y-2.966
M15
G01X3.561Y-2.966
M16
G05
G00X3.5374Y-5.216
M15
G01X3.561Y-5.216
M16
G05
G00X3.7249Y-5.966
M15
G01X3.7485Y-5.966
M16
G05
G00X3.9124Y-3.716
M15
G01X3.936Y-3.716
M16
G05
G00X4.0999Y-4.466
M15
G01X4.1235Y-4.466
M16
G05
G00X4.2874Y-2.966
M15
G01X4.311Y-2.966
M16
G05
G00X4.2874Y-5.216
M15
G01X4.311Y-5.216
M16
G05
G00X4.4749Y-5.966
M15
G01X4.4985Y-5.966
M16
G05
G00X4.6624Y-3.716
M15
G01X4.686Y-3.716
M16
G05
G00X4.8499Y-4.466
M15
G01X4.8735Y-4.466
M16
G05
G00X5.0374Y-2.966
M15
G01X5.061Y-2.966
M16
G05
G00X5.0374Y-5.216
M15
G01X5.061Y-5.216
M16
G05
G00X5.2249Y-5.966
M15
G01X5.2485Y-5.966
M16
G05
G00X5.4124Y-3.716
M15
G01X5.436Y-3.716
M16
G05
G00X5.5999Y-4.466
M15
G01X5.6235Y-4.466
M16
G05
G00X5.7874Y-2.966
M15
G01X5.811Y-2.966
M16
G05
G00X5.7874Y-5.216
M15
G01X5.811Y-5.216
M16
G05
G00X5.9749Y-5.966
M15
G01X5.9985Y-5.966
M16
G05
G00X6.1624Y-3.716
M15
G01X6.186Y-3.716
M16
G05
G00X6.3499Y-4.466
M15
G01X6.3735Y-4.466
M16
G05
G00X6.5374Y-2.966
M15
G01X6.561Y-2.966
M16
G05
G00X6.5374Y-5.216
M15
G01X6.561Y-5.216
M16
G05
T6
G00X6.8465Y-3.3287
M15
G01X6.8465Y-3.3091
M16
G05
G00X6.8465Y-3.4469
M15
G01X6.8465Y-3.4272
M16
G05
G00X6.8465Y-3.6043
M15
G01X6.8465Y-3.5846
M16
G05
G00X7.0118Y-3.6634
M15
G01X7.0118Y-3.6437
M16
G05
T0
M30
