M48
; DRILL file {KiCad (7.0.0)} date Tue May 23 14:58:43 2023
; FORMAT={-:-/ absolute / inch / decimal}
; #@! TF.CreationDate,2023-05-23T14:58:43+09:00
; #@! TF.GenerationSoftware,Kicad,Pcbnew,(7.0.0)
; #@! TF.FileFunction,NonPlated,1,2,NPTH
FMAT,2
INCH
; #@! TA.AperFunction,NonPlated,NPTH,ComponentDrill
T1C0.0472
; #@! TA.AperFunction,NonPlated,NPTH,ComponentDrill
T2C0.0669
; #@! TA.AperFunction,NonPlated,NPTH,ComponentDrill
T3C0.0709
; #@! TA.AperFunction,NonPlated,NPTH,ComponentDrill
T4C0.0866
; #@! TA.AperFunction,NonPlated,NPTH,ComponentDrill
T5C0.1201
; #@! TA.AperFunction,NonPlated,NPTH,ComponentDrill
T6C0.1575
; #@! TA.AperFunction,NonPlated,NPTH,ComponentDrill
T7C0.1929
%
G90
G05
T1
X6.9291Y-3.248
X6.9291Y-3.5236
T2
X2.05Y-2.8125
X2.05Y-5.8125
X2.2375Y-3.5625
X2.3312Y-4.3125
X2.425Y-5.0625
X2.45Y-2.8125
X2.45Y-5.8125
X2.6375Y-3.5625
X2.7312Y-4.3125
X2.8Y-2.8125
X2.825Y-5.0625
X2.9875Y-5.8125
X3.175Y-3.5625
X3.2Y-2.8125
X3.3625Y-4.3125
X3.3875Y-5.8125
X3.55Y-2.8125
X3.55Y-5.0625
X3.575Y-3.5625
X3.7375Y-5.8125
X3.7625Y-4.3125
X3.925Y-3.5625
X3.95Y-2.8125
X3.95Y-5.0625
X4.1125Y-4.3125
X4.1375Y-5.8125
X4.3Y-2.8125
X4.3Y-5.0625
X4.325Y-3.5625
X4.4875Y-5.8125
X4.5125Y-4.3125
X4.675Y-3.5625
X4.7Y-2.8125
X4.7Y-5.0625
X4.8625Y-4.3125
X4.8875Y-5.8125
X5.05Y-2.8125
X5.05Y-5.0625
X5.075Y-3.5625
X5.2375Y-5.8125
X5.2625Y-4.3125
X5.425Y-3.5625
X5.45Y-2.8125
X5.45Y-5.0625
X5.6125Y-4.3125
X5.6375Y-5.8125
X5.8Y-2.8125
X5.8Y-5.0625
X5.825Y-3.5625
X5.9875Y-5.8125
X6.0125Y-4.3125
X6.175Y-3.5625
X6.2Y-2.8125
X6.2Y-5.0625
X6.3625Y-4.3125
X6.3875Y-5.8125
X6.55Y-2.8125
X6.55Y-5.0625
X6.575Y-3.5625
X6.7625Y-4.3125
X6.95Y-2.8125
X6.95Y-5.0625
T3
X2.0335Y-2.8125
X2.0335Y-5.8125
X2.221Y-3.5625
X2.3147Y-4.3125
X2.4085Y-5.0625
X2.4665Y-2.8125
X2.4665Y-5.8125
X2.654Y-3.5625
X2.7478Y-4.3125
X2.7835Y-2.8125
X2.8415Y-5.0625
X2.971Y-5.8125
X3.1585Y-3.5625
X3.2165Y-2.8125
X3.346Y-4.3125
X3.404Y-5.8125
X3.5335Y-2.8125
X3.5335Y-5.0625
X3.5915Y-3.5625
X3.721Y-5.8125
X3.779Y-4.3125
X3.9085Y-3.5625
X3.9665Y-2.8125
X3.9665Y-5.0625
X4.096Y-4.3125
X4.154Y-5.8125
X4.2835Y-2.8125
X4.2835Y-5.0625
X4.3415Y-3.5625
X4.471Y-5.8125
X4.529Y-4.3125
X4.6585Y-3.5625
X4.7165Y-2.8125
X4.7165Y-5.0625
X4.846Y-4.3125
X4.904Y-5.8125
X5.0335Y-2.8125
X5.0335Y-5.0625
X5.0915Y-3.5625
X5.221Y-5.8125
X5.279Y-4.3125
X5.4085Y-3.5625
X5.4665Y-2.8125
X5.4665Y-5.0625
X5.596Y-4.3125
X5.654Y-5.8125
X5.7835Y-2.8125
X5.7835Y-5.0625
X5.8415Y-3.5625
X5.971Y-5.8125
X6.029Y-4.3125
X6.1585Y-3.5625
X6.2165Y-2.8125
X6.2165Y-5.0625
X6.346Y-4.3125
X6.404Y-5.8125
X6.5335Y-2.8125
X6.5335Y-5.0625
X6.5915Y-3.5625
X6.779Y-4.3125
X6.9665Y-2.8125
X6.9665Y-5.0625
T4
X3.0Y-3.9375
X3.375Y-5.4375
X4.125Y-3.1875
X4.875Y-5.4375
X5.625Y-3.1875
X6.1875Y-3.9375
X6.375Y-5.4375
X6.75Y-3.1875
T5
X2.1565Y-4.7869
X3.0935Y-4.7869
T6
X2.1565Y-5.3869
X3.0935Y-5.3869
T7
X2.25Y-2.8125
X2.25Y-5.8125
X2.4375Y-3.5625
X2.5312Y-4.3125
X2.625Y-5.0625
X3.0Y-2.8125
X3.1875Y-5.8125
X3.375Y-3.5625
X3.5625Y-4.3125
X3.75Y-2.8125
X3.75Y-5.0625
X3.9375Y-5.8125
X4.125Y-3.5625
X4.3125Y-4.3125
X4.5Y-2.8125
X4.5Y-5.0625
X4.6875Y-5.8125
X4.875Y-3.5625
X5.0625Y-4.3125
X5.25Y-2.8125
X5.25Y-5.0625
X5.4375Y-5.8125
X5.625Y-3.5625
X5.8125Y-4.3125
X6.0Y-2.8125
X6.0Y-5.0625
X6.1875Y-5.8125
X6.375Y-3.5625
X6.5625Y-4.3125
X6.75Y-2.8125
X6.75Y-5.0625
T0
M30
