%TF.GenerationSoftware,KiCad,Pcbnew,(7.0.0)*%
%TF.CreationDate,2023-05-23T14:58:40+09:00*%
%TF.ProjectId,sgkb,73676b62-2e6b-4696-9361-645f70636258,rev?*%
%TF.SameCoordinates,Original*%
%TF.FileFunction,Soldermask,Top*%
%TF.FilePolarity,Negative*%
%FSLAX46Y46*%
G04 Gerber Fmt 4.6, Leading zero omitted, Abs format (unit mm)*
G04 Created by KiCad (PCBNEW (7.0.0)) date 2023-05-23 14:58:40*
%MOMM*%
%LPD*%
G01*
G04 APERTURE LIST*
%ADD10C,3.050000*%
%ADD11C,4.000000*%
%ADD12C,1.800000*%
%ADD13C,1.700000*%
%ADD14C,4.900000*%
%ADD15R,1.600000X1.600000*%
%ADD16O,1.600000X1.600000*%
%ADD17C,2.200000*%
%ADD18C,1.200000*%
%ADD19O,1.700000X2.500000*%
%ADD20C,1.524000*%
G04 APERTURE END LIST*
D10*
%TO.C,SW32*%
X54775000Y-121587500D03*
D11*
X54775000Y-136827500D03*
D12*
X61175000Y-128587500D03*
D13*
X61595000Y-128587500D03*
D14*
X66675000Y-128587500D03*
D13*
X71755000Y-128587500D03*
D12*
X72175000Y-128587500D03*
D10*
X78575000Y-121587500D03*
D11*
X78575000Y-136827500D03*
%TD*%
D12*
%TO.C,SW43*%
X94512500Y-147637500D03*
D13*
X94932500Y-147637500D03*
D14*
X100012500Y-147637500D03*
D13*
X105092500Y-147637500D03*
D12*
X105512500Y-147637500D03*
%TD*%
D15*
%TO.C,D41*%
X66674999Y-142620999D03*
D16*
X66674999Y-150240999D03*
%TD*%
D15*
%TO.C,D35*%
X123697999Y-123570999D03*
D16*
X123697999Y-131190999D03*
%TD*%
D12*
%TO.C,SW13*%
X80225000Y-90487500D03*
D13*
X80645000Y-90487500D03*
D14*
X85725000Y-90487500D03*
D13*
X90805000Y-90487500D03*
D12*
X91225000Y-90487500D03*
%TD*%
%TO.C,SW41*%
X51650000Y-147637500D03*
D13*
X52070000Y-147637500D03*
D14*
X57150000Y-147637500D03*
D13*
X62230000Y-147637500D03*
D12*
X62650000Y-147637500D03*
%TD*%
D15*
%TO.C,D8*%
X161924999Y-66420999D03*
D16*
X161924999Y-74040999D03*
%TD*%
D15*
%TO.C,D43*%
X90550999Y-142493999D03*
D16*
X90550999Y-150113999D03*
%TD*%
D12*
%TO.C,SW34*%
X108800000Y-128587500D03*
D13*
X109220000Y-128587500D03*
D14*
X114300000Y-128587500D03*
D13*
X119380000Y-128587500D03*
D12*
X119800000Y-128587500D03*
%TD*%
%TO.C,SW27*%
X161187500Y-109537500D03*
D13*
X161607500Y-109537500D03*
D14*
X166687500Y-109537500D03*
D13*
X171767500Y-109537500D03*
D12*
X172187500Y-109537500D03*
%TD*%
D15*
%TO.C,D32*%
X69595999Y-119125999D03*
D16*
X61975999Y-119125999D03*
%TD*%
D15*
%TO.C,D45*%
X128523999Y-142620999D03*
D16*
X128523999Y-150240999D03*
%TD*%
D15*
%TO.C,D3*%
X83819999Y-81025999D03*
D16*
X76199999Y-81025999D03*
%TD*%
D12*
%TO.C,SW25*%
X123087500Y-109537500D03*
D13*
X123507500Y-109537500D03*
D14*
X128587500Y-109537500D03*
D13*
X133667500Y-109537500D03*
D12*
X134087500Y-109537500D03*
%TD*%
%TO.C,SW6*%
X127850000Y-71437500D03*
D13*
X128270000Y-71437500D03*
D14*
X133350000Y-71437500D03*
D13*
X138430000Y-71437500D03*
D12*
X138850000Y-71437500D03*
%TD*%
%TO.C,SW4*%
X89750000Y-71437500D03*
D13*
X90170000Y-71437500D03*
D14*
X95250000Y-71437500D03*
D13*
X100330000Y-71437500D03*
D12*
X100750000Y-71437500D03*
%TD*%
D15*
%TO.C,D5*%
X104774999Y-66293999D03*
D16*
X104774999Y-73913999D03*
%TD*%
D15*
%TO.C,D22*%
X54832249Y-104393999D03*
D16*
X54832249Y-112013999D03*
%TD*%
D12*
%TO.C,SW7*%
X146900000Y-71437500D03*
D13*
X147320000Y-71437500D03*
D14*
X152400000Y-71437500D03*
D13*
X157480000Y-71437500D03*
D12*
X157900000Y-71437500D03*
%TD*%
%TO.C,SW17*%
X156425000Y-90487500D03*
D13*
X156845000Y-90487500D03*
D14*
X161925000Y-90487500D03*
D13*
X167005000Y-90487500D03*
D12*
X167425000Y-90487500D03*
%TD*%
%TO.C,SW24*%
X104037500Y-109537500D03*
D13*
X104457500Y-109537500D03*
D14*
X109537500Y-109537500D03*
D13*
X114617500Y-109537500D03*
D12*
X115037500Y-109537500D03*
%TD*%
D15*
%TO.C,D46*%
X147573999Y-142620999D03*
D16*
X147573999Y-150240999D03*
%TD*%
D12*
%TO.C,SW37*%
X165950000Y-128587500D03*
D13*
X166370000Y-128587500D03*
D14*
X171450000Y-128587500D03*
D13*
X176530000Y-128587500D03*
D12*
X176950000Y-128587500D03*
%TD*%
D17*
%TO.C,H1*%
X104775000Y-80962500D03*
%TD*%
D12*
%TO.C,SW12*%
X56412500Y-90487500D03*
D13*
X56832500Y-90487500D03*
D14*
X61912500Y-90487500D03*
D13*
X66992500Y-90487500D03*
D12*
X67412500Y-90487500D03*
%TD*%
D17*
%TO.C,H6*%
X76200000Y-100012500D03*
%TD*%
D15*
%TO.C,D6*%
X123824999Y-66420999D03*
D16*
X123824999Y-74040999D03*
%TD*%
D15*
%TO.C,D24*%
X100075999Y-104393999D03*
D16*
X100075999Y-112013999D03*
%TD*%
D17*
%TO.C,H5*%
X171450000Y-80962500D03*
%TD*%
D12*
%TO.C,SW23*%
X84987500Y-109537500D03*
D13*
X85407500Y-109537500D03*
D14*
X90487500Y-109537500D03*
D13*
X95567500Y-109537500D03*
D12*
X95987500Y-109537500D03*
%TD*%
D15*
%TO.C,D14*%
X95376999Y-85343999D03*
D16*
X95376999Y-92963999D03*
%TD*%
D17*
%TO.C,H3*%
X142875000Y-80962500D03*
%TD*%
D12*
%TO.C,SW33*%
X89750000Y-128587500D03*
D13*
X90170000Y-128587500D03*
D14*
X95250000Y-128587500D03*
D13*
X100330000Y-128587500D03*
D12*
X100750000Y-128587500D03*
%TD*%
%TO.C,SW15*%
X118325000Y-90487500D03*
D13*
X118745000Y-90487500D03*
D14*
X123825000Y-90487500D03*
D13*
X128905000Y-90487500D03*
D12*
X129325000Y-90487500D03*
%TD*%
%TO.C,SW46*%
X151662500Y-147637500D03*
D13*
X152082500Y-147637500D03*
D14*
X157162500Y-147637500D03*
D13*
X162242500Y-147637500D03*
D12*
X162662500Y-147637500D03*
%TD*%
D15*
%TO.C,D42*%
X71373999Y-142620999D03*
D16*
X71373999Y-150240999D03*
%TD*%
D12*
%TO.C,SW42*%
X75462500Y-147637500D03*
D13*
X75882500Y-147637500D03*
D14*
X80962500Y-147637500D03*
D13*
X86042500Y-147637500D03*
D12*
X86462500Y-147637500D03*
%TD*%
%TO.C,SW2*%
X51650000Y-71437500D03*
D13*
X52070000Y-71437500D03*
D14*
X57150000Y-71437500D03*
D13*
X62230000Y-71437500D03*
D12*
X62650000Y-71437500D03*
%TD*%
D15*
%TO.C,D13*%
X76199999Y-85343999D03*
D16*
X76199999Y-92963999D03*
%TD*%
D17*
%TO.C,H4*%
X161925000Y-138112500D03*
%TD*%
D12*
%TO.C,SW3*%
X70700000Y-71437500D03*
D13*
X71120000Y-71437500D03*
D14*
X76200000Y-71437500D03*
D13*
X81280000Y-71437500D03*
D12*
X81700000Y-71437500D03*
%TD*%
D15*
%TO.C,D12*%
X52387499Y-85470999D03*
D16*
X52387499Y-93090999D03*
%TD*%
D15*
%TO.C,D23*%
X81025999Y-104393999D03*
D16*
X81025999Y-112013999D03*
%TD*%
D15*
%TO.C,D36*%
X142874999Y-123570999D03*
D16*
X142874999Y-131190999D03*
%TD*%
D15*
%TO.C,D25*%
X118998999Y-104393999D03*
D16*
X118998999Y-112013999D03*
%TD*%
D15*
%TO.C,D4*%
X85724999Y-66420999D03*
D16*
X85724999Y-74040999D03*
%TD*%
D12*
%TO.C,SW26*%
X142137500Y-109537500D03*
D13*
X142557500Y-109537500D03*
D14*
X147637500Y-109537500D03*
D13*
X152717500Y-109537500D03*
D12*
X153137500Y-109537500D03*
%TD*%
D15*
%TO.C,D44*%
X109473999Y-142493999D03*
D16*
X109473999Y-150113999D03*
%TD*%
D12*
%TO.C,SW14*%
X99275000Y-90487500D03*
D13*
X99695000Y-90487500D03*
D14*
X104775000Y-90487500D03*
D13*
X109855000Y-90487500D03*
D12*
X110275000Y-90487500D03*
%TD*%
%TO.C,SW35*%
X127850000Y-128587500D03*
D13*
X128270000Y-128587500D03*
D14*
X133350000Y-128587500D03*
D13*
X138430000Y-128587500D03*
D12*
X138850000Y-128587500D03*
%TD*%
%TO.C,SW22*%
X58793750Y-109537500D03*
D13*
X59213750Y-109537500D03*
D14*
X64293750Y-109537500D03*
D13*
X69373750Y-109537500D03*
D12*
X69793750Y-109537500D03*
%TD*%
%TO.C,SW5*%
X108800000Y-71437500D03*
D13*
X109220000Y-71437500D03*
D14*
X114300000Y-71437500D03*
D13*
X119380000Y-71437500D03*
D12*
X119800000Y-71437500D03*
%TD*%
D15*
%TO.C,D33*%
X85851999Y-123570999D03*
D16*
X85851999Y-131190999D03*
%TD*%
D12*
%TO.C,SW16*%
X137375000Y-90487500D03*
D13*
X137795000Y-90487500D03*
D14*
X142875000Y-90487500D03*
D13*
X147955000Y-90487500D03*
D12*
X148375000Y-90487500D03*
%TD*%
D15*
%TO.C,D37*%
X161924999Y-123443999D03*
D16*
X161924999Y-131063999D03*
%TD*%
D12*
%TO.C,SW44*%
X113562500Y-147637500D03*
D13*
X113982500Y-147637500D03*
D14*
X119062500Y-147637500D03*
D13*
X124142500Y-147637500D03*
D12*
X124562500Y-147637500D03*
%TD*%
D15*
%TO.C,D34*%
X104774999Y-123316999D03*
D16*
X104774999Y-130936999D03*
%TD*%
D15*
%TO.C,D15*%
X114299999Y-85343999D03*
D16*
X114299999Y-92963999D03*
%TD*%
D12*
%TO.C,SW36*%
X146900000Y-128587500D03*
D13*
X147320000Y-128587500D03*
D14*
X152400000Y-128587500D03*
D13*
X157480000Y-128587500D03*
D12*
X157900000Y-128587500D03*
%TD*%
D15*
%TO.C,D16*%
X132968999Y-85343999D03*
D16*
X132968999Y-92963999D03*
%TD*%
D12*
%TO.C,SW45*%
X132612500Y-147637500D03*
D13*
X133032500Y-147637500D03*
D14*
X138112500Y-147637500D03*
D13*
X143192500Y-147637500D03*
D12*
X143612500Y-147637500D03*
%TD*%
D15*
%TO.C,D17*%
X152399999Y-85470999D03*
D16*
X152399999Y-93090999D03*
%TD*%
D12*
%TO.C,SW8*%
X165950000Y-71437500D03*
D13*
X166370000Y-71437500D03*
D14*
X171450000Y-71437500D03*
D13*
X176530000Y-71437500D03*
D12*
X176950000Y-71437500D03*
%TD*%
D15*
%TO.C,D27*%
X157098999Y-104520999D03*
D16*
X157098999Y-112140999D03*
%TD*%
D17*
%TO.C,H7*%
X85725000Y-138112500D03*
%TD*%
%TO.C,H8*%
X157162500Y-100012500D03*
%TD*%
D15*
%TO.C,D26*%
X138048999Y-104393999D03*
D16*
X138048999Y-112013999D03*
%TD*%
D15*
%TO.C,D2*%
X61213999Y-81025999D03*
D16*
X53593999Y-81025999D03*
%TD*%
D15*
%TO.C,D7*%
X142874999Y-66420999D03*
D16*
X142874999Y-74040999D03*
%TD*%
D17*
%TO.C,H2*%
X123825000Y-138112500D03*
%TD*%
D18*
%TO.C,J1*%
X176000000Y-89500000D03*
X176000000Y-82500000D03*
D19*
X178099999Y-92799999D03*
X173899999Y-84299999D03*
X173899999Y-87299999D03*
X173899999Y-91299999D03*
%TD*%
D20*
%TO.C,U1*%
X66675000Y-65024000D03*
X66675000Y-67564000D03*
X66675000Y-70104000D03*
X66675000Y-72644000D03*
X66675000Y-75184000D03*
X66675000Y-77724000D03*
X66675000Y-80264000D03*
X48895000Y-80264000D03*
X48895000Y-77724000D03*
X48895000Y-75184000D03*
X48895000Y-72644000D03*
X48895000Y-70104000D03*
X48895000Y-67564000D03*
X48895000Y-65024000D03*
%TD*%
M02*
