M48
; DRILL file {KiCad (7.0.0)} date Wed Mar 29 20:30:45 2023
; FORMAT={-:-/ absolute / inch / decimal}
; #@! TF.CreationDate,2023-03-29T20:30:45+09:00
; #@! TF.GenerationSoftware,Kicad,Pcbnew,(7.0.0)
; #@! TF.FileFunction,Plated,1,2,PTH
FMAT,2
INCH
; #@! TA.AperFunction,Plated,PTH,ComponentDrill
T1C0.0118
; #@! TA.AperFunction,Plated,PTH,ViaDrill
T2C0.0157
; #@! TA.AperFunction,Plated,PTH,ComponentDrill
T3C0.0157
; #@! TA.AperFunction,Plated,PTH,ComponentDrill
T4C0.0315
; #@! TA.AperFunction,Plated,PTH,ComponentDrill
T5C0.0394
; #@! TA.AperFunction,Plated,PTH,ComponentDrill
T6C0.0472
%
G90
G05
T2
X5.15Y-2.95
X5.2Y-3.0
X5.25Y-3.05
X5.3Y-3.1
X5.35Y-3.15
X5.4Y-3.2
X5.45Y-3.25
X5.5Y-3.3
X5.55Y-3.35
X5.6Y-3.4
X5.65Y-3.45
X5.7Y-3.5
X5.75Y-3.55
X5.8Y-3.6
X5.85Y-3.65
X5.9Y-3.7
X5.95Y-3.75
X6.0Y-3.8
X6.05Y-3.85
X6.1Y-3.9
X6.15Y-3.95
X6.2Y-4.0
X6.25Y-4.05
X6.3Y-4.1
X6.35Y-4.15
X6.4Y-4.2
X6.45Y-4.25
X6.5Y-4.3
X6.55Y-4.35
X6.6Y-4.4
X6.65Y-4.45
X6.7Y-4.5
T4
X7.7726Y-2.5094
X7.7726Y-2.8094
X7.7726Y-3.2594
X7.7726Y-3.5594
X7.7726Y-4.0094
X7.7726Y-4.3094
X8.5226Y-2.5094
X8.5226Y-2.8094
X8.5226Y-3.2594
X8.5226Y-3.5594
X8.5226Y-4.0094
X8.5226Y-4.3094
T5
X4.798Y-2.7846
X4.798Y-2.8846
X4.898Y-2.7846
X4.898Y-2.8846
X4.998Y-2.7846
X4.998Y-2.8846
X5.098Y-2.7846
X5.098Y-2.8846
X5.198Y-2.7846
X5.198Y-2.8846
X5.298Y-2.7846
X5.298Y-2.8846
X5.398Y-2.7846
X5.398Y-2.8846
X5.498Y-2.7846
X5.498Y-2.8846
X5.598Y-2.7846
X5.598Y-2.8846
X5.698Y-2.7846
X5.698Y-2.8846
X5.698Y-4.2846
X5.798Y-2.7846
X5.798Y-2.8846
X5.798Y-4.2846
X5.898Y-2.7846
X5.898Y-2.8846
X5.998Y-2.7846
X5.998Y-2.8846
X6.098Y-2.7846
X6.098Y-2.8846
X6.198Y-2.7846
X6.198Y-2.8846
X6.298Y-2.7846
X6.298Y-2.8846
X6.398Y-2.7846
X6.398Y-2.8846
X6.498Y-2.7846
X6.498Y-2.8846
X6.598Y-2.7846
X6.598Y-2.8846
X6.698Y-2.7846
X6.698Y-2.8846
X7.298Y-2.4949
X7.298Y-2.5949
X7.298Y-2.6949
X7.298Y-2.7949
X7.298Y-2.8949
X7.298Y-2.9949
X7.298Y-3.0949
X7.298Y-3.1949
X7.298Y-3.2949
X7.298Y-3.3949
X7.298Y-3.4949
X7.298Y-3.5949
X7.298Y-3.6949
X7.298Y-3.7949
X7.298Y-3.8949
X7.298Y-3.9949
X7.298Y-4.0949
X7.298Y-4.1949
X7.298Y-4.2949
X7.298Y-4.3949
X7.398Y-2.4949
X7.398Y-2.5949
X7.398Y-2.6949
X7.398Y-2.7949
X7.398Y-2.8949
X7.398Y-2.9949
X7.398Y-3.0949
X7.398Y-3.1949
X7.398Y-3.2949
X7.398Y-3.3949
X7.398Y-3.4949
X7.398Y-3.5949
X7.398Y-3.6949
X7.398Y-3.7949
X7.398Y-3.8949
X7.398Y-3.9949
X7.398Y-4.0949
X7.398Y-4.1949
X7.398Y-4.2949
X7.398Y-4.3949
X7.498Y-2.4949
X7.498Y-2.5949
X7.498Y-2.6949
X7.498Y-2.7949
X7.498Y-2.8949
X7.498Y-2.9949
X7.498Y-3.0949
X7.498Y-3.1949
X7.498Y-3.2949
X7.498Y-3.3949
X7.498Y-3.4949
X7.498Y-3.5949
X7.498Y-3.6949
X7.498Y-3.7949
X7.498Y-3.8949
X7.498Y-3.9949
X7.498Y-4.0949
X7.498Y-4.1949
X7.498Y-4.2949
X7.498Y-4.3949
X7.598Y-2.4949
X7.598Y-2.5949
X7.598Y-2.6949
X7.598Y-2.7949
X7.598Y-2.8949
X7.598Y-2.9949
X7.598Y-3.0949
X7.598Y-3.1949
X7.598Y-3.2949
X7.598Y-3.3949
X7.598Y-3.4949
X7.598Y-3.5949
X7.598Y-3.6949
X7.598Y-3.7949
X7.598Y-3.8949
X7.598Y-3.9949
X7.598Y-4.0949
X7.598Y-4.1949
X7.598Y-4.2949
X7.598Y-4.3949
T6
X7.9976Y-2.5969
X7.9976Y-3.3469
X7.9976Y-4.0969
X8.2476Y-2.4969
X8.2476Y-3.2469
X8.2476Y-3.9969
X8.7476Y-2.5969
X8.7476Y-3.3469
X8.7476Y-4.0969
X8.9976Y-2.4969
X8.9976Y-3.2469
X8.9976Y-3.9969
T1
G00X8.1339Y-2.9291
M15
G01X8.1614Y-2.9291
M16
G05
G00X8.1339Y-3.6791
M15
G01X8.1614Y-3.6791
M16
G05
G00X8.1339Y-4.4291
M15
G01X8.1614Y-4.4291
M16
G05
G00X8.3307Y-2.4785
M15
G01X8.3583Y-2.4782
M16
G05
G00X8.3307Y-3.2285
M15
G01X8.3583Y-3.2282
M16
G05
G00X8.3307Y-3.9785
M15
G01X8.3583Y-3.9782
M16
G05
G00X8.8839Y-2.9291
M15
G01X8.9114Y-2.9291
M16
G05
G00X8.8839Y-3.6791
M15
G01X8.9114Y-3.6791
M16
G05
G00X8.8839Y-4.4291
M15
G01X8.9114Y-4.4291
M16
G05
G00X9.0807Y-2.4785
M15
G01X9.1083Y-2.4782
M16
G05
G00X9.0807Y-3.2285
M15
G01X9.1083Y-3.2282
M16
G05
G00X9.0807Y-3.9785
M15
G01X9.1083Y-3.9782
M16
G05
T3
G00X7.935Y-2.8504
M15
G01X7.9587Y-2.8504
M16
G05
G00X7.935Y-3.6004
M15
G01X7.9587Y-3.6004
M16
G05
G00X7.935Y-4.3504
M15
G01X7.9587Y-4.3504
M16
G05
G00X8.685Y-2.8504
M15
G01X8.7087Y-2.8504
M16
G05
G00X8.685Y-3.6004
M15
G01X8.7087Y-3.6004
M16
G05
G00X8.685Y-4.3504
M15
G01X8.7087Y-4.3504
M16
G05
T0
M30
