M48
; DRILL file {KiCad (7.0.0)} date Wed Mar 29 20:30:45 2023
; FORMAT={-:-/ absolute / inch / decimal}
; #@! TF.CreationDate,2023-03-29T20:30:45+09:00
; #@! TF.GenerationSoftware,Kicad,Pcbnew,(7.0.0)
; #@! TF.FileFunction,NonPlated,1,2,NPTH
FMAT,2
INCH
; #@! TA.AperFunction,NonPlated,NPTH,ComponentDrill
T1C0.0669
; #@! TA.AperFunction,NonPlated,NPTH,ComponentDrill
T2C0.0709
; #@! TA.AperFunction,NonPlated,NPTH,ComponentDrill
T3C0.0866
; #@! TA.AperFunction,NonPlated,NPTH,ComponentDrill
T4C0.1929
; #@! TA.AperFunction,NonPlated,NPTH,ComponentDrill
T5C0.3937
%
G90
G05
T1
X7.9476Y-2.6969
X7.9476Y-3.4469
X7.9476Y-4.1969
X8.3476Y-2.6969
X8.3476Y-3.4469
X8.3476Y-4.1969
X8.6976Y-2.6969
X8.6976Y-3.4469
X8.6976Y-4.1969
X9.0976Y-2.6969
X9.0976Y-3.4469
X9.0976Y-4.1969
T2
X7.9311Y-2.6969
X7.9311Y-3.4469
X7.9311Y-4.1969
X8.3642Y-2.6969
X8.3642Y-3.4469
X8.3642Y-4.1969
X8.6811Y-2.6969
X8.6811Y-3.4469
X8.6811Y-4.1969
X9.1142Y-2.6969
X9.1142Y-3.4469
X9.1142Y-4.1969
T4
X8.1476Y-2.6969
X8.1476Y-3.4469
X8.1476Y-4.1969
X8.8976Y-2.6969
X8.8976Y-3.4469
X8.8976Y-4.1969
T3
G00X4.5472Y-3.4094
M15
G01X4.5472Y-3.4803
M16
G05
G00X6.9488Y-3.4094
M15
G01X6.9488Y-3.4803
M16
G05
T5
G00X4.8622Y-3.4449
M15
G01X5.1772Y-3.4449
M16
G05
T0
M30
