%TF.GenerationSoftware,KiCad,Pcbnew,(7.0.0)*%
%TF.CreationDate,2023-02-28T08:24:30+09:00*%
%TF.ProjectId,wiokey,77696f6b-6579-42e6-9b69-6361645f7063,rev?*%
%TF.SameCoordinates,Original*%
%TF.FileFunction,Legend,Bot*%
%TF.FilePolarity,Positive*%
%FSLAX46Y46*%
G04 Gerber Fmt 4.6, Leading zero omitted, Abs format (unit mm)*
G04 Created by KiCad (PCBNEW (7.0.0)) date 2023-02-28 08:24:30*
%MOMM*%
%LPD*%
G01*
G04 APERTURE LIST*
%ADD10C,0.150000*%
G04 APERTURE END LIST*
D10*
X133388100Y-99542600D02*
X133438900Y-99110800D01*
X132854700Y-98221800D02*
X132372100Y-98247200D01*
X133972300Y-113436400D02*
G75*
G03*
X134988300Y-112420400I0J1016000D01*
G01*
X127952500Y-104368600D02*
X127596900Y-104673400D01*
X133286500Y-98602800D02*
X132854700Y-98221800D01*
X130213100Y-100152200D02*
X130873500Y-99949000D01*
X131940300Y-100939600D02*
X131559300Y-100711000D01*
X126809500Y-103759000D02*
X127215900Y-103682800D01*
X132143500Y-99593400D02*
X132753100Y-99263200D01*
X133946900Y-101981000D02*
X134048500Y-102616000D01*
X122186700Y-98247200D02*
X122491500Y-98475800D01*
X129349500Y-105181400D02*
X128892300Y-104698800D01*
X131025900Y-100761800D02*
X130848100Y-100990400D01*
X134048500Y-103251000D02*
X133972300Y-103809800D01*
X123558300Y-100787200D02*
X123405900Y-100634800D01*
X126403100Y-104216200D02*
X126453900Y-103911400D01*
X131965700Y-98526600D02*
X132372100Y-98247200D01*
X133413500Y-101041200D02*
X133718300Y-101447600D01*
X127596900Y-105664000D02*
X127165100Y-105537000D01*
X123761500Y-112471200D02*
X123863100Y-111887000D01*
X121348500Y-98272600D02*
X121678700Y-98120200D01*
G36*
X130848100Y-100990400D02*
G01*
X130805300Y-102569400D01*
X128460500Y-102539800D01*
X128587500Y-101828600D01*
X128841500Y-101269800D01*
X129197100Y-100812600D01*
X129679700Y-100431600D01*
X130213100Y-100152200D01*
X130873500Y-99949000D01*
X130848100Y-100990400D01*
G37*
X130848100Y-100990400D02*
X130805300Y-102569400D01*
X128460500Y-102539800D01*
X128587500Y-101828600D01*
X128841500Y-101269800D01*
X129197100Y-100812600D01*
X129679700Y-100431600D01*
X130213100Y-100152200D01*
X130873500Y-99949000D01*
X130848100Y-100990400D01*
X129679700Y-100431600D02*
X130213100Y-100152200D01*
X125844300Y-104902000D02*
X126022100Y-104546400D01*
X122110500Y-105968800D02*
X121551700Y-105765600D01*
X120942100Y-100787200D02*
X121399300Y-100406200D01*
X119240300Y-96291400D02*
X119240300Y-112420400D01*
X120230900Y-102260400D02*
X120357900Y-101727000D01*
G36*
X131203700Y-101930200D02*
G01*
X131457700Y-101981000D01*
X131711700Y-101904800D01*
X131940300Y-101727000D01*
X133832600Y-101714300D01*
X133946900Y-101981000D01*
X134048500Y-102616000D01*
X134048500Y-103251000D01*
X133972300Y-103809800D01*
X133769100Y-104394000D01*
X133337300Y-105105200D01*
X132905500Y-105537000D01*
X132397500Y-105791000D01*
X131787900Y-105968800D01*
X131102100Y-105943400D01*
X129933700Y-105562400D01*
X129349500Y-105181400D01*
X128892300Y-104698800D01*
X128587500Y-104114600D01*
X128460500Y-103352600D01*
X128460500Y-102539800D01*
X130898900Y-101625400D01*
X131203700Y-101930200D01*
G37*
X131203700Y-101930200D02*
X131457700Y-101981000D01*
X131711700Y-101904800D01*
X131940300Y-101727000D01*
X133832600Y-101714300D01*
X133946900Y-101981000D01*
X134048500Y-102616000D01*
X134048500Y-103251000D01*
X133972300Y-103809800D01*
X133769100Y-104394000D01*
X133337300Y-105105200D01*
X132905500Y-105537000D01*
X132397500Y-105791000D01*
X131787900Y-105968800D01*
X131102100Y-105943400D01*
X129933700Y-105562400D01*
X129349500Y-105181400D01*
X128892300Y-104698800D01*
X128587500Y-104114600D01*
X128460500Y-103352600D01*
X128460500Y-102539800D01*
X130898900Y-101625400D01*
X131203700Y-101930200D01*
X133540500Y-104724200D02*
X133337300Y-105105200D01*
X128892300Y-104698800D02*
X128587500Y-104114600D01*
X122745500Y-98933000D02*
X122936000Y-99187000D01*
X120637300Y-111048800D02*
X120662700Y-108712000D01*
X131787900Y-105968800D02*
X131102100Y-105943400D01*
X123126500Y-101752400D02*
X123380500Y-101676200D01*
X127825500Y-106019600D02*
X127762000Y-105714800D01*
X126504700Y-106095800D02*
X126606300Y-106476800D01*
X128841500Y-101269800D02*
X129197100Y-100812600D01*
X129679700Y-98272600D02*
X130492500Y-98526600D01*
X128587500Y-101828600D02*
X128841500Y-101269800D01*
X120789700Y-105105200D02*
X120510300Y-104648000D01*
X132143500Y-99593400D02*
X132295900Y-98983800D01*
X126022100Y-104546400D02*
X126403100Y-104216200D01*
X121246900Y-99898200D02*
X121069100Y-99491800D01*
X135623300Y-113182400D02*
X135623300Y-94767400D01*
X127596900Y-104673400D02*
X127241300Y-104775000D01*
X126834900Y-106680000D02*
X127215900Y-106756200D01*
X120129300Y-95402400D02*
G75*
G03*
X119240300Y-96291400I0J-889000D01*
G01*
X121907300Y-100101400D02*
X122440700Y-99974400D01*
X133845300Y-106680000D02*
X133769100Y-104394000D01*
X123685300Y-101295200D02*
X123659900Y-101041200D01*
X121678700Y-98120200D02*
X122186700Y-98247200D01*
G36*
X137274300Y-110261400D02*
G01*
X137274300Y-111023400D01*
X135623300Y-111531400D01*
X135623300Y-109880400D01*
X137274300Y-110261400D01*
G37*
X137274300Y-110261400D02*
X137274300Y-111023400D01*
X135623300Y-111531400D01*
X135623300Y-109880400D01*
X137274300Y-110261400D01*
X123405900Y-99898200D02*
X124193300Y-100076000D01*
X130009900Y-109626400D02*
X130416300Y-110159800D01*
X126733300Y-105587800D02*
X126428500Y-105638600D01*
X120662700Y-108712000D02*
X120688100Y-107619800D01*
X125768100Y-103276400D02*
X125615700Y-103886000D01*
X131940300Y-101727000D02*
X132041900Y-101447600D01*
X125463300Y-108737400D02*
X125996700Y-108508800D01*
X128612900Y-105029000D02*
X128587500Y-105435400D01*
G36*
X118605300Y-99417883D02*
G01*
X116954300Y-99036883D01*
X116954300Y-98274883D01*
X118605300Y-97766883D01*
X118605300Y-99417883D01*
G37*
X118605300Y-99417883D02*
X116954300Y-99036883D01*
X116954300Y-98274883D01*
X118605300Y-97766883D01*
X118605300Y-99417883D01*
X124193300Y-100076000D02*
X124625100Y-100330000D01*
X129933700Y-105562400D02*
X129349500Y-105181400D01*
X133769100Y-113004600D02*
X133819900Y-112344200D01*
X131203700Y-101930200D02*
X131457700Y-101981000D01*
X127241300Y-104775000D02*
X126834900Y-104673400D01*
X123863100Y-111887000D02*
X124091700Y-111023400D01*
X134099300Y-95402400D02*
X120129300Y-95402400D01*
X128333500Y-105714800D02*
X127927100Y-105765600D01*
X126453900Y-103911400D02*
X126809500Y-103759000D01*
X125844300Y-105283000D02*
X125844300Y-104902000D01*
X128714500Y-108585000D02*
X129451100Y-109093000D01*
X120637300Y-101219000D02*
X120942100Y-100787200D01*
X128841500Y-98145600D02*
X129679700Y-98272600D01*
X125006100Y-105003600D02*
X124523500Y-105410000D01*
X119240300Y-112420400D02*
G75*
G03*
X120256300Y-113436400I1016000J0D01*
G01*
X130492500Y-105765600D02*
X129933700Y-105562400D01*
X133438900Y-99110800D02*
X133286500Y-98602800D01*
X132041900Y-101447600D02*
X132041900Y-101142800D01*
X132829300Y-100457000D02*
X133261100Y-99898200D01*
G36*
X137274300Y-104165400D02*
G01*
X137274300Y-104927400D01*
X135623300Y-105435400D01*
X135623300Y-103784400D01*
X137274300Y-104165400D01*
G37*
X137274300Y-104165400D02*
X137274300Y-104927400D01*
X135623300Y-105435400D01*
X135623300Y-103784400D01*
X137274300Y-104165400D01*
X127165100Y-105537000D02*
X126733300Y-105587800D01*
X122542300Y-101269800D02*
X122669300Y-101498400D01*
X127901700Y-103835200D02*
X128079500Y-104140000D01*
X132829300Y-100457000D02*
X132295900Y-100126800D01*
X132397500Y-105791000D02*
X131787900Y-105968800D01*
X124091700Y-111023400D02*
X124294900Y-110388400D01*
X125564900Y-101600000D02*
X125691900Y-102158800D01*
X120713500Y-112979200D02*
X120637300Y-111048800D01*
X131279900Y-100660200D02*
X131025900Y-100761800D01*
X119494300Y-93751400D02*
G75*
G03*
X118605300Y-94640400I0J-889000D01*
G01*
G36*
X123151900Y-100533200D02*
G01*
X122897900Y-100558600D01*
X122669300Y-100736400D01*
X122542300Y-100965000D01*
X122542300Y-101269800D01*
X122669300Y-101498400D01*
X122872500Y-101676200D01*
X123126500Y-101752400D01*
X123380500Y-101676200D01*
X123558300Y-101523800D01*
X123685300Y-101295200D01*
X123659900Y-101041200D01*
X123558300Y-100787200D01*
X124193300Y-100076000D01*
X124625100Y-100330000D01*
X125285500Y-101066600D01*
X125564900Y-101600000D01*
X125691900Y-102158800D01*
X125768100Y-102717600D01*
X125768100Y-103276400D01*
X125615700Y-103886000D01*
X125412500Y-104444800D01*
X125006100Y-105003600D01*
X124523500Y-105410000D01*
X123990100Y-105714800D01*
X123431300Y-105968800D01*
X122770900Y-105994200D01*
X122110500Y-105968800D01*
X121551700Y-105765600D01*
X121094500Y-105486200D01*
X120789700Y-105105200D01*
X120510300Y-104648000D01*
X120332500Y-104165400D01*
X120154700Y-102844600D01*
X120357900Y-101727000D01*
X120637300Y-101219000D01*
X120942100Y-100787200D01*
X121399300Y-100406200D01*
X121907300Y-100101400D01*
X122745500Y-99923600D01*
X123405900Y-99898200D01*
X123151900Y-100533200D01*
G37*
X123151900Y-100533200D02*
X122897900Y-100558600D01*
X122669300Y-100736400D01*
X122542300Y-100965000D01*
X122542300Y-101269800D01*
X122669300Y-101498400D01*
X122872500Y-101676200D01*
X123126500Y-101752400D01*
X123380500Y-101676200D01*
X123558300Y-101523800D01*
X123685300Y-101295200D01*
X123659900Y-101041200D01*
X123558300Y-100787200D01*
X124193300Y-100076000D01*
X124625100Y-100330000D01*
X125285500Y-101066600D01*
X125564900Y-101600000D01*
X125691900Y-102158800D01*
X125768100Y-102717600D01*
X125768100Y-103276400D01*
X125615700Y-103886000D01*
X125412500Y-104444800D01*
X125006100Y-105003600D01*
X124523500Y-105410000D01*
X123990100Y-105714800D01*
X123431300Y-105968800D01*
X122770900Y-105994200D01*
X122110500Y-105968800D01*
X121551700Y-105765600D01*
X121094500Y-105486200D01*
X120789700Y-105105200D01*
X120510300Y-104648000D01*
X120332500Y-104165400D01*
X120154700Y-102844600D01*
X120357900Y-101727000D01*
X120637300Y-101219000D01*
X120942100Y-100787200D01*
X121399300Y-100406200D01*
X121907300Y-100101400D01*
X122745500Y-99923600D01*
X123405900Y-99898200D01*
X123151900Y-100533200D01*
X127952500Y-104368600D02*
X128358900Y-104673400D01*
X122440700Y-99974400D02*
X122745500Y-99923600D01*
X120789700Y-105105200D02*
X121094500Y-105486200D01*
X124523500Y-109702600D02*
X124955300Y-109143800D01*
G36*
X137274300Y-108229400D02*
G01*
X137274300Y-108991400D01*
X135623300Y-109499400D01*
X135623300Y-107848400D01*
X137274300Y-108229400D01*
G37*
X137274300Y-108229400D02*
X137274300Y-108991400D01*
X135623300Y-109499400D01*
X135623300Y-107848400D01*
X137274300Y-108229400D01*
X133718300Y-101447600D02*
X133946900Y-101981000D01*
X131102100Y-105943400D02*
X130492500Y-105765600D01*
G36*
X124193300Y-100076000D02*
G01*
X123558300Y-100787200D01*
X123405900Y-100634800D01*
X123151900Y-100533200D01*
X123405900Y-99898200D01*
X124193300Y-100076000D01*
G37*
X124193300Y-100076000D02*
X123558300Y-100787200D01*
X123405900Y-100634800D01*
X123151900Y-100533200D01*
X123405900Y-99898200D01*
X124193300Y-100076000D01*
X130416300Y-110159800D02*
X130771900Y-110693200D01*
X130822700Y-101523800D02*
X130975100Y-101727000D01*
X123990100Y-105714800D02*
X123431300Y-105968800D01*
X120256300Y-113436400D02*
X133972300Y-113436400D01*
X126225300Y-93751400D02*
G75*
G03*
X128003300Y-93751400I889000J0D01*
G01*
X131457700Y-101981000D02*
X131711700Y-101904800D01*
X130975100Y-101727000D02*
X131203700Y-101930200D01*
G36*
X118605300Y-103403400D02*
G01*
X116954300Y-103022400D01*
X116954300Y-102260400D01*
X118605300Y-101752400D01*
X118605300Y-103403400D01*
G37*
X118605300Y-103403400D02*
X116954300Y-103022400D01*
X116954300Y-102260400D01*
X118605300Y-101752400D01*
X118605300Y-103403400D01*
X120154700Y-102844600D02*
X120230900Y-102260400D01*
X133261100Y-99898200D02*
X133388100Y-99542600D01*
X126225300Y-93751400D02*
X119494300Y-93751400D01*
X124955300Y-109143800D02*
X125463300Y-108737400D01*
X122745500Y-99923600D02*
X123405900Y-99898200D01*
X123380500Y-101676200D02*
X123558300Y-101523800D01*
X130822700Y-101269800D02*
X130822700Y-101523800D01*
X126555500Y-108356400D02*
X126987300Y-108356400D01*
X123228100Y-98983800D02*
X123990100Y-98602800D01*
X124828300Y-98323400D02*
X125818900Y-98171000D01*
X123405900Y-100634800D02*
X123151900Y-100533200D01*
X125691900Y-102158800D02*
X125768100Y-102717600D01*
X124625100Y-100330000D02*
X124980700Y-100711000D01*
X121399300Y-100406200D02*
X121907300Y-100101400D01*
X121551700Y-105765600D02*
X121094500Y-105486200D01*
G36*
X118605300Y-97307400D02*
G01*
X116954300Y-96926400D01*
X116954300Y-96164400D01*
X118605300Y-95656400D01*
X118605300Y-97307400D01*
G37*
X118605300Y-97307400D02*
X116954300Y-96926400D01*
X116954300Y-96164400D01*
X118605300Y-95656400D01*
X118605300Y-97307400D01*
X125768100Y-102717600D02*
X125768100Y-103276400D01*
G36*
X137274300Y-96164400D02*
G01*
X137274300Y-96926400D01*
X135623300Y-97434400D01*
X135623300Y-95783400D01*
X137274300Y-96164400D01*
G37*
X137274300Y-96164400D02*
X137274300Y-96926400D01*
X135623300Y-97434400D01*
X135623300Y-95783400D01*
X137274300Y-96164400D01*
X134734300Y-114071400D02*
G75*
G03*
X135623300Y-113182400I0J889000D01*
G01*
X131546600Y-99085400D02*
X131965700Y-98526600D01*
X133972300Y-103809800D02*
X133769100Y-104394000D01*
X133819900Y-109220000D02*
X133845300Y-106680000D01*
X130492500Y-98526600D02*
X131203700Y-98831400D01*
X128130300Y-108407200D02*
X128714500Y-108585000D01*
X130848100Y-100990400D02*
X130822700Y-101269800D01*
X121907300Y-100101400D02*
X122135900Y-99872800D01*
X133337300Y-105105200D02*
X132905500Y-105537000D01*
X126911100Y-98044000D02*
X127927100Y-98069400D01*
X128460500Y-103352600D02*
X128460500Y-102539800D01*
X123659900Y-101041200D02*
X123558300Y-100787200D01*
X133819900Y-112344200D02*
X133819900Y-109220000D01*
X124980700Y-100711000D02*
X125285500Y-101066600D01*
X134048500Y-102616000D02*
X134048500Y-103251000D01*
X126606300Y-104521000D02*
X126403100Y-104216200D01*
X128358900Y-104673400D02*
X128612900Y-105029000D01*
X118605300Y-94640400D02*
X118605300Y-113055400D01*
X134607300Y-93751400D02*
X128003300Y-93751400D01*
X126428500Y-105638600D02*
X126072900Y-105613200D01*
X123558300Y-101523800D02*
X123685300Y-101295200D01*
X127215900Y-103682800D02*
X127596900Y-103682800D01*
X125412500Y-104444800D02*
X125006100Y-105003600D01*
X134988300Y-112420400D02*
X134988300Y-96291400D01*
X122669300Y-100736400D02*
X122542300Y-100965000D01*
X133769100Y-104394000D02*
X133540500Y-104724200D01*
X131889500Y-99339400D02*
X132397500Y-99847400D01*
X128079500Y-104140000D02*
X127952500Y-104368600D01*
X122770900Y-105994200D02*
X122110500Y-105968800D01*
X122897900Y-100558600D02*
X122669300Y-100736400D01*
X126834900Y-104673400D02*
X126606300Y-104521000D01*
X122669300Y-101498400D02*
X122872500Y-101676200D01*
X121043700Y-98628200D02*
X121348500Y-98272600D01*
G36*
X118605300Y-107467400D02*
G01*
X116954300Y-107086400D01*
X116954300Y-106324400D01*
X118605300Y-105816400D01*
X118605300Y-107467400D01*
G37*
X118605300Y-107467400D02*
X116954300Y-107086400D01*
X116954300Y-106324400D01*
X118605300Y-105816400D01*
X118605300Y-107467400D01*
X125996700Y-108508800D02*
X126555500Y-108356400D01*
X123431300Y-105968800D02*
X122770900Y-105994200D01*
X131711700Y-101904800D02*
X131940300Y-101727000D01*
X127927100Y-98069400D02*
X128841500Y-98145600D01*
X121653300Y-100253800D02*
X121246900Y-99898200D01*
X122872500Y-101676200D02*
X123126500Y-101752400D01*
G36*
X132295900Y-100126800D02*
G01*
X132829300Y-100457000D01*
X133159500Y-100685600D01*
X133718300Y-101447600D01*
X133832600Y-101714300D01*
X131940300Y-101727000D01*
X132041900Y-101447600D01*
X132041900Y-101142800D01*
X131940300Y-100939600D01*
X131559300Y-100711000D01*
X131279900Y-100660200D01*
X131025900Y-100761800D01*
X130815300Y-100909400D01*
X130873500Y-99949000D01*
X131686300Y-99949000D01*
X132295900Y-100126800D01*
G37*
X132295900Y-100126800D02*
X132829300Y-100457000D01*
X133159500Y-100685600D01*
X133718300Y-101447600D01*
X133832600Y-101714300D01*
X131940300Y-101727000D01*
X132041900Y-101447600D01*
X132041900Y-101142800D01*
X131940300Y-100939600D01*
X131559300Y-100711000D01*
X131279900Y-100660200D01*
X131025900Y-100761800D01*
X130815300Y-100909400D01*
X130873500Y-99949000D01*
X131686300Y-99949000D01*
X132295900Y-100126800D01*
X132905500Y-105537000D02*
X132397500Y-105791000D01*
X132041900Y-101142800D02*
X131940300Y-100939600D01*
X130873500Y-99949000D02*
X131686300Y-99949000D01*
X129451100Y-109093000D02*
X130009900Y-109626400D01*
X121069100Y-99491800D02*
X120916700Y-99161600D01*
X126428500Y-105638600D02*
X126504700Y-106095800D01*
X127215900Y-106756200D02*
X127571500Y-106603800D01*
X123990100Y-98602800D02*
X124828300Y-98323400D01*
X126606300Y-106476800D02*
X126834900Y-106680000D01*
X125818900Y-98171000D02*
X126911100Y-98044000D01*
X122135900Y-99872800D02*
X121780300Y-98983800D01*
X126072900Y-105613200D02*
X125844300Y-105283000D01*
G36*
X118605300Y-101430619D02*
G01*
X116954300Y-101049619D01*
X116954300Y-100287619D01*
X118605300Y-99779619D01*
X118605300Y-101430619D01*
G37*
X118605300Y-101430619D02*
X116954300Y-101049619D01*
X116954300Y-100287619D01*
X118605300Y-99779619D01*
X118605300Y-101430619D01*
X130771900Y-110693200D02*
X130924300Y-111150400D01*
X132295900Y-100126800D02*
X131686300Y-99949000D01*
X134988300Y-96291400D02*
G75*
G03*
X134099300Y-95402400I-889000J0D01*
G01*
X127774700Y-106375200D02*
X127825500Y-106019600D01*
X128587500Y-104114600D02*
X128460500Y-103352600D01*
X124523500Y-105410000D02*
X123990100Y-105714800D01*
X135623300Y-94767400D02*
G75*
G03*
X134607300Y-93751400I-1016000J0D01*
G01*
X127596900Y-108381800D02*
X128130300Y-108407200D01*
X129197100Y-100812600D02*
X129679700Y-100431600D01*
G36*
X137274300Y-98196400D02*
G01*
X137274300Y-98958400D01*
X135623300Y-99466400D01*
X135623300Y-97815400D01*
X137274300Y-98196400D01*
G37*
X137274300Y-98196400D02*
X137274300Y-98958400D01*
X135623300Y-99466400D01*
X135623300Y-97815400D01*
X137274300Y-98196400D01*
X131203700Y-98831400D02*
X131889500Y-99339400D01*
X133159500Y-100685600D02*
X133413500Y-101041200D01*
X132397500Y-99847400D02*
X132829300Y-100457000D01*
X126987300Y-108356400D02*
X127596900Y-108381800D01*
X122135900Y-99872800D02*
X122643900Y-99390200D01*
X120510300Y-104648000D02*
X120332500Y-104165400D01*
G36*
X118605300Y-109499400D02*
G01*
X116954300Y-109118400D01*
X116954300Y-108356400D01*
X118605300Y-107848400D01*
X118605300Y-109499400D01*
G37*
X118605300Y-109499400D02*
X116954300Y-109118400D01*
X116954300Y-108356400D01*
X118605300Y-107848400D01*
X118605300Y-109499400D01*
X122542300Y-100965000D02*
X122542300Y-101269800D01*
G36*
X118605300Y-105435400D02*
G01*
X116954300Y-105054400D01*
X116954300Y-104292400D01*
X118605300Y-103784400D01*
X118605300Y-105435400D01*
G37*
X118605300Y-105435400D02*
X116954300Y-105054400D01*
X116954300Y-104292400D01*
X118605300Y-103784400D01*
X118605300Y-105435400D01*
X128587500Y-105435400D02*
X128333500Y-105714800D01*
X127596900Y-103682800D02*
X127901700Y-103835200D01*
X125615700Y-103886000D02*
X125412500Y-104444800D01*
X124294900Y-110388400D02*
X124523500Y-109702600D01*
X127927100Y-105765600D02*
X127596900Y-105664000D01*
G36*
X137274300Y-106197400D02*
G01*
X137274300Y-106959400D01*
X135623300Y-107467400D01*
X135623300Y-105816400D01*
X137274300Y-106197400D01*
G37*
X137274300Y-106197400D02*
X137274300Y-106959400D01*
X135623300Y-107467400D01*
X135623300Y-105816400D01*
X137274300Y-106197400D01*
X122491500Y-98475800D02*
X122745500Y-98933000D01*
X128460500Y-102539800D02*
X128587500Y-101828600D01*
X118605300Y-113055400D02*
G75*
G03*
X119621300Y-114071400I1016000J0D01*
G01*
X119621300Y-114071400D02*
X134734300Y-114071400D01*
X122135900Y-99872800D02*
X121526300Y-99618800D01*
X130924300Y-111150400D02*
X131051300Y-111760000D01*
G36*
X137274300Y-102260400D02*
G01*
X137274300Y-103022400D01*
X135623300Y-103530400D01*
X135623300Y-101879400D01*
X137274300Y-102260400D01*
G37*
X137274300Y-102260400D02*
X137274300Y-103022400D01*
X135623300Y-103530400D01*
X135623300Y-101879400D01*
X137274300Y-102260400D01*
X122643900Y-99390200D02*
X123228100Y-98983800D01*
X123761500Y-112903000D02*
X123761500Y-112471200D01*
X131051300Y-111760000D02*
X131076700Y-112445800D01*
X132829300Y-100457000D02*
X133159500Y-100685600D01*
X120357900Y-101727000D02*
X120637300Y-101219000D01*
G36*
X118605300Y-111531400D02*
G01*
X116954300Y-111150400D01*
X116954300Y-110388400D01*
X118605300Y-109880400D01*
X118605300Y-111531400D01*
G37*
X118605300Y-111531400D02*
X116954300Y-111150400D01*
X116954300Y-110388400D01*
X118605300Y-109880400D01*
X118605300Y-111531400D01*
G36*
X137274300Y-100101400D02*
G01*
X137274300Y-100863400D01*
X135623300Y-101371400D01*
X135623300Y-99720400D01*
X137274300Y-100101400D01*
G37*
X137274300Y-100101400D02*
X137274300Y-100863400D01*
X135623300Y-101371400D01*
X135623300Y-99720400D01*
X137274300Y-100101400D01*
X131076700Y-112445800D02*
X131051300Y-112928400D01*
X123151900Y-100533200D02*
X122897900Y-100558600D01*
X120332500Y-104165400D02*
X120230900Y-103505000D01*
X127571500Y-106603800D02*
X127774700Y-106375200D01*
X131559300Y-100711000D02*
X131279900Y-100660200D01*
X120916700Y-99161600D02*
X121043700Y-98628200D01*
X120230900Y-103505000D02*
X120154700Y-102844600D01*
X125285500Y-101066600D02*
X125564900Y-101600000D01*
X120688100Y-107619800D02*
X120789700Y-105105200D01*
G36*
X174191172Y-61653998D02*
G01*
X174168351Y-61636364D01*
X174145136Y-61620464D01*
X174121525Y-61606299D01*
X174097520Y-61593869D01*
X174073119Y-61583172D01*
X174048324Y-61574211D01*
X174023134Y-61566984D01*
X173997548Y-61561491D01*
X173971568Y-61557733D01*
X173945193Y-61555709D01*
X173927390Y-61555324D01*
X173905709Y-61555709D01*
X173884632Y-61556866D01*
X173864157Y-61558793D01*
X173844286Y-61561491D01*
X173825017Y-61564960D01*
X173797245Y-61571609D01*
X173770830Y-61579993D01*
X173745771Y-61590110D01*
X173722069Y-61601963D01*
X173699724Y-61615550D01*
X173678735Y-61630871D01*
X173659103Y-61647927D01*
X173652861Y-61653998D01*
X173637147Y-61670871D01*
X173622979Y-61688516D01*
X173610357Y-61706935D01*
X173599280Y-61726126D01*
X173589749Y-61746090D01*
X173581763Y-61766827D01*
X173575323Y-61788336D01*
X173570429Y-61810619D01*
X173567080Y-61833674D01*
X173565277Y-61857502D01*
X173564933Y-61873817D01*
X173564933Y-63203963D01*
X173872679Y-63203963D01*
X173872679Y-61939762D01*
X173873478Y-61919965D01*
X173876546Y-61898350D01*
X173881916Y-61879070D01*
X173891089Y-61859528D01*
X173903394Y-61843166D01*
X173905408Y-61841088D01*
X173922020Y-61828145D01*
X173942794Y-61818381D01*
X173963911Y-61812542D01*
X173983844Y-61809461D01*
X174005900Y-61808001D01*
X174015317Y-61807871D01*
X174034948Y-61808901D01*
X174055251Y-61811993D01*
X174076225Y-61817145D01*
X174097871Y-61824357D01*
X174120189Y-61833631D01*
X174143178Y-61844965D01*
X174160861Y-61854819D01*
X174178921Y-61865831D01*
X174191172Y-61873817D01*
X174191172Y-63203963D01*
X174498918Y-63203963D01*
X174498918Y-60961814D01*
X174191172Y-60961814D01*
X174191172Y-61653998D01*
G37*
G36*
X172506385Y-61577306D02*
G01*
X172253838Y-61577306D01*
X172253838Y-61889448D01*
X172506385Y-61889448D01*
X172506385Y-62863000D01*
X172504775Y-62885235D01*
X172498592Y-62906942D01*
X172487773Y-62923222D01*
X172469290Y-62935357D01*
X172448425Y-62939879D01*
X172440439Y-62940181D01*
X172275819Y-62940181D01*
X172275819Y-63203963D01*
X172594312Y-63203963D01*
X172620931Y-63203061D01*
X172645832Y-63200353D01*
X172669016Y-63195840D01*
X172690483Y-63189522D01*
X172710232Y-63181399D01*
X172728264Y-63171471D01*
X172744579Y-63159738D01*
X172759176Y-63146200D01*
X172772056Y-63130856D01*
X172783219Y-63113708D01*
X172792664Y-63094754D01*
X172800392Y-63073995D01*
X172806403Y-63051432D01*
X172810696Y-63027063D01*
X172813272Y-63000889D01*
X172814131Y-62972909D01*
X172814131Y-61889448D01*
X173055931Y-61889448D01*
X173055931Y-61577306D01*
X172814131Y-61577306D01*
X172814131Y-60961814D01*
X172506385Y-60961814D01*
X172506385Y-61577306D01*
G37*
G36*
X171107362Y-61577306D02*
G01*
X170854814Y-61577306D01*
X170854814Y-61889448D01*
X171107362Y-61889448D01*
X171107362Y-62863000D01*
X171105752Y-62885235D01*
X171099569Y-62906942D01*
X171088750Y-62923222D01*
X171070267Y-62935357D01*
X171049402Y-62939879D01*
X171041416Y-62940181D01*
X170876796Y-62940181D01*
X170876796Y-63203963D01*
X171195289Y-63203963D01*
X171221908Y-63203061D01*
X171246809Y-63200353D01*
X171269993Y-63195840D01*
X171291460Y-63189522D01*
X171311209Y-63181399D01*
X171329241Y-63171471D01*
X171345556Y-63159738D01*
X171360153Y-63146200D01*
X171373033Y-63130856D01*
X171384196Y-63113708D01*
X171393641Y-63094754D01*
X171401369Y-63073995D01*
X171407380Y-63051432D01*
X171411673Y-63027063D01*
X171414249Y-63000889D01*
X171415108Y-62972909D01*
X171415108Y-61889448D01*
X171656908Y-61889448D01*
X171656908Y-61577306D01*
X171415108Y-61577306D01*
X171415108Y-60961814D01*
X171107362Y-60961814D01*
X171107362Y-61577306D01*
G37*
G36*
X169735170Y-61556097D02*
G01*
X169761994Y-61558415D01*
X169788808Y-61562279D01*
X169815615Y-61567689D01*
X169842412Y-61574644D01*
X169869201Y-61583145D01*
X169895981Y-61593191D01*
X169922753Y-61604783D01*
X169940596Y-61613370D01*
X169958436Y-61622643D01*
X169976271Y-61632604D01*
X169994103Y-61643251D01*
X169994103Y-61577306D01*
X170301849Y-61577306D01*
X170301849Y-63544926D01*
X169994103Y-63544926D01*
X169994103Y-63148764D01*
X169987169Y-63153513D01*
X169965595Y-63166854D01*
X169942862Y-63178838D01*
X169918969Y-63189465D01*
X169893918Y-63198736D01*
X169867707Y-63206650D01*
X169840337Y-63213207D01*
X169811808Y-63218408D01*
X169792144Y-63221121D01*
X169771966Y-63223232D01*
X169751272Y-63224739D01*
X169730063Y-63225644D01*
X169708339Y-63225945D01*
X169697444Y-63225870D01*
X169676237Y-63225267D01*
X169655805Y-63224061D01*
X169626609Y-63221121D01*
X169599156Y-63216825D01*
X169573446Y-63211172D01*
X169549479Y-63204163D01*
X169527255Y-63195796D01*
X169506775Y-63186073D01*
X169488037Y-63174994D01*
X169471043Y-63162557D01*
X169455791Y-63148764D01*
X169451043Y-63143863D01*
X169437702Y-63127866D01*
X169425718Y-63109929D01*
X169415091Y-63090051D01*
X169405820Y-63068232D01*
X169397906Y-63044473D01*
X169391349Y-63018773D01*
X169386148Y-62991132D01*
X169383435Y-62971627D01*
X169381324Y-62951260D01*
X169379817Y-62930030D01*
X169378912Y-62907937D01*
X169378611Y-62884982D01*
X169378611Y-62852254D01*
X169686357Y-62852254D01*
X169686876Y-62865595D01*
X169690282Y-62887327D01*
X169696867Y-62907002D01*
X169706631Y-62924620D01*
X169719574Y-62940181D01*
X169730350Y-62949610D01*
X169747280Y-62960125D01*
X169766361Y-62967508D01*
X169787592Y-62971759D01*
X169807501Y-62972909D01*
X169827193Y-62971879D01*
X169847923Y-62968788D01*
X169869691Y-62963636D01*
X169892498Y-62956423D01*
X169916342Y-62947149D01*
X169934906Y-62938842D01*
X169954054Y-62929375D01*
X169973787Y-62918749D01*
X169994103Y-62906964D01*
X169994103Y-61829853D01*
X169987255Y-61826487D01*
X169966969Y-61817030D01*
X169947069Y-61808535D01*
X169927556Y-61801002D01*
X169908429Y-61794430D01*
X169889689Y-61788820D01*
X169865303Y-61782836D01*
X169841604Y-61778562D01*
X169818591Y-61775997D01*
X169796266Y-61775143D01*
X169776900Y-61775915D01*
X169757215Y-61778770D01*
X169736509Y-61785532D01*
X169719574Y-61797124D01*
X169710004Y-61807901D01*
X169699332Y-61824831D01*
X169691839Y-61843911D01*
X169687524Y-61865142D01*
X169686357Y-61885052D01*
X169686357Y-62852254D01*
X169378611Y-62852254D01*
X169378611Y-61895799D01*
X169378954Y-61875521D01*
X169380757Y-61846227D01*
X169384106Y-61818282D01*
X169389001Y-61791685D01*
X169395441Y-61766436D01*
X169403426Y-61742535D01*
X169412957Y-61719982D01*
X169424034Y-61698777D01*
X169436657Y-61678920D01*
X169450825Y-61660412D01*
X169466538Y-61643251D01*
X169477787Y-61632604D01*
X169495625Y-61617921D01*
X169514623Y-61604783D01*
X169534781Y-61593191D01*
X169556097Y-61583145D01*
X169578573Y-61574644D01*
X169602207Y-61567689D01*
X169627001Y-61562279D01*
X169652955Y-61558415D01*
X169680067Y-61556097D01*
X169708339Y-61555324D01*
X169735170Y-61556097D01*
G37*
G36*
X168474424Y-61555324D02*
G01*
X168445973Y-61555795D01*
X168418385Y-61557209D01*
X168391660Y-61559566D01*
X168365797Y-61562865D01*
X168340796Y-61567107D01*
X168316658Y-61572291D01*
X168293383Y-61578418D01*
X168270969Y-61585488D01*
X168249419Y-61593500D01*
X168228731Y-61602455D01*
X168208905Y-61612353D01*
X168189942Y-61623193D01*
X168171841Y-61634976D01*
X168154603Y-61647701D01*
X168138227Y-61661369D01*
X168122714Y-61675980D01*
X168108002Y-61691379D01*
X168094153Y-61707289D01*
X168081166Y-61723710D01*
X168069042Y-61740643D01*
X168057780Y-61758088D01*
X168047380Y-61776043D01*
X168037843Y-61794510D01*
X168029169Y-61813489D01*
X168021357Y-61832978D01*
X168014408Y-61852980D01*
X168008321Y-61873492D01*
X168003096Y-61894516D01*
X167998734Y-61916052D01*
X167995234Y-61938098D01*
X167992597Y-61960656D01*
X167990823Y-61983726D01*
X168276587Y-62027690D01*
X168276973Y-62007661D01*
X168278691Y-61982760D01*
X168281782Y-61959919D01*
X168286247Y-61939140D01*
X168292086Y-61920421D01*
X168301317Y-61899920D01*
X168312694Y-61882639D01*
X168320551Y-61873817D01*
X168337922Y-61858055D01*
X168355842Y-61844965D01*
X168374310Y-61834547D01*
X168393327Y-61826800D01*
X168412893Y-61821724D01*
X168433007Y-61819320D01*
X168441207Y-61819106D01*
X168464240Y-61819905D01*
X168485104Y-61822302D01*
X168507274Y-61827288D01*
X168526320Y-61834576D01*
X168544589Y-61845986D01*
X168551116Y-61851835D01*
X168566057Y-61869094D01*
X168577906Y-61887899D01*
X168586665Y-61908249D01*
X168592332Y-61930145D01*
X168594693Y-61949572D01*
X168595080Y-61961744D01*
X168591645Y-61987733D01*
X168584561Y-62008798D01*
X168573613Y-62031210D01*
X168558801Y-62054971D01*
X168546780Y-62071560D01*
X168533041Y-62088749D01*
X168517585Y-62106537D01*
X168500412Y-62124924D01*
X168481521Y-62143910D01*
X168460913Y-62163495D01*
X168438588Y-62183679D01*
X168414545Y-62204463D01*
X168388785Y-62225846D01*
X168375261Y-62236762D01*
X168354897Y-62253162D01*
X168334961Y-62269391D01*
X168315452Y-62285448D01*
X168296371Y-62301333D01*
X168277717Y-62317047D01*
X168259490Y-62332589D01*
X168241691Y-62347959D01*
X168224319Y-62363157D01*
X168207375Y-62378184D01*
X168190858Y-62393039D01*
X168174768Y-62407722D01*
X168159106Y-62422233D01*
X168143872Y-62436573D01*
X168129064Y-62450741D01*
X168114685Y-62464737D01*
X168100732Y-62478562D01*
X168084761Y-62495262D01*
X168069820Y-62512390D01*
X168055910Y-62529945D01*
X168043030Y-62547927D01*
X168031180Y-62566337D01*
X168020361Y-62585174D01*
X168010572Y-62604439D01*
X168001814Y-62624131D01*
X167994086Y-62644250D01*
X167987388Y-62664797D01*
X167981721Y-62685771D01*
X167977084Y-62707173D01*
X167973478Y-62729002D01*
X167970902Y-62751259D01*
X167969356Y-62773943D01*
X167968841Y-62797055D01*
X167969312Y-62818823D01*
X167970726Y-62840163D01*
X167973083Y-62861077D01*
X167976382Y-62881563D01*
X167980624Y-62901621D01*
X167985808Y-62921252D01*
X167991935Y-62940456D01*
X167999005Y-62959232D01*
X168007017Y-62977581D01*
X168015972Y-62995502D01*
X168025870Y-63012996D01*
X168036710Y-63030062D01*
X168048493Y-63046701D01*
X168061218Y-63062913D01*
X168074886Y-63078697D01*
X168089497Y-63094054D01*
X168106241Y-63110025D01*
X168123500Y-63124966D01*
X168141275Y-63138876D01*
X168159564Y-63151756D01*
X168178369Y-63163606D01*
X168197689Y-63174425D01*
X168217524Y-63184214D01*
X168237875Y-63192972D01*
X168258740Y-63200700D01*
X168280121Y-63207398D01*
X168302017Y-63213065D01*
X168324428Y-63217702D01*
X168347354Y-63221308D01*
X168370796Y-63223884D01*
X168394753Y-63225430D01*
X168419225Y-63225945D01*
X168447675Y-63225472D01*
X168475263Y-63224052D01*
X168501989Y-63221686D01*
X168527852Y-63218374D01*
X168552852Y-63214115D01*
X168576990Y-63208909D01*
X168600266Y-63202757D01*
X168622679Y-63195659D01*
X168644230Y-63187614D01*
X168664918Y-63178623D01*
X168684744Y-63168685D01*
X168703707Y-63157801D01*
X168721807Y-63145971D01*
X168739046Y-63133194D01*
X168755421Y-63119470D01*
X168770935Y-63104801D01*
X168785690Y-63089245D01*
X168799671Y-63072744D01*
X168812877Y-63055296D01*
X168825309Y-63036901D01*
X168836966Y-63017560D01*
X168847848Y-62997273D01*
X168857956Y-62976039D01*
X168867288Y-62953859D01*
X168875846Y-62930732D01*
X168883630Y-62906659D01*
X168890638Y-62881639D01*
X168896872Y-62855673D01*
X168902331Y-62828760D01*
X168907016Y-62800901D01*
X168910926Y-62772096D01*
X168914061Y-62742344D01*
X168617062Y-62687145D01*
X168616482Y-62713303D01*
X168614743Y-62738104D01*
X168611845Y-62761549D01*
X168607788Y-62783637D01*
X168602572Y-62804368D01*
X168596196Y-62823742D01*
X168585892Y-62847464D01*
X168573527Y-62868774D01*
X168559102Y-62887673D01*
X168551116Y-62896217D01*
X168533745Y-62911979D01*
X168515825Y-62925068D01*
X168497356Y-62935487D01*
X168478339Y-62943234D01*
X168458774Y-62948310D01*
X168438659Y-62950714D01*
X168430460Y-62950928D01*
X168407152Y-62949854D01*
X168385466Y-62946634D01*
X168365402Y-62941268D01*
X168346959Y-62933754D01*
X168326970Y-62921905D01*
X168309316Y-62906964D01*
X168296650Y-62891890D01*
X168286132Y-62874144D01*
X168277760Y-62853727D01*
X168271534Y-62830638D01*
X168268100Y-62810244D01*
X168266039Y-62788140D01*
X168265352Y-62764326D01*
X168267189Y-62741131D01*
X168272702Y-62716974D01*
X168281890Y-62691855D01*
X168294753Y-62665774D01*
X168305369Y-62647853D01*
X168317620Y-62629504D01*
X168331503Y-62610728D01*
X168347021Y-62591524D01*
X168364171Y-62571893D01*
X168382955Y-62551835D01*
X168403372Y-62531349D01*
X168425422Y-62510436D01*
X168449106Y-62489095D01*
X168474424Y-62467327D01*
X168500111Y-62445603D01*
X168525028Y-62424393D01*
X168549173Y-62403700D01*
X168572548Y-62383521D01*
X168595152Y-62363858D01*
X168616985Y-62344709D01*
X168638047Y-62326076D01*
X168658339Y-62307958D01*
X168677859Y-62290356D01*
X168696608Y-62273268D01*
X168714587Y-62256696D01*
X168731795Y-62240639D01*
X168748231Y-62225097D01*
X168763897Y-62210070D01*
X168778792Y-62195559D01*
X168792916Y-62181563D01*
X168808630Y-62164303D01*
X168822798Y-62145499D01*
X168835420Y-62125148D01*
X168846497Y-62103252D01*
X168856028Y-62079811D01*
X168864014Y-62054824D01*
X168870454Y-62028291D01*
X168875348Y-62000212D01*
X168877753Y-61980635D01*
X168879470Y-61960370D01*
X168880500Y-61939419D01*
X168880844Y-61917780D01*
X168879878Y-61891323D01*
X168876980Y-61865442D01*
X168872150Y-61840135D01*
X168865388Y-61815404D01*
X168856694Y-61791249D01*
X168846068Y-61767668D01*
X168833510Y-61744663D01*
X168819020Y-61722233D01*
X168802598Y-61700379D01*
X168784244Y-61679100D01*
X168770935Y-61665233D01*
X168749652Y-61645591D01*
X168727022Y-61627881D01*
X168703044Y-61612103D01*
X168677718Y-61598257D01*
X168651043Y-61586343D01*
X168632511Y-61579474D01*
X168613380Y-61573463D01*
X168593650Y-61568311D01*
X168573321Y-61564018D01*
X168552392Y-61560583D01*
X168530864Y-61558007D01*
X168508737Y-61556290D01*
X168486011Y-61555431D01*
X168474424Y-61555324D01*
G37*
G36*
X166866329Y-61731179D02*
G01*
X167218038Y-61731179D01*
X167218038Y-61379469D01*
X166866329Y-61379469D01*
X166866329Y-61731179D01*
G37*
G36*
X166866329Y-62918199D02*
G01*
X167218038Y-62918199D01*
X167218038Y-62566489D01*
X166866329Y-62566489D01*
X166866329Y-62918199D01*
G37*
G36*
X164950976Y-60906615D02*
G01*
X166148743Y-63511709D01*
X166324598Y-63401800D01*
X165126831Y-60807941D01*
X164950976Y-60906615D01*
G37*
G36*
X163551953Y-60906615D02*
G01*
X164749720Y-63511709D01*
X164925575Y-63401800D01*
X163727808Y-60807941D01*
X163551953Y-60906615D01*
G37*
G36*
X162876757Y-61555795D02*
G01*
X162896825Y-61557209D01*
X162916554Y-61559566D01*
X162935942Y-61562865D01*
X162964389Y-61569581D01*
X162992071Y-61578418D01*
X163018988Y-61589376D01*
X163045142Y-61602455D01*
X163062153Y-61612353D01*
X163078824Y-61623193D01*
X163095156Y-61634976D01*
X163111148Y-61647701D01*
X163126801Y-61661369D01*
X163142114Y-61675980D01*
X163158085Y-61692810D01*
X163173026Y-61710327D01*
X163186936Y-61728530D01*
X163199816Y-61747421D01*
X163211666Y-61766999D01*
X163222485Y-61787263D01*
X163232274Y-61808215D01*
X163241032Y-61829853D01*
X163248760Y-61852178D01*
X163255458Y-61875191D01*
X163261125Y-61898890D01*
X163265762Y-61923276D01*
X163269368Y-61948349D01*
X163271944Y-61974109D01*
X163273490Y-62000556D01*
X163274005Y-62027690D01*
X163273490Y-62054867D01*
X163271944Y-62081446D01*
X163269368Y-62107425D01*
X163265762Y-62132806D01*
X163261125Y-62157587D01*
X163255458Y-62181769D01*
X163248760Y-62205352D01*
X163241032Y-62228335D01*
X163232274Y-62250720D01*
X163222485Y-62272505D01*
X163211666Y-62293691D01*
X163199816Y-62314278D01*
X163186936Y-62334266D01*
X163173026Y-62353655D01*
X163158085Y-62372444D01*
X163142114Y-62390635D01*
X163163409Y-62407077D01*
X163183330Y-62423432D01*
X163201877Y-62439699D01*
X163219050Y-62455878D01*
X163234850Y-62471969D01*
X163249275Y-62487973D01*
X163262327Y-62503889D01*
X163279329Y-62527598D01*
X163293239Y-62551110D01*
X163304058Y-62574424D01*
X163311786Y-62597541D01*
X163316423Y-62620460D01*
X163317969Y-62643182D01*
X163317829Y-62654055D01*
X163316711Y-62675094D01*
X163314474Y-62695191D01*
X163309023Y-62723568D01*
X163301056Y-62749825D01*
X163290573Y-62773960D01*
X163277575Y-62795975D01*
X163262060Y-62815869D01*
X163244029Y-62833642D01*
X163223483Y-62849294D01*
X163200421Y-62862825D01*
X163174842Y-62874235D01*
X163196137Y-62890893D01*
X163216058Y-62907895D01*
X163234606Y-62925240D01*
X163251779Y-62942929D01*
X163267578Y-62960961D01*
X163282004Y-62979336D01*
X163295056Y-62998055D01*
X163306734Y-63017117D01*
X163317038Y-63036523D01*
X163325968Y-63056273D01*
X163333524Y-63076365D01*
X163339706Y-63096802D01*
X163344515Y-63117581D01*
X163347950Y-63138705D01*
X163350010Y-63160171D01*
X163350697Y-63181981D01*
X163350268Y-63199742D01*
X163348014Y-63225897D01*
X163343828Y-63251468D01*
X163337710Y-63276456D01*
X163329660Y-63300859D01*
X163319678Y-63324678D01*
X163307764Y-63347914D01*
X163293918Y-63370565D01*
X163278140Y-63392633D01*
X163260430Y-63414117D01*
X163240788Y-63435017D01*
X163233715Y-63441779D01*
X163218347Y-63454659D01*
X163201349Y-63466680D01*
X163182722Y-63477843D01*
X163162465Y-63488147D01*
X163140578Y-63497592D01*
X163117062Y-63506179D01*
X163091917Y-63513907D01*
X163065142Y-63520776D01*
X163036737Y-63526787D01*
X163006703Y-63531939D01*
X162975039Y-63536232D01*
X162941746Y-63539667D01*
X162906823Y-63542243D01*
X162870270Y-63543960D01*
X162832088Y-63544819D01*
X162812386Y-63544926D01*
X162791971Y-63544797D01*
X162771943Y-63544411D01*
X162733045Y-63542865D01*
X162695693Y-63540289D01*
X162659887Y-63536683D01*
X162625626Y-63532046D01*
X162592911Y-63526379D01*
X162561741Y-63519681D01*
X162532117Y-63511953D01*
X162504039Y-63503195D01*
X162477506Y-63493406D01*
X162452519Y-63482587D01*
X162429077Y-63470737D01*
X162407181Y-63457857D01*
X162386831Y-63443947D01*
X162368026Y-63429006D01*
X162350767Y-63413035D01*
X162334796Y-63396505D01*
X162319855Y-63379887D01*
X162305945Y-63363181D01*
X162293065Y-63346387D01*
X162281215Y-63329506D01*
X162270396Y-63312537D01*
X162260607Y-63295480D01*
X162247856Y-63269730D01*
X162237423Y-63243782D01*
X162229309Y-63217637D01*
X162223513Y-63191295D01*
X162220035Y-63164755D01*
X162219342Y-63148764D01*
X162515387Y-63148764D01*
X162515677Y-63156909D01*
X162520027Y-63179791D01*
X162529599Y-63200346D01*
X162544391Y-63218574D01*
X162564403Y-63234475D01*
X162589637Y-63248049D01*
X162609359Y-63255806D01*
X162631402Y-63262528D01*
X162655765Y-63268216D01*
X162682449Y-63272870D01*
X162711453Y-63276490D01*
X162742777Y-63279076D01*
X162776421Y-63280627D01*
X162812386Y-63281144D01*
X162842968Y-63280541D01*
X162871577Y-63278732D01*
X162898213Y-63275717D01*
X162922875Y-63271496D01*
X162945565Y-63266070D01*
X162966282Y-63259437D01*
X162985026Y-63251598D01*
X163009442Y-63237579D01*
X163029419Y-63220846D01*
X163044956Y-63201401D01*
X163056055Y-63179241D01*
X163062713Y-63154369D01*
X163064933Y-63126782D01*
X163064504Y-63111914D01*
X163062250Y-63090413D01*
X163058064Y-63069874D01*
X163051946Y-63050296D01*
X163043896Y-63031680D01*
X163033914Y-63014026D01*
X163022000Y-62997334D01*
X163008154Y-62981603D01*
X162992376Y-62966834D01*
X162974666Y-62953027D01*
X162955024Y-62940181D01*
X162933332Y-62943601D01*
X162912220Y-62947022D01*
X162891689Y-62950443D01*
X162871737Y-62953866D01*
X162833574Y-62960715D01*
X162797731Y-62967567D01*
X162764209Y-62974423D01*
X162733007Y-62981282D01*
X162704125Y-62988146D01*
X162677564Y-62995013D01*
X162653323Y-63001885D01*
X162631402Y-63008760D01*
X162611802Y-63015639D01*
X162586751Y-63025964D01*
X162566922Y-63036298D01*
X162548604Y-63050090D01*
X162546560Y-63052168D01*
X162534071Y-63068531D01*
X162524761Y-63088072D01*
X162519312Y-63107352D01*
X162516198Y-63128967D01*
X162515387Y-63148764D01*
X162219342Y-63148764D01*
X162218876Y-63138018D01*
X162219219Y-63119041D01*
X162221023Y-63091542D01*
X162224371Y-63065203D01*
X162229266Y-63040022D01*
X162235706Y-63016001D01*
X162243691Y-62993139D01*
X162253223Y-62971436D01*
X162264299Y-62950893D01*
X162276922Y-62931508D01*
X162291090Y-62913283D01*
X162306803Y-62896217D01*
X162318523Y-62885398D01*
X162338836Y-62869813D01*
X162362430Y-62855001D01*
X162379981Y-62845556D01*
X162398990Y-62836454D01*
X162419457Y-62827696D01*
X162441381Y-62819281D01*
X162464764Y-62811209D01*
X162489604Y-62803481D01*
X162515902Y-62796097D01*
X162543658Y-62789056D01*
X162572872Y-62782358D01*
X162603543Y-62776004D01*
X162635672Y-62769993D01*
X162669260Y-62764326D01*
X162686233Y-62761567D01*
X162718889Y-62755984D01*
X162749824Y-62750313D01*
X162779038Y-62744554D01*
X162806530Y-62738708D01*
X162832302Y-62732773D01*
X162856352Y-62726751D01*
X162878681Y-62720641D01*
X162899289Y-62714444D01*
X162918176Y-62708158D01*
X162943279Y-62698566D01*
X162964510Y-62688775D01*
X162981868Y-62678788D01*
X162998988Y-62665163D01*
X163003629Y-62660370D01*
X163018539Y-62641185D01*
X163027603Y-62621985D01*
X163030710Y-62597964D01*
X163026619Y-62578730D01*
X163016682Y-62559481D01*
X163000898Y-62540216D01*
X162985223Y-62525758D01*
X162966259Y-62511290D01*
X162953409Y-62517227D01*
X162934766Y-62524233D01*
X162914399Y-62530202D01*
X162892306Y-62535133D01*
X162868489Y-62539025D01*
X162842946Y-62541880D01*
X162822658Y-62543340D01*
X162801398Y-62544216D01*
X162779169Y-62544508D01*
X162769584Y-62544389D01*
X162741220Y-62542615D01*
X162713439Y-62538711D01*
X162686242Y-62532677D01*
X162659629Y-62524514D01*
X162633600Y-62514221D01*
X162608155Y-62501799D01*
X162583294Y-62487248D01*
X162567044Y-62476364D01*
X162551054Y-62464533D01*
X162535323Y-62451756D01*
X162519852Y-62438033D01*
X162504640Y-62423363D01*
X162491331Y-62409109D01*
X162478880Y-62393825D01*
X162467288Y-62377510D01*
X162456555Y-62360165D01*
X162446680Y-62341790D01*
X162437664Y-62322384D01*
X162429507Y-62301948D01*
X162422208Y-62280481D01*
X162415768Y-62257984D01*
X162410187Y-62234456D01*
X162405464Y-62209899D01*
X162401600Y-62184310D01*
X162398595Y-62157692D01*
X162396448Y-62130043D01*
X162395160Y-62101363D01*
X162394731Y-62071653D01*
X162394971Y-62049672D01*
X162691242Y-62049672D01*
X162691381Y-62063887D01*
X162692500Y-62090963D01*
X162694736Y-62116235D01*
X162698090Y-62139701D01*
X162702563Y-62161363D01*
X162708154Y-62181219D01*
X162718637Y-62207618D01*
X162731636Y-62229957D01*
X162747150Y-62248233D01*
X162765181Y-62262449D01*
X162785727Y-62272602D01*
X162808790Y-62278695D01*
X162834368Y-62280725D01*
X162851640Y-62279823D01*
X162875460Y-62275084D01*
X162896772Y-62266284D01*
X162915577Y-62253423D01*
X162931874Y-62236500D01*
X162945664Y-62215516D01*
X162956947Y-62190470D01*
X162963076Y-62171516D01*
X162968091Y-62150758D01*
X162971991Y-62128194D01*
X162974777Y-62103825D01*
X162976449Y-62077651D01*
X162977006Y-62049672D01*
X162976866Y-62035486D01*
X162975752Y-62008467D01*
X162973523Y-61983249D01*
X162970180Y-61959832D01*
X162965723Y-61938217D01*
X162960151Y-61918402D01*
X162949704Y-61892059D01*
X162936750Y-61869768D01*
X162921288Y-61851530D01*
X162903319Y-61837344D01*
X162882842Y-61827212D01*
X162859859Y-61821133D01*
X162834368Y-61819106D01*
X162817036Y-61820007D01*
X162793135Y-61824735D01*
X162771750Y-61833517D01*
X162752881Y-61846351D01*
X162736528Y-61863238D01*
X162722690Y-61884178D01*
X162711369Y-61909171D01*
X162705219Y-61928084D01*
X162700187Y-61948799D01*
X162696273Y-61971315D01*
X162693478Y-61995633D01*
X162691801Y-62021752D01*
X162691242Y-62049672D01*
X162394971Y-62049672D01*
X162395018Y-62045390D01*
X162395881Y-62020088D01*
X162397320Y-61995747D01*
X162399333Y-61972369D01*
X162401922Y-61949952D01*
X162405086Y-61928497D01*
X162408826Y-61908003D01*
X162413141Y-61888471D01*
X162419789Y-61863925D01*
X162427459Y-61841088D01*
X162416146Y-61825186D01*
X162399706Y-61809661D01*
X162380140Y-61798018D01*
X162361447Y-61791280D01*
X162340584Y-61787237D01*
X162317550Y-61785889D01*
X162229623Y-61785889D01*
X162229623Y-61566071D01*
X162361514Y-61566071D01*
X162376441Y-61566500D01*
X162398024Y-61568754D01*
X162418636Y-61572940D01*
X162438278Y-61579058D01*
X162456950Y-61587108D01*
X162474651Y-61597090D01*
X162491382Y-61609004D01*
X162507143Y-61622850D01*
X162521934Y-61638628D01*
X162535754Y-61656338D01*
X162548604Y-61675980D01*
X162565262Y-61661369D01*
X162582263Y-61647701D01*
X162599609Y-61634976D01*
X162617297Y-61623193D01*
X162635329Y-61612353D01*
X162653704Y-61602455D01*
X162672423Y-61593500D01*
X162691486Y-61585488D01*
X162710892Y-61578418D01*
X162730641Y-61572291D01*
X162750734Y-61567107D01*
X162771170Y-61562865D01*
X162791950Y-61559566D01*
X162813073Y-61557209D01*
X162834540Y-61555795D01*
X162856350Y-61555324D01*
X162876757Y-61555795D01*
G37*
G36*
X161292219Y-61291542D02*
G01*
X161599965Y-61291542D01*
X161599965Y-60961814D01*
X161292219Y-60961814D01*
X161292219Y-61291542D01*
G37*
G36*
X161292219Y-63203963D02*
G01*
X161599965Y-63203963D01*
X161599965Y-61577306D01*
X161292219Y-61577306D01*
X161292219Y-63203963D01*
G37*
G36*
X159915177Y-61577306D02*
G01*
X159662630Y-61577306D01*
X159662630Y-61889448D01*
X159915177Y-61889448D01*
X159915177Y-62863000D01*
X159913567Y-62885235D01*
X159907385Y-62906942D01*
X159896566Y-62923222D01*
X159878083Y-62935357D01*
X159857217Y-62939879D01*
X159849232Y-62940181D01*
X159684612Y-62940181D01*
X159684612Y-63203963D01*
X160003105Y-63203963D01*
X160029723Y-63203061D01*
X160054625Y-63200353D01*
X160077809Y-63195840D01*
X160099275Y-63189522D01*
X160119025Y-63181399D01*
X160137057Y-63171471D01*
X160153371Y-63159738D01*
X160167969Y-63146200D01*
X160180849Y-63130856D01*
X160192011Y-63113708D01*
X160201457Y-63094754D01*
X160209185Y-63073995D01*
X160215195Y-63051432D01*
X160219489Y-63027063D01*
X160222065Y-63000889D01*
X160222923Y-62972909D01*
X160222923Y-61889448D01*
X160464724Y-61889448D01*
X160464724Y-61577306D01*
X160222923Y-61577306D01*
X160222923Y-60961814D01*
X159915177Y-60961814D01*
X159915177Y-61577306D01*
G37*
G36*
X158801918Y-61653998D02*
G01*
X158779098Y-61636364D01*
X158755883Y-61620464D01*
X158732272Y-61606299D01*
X158708267Y-61593869D01*
X158683866Y-61583172D01*
X158659071Y-61574211D01*
X158633880Y-61566984D01*
X158608295Y-61561491D01*
X158582315Y-61557733D01*
X158555939Y-61555709D01*
X158538136Y-61555324D01*
X158516456Y-61555709D01*
X158495378Y-61556866D01*
X158474904Y-61558793D01*
X158455033Y-61561491D01*
X158435764Y-61564960D01*
X158407992Y-61571609D01*
X158381577Y-61579993D01*
X158356518Y-61590110D01*
X158332816Y-61601963D01*
X158310470Y-61615550D01*
X158289482Y-61630871D01*
X158269850Y-61647927D01*
X158263607Y-61653998D01*
X158247894Y-61670871D01*
X158233726Y-61688516D01*
X158221103Y-61706935D01*
X158210026Y-61726126D01*
X158200495Y-61746090D01*
X158192510Y-61766827D01*
X158186070Y-61788336D01*
X158181175Y-61810619D01*
X158177826Y-61833674D01*
X158176023Y-61857502D01*
X158175680Y-61873817D01*
X158175680Y-63203963D01*
X158483426Y-63203963D01*
X158483426Y-61939762D01*
X158484225Y-61919965D01*
X158487293Y-61898350D01*
X158492663Y-61879070D01*
X158501836Y-61859528D01*
X158514141Y-61843166D01*
X158516154Y-61841088D01*
X158532767Y-61828145D01*
X158553541Y-61818381D01*
X158574658Y-61812542D01*
X158594591Y-61809461D01*
X158616647Y-61808001D01*
X158626064Y-61807871D01*
X158645695Y-61808901D01*
X158665997Y-61811993D01*
X158686972Y-61817145D01*
X158708618Y-61824357D01*
X158730935Y-61833631D01*
X158753925Y-61844965D01*
X158771608Y-61854819D01*
X158789668Y-61865831D01*
X158801918Y-61873817D01*
X158801918Y-63203963D01*
X159109664Y-63203963D01*
X159109664Y-60961814D01*
X158801918Y-60961814D01*
X158801918Y-61653998D01*
G37*
G36*
X157414131Y-62852254D02*
G01*
X157413320Y-62872051D01*
X157410206Y-62893666D01*
X157404756Y-62912946D01*
X157395446Y-62932487D01*
X157382957Y-62948850D01*
X157380914Y-62950928D01*
X157365520Y-62963871D01*
X157347975Y-62973635D01*
X157328280Y-62980220D01*
X157306435Y-62983626D01*
X157292986Y-62984145D01*
X157268310Y-62982427D01*
X157243619Y-62977275D01*
X157218912Y-62968689D01*
X157200372Y-62959995D01*
X157181823Y-62949369D01*
X157163266Y-62936811D01*
X157144700Y-62922321D01*
X157126126Y-62905899D01*
X157107543Y-62887545D01*
X157095149Y-62874235D01*
X157095149Y-61577306D01*
X156787403Y-61577306D01*
X156787403Y-63203963D01*
X157095149Y-63203963D01*
X157095149Y-63116036D01*
X157114298Y-63130706D01*
X157133274Y-63144429D01*
X157152079Y-63157206D01*
X157170712Y-63169036D01*
X157189173Y-63179921D01*
X157207463Y-63189858D01*
X157225581Y-63198849D01*
X157243527Y-63206894D01*
X157270124Y-63217187D01*
X157296335Y-63225350D01*
X157322159Y-63231383D01*
X157347597Y-63235287D01*
X157372649Y-63237062D01*
X157380914Y-63237180D01*
X157401207Y-63236879D01*
X157420809Y-63235974D01*
X157448918Y-63233487D01*
X157475472Y-63229643D01*
X157500472Y-63224442D01*
X157523918Y-63217885D01*
X157545809Y-63209971D01*
X157566147Y-63200700D01*
X157584930Y-63190073D01*
X157602159Y-63178089D01*
X157617834Y-63164748D01*
X157622714Y-63160000D01*
X157640435Y-63141024D01*
X157656414Y-63121285D01*
X157670649Y-63100782D01*
X157683141Y-63079514D01*
X157693890Y-63057482D01*
X157702896Y-63034686D01*
X157710159Y-63011125D01*
X157715679Y-62986801D01*
X157719456Y-62961712D01*
X157721489Y-62935859D01*
X157721877Y-62918199D01*
X157721877Y-61577306D01*
X157414131Y-61577306D01*
X157414131Y-62852254D01*
G37*
G36*
X156311618Y-63203963D02*
G01*
X156003872Y-63203963D01*
X156003872Y-63116036D01*
X155988874Y-63130706D01*
X155974044Y-63144429D01*
X155952114Y-63163240D01*
X155930561Y-63179921D01*
X155909387Y-63194472D01*
X155888590Y-63206894D01*
X155868171Y-63217187D01*
X155848129Y-63225350D01*
X155828466Y-63231383D01*
X155809180Y-63235287D01*
X155784054Y-63237180D01*
X155762373Y-63236793D01*
X155741296Y-63235631D01*
X155720822Y-63233694D01*
X155700950Y-63230983D01*
X155672274Y-63225463D01*
X155644954Y-63218200D01*
X155618991Y-63209194D01*
X155594384Y-63198445D01*
X155571134Y-63185953D01*
X155549241Y-63171717D01*
X155528705Y-63155739D01*
X155509525Y-63138018D01*
X155494855Y-63122661D01*
X155481132Y-63106877D01*
X155468355Y-63090665D01*
X155456524Y-63074026D01*
X155445640Y-63056960D01*
X155435702Y-63039466D01*
X155426711Y-63021544D01*
X155418667Y-63003196D01*
X155411568Y-62984419D01*
X155405416Y-62965216D01*
X155400211Y-62945585D01*
X155395952Y-62925526D01*
X155392639Y-62905040D01*
X155390273Y-62884127D01*
X155388854Y-62862786D01*
X155388380Y-62841018D01*
X155696126Y-62841018D01*
X155696645Y-62854467D01*
X155700051Y-62876312D01*
X155706636Y-62896007D01*
X155716400Y-62913552D01*
X155729343Y-62928946D01*
X155740120Y-62938515D01*
X155757050Y-62949187D01*
X155776130Y-62956681D01*
X155797361Y-62960995D01*
X155817271Y-62962163D01*
X155841771Y-62961300D01*
X155865936Y-62958713D01*
X155889765Y-62954400D01*
X155913258Y-62948363D01*
X155936416Y-62940601D01*
X155959237Y-62931113D01*
X155981723Y-62919901D01*
X156003872Y-62906964D01*
X156003872Y-61885052D01*
X155999708Y-61881656D01*
X155982191Y-61869150D01*
X155963300Y-61858369D01*
X155943036Y-61849313D01*
X155921398Y-61841982D01*
X155898385Y-61836375D01*
X155873999Y-61832494D01*
X155848239Y-61830338D01*
X155828018Y-61829853D01*
X155804456Y-61831021D01*
X155783230Y-61834524D01*
X155764339Y-61840363D01*
X155745252Y-61850127D01*
X155729343Y-61863070D01*
X155727300Y-61865148D01*
X155714811Y-61881510D01*
X155705501Y-61901052D01*
X155700051Y-61920332D01*
X155696937Y-61941947D01*
X155696126Y-61961744D01*
X155696126Y-62841018D01*
X155388380Y-62841018D01*
X155388380Y-61961744D01*
X155388854Y-61939978D01*
X155390273Y-61918643D01*
X155392639Y-61897739D01*
X155395952Y-61877267D01*
X155400211Y-61857225D01*
X155405416Y-61837615D01*
X155411568Y-61818437D01*
X155418667Y-61799689D01*
X155426711Y-61781373D01*
X155435702Y-61763488D01*
X155445640Y-61746034D01*
X155456524Y-61729011D01*
X155468355Y-61712420D01*
X155481132Y-61696260D01*
X155494855Y-61680531D01*
X155509525Y-61665233D01*
X155515767Y-61659132D01*
X155535399Y-61641992D01*
X155556388Y-61626595D01*
X155578733Y-61612941D01*
X155602435Y-61601029D01*
X155627494Y-61590861D01*
X155653910Y-61582436D01*
X155681682Y-61575755D01*
X155700950Y-61572268D01*
X155720822Y-61569557D01*
X155741296Y-61567620D01*
X155762373Y-61566458D01*
X155784054Y-61566071D01*
X155800369Y-61566286D01*
X155824196Y-61567418D01*
X155847252Y-61569521D01*
X155869534Y-61572593D01*
X155891044Y-61576636D01*
X155911780Y-61581649D01*
X155931744Y-61587633D01*
X155950936Y-61594587D01*
X155969354Y-61602511D01*
X155987000Y-61611405D01*
X156003872Y-61621270D01*
X156003872Y-60961814D01*
X156311618Y-60961814D01*
X156311618Y-63203963D01*
G37*
G36*
X154682030Y-63203963D02*
G01*
X155033740Y-63203963D01*
X155033740Y-62852254D01*
X154682030Y-62852254D01*
X154682030Y-63203963D01*
G37*
G36*
X152601570Y-62082889D02*
G01*
X152909316Y-62082889D01*
X152909316Y-61972979D01*
X152910115Y-61953170D01*
X152913183Y-61931509D01*
X152918552Y-61912149D01*
X152927725Y-61892471D01*
X152940031Y-61875925D01*
X152942044Y-61873817D01*
X152959303Y-61858876D01*
X152978108Y-61847026D01*
X152998458Y-61838268D01*
X153020354Y-61832601D01*
X153039782Y-61830239D01*
X153051953Y-61829853D01*
X153072025Y-61830926D01*
X153094693Y-61835048D01*
X153115817Y-61842261D01*
X153135394Y-61852565D01*
X153153426Y-61865960D01*
X153161863Y-61873817D01*
X153174806Y-61889915D01*
X153184570Y-61909146D01*
X153190409Y-61928123D01*
X153193912Y-61949400D01*
X153195080Y-61972979D01*
X153195080Y-62808290D01*
X153194269Y-62828087D01*
X153191155Y-62849702D01*
X153185705Y-62868982D01*
X153176395Y-62888524D01*
X153163906Y-62904886D01*
X153161863Y-62906964D01*
X153144603Y-62921905D01*
X153125799Y-62933754D01*
X153105448Y-62942513D01*
X153083552Y-62948180D01*
X153064125Y-62950541D01*
X153051953Y-62950928D01*
X153031882Y-62949854D01*
X153009213Y-62945733D01*
X152988090Y-62938520D01*
X152968512Y-62928216D01*
X152950480Y-62914821D01*
X152942044Y-62906964D01*
X152929291Y-62891056D01*
X152919671Y-62871968D01*
X152913918Y-62853078D01*
X152910466Y-62831852D01*
X152909316Y-62808290D01*
X152909316Y-62643182D01*
X152601570Y-62643182D01*
X152601570Y-62797055D01*
X152602041Y-62821485D01*
X152603455Y-62845315D01*
X152605811Y-62868547D01*
X152609111Y-62891180D01*
X152613352Y-62913213D01*
X152618537Y-62934647D01*
X152624664Y-62955482D01*
X152631734Y-62975718D01*
X152639746Y-62995355D01*
X152648701Y-63014393D01*
X152658598Y-63032831D01*
X152669439Y-63050670D01*
X152681221Y-63067910D01*
X152693947Y-63084551D01*
X152707615Y-63100593D01*
X152722226Y-63116036D01*
X152743800Y-63135678D01*
X152759255Y-63147699D01*
X152775570Y-63158862D01*
X152792743Y-63169166D01*
X152810775Y-63178611D01*
X152829666Y-63187198D01*
X152849415Y-63194926D01*
X152870023Y-63201795D01*
X152891490Y-63207806D01*
X152913815Y-63212958D01*
X152936999Y-63217251D01*
X152961042Y-63220686D01*
X152985943Y-63223262D01*
X153011703Y-63224979D01*
X153038322Y-63225838D01*
X153051953Y-63225945D01*
X153075124Y-63225430D01*
X153097863Y-63223884D01*
X153120172Y-63221308D01*
X153142048Y-63217702D01*
X153163494Y-63213065D01*
X153184509Y-63207398D01*
X153205092Y-63200700D01*
X153225244Y-63192972D01*
X153244964Y-63184214D01*
X153264254Y-63174425D01*
X153283112Y-63163606D01*
X153301539Y-63151756D01*
X153319535Y-63138876D01*
X153337099Y-63124966D01*
X153354233Y-63110025D01*
X153370935Y-63094054D01*
X153386906Y-63077438D01*
X153401847Y-63060562D01*
X153415757Y-63043427D01*
X153428637Y-63026032D01*
X153440486Y-63008378D01*
X153451306Y-62990464D01*
X153461094Y-62972291D01*
X153469853Y-62953859D01*
X153477581Y-62935166D01*
X153484278Y-62916215D01*
X153489946Y-62897003D01*
X153494582Y-62877533D01*
X153498189Y-62857802D01*
X153500765Y-62837813D01*
X153502310Y-62817563D01*
X153502826Y-62797055D01*
X153502826Y-61983726D01*
X153502310Y-61961916D01*
X153500765Y-61940449D01*
X153498189Y-61919326D01*
X153494582Y-61898546D01*
X153489946Y-61878110D01*
X153484278Y-61858017D01*
X153477581Y-61838268D01*
X153469853Y-61818862D01*
X153461094Y-61799800D01*
X153451306Y-61781081D01*
X153440486Y-61762705D01*
X153428637Y-61744673D01*
X153415757Y-61726985D01*
X153401847Y-61709640D01*
X153386906Y-61692638D01*
X153370935Y-61675980D01*
X153355492Y-61661369D01*
X153339450Y-61647701D01*
X153322809Y-61634976D01*
X153305569Y-61623193D01*
X153287730Y-61612353D01*
X153269291Y-61602455D01*
X153250254Y-61593500D01*
X153230617Y-61585488D01*
X153210381Y-61578418D01*
X153189546Y-61572291D01*
X153168112Y-61567107D01*
X153146078Y-61562865D01*
X153123446Y-61559566D01*
X153100214Y-61557209D01*
X153076383Y-61555795D01*
X153051953Y-61555324D01*
X153026222Y-61555795D01*
X153001174Y-61557209D01*
X152976809Y-61559566D01*
X152953127Y-61562865D01*
X152930128Y-61567107D01*
X152907812Y-61572291D01*
X152886179Y-61578418D01*
X152865230Y-61585488D01*
X152844963Y-61593500D01*
X152825380Y-61602455D01*
X152806480Y-61612353D01*
X152788263Y-61623193D01*
X152770729Y-61634976D01*
X152753878Y-61647701D01*
X152737710Y-61661369D01*
X152722226Y-61675980D01*
X152707615Y-61691379D01*
X152693947Y-61707289D01*
X152681221Y-61723710D01*
X152669439Y-61740643D01*
X152658598Y-61758088D01*
X152648701Y-61776043D01*
X152639746Y-61794510D01*
X152631734Y-61813489D01*
X152624664Y-61832978D01*
X152618537Y-61852980D01*
X152613352Y-61873492D01*
X152609111Y-61894516D01*
X152605811Y-61916052D01*
X152603455Y-61938098D01*
X152602041Y-61960656D01*
X152601570Y-61983726D01*
X152601570Y-62082889D01*
G37*
G36*
X151666562Y-61566178D02*
G01*
X151693180Y-61567037D01*
X151718940Y-61568754D01*
X151743842Y-61571330D01*
X151767884Y-61574765D01*
X151791068Y-61579058D01*
X151813394Y-61584210D01*
X151834860Y-61590221D01*
X151855468Y-61597090D01*
X151875218Y-61604818D01*
X151894108Y-61613405D01*
X151912140Y-61622850D01*
X151929314Y-61633154D01*
X151945628Y-61644317D01*
X151961084Y-61656338D01*
X151982658Y-61675980D01*
X151997328Y-61691465D01*
X152011051Y-61707632D01*
X152023828Y-61724483D01*
X152035659Y-61742017D01*
X152046543Y-61760234D01*
X152056481Y-61779134D01*
X152065472Y-61798718D01*
X152073517Y-61818984D01*
X152080615Y-61839934D01*
X152086767Y-61861566D01*
X152091972Y-61883882D01*
X152096231Y-61906881D01*
X152099544Y-61930563D01*
X152101910Y-61954928D01*
X152103329Y-61979976D01*
X152103803Y-62005708D01*
X152103803Y-62786308D01*
X152103329Y-62812039D01*
X152101910Y-62837088D01*
X152099544Y-62861453D01*
X152096231Y-62885135D01*
X152091972Y-62908134D01*
X152086767Y-62930449D01*
X152080615Y-62952082D01*
X152073517Y-62973032D01*
X152065472Y-62993298D01*
X152056481Y-63012881D01*
X152046543Y-63031782D01*
X152035659Y-63049999D01*
X152023828Y-63067533D01*
X152011051Y-63084383D01*
X151997328Y-63100551D01*
X151982658Y-63116036D01*
X151975682Y-63122798D01*
X151953464Y-63141796D01*
X151937578Y-63153388D01*
X151920834Y-63164121D01*
X151903232Y-63173996D01*
X151884770Y-63183012D01*
X151865450Y-63191169D01*
X151845272Y-63198468D01*
X151824234Y-63204908D01*
X151802338Y-63210489D01*
X151779584Y-63215212D01*
X151755970Y-63219076D01*
X151731498Y-63222081D01*
X151706168Y-63224228D01*
X151679978Y-63225516D01*
X151652930Y-63225945D01*
X151639299Y-63225838D01*
X151612680Y-63224979D01*
X151586920Y-63223262D01*
X151562019Y-63220686D01*
X151537976Y-63217251D01*
X151514792Y-63212958D01*
X151492467Y-63207806D01*
X151471000Y-63201795D01*
X151450392Y-63194926D01*
X151430643Y-63187198D01*
X151411752Y-63178611D01*
X151393720Y-63169166D01*
X151376547Y-63158862D01*
X151360232Y-63147699D01*
X151344776Y-63135678D01*
X151323202Y-63116036D01*
X151308592Y-63100551D01*
X151294924Y-63084383D01*
X151282198Y-63067533D01*
X151270415Y-63049999D01*
X151259575Y-63031782D01*
X151249678Y-63012881D01*
X151240723Y-62993298D01*
X151232711Y-62973032D01*
X151225641Y-62952082D01*
X151219514Y-62930449D01*
X151214329Y-62908134D01*
X151210088Y-62885135D01*
X151206788Y-62861453D01*
X151204432Y-62837088D01*
X151203413Y-62819036D01*
X151510293Y-62819036D01*
X151510679Y-62831208D01*
X151513040Y-62850635D01*
X151518707Y-62872531D01*
X151527466Y-62892882D01*
X151539315Y-62911687D01*
X151554256Y-62928946D01*
X151556334Y-62930989D01*
X151572697Y-62943478D01*
X151592238Y-62952788D01*
X151611518Y-62958238D01*
X151633133Y-62961352D01*
X151652930Y-62962163D01*
X151676509Y-62960995D01*
X151697787Y-62957492D01*
X151716764Y-62951653D01*
X151735994Y-62941889D01*
X151752093Y-62928946D01*
X151759950Y-62920509D01*
X151773345Y-62902477D01*
X151783649Y-62882900D01*
X151790862Y-62861777D01*
X151794983Y-62839108D01*
X151796057Y-62819036D01*
X151796057Y-61972979D01*
X151795670Y-61960808D01*
X151793309Y-61941380D01*
X151787642Y-61919484D01*
X151778883Y-61899134D01*
X151767034Y-61880329D01*
X151752093Y-61863070D01*
X151749985Y-61861026D01*
X151733439Y-61848538D01*
X151713761Y-61839228D01*
X151694401Y-61833778D01*
X151672739Y-61830664D01*
X151652930Y-61829853D01*
X151629369Y-61831021D01*
X151608142Y-61834524D01*
X151589252Y-61840363D01*
X151570164Y-61850127D01*
X151554256Y-61863070D01*
X151546399Y-61871506D01*
X151533004Y-61889538D01*
X151522700Y-61909116D01*
X151515487Y-61930239D01*
X151511366Y-61952908D01*
X151510293Y-61972979D01*
X151510293Y-62819036D01*
X151203413Y-62819036D01*
X151203018Y-62812039D01*
X151202547Y-62786308D01*
X151202547Y-62005708D01*
X151203018Y-61979976D01*
X151204432Y-61954928D01*
X151206788Y-61930563D01*
X151210088Y-61906881D01*
X151214329Y-61883882D01*
X151219514Y-61861566D01*
X151225641Y-61839934D01*
X151232711Y-61818984D01*
X151240723Y-61798718D01*
X151249678Y-61779134D01*
X151259575Y-61760234D01*
X151270415Y-61742017D01*
X151282198Y-61724483D01*
X151294924Y-61707632D01*
X151308592Y-61691465D01*
X151323202Y-61675980D01*
X151330179Y-61669218D01*
X151352397Y-61650220D01*
X151368282Y-61638628D01*
X151385026Y-61627895D01*
X151402629Y-61618020D01*
X151421090Y-61609004D01*
X151440410Y-61600847D01*
X151460589Y-61593548D01*
X151481626Y-61587108D01*
X151503522Y-61581527D01*
X151526277Y-61576804D01*
X151549890Y-61572940D01*
X151574362Y-61569935D01*
X151599693Y-61567788D01*
X151625882Y-61566500D01*
X151652930Y-61566071D01*
X151666562Y-61566178D01*
G37*
G36*
X150627599Y-63203963D02*
G01*
X150935345Y-63203963D01*
X150935345Y-61577306D01*
X150627599Y-61577306D01*
X150627599Y-61632016D01*
X150611027Y-61621369D01*
X150585846Y-61606686D01*
X150560279Y-61593548D01*
X150534326Y-61581956D01*
X150507987Y-61571910D01*
X150481261Y-61563409D01*
X150454148Y-61556454D01*
X150426649Y-61551044D01*
X150398764Y-61547180D01*
X150370493Y-61544862D01*
X150341835Y-61544089D01*
X150319499Y-61545055D01*
X150297739Y-61547953D01*
X150276555Y-61552783D01*
X150255945Y-61559545D01*
X150235911Y-61568239D01*
X150216452Y-61578865D01*
X150197569Y-61591423D01*
X150179261Y-61605913D01*
X150161528Y-61622335D01*
X150144370Y-61640689D01*
X150133251Y-61653998D01*
X150110039Y-61640689D01*
X150087173Y-61628238D01*
X150064655Y-61616646D01*
X150042485Y-61605913D01*
X150020661Y-61596038D01*
X149999185Y-61587022D01*
X149978056Y-61578865D01*
X149957274Y-61571566D01*
X149936840Y-61565126D01*
X149916753Y-61559545D01*
X149897013Y-61554822D01*
X149877621Y-61550958D01*
X149849183Y-61546772D01*
X149821527Y-61544518D01*
X149803523Y-61544089D01*
X149781294Y-61544668D01*
X149760035Y-61546407D01*
X149739746Y-61549305D01*
X149720427Y-61553362D01*
X149696179Y-61560575D01*
X149673655Y-61569849D01*
X149652856Y-61581183D01*
X149633782Y-61594578D01*
X149616433Y-61610034D01*
X149600977Y-61628070D01*
X149587582Y-61649205D01*
X149578888Y-61667089D01*
X149571353Y-61686717D01*
X149564978Y-61708088D01*
X149559761Y-61731202D01*
X149555704Y-61756059D01*
X149552806Y-61782659D01*
X149551067Y-61811002D01*
X149550552Y-61830866D01*
X149550488Y-61841088D01*
X149550488Y-63203963D01*
X149858234Y-63203963D01*
X149858234Y-61895799D01*
X149859608Y-61875191D01*
X149864438Y-61855291D01*
X149873883Y-61837259D01*
X149880216Y-61829853D01*
X149896656Y-61817338D01*
X149915751Y-61810018D01*
X149935415Y-61807871D01*
X149959393Y-61810018D01*
X149978593Y-61814826D01*
X149997808Y-61822383D01*
X150017038Y-61832687D01*
X150036284Y-61845738D01*
X150055544Y-61861538D01*
X150070000Y-61875191D01*
X150084464Y-61890389D01*
X150089288Y-61895799D01*
X150089288Y-63203963D01*
X150397034Y-63203963D01*
X150397034Y-61895799D01*
X150398407Y-61875191D01*
X150403237Y-61855291D01*
X150412683Y-61837259D01*
X150419015Y-61829853D01*
X150435398Y-61817338D01*
X150454320Y-61810018D01*
X150473726Y-61807871D01*
X150497833Y-61810018D01*
X150517101Y-61814826D01*
X150536355Y-61822383D01*
X150555593Y-61832687D01*
X150574815Y-61845738D01*
X150594023Y-61861538D01*
X150608418Y-61875191D01*
X150622805Y-61890389D01*
X150627599Y-61895799D01*
X150627599Y-63203963D01*
G37*
G36*
X148162700Y-60906615D02*
G01*
X149360467Y-63511709D01*
X149536322Y-63401800D01*
X148338555Y-60807941D01*
X148162700Y-60906615D01*
G37*
G36*
X147489078Y-61555324D02*
G01*
X147460628Y-61555795D01*
X147433040Y-61557209D01*
X147406314Y-61559566D01*
X147380451Y-61562865D01*
X147355451Y-61567107D01*
X147331313Y-61572291D01*
X147308037Y-61578418D01*
X147285624Y-61585488D01*
X147264073Y-61593500D01*
X147243385Y-61602455D01*
X147223560Y-61612353D01*
X147204596Y-61623193D01*
X147186496Y-61634976D01*
X147169258Y-61647701D01*
X147152882Y-61661369D01*
X147137369Y-61675980D01*
X147122657Y-61691379D01*
X147108807Y-61707289D01*
X147095821Y-61723710D01*
X147083696Y-61740643D01*
X147072434Y-61758088D01*
X147062035Y-61776043D01*
X147052498Y-61794510D01*
X147043824Y-61813489D01*
X147036012Y-61832978D01*
X147029062Y-61852980D01*
X147022975Y-61873492D01*
X147017751Y-61894516D01*
X147013389Y-61916052D01*
X147009889Y-61938098D01*
X147007252Y-61960656D01*
X147005477Y-61983726D01*
X147291242Y-62027690D01*
X147291628Y-62007661D01*
X147293345Y-61982760D01*
X147296436Y-61959919D01*
X147300902Y-61939140D01*
X147306740Y-61920421D01*
X147315971Y-61899920D01*
X147327348Y-61882639D01*
X147335205Y-61873817D01*
X147352577Y-61858055D01*
X147370496Y-61844965D01*
X147388965Y-61834547D01*
X147407982Y-61826800D01*
X147427548Y-61821724D01*
X147447662Y-61819320D01*
X147455861Y-61819106D01*
X147478895Y-61819905D01*
X147499758Y-61822302D01*
X147521929Y-61827288D01*
X147540974Y-61834576D01*
X147559243Y-61845986D01*
X147565771Y-61851835D01*
X147580711Y-61869094D01*
X147592561Y-61887899D01*
X147601319Y-61908249D01*
X147606987Y-61930145D01*
X147609348Y-61949572D01*
X147609734Y-61961744D01*
X147606300Y-61987733D01*
X147599216Y-62008798D01*
X147588268Y-62031210D01*
X147573456Y-62054971D01*
X147561434Y-62071560D01*
X147547696Y-62088749D01*
X147532240Y-62106537D01*
X147515066Y-62124924D01*
X147496176Y-62143910D01*
X147475568Y-62163495D01*
X147453242Y-62183679D01*
X147429200Y-62204463D01*
X147403440Y-62225846D01*
X147389916Y-62236762D01*
X147369552Y-62253162D01*
X147349616Y-62269391D01*
X147330107Y-62285448D01*
X147311025Y-62301333D01*
X147292371Y-62317047D01*
X147274145Y-62332589D01*
X147256345Y-62347959D01*
X147238974Y-62363157D01*
X147222029Y-62378184D01*
X147205512Y-62393039D01*
X147189423Y-62407722D01*
X147173761Y-62422233D01*
X147158526Y-62436573D01*
X147143719Y-62450741D01*
X147129339Y-62464737D01*
X147115387Y-62478562D01*
X147099416Y-62495262D01*
X147084475Y-62512390D01*
X147070564Y-62529945D01*
X147057684Y-62547927D01*
X147045835Y-62566337D01*
X147035016Y-62585174D01*
X147025227Y-62604439D01*
X147016468Y-62624131D01*
X147008740Y-62644250D01*
X147002043Y-62664797D01*
X146996376Y-62685771D01*
X146991739Y-62707173D01*
X146988132Y-62729002D01*
X146985556Y-62751259D01*
X146984011Y-62773943D01*
X146983496Y-62797055D01*
X146983967Y-62818823D01*
X146985381Y-62840163D01*
X146987737Y-62861077D01*
X146991037Y-62881563D01*
X146995278Y-62901621D01*
X147000463Y-62921252D01*
X147006590Y-62940456D01*
X147013660Y-62959232D01*
X147021672Y-62977581D01*
X147030627Y-62995502D01*
X147040524Y-63012996D01*
X147051365Y-63030062D01*
X147063147Y-63046701D01*
X147075873Y-63062913D01*
X147089541Y-63078697D01*
X147104152Y-63094054D01*
X147120896Y-63110025D01*
X147138155Y-63124966D01*
X147155929Y-63138876D01*
X147174219Y-63151756D01*
X147193023Y-63163606D01*
X147212343Y-63174425D01*
X147232179Y-63184214D01*
X147252529Y-63192972D01*
X147273395Y-63200700D01*
X147294775Y-63207398D01*
X147316671Y-63213065D01*
X147339083Y-63217702D01*
X147362009Y-63221308D01*
X147385451Y-63223884D01*
X147409407Y-63225430D01*
X147433879Y-63225945D01*
X147462330Y-63225472D01*
X147489918Y-63224052D01*
X147516643Y-63221686D01*
X147542506Y-63218374D01*
X147567507Y-63214115D01*
X147591645Y-63208909D01*
X147614921Y-63202757D01*
X147637334Y-63195659D01*
X147658884Y-63187614D01*
X147679572Y-63178623D01*
X147699398Y-63168685D01*
X147718361Y-63157801D01*
X147736462Y-63145971D01*
X147753700Y-63133194D01*
X147770076Y-63119470D01*
X147785589Y-63104801D01*
X147800345Y-63089245D01*
X147814326Y-63072744D01*
X147827532Y-63055296D01*
X147839964Y-63036901D01*
X147851621Y-63017560D01*
X147862503Y-62997273D01*
X147872610Y-62976039D01*
X147881943Y-62953859D01*
X147890501Y-62930732D01*
X147898284Y-62906659D01*
X147905293Y-62881639D01*
X147911527Y-62855673D01*
X147916986Y-62828760D01*
X147921671Y-62800901D01*
X147925580Y-62772096D01*
X147928715Y-62742344D01*
X147631716Y-62687145D01*
X147631136Y-62713303D01*
X147629398Y-62738104D01*
X147626500Y-62761549D01*
X147622442Y-62783637D01*
X147617226Y-62804368D01*
X147610851Y-62823742D01*
X147600547Y-62847464D01*
X147588182Y-62868774D01*
X147573756Y-62887673D01*
X147565771Y-62896217D01*
X147548399Y-62911979D01*
X147530479Y-62925068D01*
X147512011Y-62935487D01*
X147492994Y-62943234D01*
X147473428Y-62948310D01*
X147453314Y-62950714D01*
X147445115Y-62950928D01*
X147421807Y-62949854D01*
X147400120Y-62946634D01*
X147380056Y-62941268D01*
X147361614Y-62933754D01*
X147341624Y-62921905D01*
X147323970Y-62906964D01*
X147311305Y-62891890D01*
X147300786Y-62874144D01*
X147292414Y-62853727D01*
X147286189Y-62830638D01*
X147282754Y-62810244D01*
X147280693Y-62788140D01*
X147280006Y-62764326D01*
X147281844Y-62741131D01*
X147287357Y-62716974D01*
X147296544Y-62691855D01*
X147309407Y-62665774D01*
X147320024Y-62647853D01*
X147332274Y-62629504D01*
X147346158Y-62610728D01*
X147361675Y-62591524D01*
X147378826Y-62571893D01*
X147397609Y-62551835D01*
X147418026Y-62531349D01*
X147440077Y-62510436D01*
X147463761Y-62489095D01*
X147489078Y-62467327D01*
X147514766Y-62445603D01*
X147539682Y-62424393D01*
X147563828Y-62403700D01*
X147587203Y-62383521D01*
X147609807Y-62363858D01*
X147631640Y-62344709D01*
X147652702Y-62326076D01*
X147672993Y-62307958D01*
X147692513Y-62290356D01*
X147711263Y-62273268D01*
X147729241Y-62256696D01*
X147746449Y-62240639D01*
X147762886Y-62225097D01*
X147778552Y-62210070D01*
X147793447Y-62195559D01*
X147807571Y-62181563D01*
X147823285Y-62164303D01*
X147837453Y-62145499D01*
X147850075Y-62125148D01*
X147861152Y-62103252D01*
X147870683Y-62079811D01*
X147878669Y-62054824D01*
X147885109Y-62028291D01*
X147890003Y-62000212D01*
X147892407Y-61980635D01*
X147894125Y-61960370D01*
X147895155Y-61939419D01*
X147895498Y-61917780D01*
X147894532Y-61891323D01*
X147891634Y-61865442D01*
X147886804Y-61840135D01*
X147880042Y-61815404D01*
X147871348Y-61791249D01*
X147860722Y-61767668D01*
X147848164Y-61744663D01*
X147833674Y-61722233D01*
X147817252Y-61700379D01*
X147798898Y-61679100D01*
X147785589Y-61665233D01*
X147764307Y-61645591D01*
X147741677Y-61627881D01*
X147717699Y-61612103D01*
X147692372Y-61598257D01*
X147665698Y-61586343D01*
X147647166Y-61579474D01*
X147628035Y-61573463D01*
X147608305Y-61568311D01*
X147587975Y-61564018D01*
X147567047Y-61560583D01*
X147545519Y-61558007D01*
X147523392Y-61556290D01*
X147500666Y-61555431D01*
X147489078Y-61555324D01*
G37*
G36*
X146090438Y-61555431D02*
G01*
X146113221Y-61556290D01*
X146135401Y-61558007D01*
X146156979Y-61560583D01*
X146177953Y-61564018D01*
X146198324Y-61568311D01*
X146218093Y-61573463D01*
X146237258Y-61579474D01*
X146255821Y-61586343D01*
X146282534Y-61598257D01*
X146307890Y-61612103D01*
X146331890Y-61627881D01*
X146354533Y-61645591D01*
X146375819Y-61665233D01*
X146383934Y-61673465D01*
X146399390Y-61689864D01*
X146413815Y-61706175D01*
X146427211Y-61722398D01*
X146439575Y-61738533D01*
X146450910Y-61754581D01*
X146465979Y-61778488D01*
X146478731Y-61802197D01*
X146489163Y-61825708D01*
X146497278Y-61849023D01*
X146503074Y-61872139D01*
X146506551Y-61895059D01*
X146507711Y-61917780D01*
X146507711Y-62038925D01*
X146199965Y-62038925D01*
X146199965Y-61961744D01*
X146198797Y-61938182D01*
X146195293Y-61916956D01*
X146189454Y-61898065D01*
X146179690Y-61878978D01*
X146166747Y-61863070D01*
X146164670Y-61861026D01*
X146148307Y-61848538D01*
X146128766Y-61839228D01*
X146109486Y-61833778D01*
X146087870Y-61830664D01*
X146068073Y-61829853D01*
X146055902Y-61830239D01*
X146036474Y-61832601D01*
X146014578Y-61838268D01*
X145994228Y-61847026D01*
X145975423Y-61858876D01*
X145958164Y-61873817D01*
X145950307Y-61882253D01*
X145936912Y-61900285D01*
X145926608Y-61919863D01*
X145919395Y-61940986D01*
X145915274Y-61963655D01*
X145914200Y-61983726D01*
X145914200Y-62071653D01*
X145946916Y-62081772D01*
X145979116Y-62092834D01*
X146010800Y-62104838D01*
X146041970Y-62117785D01*
X146072624Y-62131674D01*
X146102764Y-62146506D01*
X146132387Y-62162281D01*
X146161496Y-62178998D01*
X146190090Y-62196658D01*
X146218168Y-62215261D01*
X146245731Y-62234806D01*
X146272779Y-62255293D01*
X146299312Y-62276724D01*
X146325330Y-62299097D01*
X146350832Y-62322413D01*
X146375819Y-62346671D01*
X146397114Y-62368952D01*
X146417035Y-62391833D01*
X146435583Y-62415313D01*
X146452756Y-62439392D01*
X146468555Y-62464070D01*
X146482981Y-62489347D01*
X146496033Y-62515223D01*
X146507711Y-62541699D01*
X146518015Y-62568773D01*
X146526945Y-62596447D01*
X146534501Y-62624720D01*
X146540683Y-62653592D01*
X146545492Y-62683064D01*
X146548926Y-62713134D01*
X146550987Y-62743804D01*
X146551674Y-62775073D01*
X146551567Y-62790056D01*
X146550708Y-62819251D01*
X146548991Y-62847415D01*
X146546415Y-62874549D01*
X146542980Y-62900653D01*
X146538687Y-62925726D01*
X146533535Y-62949768D01*
X146527524Y-62972781D01*
X146520655Y-62994763D01*
X146512927Y-63015714D01*
X146504340Y-63035635D01*
X146494895Y-63054526D01*
X146484591Y-63072386D01*
X146473428Y-63089216D01*
X146461407Y-63105015D01*
X146441765Y-63126782D01*
X146435503Y-63132883D01*
X146415952Y-63150024D01*
X146395249Y-63165421D01*
X146373396Y-63179075D01*
X146350392Y-63190986D01*
X146326238Y-63201154D01*
X146300933Y-63209579D01*
X146274478Y-63216261D01*
X146246872Y-63221200D01*
X146218115Y-63224396D01*
X146198304Y-63225558D01*
X146177983Y-63225945D01*
X146149226Y-63224880D01*
X146120658Y-63221686D01*
X146092279Y-63216362D01*
X146064089Y-63208909D01*
X146045401Y-63202757D01*
X146026796Y-63195659D01*
X146008276Y-63187614D01*
X145989839Y-63178623D01*
X145971487Y-63168685D01*
X145953218Y-63157801D01*
X145935034Y-63145971D01*
X145916933Y-63133194D01*
X145898916Y-63119470D01*
X145880983Y-63104801D01*
X145877887Y-63121776D01*
X145874865Y-63141422D01*
X145872294Y-63163344D01*
X145870751Y-63184191D01*
X145870237Y-63203963D01*
X145562491Y-63203963D01*
X145565238Y-63184557D01*
X145567986Y-63164808D01*
X145570734Y-63144715D01*
X145573482Y-63124279D01*
X145576229Y-63103499D01*
X145578977Y-63082376D01*
X145581725Y-63060909D01*
X145584473Y-63039099D01*
X145587220Y-63016946D01*
X145589968Y-62994449D01*
X145592716Y-62971608D01*
X145595463Y-62948424D01*
X145598211Y-62924897D01*
X145600959Y-62901026D01*
X145603707Y-62876811D01*
X145606454Y-62852254D01*
X145606454Y-62313454D01*
X145914200Y-62313454D01*
X145914200Y-62819036D01*
X145920378Y-62827842D01*
X145932801Y-62844615D01*
X145945310Y-62860269D01*
X145964240Y-62881654D01*
X145983366Y-62900523D01*
X146002691Y-62916877D01*
X146022212Y-62930714D01*
X146041932Y-62942036D01*
X146061849Y-62950841D01*
X146081963Y-62957131D01*
X146102275Y-62960905D01*
X146122784Y-62962163D01*
X146132251Y-62961959D01*
X146158848Y-62958896D01*
X146182740Y-62952158D01*
X146203928Y-62941746D01*
X146222411Y-62927658D01*
X146238189Y-62909895D01*
X146251262Y-62888457D01*
X146261630Y-62863344D01*
X146267040Y-62844560D01*
X146271247Y-62824143D01*
X146274253Y-62802092D01*
X146276056Y-62778408D01*
X146276657Y-62753091D01*
X146276560Y-62742866D01*
X146275790Y-62722800D01*
X146274248Y-62703245D01*
X146270490Y-62674872D01*
X146264997Y-62647650D01*
X146257770Y-62621578D01*
X146248808Y-62596656D01*
X146238112Y-62572885D01*
X146225682Y-62550265D01*
X146211516Y-62528796D01*
X146195617Y-62508477D01*
X146177983Y-62489309D01*
X146162756Y-62474482D01*
X146147361Y-62460167D01*
X146131798Y-62446364D01*
X146116067Y-62433072D01*
X146100168Y-62420291D01*
X146084102Y-62408022D01*
X146067867Y-62396264D01*
X146051465Y-62385017D01*
X146034895Y-62374282D01*
X146018156Y-62364058D01*
X145992734Y-62349681D01*
X145966934Y-62336455D01*
X145940756Y-62324379D01*
X145914200Y-62313454D01*
X145606454Y-62313454D01*
X145606454Y-61917780D01*
X145606884Y-61902740D01*
X145609138Y-61880338D01*
X145613324Y-61858124D01*
X145619442Y-61836099D01*
X145627492Y-61814263D01*
X145637474Y-61792616D01*
X145649388Y-61771158D01*
X145663234Y-61749889D01*
X145679012Y-61728809D01*
X145696722Y-61707918D01*
X145716364Y-61687215D01*
X145733236Y-61671244D01*
X145750878Y-61656303D01*
X145769292Y-61642393D01*
X145788476Y-61629513D01*
X145808432Y-61617663D01*
X145829158Y-61606844D01*
X145850655Y-61597055D01*
X145872923Y-61588297D01*
X145895962Y-61580569D01*
X145919772Y-61573871D01*
X145944353Y-61568204D01*
X145969705Y-61563567D01*
X145995827Y-61559961D01*
X146022721Y-61557385D01*
X146050385Y-61555839D01*
X146078820Y-61555324D01*
X146090438Y-61555431D01*
G37*
G36*
X144689458Y-61555795D02*
G01*
X144709526Y-61557209D01*
X144729254Y-61559566D01*
X144748643Y-61562865D01*
X144777089Y-61569581D01*
X144804771Y-61578418D01*
X144831689Y-61589376D01*
X144857842Y-61602455D01*
X144874854Y-61612353D01*
X144891525Y-61623193D01*
X144907857Y-61634976D01*
X144923849Y-61647701D01*
X144939502Y-61661369D01*
X144954814Y-61675980D01*
X144970786Y-61692810D01*
X144985726Y-61710327D01*
X144999637Y-61728530D01*
X145012517Y-61747421D01*
X145024366Y-61766999D01*
X145035186Y-61787263D01*
X145044974Y-61808215D01*
X145053733Y-61829853D01*
X145061461Y-61852178D01*
X145068158Y-61875191D01*
X145073826Y-61898890D01*
X145078462Y-61923276D01*
X145082069Y-61948349D01*
X145084645Y-61974109D01*
X145086190Y-62000556D01*
X145086706Y-62027690D01*
X145086190Y-62054867D01*
X145084645Y-62081446D01*
X145082069Y-62107425D01*
X145078462Y-62132806D01*
X145073826Y-62157587D01*
X145068158Y-62181769D01*
X145061461Y-62205352D01*
X145053733Y-62228335D01*
X145044974Y-62250720D01*
X145035186Y-62272505D01*
X145024366Y-62293691D01*
X145012517Y-62314278D01*
X144999637Y-62334266D01*
X144985726Y-62353655D01*
X144970786Y-62372444D01*
X144954814Y-62390635D01*
X144976109Y-62407077D01*
X144996030Y-62423432D01*
X145014578Y-62439699D01*
X145031751Y-62455878D01*
X145047550Y-62471969D01*
X145061976Y-62487973D01*
X145075028Y-62503889D01*
X145092029Y-62527598D01*
X145105940Y-62551110D01*
X145116759Y-62574424D01*
X145124487Y-62597541D01*
X145129124Y-62620460D01*
X145130669Y-62643182D01*
X145130530Y-62654055D01*
X145129411Y-62675094D01*
X145127175Y-62695191D01*
X145121724Y-62723568D01*
X145113757Y-62749825D01*
X145103274Y-62773960D01*
X145090275Y-62795975D01*
X145074761Y-62815869D01*
X145056730Y-62833642D01*
X145036184Y-62849294D01*
X145013121Y-62862825D01*
X144987543Y-62874235D01*
X145008838Y-62890893D01*
X145028759Y-62907895D01*
X145047306Y-62925240D01*
X145064480Y-62942929D01*
X145080279Y-62960961D01*
X145094705Y-62979336D01*
X145107756Y-62998055D01*
X145119434Y-63017117D01*
X145129738Y-63036523D01*
X145138668Y-63056273D01*
X145146225Y-63076365D01*
X145152407Y-63096802D01*
X145157215Y-63117581D01*
X145160650Y-63138705D01*
X145162711Y-63160171D01*
X145163398Y-63181981D01*
X145162969Y-63199742D01*
X145160715Y-63225897D01*
X145156529Y-63251468D01*
X145150411Y-63276456D01*
X145142361Y-63300859D01*
X145132379Y-63324678D01*
X145120465Y-63347914D01*
X145106619Y-63370565D01*
X145090841Y-63392633D01*
X145073131Y-63414117D01*
X145053489Y-63435017D01*
X145046416Y-63441779D01*
X145031047Y-63454659D01*
X145014050Y-63466680D01*
X144995422Y-63477843D01*
X144975165Y-63488147D01*
X144953279Y-63497592D01*
X144929763Y-63506179D01*
X144904617Y-63513907D01*
X144877842Y-63520776D01*
X144849438Y-63526787D01*
X144819403Y-63531939D01*
X144787739Y-63536232D01*
X144754446Y-63539667D01*
X144719523Y-63542243D01*
X144682971Y-63543960D01*
X144644789Y-63544819D01*
X144625087Y-63544926D01*
X144604672Y-63544797D01*
X144584643Y-63544411D01*
X144545746Y-63542865D01*
X144508394Y-63540289D01*
X144472588Y-63536683D01*
X144438327Y-63532046D01*
X144405612Y-63526379D01*
X144374442Y-63519681D01*
X144344818Y-63511953D01*
X144316740Y-63503195D01*
X144290207Y-63493406D01*
X144265220Y-63482587D01*
X144241778Y-63470737D01*
X144219882Y-63457857D01*
X144199532Y-63443947D01*
X144180727Y-63429006D01*
X144163468Y-63413035D01*
X144147496Y-63396505D01*
X144132556Y-63379887D01*
X144118645Y-63363181D01*
X144105765Y-63346387D01*
X144093916Y-63329506D01*
X144083097Y-63312537D01*
X144073308Y-63295480D01*
X144060557Y-63269730D01*
X144050124Y-63243782D01*
X144042009Y-63217637D01*
X144036213Y-63191295D01*
X144032736Y-63164755D01*
X144032043Y-63148764D01*
X144328087Y-63148764D01*
X144328377Y-63156909D01*
X144332728Y-63179791D01*
X144342299Y-63200346D01*
X144357091Y-63218574D01*
X144377104Y-63234475D01*
X144402337Y-63248049D01*
X144422060Y-63255806D01*
X144444103Y-63262528D01*
X144468466Y-63268216D01*
X144495149Y-63272870D01*
X144524153Y-63276490D01*
X144555477Y-63279076D01*
X144589122Y-63280627D01*
X144625087Y-63281144D01*
X144655669Y-63280541D01*
X144684277Y-63278732D01*
X144710913Y-63275717D01*
X144735576Y-63271496D01*
X144758266Y-63266070D01*
X144778983Y-63259437D01*
X144797726Y-63251598D01*
X144822142Y-63237579D01*
X144842119Y-63220846D01*
X144857657Y-63201401D01*
X144868755Y-63179241D01*
X144875414Y-63154369D01*
X144877634Y-63126782D01*
X144877204Y-63111914D01*
X144874950Y-63090413D01*
X144870764Y-63069874D01*
X144864646Y-63050296D01*
X144856596Y-63031680D01*
X144846614Y-63014026D01*
X144834700Y-62997334D01*
X144820854Y-62981603D01*
X144805076Y-62966834D01*
X144787366Y-62953027D01*
X144767724Y-62940181D01*
X144746033Y-62943601D01*
X144724921Y-62947022D01*
X144704389Y-62950443D01*
X144684438Y-62953866D01*
X144646275Y-62960715D01*
X144610432Y-62967567D01*
X144576910Y-62974423D01*
X144545708Y-62981282D01*
X144516826Y-62988146D01*
X144490265Y-62995013D01*
X144466023Y-63001885D01*
X144444103Y-63008760D01*
X144424502Y-63015639D01*
X144399452Y-63025964D01*
X144379623Y-63036298D01*
X144361304Y-63050090D01*
X144359261Y-63052168D01*
X144346772Y-63068531D01*
X144337462Y-63088072D01*
X144332012Y-63107352D01*
X144328898Y-63128967D01*
X144328087Y-63148764D01*
X144032043Y-63148764D01*
X144031577Y-63138018D01*
X144031920Y-63119041D01*
X144033723Y-63091542D01*
X144037072Y-63065203D01*
X144041966Y-63040022D01*
X144048406Y-63016001D01*
X144056392Y-62993139D01*
X144065923Y-62971436D01*
X144077000Y-62950893D01*
X144089622Y-62931508D01*
X144103790Y-62913283D01*
X144119504Y-62896217D01*
X144131224Y-62885398D01*
X144151537Y-62869813D01*
X144175130Y-62855001D01*
X144192681Y-62845556D01*
X144211690Y-62836454D01*
X144232157Y-62827696D01*
X144254082Y-62819281D01*
X144277464Y-62811209D01*
X144302304Y-62803481D01*
X144328603Y-62796097D01*
X144356358Y-62789056D01*
X144385572Y-62782358D01*
X144416244Y-62776004D01*
X144448373Y-62769993D01*
X144481960Y-62764326D01*
X144498934Y-62761567D01*
X144531590Y-62755984D01*
X144562525Y-62750313D01*
X144591738Y-62744554D01*
X144619231Y-62738708D01*
X144645002Y-62732773D01*
X144669053Y-62726751D01*
X144691382Y-62720641D01*
X144711990Y-62714444D01*
X144730877Y-62708158D01*
X144755980Y-62698566D01*
X144777210Y-62688775D01*
X144794568Y-62678788D01*
X144811688Y-62665163D01*
X144816329Y-62660370D01*
X144831240Y-62641185D01*
X144840303Y-62621985D01*
X144843411Y-62597964D01*
X144839320Y-62578730D01*
X144829382Y-62559481D01*
X144813598Y-62540216D01*
X144797923Y-62525758D01*
X144778960Y-62511290D01*
X144766110Y-62517227D01*
X144747467Y-62524233D01*
X144727100Y-62530202D01*
X144705007Y-62535133D01*
X144681190Y-62539025D01*
X144655647Y-62541880D01*
X144635358Y-62543340D01*
X144614099Y-62544216D01*
X144591870Y-62544508D01*
X144582285Y-62544389D01*
X144553920Y-62542615D01*
X144526140Y-62538711D01*
X144498943Y-62532677D01*
X144472330Y-62524514D01*
X144446301Y-62514221D01*
X144420856Y-62501799D01*
X144395994Y-62487248D01*
X144379745Y-62476364D01*
X144363754Y-62464533D01*
X144348024Y-62451756D01*
X144332552Y-62438033D01*
X144317341Y-62423363D01*
X144304031Y-62409109D01*
X144291581Y-62393825D01*
X144279989Y-62377510D01*
X144269255Y-62360165D01*
X144259381Y-62341790D01*
X144250365Y-62322384D01*
X144242207Y-62301948D01*
X144234909Y-62280481D01*
X144228469Y-62257984D01*
X144222887Y-62234456D01*
X144218165Y-62209899D01*
X144214301Y-62184310D01*
X144211295Y-62157692D01*
X144209149Y-62130043D01*
X144207861Y-62101363D01*
X144207431Y-62071653D01*
X144207672Y-62049672D01*
X144503942Y-62049672D01*
X144504082Y-62063887D01*
X144505200Y-62090963D01*
X144507436Y-62116235D01*
X144510791Y-62139701D01*
X144515264Y-62161363D01*
X144520855Y-62181219D01*
X144531337Y-62207618D01*
X144544336Y-62229957D01*
X144559851Y-62248233D01*
X144577881Y-62262449D01*
X144598428Y-62272602D01*
X144621490Y-62278695D01*
X144647068Y-62280725D01*
X144664341Y-62279823D01*
X144688160Y-62275084D01*
X144709473Y-62266284D01*
X144728277Y-62253423D01*
X144744575Y-62236500D01*
X144758365Y-62215516D01*
X144769648Y-62190470D01*
X144775777Y-62171516D01*
X144780791Y-62150758D01*
X144784692Y-62128194D01*
X144787478Y-62103825D01*
X144789149Y-62077651D01*
X144789706Y-62049672D01*
X144789567Y-62035486D01*
X144788453Y-62008467D01*
X144786224Y-61983249D01*
X144782881Y-61959832D01*
X144778423Y-61938217D01*
X144772852Y-61918402D01*
X144762405Y-61892059D01*
X144749450Y-61869768D01*
X144733988Y-61851530D01*
X144716019Y-61837344D01*
X144695543Y-61827212D01*
X144672559Y-61821133D01*
X144647068Y-61819106D01*
X144629737Y-61820007D01*
X144605836Y-61824735D01*
X144584451Y-61833517D01*
X144565582Y-61846351D01*
X144549228Y-61863238D01*
X144535391Y-61884178D01*
X144524069Y-61909171D01*
X144517919Y-61928084D01*
X144512888Y-61948799D01*
X144508974Y-61971315D01*
X144506179Y-61995633D01*
X144504501Y-62021752D01*
X144503942Y-62049672D01*
X144207672Y-62049672D01*
X144207719Y-62045390D01*
X144208582Y-62020088D01*
X144210020Y-61995747D01*
X144212034Y-61972369D01*
X144214623Y-61949952D01*
X144217787Y-61928497D01*
X144221526Y-61908003D01*
X144225841Y-61888471D01*
X144232489Y-61863925D01*
X144240160Y-61841088D01*
X144228847Y-61825186D01*
X144212406Y-61809661D01*
X144192840Y-61798018D01*
X144174148Y-61791280D01*
X144153284Y-61787237D01*
X144130251Y-61785889D01*
X144042323Y-61785889D01*
X144042323Y-61566071D01*
X144174214Y-61566071D01*
X144189142Y-61566500D01*
X144210724Y-61568754D01*
X144231337Y-61572940D01*
X144250979Y-61579058D01*
X144269650Y-61587108D01*
X144287352Y-61597090D01*
X144304083Y-61609004D01*
X144319844Y-61622850D01*
X144334634Y-61638628D01*
X144348454Y-61656338D01*
X144361304Y-61675980D01*
X144377962Y-61661369D01*
X144394964Y-61647701D01*
X144412309Y-61634976D01*
X144429998Y-61623193D01*
X144448030Y-61612353D01*
X144466405Y-61602455D01*
X144485124Y-61593500D01*
X144504186Y-61585488D01*
X144523592Y-61578418D01*
X144543342Y-61572291D01*
X144563434Y-61567107D01*
X144583871Y-61562865D01*
X144604650Y-61559566D01*
X144625774Y-61557209D01*
X144647240Y-61555795D01*
X144669050Y-61555324D01*
X144689458Y-61555795D01*
G37*
G36*
X143272423Y-61566178D02*
G01*
X143299042Y-61567037D01*
X143324802Y-61568754D01*
X143349703Y-61571330D01*
X143373746Y-61574765D01*
X143396930Y-61579058D01*
X143419255Y-61584210D01*
X143440722Y-61590221D01*
X143461330Y-61597090D01*
X143481079Y-61604818D01*
X143499970Y-61613405D01*
X143518002Y-61622850D01*
X143535175Y-61633154D01*
X143551490Y-61644317D01*
X143566946Y-61656338D01*
X143588520Y-61675980D01*
X143603190Y-61691465D01*
X143616913Y-61707632D01*
X143629690Y-61724483D01*
X143641521Y-61742017D01*
X143652405Y-61760234D01*
X143662342Y-61779134D01*
X143671334Y-61798718D01*
X143679378Y-61818984D01*
X143686477Y-61839934D01*
X143692629Y-61861566D01*
X143697834Y-61883882D01*
X143702093Y-61906881D01*
X143705405Y-61930563D01*
X143707772Y-61954928D01*
X143709191Y-61979976D01*
X143709664Y-62005708D01*
X143709664Y-62786308D01*
X143709191Y-62812039D01*
X143707772Y-62837088D01*
X143705405Y-62861453D01*
X143702093Y-62885135D01*
X143697834Y-62908134D01*
X143692629Y-62930449D01*
X143686477Y-62952082D01*
X143679378Y-62973032D01*
X143671334Y-62993298D01*
X143662342Y-63012881D01*
X143652405Y-63031782D01*
X143641521Y-63049999D01*
X143629690Y-63067533D01*
X143616913Y-63084383D01*
X143603190Y-63100551D01*
X143588520Y-63116036D01*
X143581543Y-63122798D01*
X143559325Y-63141796D01*
X143543440Y-63153388D01*
X143526696Y-63164121D01*
X143509093Y-63173996D01*
X143490632Y-63183012D01*
X143471312Y-63191169D01*
X143451133Y-63198468D01*
X143430096Y-63204908D01*
X143408200Y-63210489D01*
X143385445Y-63215212D01*
X143361832Y-63219076D01*
X143337360Y-63222081D01*
X143312029Y-63224228D01*
X143285840Y-63225516D01*
X143258792Y-63225945D01*
X143245161Y-63225838D01*
X143218542Y-63224979D01*
X143192782Y-63223262D01*
X143167881Y-63220686D01*
X143143838Y-63217251D01*
X143120654Y-63212958D01*
X143098329Y-63207806D01*
X143076862Y-63201795D01*
X143056254Y-63194926D01*
X143036505Y-63187198D01*
X143017614Y-63178611D01*
X142999582Y-63169166D01*
X142982409Y-63158862D01*
X142966094Y-63147699D01*
X142950638Y-63135678D01*
X142929064Y-63116036D01*
X142914454Y-63100551D01*
X142900786Y-63084383D01*
X142888060Y-63067533D01*
X142876277Y-63049999D01*
X142865437Y-63031782D01*
X142855540Y-63012881D01*
X142846585Y-62993298D01*
X142838572Y-62973032D01*
X142831503Y-62952082D01*
X142825376Y-62930449D01*
X142820191Y-62908134D01*
X142815949Y-62885135D01*
X142812650Y-62861453D01*
X142810294Y-62837088D01*
X142809275Y-62819036D01*
X143116154Y-62819036D01*
X143116541Y-62831208D01*
X143118902Y-62850635D01*
X143124569Y-62872531D01*
X143133328Y-62892882D01*
X143145177Y-62911687D01*
X143160118Y-62928946D01*
X143162196Y-62930989D01*
X143178558Y-62943478D01*
X143198100Y-62952788D01*
X143217380Y-62958238D01*
X143238995Y-62961352D01*
X143258792Y-62962163D01*
X143282371Y-62960995D01*
X143303649Y-62957492D01*
X143322625Y-62951653D01*
X143341856Y-62941889D01*
X143357955Y-62928946D01*
X143365812Y-62920509D01*
X143379207Y-62902477D01*
X143389511Y-62882900D01*
X143396724Y-62861777D01*
X143400845Y-62839108D01*
X143401918Y-62819036D01*
X143401918Y-61972979D01*
X143401532Y-61960808D01*
X143399171Y-61941380D01*
X143393504Y-61919484D01*
X143384745Y-61899134D01*
X143372896Y-61880329D01*
X143357955Y-61863070D01*
X143355847Y-61861026D01*
X143339301Y-61848538D01*
X143319622Y-61839228D01*
X143300262Y-61833778D01*
X143278601Y-61830664D01*
X143258792Y-61829853D01*
X143235230Y-61831021D01*
X143214004Y-61834524D01*
X143195113Y-61840363D01*
X143176026Y-61850127D01*
X143160118Y-61863070D01*
X143152261Y-61871506D01*
X143138866Y-61889538D01*
X143128562Y-61909116D01*
X143121349Y-61930239D01*
X143117228Y-61952908D01*
X143116154Y-61972979D01*
X143116154Y-62819036D01*
X142809275Y-62819036D01*
X142808880Y-62812039D01*
X142808408Y-62786308D01*
X142808408Y-62005708D01*
X142808880Y-61979976D01*
X142810294Y-61954928D01*
X142812650Y-61930563D01*
X142815949Y-61906881D01*
X142820191Y-61883882D01*
X142825376Y-61861566D01*
X142831503Y-61839934D01*
X142838572Y-61818984D01*
X142846585Y-61798718D01*
X142855540Y-61779134D01*
X142865437Y-61760234D01*
X142876277Y-61742017D01*
X142888060Y-61724483D01*
X142900786Y-61707632D01*
X142914454Y-61691465D01*
X142929064Y-61675980D01*
X142936041Y-61669218D01*
X142958259Y-61650220D01*
X142974144Y-61638628D01*
X142990888Y-61627895D01*
X143008491Y-61618020D01*
X143026952Y-61609004D01*
X143046272Y-61600847D01*
X143066451Y-61593548D01*
X143087488Y-61587108D01*
X143109384Y-61581527D01*
X143132139Y-61576804D01*
X143155752Y-61572940D01*
X143180224Y-61569935D01*
X143205555Y-61567788D01*
X143231744Y-61566500D01*
X143258792Y-61566071D01*
X143272423Y-61566178D01*
G37*
G36*
X141859769Y-60939832D02*
G01*
X141834082Y-60940261D01*
X141809165Y-60941549D01*
X141785019Y-60943696D01*
X141761645Y-60946701D01*
X141739041Y-60950565D01*
X141717208Y-60955288D01*
X141696146Y-60960869D01*
X141675854Y-60967309D01*
X141656334Y-60974608D01*
X141637584Y-60982765D01*
X141619606Y-60991781D01*
X141602398Y-61001656D01*
X141585961Y-61012389D01*
X141562752Y-61030099D01*
X141541276Y-61049741D01*
X141526607Y-61065083D01*
X141512883Y-61080943D01*
X141500106Y-61097323D01*
X141488276Y-61114221D01*
X141477392Y-61131639D01*
X141467454Y-61149576D01*
X141458463Y-61168031D01*
X141450418Y-61187006D01*
X141443320Y-61206499D01*
X141437168Y-61226512D01*
X141431963Y-61247044D01*
X141427704Y-61268094D01*
X141424391Y-61289664D01*
X141422025Y-61311753D01*
X141420605Y-61334361D01*
X141420132Y-61357487D01*
X141420132Y-61851835D01*
X141420994Y-61873305D01*
X141423582Y-61893753D01*
X141427894Y-61913178D01*
X141435711Y-61936021D01*
X141446222Y-61957266D01*
X141459429Y-61976912D01*
X141475331Y-61994961D01*
X141490187Y-62009303D01*
X141506119Y-62023692D01*
X141523126Y-62038128D01*
X141538559Y-62050538D01*
X141552023Y-62060907D01*
X141535537Y-62073575D01*
X141519050Y-62087033D01*
X141502564Y-62101281D01*
X141486078Y-62116319D01*
X141469591Y-62132147D01*
X141464096Y-62137599D01*
X141448334Y-62155373D01*
X141435245Y-62174197D01*
X141424826Y-62194071D01*
X141417079Y-62214993D01*
X141412003Y-62236966D01*
X141409599Y-62259988D01*
X141409385Y-62269490D01*
X141409385Y-62797055D01*
X141409857Y-62820181D01*
X141411271Y-62842789D01*
X141413627Y-62864878D01*
X141416926Y-62886448D01*
X141421168Y-62907498D01*
X141426353Y-62928030D01*
X141432480Y-62948043D01*
X141439549Y-62967536D01*
X141447562Y-62986511D01*
X141456517Y-63004966D01*
X141466414Y-63022903D01*
X141477254Y-63040321D01*
X141489037Y-63057219D01*
X141501763Y-63073599D01*
X141515431Y-63089459D01*
X141530041Y-63104801D01*
X141545526Y-63119470D01*
X141561694Y-63133194D01*
X141578544Y-63145971D01*
X141596078Y-63157801D01*
X141614296Y-63168685D01*
X141633196Y-63178623D01*
X141652779Y-63187614D01*
X141673045Y-63195659D01*
X141693995Y-63202757D01*
X141715628Y-63208909D01*
X141737943Y-63214115D01*
X141760942Y-63218374D01*
X141784624Y-63221686D01*
X141808990Y-63224052D01*
X141834038Y-63225472D01*
X141859769Y-63225945D01*
X141885558Y-63225472D01*
X141910656Y-63224052D01*
X141935063Y-63221686D01*
X141958779Y-63218374D01*
X141981805Y-63214115D01*
X142004140Y-63208909D01*
X142025784Y-63202757D01*
X142046737Y-63195659D01*
X142067000Y-63187614D01*
X142086572Y-63178623D01*
X142105453Y-63168685D01*
X142123643Y-63157801D01*
X142141143Y-63145971D01*
X142157951Y-63133194D01*
X142174070Y-63119470D01*
X142189497Y-63104801D01*
X142204167Y-63089459D01*
X142217890Y-63073599D01*
X142230667Y-63057219D01*
X142242498Y-63040321D01*
X142253382Y-63022903D01*
X142263319Y-63004966D01*
X142272311Y-62986511D01*
X142280355Y-62967536D01*
X142287454Y-62948043D01*
X142293605Y-62928030D01*
X142298811Y-62907498D01*
X142303070Y-62886448D01*
X142306382Y-62864878D01*
X142308749Y-62842789D01*
X142310168Y-62820181D01*
X142310641Y-62797055D01*
X142310641Y-62610453D01*
X142024877Y-62610453D01*
X142024877Y-62797055D01*
X142023804Y-62820363D01*
X142020584Y-62842049D01*
X142015217Y-62862113D01*
X142007704Y-62880555D01*
X141995854Y-62900545D01*
X141980914Y-62918199D01*
X141963259Y-62933140D01*
X141943270Y-62944989D01*
X141924827Y-62952503D01*
X141904763Y-62957869D01*
X141883077Y-62961089D01*
X141859769Y-62962163D01*
X141836602Y-62961089D01*
X141815033Y-62957869D01*
X141795061Y-62952503D01*
X141776688Y-62944989D01*
X141756750Y-62933140D01*
X141739113Y-62918199D01*
X141724172Y-62900545D01*
X141712323Y-62880555D01*
X141704809Y-62862113D01*
X141699443Y-62842049D01*
X141696223Y-62820363D01*
X141695149Y-62797055D01*
X141695149Y-62346671D01*
X141696223Y-62326599D01*
X141700344Y-62303931D01*
X141707557Y-62282808D01*
X141717861Y-62263230D01*
X141731256Y-62245198D01*
X141739113Y-62236762D01*
X141754507Y-62223819D01*
X141772052Y-62214055D01*
X141791747Y-62207470D01*
X141813592Y-62204064D01*
X141827041Y-62203545D01*
X141947697Y-62203545D01*
X141947697Y-61939762D01*
X141837787Y-61939762D01*
X141817990Y-61938963D01*
X141796375Y-61935895D01*
X141777095Y-61930525D01*
X141757553Y-61921352D01*
X141741191Y-61909047D01*
X141739113Y-61907034D01*
X141726170Y-61890421D01*
X141716406Y-61869647D01*
X141710567Y-61848530D01*
X141707486Y-61828597D01*
X141706026Y-61806541D01*
X141705896Y-61797124D01*
X141705896Y-61357487D01*
X141706707Y-61334454D01*
X141709140Y-61313590D01*
X141714200Y-61291420D01*
X141721596Y-61272374D01*
X141733177Y-61254105D01*
X141739113Y-61247578D01*
X141756750Y-61232637D01*
X141776688Y-61220788D01*
X141795061Y-61213274D01*
X141815033Y-61207908D01*
X141836602Y-61204688D01*
X141859769Y-61203614D01*
X141879840Y-61204688D01*
X141902509Y-61208809D01*
X141923632Y-61216022D01*
X141943210Y-61226326D01*
X141961242Y-61239721D01*
X141969678Y-61247578D01*
X141984619Y-61264837D01*
X141996469Y-61283642D01*
X142005227Y-61303992D01*
X142010894Y-61325888D01*
X142013256Y-61345316D01*
X142013642Y-61357487D01*
X142013642Y-61555324D01*
X142299406Y-61555324D01*
X142299406Y-61357487D01*
X142298935Y-61334361D01*
X142297521Y-61311753D01*
X142295164Y-61289664D01*
X142291865Y-61268094D01*
X142287623Y-61247044D01*
X142282439Y-61226512D01*
X142276312Y-61206499D01*
X142269242Y-61187006D01*
X142261230Y-61168031D01*
X142252275Y-61149576D01*
X142242377Y-61131639D01*
X142231537Y-61114221D01*
X142219754Y-61097323D01*
X142207029Y-61080943D01*
X142193361Y-61065083D01*
X142178750Y-61049741D01*
X142157271Y-61030099D01*
X142134048Y-61012389D01*
X142117598Y-61001656D01*
X142100373Y-60991781D01*
X142082374Y-60982765D01*
X142063599Y-60974608D01*
X142044050Y-60967309D01*
X142023727Y-60960869D01*
X142002628Y-60955288D01*
X141980755Y-60950565D01*
X141958107Y-60946701D01*
X141934685Y-60943696D01*
X141910488Y-60941549D01*
X141885516Y-60940261D01*
X141859769Y-60939832D01*
G37*
G36*
X140054326Y-61225596D02*
G01*
X140603872Y-61225596D01*
X140603872Y-61851835D01*
X140589019Y-61838129D01*
X140573401Y-61825771D01*
X140557019Y-61814762D01*
X140539873Y-61805100D01*
X140521963Y-61796787D01*
X140503288Y-61789822D01*
X140483849Y-61784205D01*
X140463646Y-61779936D01*
X140442679Y-61777015D01*
X140420948Y-61775442D01*
X140406036Y-61775143D01*
X140382995Y-61775528D01*
X140360645Y-61776684D01*
X140338985Y-61778612D01*
X140318017Y-61781310D01*
X140297739Y-61784779D01*
X140278152Y-61789019D01*
X140259255Y-61794029D01*
X140232206Y-61802991D01*
X140206711Y-61813687D01*
X140182770Y-61826118D01*
X140160383Y-61840283D01*
X140139550Y-61856183D01*
X140120272Y-61873817D01*
X140102550Y-61893178D01*
X140086572Y-61914077D01*
X140072337Y-61936512D01*
X140059844Y-61960485D01*
X140049095Y-61985994D01*
X140040089Y-62013041D01*
X140035054Y-62031926D01*
X140030793Y-62051494D01*
X140027307Y-62071745D01*
X140024595Y-62092679D01*
X140022658Y-62114297D01*
X140021496Y-62136597D01*
X140021109Y-62159581D01*
X140021109Y-62797055D01*
X140021582Y-62821485D01*
X140023002Y-62845315D01*
X140025368Y-62868547D01*
X140028681Y-62891180D01*
X140032939Y-62913213D01*
X140038145Y-62934647D01*
X140044297Y-62955482D01*
X140051395Y-62975718D01*
X140059440Y-62995355D01*
X140068431Y-63014393D01*
X140078369Y-63032831D01*
X140089253Y-63050670D01*
X140101083Y-63067910D01*
X140113860Y-63084551D01*
X140127584Y-63100593D01*
X140142253Y-63116036D01*
X140163729Y-63135678D01*
X140186938Y-63153388D01*
X140203375Y-63164121D01*
X140220583Y-63173996D01*
X140238561Y-63183012D01*
X140257311Y-63191169D01*
X140276831Y-63198468D01*
X140297122Y-63204908D01*
X140318185Y-63210489D01*
X140340018Y-63215212D01*
X140362622Y-63219076D01*
X140385996Y-63222081D01*
X140410142Y-63224228D01*
X140435059Y-63225516D01*
X140460746Y-63225945D01*
X140486493Y-63225516D01*
X140511465Y-63224228D01*
X140535662Y-63222081D01*
X140559084Y-63219076D01*
X140581732Y-63215212D01*
X140603605Y-63210489D01*
X140624704Y-63204908D01*
X140645027Y-63198468D01*
X140664576Y-63191169D01*
X140683351Y-63183012D01*
X140701350Y-63173996D01*
X140718575Y-63164121D01*
X140735025Y-63153388D01*
X140758248Y-63135678D01*
X140779727Y-63116036D01*
X140794338Y-63100593D01*
X140808006Y-63084551D01*
X140820731Y-63067910D01*
X140832514Y-63050670D01*
X140843354Y-63032831D01*
X140853252Y-63014393D01*
X140862207Y-62995355D01*
X140870219Y-62975718D01*
X140877289Y-62955482D01*
X140883416Y-62934647D01*
X140888600Y-62913213D01*
X140892842Y-62891180D01*
X140896141Y-62868547D01*
X140898498Y-62845315D01*
X140899912Y-62821485D01*
X140900383Y-62797055D01*
X140900383Y-62588471D01*
X140614619Y-62588471D01*
X140614619Y-62797055D01*
X140613546Y-62820363D01*
X140610326Y-62842049D01*
X140604959Y-62862113D01*
X140597446Y-62880555D01*
X140585596Y-62900545D01*
X140570655Y-62918199D01*
X140553396Y-62933140D01*
X140534591Y-62944989D01*
X140514241Y-62953748D01*
X140492345Y-62959415D01*
X140472918Y-62961776D01*
X140460746Y-62962163D01*
X140437579Y-62961089D01*
X140416010Y-62957869D01*
X140396038Y-62952503D01*
X140377665Y-62944989D01*
X140357727Y-62933140D01*
X140340090Y-62918199D01*
X140327147Y-62901049D01*
X140318583Y-62882181D01*
X140312355Y-62859466D01*
X140308949Y-62837599D01*
X140307165Y-62813060D01*
X140306873Y-62797055D01*
X140306873Y-62214780D01*
X140307560Y-62190852D01*
X140309621Y-62168648D01*
X140313056Y-62148170D01*
X140319281Y-62124998D01*
X140327653Y-62104521D01*
X140338171Y-62086740D01*
X140350837Y-62071653D01*
X140368096Y-62056713D01*
X140386901Y-62044863D01*
X140407251Y-62036105D01*
X140429147Y-62030437D01*
X140448575Y-62028076D01*
X140460746Y-62027690D01*
X140481051Y-62029235D01*
X140500565Y-62033872D01*
X140519290Y-62041600D01*
X140537225Y-62052419D01*
X140554369Y-62066330D01*
X140559909Y-62071653D01*
X140574849Y-62088913D01*
X140586699Y-62107717D01*
X140595457Y-62128068D01*
X140601125Y-62149964D01*
X140603486Y-62169391D01*
X140603872Y-62181563D01*
X140889637Y-62181563D01*
X140889637Y-60961814D01*
X140054326Y-60961814D01*
X140054326Y-61225596D01*
G37*
G36*
X138369539Y-60906615D02*
G01*
X139567306Y-63511709D01*
X139743161Y-63401800D01*
X138545394Y-60807941D01*
X138369539Y-60906615D01*
G37*
G36*
X137530809Y-61577306D02*
G01*
X137278262Y-61577306D01*
X137278262Y-61889448D01*
X137530809Y-61889448D01*
X137530809Y-62863000D01*
X137529199Y-62885235D01*
X137523017Y-62906942D01*
X137512197Y-62923222D01*
X137493715Y-62935357D01*
X137472849Y-62939879D01*
X137464863Y-62940181D01*
X137300244Y-62940181D01*
X137300244Y-63203963D01*
X137618736Y-63203963D01*
X137645355Y-63203061D01*
X137670256Y-63200353D01*
X137693440Y-63195840D01*
X137714907Y-63189522D01*
X137734656Y-63181399D01*
X137752688Y-63171471D01*
X137769003Y-63159738D01*
X137783600Y-63146200D01*
X137796480Y-63130856D01*
X137807643Y-63113708D01*
X137817088Y-63094754D01*
X137824816Y-63073995D01*
X137830827Y-63051432D01*
X137835120Y-63027063D01*
X137837696Y-63000889D01*
X137838555Y-62972909D01*
X137838555Y-61889448D01*
X138080355Y-61889448D01*
X138080355Y-61577306D01*
X137838555Y-61577306D01*
X137838555Y-60961814D01*
X137530809Y-60961814D01*
X137530809Y-61577306D01*
G37*
G36*
X136109804Y-61291542D02*
G01*
X136417550Y-61291542D01*
X136417550Y-60961814D01*
X136109804Y-60961814D01*
X136109804Y-61291542D01*
G37*
G36*
X136109804Y-63203963D02*
G01*
X136417550Y-63203963D01*
X136417550Y-61577306D01*
X136109804Y-61577306D01*
X136109804Y-63203963D01*
G37*
G36*
X134403035Y-63203963D02*
G01*
X134710781Y-63203963D01*
X134710781Y-61907034D01*
X134711554Y-61887502D01*
X134714409Y-61867667D01*
X134720248Y-61848891D01*
X134731410Y-61831259D01*
X134732763Y-61829853D01*
X134748324Y-61817100D01*
X134765942Y-61807480D01*
X134785617Y-61800992D01*
X134807349Y-61797636D01*
X134820690Y-61797124D01*
X134845473Y-61798666D01*
X134870241Y-61803292D01*
X134894994Y-61811000D01*
X134913548Y-61818806D01*
X134932094Y-61828346D01*
X134950631Y-61839620D01*
X134969159Y-61852629D01*
X134987679Y-61867372D01*
X135006191Y-61883850D01*
X135018527Y-61895799D01*
X135018527Y-63203963D01*
X135326273Y-63203963D01*
X135326273Y-61577306D01*
X135018527Y-61577306D01*
X135018527Y-61653998D01*
X134999337Y-61642049D01*
X134980234Y-61630871D01*
X134961220Y-61620464D01*
X134942293Y-61610828D01*
X134923454Y-61601963D01*
X134904702Y-61593869D01*
X134886039Y-61586545D01*
X134867463Y-61579993D01*
X134839764Y-61571609D01*
X134812262Y-61564960D01*
X134784958Y-61560046D01*
X134757851Y-61556866D01*
X134730942Y-61555420D01*
X134722016Y-61555324D01*
X134695764Y-61555998D01*
X134670679Y-61558020D01*
X134646763Y-61561390D01*
X134624014Y-61566109D01*
X134602433Y-61572175D01*
X134582019Y-61579590D01*
X134562774Y-61588353D01*
X134544696Y-61598463D01*
X134527786Y-61609922D01*
X134512044Y-61622729D01*
X134502198Y-61632016D01*
X134484476Y-61651185D01*
X134468498Y-61671503D01*
X134454263Y-61692973D01*
X134441770Y-61715593D01*
X134431021Y-61739364D01*
X134422015Y-61764285D01*
X134414752Y-61790357D01*
X134409233Y-61817580D01*
X134405456Y-61845953D01*
X134403907Y-61865508D01*
X134403132Y-61885574D01*
X134403035Y-61895799D01*
X134403035Y-63203963D01*
G37*
G36*
X133465631Y-62467327D02*
G01*
X133223831Y-61577306D01*
X132894103Y-61577306D01*
X133421667Y-63325108D01*
X133430384Y-63351726D01*
X133440047Y-63376628D01*
X133450656Y-63399812D01*
X133462212Y-63421278D01*
X133474714Y-63441028D01*
X133488162Y-63459060D01*
X133502557Y-63475374D01*
X133517899Y-63489972D01*
X133534187Y-63502852D01*
X133551421Y-63514014D01*
X133569602Y-63523460D01*
X133588729Y-63531188D01*
X133608803Y-63537198D01*
X133629823Y-63541492D01*
X133651790Y-63544068D01*
X133674703Y-63544926D01*
X133960467Y-63544926D01*
X133960467Y-63291891D01*
X133839323Y-63291891D01*
X133819525Y-63291354D01*
X133797910Y-63289293D01*
X133778630Y-63285687D01*
X133759089Y-63279526D01*
X133740648Y-63269909D01*
X133726139Y-63256084D01*
X133713740Y-63237537D01*
X133703434Y-63217358D01*
X133695206Y-63198124D01*
X133686993Y-63176142D01*
X133678796Y-63151413D01*
X133674703Y-63138018D01*
X133619504Y-62950928D01*
X134026413Y-61577306D01*
X133696685Y-61577306D01*
X133465631Y-62467327D01*
G37*
G36*
X132098251Y-61555795D02*
G01*
X132118319Y-61557209D01*
X132138047Y-61559566D01*
X132157436Y-61562865D01*
X132185882Y-61569581D01*
X132213564Y-61578418D01*
X132240482Y-61589376D01*
X132266635Y-61602455D01*
X132283646Y-61612353D01*
X132300318Y-61623193D01*
X132316650Y-61634976D01*
X132332642Y-61647701D01*
X132348294Y-61661369D01*
X132363607Y-61675980D01*
X132379578Y-61692810D01*
X132394519Y-61710327D01*
X132408430Y-61728530D01*
X132421310Y-61747421D01*
X132433159Y-61766999D01*
X132443978Y-61787263D01*
X132453767Y-61808215D01*
X132462526Y-61829853D01*
X132470254Y-61852178D01*
X132476951Y-61875191D01*
X132482618Y-61898890D01*
X132487255Y-61923276D01*
X132490862Y-61948349D01*
X132493438Y-61974109D01*
X132494983Y-62000556D01*
X132495498Y-62027690D01*
X132494983Y-62054867D01*
X132493438Y-62081446D01*
X132490862Y-62107425D01*
X132487255Y-62132806D01*
X132482618Y-62157587D01*
X132476951Y-62181769D01*
X132470254Y-62205352D01*
X132462526Y-62228335D01*
X132453767Y-62250720D01*
X132443978Y-62272505D01*
X132433159Y-62293691D01*
X132421310Y-62314278D01*
X132408430Y-62334266D01*
X132394519Y-62353655D01*
X132379578Y-62372444D01*
X132363607Y-62390635D01*
X132384902Y-62407077D01*
X132404823Y-62423432D01*
X132423370Y-62439699D01*
X132440544Y-62455878D01*
X132456343Y-62471969D01*
X132470769Y-62487973D01*
X132483821Y-62503889D01*
X132500822Y-62527598D01*
X132514732Y-62551110D01*
X132525552Y-62574424D01*
X132533280Y-62597541D01*
X132537916Y-62620460D01*
X132539462Y-62643182D01*
X132539322Y-62654055D01*
X132538204Y-62675094D01*
X132535968Y-62695191D01*
X132530517Y-62723568D01*
X132522550Y-62749825D01*
X132512067Y-62773960D01*
X132499068Y-62795975D01*
X132483553Y-62815869D01*
X132465523Y-62833642D01*
X132444976Y-62849294D01*
X132421914Y-62862825D01*
X132396336Y-62874235D01*
X132417631Y-62890893D01*
X132437552Y-62907895D01*
X132456099Y-62925240D01*
X132473272Y-62942929D01*
X132489072Y-62960961D01*
X132503497Y-62979336D01*
X132516549Y-62998055D01*
X132528227Y-63017117D01*
X132538531Y-63036523D01*
X132547461Y-63056273D01*
X132555017Y-63076365D01*
X132561200Y-63096802D01*
X132566008Y-63117581D01*
X132569443Y-63138705D01*
X132571504Y-63160171D01*
X132572191Y-63181981D01*
X132571761Y-63199742D01*
X132569507Y-63225897D01*
X132565321Y-63251468D01*
X132559203Y-63276456D01*
X132551153Y-63300859D01*
X132541171Y-63324678D01*
X132529257Y-63347914D01*
X132515411Y-63370565D01*
X132499633Y-63392633D01*
X132481923Y-63414117D01*
X132462281Y-63435017D01*
X132455208Y-63441779D01*
X132439840Y-63454659D01*
X132422842Y-63466680D01*
X132404215Y-63477843D01*
X132383958Y-63488147D01*
X132362072Y-63497592D01*
X132338556Y-63506179D01*
X132313410Y-63513907D01*
X132286635Y-63520776D01*
X132258230Y-63526787D01*
X132228196Y-63531939D01*
X132196532Y-63536232D01*
X132163239Y-63539667D01*
X132128316Y-63542243D01*
X132091764Y-63543960D01*
X132053581Y-63544819D01*
X132033879Y-63544926D01*
X132013465Y-63544797D01*
X131993436Y-63544411D01*
X131954539Y-63542865D01*
X131917187Y-63540289D01*
X131881380Y-63536683D01*
X131847119Y-63532046D01*
X131814404Y-63526379D01*
X131783235Y-63519681D01*
X131753611Y-63511953D01*
X131725532Y-63503195D01*
X131699000Y-63493406D01*
X131674012Y-63482587D01*
X131650571Y-63470737D01*
X131628675Y-63457857D01*
X131608324Y-63443947D01*
X131589520Y-63429006D01*
X131572260Y-63413035D01*
X131556289Y-63396505D01*
X131541348Y-63379887D01*
X131527438Y-63363181D01*
X131514558Y-63346387D01*
X131502708Y-63329506D01*
X131491889Y-63312537D01*
X131482100Y-63295480D01*
X131469349Y-63269730D01*
X131458916Y-63243782D01*
X131450802Y-63217637D01*
X131445006Y-63191295D01*
X131441528Y-63164755D01*
X131440835Y-63148764D01*
X131736880Y-63148764D01*
X131737170Y-63156909D01*
X131741521Y-63179791D01*
X131751092Y-63200346D01*
X131765884Y-63218574D01*
X131785897Y-63234475D01*
X131811130Y-63248049D01*
X131830853Y-63255806D01*
X131852895Y-63262528D01*
X131877259Y-63268216D01*
X131903942Y-63272870D01*
X131932946Y-63276490D01*
X131964270Y-63279076D01*
X131997915Y-63280627D01*
X132033879Y-63281144D01*
X132064461Y-63280541D01*
X132093070Y-63278732D01*
X132119706Y-63275717D01*
X132144369Y-63271496D01*
X132167059Y-63266070D01*
X132187775Y-63259437D01*
X132206519Y-63251598D01*
X132230935Y-63237579D01*
X132250912Y-63220846D01*
X132266450Y-63201401D01*
X132277548Y-63179241D01*
X132284207Y-63154369D01*
X132286426Y-63126782D01*
X132285997Y-63111914D01*
X132283743Y-63090413D01*
X132279557Y-63069874D01*
X132273439Y-63050296D01*
X132265389Y-63031680D01*
X132255407Y-63014026D01*
X132243493Y-62997334D01*
X132229647Y-62981603D01*
X132213869Y-62966834D01*
X132196159Y-62953027D01*
X132176517Y-62940181D01*
X132154825Y-62943601D01*
X132133714Y-62947022D01*
X132113182Y-62950443D01*
X132093230Y-62953866D01*
X132055067Y-62960715D01*
X132019225Y-62967567D01*
X131985702Y-62974423D01*
X131954500Y-62981282D01*
X131925619Y-62988146D01*
X131899057Y-62995013D01*
X131874816Y-63001885D01*
X131852895Y-63008760D01*
X131833295Y-63015639D01*
X131808245Y-63025964D01*
X131788415Y-63036298D01*
X131770097Y-63050090D01*
X131768053Y-63052168D01*
X131755565Y-63068531D01*
X131746255Y-63088072D01*
X131740805Y-63107352D01*
X131737691Y-63128967D01*
X131736880Y-63148764D01*
X131440835Y-63148764D01*
X131440369Y-63138018D01*
X131440713Y-63119041D01*
X131442516Y-63091542D01*
X131445865Y-63065203D01*
X131450759Y-63040022D01*
X131457199Y-63016001D01*
X131465185Y-62993139D01*
X131474716Y-62971436D01*
X131485793Y-62950893D01*
X131498415Y-62931508D01*
X131512583Y-62913283D01*
X131528297Y-62896217D01*
X131540017Y-62885398D01*
X131560330Y-62869813D01*
X131583923Y-62855001D01*
X131601474Y-62845556D01*
X131620483Y-62836454D01*
X131640950Y-62827696D01*
X131662875Y-62819281D01*
X131686257Y-62811209D01*
X131711097Y-62803481D01*
X131737395Y-62796097D01*
X131765151Y-62789056D01*
X131794365Y-62782358D01*
X131825036Y-62776004D01*
X131857166Y-62769993D01*
X131890753Y-62764326D01*
X131907727Y-62761567D01*
X131940383Y-62755984D01*
X131971317Y-62750313D01*
X132000531Y-62744554D01*
X132028024Y-62738708D01*
X132053795Y-62732773D01*
X132077845Y-62726751D01*
X132100175Y-62720641D01*
X132120783Y-62714444D01*
X132139669Y-62708158D01*
X132164773Y-62698566D01*
X132186003Y-62688775D01*
X132203361Y-62678788D01*
X132220481Y-62665163D01*
X132225122Y-62660370D01*
X132240032Y-62641185D01*
X132249096Y-62621985D01*
X132252204Y-62597964D01*
X132248113Y-62578730D01*
X132238175Y-62559481D01*
X132222391Y-62540216D01*
X132206716Y-62525758D01*
X132187752Y-62511290D01*
X132174902Y-62517227D01*
X132156260Y-62524233D01*
X132135892Y-62530202D01*
X132113800Y-62535133D01*
X132089982Y-62539025D01*
X132064440Y-62541880D01*
X132044151Y-62543340D01*
X132022892Y-62544216D01*
X132000662Y-62544508D01*
X131991078Y-62544389D01*
X131962713Y-62542615D01*
X131934932Y-62538711D01*
X131907736Y-62532677D01*
X131881123Y-62524514D01*
X131855094Y-62514221D01*
X131829648Y-62501799D01*
X131804787Y-62487248D01*
X131788537Y-62476364D01*
X131772547Y-62464533D01*
X131756816Y-62451756D01*
X131741345Y-62438033D01*
X131726133Y-62423363D01*
X131712824Y-62409109D01*
X131700373Y-62393825D01*
X131688781Y-62377510D01*
X131678048Y-62360165D01*
X131668173Y-62341790D01*
X131659157Y-62322384D01*
X131651000Y-62301948D01*
X131643701Y-62280481D01*
X131637261Y-62257984D01*
X131631680Y-62234456D01*
X131626957Y-62209899D01*
X131623093Y-62184310D01*
X131620088Y-62157692D01*
X131617941Y-62130043D01*
X131616653Y-62101363D01*
X131616224Y-62071653D01*
X131616465Y-62049672D01*
X131912735Y-62049672D01*
X131912875Y-62063887D01*
X131913993Y-62090963D01*
X131916229Y-62116235D01*
X131919584Y-62139701D01*
X131924056Y-62161363D01*
X131929647Y-62181219D01*
X131940130Y-62207618D01*
X131953129Y-62229957D01*
X131968644Y-62248233D01*
X131986674Y-62262449D01*
X132007221Y-62272602D01*
X132030283Y-62278695D01*
X132055861Y-62280725D01*
X132073134Y-62279823D01*
X132096953Y-62275084D01*
X132118265Y-62266284D01*
X132137070Y-62253423D01*
X132153368Y-62236500D01*
X132167158Y-62215516D01*
X132178441Y-62190470D01*
X132184570Y-62171516D01*
X132189584Y-62150758D01*
X132193484Y-62128194D01*
X132196270Y-62103825D01*
X132197942Y-62077651D01*
X132198499Y-62049672D01*
X132198360Y-62035486D01*
X132197245Y-62008467D01*
X132195017Y-61983249D01*
X132191674Y-61959832D01*
X132187216Y-61938217D01*
X132181644Y-61918402D01*
X132171197Y-61892059D01*
X132158243Y-61869768D01*
X132142781Y-61851530D01*
X132124812Y-61837344D01*
X132104336Y-61827212D01*
X132081352Y-61821133D01*
X132055861Y-61819106D01*
X132038530Y-61820007D01*
X132014629Y-61824735D01*
X131993243Y-61833517D01*
X131974374Y-61846351D01*
X131958021Y-61863238D01*
X131944184Y-61884178D01*
X131932862Y-61909171D01*
X131926712Y-61928084D01*
X131921680Y-61948799D01*
X131917767Y-61971315D01*
X131914971Y-61995633D01*
X131913294Y-62021752D01*
X131912735Y-62049672D01*
X131616465Y-62049672D01*
X131616512Y-62045390D01*
X131617375Y-62020088D01*
X131618813Y-61995747D01*
X131620827Y-61972369D01*
X131623415Y-61949952D01*
X131626580Y-61928497D01*
X131630319Y-61908003D01*
X131634634Y-61888471D01*
X131641282Y-61863925D01*
X131648953Y-61841088D01*
X131637640Y-61825186D01*
X131621199Y-61809661D01*
X131601633Y-61798018D01*
X131582940Y-61791280D01*
X131562077Y-61787237D01*
X131539043Y-61785889D01*
X131451116Y-61785889D01*
X131451116Y-61566071D01*
X131583007Y-61566071D01*
X131597935Y-61566500D01*
X131619517Y-61568754D01*
X131640129Y-61572940D01*
X131659771Y-61579058D01*
X131678443Y-61587108D01*
X131696144Y-61597090D01*
X131712876Y-61609004D01*
X131728636Y-61622850D01*
X131743427Y-61638628D01*
X131757247Y-61656338D01*
X131770097Y-61675980D01*
X131786755Y-61661369D01*
X131803757Y-61647701D01*
X131821102Y-61634976D01*
X131838790Y-61623193D01*
X131856822Y-61612353D01*
X131875198Y-61602455D01*
X131893917Y-61593500D01*
X131912979Y-61585488D01*
X131932385Y-61578418D01*
X131952134Y-61572291D01*
X131972227Y-61567107D01*
X131992663Y-61562865D01*
X132013443Y-61559566D01*
X132034566Y-61557209D01*
X132056033Y-61555795D01*
X132077843Y-61555324D01*
X132098251Y-61555795D01*
G37*
G36*
X130681216Y-61566178D02*
G01*
X130707835Y-61567037D01*
X130733595Y-61568754D01*
X130758496Y-61571330D01*
X130782539Y-61574765D01*
X130805723Y-61579058D01*
X130828048Y-61584210D01*
X130849515Y-61590221D01*
X130870123Y-61597090D01*
X130889872Y-61604818D01*
X130908763Y-61613405D01*
X130926795Y-61622850D01*
X130943968Y-61633154D01*
X130960283Y-61644317D01*
X130975739Y-61656338D01*
X130997313Y-61675980D01*
X131011983Y-61691465D01*
X131025706Y-61707632D01*
X131038483Y-61724483D01*
X131050313Y-61742017D01*
X131061198Y-61760234D01*
X131071135Y-61779134D01*
X131080126Y-61798718D01*
X131088171Y-61818984D01*
X131095269Y-61839934D01*
X131101421Y-61861566D01*
X131106627Y-61883882D01*
X131110886Y-61906881D01*
X131114198Y-61930563D01*
X131116564Y-61954928D01*
X131117984Y-61979976D01*
X131118457Y-62005708D01*
X131118457Y-62786308D01*
X131117984Y-62812039D01*
X131116564Y-62837088D01*
X131114198Y-62861453D01*
X131110886Y-62885135D01*
X131106627Y-62908134D01*
X131101421Y-62930449D01*
X131095269Y-62952082D01*
X131088171Y-62973032D01*
X131080126Y-62993298D01*
X131071135Y-63012881D01*
X131061198Y-63031782D01*
X131050313Y-63049999D01*
X131038483Y-63067533D01*
X131025706Y-63084383D01*
X131011983Y-63100551D01*
X130997313Y-63116036D01*
X130990336Y-63122798D01*
X130968118Y-63141796D01*
X130952233Y-63153388D01*
X130935489Y-63164121D01*
X130917886Y-63173996D01*
X130899425Y-63183012D01*
X130880105Y-63191169D01*
X130859926Y-63198468D01*
X130838889Y-63204908D01*
X130816993Y-63210489D01*
X130794238Y-63215212D01*
X130770625Y-63219076D01*
X130746153Y-63222081D01*
X130720822Y-63224228D01*
X130694633Y-63225516D01*
X130667585Y-63225945D01*
X130653954Y-63225838D01*
X130627335Y-63224979D01*
X130601575Y-63223262D01*
X130576674Y-63220686D01*
X130552631Y-63217251D01*
X130529447Y-63212958D01*
X130507122Y-63207806D01*
X130485655Y-63201795D01*
X130465047Y-63194926D01*
X130445298Y-63187198D01*
X130426407Y-63178611D01*
X130408375Y-63169166D01*
X130391202Y-63158862D01*
X130374887Y-63147699D01*
X130359431Y-63135678D01*
X130337857Y-63116036D01*
X130323246Y-63100551D01*
X130309578Y-63084383D01*
X130296853Y-63067533D01*
X130285070Y-63049999D01*
X130274230Y-63031782D01*
X130264332Y-63012881D01*
X130255377Y-62993298D01*
X130247365Y-62973032D01*
X130240295Y-62952082D01*
X130234168Y-62930449D01*
X130228984Y-62908134D01*
X130224742Y-62885135D01*
X130221443Y-62861453D01*
X130219086Y-62837088D01*
X130218067Y-62819036D01*
X130524947Y-62819036D01*
X130525333Y-62831208D01*
X130527695Y-62850635D01*
X130533362Y-62872531D01*
X130542120Y-62892882D01*
X130553970Y-62911687D01*
X130568911Y-62928946D01*
X130570989Y-62930989D01*
X130587351Y-62943478D01*
X130606892Y-62952788D01*
X130626172Y-62958238D01*
X130647788Y-62961352D01*
X130667585Y-62962163D01*
X130691164Y-62960995D01*
X130712442Y-62957492D01*
X130731418Y-62951653D01*
X130750649Y-62941889D01*
X130766747Y-62928946D01*
X130774604Y-62920509D01*
X130787999Y-62902477D01*
X130798303Y-62882900D01*
X130805516Y-62861777D01*
X130809638Y-62839108D01*
X130810711Y-62819036D01*
X130810711Y-61972979D01*
X130810325Y-61960808D01*
X130807963Y-61941380D01*
X130802296Y-61919484D01*
X130793538Y-61899134D01*
X130781688Y-61880329D01*
X130766747Y-61863070D01*
X130764639Y-61861026D01*
X130748093Y-61848538D01*
X130728415Y-61839228D01*
X130709055Y-61833778D01*
X130687394Y-61830664D01*
X130667585Y-61829853D01*
X130644023Y-61831021D01*
X130622797Y-61834524D01*
X130603906Y-61840363D01*
X130584819Y-61850127D01*
X130568911Y-61863070D01*
X130561054Y-61871506D01*
X130547659Y-61889538D01*
X130537355Y-61909116D01*
X130530142Y-61930239D01*
X130526020Y-61952908D01*
X130524947Y-61972979D01*
X130524947Y-62819036D01*
X130218067Y-62819036D01*
X130217672Y-62812039D01*
X130217201Y-62786308D01*
X130217201Y-62005708D01*
X130217672Y-61979976D01*
X130219086Y-61954928D01*
X130221443Y-61930563D01*
X130224742Y-61906881D01*
X130228984Y-61883882D01*
X130234168Y-61861566D01*
X130240295Y-61839934D01*
X130247365Y-61818984D01*
X130255377Y-61798718D01*
X130264332Y-61779134D01*
X130274230Y-61760234D01*
X130285070Y-61742017D01*
X130296853Y-61724483D01*
X130309578Y-61707632D01*
X130323246Y-61691465D01*
X130337857Y-61675980D01*
X130344834Y-61669218D01*
X130367052Y-61650220D01*
X130382937Y-61638628D01*
X130399681Y-61627895D01*
X130417284Y-61618020D01*
X130435745Y-61609004D01*
X130455065Y-61600847D01*
X130475244Y-61593548D01*
X130496281Y-61587108D01*
X130518177Y-61581527D01*
X130540932Y-61576804D01*
X130564545Y-61572940D01*
X130589017Y-61569935D01*
X130614348Y-61567788D01*
X130640537Y-61566500D01*
X130667585Y-61566071D01*
X130681216Y-61566178D01*
G37*
G36*
X128664305Y-62317850D02*
G01*
X129873307Y-62317850D01*
X129873307Y-62005708D01*
X128664305Y-62005708D01*
X128664305Y-62317850D01*
G37*
G36*
X128023412Y-62027690D02*
G01*
X127682937Y-61577306D01*
X127331228Y-61577306D01*
X127737648Y-62137599D01*
X127287264Y-63203963D01*
X127616992Y-63203963D01*
X127946720Y-62412616D01*
X128023412Y-62500544D01*
X128023412Y-63203963D01*
X128331158Y-63203963D01*
X128331158Y-60961814D01*
X128023412Y-60961814D01*
X128023412Y-62027690D01*
G37*
G36*
X126494946Y-61566544D02*
G01*
X126518777Y-61567964D01*
X126542008Y-61570330D01*
X126564641Y-61573642D01*
X126586674Y-61577901D01*
X126608108Y-61583107D01*
X126628944Y-61589258D01*
X126649179Y-61596357D01*
X126668816Y-61604402D01*
X126687854Y-61613393D01*
X126706292Y-61623330D01*
X126724131Y-61634214D01*
X126741372Y-61646045D01*
X126758013Y-61658822D01*
X126774054Y-61672545D01*
X126789497Y-61687215D01*
X126805468Y-61703959D01*
X126820409Y-61721218D01*
X126834319Y-61738993D01*
X126847199Y-61757282D01*
X126859049Y-61776087D01*
X126869868Y-61795407D01*
X126879657Y-61815242D01*
X126888415Y-61835593D01*
X126896143Y-61856458D01*
X126902841Y-61877839D01*
X126908508Y-61899735D01*
X126913145Y-61922146D01*
X126916751Y-61945073D01*
X126919327Y-61968514D01*
X126920873Y-61992471D01*
X126921388Y-62016943D01*
X126921388Y-62786308D01*
X126920915Y-62812039D01*
X126919495Y-62837088D01*
X126917129Y-62861453D01*
X126913817Y-62885135D01*
X126909558Y-62908134D01*
X126904352Y-62930449D01*
X126898200Y-62952082D01*
X126891102Y-62973032D01*
X126883057Y-62993298D01*
X126874066Y-63012881D01*
X126864128Y-63031782D01*
X126853244Y-63049999D01*
X126841414Y-63067533D01*
X126828637Y-63084383D01*
X126814913Y-63100551D01*
X126800244Y-63116036D01*
X126793267Y-63122798D01*
X126771049Y-63141796D01*
X126755164Y-63153388D01*
X126738420Y-63164121D01*
X126720817Y-63173996D01*
X126702356Y-63183012D01*
X126683036Y-63191169D01*
X126662857Y-63198468D01*
X126641820Y-63204908D01*
X126619924Y-63210489D01*
X126597169Y-63215212D01*
X126573556Y-63219076D01*
X126549084Y-63222081D01*
X126523753Y-63224228D01*
X126497564Y-63225516D01*
X126470516Y-63225945D01*
X126456234Y-63225838D01*
X126428440Y-63224979D01*
X126401672Y-63223262D01*
X126375931Y-63220686D01*
X126351217Y-63217251D01*
X126327529Y-63212958D01*
X126304868Y-63207806D01*
X126283234Y-63201795D01*
X126262626Y-63194926D01*
X126243044Y-63187198D01*
X126224489Y-63178611D01*
X126206961Y-63169166D01*
X126182594Y-63153388D01*
X126160536Y-63135678D01*
X126140788Y-63116036D01*
X126126177Y-63100551D01*
X126112509Y-63084383D01*
X126099784Y-63067533D01*
X126088001Y-63049999D01*
X126077161Y-63031782D01*
X126067263Y-63012881D01*
X126058308Y-62993298D01*
X126050296Y-62973032D01*
X126043226Y-62952082D01*
X126037099Y-62930449D01*
X126031915Y-62908134D01*
X126027673Y-62885135D01*
X126024374Y-62861453D01*
X126022017Y-62837088D01*
X126020603Y-62812039D01*
X126020132Y-62786308D01*
X126020132Y-62632435D01*
X126327878Y-62632435D01*
X126327878Y-62808290D01*
X126328264Y-62820461D01*
X126330626Y-62839889D01*
X126336293Y-62861785D01*
X126345051Y-62882135D01*
X126356901Y-62900940D01*
X126371842Y-62918199D01*
X126373920Y-62920213D01*
X126390282Y-62932518D01*
X126409823Y-62941691D01*
X126429103Y-62947060D01*
X126450719Y-62950129D01*
X126470516Y-62950928D01*
X126494095Y-62949777D01*
X126515373Y-62946325D01*
X126534349Y-62940572D01*
X126553580Y-62930952D01*
X126569678Y-62918199D01*
X126577535Y-62909763D01*
X126590930Y-62891731D01*
X126601234Y-62872153D01*
X126608447Y-62851030D01*
X126612569Y-62828361D01*
X126613642Y-62808290D01*
X126613642Y-62445345D01*
X126020132Y-62445345D01*
X126020132Y-62181563D01*
X126327878Y-62181563D01*
X126613642Y-62181563D01*
X126613642Y-61972979D01*
X126613470Y-61966123D01*
X126610894Y-61946082D01*
X126605227Y-61926831D01*
X126596469Y-61908369D01*
X126584619Y-61890698D01*
X126569678Y-61873817D01*
X126567570Y-61871803D01*
X126551024Y-61859498D01*
X126531346Y-61850325D01*
X126511986Y-61844955D01*
X126490325Y-61841887D01*
X126470516Y-61841088D01*
X126446954Y-61842239D01*
X126425728Y-61845691D01*
X126406837Y-61851444D01*
X126387750Y-61861064D01*
X126371842Y-61873817D01*
X126363985Y-61882253D01*
X126350590Y-61900285D01*
X126340286Y-61919863D01*
X126333073Y-61940986D01*
X126328951Y-61963655D01*
X126327878Y-61983726D01*
X126327878Y-62181563D01*
X126020132Y-62181563D01*
X126020132Y-62016943D01*
X126020647Y-61992471D01*
X126022193Y-61968514D01*
X126024769Y-61945073D01*
X126028375Y-61922146D01*
X126033012Y-61899735D01*
X126038679Y-61877839D01*
X126045377Y-61856458D01*
X126053105Y-61835593D01*
X126061863Y-61815242D01*
X126071652Y-61795407D01*
X126082471Y-61776087D01*
X126094321Y-61757282D01*
X126107201Y-61738993D01*
X126121111Y-61721218D01*
X126136052Y-61703959D01*
X126152023Y-61687215D01*
X126167407Y-61672545D01*
X126183393Y-61658822D01*
X126199983Y-61646045D01*
X126217175Y-61634214D01*
X126234970Y-61623330D01*
X126253369Y-61613393D01*
X126272370Y-61604402D01*
X126291974Y-61596357D01*
X126312182Y-61589258D01*
X126332992Y-61583107D01*
X126354405Y-61577901D01*
X126376421Y-61573642D01*
X126399040Y-61570330D01*
X126422263Y-61567964D01*
X126446088Y-61566544D01*
X126470516Y-61566071D01*
X126494946Y-61566544D01*
G37*
G36*
X125071493Y-62467327D02*
G01*
X124829692Y-61577306D01*
X124499965Y-61577306D01*
X125027529Y-63325108D01*
X125036245Y-63351726D01*
X125045908Y-63376628D01*
X125056518Y-63399812D01*
X125068073Y-63421278D01*
X125080576Y-63441028D01*
X125094024Y-63459060D01*
X125108419Y-63475374D01*
X125123761Y-63489972D01*
X125140049Y-63502852D01*
X125157283Y-63514014D01*
X125175464Y-63523460D01*
X125194591Y-63531188D01*
X125214665Y-63537198D01*
X125235685Y-63541492D01*
X125257652Y-63544068D01*
X125280565Y-63544926D01*
X125566329Y-63544926D01*
X125566329Y-63291891D01*
X125445184Y-63291891D01*
X125425387Y-63291354D01*
X125403772Y-63289293D01*
X125384492Y-63285687D01*
X125364951Y-63279526D01*
X125346510Y-63269909D01*
X125332001Y-63256084D01*
X125319602Y-63237537D01*
X125309296Y-63217358D01*
X125301068Y-63198124D01*
X125292855Y-63176142D01*
X125284658Y-63151413D01*
X125280565Y-63138018D01*
X125225366Y-62950928D01*
X125632274Y-61577306D01*
X125302547Y-61577306D01*
X125071493Y-62467327D01*
G37*
G36*
X124134089Y-63203963D02*
G01*
X123826343Y-63203963D01*
X123826343Y-63116036D01*
X123811345Y-63130706D01*
X123796515Y-63144429D01*
X123774584Y-63163240D01*
X123753032Y-63179921D01*
X123731857Y-63194472D01*
X123711060Y-63206894D01*
X123690641Y-63217187D01*
X123670600Y-63225350D01*
X123650936Y-63231383D01*
X123631651Y-63235287D01*
X123606524Y-63237180D01*
X123584844Y-63236793D01*
X123563766Y-63235631D01*
X123543292Y-63233694D01*
X123523421Y-63230983D01*
X123494744Y-63225463D01*
X123467424Y-63218200D01*
X123441461Y-63209194D01*
X123416854Y-63198445D01*
X123393605Y-63185953D01*
X123371711Y-63171717D01*
X123351175Y-63155739D01*
X123331995Y-63138018D01*
X123317325Y-63122661D01*
X123303602Y-63106877D01*
X123290825Y-63090665D01*
X123278995Y-63074026D01*
X123268110Y-63056960D01*
X123258173Y-63039466D01*
X123249182Y-63021544D01*
X123241137Y-63003196D01*
X123234039Y-62984419D01*
X123227887Y-62965216D01*
X123222681Y-62945585D01*
X123218422Y-62925526D01*
X123215110Y-62905040D01*
X123212744Y-62884127D01*
X123211324Y-62862786D01*
X123210851Y-62841018D01*
X123518597Y-62841018D01*
X123519116Y-62854467D01*
X123522522Y-62876312D01*
X123529107Y-62896007D01*
X123538871Y-62913552D01*
X123551814Y-62928946D01*
X123562590Y-62938515D01*
X123579520Y-62949187D01*
X123598601Y-62956681D01*
X123619832Y-62960995D01*
X123639741Y-62962163D01*
X123664242Y-62961300D01*
X123688407Y-62958713D01*
X123712236Y-62954400D01*
X123735729Y-62948363D01*
X123758886Y-62940601D01*
X123781707Y-62931113D01*
X123804193Y-62919901D01*
X123826343Y-62906964D01*
X123826343Y-61885052D01*
X123822178Y-61881656D01*
X123804661Y-61869150D01*
X123785771Y-61858369D01*
X123765506Y-61849313D01*
X123743868Y-61841982D01*
X123720856Y-61836375D01*
X123696469Y-61832494D01*
X123670709Y-61830338D01*
X123650488Y-61829853D01*
X123626926Y-61831021D01*
X123605700Y-61834524D01*
X123586809Y-61840363D01*
X123567722Y-61850127D01*
X123551814Y-61863070D01*
X123549770Y-61865148D01*
X123537281Y-61881510D01*
X123527971Y-61901052D01*
X123522522Y-61920332D01*
X123519408Y-61941947D01*
X123518597Y-61961744D01*
X123518597Y-62841018D01*
X123210851Y-62841018D01*
X123210851Y-61961744D01*
X123211324Y-61939978D01*
X123212744Y-61918643D01*
X123215110Y-61897739D01*
X123218422Y-61877267D01*
X123222681Y-61857225D01*
X123227887Y-61837615D01*
X123234039Y-61818437D01*
X123241137Y-61799689D01*
X123249182Y-61781373D01*
X123258173Y-61763488D01*
X123268110Y-61746034D01*
X123278995Y-61729011D01*
X123290825Y-61712420D01*
X123303602Y-61696260D01*
X123317325Y-61680531D01*
X123331995Y-61665233D01*
X123338238Y-61659132D01*
X123357870Y-61641992D01*
X123378858Y-61626595D01*
X123401204Y-61612941D01*
X123424906Y-61601029D01*
X123449965Y-61590861D01*
X123476380Y-61582436D01*
X123504152Y-61575755D01*
X123523421Y-61572268D01*
X123543292Y-61569557D01*
X123563766Y-61567620D01*
X123584844Y-61566458D01*
X123606524Y-61566071D01*
X123622839Y-61566286D01*
X123646667Y-61567418D01*
X123669722Y-61569521D01*
X123692004Y-61572593D01*
X123713514Y-61576636D01*
X123734251Y-61581649D01*
X123754215Y-61587633D01*
X123773406Y-61594587D01*
X123791824Y-61602511D01*
X123809470Y-61611405D01*
X123826343Y-61621270D01*
X123826343Y-60961814D01*
X124134089Y-60961814D01*
X124134089Y-63203963D01*
G37*
G36*
X122287078Y-61566178D02*
G01*
X122313697Y-61567037D01*
X122339457Y-61568754D01*
X122364358Y-61571330D01*
X122388401Y-61574765D01*
X122411585Y-61579058D01*
X122433910Y-61584210D01*
X122455377Y-61590221D01*
X122475985Y-61597090D01*
X122495734Y-61604818D01*
X122514625Y-61613405D01*
X122532657Y-61622850D01*
X122549830Y-61633154D01*
X122566145Y-61644317D01*
X122581601Y-61656338D01*
X122603175Y-61675980D01*
X122617844Y-61691465D01*
X122631568Y-61707632D01*
X122644345Y-61724483D01*
X122656175Y-61742017D01*
X122667059Y-61760234D01*
X122676997Y-61779134D01*
X122685988Y-61798718D01*
X122694033Y-61818984D01*
X122701131Y-61839934D01*
X122707283Y-61861566D01*
X122712489Y-61883882D01*
X122716747Y-61906881D01*
X122720060Y-61930563D01*
X122722426Y-61954928D01*
X122723846Y-61979976D01*
X122724319Y-62005708D01*
X122724319Y-62786308D01*
X122723846Y-62812039D01*
X122722426Y-62837088D01*
X122720060Y-62861453D01*
X122716747Y-62885135D01*
X122712489Y-62908134D01*
X122707283Y-62930449D01*
X122701131Y-62952082D01*
X122694033Y-62973032D01*
X122685988Y-62993298D01*
X122676997Y-63012881D01*
X122667059Y-63031782D01*
X122656175Y-63049999D01*
X122644345Y-63067533D01*
X122631568Y-63084383D01*
X122617844Y-63100551D01*
X122603175Y-63116036D01*
X122596198Y-63122798D01*
X122573980Y-63141796D01*
X122558095Y-63153388D01*
X122541351Y-63164121D01*
X122523748Y-63173996D01*
X122505287Y-63183012D01*
X122485967Y-63191169D01*
X122465788Y-63198468D01*
X122444751Y-63204908D01*
X122422855Y-63210489D01*
X122400100Y-63215212D01*
X122376487Y-63219076D01*
X122352015Y-63222081D01*
X122326684Y-63224228D01*
X122300495Y-63225516D01*
X122273447Y-63225945D01*
X122259815Y-63225838D01*
X122233197Y-63224979D01*
X122207437Y-63223262D01*
X122182535Y-63220686D01*
X122158493Y-63217251D01*
X122135309Y-63212958D01*
X122112983Y-63207806D01*
X122091517Y-63201795D01*
X122070909Y-63194926D01*
X122051159Y-63187198D01*
X122032269Y-63178611D01*
X122014237Y-63169166D01*
X121997064Y-63158862D01*
X121980749Y-63147699D01*
X121965293Y-63135678D01*
X121943719Y-63116036D01*
X121929108Y-63100551D01*
X121915440Y-63084383D01*
X121902715Y-63067533D01*
X121890932Y-63049999D01*
X121880092Y-63031782D01*
X121870194Y-63012881D01*
X121861239Y-62993298D01*
X121853227Y-62973032D01*
X121846157Y-62952082D01*
X121840030Y-62930449D01*
X121834846Y-62908134D01*
X121830604Y-62885135D01*
X121827305Y-62861453D01*
X121824948Y-62837088D01*
X121823929Y-62819036D01*
X122130809Y-62819036D01*
X122131195Y-62831208D01*
X122133557Y-62850635D01*
X122139224Y-62872531D01*
X122147982Y-62892882D01*
X122159832Y-62911687D01*
X122174773Y-62928946D01*
X122176851Y-62930989D01*
X122193213Y-62943478D01*
X122212754Y-62952788D01*
X122232034Y-62958238D01*
X122253650Y-62961352D01*
X122273447Y-62962163D01*
X122297026Y-62960995D01*
X122318303Y-62957492D01*
X122337280Y-62951653D01*
X122356511Y-62941889D01*
X122372609Y-62928946D01*
X122380466Y-62920509D01*
X122393861Y-62902477D01*
X122404165Y-62882900D01*
X122411378Y-62861777D01*
X122415500Y-62839108D01*
X122416573Y-62819036D01*
X122416573Y-61972979D01*
X122416187Y-61960808D01*
X122413825Y-61941380D01*
X122408158Y-61919484D01*
X122399400Y-61899134D01*
X122387550Y-61880329D01*
X122372609Y-61863070D01*
X122370501Y-61861026D01*
X122353955Y-61848538D01*
X122334277Y-61839228D01*
X122314917Y-61833778D01*
X122293256Y-61830664D01*
X122273447Y-61829853D01*
X122249885Y-61831021D01*
X122228659Y-61834524D01*
X122209768Y-61840363D01*
X122190681Y-61850127D01*
X122174773Y-61863070D01*
X122166916Y-61871506D01*
X122153521Y-61889538D01*
X122143217Y-61909116D01*
X122136004Y-61930239D01*
X122131882Y-61952908D01*
X122130809Y-61972979D01*
X122130809Y-62819036D01*
X121823929Y-62819036D01*
X121823534Y-62812039D01*
X121823063Y-62786308D01*
X121823063Y-62005708D01*
X121823534Y-61979976D01*
X121824948Y-61954928D01*
X121827305Y-61930563D01*
X121830604Y-61906881D01*
X121834846Y-61883882D01*
X121840030Y-61861566D01*
X121846157Y-61839934D01*
X121853227Y-61818984D01*
X121861239Y-61798718D01*
X121870194Y-61779134D01*
X121880092Y-61760234D01*
X121890932Y-61742017D01*
X121902715Y-61724483D01*
X121915440Y-61707632D01*
X121929108Y-61691465D01*
X121943719Y-61675980D01*
X121950696Y-61669218D01*
X121972914Y-61650220D01*
X121988799Y-61638628D01*
X122005543Y-61627895D01*
X122023146Y-61618020D01*
X122041607Y-61609004D01*
X122060927Y-61600847D01*
X122081105Y-61593548D01*
X122102143Y-61587108D01*
X122124039Y-61581527D01*
X122146793Y-61576804D01*
X122170407Y-61572940D01*
X122194879Y-61569935D01*
X122220209Y-61567788D01*
X122246399Y-61566500D01*
X122273447Y-61566071D01*
X122287078Y-61566178D01*
G37*
G36*
X120908023Y-61555431D02*
G01*
X120930807Y-61556290D01*
X120952987Y-61558007D01*
X120974564Y-61560583D01*
X120995539Y-61564018D01*
X121015910Y-61568311D01*
X121035678Y-61573463D01*
X121054844Y-61579474D01*
X121073406Y-61586343D01*
X121100119Y-61598257D01*
X121125476Y-61612103D01*
X121149475Y-61627881D01*
X121172119Y-61645591D01*
X121193405Y-61665233D01*
X121201519Y-61673465D01*
X121216975Y-61689864D01*
X121231401Y-61706175D01*
X121244796Y-61722398D01*
X121257161Y-61738533D01*
X121268495Y-61754581D01*
X121283565Y-61778488D01*
X121296316Y-61802197D01*
X121306749Y-61825708D01*
X121314863Y-61849023D01*
X121320659Y-61872139D01*
X121324137Y-61895059D01*
X121325296Y-61917780D01*
X121325296Y-62038925D01*
X121017550Y-62038925D01*
X121017550Y-61961744D01*
X121016382Y-61938182D01*
X121012879Y-61916956D01*
X121007040Y-61898065D01*
X120997276Y-61878978D01*
X120984333Y-61863070D01*
X120982255Y-61861026D01*
X120965893Y-61848538D01*
X120946351Y-61839228D01*
X120927071Y-61833778D01*
X120905456Y-61830664D01*
X120885659Y-61829853D01*
X120873487Y-61830239D01*
X120854060Y-61832601D01*
X120832164Y-61838268D01*
X120811814Y-61847026D01*
X120793009Y-61858876D01*
X120775750Y-61873817D01*
X120767893Y-61882253D01*
X120754498Y-61900285D01*
X120744194Y-61919863D01*
X120736981Y-61940986D01*
X120732859Y-61963655D01*
X120731786Y-61983726D01*
X120731786Y-62071653D01*
X120764501Y-62081772D01*
X120796701Y-62092834D01*
X120828386Y-62104838D01*
X120859555Y-62117785D01*
X120890210Y-62131674D01*
X120920349Y-62146506D01*
X120949973Y-62162281D01*
X120979082Y-62178998D01*
X121007675Y-62196658D01*
X121035754Y-62215261D01*
X121063317Y-62234806D01*
X121090365Y-62255293D01*
X121116898Y-62276724D01*
X121142915Y-62299097D01*
X121168418Y-62322413D01*
X121193405Y-62346671D01*
X121214700Y-62368952D01*
X121234621Y-62391833D01*
X121253168Y-62415313D01*
X121270341Y-62439392D01*
X121286141Y-62464070D01*
X121300566Y-62489347D01*
X121313618Y-62515223D01*
X121325296Y-62541699D01*
X121335600Y-62568773D01*
X121344530Y-62596447D01*
X121352086Y-62624720D01*
X121358269Y-62653592D01*
X121363077Y-62683064D01*
X121366512Y-62713134D01*
X121368573Y-62743804D01*
X121369260Y-62775073D01*
X121369152Y-62790056D01*
X121368294Y-62819251D01*
X121366576Y-62847415D01*
X121364000Y-62874549D01*
X121360566Y-62900653D01*
X121356272Y-62925726D01*
X121351120Y-62949768D01*
X121345110Y-62972781D01*
X121338240Y-62994763D01*
X121330512Y-63015714D01*
X121321926Y-63035635D01*
X121312480Y-63054526D01*
X121302176Y-63072386D01*
X121291014Y-63089216D01*
X121278992Y-63105015D01*
X121259350Y-63126782D01*
X121253089Y-63132883D01*
X121233537Y-63150024D01*
X121212835Y-63165421D01*
X121190982Y-63179075D01*
X121167978Y-63190986D01*
X121143824Y-63201154D01*
X121118519Y-63209579D01*
X121092063Y-63216261D01*
X121064457Y-63221200D01*
X121035700Y-63224396D01*
X121015890Y-63225558D01*
X120995568Y-63225945D01*
X120966811Y-63224880D01*
X120938244Y-63221686D01*
X120909865Y-63216362D01*
X120881675Y-63208909D01*
X120862986Y-63202757D01*
X120844382Y-63195659D01*
X120825861Y-63187614D01*
X120807425Y-63178623D01*
X120789072Y-63168685D01*
X120770804Y-63157801D01*
X120752619Y-63145971D01*
X120734518Y-63133194D01*
X120716502Y-63119470D01*
X120698569Y-63104801D01*
X120695473Y-63121776D01*
X120692450Y-63141422D01*
X120689879Y-63163344D01*
X120688336Y-63184191D01*
X120687822Y-63203963D01*
X120380076Y-63203963D01*
X120382824Y-63184557D01*
X120385572Y-63164808D01*
X120388319Y-63144715D01*
X120391067Y-63124279D01*
X120393815Y-63103499D01*
X120396563Y-63082376D01*
X120399310Y-63060909D01*
X120402058Y-63039099D01*
X120404806Y-63016946D01*
X120407553Y-62994449D01*
X120410301Y-62971608D01*
X120413049Y-62948424D01*
X120415797Y-62924897D01*
X120418544Y-62901026D01*
X120421292Y-62876811D01*
X120424040Y-62852254D01*
X120424040Y-62313454D01*
X120731786Y-62313454D01*
X120731786Y-62819036D01*
X120737964Y-62827842D01*
X120750386Y-62844615D01*
X120762896Y-62860269D01*
X120781825Y-62881654D01*
X120800952Y-62900523D01*
X120820276Y-62916877D01*
X120839798Y-62930714D01*
X120859517Y-62942036D01*
X120879434Y-62950841D01*
X120899548Y-62957131D01*
X120919860Y-62960905D01*
X120940369Y-62962163D01*
X120949836Y-62961959D01*
X120976433Y-62958896D01*
X121000326Y-62952158D01*
X121021513Y-62941746D01*
X121039996Y-62927658D01*
X121055774Y-62909895D01*
X121068847Y-62888457D01*
X121079216Y-62863344D01*
X121084625Y-62844560D01*
X121088833Y-62824143D01*
X121091838Y-62802092D01*
X121093641Y-62778408D01*
X121094242Y-62753091D01*
X121094146Y-62742866D01*
X121093375Y-62722800D01*
X121091833Y-62703245D01*
X121088075Y-62674872D01*
X121082583Y-62647650D01*
X121075355Y-62621578D01*
X121066394Y-62596656D01*
X121055698Y-62572885D01*
X121043267Y-62550265D01*
X121029102Y-62528796D01*
X121013202Y-62508477D01*
X120995568Y-62489309D01*
X120980341Y-62474482D01*
X120964946Y-62460167D01*
X120949383Y-62446364D01*
X120933653Y-62433072D01*
X120917754Y-62420291D01*
X120901687Y-62408022D01*
X120885453Y-62396264D01*
X120869050Y-62385017D01*
X120852480Y-62374282D01*
X120835742Y-62364058D01*
X120810319Y-62349681D01*
X120784519Y-62336455D01*
X120758342Y-62324379D01*
X120731786Y-62313454D01*
X120424040Y-62313454D01*
X120424040Y-61917780D01*
X120424469Y-61902740D01*
X120426723Y-61880338D01*
X120430909Y-61858124D01*
X120437027Y-61836099D01*
X120445077Y-61814263D01*
X120455059Y-61792616D01*
X120466973Y-61771158D01*
X120480819Y-61749889D01*
X120496597Y-61728809D01*
X120514307Y-61707918D01*
X120533949Y-61687215D01*
X120550821Y-61671244D01*
X120568464Y-61656303D01*
X120586877Y-61642393D01*
X120606062Y-61629513D01*
X120626017Y-61617663D01*
X120646744Y-61606844D01*
X120668241Y-61597055D01*
X120690509Y-61588297D01*
X120713548Y-61580569D01*
X120737358Y-61573871D01*
X120761938Y-61568204D01*
X120787290Y-61563567D01*
X120813413Y-61559961D01*
X120840306Y-61557385D01*
X120867970Y-61555839D01*
X120896406Y-61555324D01*
X120908023Y-61555431D01*
G37*
G36*
X119068981Y-61851835D02*
G01*
X119103041Y-61852737D01*
X119136590Y-61855445D01*
X119169628Y-61859958D01*
X119202154Y-61866276D01*
X119234169Y-61874399D01*
X119265672Y-61884327D01*
X119296665Y-61896060D01*
X119327145Y-61909598D01*
X119357115Y-61924942D01*
X119386573Y-61942090D01*
X119415519Y-61961044D01*
X119443954Y-61981803D01*
X119471878Y-62004366D01*
X119499291Y-62028735D01*
X119526192Y-62054909D01*
X119552581Y-62082889D01*
X119552581Y-63203963D01*
X119860327Y-63203963D01*
X119860327Y-61577306D01*
X119552581Y-61577306D01*
X119552581Y-61775143D01*
X119527508Y-61748524D01*
X119501748Y-61723623D01*
X119475301Y-61700439D01*
X119448168Y-61678972D01*
X119420347Y-61659223D01*
X119391839Y-61641191D01*
X119362644Y-61624876D01*
X119332763Y-61610279D01*
X119302194Y-61597399D01*
X119270939Y-61586236D01*
X119238996Y-61576791D01*
X119206367Y-61569063D01*
X119173051Y-61563052D01*
X119139048Y-61558759D01*
X119104358Y-61556183D01*
X119068981Y-61555324D01*
X119068981Y-61851835D01*
G37*
G36*
X117922505Y-61621270D02*
G01*
X117944662Y-61608332D01*
X117967171Y-61597120D01*
X117990030Y-61587633D01*
X118013241Y-61579870D01*
X118036803Y-61573833D01*
X118060716Y-61569521D01*
X118084980Y-61566933D01*
X118109595Y-61566071D01*
X118131361Y-61566544D01*
X118152696Y-61567964D01*
X118173600Y-61570330D01*
X118194072Y-61573642D01*
X118214113Y-61577901D01*
X118233723Y-61583107D01*
X118252902Y-61589258D01*
X118271650Y-61596357D01*
X118289966Y-61604402D01*
X118307851Y-61613393D01*
X118325305Y-61623330D01*
X118342328Y-61634214D01*
X118358919Y-61646045D01*
X118375079Y-61658822D01*
X118390808Y-61672545D01*
X118406105Y-61687215D01*
X118422077Y-61703873D01*
X118437017Y-61720875D01*
X118450928Y-61738220D01*
X118463808Y-61755908D01*
X118475657Y-61773940D01*
X118486477Y-61792316D01*
X118496265Y-61811035D01*
X118505024Y-61830097D01*
X118512752Y-61849503D01*
X118519449Y-61869252D01*
X118525117Y-61889345D01*
X118529753Y-61909781D01*
X118533360Y-61930561D01*
X118535936Y-61951684D01*
X118537481Y-61973151D01*
X118537997Y-61994961D01*
X118537997Y-62808290D01*
X118537481Y-62831401D01*
X118535936Y-62854085D01*
X118533360Y-62876342D01*
X118529753Y-62898171D01*
X118525117Y-62919573D01*
X118519449Y-62940547D01*
X118512752Y-62961094D01*
X118505024Y-62981214D01*
X118496265Y-63000906D01*
X118486477Y-63020170D01*
X118475657Y-63039008D01*
X118463808Y-63057418D01*
X118450928Y-63075400D01*
X118437017Y-63092955D01*
X118422077Y-63110082D01*
X118406105Y-63126782D01*
X118392109Y-63140151D01*
X118370149Y-63158587D01*
X118347029Y-63175081D01*
X118322750Y-63189636D01*
X118297312Y-63202250D01*
X118270715Y-63212923D01*
X118242959Y-63221656D01*
X118223811Y-63226399D01*
X118204147Y-63230280D01*
X118183969Y-63233299D01*
X118163275Y-63235455D01*
X118142066Y-63236749D01*
X118120341Y-63237180D01*
X118105429Y-63236707D01*
X118083698Y-63234223D01*
X118062731Y-63229609D01*
X118042528Y-63222865D01*
X118023089Y-63213992D01*
X118004414Y-63202990D01*
X117986504Y-63189858D01*
X117969358Y-63174597D01*
X117952976Y-63157206D01*
X117937358Y-63137686D01*
X117922505Y-63116036D01*
X117922505Y-63203963D01*
X117614759Y-63203963D01*
X117614759Y-62896217D01*
X117922505Y-62896217D01*
X117926669Y-62899583D01*
X117944186Y-62911979D01*
X117963077Y-62922664D01*
X117983341Y-62931640D01*
X118004980Y-62938906D01*
X118027992Y-62944463D01*
X118052378Y-62948310D01*
X118078138Y-62950447D01*
X118098359Y-62950928D01*
X118121938Y-62949777D01*
X118143216Y-62946325D01*
X118162193Y-62940572D01*
X118181424Y-62930952D01*
X118197522Y-62918199D01*
X118199536Y-62916113D01*
X118211841Y-62900919D01*
X118222068Y-62882295D01*
X118228205Y-62862329D01*
X118230251Y-62841018D01*
X118230251Y-61961744D01*
X118229100Y-61938182D01*
X118225648Y-61916956D01*
X118219895Y-61898065D01*
X118210275Y-61878978D01*
X118197522Y-61863070D01*
X118195414Y-61861026D01*
X118178868Y-61848538D01*
X118159190Y-61839228D01*
X118139830Y-61833778D01*
X118118168Y-61830664D01*
X118098359Y-61829853D01*
X118076378Y-61830715D01*
X118054396Y-61833303D01*
X118032414Y-61837615D01*
X118010432Y-61843653D01*
X117988450Y-61851415D01*
X117966468Y-61860902D01*
X117944487Y-61872115D01*
X117922505Y-61885052D01*
X117922505Y-62896217D01*
X117614759Y-62896217D01*
X117614759Y-60961814D01*
X117922505Y-60961814D01*
X117922505Y-61621270D01*
G37*
%TO.C,G\u002A\u002A\u002A*%
G36*
X158647027Y-112137568D02*
G01*
X158647027Y-112995676D01*
X158647027Y-114197027D01*
X157445675Y-114197027D01*
X156244324Y-114197027D01*
X156244324Y-113853784D01*
X156587567Y-113853784D01*
X157445675Y-113853784D01*
X158303784Y-113853784D01*
X158303784Y-112995676D01*
X158303784Y-112137568D01*
X157445675Y-112137568D01*
X156587567Y-112137568D01*
X156587567Y-112995676D01*
X156587567Y-113853784D01*
X156244324Y-113853784D01*
X156244324Y-112995676D01*
X156244324Y-111794325D01*
X157445675Y-111794325D01*
X158647027Y-111794325D01*
X158647027Y-112137568D01*
G37*
G36*
X157617297Y-109734865D02*
G01*
X157617297Y-110078108D01*
X156930811Y-110078108D01*
X156244324Y-110078108D01*
X156244324Y-110249730D01*
X156244324Y-110421352D01*
X155729459Y-110421352D01*
X155214594Y-110421352D01*
X155214594Y-110592973D01*
X155214594Y-110764595D01*
X155042973Y-110764595D01*
X154871351Y-110764595D01*
X154871351Y-111107838D01*
X154871351Y-111451081D01*
X154699729Y-111451081D01*
X154528108Y-111451081D01*
X154528108Y-111622703D01*
X154528108Y-111794325D01*
X154184865Y-111794325D01*
X154184865Y-111965946D01*
X154184865Y-112137568D01*
X154356486Y-112137568D01*
X154528108Y-112137568D01*
X154528108Y-111965946D01*
X154528108Y-111794325D01*
X154699729Y-111794325D01*
X154871351Y-111794325D01*
X154871351Y-111965946D01*
X154871351Y-112137568D01*
X155214594Y-112137568D01*
X155557838Y-112137568D01*
X155557838Y-112309189D01*
X155557838Y-112480811D01*
X155214594Y-112480811D01*
X154871351Y-112480811D01*
X154871351Y-112652433D01*
X154871351Y-112824054D01*
X154528108Y-112824054D01*
X154184865Y-112824054D01*
X154184865Y-112995676D01*
X154184865Y-113167298D01*
X154528108Y-113167298D01*
X154871351Y-113167298D01*
X154871351Y-113338919D01*
X154871351Y-113510541D01*
X155042973Y-113510541D01*
X155214594Y-113510541D01*
X155214594Y-113167298D01*
X155214594Y-112824054D01*
X155386216Y-112824054D01*
X155557838Y-112824054D01*
X155557838Y-112652433D01*
X155557838Y-112480811D01*
X155729459Y-112480811D01*
X155901081Y-112480811D01*
X155901081Y-112824054D01*
X155901081Y-113167298D01*
X155729459Y-113167298D01*
X155557838Y-113167298D01*
X155557838Y-113338919D01*
X155557838Y-113510541D01*
X155386216Y-113510541D01*
X155214594Y-113510541D01*
X155214594Y-113682162D01*
X155214594Y-113853784D01*
X155386216Y-113853784D01*
X155557838Y-113853784D01*
X155557838Y-113682162D01*
X155557838Y-113510541D01*
X155729459Y-113510541D01*
X155901081Y-113510541D01*
X155901081Y-113853784D01*
X155901081Y-114197027D01*
X155386216Y-114197027D01*
X154871351Y-114197027D01*
X154871351Y-114025406D01*
X154871351Y-113853784D01*
X154699729Y-113853784D01*
X154528108Y-113853784D01*
X154528108Y-113682162D01*
X154528108Y-113510541D01*
X154184865Y-113510541D01*
X153841621Y-113510541D01*
X153841621Y-113338919D01*
X153841621Y-113167298D01*
X153670000Y-113167298D01*
X153498378Y-113167298D01*
X153498378Y-113338919D01*
X153498378Y-113510541D01*
X153326756Y-113510541D01*
X153155135Y-113510541D01*
X153155135Y-113853784D01*
X153155135Y-114197027D01*
X152983513Y-114197027D01*
X152811892Y-114197027D01*
X152811892Y-113853784D01*
X152811892Y-113510541D01*
X152640270Y-113510541D01*
X152468648Y-113510541D01*
X152468648Y-113338919D01*
X152468648Y-113167298D01*
X152811892Y-113167298D01*
X152811892Y-113338919D01*
X152811892Y-113510541D01*
X152983513Y-113510541D01*
X153155135Y-113510541D01*
X153155135Y-113338919D01*
X153155135Y-113167298D01*
X152983513Y-113167298D01*
X152811892Y-113167298D01*
X152468648Y-113167298D01*
X152297027Y-113167298D01*
X152125405Y-113167298D01*
X152125405Y-112995676D01*
X152125405Y-112824054D01*
X152468648Y-112824054D01*
X152811892Y-112824054D01*
X153498378Y-112824054D01*
X153670000Y-112824054D01*
X153841621Y-112824054D01*
X153841621Y-112309189D01*
X153841621Y-111794325D01*
X153670000Y-111794325D01*
X153498378Y-111794325D01*
X153498378Y-112137568D01*
X153498378Y-112309189D01*
X153498378Y-112824054D01*
X152811892Y-112824054D01*
X152811892Y-112652433D01*
X152811892Y-112480811D01*
X152983513Y-112480811D01*
X153155135Y-112480811D01*
X153155135Y-112309189D01*
X153155135Y-112137568D01*
X152983513Y-112137568D01*
X152811892Y-112137568D01*
X152811892Y-112309189D01*
X152811892Y-112480811D01*
X152640270Y-112480811D01*
X152468648Y-112480811D01*
X152468648Y-112309189D01*
X152468648Y-112137568D01*
X152297027Y-112137568D01*
X152125405Y-112137568D01*
X152125405Y-112480811D01*
X152125405Y-112824054D01*
X151782162Y-112824054D01*
X151438919Y-112824054D01*
X151438919Y-112995676D01*
X151438919Y-113167298D01*
X151610540Y-113167298D01*
X151782162Y-113167298D01*
X151782162Y-113338919D01*
X151782162Y-113510541D01*
X151438919Y-113510541D01*
X151095675Y-113510541D01*
X151095675Y-113853784D01*
X151095675Y-114197027D01*
X150924054Y-114197027D01*
X150752432Y-114197027D01*
X150752432Y-114025406D01*
X150752432Y-113853784D01*
X150580811Y-113853784D01*
X150409189Y-113853784D01*
X150409189Y-114025406D01*
X150409189Y-114197027D01*
X150237567Y-114197027D01*
X150065946Y-114197027D01*
X150065946Y-114025406D01*
X150065946Y-113853784D01*
X150237567Y-113853784D01*
X150409189Y-113853784D01*
X150409189Y-113682162D01*
X150409189Y-113510541D01*
X150237567Y-113510541D01*
X150065946Y-113510541D01*
X150065946Y-113682162D01*
X150065946Y-113853784D01*
X149722702Y-113853784D01*
X149379459Y-113853784D01*
X149379459Y-113682162D01*
X149379459Y-113510541D01*
X149207838Y-113510541D01*
X149036216Y-113510541D01*
X149036216Y-113682162D01*
X149036216Y-113853784D01*
X148864594Y-113853784D01*
X148692973Y-113853784D01*
X148692973Y-113338919D01*
X148692973Y-112824054D01*
X148864594Y-112824054D01*
X149036216Y-112824054D01*
X149036216Y-112995676D01*
X149036216Y-113167298D01*
X149379459Y-113167298D01*
X149722702Y-113167298D01*
X149722702Y-113338919D01*
X149722702Y-113510541D01*
X149894324Y-113510541D01*
X150065946Y-113510541D01*
X150065946Y-113338919D01*
X150065946Y-113167298D01*
X150409189Y-113167298D01*
X150752432Y-113167298D01*
X150752432Y-113338919D01*
X150752432Y-113510541D01*
X150924054Y-113510541D01*
X151095675Y-113510541D01*
X151095675Y-113167298D01*
X151095675Y-112824054D01*
X150409189Y-112824054D01*
X149722702Y-112824054D01*
X149722702Y-112652433D01*
X149722702Y-112480811D01*
X149894324Y-112480811D01*
X150065946Y-112480811D01*
X150409189Y-112480811D01*
X150924054Y-112480811D01*
X151438919Y-112480811D01*
X151438919Y-111965946D01*
X151438919Y-111451081D01*
X150924054Y-111451081D01*
X150409189Y-111451081D01*
X150409189Y-111965946D01*
X150409189Y-112480811D01*
X150065946Y-112480811D01*
X150065946Y-112309189D01*
X150065946Y-112137568D01*
X149894324Y-112137568D01*
X149722702Y-112137568D01*
X149722702Y-111794325D01*
X149722702Y-111451081D01*
X149379459Y-111451081D01*
X149036216Y-111451081D01*
X149036216Y-111279460D01*
X149036216Y-111107838D01*
X149207838Y-111107838D01*
X149379459Y-111107838D01*
X149379459Y-110936216D01*
X149379459Y-110764595D01*
X149551081Y-110764595D01*
X149722702Y-110764595D01*
X149722702Y-110592973D01*
X149722702Y-110421352D01*
X149379459Y-110421352D01*
X149036216Y-110421352D01*
X149036216Y-110249730D01*
X149036216Y-110078108D01*
X149379459Y-110078108D01*
X149722702Y-110078108D01*
X149722702Y-110249730D01*
X149722702Y-110421352D01*
X149894324Y-110421352D01*
X150065946Y-110421352D01*
X150065946Y-110249730D01*
X150065946Y-110078108D01*
X150237567Y-110078108D01*
X150409189Y-110078108D01*
X150409189Y-110421352D01*
X150409189Y-110764595D01*
X150237567Y-110764595D01*
X150065946Y-110764595D01*
X150065946Y-110936216D01*
X150065946Y-111107838D01*
X150409189Y-111107838D01*
X150752432Y-111107838D01*
X150752432Y-110936216D01*
X150752432Y-110764595D01*
X150924054Y-110764595D01*
X151095675Y-110764595D01*
X151095675Y-110936216D01*
X151095675Y-111107838D01*
X151438919Y-111107838D01*
X151782162Y-111107838D01*
X151782162Y-111451081D01*
X151782162Y-111794325D01*
X151953784Y-111794325D01*
X152125405Y-111794325D01*
X152811892Y-111794325D01*
X152983513Y-111794325D01*
X153155135Y-111794325D01*
X153155135Y-111622703D01*
X153155135Y-111451081D01*
X153498378Y-111451081D01*
X153841621Y-111451081D01*
X153841621Y-111279460D01*
X153841621Y-111107838D01*
X153498378Y-111107838D01*
X153155135Y-111107838D01*
X153155135Y-111279460D01*
X153155135Y-111451081D01*
X152983513Y-111451081D01*
X152811892Y-111451081D01*
X152811892Y-111622703D01*
X152811892Y-111794325D01*
X152125405Y-111794325D01*
X152125405Y-111622703D01*
X152125405Y-111451081D01*
X152297027Y-111451081D01*
X152468648Y-111451081D01*
X152468648Y-111279460D01*
X152468648Y-111107838D01*
X152640270Y-111107838D01*
X152811892Y-111107838D01*
X152811892Y-110936216D01*
X152811892Y-110764595D01*
X152983513Y-110764595D01*
X153155135Y-110764595D01*
X153155135Y-110592973D01*
X153155135Y-110421352D01*
X152983513Y-110421352D01*
X152811892Y-110421352D01*
X152811892Y-110592973D01*
X152811892Y-110764595D01*
X152640270Y-110764595D01*
X152468648Y-110764595D01*
X152468648Y-110421352D01*
X152468648Y-110078108D01*
X152983513Y-110078108D01*
X153498378Y-110078108D01*
X153498378Y-110421352D01*
X153498378Y-110764595D01*
X153670000Y-110764595D01*
X153841621Y-110764595D01*
X153841621Y-110592973D01*
X153841621Y-110421352D01*
X154184865Y-110421352D01*
X154528108Y-110421352D01*
X154528108Y-110592973D01*
X154528108Y-110764595D01*
X154356486Y-110764595D01*
X154184865Y-110764595D01*
X154184865Y-111107838D01*
X154184865Y-111451081D01*
X154356486Y-111451081D01*
X154528108Y-111451081D01*
X154528108Y-111107838D01*
X154528108Y-110764595D01*
X154699729Y-110764595D01*
X154871351Y-110764595D01*
X154871351Y-110592973D01*
X154871351Y-110421352D01*
X154699729Y-110421352D01*
X154528108Y-110421352D01*
X154528108Y-110249730D01*
X154528108Y-110078108D01*
X154184865Y-110078108D01*
X153841621Y-110078108D01*
X153841621Y-109906487D01*
X153841621Y-109734865D01*
X154013243Y-109734865D01*
X154184865Y-109734865D01*
X154184865Y-109563244D01*
X154184865Y-109391622D01*
X154356486Y-109391622D01*
X154528108Y-109391622D01*
X154528108Y-109563244D01*
X154528108Y-109734865D01*
X154699729Y-109734865D01*
X154871351Y-109734865D01*
X154871351Y-109048379D01*
X154871351Y-108361892D01*
X155214594Y-108361892D01*
X155557838Y-108361892D01*
X155557838Y-108533514D01*
X155557838Y-108705135D01*
X155386216Y-108705135D01*
X155214594Y-108705135D01*
X155214594Y-109220000D01*
X155214594Y-109734865D01*
X155386216Y-109734865D01*
X155557838Y-109734865D01*
X155557838Y-109906487D01*
X155557838Y-110078108D01*
X155901081Y-110078108D01*
X156244324Y-110078108D01*
X156244324Y-109906487D01*
X156244324Y-109734865D01*
X156415946Y-109734865D01*
X156587567Y-109734865D01*
X156587567Y-109563244D01*
X156587567Y-109391622D01*
X156759189Y-109391622D01*
X156930811Y-109391622D01*
X156930811Y-109563244D01*
X156930811Y-109734865D01*
X157102432Y-109734865D01*
X157274054Y-109734865D01*
X157274054Y-109563244D01*
X157274054Y-109391622D01*
X157445675Y-109391622D01*
X157617297Y-109391622D01*
X157617297Y-109734865D01*
G37*
G36*
X157617297Y-110592973D02*
G01*
X157617297Y-110764595D01*
X157788919Y-110764595D01*
X157960540Y-110764595D01*
X157960540Y-110592973D01*
X157960540Y-110421352D01*
X157788919Y-110421352D01*
X157617297Y-110421352D01*
X157617297Y-110249730D01*
X157617297Y-110078108D01*
X157788919Y-110078108D01*
X157960540Y-110078108D01*
X157960540Y-110249730D01*
X157960540Y-110421352D01*
X158132162Y-110421352D01*
X158303784Y-110421352D01*
X158303784Y-110249730D01*
X158303784Y-110078108D01*
X158132162Y-110078108D01*
X157960540Y-110078108D01*
X157960540Y-109906487D01*
X157960540Y-109734865D01*
X158132162Y-109734865D01*
X158303784Y-109734865D01*
X158303784Y-109563244D01*
X158303784Y-109391622D01*
X158475405Y-109391622D01*
X158647027Y-109391622D01*
X158647027Y-110421352D01*
X158647027Y-111451081D01*
X157788919Y-111451081D01*
X156930811Y-111451081D01*
X156930811Y-110936216D01*
X156930811Y-110421352D01*
X157274054Y-110421352D01*
X157617297Y-110421352D01*
X157617297Y-110592973D01*
G37*
G36*
X153155135Y-108361892D02*
G01*
X153155135Y-108533514D01*
X153155135Y-108705135D01*
X153326756Y-108705135D01*
X153498378Y-108705135D01*
X153498378Y-109048379D01*
X153498378Y-109391622D01*
X153326756Y-109391622D01*
X153155135Y-109391622D01*
X153155135Y-109220000D01*
X153155135Y-109048379D01*
X152983513Y-109048379D01*
X152811892Y-109048379D01*
X152811892Y-109220000D01*
X152811892Y-109391622D01*
X152640270Y-109391622D01*
X152468648Y-109391622D01*
X152468648Y-109220000D01*
X152468648Y-109048379D01*
X152297027Y-109048379D01*
X152125405Y-109048379D01*
X152125405Y-109906487D01*
X152125405Y-110764595D01*
X152297027Y-110764595D01*
X152468648Y-110764595D01*
X152468648Y-110936216D01*
X152468648Y-111107838D01*
X152125405Y-111107838D01*
X151782162Y-111107838D01*
X151782162Y-110592973D01*
X151782162Y-110078108D01*
X151438919Y-110078108D01*
X151095675Y-110078108D01*
X151095675Y-109906487D01*
X151095675Y-109734865D01*
X151438919Y-109734865D01*
X151782162Y-109734865D01*
X151782162Y-109563244D01*
X151782162Y-109391622D01*
X151267297Y-109391622D01*
X150752432Y-109391622D01*
X150752432Y-109563244D01*
X150752432Y-109734865D01*
X150409189Y-109734865D01*
X150065946Y-109734865D01*
X150065946Y-109391622D01*
X150065946Y-109048379D01*
X150409189Y-109048379D01*
X150409189Y-109220000D01*
X150409189Y-109391622D01*
X150580811Y-109391622D01*
X150752432Y-109391622D01*
X150752432Y-109220000D01*
X150752432Y-109048379D01*
X150580811Y-109048379D01*
X150409189Y-109048379D01*
X150065946Y-109048379D01*
X149894324Y-109048379D01*
X149722702Y-109048379D01*
X149722702Y-109391622D01*
X149722702Y-109734865D01*
X149551081Y-109734865D01*
X149379459Y-109734865D01*
X149379459Y-109391622D01*
X149379459Y-109048379D01*
X149207838Y-109048379D01*
X149036216Y-109048379D01*
X149036216Y-109391622D01*
X149036216Y-109734865D01*
X148864594Y-109734865D01*
X148692973Y-109734865D01*
X148692973Y-108876757D01*
X148692973Y-108018649D01*
X148864594Y-108018649D01*
X149036216Y-108018649D01*
X149036216Y-108361892D01*
X149036216Y-108705135D01*
X149722702Y-108705135D01*
X150409189Y-108705135D01*
X150409189Y-108361892D01*
X150409189Y-108018649D01*
X150237567Y-108018649D01*
X150065946Y-108018649D01*
X150065946Y-108190271D01*
X150065946Y-108361892D01*
X149894324Y-108361892D01*
X149722702Y-108361892D01*
X149722702Y-108190271D01*
X149722702Y-108018649D01*
X149551081Y-108018649D01*
X149379459Y-108018649D01*
X149379459Y-107847027D01*
X149379459Y-107675406D01*
X149207838Y-107675406D01*
X149036216Y-107675406D01*
X149036216Y-107503784D01*
X149036216Y-107332162D01*
X149379459Y-107332162D01*
X149722702Y-107332162D01*
X149722702Y-107675406D01*
X149722702Y-108018649D01*
X149894324Y-108018649D01*
X150065946Y-108018649D01*
X150065946Y-107675406D01*
X150065946Y-107332162D01*
X150409189Y-107332162D01*
X150752432Y-107332162D01*
X150752432Y-107675406D01*
X150752432Y-108018649D01*
X151095675Y-108018649D01*
X151438919Y-108018649D01*
X151438919Y-108190271D01*
X151438919Y-108361892D01*
X151267297Y-108361892D01*
X151095675Y-108361892D01*
X151095675Y-108705135D01*
X151095675Y-109048379D01*
X151610540Y-109048379D01*
X152125405Y-109048379D01*
X152125405Y-108876757D01*
X152125405Y-108705135D01*
X152468648Y-108705135D01*
X152640270Y-108705135D01*
X152811892Y-108705135D01*
X152811892Y-108533514D01*
X152811892Y-108361892D01*
X152640270Y-108361892D01*
X152468648Y-108361892D01*
X152468648Y-108533514D01*
X152468648Y-108705135D01*
X152125405Y-108705135D01*
X151953784Y-108705135D01*
X151782162Y-108705135D01*
X151782162Y-108361892D01*
X151782162Y-108018649D01*
X151953784Y-108018649D01*
X152125405Y-108018649D01*
X152125405Y-108190271D01*
X152125405Y-108361892D01*
X152297027Y-108361892D01*
X152468648Y-108361892D01*
X152468648Y-108018649D01*
X152468648Y-107675406D01*
X152811892Y-107675406D01*
X153155135Y-107675406D01*
X153155135Y-107503784D01*
X153155135Y-107332162D01*
X152640270Y-107332162D01*
X152125405Y-107332162D01*
X152125405Y-107503784D01*
X152125405Y-107675406D01*
X151953784Y-107675406D01*
X151782162Y-107675406D01*
X151782162Y-107332162D01*
X151782162Y-106988919D01*
X151610540Y-106988919D01*
X151438919Y-106988919D01*
X151438919Y-106474054D01*
X151438919Y-105959189D01*
X151610540Y-105959189D01*
X151782162Y-105959189D01*
X151782162Y-106302433D01*
X151782162Y-106645676D01*
X151953784Y-106645676D01*
X152125405Y-106645676D01*
X152125405Y-106817298D01*
X152125405Y-106988919D01*
X152468648Y-106988919D01*
X152811892Y-106988919D01*
X152811892Y-106645676D01*
X152811892Y-106302433D01*
X152983513Y-106302433D01*
X153155135Y-106302433D01*
X153155135Y-106645676D01*
X153155135Y-106988919D01*
X153498378Y-106988919D01*
X153841621Y-106988919D01*
X153841621Y-107675406D01*
X153841621Y-108361892D01*
X153155135Y-108361892D01*
G37*
G36*
X156415946Y-110421352D02*
G01*
X156587567Y-110421352D01*
X156587567Y-110592973D01*
X156587567Y-110764595D01*
X156415946Y-110764595D01*
X156244324Y-110764595D01*
X156244324Y-110592973D01*
X156244324Y-110421352D01*
X156415946Y-110421352D01*
G37*
G36*
X149722702Y-109906487D02*
G01*
X149722702Y-109734865D01*
X149894324Y-109734865D01*
X150065946Y-109734865D01*
X150065946Y-109906487D01*
X150065946Y-110078108D01*
X149894324Y-110078108D01*
X149722702Y-110078108D01*
X149722702Y-109906487D01*
G37*
G36*
X158647027Y-107332162D02*
G01*
X158647027Y-108018649D01*
X158647027Y-109048379D01*
X158475405Y-109048379D01*
X158303784Y-109048379D01*
X158303784Y-109220000D01*
X158303784Y-109391622D01*
X157960540Y-109391622D01*
X157617297Y-109391622D01*
X157617297Y-109220000D01*
X157617297Y-109048379D01*
X157445675Y-109048379D01*
X157274054Y-109048379D01*
X157274054Y-108876757D01*
X157274054Y-108705135D01*
X157617297Y-108705135D01*
X157960540Y-108705135D01*
X158303784Y-108705135D01*
X158303784Y-108533514D01*
X158303784Y-108361892D01*
X158132162Y-108361892D01*
X157960540Y-108361892D01*
X157960540Y-108190271D01*
X157960540Y-108018649D01*
X158132162Y-108018649D01*
X158303784Y-108018649D01*
X158303784Y-107675406D01*
X158303784Y-107332162D01*
X158132162Y-107332162D01*
X157960540Y-107332162D01*
X157960540Y-107503784D01*
X157960540Y-107675406D01*
X157788919Y-107675406D01*
X157617297Y-107675406D01*
X157617297Y-108190271D01*
X157617297Y-108705135D01*
X157274054Y-108705135D01*
X157102432Y-108705135D01*
X156930811Y-108705135D01*
X156930811Y-108533514D01*
X156930811Y-108361892D01*
X157102432Y-108361892D01*
X157274054Y-108361892D01*
X157274054Y-108190271D01*
X157274054Y-108018649D01*
X157102432Y-108018649D01*
X156930811Y-108018649D01*
X156930811Y-107847027D01*
X156930811Y-107675406D01*
X156759189Y-107675406D01*
X156587567Y-107675406D01*
X156587567Y-107847027D01*
X156587567Y-108018649D01*
X156415946Y-108018649D01*
X156244324Y-108018649D01*
X156244324Y-108190271D01*
X156244324Y-108361892D01*
X155901081Y-108361892D01*
X155557838Y-108361892D01*
X155557838Y-108190271D01*
X155557838Y-108018649D01*
X155729459Y-108018649D01*
X155901081Y-108018649D01*
X155901081Y-107847027D01*
X155901081Y-107675406D01*
X155729459Y-107675406D01*
X155557838Y-107675406D01*
X155557838Y-107503784D01*
X155557838Y-107332162D01*
X155386216Y-107332162D01*
X155214594Y-107332162D01*
X155214594Y-106988919D01*
X155214594Y-106645676D01*
X155386216Y-106645676D01*
X155557838Y-106645676D01*
X155557838Y-106474054D01*
X155557838Y-106302433D01*
X155729459Y-106302433D01*
X155901081Y-106302433D01*
X155901081Y-106645676D01*
X155901081Y-106988919D01*
X155729459Y-106988919D01*
X155557838Y-106988919D01*
X155557838Y-107160541D01*
X155557838Y-107332162D01*
X155901081Y-107332162D01*
X156244324Y-107332162D01*
X156244324Y-107503784D01*
X156244324Y-107675406D01*
X156415946Y-107675406D01*
X156587567Y-107675406D01*
X156587567Y-107503784D01*
X156587567Y-107332162D01*
X156415946Y-107332162D01*
X156244324Y-107332162D01*
X156244324Y-107160541D01*
X156244324Y-106988919D01*
X156415946Y-106988919D01*
X156587567Y-106988919D01*
X156587567Y-107160541D01*
X156587567Y-107332162D01*
X156759189Y-107332162D01*
X156930811Y-107332162D01*
X156930811Y-107160541D01*
X156930811Y-106988919D01*
X157274054Y-106988919D01*
X157617297Y-106988919D01*
X157617297Y-107160541D01*
X157617297Y-107332162D01*
X157788919Y-107332162D01*
X157960540Y-107332162D01*
X157960540Y-107160541D01*
X157960540Y-106988919D01*
X158303784Y-106988919D01*
X158647027Y-106988919D01*
X158647027Y-107332162D01*
G37*
G36*
X149036216Y-107160541D02*
G01*
X149036216Y-107332162D01*
X148864594Y-107332162D01*
X148692973Y-107332162D01*
X148692973Y-107160541D01*
X148692973Y-106988919D01*
X148864594Y-106988919D01*
X149036216Y-106988919D01*
X149036216Y-107160541D01*
G37*
G36*
X155214594Y-105615946D02*
G01*
X155214594Y-105959189D01*
X155042973Y-105959189D01*
X154871351Y-105959189D01*
X154871351Y-106130811D01*
X154871351Y-106302433D01*
X154699729Y-106302433D01*
X154528108Y-106302433D01*
X154528108Y-106130811D01*
X154528108Y-105959189D01*
X154356486Y-105959189D01*
X154184865Y-105959189D01*
X154184865Y-106130811D01*
X154184865Y-106302433D01*
X154013243Y-106302433D01*
X153841621Y-106302433D01*
X153841621Y-106474054D01*
X153841621Y-106645676D01*
X153670000Y-106645676D01*
X153498378Y-106645676D01*
X153498378Y-106130811D01*
X153498378Y-105615946D01*
X153670000Y-105615946D01*
X153841621Y-105615946D01*
X154184865Y-105615946D01*
X154356486Y-105615946D01*
X154528108Y-105615946D01*
X154528108Y-105272703D01*
X154528108Y-104929460D01*
X154356486Y-104929460D01*
X154184865Y-104929460D01*
X154184865Y-105272703D01*
X154184865Y-105615946D01*
X153841621Y-105615946D01*
X153841621Y-105272703D01*
X153841621Y-104929460D01*
X154013243Y-104929460D01*
X154184865Y-104929460D01*
X154184865Y-104757838D01*
X154184865Y-104586216D01*
X154013243Y-104586216D01*
X153841621Y-104586216D01*
X153841621Y-104757838D01*
X153841621Y-104929460D01*
X153670000Y-104929460D01*
X153498378Y-104929460D01*
X153498378Y-105272703D01*
X153498378Y-105615946D01*
X153326756Y-105615946D01*
X153155135Y-105615946D01*
X153155135Y-105444325D01*
X153155135Y-105272703D01*
X152983513Y-105272703D01*
X152811892Y-105272703D01*
X152811892Y-105101081D01*
X152811892Y-104929460D01*
X152640270Y-104929460D01*
X152468648Y-104929460D01*
X152468648Y-104757838D01*
X152468648Y-104586216D01*
X152811892Y-104586216D01*
X153155135Y-104586216D01*
X153155135Y-104757838D01*
X153155135Y-104929460D01*
X153326756Y-104929460D01*
X153498378Y-104929460D01*
X153498378Y-104586216D01*
X153498378Y-104242973D01*
X153841621Y-104242973D01*
X154184865Y-104242973D01*
X154184865Y-104414595D01*
X154184865Y-104586216D01*
X154356486Y-104586216D01*
X154528108Y-104586216D01*
X154528108Y-104414595D01*
X154528108Y-104242973D01*
X155214594Y-104242973D01*
X155901081Y-104242973D01*
X155901081Y-104414595D01*
X155901081Y-104586216D01*
X155386216Y-104586216D01*
X154871351Y-104586216D01*
X154871351Y-104929460D01*
X154871351Y-105272703D01*
X155042973Y-105272703D01*
X155214594Y-105272703D01*
X155214594Y-105101081D01*
X155214594Y-104929460D01*
X155386216Y-104929460D01*
X155557838Y-104929460D01*
X155557838Y-105101081D01*
X155557838Y-105272703D01*
X155386216Y-105272703D01*
X155214594Y-105272703D01*
X155214594Y-105615946D01*
G37*
G36*
X155386216Y-105959189D02*
G01*
X155557838Y-105959189D01*
X155557838Y-106130811D01*
X155557838Y-106302433D01*
X155386216Y-106302433D01*
X155214594Y-106302433D01*
X155214594Y-106130811D01*
X155214594Y-105959189D01*
X155386216Y-105959189D01*
G37*
G36*
X152468648Y-104414595D02*
G01*
X152468648Y-104586216D01*
X152297027Y-104586216D01*
X152125405Y-104586216D01*
X152125405Y-104414595D01*
X152125405Y-104242973D01*
X152297027Y-104242973D01*
X152468648Y-104242973D01*
X152468648Y-104414595D01*
G37*
G36*
X152125405Y-114025406D02*
G01*
X152125405Y-114197027D01*
X151782162Y-114197027D01*
X151438919Y-114197027D01*
X151438919Y-114025406D01*
X151438919Y-113853784D01*
X151782162Y-113853784D01*
X152125405Y-113853784D01*
X152125405Y-114025406D01*
G37*
G36*
X152468648Y-113682162D02*
G01*
X152468648Y-113853784D01*
X152297027Y-113853784D01*
X152125405Y-113853784D01*
X152125405Y-113682162D01*
X152125405Y-113510541D01*
X152297027Y-113510541D01*
X152468648Y-113510541D01*
X152468648Y-113682162D01*
G37*
G36*
X149379459Y-112480811D02*
G01*
X149379459Y-112824054D01*
X149207838Y-112824054D01*
X149036216Y-112824054D01*
X149036216Y-112652433D01*
X149036216Y-112480811D01*
X148864594Y-112480811D01*
X148692973Y-112480811D01*
X148692973Y-112309189D01*
X148692973Y-112137568D01*
X149036216Y-112137568D01*
X149379459Y-112137568D01*
X149379459Y-112480811D01*
G37*
G36*
X149036216Y-110592973D02*
G01*
X149036216Y-110764595D01*
X148864594Y-110764595D01*
X148692973Y-110764595D01*
X148692973Y-110592973D01*
X148692973Y-110421352D01*
X148864594Y-110421352D01*
X149036216Y-110421352D01*
X149036216Y-110592973D01*
G37*
G36*
X151267297Y-107332162D02*
G01*
X151438919Y-107332162D01*
X151438919Y-107503784D01*
X151438919Y-107675406D01*
X151267297Y-107675406D01*
X151095675Y-107675406D01*
X151095675Y-107503784D01*
X151095675Y-107332162D01*
X151267297Y-107332162D01*
G37*
G36*
X151095675Y-107160541D02*
G01*
X151095675Y-107332162D01*
X150924054Y-107332162D01*
X150752432Y-107332162D01*
X150752432Y-107160541D01*
X150752432Y-106988919D01*
X150924054Y-106988919D01*
X151095675Y-106988919D01*
X151095675Y-107160541D01*
G37*
G36*
X151953784Y-105615946D02*
G01*
X152125405Y-105615946D01*
X152125405Y-105787568D01*
X152125405Y-105959189D01*
X151953784Y-105959189D01*
X151782162Y-105959189D01*
X151782162Y-105787568D01*
X151782162Y-105615946D01*
X151953784Y-105615946D01*
G37*
G36*
X151782162Y-105272703D02*
G01*
X151782162Y-105615946D01*
X151610540Y-105615946D01*
X151438919Y-105615946D01*
X151438919Y-105272703D01*
X151438919Y-104929460D01*
X151610540Y-104929460D01*
X151782162Y-104929460D01*
X151782162Y-105272703D01*
G37*
G36*
X152125405Y-104757838D02*
G01*
X152125405Y-104929460D01*
X151953784Y-104929460D01*
X151782162Y-104929460D01*
X151782162Y-104757838D01*
X151782162Y-104586216D01*
X151953784Y-104586216D01*
X152125405Y-104586216D01*
X152125405Y-104757838D01*
G37*
G36*
X153841621Y-114025406D02*
G01*
X153841621Y-114197027D01*
X153670000Y-114197027D01*
X153498378Y-114197027D01*
X153498378Y-114025406D01*
X153498378Y-113853784D01*
X153670000Y-113853784D01*
X153841621Y-113853784D01*
X153841621Y-114025406D01*
G37*
G36*
X155901081Y-111451081D02*
G01*
X155901081Y-111794325D01*
X155557838Y-111794325D01*
X155214594Y-111794325D01*
X155214594Y-111451081D01*
X155214594Y-111107838D01*
X155557838Y-111107838D01*
X155901081Y-111107838D01*
X155901081Y-111451081D01*
G37*
G36*
X156587567Y-111279460D02*
G01*
X156587567Y-111451081D01*
X156415946Y-111451081D01*
X156244324Y-111451081D01*
X156244324Y-111279460D01*
X156244324Y-111107838D01*
X156415946Y-111107838D01*
X156587567Y-111107838D01*
X156587567Y-111279460D01*
G37*
G36*
X158647027Y-104586216D02*
G01*
X158647027Y-105444325D01*
X158647027Y-106645676D01*
X157445675Y-106645676D01*
X156244324Y-106645676D01*
X156244324Y-106302433D01*
X156587567Y-106302433D01*
X157445675Y-106302433D01*
X158303784Y-106302433D01*
X158303784Y-105444325D01*
X158303784Y-104586216D01*
X157445675Y-104586216D01*
X156587567Y-104586216D01*
X156587567Y-105444325D01*
X156587567Y-106302433D01*
X156244324Y-106302433D01*
X156244324Y-105444325D01*
X156244324Y-104242973D01*
X157445675Y-104242973D01*
X158647027Y-104242973D01*
X158647027Y-104586216D01*
G37*
G36*
X151095675Y-104586216D02*
G01*
X151095675Y-105444325D01*
X151095675Y-106645676D01*
X149894324Y-106645676D01*
X148692973Y-106645676D01*
X148692973Y-106302433D01*
X149036216Y-106302433D01*
X149894324Y-106302433D01*
X150752432Y-106302433D01*
X150752432Y-105444325D01*
X150752432Y-104586216D01*
X149894324Y-104586216D01*
X149036216Y-104586216D01*
X149036216Y-105444325D01*
X149036216Y-106302433D01*
X148692973Y-106302433D01*
X148692973Y-105444325D01*
X148692973Y-104242973D01*
X149894324Y-104242973D01*
X151095675Y-104242973D01*
X151095675Y-104586216D01*
G37*
G36*
X157960540Y-112995676D02*
G01*
X157960540Y-113510541D01*
X157445675Y-113510541D01*
X156930811Y-113510541D01*
X156930811Y-112995676D01*
X156930811Y-112480811D01*
X157445675Y-112480811D01*
X157960540Y-112480811D01*
X157960540Y-112995676D01*
G37*
G36*
X151095675Y-111965946D02*
G01*
X151095675Y-112137568D01*
X150924054Y-112137568D01*
X150752432Y-112137568D01*
X150752432Y-111965946D01*
X150752432Y-111794325D01*
X150924054Y-111794325D01*
X151095675Y-111794325D01*
X151095675Y-111965946D01*
G37*
G36*
X156244324Y-109563244D02*
G01*
X156244324Y-109734865D01*
X155901081Y-109734865D01*
X155557838Y-109734865D01*
X155557838Y-109563244D01*
X155557838Y-109391622D01*
X155901081Y-109391622D01*
X156244324Y-109391622D01*
X156244324Y-109563244D01*
G37*
G36*
X156587567Y-109220000D02*
G01*
X156587567Y-109391622D01*
X156415946Y-109391622D01*
X156244324Y-109391622D01*
X156244324Y-109220000D01*
X156244324Y-109048379D01*
X156415946Y-109048379D01*
X156587567Y-109048379D01*
X156587567Y-109220000D01*
G37*
G36*
X153841621Y-109563244D02*
G01*
X153841621Y-109734865D01*
X153670000Y-109734865D01*
X153498378Y-109734865D01*
X153498378Y-109563244D01*
X153498378Y-109391622D01*
X153670000Y-109391622D01*
X153841621Y-109391622D01*
X153841621Y-109563244D01*
G37*
G36*
X155901081Y-108876757D02*
G01*
X155901081Y-109048379D01*
X155729459Y-109048379D01*
X155557838Y-109048379D01*
X155557838Y-108876757D01*
X155557838Y-108705135D01*
X155729459Y-108705135D01*
X155901081Y-108705135D01*
X155901081Y-108876757D01*
G37*
G36*
X154528108Y-108876757D02*
G01*
X154528108Y-109048379D01*
X154184865Y-109048379D01*
X153841621Y-109048379D01*
X153841621Y-108876757D01*
X153841621Y-108705135D01*
X154184865Y-108705135D01*
X154528108Y-108705135D01*
X154528108Y-108876757D01*
G37*
G36*
X156587567Y-108533514D02*
G01*
X156587567Y-108705135D01*
X156415946Y-108705135D01*
X156244324Y-108705135D01*
X156244324Y-108533514D01*
X156244324Y-108361892D01*
X156415946Y-108361892D01*
X156587567Y-108361892D01*
X156587567Y-108533514D01*
G37*
G36*
X155386216Y-107675406D02*
G01*
X155557838Y-107675406D01*
X155557838Y-107847027D01*
X155557838Y-108018649D01*
X155386216Y-108018649D01*
X155214594Y-108018649D01*
X155214594Y-107847027D01*
X155214594Y-107675406D01*
X155386216Y-107675406D01*
G37*
G36*
X155214594Y-107503784D02*
G01*
X155214594Y-107675406D01*
X155042973Y-107675406D01*
X154871351Y-107675406D01*
X154871351Y-107503784D01*
X154871351Y-107332162D01*
X155042973Y-107332162D01*
X155214594Y-107332162D01*
X155214594Y-107503784D01*
G37*
G36*
X154528108Y-107847027D02*
G01*
X154528108Y-108018649D01*
X154356486Y-108018649D01*
X154184865Y-108018649D01*
X154184865Y-107847027D01*
X154184865Y-107675406D01*
X154356486Y-107675406D01*
X154528108Y-107675406D01*
X154528108Y-107847027D01*
G37*
G36*
X154528108Y-106817298D02*
G01*
X154528108Y-107332162D01*
X154356486Y-107332162D01*
X154184865Y-107332162D01*
X154184865Y-107160541D01*
X154184865Y-106988919D01*
X154013243Y-106988919D01*
X153841621Y-106988919D01*
X153841621Y-106817298D01*
X153841621Y-106645676D01*
X154013243Y-106645676D01*
X154184865Y-106645676D01*
X154184865Y-106474054D01*
X154184865Y-106302433D01*
X154356486Y-106302433D01*
X154528108Y-106302433D01*
X154528108Y-106817298D01*
G37*
G36*
X155214594Y-106474054D02*
G01*
X155214594Y-106645676D01*
X155042973Y-106645676D01*
X154871351Y-106645676D01*
X154871351Y-106474054D01*
X154871351Y-106302433D01*
X155042973Y-106302433D01*
X155214594Y-106302433D01*
X155214594Y-106474054D01*
G37*
G36*
X152468648Y-106302433D02*
G01*
X152468648Y-106645676D01*
X152297027Y-106645676D01*
X152125405Y-106645676D01*
X152125405Y-106302433D01*
X152125405Y-105959189D01*
X152297027Y-105959189D01*
X152468648Y-105959189D01*
X152468648Y-106302433D01*
G37*
G36*
X152811892Y-105444325D02*
G01*
X152811892Y-105615946D01*
X152983513Y-105615946D01*
X153155135Y-105615946D01*
X153155135Y-105787568D01*
X153155135Y-105959189D01*
X152811892Y-105959189D01*
X152468648Y-105959189D01*
X152468648Y-105787568D01*
X152468648Y-105615946D01*
X152297027Y-105615946D01*
X152125405Y-105615946D01*
X152125405Y-105444325D01*
X152125405Y-105272703D01*
X152468648Y-105272703D01*
X152811892Y-105272703D01*
X152811892Y-105444325D01*
G37*
G36*
X157960540Y-105444325D02*
G01*
X157960540Y-105959189D01*
X157445675Y-105959189D01*
X156930811Y-105959189D01*
X156930811Y-105444325D01*
X156930811Y-104929460D01*
X157445675Y-104929460D01*
X157960540Y-104929460D01*
X157960540Y-105444325D01*
G37*
G36*
X150409189Y-105444325D02*
G01*
X150409189Y-105959189D01*
X149894324Y-105959189D01*
X149379459Y-105959189D01*
X149379459Y-105444325D01*
X149379459Y-104929460D01*
X149894324Y-104929460D01*
X150409189Y-104929460D01*
X150409189Y-105444325D01*
G37*
%TD*%
M02*
