%TF.GenerationSoftware,KiCad,Pcbnew,(7.0.0)*%
%TF.CreationDate,2023-03-29T20:30:43+09:00*%
%TF.ProjectId,wiokey,77696f6b-6579-42e6-9b69-6361645f7063,rev?*%
%TF.SameCoordinates,Original*%
%TF.FileFunction,Legend,Top*%
%TF.FilePolarity,Positive*%
%FSLAX46Y46*%
G04 Gerber Fmt 4.6, Leading zero omitted, Abs format (unit mm)*
G04 Created by KiCad (PCBNEW (7.0.0)) date 2023-03-29 20:30:43*
%MOMM*%
%LPD*%
G01*
G04 APERTURE LIST*
%ADD10C,0.150000*%
%ADD11C,0.100000*%
%ADD12C,0.120000*%
G04 APERTURE END LIST*
D10*
X136148000Y-99618800D02*
X135538400Y-99872800D01*
X136605200Y-99491800D02*
X136427400Y-99898200D01*
X133811200Y-111887000D02*
X133912800Y-112471200D01*
X137316400Y-101727000D02*
X137443400Y-102260400D01*
X138434000Y-112420400D02*
X138434000Y-96291400D01*
X129061400Y-105029000D02*
X129315400Y-104673400D01*
X133481000Y-100076000D02*
X134268400Y-99898200D01*
X135767000Y-100101400D02*
X136275000Y-100406200D01*
X131271200Y-104216200D02*
X131068000Y-104521000D01*
X133379400Y-110388400D02*
X133582600Y-111023400D01*
G36*
X122051000Y-97434400D02*
G01*
X120400000Y-96926400D01*
X120400000Y-96164400D01*
X122051000Y-95783400D01*
X122051000Y-97434400D01*
G37*
X122051000Y-97434400D02*
X120400000Y-96926400D01*
X120400000Y-96164400D01*
X122051000Y-95783400D01*
X122051000Y-97434400D01*
X134547800Y-101752400D02*
X134801800Y-101676200D01*
X126851600Y-101523800D02*
X126851600Y-101269800D01*
X126699200Y-101727000D02*
X126851600Y-101523800D01*
X126851600Y-101269800D02*
X126826200Y-100990400D01*
X124845000Y-100457000D02*
X125276800Y-99847400D01*
X129899600Y-106375200D02*
X130102800Y-106603800D01*
X134801800Y-101676200D02*
X135005000Y-101498400D01*
X123067000Y-93751400D02*
G75*
G03*
X122051000Y-94767400I0J-1016000D01*
G01*
X134243000Y-105968800D02*
X133684200Y-105714800D01*
G36*
X140720000Y-106324400D02*
G01*
X140720000Y-107086400D01*
X139069000Y-107467400D01*
X139069000Y-105816400D01*
X140720000Y-106324400D01*
G37*
X140720000Y-106324400D02*
X140720000Y-107086400D01*
X139069000Y-107467400D01*
X139069000Y-105816400D01*
X140720000Y-106324400D01*
X135894000Y-98983800D02*
X135538400Y-99872800D01*
X125784800Y-99339400D02*
X126470600Y-98831400D01*
X131906200Y-103276400D02*
X131906200Y-102717600D01*
G36*
X126859000Y-100909400D02*
G01*
X126648400Y-100761800D01*
X126394400Y-100660200D01*
X126115000Y-100711000D01*
X125734000Y-100939600D01*
X125632400Y-101142800D01*
X125632400Y-101447600D01*
X125734000Y-101727000D01*
X123841700Y-101714300D01*
X123956000Y-101447600D01*
X124514800Y-100685600D01*
X124845000Y-100457000D01*
X125378400Y-100126800D01*
X125988000Y-99949000D01*
X126800800Y-99949000D01*
X126859000Y-100909400D01*
G37*
X126859000Y-100909400D02*
X126648400Y-100761800D01*
X126394400Y-100660200D01*
X126115000Y-100711000D01*
X125734000Y-100939600D01*
X125632400Y-101142800D01*
X125632400Y-101447600D01*
X125734000Y-101727000D01*
X123841700Y-101714300D01*
X123956000Y-101447600D01*
X124514800Y-100685600D01*
X124845000Y-100457000D01*
X125378400Y-100126800D01*
X125988000Y-99949000D01*
X126800800Y-99949000D01*
X126859000Y-100909400D01*
X123905200Y-104394000D02*
X123829000Y-106680000D01*
X130102800Y-106603800D02*
X130458400Y-106756200D01*
X129544000Y-108407200D02*
X130077400Y-108381800D01*
X137418000Y-113436400D02*
G75*
G03*
X138434000Y-112420400I0J1016000D01*
G01*
X124514800Y-100685600D02*
X124845000Y-100457000D01*
X127181800Y-105765600D02*
X126572200Y-105943400D01*
X130509200Y-105537000D02*
X130077400Y-105664000D01*
X131830000Y-105283000D02*
X131601400Y-105613200D01*
X134522400Y-100533200D02*
X134268400Y-100634800D01*
X131245800Y-105638600D02*
X130941000Y-105587800D01*
X123905200Y-104394000D02*
X123702000Y-103809800D01*
X137341800Y-104165400D02*
X137164000Y-104648000D01*
X134293800Y-101676200D02*
X134547800Y-101752400D01*
G36*
X140720000Y-100287619D02*
G01*
X140720000Y-101049619D01*
X139069000Y-101430619D01*
X139069000Y-99779619D01*
X140720000Y-100287619D01*
G37*
X140720000Y-100287619D02*
X140720000Y-101049619D01*
X139069000Y-101430619D01*
X139069000Y-99779619D01*
X140720000Y-100287619D01*
X123829000Y-106680000D02*
X123854400Y-109220000D01*
X125708600Y-98526600D02*
X126127700Y-99085400D01*
X134014400Y-101041200D02*
X133989000Y-101295200D01*
X129747200Y-98069400D02*
X130763200Y-98044000D01*
X136579800Y-105486200D02*
X136884600Y-105105200D01*
X134116000Y-101523800D02*
X134293800Y-101676200D01*
X126648400Y-100761800D02*
X126394400Y-100660200D01*
X135005000Y-101498400D02*
X135132000Y-101269800D01*
G36*
X122051000Y-101371400D02*
G01*
X120400000Y-100863400D01*
X120400000Y-100101400D01*
X122051000Y-99720400D01*
X122051000Y-101371400D01*
G37*
X122051000Y-101371400D02*
X120400000Y-100863400D01*
X120400000Y-100101400D01*
X122051000Y-99720400D01*
X122051000Y-101371400D01*
X135563800Y-105968800D02*
X134903400Y-105994200D01*
X129086800Y-105435400D02*
X129061400Y-105029000D01*
X129848800Y-106019600D02*
X129899600Y-106375200D01*
X125988000Y-99949000D02*
X126800800Y-99949000D01*
X128223200Y-109093000D02*
X128959800Y-108585000D01*
X125734000Y-100939600D02*
X125632400Y-101142800D01*
X136275000Y-100406200D02*
X136732200Y-100787200D01*
X125276800Y-105791000D02*
X124768800Y-105537000D01*
X126572200Y-105943400D02*
X125886400Y-105968800D01*
X132211000Y-108737400D02*
X132719000Y-109143800D01*
X134446200Y-98983800D02*
X135030400Y-99390200D01*
G36*
X140720000Y-110388400D02*
G01*
X140720000Y-111150400D01*
X139069000Y-111531400D01*
X139069000Y-109880400D01*
X140720000Y-110388400D01*
G37*
X140720000Y-110388400D02*
X140720000Y-111150400D01*
X139069000Y-111531400D01*
X139069000Y-109880400D01*
X140720000Y-110388400D01*
X132668200Y-105003600D02*
X132261800Y-104444800D01*
X133684200Y-105714800D02*
X133150800Y-105410000D01*
X136122600Y-105765600D02*
X135563800Y-105968800D01*
X133989000Y-101295200D02*
X134116000Y-101523800D01*
X134268400Y-99898200D02*
X134928800Y-99923600D01*
X126470600Y-101930200D02*
X126699200Y-101727000D01*
X122686000Y-96291400D02*
X122686000Y-112420400D01*
X131220400Y-103911400D02*
X131271200Y-104216200D01*
X123854400Y-109220000D02*
X123854400Y-112344200D01*
X125302200Y-98247200D02*
X124819600Y-98221800D01*
G36*
X134928800Y-99923600D02*
G01*
X135767000Y-100101400D01*
X136275000Y-100406200D01*
X136732200Y-100787200D01*
X137037000Y-101219000D01*
X137316400Y-101727000D01*
X137519600Y-102844600D01*
X137341800Y-104165400D01*
X137164000Y-104648000D01*
X136884600Y-105105200D01*
X136579800Y-105486200D01*
X136122600Y-105765600D01*
X135563800Y-105968800D01*
X134903400Y-105994200D01*
X134243000Y-105968800D01*
X133684200Y-105714800D01*
X133150800Y-105410000D01*
X132668200Y-105003600D01*
X132261800Y-104444800D01*
X132058600Y-103886000D01*
X131906200Y-103276400D01*
X131906200Y-102717600D01*
X131982400Y-102158800D01*
X132109400Y-101600000D01*
X132388800Y-101066600D01*
X133049200Y-100330000D01*
X133481000Y-100076000D01*
X134116000Y-100787200D01*
X134014400Y-101041200D01*
X133989000Y-101295200D01*
X134116000Y-101523800D01*
X134293800Y-101676200D01*
X134547800Y-101752400D01*
X134801800Y-101676200D01*
X135005000Y-101498400D01*
X135132000Y-101269800D01*
X135132000Y-100965000D01*
X135005000Y-100736400D01*
X134776400Y-100558600D01*
X134522400Y-100533200D01*
X134268400Y-99898200D01*
X134928800Y-99923600D01*
G37*
X134928800Y-99923600D02*
X135767000Y-100101400D01*
X136275000Y-100406200D01*
X136732200Y-100787200D01*
X137037000Y-101219000D01*
X137316400Y-101727000D01*
X137519600Y-102844600D01*
X137341800Y-104165400D01*
X137164000Y-104648000D01*
X136884600Y-105105200D01*
X136579800Y-105486200D01*
X136122600Y-105765600D01*
X135563800Y-105968800D01*
X134903400Y-105994200D01*
X134243000Y-105968800D01*
X133684200Y-105714800D01*
X133150800Y-105410000D01*
X132668200Y-105003600D01*
X132261800Y-104444800D01*
X132058600Y-103886000D01*
X131906200Y-103276400D01*
X131906200Y-102717600D01*
X131982400Y-102158800D01*
X132109400Y-101600000D01*
X132388800Y-101066600D01*
X133049200Y-100330000D01*
X133481000Y-100076000D01*
X134116000Y-100787200D01*
X134014400Y-101041200D01*
X133989000Y-101295200D01*
X134116000Y-101523800D01*
X134293800Y-101676200D01*
X134547800Y-101752400D01*
X134801800Y-101676200D01*
X135005000Y-101498400D01*
X135132000Y-101269800D01*
X135132000Y-100965000D01*
X135005000Y-100736400D01*
X134776400Y-100558600D01*
X134522400Y-100533200D01*
X134268400Y-99898200D01*
X134928800Y-99923600D01*
X134928800Y-98933000D02*
X135182800Y-98475800D01*
X125378400Y-100126800D02*
X124845000Y-100457000D01*
X126826200Y-100990400D02*
X126648400Y-100761800D01*
X130458400Y-103682800D02*
X130864800Y-103759000D01*
X135030400Y-99390200D02*
X135538400Y-99872800D01*
X129213800Y-103352600D02*
X129086800Y-104114600D01*
X122051000Y-113182400D02*
G75*
G03*
X122940000Y-114071400I889000J0D01*
G01*
G36*
X122051000Y-103530400D02*
G01*
X120400000Y-103022400D01*
X120400000Y-102260400D01*
X122051000Y-101879400D01*
X122051000Y-103530400D01*
G37*
X122051000Y-103530400D02*
X120400000Y-103022400D01*
X120400000Y-102260400D01*
X122051000Y-101879400D01*
X122051000Y-103530400D01*
X131855400Y-98171000D02*
X132846000Y-98323400D01*
X133150800Y-109702600D02*
X133379400Y-110388400D01*
X124921200Y-99263200D02*
X125530800Y-99593400D01*
X130077400Y-108381800D02*
X130687000Y-108356400D01*
X129671000Y-93751400D02*
G75*
G03*
X131449000Y-93751400I889000J0D01*
G01*
X136884600Y-105105200D02*
X136986200Y-107619800D01*
X124387800Y-98602800D02*
X124235400Y-99110800D01*
X124133800Y-104724200D02*
X123905200Y-104394000D01*
X126394400Y-100660200D02*
X126115000Y-100711000D01*
X129086800Y-101828600D02*
X129213800Y-102539800D01*
X134738300Y-99187000D02*
X134928800Y-98933000D01*
X130077400Y-103682800D02*
X130458400Y-103682800D01*
X123854400Y-112344200D02*
X123905200Y-113004600D01*
X131118800Y-108356400D02*
X131677600Y-108508800D01*
G36*
X127461200Y-100152200D02*
G01*
X127994600Y-100431600D01*
X128477200Y-100812600D01*
X128832800Y-101269800D01*
X129086800Y-101828600D01*
X129213800Y-102539800D01*
X126869000Y-102569400D01*
X126826200Y-100990400D01*
X126800800Y-99949000D01*
X127461200Y-100152200D01*
G37*
X127461200Y-100152200D02*
X127994600Y-100431600D01*
X128477200Y-100812600D01*
X128832800Y-101269800D01*
X129086800Y-101828600D01*
X129213800Y-102539800D01*
X126869000Y-102569400D01*
X126826200Y-100990400D01*
X126800800Y-99949000D01*
X127461200Y-100152200D01*
X137011600Y-108712000D02*
X137037000Y-111048800D01*
G36*
X122051000Y-111531400D02*
G01*
X120400000Y-111023400D01*
X120400000Y-110261400D01*
X122051000Y-109880400D01*
X122051000Y-111531400D01*
G37*
X122051000Y-111531400D02*
X120400000Y-111023400D01*
X120400000Y-110261400D01*
X122051000Y-109880400D01*
X122051000Y-111531400D01*
X125276800Y-99847400D02*
X125784800Y-99339400D01*
X123727400Y-101981000D02*
X123956000Y-101447600D01*
X135005000Y-100736400D02*
X134776400Y-100558600D01*
X123702000Y-103809800D02*
X123625800Y-103251000D01*
X137545000Y-95402400D02*
X123575000Y-95402400D01*
X132846000Y-98323400D02*
X133684200Y-98602800D01*
X129213800Y-102539800D02*
X129213800Y-103352600D01*
X133049200Y-100330000D02*
X133481000Y-100076000D01*
G36*
X122051000Y-105435400D02*
G01*
X120400000Y-104927400D01*
X120400000Y-104165400D01*
X122051000Y-103784400D01*
X122051000Y-105435400D01*
G37*
X122051000Y-105435400D02*
X120400000Y-104927400D01*
X120400000Y-104165400D01*
X122051000Y-103784400D01*
X122051000Y-105435400D01*
G36*
X140720000Y-108356400D02*
G01*
X140720000Y-109118400D01*
X139069000Y-109499400D01*
X139069000Y-107848400D01*
X140720000Y-108356400D01*
G37*
X140720000Y-108356400D02*
X140720000Y-109118400D01*
X139069000Y-109499400D01*
X139069000Y-107848400D01*
X140720000Y-108356400D01*
X129747200Y-105765600D02*
X129340800Y-105714800D01*
X131169600Y-106095800D02*
X131245800Y-105638600D01*
X137037000Y-111048800D02*
X136960800Y-112979200D01*
X139069000Y-113055400D02*
X139069000Y-94640400D01*
X136630600Y-98628200D02*
X136757600Y-99161600D01*
X124286200Y-99542600D02*
X124413200Y-99898200D01*
X126597600Y-112445800D02*
X126623000Y-111760000D01*
X135132000Y-101269800D02*
X135132000Y-100965000D01*
X133582600Y-111023400D02*
X133811200Y-111887000D01*
G36*
X122051000Y-99466400D02*
G01*
X120400000Y-98958400D01*
X120400000Y-98196400D01*
X122051000Y-97815400D01*
X122051000Y-99466400D01*
G37*
X122051000Y-99466400D02*
X120400000Y-98958400D01*
X120400000Y-98196400D01*
X122051000Y-97815400D01*
X122051000Y-99466400D01*
X126470600Y-98831400D02*
X127181800Y-98526600D01*
X130687000Y-108356400D02*
X131118800Y-108356400D01*
X122686000Y-112420400D02*
G75*
G03*
X123702000Y-113436400I1016000J0D01*
G01*
X131601400Y-105613200D02*
X131245800Y-105638600D01*
X125988000Y-99949000D02*
X125378400Y-100126800D01*
X126623000Y-112928400D02*
X126597600Y-112445800D01*
X131068000Y-106476800D02*
X131169600Y-106095800D01*
X137519600Y-102844600D02*
X137443400Y-103505000D01*
X131906200Y-102717600D02*
X131982400Y-102158800D01*
X126800800Y-99949000D02*
X127461200Y-100152200D01*
X128782000Y-104698800D02*
X128324800Y-105181400D01*
X128832800Y-98145600D02*
X129747200Y-98069400D01*
X129721800Y-104368600D02*
X129594800Y-104140000D01*
X124235400Y-99110800D02*
X124286200Y-99542600D01*
X126750000Y-111150400D02*
X126902400Y-110693200D01*
X124337000Y-105105200D02*
X124133800Y-104724200D01*
G36*
X140720000Y-98274883D02*
G01*
X140720000Y-99036883D01*
X139069000Y-99417883D01*
X139069000Y-97766883D01*
X140720000Y-98274883D01*
G37*
X140720000Y-98274883D02*
X140720000Y-99036883D01*
X139069000Y-99417883D01*
X139069000Y-97766883D01*
X140720000Y-98274883D01*
X135233600Y-99974400D02*
X135767000Y-100101400D01*
X130839400Y-104673400D02*
X130433000Y-104775000D01*
X132388800Y-101066600D02*
X132693600Y-100711000D01*
X129772600Y-103835200D02*
X130077400Y-103682800D01*
X123625800Y-103251000D02*
X123625800Y-102616000D01*
X137443400Y-103505000D02*
X137341800Y-104165400D01*
X125302200Y-98247200D02*
X125708600Y-98526600D01*
G36*
X134522400Y-100533200D02*
G01*
X134268400Y-100634800D01*
X134116000Y-100787200D01*
X133481000Y-100076000D01*
X134268400Y-99898200D01*
X134522400Y-100533200D01*
G37*
X134522400Y-100533200D02*
X134268400Y-100634800D01*
X134116000Y-100787200D01*
X133481000Y-100076000D01*
X134268400Y-99898200D01*
X134522400Y-100533200D01*
X125734000Y-101727000D02*
X125962600Y-101904800D01*
G36*
X122051000Y-107467400D02*
G01*
X120400000Y-106959400D01*
X120400000Y-106197400D01*
X122051000Y-105816400D01*
X122051000Y-107467400D01*
G37*
X122051000Y-107467400D02*
X120400000Y-106959400D01*
X120400000Y-106197400D01*
X122051000Y-105816400D01*
X122051000Y-107467400D01*
X123702000Y-113436400D02*
X137418000Y-113436400D01*
G36*
X122051000Y-109499400D02*
G01*
X120400000Y-108991400D01*
X120400000Y-108229400D01*
X122051000Y-107848400D01*
X122051000Y-109499400D01*
G37*
X122051000Y-109499400D02*
X120400000Y-108991400D01*
X120400000Y-108229400D01*
X122051000Y-107848400D01*
X122051000Y-109499400D01*
X122051000Y-94767400D02*
X122051000Y-113182400D01*
X127994600Y-100431600D02*
X128477200Y-100812600D01*
X133150800Y-105410000D02*
X132668200Y-105003600D01*
X127258000Y-110159800D02*
X127664400Y-109626400D01*
X129671000Y-93751400D02*
X123067000Y-93751400D01*
X135538400Y-99872800D02*
X135767000Y-100101400D01*
G36*
X140720000Y-96164400D02*
G01*
X140720000Y-96926400D01*
X139069000Y-97307400D01*
X139069000Y-95656400D01*
X140720000Y-96164400D01*
G37*
X140720000Y-96164400D02*
X140720000Y-96926400D01*
X139069000Y-97307400D01*
X139069000Y-95656400D01*
X140720000Y-96164400D01*
X134928800Y-99923600D02*
X135233600Y-99974400D01*
X124260800Y-101041200D02*
X124514800Y-100685600D01*
X134268400Y-100634800D02*
X134116000Y-100787200D01*
X130077400Y-105664000D02*
X129747200Y-105765600D01*
X131982400Y-102158800D02*
X132109400Y-101600000D01*
X124413200Y-99898200D02*
X124845000Y-100457000D01*
X131271200Y-104216200D02*
X131652200Y-104546400D01*
X122940000Y-114071400D02*
X138053000Y-114071400D01*
X128959800Y-108585000D02*
X129544000Y-108407200D01*
X126623000Y-111760000D02*
X126750000Y-111150400D01*
X138180000Y-93751400D02*
X131449000Y-93751400D01*
X135132000Y-100965000D02*
X135005000Y-100736400D01*
X127994600Y-98272600D02*
X128832800Y-98145600D01*
X125632400Y-101142800D02*
X125632400Y-101447600D01*
X127664400Y-109626400D02*
X128223200Y-109093000D01*
X125962600Y-101904800D02*
X126216600Y-101981000D01*
X123625800Y-102616000D02*
X123727400Y-101981000D01*
X136757600Y-99161600D02*
X136605200Y-99491800D01*
X129086800Y-104114600D02*
X128782000Y-104698800D01*
X124768800Y-105537000D02*
X124337000Y-105105200D01*
X131652200Y-104546400D02*
X131830000Y-104902000D01*
X132058600Y-103886000D02*
X131906200Y-103276400D01*
X127740600Y-105562400D02*
X127181800Y-105765600D01*
X134776400Y-100558600D02*
X134522400Y-100533200D01*
X136732200Y-100787200D02*
X137037000Y-101219000D01*
X128324800Y-105181400D02*
X127740600Y-105562400D01*
X133912800Y-112471200D02*
X133912800Y-112903000D01*
X128832800Y-101269800D02*
X129086800Y-101828600D01*
X135487600Y-98247200D02*
X135995600Y-98120200D01*
X130763200Y-98044000D02*
X131855400Y-98171000D01*
X135995600Y-98120200D02*
X136325800Y-98272600D01*
X132109400Y-101600000D02*
X132388800Y-101066600D01*
G36*
X140720000Y-102260400D02*
G01*
X140720000Y-103022400D01*
X139069000Y-103403400D01*
X139069000Y-101752400D01*
X140720000Y-102260400D01*
G37*
X140720000Y-102260400D02*
X140720000Y-103022400D01*
X139069000Y-103403400D01*
X139069000Y-101752400D01*
X140720000Y-102260400D01*
X127461200Y-100152200D02*
X127994600Y-100431600D01*
X132693600Y-100711000D02*
X133049200Y-100330000D01*
X130077400Y-104673400D02*
X129721800Y-104368600D01*
X136986200Y-107619800D02*
X137011600Y-108712000D01*
X134116000Y-100787200D02*
X134014400Y-101041200D01*
X129594800Y-104140000D02*
X129772600Y-103835200D01*
X129912300Y-105714800D02*
X129848800Y-106019600D01*
X131677600Y-108508800D02*
X132211000Y-108737400D01*
X130458400Y-106756200D02*
X130839400Y-106680000D01*
X125632400Y-101447600D02*
X125734000Y-101727000D01*
X133684200Y-98602800D02*
X134446200Y-98983800D01*
X131068000Y-104521000D02*
X130839400Y-104673400D01*
X132261800Y-104444800D02*
X132058600Y-103886000D01*
X130839400Y-106680000D02*
X131068000Y-106476800D01*
X130433000Y-104775000D02*
X130077400Y-104673400D01*
X129340800Y-105714800D02*
X129086800Y-105435400D01*
X138434000Y-96291400D02*
G75*
G03*
X137545000Y-95402400I-889000J0D01*
G01*
X139069000Y-94640400D02*
G75*
G03*
X138180000Y-93751400I-889000J0D01*
G01*
X123956000Y-101447600D02*
X124260800Y-101041200D01*
X127181800Y-98526600D02*
X127994600Y-98272600D01*
X123575000Y-95402400D02*
G75*
G03*
X122686000Y-96291400I0J-889000D01*
G01*
X136325800Y-98272600D02*
X136630600Y-98628200D01*
X130941000Y-105587800D02*
X130509200Y-105537000D01*
X128477200Y-100812600D02*
X128832800Y-101269800D01*
X135182800Y-98475800D02*
X135487600Y-98247200D01*
X137037000Y-101219000D02*
X137316400Y-101727000D01*
X130864800Y-103759000D02*
X131220400Y-103911400D01*
X137443400Y-102260400D02*
X137519600Y-102844600D01*
X126902400Y-110693200D02*
X127258000Y-110159800D01*
X126216600Y-101981000D02*
X126470600Y-101930200D01*
X134903400Y-105994200D02*
X134243000Y-105968800D01*
X137164000Y-104648000D02*
X136884600Y-105105200D01*
X132719000Y-109143800D02*
X133150800Y-109702600D01*
X129315400Y-104673400D02*
X129721800Y-104368600D01*
X136579800Y-105486200D02*
X136122600Y-105765600D01*
X136427400Y-99898200D02*
X136021000Y-100253800D01*
X124819600Y-98221800D02*
X124387800Y-98602800D01*
G36*
X129213800Y-102539800D02*
G01*
X129213800Y-103352600D01*
X129086800Y-104114600D01*
X128782000Y-104698800D01*
X128324800Y-105181400D01*
X127740600Y-105562400D01*
X126572200Y-105943400D01*
X125886400Y-105968800D01*
X125276800Y-105791000D01*
X124768800Y-105537000D01*
X124337000Y-105105200D01*
X123905200Y-104394000D01*
X123702000Y-103809800D01*
X123625800Y-103251000D01*
X123625800Y-102616000D01*
X123727400Y-101981000D01*
X123841700Y-101714300D01*
X125734000Y-101727000D01*
X125962600Y-101904800D01*
X126216600Y-101981000D01*
X126470600Y-101930200D01*
X126775400Y-101625400D01*
X129213800Y-102539800D01*
G37*
X129213800Y-102539800D02*
X129213800Y-103352600D01*
X129086800Y-104114600D01*
X128782000Y-104698800D01*
X128324800Y-105181400D01*
X127740600Y-105562400D01*
X126572200Y-105943400D01*
X125886400Y-105968800D01*
X125276800Y-105791000D01*
X124768800Y-105537000D01*
X124337000Y-105105200D01*
X123905200Y-104394000D01*
X123702000Y-103809800D01*
X123625800Y-103251000D01*
X123625800Y-102616000D01*
X123727400Y-101981000D01*
X123841700Y-101714300D01*
X125734000Y-101727000D01*
X125962600Y-101904800D01*
X126216600Y-101981000D01*
X126470600Y-101930200D01*
X126775400Y-101625400D01*
X129213800Y-102539800D01*
X138053000Y-114071400D02*
G75*
G03*
X139069000Y-113055400I0J1016000D01*
G01*
X126115000Y-100711000D02*
X125734000Y-100939600D01*
X125886400Y-105968800D02*
X125276800Y-105791000D01*
X125378400Y-98983800D02*
X125530800Y-99593400D01*
G36*
X140720000Y-104292400D02*
G01*
X140720000Y-105054400D01*
X139069000Y-105435400D01*
X139069000Y-103784400D01*
X140720000Y-104292400D01*
G37*
X140720000Y-104292400D02*
X140720000Y-105054400D01*
X139069000Y-105435400D01*
X139069000Y-103784400D01*
X140720000Y-104292400D01*
X131830000Y-104902000D02*
X131830000Y-105283000D01*
G36*
X133519371Y-61123959D02*
G01*
X133898192Y-61123959D01*
X133898192Y-61592173D01*
X133519371Y-61592173D01*
X133519371Y-63052501D01*
X133521786Y-63085853D01*
X133531060Y-63118413D01*
X133547289Y-63142834D01*
X133575013Y-63161036D01*
X133606311Y-63167819D01*
X133618290Y-63168272D01*
X133865219Y-63168272D01*
X133865219Y-63563945D01*
X133387480Y-63563945D01*
X133347552Y-63562591D01*
X133310200Y-63558530D01*
X133275424Y-63551761D01*
X133243224Y-63542284D01*
X133213600Y-63530099D01*
X133186552Y-63515207D01*
X133162080Y-63497607D01*
X133140184Y-63477300D01*
X133120864Y-63454285D01*
X133104120Y-63428562D01*
X133089952Y-63400132D01*
X133078360Y-63368993D01*
X133069344Y-63335148D01*
X133062904Y-63298594D01*
X133059040Y-63259333D01*
X133057752Y-63217364D01*
X133057752Y-61592173D01*
X132695052Y-61592173D01*
X132695052Y-61123959D01*
X133057752Y-61123959D01*
X133057752Y-60200721D01*
X133519371Y-60200721D01*
X133519371Y-61123959D01*
G37*
G36*
X135650879Y-60695313D02*
G01*
X135189260Y-60695313D01*
X135189260Y-60200721D01*
X135650879Y-60200721D01*
X135650879Y-60695313D01*
G37*
G36*
X135650879Y-63563945D02*
G01*
X135189260Y-63563945D01*
X135189260Y-61123959D01*
X135650879Y-61123959D01*
X135650879Y-63563945D01*
G37*
G36*
X138211032Y-63563945D02*
G01*
X137749413Y-63563945D01*
X137749413Y-61618551D01*
X137748254Y-61589253D01*
X137743971Y-61559500D01*
X137735213Y-61531336D01*
X137718469Y-61504889D01*
X137716440Y-61502780D01*
X137693099Y-61483651D01*
X137666672Y-61469220D01*
X137637160Y-61459488D01*
X137604562Y-61454454D01*
X137584549Y-61453687D01*
X137547375Y-61456000D01*
X137510223Y-61462938D01*
X137473094Y-61474501D01*
X137445263Y-61486209D01*
X137417444Y-61500519D01*
X137389638Y-61517430D01*
X137361846Y-61536943D01*
X137334066Y-61559058D01*
X137306298Y-61583775D01*
X137287794Y-61601698D01*
X137287794Y-63563945D01*
X136826175Y-63563945D01*
X136826175Y-61123959D01*
X137287794Y-61123959D01*
X137287794Y-61238997D01*
X137316580Y-61221074D01*
X137345233Y-61204307D01*
X137373755Y-61188697D01*
X137402146Y-61174243D01*
X137430404Y-61160945D01*
X137458531Y-61148803D01*
X137486527Y-61137818D01*
X137514390Y-61127989D01*
X137555939Y-61115414D01*
X137597192Y-61105440D01*
X137638148Y-61098069D01*
X137678808Y-61093299D01*
X137719172Y-61091131D01*
X137732560Y-61090986D01*
X137771939Y-61091997D01*
X137809566Y-61095031D01*
X137845441Y-61100086D01*
X137879564Y-61107164D01*
X137911936Y-61116263D01*
X137942556Y-61127385D01*
X137971424Y-61140529D01*
X137998541Y-61155695D01*
X138023906Y-61172884D01*
X138047519Y-61192094D01*
X138062288Y-61206025D01*
X138088870Y-61234777D01*
X138112838Y-61265255D01*
X138134191Y-61297460D01*
X138152929Y-61331390D01*
X138169053Y-61367046D01*
X138182562Y-61404428D01*
X138193456Y-61443536D01*
X138201736Y-61484370D01*
X138207401Y-61526930D01*
X138209725Y-61556262D01*
X138210887Y-61586361D01*
X138211032Y-61601698D01*
X138211032Y-63563945D01*
G37*
G36*
X139617138Y-62458990D02*
G01*
X139979839Y-61123959D01*
X140474431Y-61123959D01*
X139683084Y-63745662D01*
X139670009Y-63785590D01*
X139655515Y-63822942D01*
X139639601Y-63857718D01*
X139622267Y-63889918D01*
X139603514Y-63919542D01*
X139583341Y-63946590D01*
X139561749Y-63971062D01*
X139538736Y-63992958D01*
X139514304Y-64012278D01*
X139488453Y-64029022D01*
X139461182Y-64043190D01*
X139432491Y-64054782D01*
X139402380Y-64063798D01*
X139370850Y-64070238D01*
X139337900Y-64074102D01*
X139303530Y-64075390D01*
X138874884Y-64075390D01*
X138874884Y-63695836D01*
X139056601Y-63695836D01*
X139086296Y-63695031D01*
X139118720Y-63691940D01*
X139147640Y-63686530D01*
X139176952Y-63677289D01*
X139204612Y-63662863D01*
X139226376Y-63642127D01*
X139244974Y-63614306D01*
X139260434Y-63584038D01*
X139272776Y-63555187D01*
X139285095Y-63522214D01*
X139297391Y-63485120D01*
X139303530Y-63465027D01*
X139386329Y-63184392D01*
X138775966Y-61123959D01*
X139270558Y-61123959D01*
X139617138Y-62458990D01*
G37*
G36*
X141731535Y-61091693D02*
G01*
X141763735Y-61093814D01*
X141795420Y-61097349D01*
X141826590Y-61102298D01*
X141857244Y-61108660D01*
X141887383Y-61116437D01*
X141917007Y-61125628D01*
X141946116Y-61136232D01*
X141974709Y-61148251D01*
X142002788Y-61161683D01*
X142030351Y-61176529D01*
X142057399Y-61192790D01*
X142083932Y-61210464D01*
X142109949Y-61229552D01*
X142135452Y-61250054D01*
X142160439Y-61271970D01*
X142179714Y-61242507D01*
X142200444Y-61215942D01*
X142222630Y-61192275D01*
X142246271Y-61171506D01*
X142271368Y-61153635D01*
X142297920Y-61138662D01*
X142325928Y-61126587D01*
X142355391Y-61117410D01*
X142386309Y-61111131D01*
X142418683Y-61107750D01*
X142441074Y-61107106D01*
X142638911Y-61107106D01*
X142638911Y-61436834D01*
X142507020Y-61436834D01*
X142472469Y-61438856D01*
X142441174Y-61444920D01*
X142413135Y-61455027D01*
X142383786Y-61472492D01*
X142359125Y-61495779D01*
X142342156Y-61519632D01*
X142353662Y-61553887D01*
X142363634Y-61590707D01*
X142370106Y-61620005D01*
X142375715Y-61650745D01*
X142380461Y-61682928D01*
X142384345Y-61716553D01*
X142387365Y-61751621D01*
X142389523Y-61788132D01*
X142390817Y-61826085D01*
X142391248Y-61865480D01*
X142390604Y-61910045D01*
X142388672Y-61953064D01*
X142385452Y-61994538D01*
X142380944Y-62034466D01*
X142375148Y-62072848D01*
X142368064Y-62109685D01*
X142359692Y-62144976D01*
X142350032Y-62178722D01*
X142339084Y-62210922D01*
X142326848Y-62241576D01*
X142313324Y-62270685D01*
X142298513Y-62298248D01*
X142282413Y-62324266D01*
X142265025Y-62348738D01*
X142246349Y-62371664D01*
X142226385Y-62393045D01*
X142203567Y-62415050D01*
X142180360Y-62435635D01*
X142156764Y-62454800D01*
X142132778Y-62472546D01*
X142108404Y-62488872D01*
X142071112Y-62510699D01*
X142032944Y-62529332D01*
X141993901Y-62544771D01*
X141953981Y-62557016D01*
X141913186Y-62566066D01*
X141871515Y-62571922D01*
X141828968Y-62574584D01*
X141814591Y-62574762D01*
X141781247Y-62574324D01*
X141749358Y-62573010D01*
X141718925Y-62570820D01*
X141680611Y-62566538D01*
X141644885Y-62560699D01*
X141611746Y-62553303D01*
X141581195Y-62544350D01*
X141553231Y-62533840D01*
X141533956Y-62524936D01*
X141505511Y-62546637D01*
X141481998Y-62568324D01*
X141458322Y-62597221D01*
X141443415Y-62626095D01*
X141437279Y-62654947D01*
X141441941Y-62690978D01*
X141455536Y-62719778D01*
X141477902Y-62748555D01*
X141484863Y-62755745D01*
X141510543Y-62776182D01*
X141536580Y-62791163D01*
X141568426Y-62805849D01*
X141606080Y-62820238D01*
X141634411Y-62829666D01*
X141665323Y-62838962D01*
X141698816Y-62848127D01*
X141734892Y-62857160D01*
X141773549Y-62866062D01*
X141814788Y-62874832D01*
X141858608Y-62883470D01*
X141905011Y-62891976D01*
X141953995Y-62900351D01*
X141979455Y-62904489D01*
X142029836Y-62912990D01*
X142078030Y-62922006D01*
X142124037Y-62931537D01*
X142167858Y-62941584D01*
X142209492Y-62952145D01*
X142248939Y-62963222D01*
X142286199Y-62974814D01*
X142321273Y-62986921D01*
X142354160Y-62999544D01*
X142384860Y-63012681D01*
X142413373Y-63026334D01*
X142439700Y-63040502D01*
X142475090Y-63062720D01*
X142505560Y-63086097D01*
X142523140Y-63102326D01*
X142546710Y-63127925D01*
X142567962Y-63155263D01*
X142586896Y-63184339D01*
X142603511Y-63215155D01*
X142617808Y-63247709D01*
X142629786Y-63282002D01*
X142639446Y-63318034D01*
X142646788Y-63355804D01*
X142651811Y-63395314D01*
X142654516Y-63436562D01*
X142655031Y-63465027D01*
X142653292Y-63505133D01*
X142648076Y-63544943D01*
X142639382Y-63584456D01*
X142627210Y-63623674D01*
X142611561Y-63662595D01*
X142592434Y-63701220D01*
X142577751Y-63726805D01*
X142561522Y-63752259D01*
X142543748Y-63777581D01*
X142524428Y-63802772D01*
X142503562Y-63827830D01*
X142481151Y-63852757D01*
X142457194Y-63877553D01*
X142431305Y-63901510D01*
X142403098Y-63923921D01*
X142372572Y-63944786D01*
X142339728Y-63964106D01*
X142304566Y-63981881D01*
X142267085Y-63998110D01*
X142227286Y-64012793D01*
X142185169Y-64025930D01*
X142140733Y-64037522D01*
X142093978Y-64047569D01*
X142044905Y-64056070D01*
X141993514Y-64063025D01*
X141939805Y-64068434D01*
X141883777Y-64072298D01*
X141825430Y-64074617D01*
X141795388Y-64075196D01*
X141764766Y-64075390D01*
X141735212Y-64075229D01*
X141677939Y-64073941D01*
X141623111Y-64071365D01*
X141570726Y-64067501D01*
X141520786Y-64062349D01*
X141473291Y-64055909D01*
X141428239Y-64048181D01*
X141385632Y-64039165D01*
X141345470Y-64028861D01*
X141307751Y-64017269D01*
X141272477Y-64004389D01*
X141239647Y-63990221D01*
X141209262Y-63974765D01*
X141181321Y-63958021D01*
X141155824Y-63939989D01*
X141132772Y-63920669D01*
X141122163Y-63910526D01*
X141092700Y-63879176D01*
X141066135Y-63846950D01*
X141042468Y-63813848D01*
X141021699Y-63779871D01*
X141003828Y-63745018D01*
X140988855Y-63709289D01*
X140976780Y-63672684D01*
X140967603Y-63635203D01*
X140961324Y-63596846D01*
X140957943Y-63557614D01*
X140957299Y-63530972D01*
X140958329Y-63498257D01*
X140961420Y-63466057D01*
X140964328Y-63448174D01*
X141385945Y-63448174D01*
X141389274Y-63489553D01*
X141399263Y-63526862D01*
X141415910Y-63560101D01*
X141439217Y-63589270D01*
X141469182Y-63614369D01*
X141505806Y-63635398D01*
X141533922Y-63647156D01*
X141564997Y-63657105D01*
X141599032Y-63665245D01*
X141636026Y-63671576D01*
X141675979Y-63676098D01*
X141718893Y-63678812D01*
X141764766Y-63679716D01*
X141818713Y-63678941D01*
X141869179Y-63676614D01*
X141916166Y-63672735D01*
X141959671Y-63667306D01*
X141999697Y-63660325D01*
X142036241Y-63651792D01*
X142069306Y-63641709D01*
X142098890Y-63630074D01*
X142136740Y-63609713D01*
X142166759Y-63585861D01*
X142188947Y-63558519D01*
X142203304Y-63527686D01*
X142209829Y-63493363D01*
X142210265Y-63481147D01*
X142209048Y-63451451D01*
X142204377Y-63419028D01*
X142196202Y-63390108D01*
X142182238Y-63360796D01*
X142163504Y-63336253D01*
X142160439Y-63333136D01*
X142132962Y-63312447D01*
X142103217Y-63296946D01*
X142065642Y-63281458D01*
X142036241Y-63271140D01*
X142003360Y-63260827D01*
X141966999Y-63250520D01*
X141927157Y-63240219D01*
X141883834Y-63229924D01*
X141837031Y-63219634D01*
X141786747Y-63209350D01*
X141732983Y-63199072D01*
X141675739Y-63188800D01*
X141645812Y-63183665D01*
X141615014Y-63178533D01*
X141583347Y-63173401D01*
X141550809Y-63168272D01*
X141521346Y-63187540D01*
X141494781Y-63208251D01*
X141471114Y-63230405D01*
X141450345Y-63254001D01*
X141432474Y-63279040D01*
X141417501Y-63305521D01*
X141405426Y-63333445D01*
X141396249Y-63362811D01*
X141389970Y-63393620D01*
X141386589Y-63425872D01*
X141385945Y-63448174D01*
X140964328Y-63448174D01*
X140966572Y-63434372D01*
X140973785Y-63403203D01*
X140983059Y-63372548D01*
X140994393Y-63342409D01*
X141007788Y-63312785D01*
X141023244Y-63283676D01*
X141040761Y-63255083D01*
X141060339Y-63227004D01*
X141081977Y-63199441D01*
X141105676Y-63172393D01*
X141131436Y-63145860D01*
X141159257Y-63119843D01*
X141189139Y-63094340D01*
X141221081Y-63069353D01*
X141182714Y-63052238D01*
X141148120Y-63031941D01*
X141117300Y-63008463D01*
X141090255Y-62981804D01*
X141066983Y-62951963D01*
X141047484Y-62918941D01*
X141031760Y-62882737D01*
X141019810Y-62843352D01*
X141011633Y-62800786D01*
X141008278Y-62770641D01*
X141006601Y-62739082D01*
X141006392Y-62722773D01*
X141008710Y-62688690D01*
X141015665Y-62654311D01*
X141027257Y-62619636D01*
X141043486Y-62584665D01*
X141064351Y-62549397D01*
X141089854Y-62513833D01*
X141109431Y-62489960D01*
X141131070Y-62465954D01*
X141154769Y-62441817D01*
X141180529Y-62417548D01*
X141208350Y-62393148D01*
X141238231Y-62368616D01*
X141270174Y-62343952D01*
X141246217Y-62316666D01*
X141223806Y-62288482D01*
X141202940Y-62259399D01*
X141183620Y-62229417D01*
X141165846Y-62198537D01*
X141149617Y-62166758D01*
X141134934Y-62134080D01*
X141121796Y-62100503D01*
X141110204Y-62066028D01*
X141100158Y-62030653D01*
X141091657Y-61994380D01*
X141084702Y-61957209D01*
X141079292Y-61919138D01*
X141075428Y-61880169D01*
X141073110Y-61840301D01*
X141072962Y-61832508D01*
X141517836Y-61832508D01*
X141518672Y-61874476D01*
X141521179Y-61913737D01*
X141525358Y-61950291D01*
X141531208Y-61984137D01*
X141538730Y-62015275D01*
X141547924Y-62043705D01*
X141564848Y-62081274D01*
X141585533Y-62112750D01*
X141609980Y-62138135D01*
X141638187Y-62157427D01*
X141670155Y-62170627D01*
X141705884Y-62177734D01*
X141731793Y-62179088D01*
X141770160Y-62176042D01*
X141804754Y-62166904D01*
X141835573Y-62151673D01*
X141862619Y-62130350D01*
X141885891Y-62102935D01*
X141905389Y-62069428D01*
X141921114Y-62029828D01*
X141929500Y-62000044D01*
X141936209Y-61967552D01*
X141941241Y-61932353D01*
X141944595Y-61894445D01*
X141946273Y-61853830D01*
X141946482Y-61832508D01*
X141945644Y-61790628D01*
X141943128Y-61751449D01*
X141938935Y-61714973D01*
X141933064Y-61681199D01*
X141925516Y-61650127D01*
X141916292Y-61621756D01*
X141899309Y-61584267D01*
X141878553Y-61552857D01*
X141854023Y-61527526D01*
X141825719Y-61508275D01*
X141793642Y-61495103D01*
X141757790Y-61488011D01*
X141731793Y-61486660D01*
X141693556Y-61489699D01*
X141659081Y-61498818D01*
X141628366Y-61514017D01*
X141601413Y-61535295D01*
X141578220Y-61562652D01*
X141558789Y-61596088D01*
X141543118Y-61635604D01*
X141534760Y-61665325D01*
X141528074Y-61697748D01*
X141523060Y-61732874D01*
X141519717Y-61770701D01*
X141518045Y-61811230D01*
X141517836Y-61832508D01*
X141072962Y-61832508D01*
X141072337Y-61799535D01*
X141073110Y-61758834D01*
X141075428Y-61719164D01*
X141079292Y-61680524D01*
X141084702Y-61642914D01*
X141091657Y-61606335D01*
X141100158Y-61570786D01*
X141110204Y-61536268D01*
X141121796Y-61502780D01*
X141134934Y-61470322D01*
X141149617Y-61438895D01*
X141165846Y-61408498D01*
X141183620Y-61379132D01*
X141202940Y-61350796D01*
X141223806Y-61323490D01*
X141246217Y-61297215D01*
X141270174Y-61271970D01*
X141293143Y-61250054D01*
X141316622Y-61229552D01*
X141340610Y-61210464D01*
X141365108Y-61192790D01*
X141390115Y-61176529D01*
X141415632Y-61161683D01*
X141454862Y-61142065D01*
X141495239Y-61125628D01*
X141536762Y-61112372D01*
X141579431Y-61102298D01*
X141608514Y-61097349D01*
X141638107Y-61093814D01*
X141668209Y-61091693D01*
X141698820Y-61090986D01*
X141731535Y-61091693D01*
G37*
G36*
X143854779Y-61107750D02*
G01*
X143894063Y-61109682D01*
X143932059Y-61112902D01*
X143968767Y-61117410D01*
X144004187Y-61123206D01*
X144038319Y-61130290D01*
X144071163Y-61138662D01*
X144102719Y-61148322D01*
X144132987Y-61159270D01*
X144161967Y-61171506D01*
X144189659Y-61185030D01*
X144216063Y-61199842D01*
X144241179Y-61215942D01*
X144265007Y-61233330D01*
X144298334Y-61261827D01*
X144308799Y-61271970D01*
X144330715Y-61295197D01*
X144351217Y-61319449D01*
X144370305Y-61344725D01*
X144387980Y-61371026D01*
X144404240Y-61398352D01*
X144419086Y-61426702D01*
X144432519Y-61456077D01*
X144444537Y-61486476D01*
X144455142Y-61517901D01*
X144464332Y-61550350D01*
X144472109Y-61583823D01*
X144478472Y-61618322D01*
X144483420Y-61653845D01*
X144486955Y-61690393D01*
X144489076Y-61727965D01*
X144489783Y-61766562D01*
X144489783Y-62937462D01*
X144489076Y-62976059D01*
X144486955Y-63013632D01*
X144483420Y-63050179D01*
X144478472Y-63085702D01*
X144472109Y-63120201D01*
X144464332Y-63153674D01*
X144455142Y-63186123D01*
X144444537Y-63217548D01*
X144432519Y-63247947D01*
X144419086Y-63277322D01*
X144404240Y-63305673D01*
X144387980Y-63332998D01*
X144370305Y-63359299D01*
X144351217Y-63384575D01*
X144330715Y-63408827D01*
X144308799Y-63432054D01*
X144276438Y-63461517D01*
X144253254Y-63479549D01*
X144228782Y-63496293D01*
X144203022Y-63511749D01*
X144175974Y-63525917D01*
X144147638Y-63538797D01*
X144118014Y-63550389D01*
X144087102Y-63560693D01*
X144054902Y-63569709D01*
X144021414Y-63577437D01*
X143986638Y-63583877D01*
X143950574Y-63589029D01*
X143913222Y-63592893D01*
X143874582Y-63595469D01*
X143834654Y-63596757D01*
X143814207Y-63596918D01*
X143773635Y-63596274D01*
X143734351Y-63594342D01*
X143696355Y-63591122D01*
X143659647Y-63586614D01*
X143624227Y-63580818D01*
X143590095Y-63573734D01*
X143557251Y-63565362D01*
X143525695Y-63555702D01*
X143495427Y-63544754D01*
X143466447Y-63532518D01*
X143438755Y-63518994D01*
X143412351Y-63504182D01*
X143387235Y-63488082D01*
X143363408Y-63470694D01*
X143330081Y-63442197D01*
X143319616Y-63432054D01*
X143297611Y-63408827D01*
X143277026Y-63384575D01*
X143257860Y-63359299D01*
X143240114Y-63332998D01*
X143223788Y-63305673D01*
X143208882Y-63277322D01*
X143195395Y-63247947D01*
X143183328Y-63217548D01*
X143172681Y-63186123D01*
X143163453Y-63153674D01*
X143155645Y-63120201D01*
X143149256Y-63085702D01*
X143144287Y-63050179D01*
X143140738Y-63013632D01*
X143139204Y-62986555D01*
X143599518Y-62986555D01*
X143601128Y-63016662D01*
X143607310Y-63050665D01*
X143618129Y-63082350D01*
X143633585Y-63111716D01*
X143653678Y-63138764D01*
X143665463Y-63151419D01*
X143689611Y-63170833D01*
X143718457Y-63185479D01*
X143746922Y-63194238D01*
X143778839Y-63199493D01*
X143814207Y-63201244D01*
X143843903Y-63200028D01*
X143876326Y-63195357D01*
X143905246Y-63187182D01*
X143934558Y-63173218D01*
X143959101Y-63154484D01*
X143962218Y-63151419D01*
X143984630Y-63125530D01*
X144002404Y-63097323D01*
X144015542Y-63066797D01*
X144024042Y-63033953D01*
X144027584Y-63004812D01*
X144028164Y-62986555D01*
X144028164Y-61717469D01*
X144026554Y-61687362D01*
X144020372Y-61653359D01*
X144009552Y-61621674D01*
X143994096Y-61592308D01*
X143974004Y-61565260D01*
X143962218Y-61552605D01*
X143938356Y-61533191D01*
X143909725Y-61518545D01*
X143881389Y-61509786D01*
X143849550Y-61504531D01*
X143814207Y-61502780D01*
X143784494Y-61503996D01*
X143752002Y-61508667D01*
X143722962Y-61516842D01*
X143693444Y-61530807D01*
X143668625Y-61549540D01*
X143665463Y-61552605D01*
X143643052Y-61578494D01*
X143625278Y-61606701D01*
X143612140Y-61637227D01*
X143603639Y-61670071D01*
X143600097Y-61699212D01*
X143599518Y-61717469D01*
X143599518Y-62986555D01*
X143139204Y-62986555D01*
X143138609Y-62976059D01*
X143137899Y-62937462D01*
X143137899Y-61766562D01*
X143138609Y-61727965D01*
X143140738Y-61690393D01*
X143144287Y-61653845D01*
X143149256Y-61618322D01*
X143155645Y-61583823D01*
X143163453Y-61550350D01*
X143172681Y-61517901D01*
X143183328Y-61486476D01*
X143195395Y-61456077D01*
X143208882Y-61426702D01*
X143223788Y-61398352D01*
X143240114Y-61371026D01*
X143257860Y-61344725D01*
X143277026Y-61319449D01*
X143297611Y-61295197D01*
X143319616Y-61271970D01*
X143351977Y-61242507D01*
X143375160Y-61224475D01*
X143399632Y-61207731D01*
X143425392Y-61192275D01*
X143452440Y-61178107D01*
X143480776Y-61165227D01*
X143510400Y-61153635D01*
X143541312Y-61143331D01*
X143573512Y-61134315D01*
X143607000Y-61126587D01*
X143641776Y-61120147D01*
X143677840Y-61114995D01*
X143715192Y-61111131D01*
X143753832Y-61108555D01*
X143793760Y-61107267D01*
X143814207Y-61107106D01*
X143854779Y-61107750D01*
G37*
G36*
X146819127Y-62234775D02*
G01*
X145005624Y-62234775D01*
X145005624Y-61766562D01*
X146819127Y-61766562D01*
X146819127Y-62234775D01*
G37*
G36*
X147598750Y-62343952D02*
G01*
X147796587Y-61123959D01*
X148225233Y-61123959D01*
X148423070Y-62343952D01*
X148620907Y-61123959D01*
X149066405Y-61123959D01*
X148620907Y-63563945D01*
X148225233Y-63563945D01*
X147994424Y-62294127D01*
X147813440Y-63563945D01*
X147417766Y-63563945D01*
X146972267Y-61123959D01*
X147400913Y-61123959D01*
X147598750Y-62343952D01*
G37*
G36*
X150340620Y-60695313D02*
G01*
X149879001Y-60695313D01*
X149879001Y-60200721D01*
X150340620Y-60200721D01*
X150340620Y-60695313D01*
G37*
G36*
X150340620Y-63563945D02*
G01*
X149879001Y-63563945D01*
X149879001Y-61123959D01*
X150340620Y-61123959D01*
X150340620Y-63563945D01*
G37*
G36*
X152248917Y-61107750D02*
G01*
X152288201Y-61109682D01*
X152326197Y-61112902D01*
X152362905Y-61117410D01*
X152398325Y-61123206D01*
X152432457Y-61130290D01*
X152465301Y-61138662D01*
X152496857Y-61148322D01*
X152527125Y-61159270D01*
X152556105Y-61171506D01*
X152583797Y-61185030D01*
X152610201Y-61199842D01*
X152635317Y-61215942D01*
X152659145Y-61233330D01*
X152692472Y-61261827D01*
X152702937Y-61271970D01*
X152724853Y-61295197D01*
X152745355Y-61319449D01*
X152764443Y-61344725D01*
X152782118Y-61371026D01*
X152798378Y-61398352D01*
X152813224Y-61426702D01*
X152826657Y-61456077D01*
X152838675Y-61486476D01*
X152849280Y-61517901D01*
X152858470Y-61550350D01*
X152866247Y-61583823D01*
X152872610Y-61618322D01*
X152877558Y-61653845D01*
X152881093Y-61690393D01*
X152883214Y-61727965D01*
X152883921Y-61766562D01*
X152883921Y-62937462D01*
X152883214Y-62976059D01*
X152881093Y-63013632D01*
X152877558Y-63050179D01*
X152872610Y-63085702D01*
X152866247Y-63120201D01*
X152858470Y-63153674D01*
X152849280Y-63186123D01*
X152838675Y-63217548D01*
X152826657Y-63247947D01*
X152813224Y-63277322D01*
X152798378Y-63305673D01*
X152782118Y-63332998D01*
X152764443Y-63359299D01*
X152745355Y-63384575D01*
X152724853Y-63408827D01*
X152702937Y-63432054D01*
X152670576Y-63461517D01*
X152647392Y-63479549D01*
X152622920Y-63496293D01*
X152597160Y-63511749D01*
X152570112Y-63525917D01*
X152541776Y-63538797D01*
X152512152Y-63550389D01*
X152481240Y-63560693D01*
X152449040Y-63569709D01*
X152415552Y-63577437D01*
X152380776Y-63583877D01*
X152344712Y-63589029D01*
X152307360Y-63592893D01*
X152268720Y-63595469D01*
X152228792Y-63596757D01*
X152208345Y-63596918D01*
X152167773Y-63596274D01*
X152128489Y-63594342D01*
X152090494Y-63591122D01*
X152053786Y-63586614D01*
X152018366Y-63580818D01*
X151984234Y-63573734D01*
X151951390Y-63565362D01*
X151919834Y-63555702D01*
X151889566Y-63544754D01*
X151860586Y-63532518D01*
X151832894Y-63518994D01*
X151806490Y-63504182D01*
X151781374Y-63488082D01*
X151757546Y-63470694D01*
X151724219Y-63442197D01*
X151713754Y-63432054D01*
X151691749Y-63408827D01*
X151671164Y-63384575D01*
X151651998Y-63359299D01*
X151634253Y-63332998D01*
X151617927Y-63305673D01*
X151603020Y-63277322D01*
X151589533Y-63247947D01*
X151577466Y-63217548D01*
X151566819Y-63186123D01*
X151557591Y-63153674D01*
X151549783Y-63120201D01*
X151543394Y-63085702D01*
X151538425Y-63050179D01*
X151534876Y-63013632D01*
X151533342Y-62986555D01*
X151993656Y-62986555D01*
X151995266Y-63016662D01*
X152001448Y-63050665D01*
X152012268Y-63082350D01*
X152027724Y-63111716D01*
X152047816Y-63138764D01*
X152059602Y-63151419D01*
X152083749Y-63170833D01*
X152112596Y-63185479D01*
X152141060Y-63194238D01*
X152172977Y-63199493D01*
X152208345Y-63201244D01*
X152238041Y-63200028D01*
X152270464Y-63195357D01*
X152299384Y-63187182D01*
X152328696Y-63173218D01*
X152353240Y-63154484D01*
X152356357Y-63151419D01*
X152378768Y-63125530D01*
X152396542Y-63097323D01*
X152409680Y-63066797D01*
X152418181Y-63033953D01*
X152421723Y-63004812D01*
X152422302Y-62986555D01*
X152422302Y-61717469D01*
X152420692Y-61687362D01*
X152414510Y-61653359D01*
X152403691Y-61621674D01*
X152388235Y-61592308D01*
X152368142Y-61565260D01*
X152356357Y-61552605D01*
X152332494Y-61533191D01*
X152303863Y-61518545D01*
X152275528Y-61509786D01*
X152243688Y-61504531D01*
X152208345Y-61502780D01*
X152178632Y-61503996D01*
X152146140Y-61508667D01*
X152117100Y-61516842D01*
X152087583Y-61530807D01*
X152062764Y-61549540D01*
X152059602Y-61552605D01*
X152037190Y-61578494D01*
X152019416Y-61606701D01*
X152006278Y-61637227D01*
X151997778Y-61670071D01*
X151994236Y-61699212D01*
X151993656Y-61717469D01*
X151993656Y-62986555D01*
X151533342Y-62986555D01*
X151532747Y-62976059D01*
X151532037Y-62937462D01*
X151532037Y-61766562D01*
X151532747Y-61727965D01*
X151534876Y-61690393D01*
X151538425Y-61653845D01*
X151543394Y-61618322D01*
X151549783Y-61583823D01*
X151557591Y-61550350D01*
X151566819Y-61517901D01*
X151577466Y-61486476D01*
X151589533Y-61456077D01*
X151603020Y-61426702D01*
X151617927Y-61398352D01*
X151634253Y-61371026D01*
X151651998Y-61344725D01*
X151671164Y-61319449D01*
X151691749Y-61295197D01*
X151713754Y-61271970D01*
X151746115Y-61242507D01*
X151769299Y-61224475D01*
X151793771Y-61207731D01*
X151819531Y-61192275D01*
X151846579Y-61178107D01*
X151874915Y-61165227D01*
X151904539Y-61153635D01*
X151935451Y-61143331D01*
X151967651Y-61134315D01*
X152001139Y-61126587D01*
X152035915Y-61120147D01*
X152071979Y-61114995D01*
X152109331Y-61111131D01*
X152147970Y-61108555D01*
X152187898Y-61107267D01*
X152208345Y-61107106D01*
X152248917Y-61107750D01*
G37*
G36*
X154076071Y-61799535D02*
G01*
X154586782Y-61123959D01*
X155114347Y-61123959D01*
X154504717Y-61964399D01*
X155180292Y-63563945D01*
X154685701Y-63563945D01*
X154191109Y-62376925D01*
X154076071Y-62508816D01*
X154076071Y-63563945D01*
X153614452Y-63563945D01*
X153614452Y-60200721D01*
X154076071Y-60200721D01*
X154076071Y-61799535D01*
G37*
G36*
X156442057Y-61107816D02*
G01*
X156477794Y-61109946D01*
X156512628Y-61113495D01*
X156546556Y-61118464D01*
X156579581Y-61124852D01*
X156611701Y-61132660D01*
X156642916Y-61141888D01*
X156673227Y-61152535D01*
X156702633Y-61164603D01*
X156731135Y-61178089D01*
X156758733Y-61192996D01*
X156785426Y-61209322D01*
X156811214Y-61227068D01*
X156836099Y-61246233D01*
X156860078Y-61266818D01*
X156883154Y-61288823D01*
X156907110Y-61313939D01*
X156929522Y-61339828D01*
X156950387Y-61366489D01*
X156969707Y-61393924D01*
X156987482Y-61422131D01*
X157003710Y-61451111D01*
X157018393Y-61480864D01*
X157031531Y-61511389D01*
X157043123Y-61542688D01*
X157053169Y-61574759D01*
X157061670Y-61607603D01*
X157068625Y-61641220D01*
X157074035Y-61675609D01*
X157077899Y-61710772D01*
X157080217Y-61746707D01*
X157080990Y-61783415D01*
X157080990Y-62426018D01*
X156190725Y-62426018D01*
X156190725Y-62970435D01*
X156192335Y-63000542D01*
X156198517Y-63034545D01*
X156209337Y-63066230D01*
X156224793Y-63095596D01*
X156244885Y-63122644D01*
X156256671Y-63135299D01*
X156280818Y-63154428D01*
X156309665Y-63168858D01*
X156338129Y-63177488D01*
X156370046Y-63182666D01*
X156405415Y-63184392D01*
X156435110Y-63183193D01*
X156467533Y-63178591D01*
X156496453Y-63170536D01*
X156525765Y-63156777D01*
X156550309Y-63138319D01*
X156553426Y-63135299D01*
X156575837Y-63109410D01*
X156593611Y-63081203D01*
X156606749Y-63050677D01*
X156615250Y-63017833D01*
X156618792Y-62988692D01*
X156619371Y-62970435D01*
X156619371Y-62706653D01*
X157080990Y-62706653D01*
X157080990Y-62937462D01*
X157080283Y-62976059D01*
X157078162Y-63013632D01*
X157074628Y-63050179D01*
X157069679Y-63085702D01*
X157063316Y-63120201D01*
X157055539Y-63153674D01*
X157046349Y-63186123D01*
X157035744Y-63217548D01*
X157023726Y-63247947D01*
X157010293Y-63277322D01*
X156995447Y-63305673D01*
X156979187Y-63332998D01*
X156961513Y-63359299D01*
X156942424Y-63384575D01*
X156921922Y-63408827D01*
X156900006Y-63432054D01*
X156870384Y-63461517D01*
X156837298Y-63488082D01*
X156800747Y-63511749D01*
X156774454Y-63525917D01*
X156746622Y-63538797D01*
X156717250Y-63550389D01*
X156686338Y-63560693D01*
X156653886Y-63569709D01*
X156619894Y-63577437D01*
X156584363Y-63583877D01*
X156547291Y-63589029D01*
X156508680Y-63592893D01*
X156468529Y-63595469D01*
X156426838Y-63596757D01*
X156405415Y-63596918D01*
X156364843Y-63596274D01*
X156325559Y-63594342D01*
X156287563Y-63591122D01*
X156250855Y-63586614D01*
X156215435Y-63580818D01*
X156181303Y-63573734D01*
X156148459Y-63565362D01*
X156116903Y-63555702D01*
X156086635Y-63544754D01*
X156057655Y-63532518D01*
X156029963Y-63518994D01*
X156003559Y-63504182D01*
X155978443Y-63488082D01*
X155954615Y-63470694D01*
X155921288Y-63442197D01*
X155910823Y-63432054D01*
X155888818Y-63408827D01*
X155868233Y-63384575D01*
X155849068Y-63359299D01*
X155831322Y-63332998D01*
X155814996Y-63305673D01*
X155800089Y-63277322D01*
X155786602Y-63247947D01*
X155774535Y-63217548D01*
X155763888Y-63186123D01*
X155754660Y-63153674D01*
X155746852Y-63120201D01*
X155740463Y-63085702D01*
X155735495Y-63050179D01*
X155731945Y-63013632D01*
X155729816Y-62976059D01*
X155729106Y-62937462D01*
X155729106Y-62030344D01*
X156190725Y-62030344D01*
X156619371Y-62030344D01*
X156619371Y-61733589D01*
X156617761Y-61703482D01*
X156611579Y-61669479D01*
X156600760Y-61637794D01*
X156585304Y-61608428D01*
X156565211Y-61581380D01*
X156553426Y-61568725D01*
X156529563Y-61549596D01*
X156500933Y-61535166D01*
X156472597Y-61526536D01*
X156440757Y-61521358D01*
X156405415Y-61519632D01*
X156375701Y-61520831D01*
X156343209Y-61525433D01*
X156314169Y-61533488D01*
X156284652Y-61547247D01*
X156259833Y-61565705D01*
X156256671Y-61568725D01*
X156234259Y-61594047D01*
X156216485Y-61620554D01*
X156203347Y-61648246D01*
X156194847Y-61677123D01*
X156190983Y-61707185D01*
X156190725Y-61717469D01*
X156190725Y-62030344D01*
X155729106Y-62030344D01*
X155729106Y-61783415D01*
X155729879Y-61746707D01*
X155732197Y-61710772D01*
X155736061Y-61675609D01*
X155741471Y-61641220D01*
X155748426Y-61607603D01*
X155756927Y-61574759D01*
X155766973Y-61542688D01*
X155778565Y-61511389D01*
X155791703Y-61480864D01*
X155806386Y-61451111D01*
X155822615Y-61422131D01*
X155840389Y-61393924D01*
X155859709Y-61366489D01*
X155880575Y-61339828D01*
X155902986Y-61313939D01*
X155926943Y-61288823D01*
X155950107Y-61266818D01*
X155974169Y-61246233D01*
X155999131Y-61227068D01*
X156024991Y-61209322D01*
X156051750Y-61192996D01*
X156079408Y-61178089D01*
X156107964Y-61164603D01*
X156137419Y-61152535D01*
X156167773Y-61141888D01*
X156199026Y-61132660D01*
X156231177Y-61124852D01*
X156264227Y-61118464D01*
X156298176Y-61113495D01*
X156333023Y-61109946D01*
X156368770Y-61107816D01*
X156405415Y-61107106D01*
X156442057Y-61107816D01*
G37*
G36*
X158503949Y-62458990D02*
G01*
X158866650Y-61123959D01*
X159361241Y-61123959D01*
X158569895Y-63745662D01*
X158556820Y-63785590D01*
X158542326Y-63822942D01*
X158526412Y-63857718D01*
X158509078Y-63889918D01*
X158490325Y-63919542D01*
X158470152Y-63946590D01*
X158448559Y-63971062D01*
X158425547Y-63992958D01*
X158401115Y-64012278D01*
X158375264Y-64029022D01*
X158347992Y-64043190D01*
X158319301Y-64054782D01*
X158289191Y-64063798D01*
X158257661Y-64070238D01*
X158224711Y-64074102D01*
X158190341Y-64075390D01*
X157761695Y-64075390D01*
X157761695Y-63695836D01*
X157943412Y-63695836D01*
X157973107Y-63695031D01*
X158005531Y-63691940D01*
X158034450Y-63686530D01*
X158063762Y-63677289D01*
X158091423Y-63662863D01*
X158113187Y-63642127D01*
X158131785Y-63614306D01*
X158147245Y-63584038D01*
X158159587Y-63555187D01*
X158171906Y-63522214D01*
X158184202Y-63485120D01*
X158190341Y-63465027D01*
X158273140Y-63184392D01*
X157662777Y-61123959D01*
X158157368Y-61123959D01*
X158503949Y-62458990D01*
G37*
D11*
%TO.C,U2*%
X188418095Y-114307380D02*
X188418095Y-115116904D01*
X188418095Y-115116904D02*
X188465714Y-115212142D01*
X188465714Y-115212142D02*
X188513333Y-115259761D01*
X188513333Y-115259761D02*
X188608571Y-115307380D01*
X188608571Y-115307380D02*
X188799047Y-115307380D01*
X188799047Y-115307380D02*
X188894285Y-115259761D01*
X188894285Y-115259761D02*
X188941904Y-115212142D01*
X188941904Y-115212142D02*
X188989523Y-115116904D01*
X188989523Y-115116904D02*
X188989523Y-114307380D01*
X189418095Y-114402619D02*
X189465714Y-114355000D01*
X189465714Y-114355000D02*
X189560952Y-114307380D01*
X189560952Y-114307380D02*
X189799047Y-114307380D01*
X189799047Y-114307380D02*
X189894285Y-114355000D01*
X189894285Y-114355000D02*
X189941904Y-114402619D01*
X189941904Y-114402619D02*
X189989523Y-114497857D01*
X189989523Y-114497857D02*
X189989523Y-114593095D01*
X189989523Y-114593095D02*
X189941904Y-114735952D01*
X189941904Y-114735952D02*
X189370476Y-115307380D01*
X189370476Y-115307380D02*
X189989523Y-115307380D01*
X194402857Y-100887380D02*
X195021904Y-100887380D01*
X195021904Y-100887380D02*
X194688571Y-101268333D01*
X194688571Y-101268333D02*
X194831428Y-101268333D01*
X194831428Y-101268333D02*
X194926666Y-101315952D01*
X194926666Y-101315952D02*
X194974285Y-101363571D01*
X194974285Y-101363571D02*
X195021904Y-101458809D01*
X195021904Y-101458809D02*
X195021904Y-101696904D01*
X195021904Y-101696904D02*
X194974285Y-101792142D01*
X194974285Y-101792142D02*
X194926666Y-101839761D01*
X194926666Y-101839761D02*
X194831428Y-101887380D01*
X194831428Y-101887380D02*
X194545714Y-101887380D01*
X194545714Y-101887380D02*
X194450476Y-101839761D01*
X194450476Y-101839761D02*
X194402857Y-101792142D01*
X195974285Y-101887380D02*
X195402857Y-101887380D01*
X195688571Y-101887380D02*
X195688571Y-100887380D01*
X195688571Y-100887380D02*
X195593333Y-101030238D01*
X195593333Y-101030238D02*
X195498095Y-101125476D01*
X195498095Y-101125476D02*
X195402857Y-101173095D01*
X183004761Y-65327380D02*
X182528571Y-65327380D01*
X182528571Y-65327380D02*
X182480952Y-65803571D01*
X182480952Y-65803571D02*
X182528571Y-65755952D01*
X182528571Y-65755952D02*
X182623809Y-65708333D01*
X182623809Y-65708333D02*
X182861904Y-65708333D01*
X182861904Y-65708333D02*
X182957142Y-65755952D01*
X182957142Y-65755952D02*
X183004761Y-65803571D01*
X183004761Y-65803571D02*
X183052380Y-65898809D01*
X183052380Y-65898809D02*
X183052380Y-66136904D01*
X183052380Y-66136904D02*
X183004761Y-66232142D01*
X183004761Y-66232142D02*
X182957142Y-66279761D01*
X182957142Y-66279761D02*
X182861904Y-66327380D01*
X182861904Y-66327380D02*
X182623809Y-66327380D01*
X182623809Y-66327380D02*
X182528571Y-66279761D01*
X182528571Y-66279761D02*
X182480952Y-66232142D01*
X183338095Y-65327380D02*
X183671428Y-66327380D01*
X183671428Y-66327380D02*
X184004761Y-65327380D01*
X194402857Y-83107380D02*
X195021904Y-83107380D01*
X195021904Y-83107380D02*
X194688571Y-83488333D01*
X194688571Y-83488333D02*
X194831428Y-83488333D01*
X194831428Y-83488333D02*
X194926666Y-83535952D01*
X194926666Y-83535952D02*
X194974285Y-83583571D01*
X194974285Y-83583571D02*
X195021904Y-83678809D01*
X195021904Y-83678809D02*
X195021904Y-83916904D01*
X195021904Y-83916904D02*
X194974285Y-84012142D01*
X194974285Y-84012142D02*
X194926666Y-84059761D01*
X194926666Y-84059761D02*
X194831428Y-84107380D01*
X194831428Y-84107380D02*
X194545714Y-84107380D01*
X194545714Y-84107380D02*
X194450476Y-84059761D01*
X194450476Y-84059761D02*
X194402857Y-84012142D01*
X195307619Y-83107380D02*
X195640952Y-84107380D01*
X195640952Y-84107380D02*
X195974285Y-83107380D01*
X182814285Y-85695000D02*
X182719047Y-85647380D01*
X182719047Y-85647380D02*
X182576190Y-85647380D01*
X182576190Y-85647380D02*
X182433333Y-85695000D01*
X182433333Y-85695000D02*
X182338095Y-85790238D01*
X182338095Y-85790238D02*
X182290476Y-85885476D01*
X182290476Y-85885476D02*
X182242857Y-86075952D01*
X182242857Y-86075952D02*
X182242857Y-86218809D01*
X182242857Y-86218809D02*
X182290476Y-86409285D01*
X182290476Y-86409285D02*
X182338095Y-86504523D01*
X182338095Y-86504523D02*
X182433333Y-86599761D01*
X182433333Y-86599761D02*
X182576190Y-86647380D01*
X182576190Y-86647380D02*
X182671428Y-86647380D01*
X182671428Y-86647380D02*
X182814285Y-86599761D01*
X182814285Y-86599761D02*
X182861904Y-86552142D01*
X182861904Y-86552142D02*
X182861904Y-86218809D01*
X182861904Y-86218809D02*
X182671428Y-86218809D01*
X183290476Y-86647380D02*
X183290476Y-85647380D01*
X183290476Y-85647380D02*
X183861904Y-86647380D01*
X183861904Y-86647380D02*
X183861904Y-85647380D01*
X194402857Y-105967380D02*
X195021904Y-105967380D01*
X195021904Y-105967380D02*
X194688571Y-106348333D01*
X194688571Y-106348333D02*
X194831428Y-106348333D01*
X194831428Y-106348333D02*
X194926666Y-106395952D01*
X194926666Y-106395952D02*
X194974285Y-106443571D01*
X194974285Y-106443571D02*
X195021904Y-106538809D01*
X195021904Y-106538809D02*
X195021904Y-106776904D01*
X195021904Y-106776904D02*
X194974285Y-106872142D01*
X194974285Y-106872142D02*
X194926666Y-106919761D01*
X194926666Y-106919761D02*
X194831428Y-106967380D01*
X194831428Y-106967380D02*
X194545714Y-106967380D01*
X194545714Y-106967380D02*
X194450476Y-106919761D01*
X194450476Y-106919761D02*
X194402857Y-106872142D01*
X195926666Y-105967380D02*
X195450476Y-105967380D01*
X195450476Y-105967380D02*
X195402857Y-106443571D01*
X195402857Y-106443571D02*
X195450476Y-106395952D01*
X195450476Y-106395952D02*
X195545714Y-106348333D01*
X195545714Y-106348333D02*
X195783809Y-106348333D01*
X195783809Y-106348333D02*
X195879047Y-106395952D01*
X195879047Y-106395952D02*
X195926666Y-106443571D01*
X195926666Y-106443571D02*
X195974285Y-106538809D01*
X195974285Y-106538809D02*
X195974285Y-106776904D01*
X195974285Y-106776904D02*
X195926666Y-106872142D01*
X195926666Y-106872142D02*
X195879047Y-106919761D01*
X195879047Y-106919761D02*
X195783809Y-106967380D01*
X195783809Y-106967380D02*
X195545714Y-106967380D01*
X195545714Y-106967380D02*
X195450476Y-106919761D01*
X195450476Y-106919761D02*
X195402857Y-106872142D01*
X182814285Y-103475000D02*
X182719047Y-103427380D01*
X182719047Y-103427380D02*
X182576190Y-103427380D01*
X182576190Y-103427380D02*
X182433333Y-103475000D01*
X182433333Y-103475000D02*
X182338095Y-103570238D01*
X182338095Y-103570238D02*
X182290476Y-103665476D01*
X182290476Y-103665476D02*
X182242857Y-103855952D01*
X182242857Y-103855952D02*
X182242857Y-103998809D01*
X182242857Y-103998809D02*
X182290476Y-104189285D01*
X182290476Y-104189285D02*
X182338095Y-104284523D01*
X182338095Y-104284523D02*
X182433333Y-104379761D01*
X182433333Y-104379761D02*
X182576190Y-104427380D01*
X182576190Y-104427380D02*
X182671428Y-104427380D01*
X182671428Y-104427380D02*
X182814285Y-104379761D01*
X182814285Y-104379761D02*
X182861904Y-104332142D01*
X182861904Y-104332142D02*
X182861904Y-103998809D01*
X182861904Y-103998809D02*
X182671428Y-103998809D01*
X183290476Y-104427380D02*
X183290476Y-103427380D01*
X183290476Y-103427380D02*
X183861904Y-104427380D01*
X183861904Y-104427380D02*
X183861904Y-103427380D01*
X194450476Y-95902619D02*
X194498095Y-95855000D01*
X194498095Y-95855000D02*
X194593333Y-95807380D01*
X194593333Y-95807380D02*
X194831428Y-95807380D01*
X194831428Y-95807380D02*
X194926666Y-95855000D01*
X194926666Y-95855000D02*
X194974285Y-95902619D01*
X194974285Y-95902619D02*
X195021904Y-95997857D01*
X195021904Y-95997857D02*
X195021904Y-96093095D01*
X195021904Y-96093095D02*
X194974285Y-96235952D01*
X194974285Y-96235952D02*
X194402857Y-96807380D01*
X194402857Y-96807380D02*
X195021904Y-96807380D01*
X195355238Y-95807380D02*
X196021904Y-95807380D01*
X196021904Y-95807380D02*
X195593333Y-96807380D01*
X195021904Y-76487380D02*
X194450476Y-76487380D01*
X194736190Y-76487380D02*
X194736190Y-75487380D01*
X194736190Y-75487380D02*
X194640952Y-75630238D01*
X194640952Y-75630238D02*
X194545714Y-75725476D01*
X194545714Y-75725476D02*
X194450476Y-75773095D01*
X195974285Y-76487380D02*
X195402857Y-76487380D01*
X195688571Y-76487380D02*
X195688571Y-75487380D01*
X195688571Y-75487380D02*
X195593333Y-75630238D01*
X195593333Y-75630238D02*
X195498095Y-75725476D01*
X195498095Y-75725476D02*
X195402857Y-75773095D01*
X182861904Y-111380714D02*
X182861904Y-112047380D01*
X182623809Y-110999761D02*
X182385714Y-111714047D01*
X182385714Y-111714047D02*
X183004761Y-111714047D01*
X183576190Y-111047380D02*
X183671428Y-111047380D01*
X183671428Y-111047380D02*
X183766666Y-111095000D01*
X183766666Y-111095000D02*
X183814285Y-111142619D01*
X183814285Y-111142619D02*
X183861904Y-111237857D01*
X183861904Y-111237857D02*
X183909523Y-111428333D01*
X183909523Y-111428333D02*
X183909523Y-111666428D01*
X183909523Y-111666428D02*
X183861904Y-111856904D01*
X183861904Y-111856904D02*
X183814285Y-111952142D01*
X183814285Y-111952142D02*
X183766666Y-111999761D01*
X183766666Y-111999761D02*
X183671428Y-112047380D01*
X183671428Y-112047380D02*
X183576190Y-112047380D01*
X183576190Y-112047380D02*
X183480952Y-111999761D01*
X183480952Y-111999761D02*
X183433333Y-111952142D01*
X183433333Y-111952142D02*
X183385714Y-111856904D01*
X183385714Y-111856904D02*
X183338095Y-111666428D01*
X183338095Y-111666428D02*
X183338095Y-111428333D01*
X183338095Y-111428333D02*
X183385714Y-111237857D01*
X183385714Y-111237857D02*
X183433333Y-111142619D01*
X183433333Y-111142619D02*
X183480952Y-111095000D01*
X183480952Y-111095000D02*
X183576190Y-111047380D01*
X182385714Y-93362619D02*
X182433333Y-93315000D01*
X182433333Y-93315000D02*
X182528571Y-93267380D01*
X182528571Y-93267380D02*
X182766666Y-93267380D01*
X182766666Y-93267380D02*
X182861904Y-93315000D01*
X182861904Y-93315000D02*
X182909523Y-93362619D01*
X182909523Y-93362619D02*
X182957142Y-93457857D01*
X182957142Y-93457857D02*
X182957142Y-93553095D01*
X182957142Y-93553095D02*
X182909523Y-93695952D01*
X182909523Y-93695952D02*
X182338095Y-94267380D01*
X182338095Y-94267380D02*
X182957142Y-94267380D01*
X183814285Y-93267380D02*
X183623809Y-93267380D01*
X183623809Y-93267380D02*
X183528571Y-93315000D01*
X183528571Y-93315000D02*
X183480952Y-93362619D01*
X183480952Y-93362619D02*
X183385714Y-93505476D01*
X183385714Y-93505476D02*
X183338095Y-93695952D01*
X183338095Y-93695952D02*
X183338095Y-94076904D01*
X183338095Y-94076904D02*
X183385714Y-94172142D01*
X183385714Y-94172142D02*
X183433333Y-94219761D01*
X183433333Y-94219761D02*
X183528571Y-94267380D01*
X183528571Y-94267380D02*
X183719047Y-94267380D01*
X183719047Y-94267380D02*
X183814285Y-94219761D01*
X183814285Y-94219761D02*
X183861904Y-94172142D01*
X183861904Y-94172142D02*
X183909523Y-94076904D01*
X183909523Y-94076904D02*
X183909523Y-93838809D01*
X183909523Y-93838809D02*
X183861904Y-93743571D01*
X183861904Y-93743571D02*
X183814285Y-93695952D01*
X183814285Y-93695952D02*
X183719047Y-93648333D01*
X183719047Y-93648333D02*
X183528571Y-93648333D01*
X183528571Y-93648333D02*
X183433333Y-93695952D01*
X183433333Y-93695952D02*
X183385714Y-93743571D01*
X183385714Y-93743571D02*
X183338095Y-93838809D01*
X194450476Y-98442619D02*
X194498095Y-98395000D01*
X194498095Y-98395000D02*
X194593333Y-98347380D01*
X194593333Y-98347380D02*
X194831428Y-98347380D01*
X194831428Y-98347380D02*
X194926666Y-98395000D01*
X194926666Y-98395000D02*
X194974285Y-98442619D01*
X194974285Y-98442619D02*
X195021904Y-98537857D01*
X195021904Y-98537857D02*
X195021904Y-98633095D01*
X195021904Y-98633095D02*
X194974285Y-98775952D01*
X194974285Y-98775952D02*
X194402857Y-99347380D01*
X194402857Y-99347380D02*
X195021904Y-99347380D01*
X195498095Y-99347380D02*
X195688571Y-99347380D01*
X195688571Y-99347380D02*
X195783809Y-99299761D01*
X195783809Y-99299761D02*
X195831428Y-99252142D01*
X195831428Y-99252142D02*
X195926666Y-99109285D01*
X195926666Y-99109285D02*
X195974285Y-98918809D01*
X195974285Y-98918809D02*
X195974285Y-98537857D01*
X195974285Y-98537857D02*
X195926666Y-98442619D01*
X195926666Y-98442619D02*
X195879047Y-98395000D01*
X195879047Y-98395000D02*
X195783809Y-98347380D01*
X195783809Y-98347380D02*
X195593333Y-98347380D01*
X195593333Y-98347380D02*
X195498095Y-98395000D01*
X195498095Y-98395000D02*
X195450476Y-98442619D01*
X195450476Y-98442619D02*
X195402857Y-98537857D01*
X195402857Y-98537857D02*
X195402857Y-98775952D01*
X195402857Y-98775952D02*
X195450476Y-98871190D01*
X195450476Y-98871190D02*
X195498095Y-98918809D01*
X195498095Y-98918809D02*
X195593333Y-98966428D01*
X195593333Y-98966428D02*
X195783809Y-98966428D01*
X195783809Y-98966428D02*
X195879047Y-98918809D01*
X195879047Y-98918809D02*
X195926666Y-98871190D01*
X195926666Y-98871190D02*
X195974285Y-98775952D01*
X194450476Y-88282619D02*
X194498095Y-88235000D01*
X194498095Y-88235000D02*
X194593333Y-88187380D01*
X194593333Y-88187380D02*
X194831428Y-88187380D01*
X194831428Y-88187380D02*
X194926666Y-88235000D01*
X194926666Y-88235000D02*
X194974285Y-88282619D01*
X194974285Y-88282619D02*
X195021904Y-88377857D01*
X195021904Y-88377857D02*
X195021904Y-88473095D01*
X195021904Y-88473095D02*
X194974285Y-88615952D01*
X194974285Y-88615952D02*
X194402857Y-89187380D01*
X194402857Y-89187380D02*
X195021904Y-89187380D01*
X195974285Y-89187380D02*
X195402857Y-89187380D01*
X195688571Y-89187380D02*
X195688571Y-88187380D01*
X195688571Y-88187380D02*
X195593333Y-88330238D01*
X195593333Y-88330238D02*
X195498095Y-88425476D01*
X195498095Y-88425476D02*
X195402857Y-88473095D01*
X194402857Y-62787380D02*
X195021904Y-62787380D01*
X195021904Y-62787380D02*
X194688571Y-63168333D01*
X194688571Y-63168333D02*
X194831428Y-63168333D01*
X194831428Y-63168333D02*
X194926666Y-63215952D01*
X194926666Y-63215952D02*
X194974285Y-63263571D01*
X194974285Y-63263571D02*
X195021904Y-63358809D01*
X195021904Y-63358809D02*
X195021904Y-63596904D01*
X195021904Y-63596904D02*
X194974285Y-63692142D01*
X194974285Y-63692142D02*
X194926666Y-63739761D01*
X194926666Y-63739761D02*
X194831428Y-63787380D01*
X194831428Y-63787380D02*
X194545714Y-63787380D01*
X194545714Y-63787380D02*
X194450476Y-63739761D01*
X194450476Y-63739761D02*
X194402857Y-63692142D01*
X195307619Y-62787380D02*
X195640952Y-63787380D01*
X195640952Y-63787380D02*
X195974285Y-62787380D01*
X194402857Y-103427380D02*
X195021904Y-103427380D01*
X195021904Y-103427380D02*
X194688571Y-103808333D01*
X194688571Y-103808333D02*
X194831428Y-103808333D01*
X194831428Y-103808333D02*
X194926666Y-103855952D01*
X194926666Y-103855952D02*
X194974285Y-103903571D01*
X194974285Y-103903571D02*
X195021904Y-103998809D01*
X195021904Y-103998809D02*
X195021904Y-104236904D01*
X195021904Y-104236904D02*
X194974285Y-104332142D01*
X194974285Y-104332142D02*
X194926666Y-104379761D01*
X194926666Y-104379761D02*
X194831428Y-104427380D01*
X194831428Y-104427380D02*
X194545714Y-104427380D01*
X194545714Y-104427380D02*
X194450476Y-104379761D01*
X194450476Y-104379761D02*
X194402857Y-104332142D01*
X195355238Y-103427380D02*
X195974285Y-103427380D01*
X195974285Y-103427380D02*
X195640952Y-103808333D01*
X195640952Y-103808333D02*
X195783809Y-103808333D01*
X195783809Y-103808333D02*
X195879047Y-103855952D01*
X195879047Y-103855952D02*
X195926666Y-103903571D01*
X195926666Y-103903571D02*
X195974285Y-103998809D01*
X195974285Y-103998809D02*
X195974285Y-104236904D01*
X195974285Y-104236904D02*
X195926666Y-104332142D01*
X195926666Y-104332142D02*
X195879047Y-104379761D01*
X195879047Y-104379761D02*
X195783809Y-104427380D01*
X195783809Y-104427380D02*
X195498095Y-104427380D01*
X195498095Y-104427380D02*
X195402857Y-104379761D01*
X195402857Y-104379761D02*
X195355238Y-104332142D01*
X195021904Y-111095000D02*
X194926666Y-111047380D01*
X194926666Y-111047380D02*
X194783809Y-111047380D01*
X194783809Y-111047380D02*
X194640952Y-111095000D01*
X194640952Y-111095000D02*
X194545714Y-111190238D01*
X194545714Y-111190238D02*
X194498095Y-111285476D01*
X194498095Y-111285476D02*
X194450476Y-111475952D01*
X194450476Y-111475952D02*
X194450476Y-111618809D01*
X194450476Y-111618809D02*
X194498095Y-111809285D01*
X194498095Y-111809285D02*
X194545714Y-111904523D01*
X194545714Y-111904523D02*
X194640952Y-111999761D01*
X194640952Y-111999761D02*
X194783809Y-112047380D01*
X194783809Y-112047380D02*
X194879047Y-112047380D01*
X194879047Y-112047380D02*
X195021904Y-111999761D01*
X195021904Y-111999761D02*
X195069523Y-111952142D01*
X195069523Y-111952142D02*
X195069523Y-111618809D01*
X195069523Y-111618809D02*
X194879047Y-111618809D01*
X195498095Y-112047380D02*
X195498095Y-111047380D01*
X195498095Y-111047380D02*
X196069523Y-112047380D01*
X196069523Y-112047380D02*
X196069523Y-111047380D01*
X195021904Y-81567380D02*
X194450476Y-81567380D01*
X194736190Y-81567380D02*
X194736190Y-80567380D01*
X194736190Y-80567380D02*
X194640952Y-80710238D01*
X194640952Y-80710238D02*
X194545714Y-80805476D01*
X194545714Y-80805476D02*
X194450476Y-80853095D01*
X195926666Y-80567380D02*
X195450476Y-80567380D01*
X195450476Y-80567380D02*
X195402857Y-81043571D01*
X195402857Y-81043571D02*
X195450476Y-80995952D01*
X195450476Y-80995952D02*
X195545714Y-80948333D01*
X195545714Y-80948333D02*
X195783809Y-80948333D01*
X195783809Y-80948333D02*
X195879047Y-80995952D01*
X195879047Y-80995952D02*
X195926666Y-81043571D01*
X195926666Y-81043571D02*
X195974285Y-81138809D01*
X195974285Y-81138809D02*
X195974285Y-81376904D01*
X195974285Y-81376904D02*
X195926666Y-81472142D01*
X195926666Y-81472142D02*
X195879047Y-81519761D01*
X195879047Y-81519761D02*
X195783809Y-81567380D01*
X195783809Y-81567380D02*
X195545714Y-81567380D01*
X195545714Y-81567380D02*
X195450476Y-81519761D01*
X195450476Y-81519761D02*
X195402857Y-81472142D01*
X195021904Y-79027380D02*
X194450476Y-79027380D01*
X194736190Y-79027380D02*
X194736190Y-78027380D01*
X194736190Y-78027380D02*
X194640952Y-78170238D01*
X194640952Y-78170238D02*
X194545714Y-78265476D01*
X194545714Y-78265476D02*
X194450476Y-78313095D01*
X195355238Y-78027380D02*
X195974285Y-78027380D01*
X195974285Y-78027380D02*
X195640952Y-78408333D01*
X195640952Y-78408333D02*
X195783809Y-78408333D01*
X195783809Y-78408333D02*
X195879047Y-78455952D01*
X195879047Y-78455952D02*
X195926666Y-78503571D01*
X195926666Y-78503571D02*
X195974285Y-78598809D01*
X195974285Y-78598809D02*
X195974285Y-78836904D01*
X195974285Y-78836904D02*
X195926666Y-78932142D01*
X195926666Y-78932142D02*
X195879047Y-78979761D01*
X195879047Y-78979761D02*
X195783809Y-79027380D01*
X195783809Y-79027380D02*
X195498095Y-79027380D01*
X195498095Y-79027380D02*
X195402857Y-78979761D01*
X195402857Y-78979761D02*
X195355238Y-78932142D01*
X182385714Y-88282619D02*
X182433333Y-88235000D01*
X182433333Y-88235000D02*
X182528571Y-88187380D01*
X182528571Y-88187380D02*
X182766666Y-88187380D01*
X182766666Y-88187380D02*
X182861904Y-88235000D01*
X182861904Y-88235000D02*
X182909523Y-88282619D01*
X182909523Y-88282619D02*
X182957142Y-88377857D01*
X182957142Y-88377857D02*
X182957142Y-88473095D01*
X182957142Y-88473095D02*
X182909523Y-88615952D01*
X182909523Y-88615952D02*
X182338095Y-89187380D01*
X182338095Y-89187380D02*
X182957142Y-89187380D01*
X183338095Y-88282619D02*
X183385714Y-88235000D01*
X183385714Y-88235000D02*
X183480952Y-88187380D01*
X183480952Y-88187380D02*
X183719047Y-88187380D01*
X183719047Y-88187380D02*
X183814285Y-88235000D01*
X183814285Y-88235000D02*
X183861904Y-88282619D01*
X183861904Y-88282619D02*
X183909523Y-88377857D01*
X183909523Y-88377857D02*
X183909523Y-88473095D01*
X183909523Y-88473095D02*
X183861904Y-88615952D01*
X183861904Y-88615952D02*
X183290476Y-89187380D01*
X183290476Y-89187380D02*
X183909523Y-89187380D01*
X194688571Y-70407380D02*
X194783809Y-70407380D01*
X194783809Y-70407380D02*
X194879047Y-70455000D01*
X194879047Y-70455000D02*
X194926666Y-70502619D01*
X194926666Y-70502619D02*
X194974285Y-70597857D01*
X194974285Y-70597857D02*
X195021904Y-70788333D01*
X195021904Y-70788333D02*
X195021904Y-71026428D01*
X195021904Y-71026428D02*
X194974285Y-71216904D01*
X194974285Y-71216904D02*
X194926666Y-71312142D01*
X194926666Y-71312142D02*
X194879047Y-71359761D01*
X194879047Y-71359761D02*
X194783809Y-71407380D01*
X194783809Y-71407380D02*
X194688571Y-71407380D01*
X194688571Y-71407380D02*
X194593333Y-71359761D01*
X194593333Y-71359761D02*
X194545714Y-71312142D01*
X194545714Y-71312142D02*
X194498095Y-71216904D01*
X194498095Y-71216904D02*
X194450476Y-71026428D01*
X194450476Y-71026428D02*
X194450476Y-70788333D01*
X194450476Y-70788333D02*
X194498095Y-70597857D01*
X194498095Y-70597857D02*
X194545714Y-70502619D01*
X194545714Y-70502619D02*
X194593333Y-70455000D01*
X194593333Y-70455000D02*
X194688571Y-70407380D01*
X195355238Y-70407380D02*
X196021904Y-70407380D01*
X196021904Y-70407380D02*
X195593333Y-71407380D01*
X194450476Y-90822619D02*
X194498095Y-90775000D01*
X194498095Y-90775000D02*
X194593333Y-90727380D01*
X194593333Y-90727380D02*
X194831428Y-90727380D01*
X194831428Y-90727380D02*
X194926666Y-90775000D01*
X194926666Y-90775000D02*
X194974285Y-90822619D01*
X194974285Y-90822619D02*
X195021904Y-90917857D01*
X195021904Y-90917857D02*
X195021904Y-91013095D01*
X195021904Y-91013095D02*
X194974285Y-91155952D01*
X194974285Y-91155952D02*
X194402857Y-91727380D01*
X194402857Y-91727380D02*
X195021904Y-91727380D01*
X195355238Y-90727380D02*
X195974285Y-90727380D01*
X195974285Y-90727380D02*
X195640952Y-91108333D01*
X195640952Y-91108333D02*
X195783809Y-91108333D01*
X195783809Y-91108333D02*
X195879047Y-91155952D01*
X195879047Y-91155952D02*
X195926666Y-91203571D01*
X195926666Y-91203571D02*
X195974285Y-91298809D01*
X195974285Y-91298809D02*
X195974285Y-91536904D01*
X195974285Y-91536904D02*
X195926666Y-91632142D01*
X195926666Y-91632142D02*
X195879047Y-91679761D01*
X195879047Y-91679761D02*
X195783809Y-91727380D01*
X195783809Y-91727380D02*
X195498095Y-91727380D01*
X195498095Y-91727380D02*
X195402857Y-91679761D01*
X195402857Y-91679761D02*
X195355238Y-91632142D01*
X182957142Y-73947380D02*
X182385714Y-73947380D01*
X182671428Y-73947380D02*
X182671428Y-72947380D01*
X182671428Y-72947380D02*
X182576190Y-73090238D01*
X182576190Y-73090238D02*
X182480952Y-73185476D01*
X182480952Y-73185476D02*
X182385714Y-73233095D01*
X183576190Y-72947380D02*
X183671428Y-72947380D01*
X183671428Y-72947380D02*
X183766666Y-72995000D01*
X183766666Y-72995000D02*
X183814285Y-73042619D01*
X183814285Y-73042619D02*
X183861904Y-73137857D01*
X183861904Y-73137857D02*
X183909523Y-73328333D01*
X183909523Y-73328333D02*
X183909523Y-73566428D01*
X183909523Y-73566428D02*
X183861904Y-73756904D01*
X183861904Y-73756904D02*
X183814285Y-73852142D01*
X183814285Y-73852142D02*
X183766666Y-73899761D01*
X183766666Y-73899761D02*
X183671428Y-73947380D01*
X183671428Y-73947380D02*
X183576190Y-73947380D01*
X183576190Y-73947380D02*
X183480952Y-73899761D01*
X183480952Y-73899761D02*
X183433333Y-73852142D01*
X183433333Y-73852142D02*
X183385714Y-73756904D01*
X183385714Y-73756904D02*
X183338095Y-73566428D01*
X183338095Y-73566428D02*
X183338095Y-73328333D01*
X183338095Y-73328333D02*
X183385714Y-73137857D01*
X183385714Y-73137857D02*
X183433333Y-73042619D01*
X183433333Y-73042619D02*
X183480952Y-72995000D01*
X183480952Y-72995000D02*
X183576190Y-72947380D01*
X182623809Y-70407380D02*
X182719047Y-70407380D01*
X182719047Y-70407380D02*
X182814285Y-70455000D01*
X182814285Y-70455000D02*
X182861904Y-70502619D01*
X182861904Y-70502619D02*
X182909523Y-70597857D01*
X182909523Y-70597857D02*
X182957142Y-70788333D01*
X182957142Y-70788333D02*
X182957142Y-71026428D01*
X182957142Y-71026428D02*
X182909523Y-71216904D01*
X182909523Y-71216904D02*
X182861904Y-71312142D01*
X182861904Y-71312142D02*
X182814285Y-71359761D01*
X182814285Y-71359761D02*
X182719047Y-71407380D01*
X182719047Y-71407380D02*
X182623809Y-71407380D01*
X182623809Y-71407380D02*
X182528571Y-71359761D01*
X182528571Y-71359761D02*
X182480952Y-71312142D01*
X182480952Y-71312142D02*
X182433333Y-71216904D01*
X182433333Y-71216904D02*
X182385714Y-71026428D01*
X182385714Y-71026428D02*
X182385714Y-70788333D01*
X182385714Y-70788333D02*
X182433333Y-70597857D01*
X182433333Y-70597857D02*
X182480952Y-70502619D01*
X182480952Y-70502619D02*
X182528571Y-70455000D01*
X182528571Y-70455000D02*
X182623809Y-70407380D01*
X183528571Y-70835952D02*
X183433333Y-70788333D01*
X183433333Y-70788333D02*
X183385714Y-70740714D01*
X183385714Y-70740714D02*
X183338095Y-70645476D01*
X183338095Y-70645476D02*
X183338095Y-70597857D01*
X183338095Y-70597857D02*
X183385714Y-70502619D01*
X183385714Y-70502619D02*
X183433333Y-70455000D01*
X183433333Y-70455000D02*
X183528571Y-70407380D01*
X183528571Y-70407380D02*
X183719047Y-70407380D01*
X183719047Y-70407380D02*
X183814285Y-70455000D01*
X183814285Y-70455000D02*
X183861904Y-70502619D01*
X183861904Y-70502619D02*
X183909523Y-70597857D01*
X183909523Y-70597857D02*
X183909523Y-70645476D01*
X183909523Y-70645476D02*
X183861904Y-70740714D01*
X183861904Y-70740714D02*
X183814285Y-70788333D01*
X183814285Y-70788333D02*
X183719047Y-70835952D01*
X183719047Y-70835952D02*
X183528571Y-70835952D01*
X183528571Y-70835952D02*
X183433333Y-70883571D01*
X183433333Y-70883571D02*
X183385714Y-70931190D01*
X183385714Y-70931190D02*
X183338095Y-71026428D01*
X183338095Y-71026428D02*
X183338095Y-71216904D01*
X183338095Y-71216904D02*
X183385714Y-71312142D01*
X183385714Y-71312142D02*
X183433333Y-71359761D01*
X183433333Y-71359761D02*
X183528571Y-71407380D01*
X183528571Y-71407380D02*
X183719047Y-71407380D01*
X183719047Y-71407380D02*
X183814285Y-71359761D01*
X183814285Y-71359761D02*
X183861904Y-71312142D01*
X183861904Y-71312142D02*
X183909523Y-71216904D01*
X183909523Y-71216904D02*
X183909523Y-71026428D01*
X183909523Y-71026428D02*
X183861904Y-70931190D01*
X183861904Y-70931190D02*
X183814285Y-70883571D01*
X183814285Y-70883571D02*
X183719047Y-70835952D01*
X182338095Y-108507380D02*
X182957142Y-108507380D01*
X182957142Y-108507380D02*
X182623809Y-108888333D01*
X182623809Y-108888333D02*
X182766666Y-108888333D01*
X182766666Y-108888333D02*
X182861904Y-108935952D01*
X182861904Y-108935952D02*
X182909523Y-108983571D01*
X182909523Y-108983571D02*
X182957142Y-109078809D01*
X182957142Y-109078809D02*
X182957142Y-109316904D01*
X182957142Y-109316904D02*
X182909523Y-109412142D01*
X182909523Y-109412142D02*
X182861904Y-109459761D01*
X182861904Y-109459761D02*
X182766666Y-109507380D01*
X182766666Y-109507380D02*
X182480952Y-109507380D01*
X182480952Y-109507380D02*
X182385714Y-109459761D01*
X182385714Y-109459761D02*
X182338095Y-109412142D01*
X183528571Y-108935952D02*
X183433333Y-108888333D01*
X183433333Y-108888333D02*
X183385714Y-108840714D01*
X183385714Y-108840714D02*
X183338095Y-108745476D01*
X183338095Y-108745476D02*
X183338095Y-108697857D01*
X183338095Y-108697857D02*
X183385714Y-108602619D01*
X183385714Y-108602619D02*
X183433333Y-108555000D01*
X183433333Y-108555000D02*
X183528571Y-108507380D01*
X183528571Y-108507380D02*
X183719047Y-108507380D01*
X183719047Y-108507380D02*
X183814285Y-108555000D01*
X183814285Y-108555000D02*
X183861904Y-108602619D01*
X183861904Y-108602619D02*
X183909523Y-108697857D01*
X183909523Y-108697857D02*
X183909523Y-108745476D01*
X183909523Y-108745476D02*
X183861904Y-108840714D01*
X183861904Y-108840714D02*
X183814285Y-108888333D01*
X183814285Y-108888333D02*
X183719047Y-108935952D01*
X183719047Y-108935952D02*
X183528571Y-108935952D01*
X183528571Y-108935952D02*
X183433333Y-108983571D01*
X183433333Y-108983571D02*
X183385714Y-109031190D01*
X183385714Y-109031190D02*
X183338095Y-109126428D01*
X183338095Y-109126428D02*
X183338095Y-109316904D01*
X183338095Y-109316904D02*
X183385714Y-109412142D01*
X183385714Y-109412142D02*
X183433333Y-109459761D01*
X183433333Y-109459761D02*
X183528571Y-109507380D01*
X183528571Y-109507380D02*
X183719047Y-109507380D01*
X183719047Y-109507380D02*
X183814285Y-109459761D01*
X183814285Y-109459761D02*
X183861904Y-109412142D01*
X183861904Y-109412142D02*
X183909523Y-109316904D01*
X183909523Y-109316904D02*
X183909523Y-109126428D01*
X183909523Y-109126428D02*
X183861904Y-109031190D01*
X183861904Y-109031190D02*
X183814285Y-108983571D01*
X183814285Y-108983571D02*
X183719047Y-108935952D01*
X194402857Y-108507380D02*
X195021904Y-108507380D01*
X195021904Y-108507380D02*
X194688571Y-108888333D01*
X194688571Y-108888333D02*
X194831428Y-108888333D01*
X194831428Y-108888333D02*
X194926666Y-108935952D01*
X194926666Y-108935952D02*
X194974285Y-108983571D01*
X194974285Y-108983571D02*
X195021904Y-109078809D01*
X195021904Y-109078809D02*
X195021904Y-109316904D01*
X195021904Y-109316904D02*
X194974285Y-109412142D01*
X194974285Y-109412142D02*
X194926666Y-109459761D01*
X194926666Y-109459761D02*
X194831428Y-109507380D01*
X194831428Y-109507380D02*
X194545714Y-109507380D01*
X194545714Y-109507380D02*
X194450476Y-109459761D01*
X194450476Y-109459761D02*
X194402857Y-109412142D01*
X195355238Y-108507380D02*
X196021904Y-108507380D01*
X196021904Y-108507380D02*
X195593333Y-109507380D01*
X182957142Y-84107380D02*
X182385714Y-84107380D01*
X182671428Y-84107380D02*
X182671428Y-83107380D01*
X182671428Y-83107380D02*
X182576190Y-83250238D01*
X182576190Y-83250238D02*
X182480952Y-83345476D01*
X182480952Y-83345476D02*
X182385714Y-83393095D01*
X183528571Y-83535952D02*
X183433333Y-83488333D01*
X183433333Y-83488333D02*
X183385714Y-83440714D01*
X183385714Y-83440714D02*
X183338095Y-83345476D01*
X183338095Y-83345476D02*
X183338095Y-83297857D01*
X183338095Y-83297857D02*
X183385714Y-83202619D01*
X183385714Y-83202619D02*
X183433333Y-83155000D01*
X183433333Y-83155000D02*
X183528571Y-83107380D01*
X183528571Y-83107380D02*
X183719047Y-83107380D01*
X183719047Y-83107380D02*
X183814285Y-83155000D01*
X183814285Y-83155000D02*
X183861904Y-83202619D01*
X183861904Y-83202619D02*
X183909523Y-83297857D01*
X183909523Y-83297857D02*
X183909523Y-83345476D01*
X183909523Y-83345476D02*
X183861904Y-83440714D01*
X183861904Y-83440714D02*
X183814285Y-83488333D01*
X183814285Y-83488333D02*
X183719047Y-83535952D01*
X183719047Y-83535952D02*
X183528571Y-83535952D01*
X183528571Y-83535952D02*
X183433333Y-83583571D01*
X183433333Y-83583571D02*
X183385714Y-83631190D01*
X183385714Y-83631190D02*
X183338095Y-83726428D01*
X183338095Y-83726428D02*
X183338095Y-83916904D01*
X183338095Y-83916904D02*
X183385714Y-84012142D01*
X183385714Y-84012142D02*
X183433333Y-84059761D01*
X183433333Y-84059761D02*
X183528571Y-84107380D01*
X183528571Y-84107380D02*
X183719047Y-84107380D01*
X183719047Y-84107380D02*
X183814285Y-84059761D01*
X183814285Y-84059761D02*
X183861904Y-84012142D01*
X183861904Y-84012142D02*
X183909523Y-83916904D01*
X183909523Y-83916904D02*
X183909523Y-83726428D01*
X183909523Y-83726428D02*
X183861904Y-83631190D01*
X183861904Y-83631190D02*
X183814285Y-83583571D01*
X183814285Y-83583571D02*
X183719047Y-83535952D01*
X182385714Y-95902619D02*
X182433333Y-95855000D01*
X182433333Y-95855000D02*
X182528571Y-95807380D01*
X182528571Y-95807380D02*
X182766666Y-95807380D01*
X182766666Y-95807380D02*
X182861904Y-95855000D01*
X182861904Y-95855000D02*
X182909523Y-95902619D01*
X182909523Y-95902619D02*
X182957142Y-95997857D01*
X182957142Y-95997857D02*
X182957142Y-96093095D01*
X182957142Y-96093095D02*
X182909523Y-96235952D01*
X182909523Y-96235952D02*
X182338095Y-96807380D01*
X182338095Y-96807380D02*
X182957142Y-96807380D01*
X183528571Y-96235952D02*
X183433333Y-96188333D01*
X183433333Y-96188333D02*
X183385714Y-96140714D01*
X183385714Y-96140714D02*
X183338095Y-96045476D01*
X183338095Y-96045476D02*
X183338095Y-95997857D01*
X183338095Y-95997857D02*
X183385714Y-95902619D01*
X183385714Y-95902619D02*
X183433333Y-95855000D01*
X183433333Y-95855000D02*
X183528571Y-95807380D01*
X183528571Y-95807380D02*
X183719047Y-95807380D01*
X183719047Y-95807380D02*
X183814285Y-95855000D01*
X183814285Y-95855000D02*
X183861904Y-95902619D01*
X183861904Y-95902619D02*
X183909523Y-95997857D01*
X183909523Y-95997857D02*
X183909523Y-96045476D01*
X183909523Y-96045476D02*
X183861904Y-96140714D01*
X183861904Y-96140714D02*
X183814285Y-96188333D01*
X183814285Y-96188333D02*
X183719047Y-96235952D01*
X183719047Y-96235952D02*
X183528571Y-96235952D01*
X183528571Y-96235952D02*
X183433333Y-96283571D01*
X183433333Y-96283571D02*
X183385714Y-96331190D01*
X183385714Y-96331190D02*
X183338095Y-96426428D01*
X183338095Y-96426428D02*
X183338095Y-96616904D01*
X183338095Y-96616904D02*
X183385714Y-96712142D01*
X183385714Y-96712142D02*
X183433333Y-96759761D01*
X183433333Y-96759761D02*
X183528571Y-96807380D01*
X183528571Y-96807380D02*
X183719047Y-96807380D01*
X183719047Y-96807380D02*
X183814285Y-96759761D01*
X183814285Y-96759761D02*
X183861904Y-96712142D01*
X183861904Y-96712142D02*
X183909523Y-96616904D01*
X183909523Y-96616904D02*
X183909523Y-96426428D01*
X183909523Y-96426428D02*
X183861904Y-96331190D01*
X183861904Y-96331190D02*
X183814285Y-96283571D01*
X183814285Y-96283571D02*
X183719047Y-96235952D01*
X194688571Y-67867380D02*
X194783809Y-67867380D01*
X194783809Y-67867380D02*
X194879047Y-67915000D01*
X194879047Y-67915000D02*
X194926666Y-67962619D01*
X194926666Y-67962619D02*
X194974285Y-68057857D01*
X194974285Y-68057857D02*
X195021904Y-68248333D01*
X195021904Y-68248333D02*
X195021904Y-68486428D01*
X195021904Y-68486428D02*
X194974285Y-68676904D01*
X194974285Y-68676904D02*
X194926666Y-68772142D01*
X194926666Y-68772142D02*
X194879047Y-68819761D01*
X194879047Y-68819761D02*
X194783809Y-68867380D01*
X194783809Y-68867380D02*
X194688571Y-68867380D01*
X194688571Y-68867380D02*
X194593333Y-68819761D01*
X194593333Y-68819761D02*
X194545714Y-68772142D01*
X194545714Y-68772142D02*
X194498095Y-68676904D01*
X194498095Y-68676904D02*
X194450476Y-68486428D01*
X194450476Y-68486428D02*
X194450476Y-68248333D01*
X194450476Y-68248333D02*
X194498095Y-68057857D01*
X194498095Y-68057857D02*
X194545714Y-67962619D01*
X194545714Y-67962619D02*
X194593333Y-67915000D01*
X194593333Y-67915000D02*
X194688571Y-67867380D01*
X195926666Y-67867380D02*
X195450476Y-67867380D01*
X195450476Y-67867380D02*
X195402857Y-68343571D01*
X195402857Y-68343571D02*
X195450476Y-68295952D01*
X195450476Y-68295952D02*
X195545714Y-68248333D01*
X195545714Y-68248333D02*
X195783809Y-68248333D01*
X195783809Y-68248333D02*
X195879047Y-68295952D01*
X195879047Y-68295952D02*
X195926666Y-68343571D01*
X195926666Y-68343571D02*
X195974285Y-68438809D01*
X195974285Y-68438809D02*
X195974285Y-68676904D01*
X195974285Y-68676904D02*
X195926666Y-68772142D01*
X195926666Y-68772142D02*
X195879047Y-68819761D01*
X195879047Y-68819761D02*
X195783809Y-68867380D01*
X195783809Y-68867380D02*
X195545714Y-68867380D01*
X195545714Y-68867380D02*
X195450476Y-68819761D01*
X195450476Y-68819761D02*
X195402857Y-68772142D01*
X195021904Y-86647380D02*
X194450476Y-86647380D01*
X194736190Y-86647380D02*
X194736190Y-85647380D01*
X194736190Y-85647380D02*
X194640952Y-85790238D01*
X194640952Y-85790238D02*
X194545714Y-85885476D01*
X194545714Y-85885476D02*
X194450476Y-85933095D01*
X195498095Y-86647380D02*
X195688571Y-86647380D01*
X195688571Y-86647380D02*
X195783809Y-86599761D01*
X195783809Y-86599761D02*
X195831428Y-86552142D01*
X195831428Y-86552142D02*
X195926666Y-86409285D01*
X195926666Y-86409285D02*
X195974285Y-86218809D01*
X195974285Y-86218809D02*
X195974285Y-85837857D01*
X195974285Y-85837857D02*
X195926666Y-85742619D01*
X195926666Y-85742619D02*
X195879047Y-85695000D01*
X195879047Y-85695000D02*
X195783809Y-85647380D01*
X195783809Y-85647380D02*
X195593333Y-85647380D01*
X195593333Y-85647380D02*
X195498095Y-85695000D01*
X195498095Y-85695000D02*
X195450476Y-85742619D01*
X195450476Y-85742619D02*
X195402857Y-85837857D01*
X195402857Y-85837857D02*
X195402857Y-86075952D01*
X195402857Y-86075952D02*
X195450476Y-86171190D01*
X195450476Y-86171190D02*
X195498095Y-86218809D01*
X195498095Y-86218809D02*
X195593333Y-86266428D01*
X195593333Y-86266428D02*
X195783809Y-86266428D01*
X195783809Y-86266428D02*
X195879047Y-86218809D01*
X195879047Y-86218809D02*
X195926666Y-86171190D01*
X195926666Y-86171190D02*
X195974285Y-86075952D01*
X182814285Y-67915000D02*
X182719047Y-67867380D01*
X182719047Y-67867380D02*
X182576190Y-67867380D01*
X182576190Y-67867380D02*
X182433333Y-67915000D01*
X182433333Y-67915000D02*
X182338095Y-68010238D01*
X182338095Y-68010238D02*
X182290476Y-68105476D01*
X182290476Y-68105476D02*
X182242857Y-68295952D01*
X182242857Y-68295952D02*
X182242857Y-68438809D01*
X182242857Y-68438809D02*
X182290476Y-68629285D01*
X182290476Y-68629285D02*
X182338095Y-68724523D01*
X182338095Y-68724523D02*
X182433333Y-68819761D01*
X182433333Y-68819761D02*
X182576190Y-68867380D01*
X182576190Y-68867380D02*
X182671428Y-68867380D01*
X182671428Y-68867380D02*
X182814285Y-68819761D01*
X182814285Y-68819761D02*
X182861904Y-68772142D01*
X182861904Y-68772142D02*
X182861904Y-68438809D01*
X182861904Y-68438809D02*
X182671428Y-68438809D01*
X183290476Y-68867380D02*
X183290476Y-67867380D01*
X183290476Y-67867380D02*
X183861904Y-68867380D01*
X183861904Y-68867380D02*
X183861904Y-67867380D01*
X194688571Y-65327380D02*
X194783809Y-65327380D01*
X194783809Y-65327380D02*
X194879047Y-65375000D01*
X194879047Y-65375000D02*
X194926666Y-65422619D01*
X194926666Y-65422619D02*
X194974285Y-65517857D01*
X194974285Y-65517857D02*
X195021904Y-65708333D01*
X195021904Y-65708333D02*
X195021904Y-65946428D01*
X195021904Y-65946428D02*
X194974285Y-66136904D01*
X194974285Y-66136904D02*
X194926666Y-66232142D01*
X194926666Y-66232142D02*
X194879047Y-66279761D01*
X194879047Y-66279761D02*
X194783809Y-66327380D01*
X194783809Y-66327380D02*
X194688571Y-66327380D01*
X194688571Y-66327380D02*
X194593333Y-66279761D01*
X194593333Y-66279761D02*
X194545714Y-66232142D01*
X194545714Y-66232142D02*
X194498095Y-66136904D01*
X194498095Y-66136904D02*
X194450476Y-65946428D01*
X194450476Y-65946428D02*
X194450476Y-65708333D01*
X194450476Y-65708333D02*
X194498095Y-65517857D01*
X194498095Y-65517857D02*
X194545714Y-65422619D01*
X194545714Y-65422619D02*
X194593333Y-65375000D01*
X194593333Y-65375000D02*
X194688571Y-65327380D01*
X195355238Y-65327380D02*
X195974285Y-65327380D01*
X195974285Y-65327380D02*
X195640952Y-65708333D01*
X195640952Y-65708333D02*
X195783809Y-65708333D01*
X195783809Y-65708333D02*
X195879047Y-65755952D01*
X195879047Y-65755952D02*
X195926666Y-65803571D01*
X195926666Y-65803571D02*
X195974285Y-65898809D01*
X195974285Y-65898809D02*
X195974285Y-66136904D01*
X195974285Y-66136904D02*
X195926666Y-66232142D01*
X195926666Y-66232142D02*
X195879047Y-66279761D01*
X195879047Y-66279761D02*
X195783809Y-66327380D01*
X195783809Y-66327380D02*
X195498095Y-66327380D01*
X195498095Y-66327380D02*
X195402857Y-66279761D01*
X195402857Y-66279761D02*
X195355238Y-66232142D01*
X183004761Y-62787380D02*
X182528571Y-62787380D01*
X182528571Y-62787380D02*
X182480952Y-63263571D01*
X182480952Y-63263571D02*
X182528571Y-63215952D01*
X182528571Y-63215952D02*
X182623809Y-63168333D01*
X182623809Y-63168333D02*
X182861904Y-63168333D01*
X182861904Y-63168333D02*
X182957142Y-63215952D01*
X182957142Y-63215952D02*
X183004761Y-63263571D01*
X183004761Y-63263571D02*
X183052380Y-63358809D01*
X183052380Y-63358809D02*
X183052380Y-63596904D01*
X183052380Y-63596904D02*
X183004761Y-63692142D01*
X183004761Y-63692142D02*
X182957142Y-63739761D01*
X182957142Y-63739761D02*
X182861904Y-63787380D01*
X182861904Y-63787380D02*
X182623809Y-63787380D01*
X182623809Y-63787380D02*
X182528571Y-63739761D01*
X182528571Y-63739761D02*
X182480952Y-63692142D01*
X183338095Y-62787380D02*
X183671428Y-63787380D01*
X183671428Y-63787380D02*
X184004761Y-62787380D01*
X182814285Y-78075000D02*
X182719047Y-78027380D01*
X182719047Y-78027380D02*
X182576190Y-78027380D01*
X182576190Y-78027380D02*
X182433333Y-78075000D01*
X182433333Y-78075000D02*
X182338095Y-78170238D01*
X182338095Y-78170238D02*
X182290476Y-78265476D01*
X182290476Y-78265476D02*
X182242857Y-78455952D01*
X182242857Y-78455952D02*
X182242857Y-78598809D01*
X182242857Y-78598809D02*
X182290476Y-78789285D01*
X182290476Y-78789285D02*
X182338095Y-78884523D01*
X182338095Y-78884523D02*
X182433333Y-78979761D01*
X182433333Y-78979761D02*
X182576190Y-79027380D01*
X182576190Y-79027380D02*
X182671428Y-79027380D01*
X182671428Y-79027380D02*
X182814285Y-78979761D01*
X182814285Y-78979761D02*
X182861904Y-78932142D01*
X182861904Y-78932142D02*
X182861904Y-78598809D01*
X182861904Y-78598809D02*
X182671428Y-78598809D01*
X183290476Y-79027380D02*
X183290476Y-78027380D01*
X183290476Y-78027380D02*
X183861904Y-79027380D01*
X183861904Y-79027380D02*
X183861904Y-78027380D01*
X182338095Y-105967380D02*
X182957142Y-105967380D01*
X182957142Y-105967380D02*
X182623809Y-106348333D01*
X182623809Y-106348333D02*
X182766666Y-106348333D01*
X182766666Y-106348333D02*
X182861904Y-106395952D01*
X182861904Y-106395952D02*
X182909523Y-106443571D01*
X182909523Y-106443571D02*
X182957142Y-106538809D01*
X182957142Y-106538809D02*
X182957142Y-106776904D01*
X182957142Y-106776904D02*
X182909523Y-106872142D01*
X182909523Y-106872142D02*
X182861904Y-106919761D01*
X182861904Y-106919761D02*
X182766666Y-106967380D01*
X182766666Y-106967380D02*
X182480952Y-106967380D01*
X182480952Y-106967380D02*
X182385714Y-106919761D01*
X182385714Y-106919761D02*
X182338095Y-106872142D01*
X183814285Y-105967380D02*
X183623809Y-105967380D01*
X183623809Y-105967380D02*
X183528571Y-106015000D01*
X183528571Y-106015000D02*
X183480952Y-106062619D01*
X183480952Y-106062619D02*
X183385714Y-106205476D01*
X183385714Y-106205476D02*
X183338095Y-106395952D01*
X183338095Y-106395952D02*
X183338095Y-106776904D01*
X183338095Y-106776904D02*
X183385714Y-106872142D01*
X183385714Y-106872142D02*
X183433333Y-106919761D01*
X183433333Y-106919761D02*
X183528571Y-106967380D01*
X183528571Y-106967380D02*
X183719047Y-106967380D01*
X183719047Y-106967380D02*
X183814285Y-106919761D01*
X183814285Y-106919761D02*
X183861904Y-106872142D01*
X183861904Y-106872142D02*
X183909523Y-106776904D01*
X183909523Y-106776904D02*
X183909523Y-106538809D01*
X183909523Y-106538809D02*
X183861904Y-106443571D01*
X183861904Y-106443571D02*
X183814285Y-106395952D01*
X183814285Y-106395952D02*
X183719047Y-106348333D01*
X183719047Y-106348333D02*
X183528571Y-106348333D01*
X183528571Y-106348333D02*
X183433333Y-106395952D01*
X183433333Y-106395952D02*
X183385714Y-106443571D01*
X183385714Y-106443571D02*
X183338095Y-106538809D01*
X182814285Y-98395000D02*
X182719047Y-98347380D01*
X182719047Y-98347380D02*
X182576190Y-98347380D01*
X182576190Y-98347380D02*
X182433333Y-98395000D01*
X182433333Y-98395000D02*
X182338095Y-98490238D01*
X182338095Y-98490238D02*
X182290476Y-98585476D01*
X182290476Y-98585476D02*
X182242857Y-98775952D01*
X182242857Y-98775952D02*
X182242857Y-98918809D01*
X182242857Y-98918809D02*
X182290476Y-99109285D01*
X182290476Y-99109285D02*
X182338095Y-99204523D01*
X182338095Y-99204523D02*
X182433333Y-99299761D01*
X182433333Y-99299761D02*
X182576190Y-99347380D01*
X182576190Y-99347380D02*
X182671428Y-99347380D01*
X182671428Y-99347380D02*
X182814285Y-99299761D01*
X182814285Y-99299761D02*
X182861904Y-99252142D01*
X182861904Y-99252142D02*
X182861904Y-98918809D01*
X182861904Y-98918809D02*
X182671428Y-98918809D01*
X183290476Y-99347380D02*
X183290476Y-98347380D01*
X183290476Y-98347380D02*
X183861904Y-99347380D01*
X183861904Y-99347380D02*
X183861904Y-98347380D01*
X182338095Y-100887380D02*
X182957142Y-100887380D01*
X182957142Y-100887380D02*
X182623809Y-101268333D01*
X182623809Y-101268333D02*
X182766666Y-101268333D01*
X182766666Y-101268333D02*
X182861904Y-101315952D01*
X182861904Y-101315952D02*
X182909523Y-101363571D01*
X182909523Y-101363571D02*
X182957142Y-101458809D01*
X182957142Y-101458809D02*
X182957142Y-101696904D01*
X182957142Y-101696904D02*
X182909523Y-101792142D01*
X182909523Y-101792142D02*
X182861904Y-101839761D01*
X182861904Y-101839761D02*
X182766666Y-101887380D01*
X182766666Y-101887380D02*
X182480952Y-101887380D01*
X182480952Y-101887380D02*
X182385714Y-101839761D01*
X182385714Y-101839761D02*
X182338095Y-101792142D01*
X183338095Y-100982619D02*
X183385714Y-100935000D01*
X183385714Y-100935000D02*
X183480952Y-100887380D01*
X183480952Y-100887380D02*
X183719047Y-100887380D01*
X183719047Y-100887380D02*
X183814285Y-100935000D01*
X183814285Y-100935000D02*
X183861904Y-100982619D01*
X183861904Y-100982619D02*
X183909523Y-101077857D01*
X183909523Y-101077857D02*
X183909523Y-101173095D01*
X183909523Y-101173095D02*
X183861904Y-101315952D01*
X183861904Y-101315952D02*
X183290476Y-101887380D01*
X183290476Y-101887380D02*
X183909523Y-101887380D01*
X195021904Y-72995000D02*
X194926666Y-72947380D01*
X194926666Y-72947380D02*
X194783809Y-72947380D01*
X194783809Y-72947380D02*
X194640952Y-72995000D01*
X194640952Y-72995000D02*
X194545714Y-73090238D01*
X194545714Y-73090238D02*
X194498095Y-73185476D01*
X194498095Y-73185476D02*
X194450476Y-73375952D01*
X194450476Y-73375952D02*
X194450476Y-73518809D01*
X194450476Y-73518809D02*
X194498095Y-73709285D01*
X194498095Y-73709285D02*
X194545714Y-73804523D01*
X194545714Y-73804523D02*
X194640952Y-73899761D01*
X194640952Y-73899761D02*
X194783809Y-73947380D01*
X194783809Y-73947380D02*
X194879047Y-73947380D01*
X194879047Y-73947380D02*
X195021904Y-73899761D01*
X195021904Y-73899761D02*
X195069523Y-73852142D01*
X195069523Y-73852142D02*
X195069523Y-73518809D01*
X195069523Y-73518809D02*
X194879047Y-73518809D01*
X195498095Y-73947380D02*
X195498095Y-72947380D01*
X195498095Y-72947380D02*
X196069523Y-73947380D01*
X196069523Y-73947380D02*
X196069523Y-72947380D01*
X182957142Y-81567380D02*
X182385714Y-81567380D01*
X182671428Y-81567380D02*
X182671428Y-80567380D01*
X182671428Y-80567380D02*
X182576190Y-80710238D01*
X182576190Y-80710238D02*
X182480952Y-80805476D01*
X182480952Y-80805476D02*
X182385714Y-80853095D01*
X183814285Y-80567380D02*
X183623809Y-80567380D01*
X183623809Y-80567380D02*
X183528571Y-80615000D01*
X183528571Y-80615000D02*
X183480952Y-80662619D01*
X183480952Y-80662619D02*
X183385714Y-80805476D01*
X183385714Y-80805476D02*
X183338095Y-80995952D01*
X183338095Y-80995952D02*
X183338095Y-81376904D01*
X183338095Y-81376904D02*
X183385714Y-81472142D01*
X183385714Y-81472142D02*
X183433333Y-81519761D01*
X183433333Y-81519761D02*
X183528571Y-81567380D01*
X183528571Y-81567380D02*
X183719047Y-81567380D01*
X183719047Y-81567380D02*
X183814285Y-81519761D01*
X183814285Y-81519761D02*
X183861904Y-81472142D01*
X183861904Y-81472142D02*
X183909523Y-81376904D01*
X183909523Y-81376904D02*
X183909523Y-81138809D01*
X183909523Y-81138809D02*
X183861904Y-81043571D01*
X183861904Y-81043571D02*
X183814285Y-80995952D01*
X183814285Y-80995952D02*
X183719047Y-80948333D01*
X183719047Y-80948333D02*
X183528571Y-80948333D01*
X183528571Y-80948333D02*
X183433333Y-80995952D01*
X183433333Y-80995952D02*
X183385714Y-81043571D01*
X183385714Y-81043571D02*
X183338095Y-81138809D01*
X195021904Y-93315000D02*
X194926666Y-93267380D01*
X194926666Y-93267380D02*
X194783809Y-93267380D01*
X194783809Y-93267380D02*
X194640952Y-93315000D01*
X194640952Y-93315000D02*
X194545714Y-93410238D01*
X194545714Y-93410238D02*
X194498095Y-93505476D01*
X194498095Y-93505476D02*
X194450476Y-93695952D01*
X194450476Y-93695952D02*
X194450476Y-93838809D01*
X194450476Y-93838809D02*
X194498095Y-94029285D01*
X194498095Y-94029285D02*
X194545714Y-94124523D01*
X194545714Y-94124523D02*
X194640952Y-94219761D01*
X194640952Y-94219761D02*
X194783809Y-94267380D01*
X194783809Y-94267380D02*
X194879047Y-94267380D01*
X194879047Y-94267380D02*
X195021904Y-94219761D01*
X195021904Y-94219761D02*
X195069523Y-94172142D01*
X195069523Y-94172142D02*
X195069523Y-93838809D01*
X195069523Y-93838809D02*
X194879047Y-93838809D01*
X195498095Y-94267380D02*
X195498095Y-93267380D01*
X195498095Y-93267380D02*
X196069523Y-94267380D01*
X196069523Y-94267380D02*
X196069523Y-93267380D01*
X182957142Y-76487380D02*
X182385714Y-76487380D01*
X182671428Y-76487380D02*
X182671428Y-75487380D01*
X182671428Y-75487380D02*
X182576190Y-75630238D01*
X182576190Y-75630238D02*
X182480952Y-75725476D01*
X182480952Y-75725476D02*
X182385714Y-75773095D01*
X183338095Y-75582619D02*
X183385714Y-75535000D01*
X183385714Y-75535000D02*
X183480952Y-75487380D01*
X183480952Y-75487380D02*
X183719047Y-75487380D01*
X183719047Y-75487380D02*
X183814285Y-75535000D01*
X183814285Y-75535000D02*
X183861904Y-75582619D01*
X183861904Y-75582619D02*
X183909523Y-75677857D01*
X183909523Y-75677857D02*
X183909523Y-75773095D01*
X183909523Y-75773095D02*
X183861904Y-75915952D01*
X183861904Y-75915952D02*
X183290476Y-76487380D01*
X183290476Y-76487380D02*
X183909523Y-76487380D01*
X182385714Y-90822619D02*
X182433333Y-90775000D01*
X182433333Y-90775000D02*
X182528571Y-90727380D01*
X182528571Y-90727380D02*
X182766666Y-90727380D01*
X182766666Y-90727380D02*
X182861904Y-90775000D01*
X182861904Y-90775000D02*
X182909523Y-90822619D01*
X182909523Y-90822619D02*
X182957142Y-90917857D01*
X182957142Y-90917857D02*
X182957142Y-91013095D01*
X182957142Y-91013095D02*
X182909523Y-91155952D01*
X182909523Y-91155952D02*
X182338095Y-91727380D01*
X182338095Y-91727380D02*
X182957142Y-91727380D01*
X183814285Y-91060714D02*
X183814285Y-91727380D01*
X183576190Y-90679761D02*
X183338095Y-91394047D01*
X183338095Y-91394047D02*
X183957142Y-91394047D01*
X194260000Y-112392000D02*
X196038000Y-112392000D01*
X194260000Y-112392000D02*
X194260000Y-110868000D01*
X194260000Y-94612000D02*
X196038000Y-94612000D01*
X194260000Y-94612000D02*
X194260000Y-93088000D01*
X194260000Y-84452000D02*
X194260000Y-82928000D01*
X194260000Y-74292000D02*
X196038000Y-74292000D01*
X194260000Y-74038000D02*
X194260000Y-74292000D01*
X194260000Y-74038000D02*
X194260000Y-72768000D01*
X194260000Y-64132000D02*
X194260000Y-62608000D01*
X184100000Y-104772000D02*
X184100000Y-103248000D01*
X184100000Y-104772000D02*
X182322000Y-104772000D01*
X184100000Y-99692000D02*
X184100000Y-98168000D01*
X184100000Y-99692000D02*
X182322000Y-99692000D01*
X184100000Y-86992000D02*
X184100000Y-85468000D01*
X184100000Y-86992000D02*
X182322000Y-86992000D01*
X184100000Y-79372000D02*
X184100000Y-77848000D01*
X184100000Y-79372000D02*
X182322000Y-79372000D01*
X184100000Y-69212000D02*
X184100000Y-67688000D01*
X184100000Y-69212000D02*
X182322000Y-69212000D01*
X184100000Y-66672000D02*
X184100000Y-65148000D01*
X184100000Y-64132000D02*
X184100000Y-62608000D01*
D12*
%TO.C,D3*%
X197425000Y-108417500D02*
X197425000Y-107767500D01*
X196305000Y-107767500D02*
X198545000Y-107767500D01*
X198545000Y-107767500D02*
X198545000Y-103527500D01*
X196305000Y-107167500D02*
X198545000Y-107167500D01*
X196305000Y-107047500D02*
X198545000Y-107047500D01*
X196305000Y-106927500D02*
X198545000Y-106927500D01*
X196305000Y-103527500D02*
X196305000Y-107767500D01*
X198545000Y-103527500D02*
X196305000Y-103527500D01*
X197425000Y-102877500D02*
X197425000Y-103527500D01*
%TO.C,D5*%
X216475000Y-89367500D02*
X216475000Y-88717500D01*
X215355000Y-88717500D02*
X217595000Y-88717500D01*
X217595000Y-88717500D02*
X217595000Y-84477500D01*
X215355000Y-88117500D02*
X217595000Y-88117500D01*
X215355000Y-87997500D02*
X217595000Y-87997500D01*
X215355000Y-87877500D02*
X217595000Y-87877500D01*
X215355000Y-84477500D02*
X215355000Y-88717500D01*
X217595000Y-84477500D02*
X215355000Y-84477500D01*
X216475000Y-83827500D02*
X216475000Y-84477500D01*
%TO.C,G\u002A\u002A\u002A*%
G36*
X150409189Y-105444325D02*
G01*
X150409189Y-105959189D01*
X149894325Y-105959189D01*
X149379460Y-105959189D01*
X149379460Y-105444325D01*
X149379460Y-104929460D01*
X149894325Y-104929460D01*
X150409189Y-104929460D01*
X150409189Y-105444325D01*
G37*
G36*
X150409189Y-112995676D02*
G01*
X150409189Y-113510541D01*
X149894325Y-113510541D01*
X149379460Y-113510541D01*
X149379460Y-112995676D01*
X149379460Y-112480811D01*
X149894325Y-112480811D01*
X150409189Y-112480811D01*
X150409189Y-112995676D01*
G37*
G36*
X151095676Y-108533514D02*
G01*
X151095676Y-108705135D01*
X150924054Y-108705135D01*
X150752433Y-108705135D01*
X150752433Y-108533514D01*
X150752433Y-108361892D01*
X150924054Y-108361892D01*
X151095676Y-108361892D01*
X151095676Y-108533514D01*
G37*
G36*
X151095676Y-109220000D02*
G01*
X151095676Y-109391622D01*
X150924054Y-109391622D01*
X150752433Y-109391622D01*
X150752433Y-109220000D01*
X150752433Y-109048379D01*
X150924054Y-109048379D01*
X151095676Y-109048379D01*
X151095676Y-109220000D01*
G37*
G36*
X151095676Y-111279460D02*
G01*
X151095676Y-111451081D01*
X150924054Y-111451081D01*
X150752433Y-111451081D01*
X150752433Y-111279460D01*
X150752433Y-111107838D01*
X150924054Y-111107838D01*
X151095676Y-111107838D01*
X151095676Y-111279460D01*
G37*
G36*
X151782162Y-108876757D02*
G01*
X151782162Y-109048379D01*
X151610541Y-109048379D01*
X151438919Y-109048379D01*
X151438919Y-108876757D01*
X151438919Y-108705135D01*
X151610541Y-108705135D01*
X151782162Y-108705135D01*
X151782162Y-108876757D01*
G37*
G36*
X151782162Y-109563244D02*
G01*
X151782162Y-109734865D01*
X151438919Y-109734865D01*
X151095676Y-109734865D01*
X151095676Y-109563244D01*
X151095676Y-109391622D01*
X151438919Y-109391622D01*
X151782162Y-109391622D01*
X151782162Y-109563244D01*
G37*
G36*
X152125406Y-111451081D02*
G01*
X152125406Y-111794325D01*
X151782162Y-111794325D01*
X151438919Y-111794325D01*
X151438919Y-111451081D01*
X151438919Y-111107838D01*
X151782162Y-111107838D01*
X152125406Y-111107838D01*
X152125406Y-111451081D01*
G37*
G36*
X152468649Y-106474054D02*
G01*
X152468649Y-106645676D01*
X152297027Y-106645676D01*
X152125406Y-106645676D01*
X152125406Y-106474054D01*
X152125406Y-106302433D01*
X152297027Y-106302433D01*
X152468649Y-106302433D01*
X152468649Y-106474054D01*
G37*
G36*
X153155135Y-107847027D02*
G01*
X153155135Y-108018649D01*
X152983514Y-108018649D01*
X152811892Y-108018649D01*
X152811892Y-107847027D01*
X152811892Y-107675406D01*
X152983514Y-107675406D01*
X153155135Y-107675406D01*
X153155135Y-107847027D01*
G37*
G36*
X153498379Y-108876757D02*
G01*
X153498379Y-109048379D01*
X153155135Y-109048379D01*
X152811892Y-109048379D01*
X152811892Y-108876757D01*
X152811892Y-108705135D01*
X153155135Y-108705135D01*
X153498379Y-108705135D01*
X153498379Y-108876757D01*
G37*
G36*
X153841622Y-109563244D02*
G01*
X153841622Y-109734865D01*
X153670000Y-109734865D01*
X153498379Y-109734865D01*
X153498379Y-109563244D01*
X153498379Y-109391622D01*
X153670000Y-109391622D01*
X153841622Y-109391622D01*
X153841622Y-109563244D01*
G37*
G36*
X153841622Y-114025406D02*
G01*
X153841622Y-114197027D01*
X153670000Y-114197027D01*
X153498379Y-114197027D01*
X153498379Y-114025406D01*
X153498379Y-113853784D01*
X153670000Y-113853784D01*
X153841622Y-113853784D01*
X153841622Y-114025406D01*
G37*
G36*
X155214595Y-106302433D02*
G01*
X155214595Y-106645676D01*
X155042973Y-106645676D01*
X154871352Y-106645676D01*
X154871352Y-106302433D01*
X154871352Y-105959189D01*
X155042973Y-105959189D01*
X155214595Y-105959189D01*
X155214595Y-106302433D01*
G37*
G36*
X155214595Y-113682162D02*
G01*
X155214595Y-113853784D01*
X155042973Y-113853784D01*
X154871352Y-113853784D01*
X154871352Y-113682162D01*
X154871352Y-113510541D01*
X155042973Y-113510541D01*
X155214595Y-113510541D01*
X155214595Y-113682162D01*
G37*
G36*
X155557838Y-104757838D02*
G01*
X155557838Y-104929460D01*
X155386216Y-104929460D01*
X155214595Y-104929460D01*
X155214595Y-104757838D01*
X155214595Y-104586216D01*
X155386216Y-104586216D01*
X155557838Y-104586216D01*
X155557838Y-104757838D01*
G37*
G36*
X155901081Y-114025406D02*
G01*
X155901081Y-114197027D01*
X155557838Y-114197027D01*
X155214595Y-114197027D01*
X155214595Y-114025406D01*
X155214595Y-113853784D01*
X155557838Y-113853784D01*
X155901081Y-113853784D01*
X155901081Y-114025406D01*
G37*
G36*
X156587568Y-111965946D02*
G01*
X156587568Y-112137568D01*
X156415946Y-112137568D01*
X156244325Y-112137568D01*
X156244325Y-111965946D01*
X156244325Y-111794325D01*
X156415946Y-111794325D01*
X156587568Y-111794325D01*
X156587568Y-111965946D01*
G37*
G36*
X157960541Y-105444325D02*
G01*
X157960541Y-105959189D01*
X157445676Y-105959189D01*
X156930811Y-105959189D01*
X156930811Y-105444325D01*
X156930811Y-104929460D01*
X157445676Y-104929460D01*
X157960541Y-104929460D01*
X157960541Y-105444325D01*
G37*
G36*
X158647027Y-110592973D02*
G01*
X158647027Y-110764595D01*
X158475406Y-110764595D01*
X158303784Y-110764595D01*
X158303784Y-110592973D01*
X158303784Y-110421352D01*
X158475406Y-110421352D01*
X158647027Y-110421352D01*
X158647027Y-110592973D01*
G37*
G36*
X158647027Y-112309189D02*
G01*
X158647027Y-112480811D01*
X158475406Y-112480811D01*
X158303784Y-112480811D01*
X158303784Y-112652433D01*
X158303784Y-112824054D01*
X158132162Y-112824054D01*
X157960541Y-112824054D01*
X157960541Y-112480811D01*
X157960541Y-112137568D01*
X158303784Y-112137568D01*
X158647027Y-112137568D01*
X158647027Y-112309189D01*
G37*
G36*
X152468649Y-107503784D02*
G01*
X152468649Y-107675406D01*
X152297027Y-107675406D01*
X152125406Y-107675406D01*
X152125406Y-107847027D01*
X152125406Y-108018649D01*
X151953784Y-108018649D01*
X151782162Y-108018649D01*
X151782162Y-107847027D01*
X151782162Y-107675406D01*
X151953784Y-107675406D01*
X152125406Y-107675406D01*
X152125406Y-107503784D01*
X152125406Y-107332162D01*
X152297027Y-107332162D01*
X152468649Y-107332162D01*
X152468649Y-107503784D01*
G37*
G36*
X153155135Y-106474054D02*
G01*
X153155135Y-106645676D01*
X153326757Y-106645676D01*
X153498379Y-106645676D01*
X153498379Y-106817298D01*
X153498379Y-106988919D01*
X153326757Y-106988919D01*
X153155135Y-106988919D01*
X153155135Y-107160541D01*
X153155135Y-107332162D01*
X152983514Y-107332162D01*
X152811892Y-107332162D01*
X152811892Y-106817298D01*
X152811892Y-106302433D01*
X152983514Y-106302433D01*
X153155135Y-106302433D01*
X153155135Y-106474054D01*
G37*
G36*
X155214595Y-105444325D02*
G01*
X155214595Y-105615946D01*
X155042973Y-105615946D01*
X154871352Y-105615946D01*
X154871352Y-105787568D01*
X154871352Y-105959189D01*
X154528108Y-105959189D01*
X154184865Y-105959189D01*
X154184865Y-105787568D01*
X154184865Y-105615946D01*
X154356487Y-105615946D01*
X154528108Y-105615946D01*
X154528108Y-105444325D01*
X154528108Y-105272703D01*
X154871352Y-105272703D01*
X155214595Y-105272703D01*
X155214595Y-105444325D01*
G37*
G36*
X155901081Y-105272703D02*
G01*
X155901081Y-105615946D01*
X155729460Y-105615946D01*
X155557838Y-105615946D01*
X155557838Y-105787568D01*
X155557838Y-105959189D01*
X155386216Y-105959189D01*
X155214595Y-105959189D01*
X155214595Y-105787568D01*
X155214595Y-105615946D01*
X155386216Y-105615946D01*
X155557838Y-105615946D01*
X155557838Y-105272703D01*
X155557838Y-104929460D01*
X155729460Y-104929460D01*
X155901081Y-104929460D01*
X155901081Y-105272703D01*
G37*
G36*
X156587568Y-107160541D02*
G01*
X156587568Y-107332162D01*
X156415946Y-107332162D01*
X156244325Y-107332162D01*
X156244325Y-107503784D01*
X156244325Y-107675406D01*
X156072703Y-107675406D01*
X155901081Y-107675406D01*
X155901081Y-107503784D01*
X155901081Y-107332162D01*
X156072703Y-107332162D01*
X156244325Y-107332162D01*
X156244325Y-107160541D01*
X156244325Y-106988919D01*
X156415946Y-106988919D01*
X156587568Y-106988919D01*
X156587568Y-107160541D01*
G37*
G36*
X151095676Y-105444325D02*
G01*
X151095676Y-106645676D01*
X149894325Y-106645676D01*
X148692973Y-106645676D01*
X148692973Y-105444325D01*
X148692973Y-104586216D01*
X149036216Y-104586216D01*
X149036216Y-105444325D01*
X149036216Y-106302433D01*
X149894325Y-106302433D01*
X150752433Y-106302433D01*
X150752433Y-105444325D01*
X150752433Y-104586216D01*
X149894325Y-104586216D01*
X149036216Y-104586216D01*
X148692973Y-104586216D01*
X148692973Y-104242973D01*
X149894325Y-104242973D01*
X151095676Y-104242973D01*
X151095676Y-105444325D01*
G37*
G36*
X151095676Y-112995676D02*
G01*
X151095676Y-114197027D01*
X149894325Y-114197027D01*
X148692973Y-114197027D01*
X148692973Y-112995676D01*
X148692973Y-112137568D01*
X149036216Y-112137568D01*
X149036216Y-112995676D01*
X149036216Y-113853784D01*
X149894325Y-113853784D01*
X150752433Y-113853784D01*
X150752433Y-112995676D01*
X150752433Y-112137568D01*
X149894325Y-112137568D01*
X149036216Y-112137568D01*
X148692973Y-112137568D01*
X148692973Y-111794325D01*
X149894325Y-111794325D01*
X151095676Y-111794325D01*
X151095676Y-112995676D01*
G37*
G36*
X158647027Y-105444325D02*
G01*
X158647027Y-106645676D01*
X157445676Y-106645676D01*
X156244325Y-106645676D01*
X156244325Y-105444325D01*
X156244325Y-104586216D01*
X156587568Y-104586216D01*
X156587568Y-105444325D01*
X156587568Y-106302433D01*
X157445676Y-106302433D01*
X158303784Y-106302433D01*
X158303784Y-105444325D01*
X158303784Y-104586216D01*
X157445676Y-104586216D01*
X156587568Y-104586216D01*
X156244325Y-104586216D01*
X156244325Y-104242973D01*
X157445676Y-104242973D01*
X158647027Y-104242973D01*
X158647027Y-105444325D01*
G37*
G36*
X158647027Y-113338919D02*
G01*
X158647027Y-113853784D01*
X158475406Y-113853784D01*
X158303784Y-113853784D01*
X158303784Y-113682162D01*
X158303784Y-113510541D01*
X158132162Y-113510541D01*
X157960541Y-113510541D01*
X157960541Y-113682162D01*
X157960541Y-113853784D01*
X157617298Y-113853784D01*
X157274054Y-113853784D01*
X157274054Y-114025406D01*
X157274054Y-114197027D01*
X157102433Y-114197027D01*
X156930811Y-114197027D01*
X156930811Y-114025406D01*
X156930811Y-113853784D01*
X156759189Y-113853784D01*
X156587568Y-113853784D01*
X156587568Y-114025406D01*
X156587568Y-114197027D01*
X156415946Y-114197027D01*
X156244325Y-114197027D01*
X156244325Y-113853784D01*
X156244325Y-113510541D01*
X156415946Y-113510541D01*
X156587568Y-113510541D01*
X156930811Y-113510541D01*
X156930811Y-113682162D01*
X156930811Y-113853784D01*
X157102433Y-113853784D01*
X157274054Y-113853784D01*
X157274054Y-113682162D01*
X157274054Y-113510541D01*
X157102433Y-113510541D01*
X156930811Y-113510541D01*
X156587568Y-113510541D01*
X156587568Y-113338919D01*
X156587568Y-113167298D01*
X156930811Y-113167298D01*
X157274054Y-113167298D01*
X157274054Y-113338919D01*
X157274054Y-113510541D01*
X157445676Y-113510541D01*
X157617298Y-113510541D01*
X157617298Y-113338919D01*
X157617298Y-113167298D01*
X157960541Y-113167298D01*
X158303784Y-113167298D01*
X158303784Y-112995676D01*
X158303784Y-112824054D01*
X158475406Y-112824054D01*
X158647027Y-112824054D01*
X158647027Y-113338919D01*
G37*
G36*
X152811892Y-111965946D02*
G01*
X152811892Y-112137568D01*
X152983514Y-112137568D01*
X153155135Y-112137568D01*
X153155135Y-111965946D01*
X153155135Y-111794325D01*
X153498379Y-111794325D01*
X153498379Y-112309189D01*
X153498379Y-112824054D01*
X153670000Y-112824054D01*
X153841622Y-112824054D01*
X153841622Y-112309189D01*
X153841622Y-112137568D01*
X154184865Y-112137568D01*
X154184865Y-112309189D01*
X154184865Y-112480811D01*
X154356487Y-112480811D01*
X154528108Y-112480811D01*
X154528108Y-112652433D01*
X154528108Y-112824054D01*
X154871352Y-112824054D01*
X155214595Y-112824054D01*
X155214595Y-112480811D01*
X155214595Y-112137568D01*
X155042973Y-112137568D01*
X154871352Y-112137568D01*
X154871352Y-112309189D01*
X154871352Y-112480811D01*
X154699730Y-112480811D01*
X154528108Y-112480811D01*
X154528108Y-112309189D01*
X154528108Y-112137568D01*
X154356487Y-112137568D01*
X154184865Y-112137568D01*
X153841622Y-112137568D01*
X153841622Y-111794325D01*
X153670000Y-111794325D01*
X153498379Y-111794325D01*
X153155135Y-111794325D01*
X152983514Y-111794325D01*
X152811892Y-111794325D01*
X152811892Y-111622703D01*
X152811892Y-111451081D01*
X152640271Y-111451081D01*
X152468649Y-111451081D01*
X152468649Y-111107838D01*
X152468649Y-110764595D01*
X152640271Y-110764595D01*
X152811892Y-110764595D01*
X152811892Y-111107838D01*
X152811892Y-111451081D01*
X152983514Y-111451081D01*
X153155135Y-111451081D01*
X153155135Y-111107838D01*
X153498379Y-111107838D01*
X153498379Y-111279460D01*
X153498379Y-111451081D01*
X153841622Y-111451081D01*
X154184865Y-111451081D01*
X154184865Y-111622703D01*
X154184865Y-111794325D01*
X154356487Y-111794325D01*
X154528108Y-111794325D01*
X154528108Y-111622703D01*
X154528108Y-111451081D01*
X154356487Y-111451081D01*
X154184865Y-111451081D01*
X154184865Y-111279460D01*
X154184865Y-111107838D01*
X153841622Y-111107838D01*
X153498379Y-111107838D01*
X153155135Y-111107838D01*
X153155135Y-110764595D01*
X152983514Y-110764595D01*
X152811892Y-110764595D01*
X152811892Y-110592973D01*
X152811892Y-110421352D01*
X153155135Y-110421352D01*
X153498379Y-110421352D01*
X153498379Y-110592973D01*
X153498379Y-110764595D01*
X153670000Y-110764595D01*
X153841622Y-110764595D01*
X153841622Y-110421352D01*
X153841622Y-110078108D01*
X154356487Y-110078108D01*
X154871352Y-110078108D01*
X154871352Y-110421352D01*
X154871352Y-110764595D01*
X154699730Y-110764595D01*
X154528108Y-110764595D01*
X154528108Y-110592973D01*
X154528108Y-110421352D01*
X154356487Y-110421352D01*
X154184865Y-110421352D01*
X154184865Y-110592973D01*
X154184865Y-110764595D01*
X154356487Y-110764595D01*
X154528108Y-110764595D01*
X154528108Y-110936216D01*
X154528108Y-111107838D01*
X154699730Y-111107838D01*
X154871352Y-111107838D01*
X154871352Y-111279460D01*
X154871352Y-111451081D01*
X155042973Y-111451081D01*
X155214595Y-111451081D01*
X155214595Y-111622703D01*
X155214595Y-111794325D01*
X155386216Y-111794325D01*
X155557838Y-111794325D01*
X155557838Y-111451081D01*
X155901081Y-111451081D01*
X155901081Y-111965946D01*
X155901081Y-112480811D01*
X156415946Y-112480811D01*
X156930811Y-112480811D01*
X156930811Y-111965946D01*
X156930811Y-111451081D01*
X156415946Y-111451081D01*
X155901081Y-111451081D01*
X155557838Y-111451081D01*
X155557838Y-111107838D01*
X155901081Y-111107838D01*
X156244325Y-111107838D01*
X156244325Y-110936216D01*
X156244325Y-110764595D01*
X156415946Y-110764595D01*
X156587568Y-110764595D01*
X156587568Y-110936216D01*
X156587568Y-111107838D01*
X156930811Y-111107838D01*
X157274054Y-111107838D01*
X157274054Y-110936216D01*
X157274054Y-110764595D01*
X157102433Y-110764595D01*
X156930811Y-110764595D01*
X156930811Y-110421352D01*
X156930811Y-110078108D01*
X157102433Y-110078108D01*
X157274054Y-110078108D01*
X157274054Y-109906487D01*
X157274054Y-109734865D01*
X157445676Y-109734865D01*
X157617298Y-109734865D01*
X157617298Y-109391622D01*
X157617298Y-109048379D01*
X157445676Y-109048379D01*
X157274054Y-109048379D01*
X157274054Y-109391622D01*
X157274054Y-109734865D01*
X156930811Y-109734865D01*
X156587568Y-109734865D01*
X156587568Y-109563244D01*
X156587568Y-109391622D01*
X156759189Y-109391622D01*
X156930811Y-109391622D01*
X156930811Y-109220000D01*
X156930811Y-109048379D01*
X156759189Y-109048379D01*
X156587568Y-109048379D01*
X156587568Y-109220000D01*
X156587568Y-109391622D01*
X156072703Y-109391622D01*
X155557838Y-109391622D01*
X155557838Y-109563244D01*
X155557838Y-109734865D01*
X155901081Y-109734865D01*
X156244325Y-109734865D01*
X156244325Y-109906487D01*
X156244325Y-110078108D01*
X155901081Y-110078108D01*
X155557838Y-110078108D01*
X155557838Y-110592973D01*
X155557838Y-111107838D01*
X155214595Y-111107838D01*
X154871352Y-111107838D01*
X154871352Y-110936216D01*
X154871352Y-110764595D01*
X155042973Y-110764595D01*
X155214595Y-110764595D01*
X155214595Y-109906487D01*
X155214595Y-109048379D01*
X155042973Y-109048379D01*
X154871352Y-109048379D01*
X154871352Y-109220000D01*
X154871352Y-109391622D01*
X154699730Y-109391622D01*
X154528108Y-109391622D01*
X154528108Y-109220000D01*
X154528108Y-109048379D01*
X154356487Y-109048379D01*
X154184865Y-109048379D01*
X154184865Y-109220000D01*
X154184865Y-109391622D01*
X154013244Y-109391622D01*
X153841622Y-109391622D01*
X153841622Y-109048379D01*
X153841622Y-108705135D01*
X154013244Y-108705135D01*
X154184865Y-108705135D01*
X154184865Y-108533514D01*
X154184865Y-108361892D01*
X154528108Y-108361892D01*
X154528108Y-108533514D01*
X154528108Y-108705135D01*
X154699730Y-108705135D01*
X154871352Y-108705135D01*
X154871352Y-108533514D01*
X154871352Y-108361892D01*
X154699730Y-108361892D01*
X154528108Y-108361892D01*
X154184865Y-108361892D01*
X153841622Y-108361892D01*
X153498379Y-108361892D01*
X153498379Y-107675406D01*
X153498379Y-106988919D01*
X153841622Y-106988919D01*
X154184865Y-106988919D01*
X154184865Y-106645676D01*
X154184865Y-106302433D01*
X154356487Y-106302433D01*
X154528108Y-106302433D01*
X154528108Y-106645676D01*
X154528108Y-106988919D01*
X154871352Y-106988919D01*
X155214595Y-106988919D01*
X155214595Y-106817298D01*
X155214595Y-106645676D01*
X155386216Y-106645676D01*
X155557838Y-106645676D01*
X155557838Y-106302433D01*
X155557838Y-105959189D01*
X155729460Y-105959189D01*
X155901081Y-105959189D01*
X155901081Y-106474054D01*
X155901081Y-106988919D01*
X155729460Y-106988919D01*
X155557838Y-106988919D01*
X155557838Y-107332162D01*
X155557838Y-107675406D01*
X155386216Y-107675406D01*
X155214595Y-107675406D01*
X155214595Y-107503784D01*
X155214595Y-107332162D01*
X154699730Y-107332162D01*
X154184865Y-107332162D01*
X154184865Y-107503784D01*
X154184865Y-107675406D01*
X154528108Y-107675406D01*
X154871352Y-107675406D01*
X154871352Y-108018649D01*
X154871352Y-108361892D01*
X155042973Y-108361892D01*
X155214595Y-108361892D01*
X155214595Y-108190271D01*
X155214595Y-108018649D01*
X155386216Y-108018649D01*
X155557838Y-108018649D01*
X155557838Y-108361892D01*
X155557838Y-108705135D01*
X155386216Y-108705135D01*
X155214595Y-108705135D01*
X155214595Y-108876757D01*
X155214595Y-109048379D01*
X155729460Y-109048379D01*
X156244325Y-109048379D01*
X156244325Y-108705135D01*
X156244325Y-108361892D01*
X156072703Y-108361892D01*
X155901081Y-108361892D01*
X155901081Y-108190271D01*
X155901081Y-108018649D01*
X156244325Y-108018649D01*
X156587568Y-108018649D01*
X156587568Y-107675406D01*
X156587568Y-107332162D01*
X156930811Y-107332162D01*
X157274054Y-107332162D01*
X157274054Y-107675406D01*
X157274054Y-108018649D01*
X157445676Y-108018649D01*
X157617298Y-108018649D01*
X157617298Y-107675406D01*
X157617298Y-107332162D01*
X157960541Y-107332162D01*
X158303784Y-107332162D01*
X158303784Y-107160541D01*
X158303784Y-106988919D01*
X158475406Y-106988919D01*
X158647027Y-106988919D01*
X158647027Y-107160541D01*
X158647027Y-107332162D01*
X158475406Y-107332162D01*
X158303784Y-107332162D01*
X158303784Y-107503784D01*
X158303784Y-107675406D01*
X158132162Y-107675406D01*
X157960541Y-107675406D01*
X157960541Y-107847027D01*
X157960541Y-108018649D01*
X157788919Y-108018649D01*
X157617298Y-108018649D01*
X157617298Y-108190271D01*
X157617298Y-108361892D01*
X157445676Y-108361892D01*
X157274054Y-108361892D01*
X157274054Y-108190271D01*
X157274054Y-108018649D01*
X157102433Y-108018649D01*
X156930811Y-108018649D01*
X156930811Y-108361892D01*
X156930811Y-108705135D01*
X157617298Y-108705135D01*
X158303784Y-108705135D01*
X158303784Y-108361892D01*
X158303784Y-108018649D01*
X158475406Y-108018649D01*
X158647027Y-108018649D01*
X158647027Y-108876757D01*
X158647027Y-109734865D01*
X158475406Y-109734865D01*
X158303784Y-109734865D01*
X158303784Y-109391622D01*
X158303784Y-109048379D01*
X158132162Y-109048379D01*
X157960541Y-109048379D01*
X157960541Y-109391622D01*
X157960541Y-109734865D01*
X157788919Y-109734865D01*
X157617298Y-109734865D01*
X157617298Y-109906487D01*
X157617298Y-110078108D01*
X157445676Y-110078108D01*
X157274054Y-110078108D01*
X157274054Y-110249730D01*
X157274054Y-110421352D01*
X157445676Y-110421352D01*
X157617298Y-110421352D01*
X157617298Y-110249730D01*
X157617298Y-110078108D01*
X157960541Y-110078108D01*
X158303784Y-110078108D01*
X158303784Y-110249730D01*
X158303784Y-110421352D01*
X157960541Y-110421352D01*
X157617298Y-110421352D01*
X157617298Y-110592973D01*
X157617298Y-110764595D01*
X157788919Y-110764595D01*
X157960541Y-110764595D01*
X157960541Y-110936216D01*
X157960541Y-111107838D01*
X158132162Y-111107838D01*
X158303784Y-111107838D01*
X158303784Y-111279460D01*
X158303784Y-111451081D01*
X157960541Y-111451081D01*
X157617298Y-111451081D01*
X157617298Y-111794325D01*
X157617298Y-112137568D01*
X157445676Y-112137568D01*
X157274054Y-112137568D01*
X157274054Y-112309189D01*
X157274054Y-112480811D01*
X157445676Y-112480811D01*
X157617298Y-112480811D01*
X157617298Y-112652433D01*
X157617298Y-112824054D01*
X156930811Y-112824054D01*
X156244325Y-112824054D01*
X156244325Y-113167298D01*
X156244325Y-113510541D01*
X155901081Y-113510541D01*
X155557838Y-113510541D01*
X155557838Y-113338919D01*
X155557838Y-113167298D01*
X155729460Y-113167298D01*
X155901081Y-113167298D01*
X155901081Y-112995676D01*
X155901081Y-112824054D01*
X155557838Y-112824054D01*
X155214595Y-112824054D01*
X155214595Y-112995676D01*
X155214595Y-113167298D01*
X155042973Y-113167298D01*
X154871352Y-113167298D01*
X154871352Y-113338919D01*
X154871352Y-113510541D01*
X154699730Y-113510541D01*
X154528108Y-113510541D01*
X154528108Y-113853784D01*
X154528108Y-114197027D01*
X154356487Y-114197027D01*
X154184865Y-114197027D01*
X154184865Y-113853784D01*
X154184865Y-113510541D01*
X154013244Y-113510541D01*
X153841622Y-113510541D01*
X153841622Y-113338919D01*
X153841622Y-113167298D01*
X154184865Y-113167298D01*
X154184865Y-113338919D01*
X154184865Y-113510541D01*
X154356487Y-113510541D01*
X154528108Y-113510541D01*
X154528108Y-113338919D01*
X154528108Y-113167298D01*
X154356487Y-113167298D01*
X154184865Y-113167298D01*
X153841622Y-113167298D01*
X153670000Y-113167298D01*
X153498379Y-113167298D01*
X153498379Y-113338919D01*
X153498379Y-113510541D01*
X153155135Y-113510541D01*
X152811892Y-113510541D01*
X152811892Y-113682162D01*
X152811892Y-113853784D01*
X152640271Y-113853784D01*
X152468649Y-113853784D01*
X152468649Y-114025406D01*
X152468649Y-114197027D01*
X151953784Y-114197027D01*
X151438919Y-114197027D01*
X151438919Y-113853784D01*
X151438919Y-113510541D01*
X151610541Y-113510541D01*
X151782162Y-113510541D01*
X151782162Y-113338919D01*
X151782162Y-113167298D01*
X151610541Y-113167298D01*
X151438919Y-113167298D01*
X151438919Y-112824054D01*
X151438919Y-112480811D01*
X151610541Y-112480811D01*
X151782162Y-112480811D01*
X151782162Y-112652433D01*
X151782162Y-112824054D01*
X151953784Y-112824054D01*
X152125406Y-112824054D01*
X152125406Y-113167298D01*
X152125406Y-113510541D01*
X151953784Y-113510541D01*
X151782162Y-113510541D01*
X151782162Y-113682162D01*
X151782162Y-113853784D01*
X151953784Y-113853784D01*
X152125406Y-113853784D01*
X152125406Y-113682162D01*
X152125406Y-113510541D01*
X152297027Y-113510541D01*
X152468649Y-113510541D01*
X152468649Y-113338919D01*
X152468649Y-113167298D01*
X152811892Y-113167298D01*
X153155135Y-113167298D01*
X153155135Y-112995676D01*
X153155135Y-112824054D01*
X152811892Y-112824054D01*
X152468649Y-112824054D01*
X152468649Y-112652433D01*
X152468649Y-112480811D01*
X152125406Y-112480811D01*
X151782162Y-112480811D01*
X151782162Y-112309189D01*
X151782162Y-112137568D01*
X152125406Y-112137568D01*
X152468649Y-112137568D01*
X152468649Y-111965946D01*
X152468649Y-111794325D01*
X152640271Y-111794325D01*
X152811892Y-111794325D01*
X152811892Y-111965946D01*
G37*
G36*
X152125406Y-105272703D02*
G01*
X151953784Y-105272703D01*
X151782162Y-105272703D01*
X151782162Y-105101081D01*
X151782162Y-104929460D01*
X151953784Y-104929460D01*
X152125406Y-104929460D01*
X152125406Y-105101081D01*
X152125406Y-105272703D01*
X152297027Y-105272703D01*
X152468649Y-105272703D01*
X152811892Y-105272703D01*
X152811892Y-105615946D01*
X152983514Y-105615946D01*
X153155135Y-105615946D01*
X153155135Y-105272703D01*
X153155135Y-104929460D01*
X153326757Y-104929460D01*
X153498379Y-104929460D01*
X153498379Y-104757838D01*
X153498379Y-104586216D01*
X153326757Y-104586216D01*
X153155135Y-104586216D01*
X153155135Y-104757838D01*
X153155135Y-104929460D01*
X152983514Y-104929460D01*
X152811892Y-104929460D01*
X152811892Y-105272703D01*
X152468649Y-105272703D01*
X152468649Y-104929460D01*
X152468649Y-104586216D01*
X151953784Y-104586216D01*
X151438919Y-104586216D01*
X151438919Y-104414595D01*
X151438919Y-104242973D01*
X152125406Y-104242973D01*
X152811892Y-104242973D01*
X152811892Y-104414595D01*
X152811892Y-104586216D01*
X152983514Y-104586216D01*
X153155135Y-104586216D01*
X153155135Y-104414595D01*
X153155135Y-104242973D01*
X153498379Y-104242973D01*
X153841622Y-104242973D01*
X153841622Y-104586216D01*
X153841622Y-104929460D01*
X154013244Y-104929460D01*
X154184865Y-104929460D01*
X154184865Y-104757838D01*
X154184865Y-104586216D01*
X154528108Y-104586216D01*
X154871352Y-104586216D01*
X154871352Y-104414595D01*
X154871352Y-104242973D01*
X155042973Y-104242973D01*
X155214595Y-104242973D01*
X155214595Y-104414595D01*
X155214595Y-104586216D01*
X155042973Y-104586216D01*
X154871352Y-104586216D01*
X154871352Y-104757838D01*
X154871352Y-104929460D01*
X154699730Y-104929460D01*
X154528108Y-104929460D01*
X154528108Y-105101081D01*
X154528108Y-105272703D01*
X154356487Y-105272703D01*
X154184865Y-105272703D01*
X154184865Y-105444325D01*
X154184865Y-105615946D01*
X154013244Y-105615946D01*
X153841622Y-105615946D01*
X153841622Y-105272703D01*
X153841622Y-104929460D01*
X153670000Y-104929460D01*
X153498379Y-104929460D01*
X153498379Y-105272703D01*
X153498379Y-105615946D01*
X153670000Y-105615946D01*
X153841622Y-105615946D01*
X153841622Y-106130811D01*
X153841622Y-106645676D01*
X153670000Y-106645676D01*
X153498379Y-106645676D01*
X153498379Y-106474054D01*
X153498379Y-106302433D01*
X153326757Y-106302433D01*
X153155135Y-106302433D01*
X153155135Y-106130811D01*
X153155135Y-105959189D01*
X152983514Y-105959189D01*
X152811892Y-105959189D01*
X152811892Y-106130811D01*
X152811892Y-106302433D01*
X152640271Y-106302433D01*
X152468649Y-106302433D01*
X152468649Y-106130811D01*
X152468649Y-105959189D01*
X152297027Y-105959189D01*
X152125406Y-105959189D01*
X152125406Y-106130811D01*
X152125406Y-106302433D01*
X151953784Y-106302433D01*
X151782162Y-106302433D01*
X151782162Y-106474054D01*
X151782162Y-106645676D01*
X151953784Y-106645676D01*
X152125406Y-106645676D01*
X152125406Y-106988919D01*
X152125406Y-107332162D01*
X151953784Y-107332162D01*
X151782162Y-107332162D01*
X151782162Y-107503784D01*
X151782162Y-107675406D01*
X151610541Y-107675406D01*
X151438919Y-107675406D01*
X151438919Y-107847027D01*
X151438919Y-108018649D01*
X151610541Y-108018649D01*
X151782162Y-108018649D01*
X151782162Y-108190271D01*
X151782162Y-108361892D01*
X151438919Y-108361892D01*
X151095676Y-108361892D01*
X151095676Y-108190271D01*
X151095676Y-108018649D01*
X150924054Y-108018649D01*
X150752433Y-108018649D01*
X150752433Y-107847027D01*
X150752433Y-107675406D01*
X150924054Y-107675406D01*
X151095676Y-107675406D01*
X151095676Y-107503784D01*
X151095676Y-107332162D01*
X150924054Y-107332162D01*
X150752433Y-107332162D01*
X150752433Y-107503784D01*
X150752433Y-107675406D01*
X150580811Y-107675406D01*
X150409189Y-107675406D01*
X150409189Y-107847027D01*
X150409189Y-108018649D01*
X150237568Y-108018649D01*
X150065946Y-108018649D01*
X150065946Y-108190271D01*
X150065946Y-108361892D01*
X150237568Y-108361892D01*
X150409189Y-108361892D01*
X150409189Y-108533514D01*
X150409189Y-108705135D01*
X150237568Y-108705135D01*
X150065946Y-108705135D01*
X150065946Y-108876757D01*
X150065946Y-109048379D01*
X149894325Y-109048379D01*
X149722703Y-109048379D01*
X149722703Y-109220000D01*
X149722703Y-109391622D01*
X149379460Y-109391622D01*
X149036216Y-109391622D01*
X149036216Y-109563244D01*
X149036216Y-109734865D01*
X149207838Y-109734865D01*
X149379460Y-109734865D01*
X149379460Y-109906487D01*
X149379460Y-110078108D01*
X149207838Y-110078108D01*
X149036216Y-110078108D01*
X149036216Y-110249730D01*
X149036216Y-110421352D01*
X149207838Y-110421352D01*
X149379460Y-110421352D01*
X149379460Y-110249730D01*
X149379460Y-110078108D01*
X149551081Y-110078108D01*
X149722703Y-110078108D01*
X149722703Y-109734865D01*
X149722703Y-109391622D01*
X149894325Y-109391622D01*
X150065946Y-109391622D01*
X150065946Y-109563244D01*
X150065946Y-109734865D01*
X150237568Y-109734865D01*
X150409189Y-109734865D01*
X150409189Y-109563244D01*
X150409189Y-109391622D01*
X150580811Y-109391622D01*
X150752433Y-109391622D01*
X150752433Y-109563244D01*
X150752433Y-109734865D01*
X150924054Y-109734865D01*
X151095676Y-109734865D01*
X151095676Y-109906487D01*
X151095676Y-110078108D01*
X151438919Y-110078108D01*
X151782162Y-110078108D01*
X151782162Y-109906487D01*
X151782162Y-109734865D01*
X151953784Y-109734865D01*
X152125406Y-109734865D01*
X152125406Y-109220000D01*
X152125406Y-108705135D01*
X151953784Y-108705135D01*
X151782162Y-108705135D01*
X151782162Y-108533514D01*
X151782162Y-108361892D01*
X152125406Y-108361892D01*
X152468649Y-108361892D01*
X152468649Y-109048379D01*
X152468649Y-109734865D01*
X152640271Y-109734865D01*
X152811892Y-109734865D01*
X152811892Y-109563244D01*
X152811892Y-109391622D01*
X152983514Y-109391622D01*
X153155135Y-109391622D01*
X153155135Y-109563244D01*
X153155135Y-109734865D01*
X153326757Y-109734865D01*
X153498379Y-109734865D01*
X153498379Y-109906487D01*
X153498379Y-110078108D01*
X153155135Y-110078108D01*
X152811892Y-110078108D01*
X152811892Y-110249730D01*
X152811892Y-110421352D01*
X152640271Y-110421352D01*
X152468649Y-110421352D01*
X152468649Y-110592973D01*
X152468649Y-110764595D01*
X152297027Y-110764595D01*
X152125406Y-110764595D01*
X152125406Y-110592973D01*
X152125406Y-110421352D01*
X151610541Y-110421352D01*
X151095676Y-110421352D01*
X151095676Y-110592973D01*
X151095676Y-110764595D01*
X150924054Y-110764595D01*
X150752433Y-110764595D01*
X150752433Y-110592973D01*
X150752433Y-110421352D01*
X150924054Y-110421352D01*
X151095676Y-110421352D01*
X151095676Y-110249730D01*
X151095676Y-110078108D01*
X150409189Y-110078108D01*
X149722703Y-110078108D01*
X149722703Y-110249730D01*
X149722703Y-110421352D01*
X149551081Y-110421352D01*
X149379460Y-110421352D01*
X149379460Y-110592973D01*
X149379460Y-110764595D01*
X149551081Y-110764595D01*
X149722703Y-110764595D01*
X149722703Y-110592973D01*
X149722703Y-110421352D01*
X150065946Y-110421352D01*
X150409189Y-110421352D01*
X150409189Y-110936216D01*
X150409189Y-111451081D01*
X149551081Y-111451081D01*
X148692973Y-111451081D01*
X148692973Y-110421352D01*
X148692973Y-109391622D01*
X148864595Y-109391622D01*
X149036216Y-109391622D01*
X149036216Y-109220000D01*
X149036216Y-109048379D01*
X148864595Y-109048379D01*
X148692973Y-109048379D01*
X148692973Y-108018649D01*
X148692973Y-107332162D01*
X149036216Y-107332162D01*
X149036216Y-107675406D01*
X149036216Y-108018649D01*
X149207838Y-108018649D01*
X149379460Y-108018649D01*
X149379460Y-108190271D01*
X149379460Y-108361892D01*
X149207838Y-108361892D01*
X149036216Y-108361892D01*
X149036216Y-108533514D01*
X149036216Y-108705135D01*
X149379460Y-108705135D01*
X149722703Y-108705135D01*
X149722703Y-108190271D01*
X149722703Y-107675406D01*
X149551081Y-107675406D01*
X149379460Y-107675406D01*
X149379460Y-107503784D01*
X149379460Y-107332162D01*
X149207838Y-107332162D01*
X149036216Y-107332162D01*
X148692973Y-107332162D01*
X148692973Y-106988919D01*
X149036216Y-106988919D01*
X149379460Y-106988919D01*
X149379460Y-107160541D01*
X149379460Y-107332162D01*
X149551081Y-107332162D01*
X149722703Y-107332162D01*
X149722703Y-107160541D01*
X149722703Y-106988919D01*
X150065946Y-106988919D01*
X150409189Y-106988919D01*
X150409189Y-107160541D01*
X150409189Y-107332162D01*
X150580811Y-107332162D01*
X150752433Y-107332162D01*
X150752433Y-107160541D01*
X150752433Y-106988919D01*
X150924054Y-106988919D01*
X151095676Y-106988919D01*
X151095676Y-107160541D01*
X151095676Y-107332162D01*
X151438919Y-107332162D01*
X151782162Y-107332162D01*
X151782162Y-107160541D01*
X151782162Y-106988919D01*
X151610541Y-106988919D01*
X151438919Y-106988919D01*
X151438919Y-106645676D01*
X151438919Y-106302433D01*
X151610541Y-106302433D01*
X151782162Y-106302433D01*
X151782162Y-106130811D01*
X151782162Y-105959189D01*
X151953784Y-105959189D01*
X152125406Y-105959189D01*
X152125406Y-105615946D01*
X152125406Y-105272703D01*
G37*
%TO.C,D1*%
X197425000Y-70317500D02*
X197425000Y-69667500D01*
X196305000Y-69667500D02*
X198545000Y-69667500D01*
X198545000Y-69667500D02*
X198545000Y-65427500D01*
X196305000Y-69067500D02*
X198545000Y-69067500D01*
X196305000Y-68947500D02*
X198545000Y-68947500D01*
X196305000Y-68827500D02*
X198545000Y-68827500D01*
X196305000Y-65427500D02*
X196305000Y-69667500D01*
X198545000Y-65427500D02*
X196305000Y-65427500D01*
X197425000Y-64777500D02*
X197425000Y-65427500D01*
%TO.C,D4*%
X216475000Y-70317500D02*
X216475000Y-69667500D01*
X215355000Y-69667500D02*
X217595000Y-69667500D01*
X217595000Y-69667500D02*
X217595000Y-65427500D01*
X215355000Y-69067500D02*
X217595000Y-69067500D01*
X215355000Y-68947500D02*
X217595000Y-68947500D01*
X215355000Y-68827500D02*
X217595000Y-68827500D01*
X215355000Y-65427500D02*
X215355000Y-69667500D01*
X217595000Y-65427500D02*
X215355000Y-65427500D01*
X216475000Y-64777500D02*
X216475000Y-65427500D01*
%TO.C,D6*%
X216475000Y-108417500D02*
X216475000Y-107767500D01*
X215355000Y-107767500D02*
X217595000Y-107767500D01*
X217595000Y-107767500D02*
X217595000Y-103527500D01*
X215355000Y-107167500D02*
X217595000Y-107167500D01*
X215355000Y-107047500D02*
X217595000Y-107047500D01*
X215355000Y-106927500D02*
X217595000Y-106927500D01*
X215355000Y-103527500D02*
X215355000Y-107767500D01*
X217595000Y-103527500D02*
X215355000Y-103527500D01*
X216475000Y-102877500D02*
X216475000Y-103527500D01*
%TO.C,D2*%
X197425000Y-89367500D02*
X197425000Y-88717500D01*
X196305000Y-88717500D02*
X198545000Y-88717500D01*
X198545000Y-88717500D02*
X198545000Y-84477500D01*
X196305000Y-88117500D02*
X198545000Y-88117500D01*
X196305000Y-87997500D02*
X198545000Y-87997500D01*
X196305000Y-87877500D02*
X198545000Y-87877500D01*
X196305000Y-84477500D02*
X196305000Y-88717500D01*
X198545000Y-84477500D02*
X196305000Y-84477500D01*
X197425000Y-83827500D02*
X197425000Y-84477500D01*
%TD*%
M02*
