%TF.GenerationSoftware,KiCad,Pcbnew,(7.0.0)*%
%TF.CreationDate,2023-03-29T20:30:43+09:00*%
%TF.ProjectId,wiokey,77696f6b-6579-42e6-9b69-6361645f7063,rev?*%
%TF.SameCoordinates,Original*%
%TF.FileFunction,Legend,Bot*%
%TF.FilePolarity,Positive*%
%FSLAX46Y46*%
G04 Gerber Fmt 4.6, Leading zero omitted, Abs format (unit mm)*
G04 Created by KiCad (PCBNEW (7.0.0)) date 2023-03-29 20:30:43*
%MOMM*%
%LPD*%
G01*
G04 APERTURE LIST*
%ADD10C,0.150000*%
G04 APERTURE END LIST*
D10*
X133388100Y-99542600D02*
X133438900Y-99110800D01*
X132854700Y-98221800D02*
X132372100Y-98247200D01*
X133972300Y-113436400D02*
G75*
G03*
X134988300Y-112420400I0J1016000D01*
G01*
X127952500Y-104368600D02*
X127596900Y-104673400D01*
X133286500Y-98602800D02*
X132854700Y-98221800D01*
X130213100Y-100152200D02*
X130873500Y-99949000D01*
X131940300Y-100939600D02*
X131559300Y-100711000D01*
X126809500Y-103759000D02*
X127215900Y-103682800D01*
X132143500Y-99593400D02*
X132753100Y-99263200D01*
X133946900Y-101981000D02*
X134048500Y-102616000D01*
X122186700Y-98247200D02*
X122491500Y-98475800D01*
X129349500Y-105181400D02*
X128892300Y-104698800D01*
X131025900Y-100761800D02*
X130848100Y-100990400D01*
X134048500Y-103251000D02*
X133972300Y-103809800D01*
X123558300Y-100787200D02*
X123405900Y-100634800D01*
X126403100Y-104216200D02*
X126453900Y-103911400D01*
X131965700Y-98526600D02*
X132372100Y-98247200D01*
X133413500Y-101041200D02*
X133718300Y-101447600D01*
X127596900Y-105664000D02*
X127165100Y-105537000D01*
X123761500Y-112471200D02*
X123863100Y-111887000D01*
X121348500Y-98272600D02*
X121678700Y-98120200D01*
G36*
X130848100Y-100990400D02*
G01*
X130805300Y-102569400D01*
X128460500Y-102539800D01*
X128587500Y-101828600D01*
X128841500Y-101269800D01*
X129197100Y-100812600D01*
X129679700Y-100431600D01*
X130213100Y-100152200D01*
X130873500Y-99949000D01*
X130848100Y-100990400D01*
G37*
X130848100Y-100990400D02*
X130805300Y-102569400D01*
X128460500Y-102539800D01*
X128587500Y-101828600D01*
X128841500Y-101269800D01*
X129197100Y-100812600D01*
X129679700Y-100431600D01*
X130213100Y-100152200D01*
X130873500Y-99949000D01*
X130848100Y-100990400D01*
X129679700Y-100431600D02*
X130213100Y-100152200D01*
X125844300Y-104902000D02*
X126022100Y-104546400D01*
X122110500Y-105968800D02*
X121551700Y-105765600D01*
X120942100Y-100787200D02*
X121399300Y-100406200D01*
X119240300Y-96291400D02*
X119240300Y-112420400D01*
X120230900Y-102260400D02*
X120357900Y-101727000D01*
G36*
X131203700Y-101930200D02*
G01*
X131457700Y-101981000D01*
X131711700Y-101904800D01*
X131940300Y-101727000D01*
X133832600Y-101714300D01*
X133946900Y-101981000D01*
X134048500Y-102616000D01*
X134048500Y-103251000D01*
X133972300Y-103809800D01*
X133769100Y-104394000D01*
X133337300Y-105105200D01*
X132905500Y-105537000D01*
X132397500Y-105791000D01*
X131787900Y-105968800D01*
X131102100Y-105943400D01*
X129933700Y-105562400D01*
X129349500Y-105181400D01*
X128892300Y-104698800D01*
X128587500Y-104114600D01*
X128460500Y-103352600D01*
X128460500Y-102539800D01*
X130898900Y-101625400D01*
X131203700Y-101930200D01*
G37*
X131203700Y-101930200D02*
X131457700Y-101981000D01*
X131711700Y-101904800D01*
X131940300Y-101727000D01*
X133832600Y-101714300D01*
X133946900Y-101981000D01*
X134048500Y-102616000D01*
X134048500Y-103251000D01*
X133972300Y-103809800D01*
X133769100Y-104394000D01*
X133337300Y-105105200D01*
X132905500Y-105537000D01*
X132397500Y-105791000D01*
X131787900Y-105968800D01*
X131102100Y-105943400D01*
X129933700Y-105562400D01*
X129349500Y-105181400D01*
X128892300Y-104698800D01*
X128587500Y-104114600D01*
X128460500Y-103352600D01*
X128460500Y-102539800D01*
X130898900Y-101625400D01*
X131203700Y-101930200D01*
X133540500Y-104724200D02*
X133337300Y-105105200D01*
X128892300Y-104698800D02*
X128587500Y-104114600D01*
X122745500Y-98933000D02*
X122936000Y-99187000D01*
X120637300Y-111048800D02*
X120662700Y-108712000D01*
X131787900Y-105968800D02*
X131102100Y-105943400D01*
X123126500Y-101752400D02*
X123380500Y-101676200D01*
X127825500Y-106019600D02*
X127762000Y-105714800D01*
X126504700Y-106095800D02*
X126606300Y-106476800D01*
X128841500Y-101269800D02*
X129197100Y-100812600D01*
X129679700Y-98272600D02*
X130492500Y-98526600D01*
X128587500Y-101828600D02*
X128841500Y-101269800D01*
X120789700Y-105105200D02*
X120510300Y-104648000D01*
X132143500Y-99593400D02*
X132295900Y-98983800D01*
X126022100Y-104546400D02*
X126403100Y-104216200D01*
X121246900Y-99898200D02*
X121069100Y-99491800D01*
X135623300Y-113182400D02*
X135623300Y-94767400D01*
X127596900Y-104673400D02*
X127241300Y-104775000D01*
X126834900Y-106680000D02*
X127215900Y-106756200D01*
X120129300Y-95402400D02*
G75*
G03*
X119240300Y-96291400I0J-889000D01*
G01*
X121907300Y-100101400D02*
X122440700Y-99974400D01*
X133845300Y-106680000D02*
X133769100Y-104394000D01*
X123685300Y-101295200D02*
X123659900Y-101041200D01*
X121678700Y-98120200D02*
X122186700Y-98247200D01*
G36*
X137274300Y-110261400D02*
G01*
X137274300Y-111023400D01*
X135623300Y-111531400D01*
X135623300Y-109880400D01*
X137274300Y-110261400D01*
G37*
X137274300Y-110261400D02*
X137274300Y-111023400D01*
X135623300Y-111531400D01*
X135623300Y-109880400D01*
X137274300Y-110261400D01*
X123405900Y-99898200D02*
X124193300Y-100076000D01*
X130009900Y-109626400D02*
X130416300Y-110159800D01*
X126733300Y-105587800D02*
X126428500Y-105638600D01*
X120662700Y-108712000D02*
X120688100Y-107619800D01*
X125768100Y-103276400D02*
X125615700Y-103886000D01*
X131940300Y-101727000D02*
X132041900Y-101447600D01*
X125463300Y-108737400D02*
X125996700Y-108508800D01*
X128612900Y-105029000D02*
X128587500Y-105435400D01*
G36*
X118605300Y-99417883D02*
G01*
X116954300Y-99036883D01*
X116954300Y-98274883D01*
X118605300Y-97766883D01*
X118605300Y-99417883D01*
G37*
X118605300Y-99417883D02*
X116954300Y-99036883D01*
X116954300Y-98274883D01*
X118605300Y-97766883D01*
X118605300Y-99417883D01*
X124193300Y-100076000D02*
X124625100Y-100330000D01*
X129933700Y-105562400D02*
X129349500Y-105181400D01*
X133769100Y-113004600D02*
X133819900Y-112344200D01*
X131203700Y-101930200D02*
X131457700Y-101981000D01*
X127241300Y-104775000D02*
X126834900Y-104673400D01*
X123863100Y-111887000D02*
X124091700Y-111023400D01*
X134099300Y-95402400D02*
X120129300Y-95402400D01*
X128333500Y-105714800D02*
X127927100Y-105765600D01*
X126453900Y-103911400D02*
X126809500Y-103759000D01*
X125844300Y-105283000D02*
X125844300Y-104902000D01*
X128714500Y-108585000D02*
X129451100Y-109093000D01*
X120637300Y-101219000D02*
X120942100Y-100787200D01*
X128841500Y-98145600D02*
X129679700Y-98272600D01*
X125006100Y-105003600D02*
X124523500Y-105410000D01*
X119240300Y-112420400D02*
G75*
G03*
X120256300Y-113436400I1016000J0D01*
G01*
X130492500Y-105765600D02*
X129933700Y-105562400D01*
X133438900Y-99110800D02*
X133286500Y-98602800D01*
X132041900Y-101447600D02*
X132041900Y-101142800D01*
X132829300Y-100457000D02*
X133261100Y-99898200D01*
G36*
X137274300Y-104165400D02*
G01*
X137274300Y-104927400D01*
X135623300Y-105435400D01*
X135623300Y-103784400D01*
X137274300Y-104165400D01*
G37*
X137274300Y-104165400D02*
X137274300Y-104927400D01*
X135623300Y-105435400D01*
X135623300Y-103784400D01*
X137274300Y-104165400D01*
X127165100Y-105537000D02*
X126733300Y-105587800D01*
X122542300Y-101269800D02*
X122669300Y-101498400D01*
X127901700Y-103835200D02*
X128079500Y-104140000D01*
X132829300Y-100457000D02*
X132295900Y-100126800D01*
X132397500Y-105791000D02*
X131787900Y-105968800D01*
X124091700Y-111023400D02*
X124294900Y-110388400D01*
X125564900Y-101600000D02*
X125691900Y-102158800D01*
X120713500Y-112979200D02*
X120637300Y-111048800D01*
X131279900Y-100660200D02*
X131025900Y-100761800D01*
X119494300Y-93751400D02*
G75*
G03*
X118605300Y-94640400I0J-889000D01*
G01*
G36*
X123151900Y-100533200D02*
G01*
X122897900Y-100558600D01*
X122669300Y-100736400D01*
X122542300Y-100965000D01*
X122542300Y-101269800D01*
X122669300Y-101498400D01*
X122872500Y-101676200D01*
X123126500Y-101752400D01*
X123380500Y-101676200D01*
X123558300Y-101523800D01*
X123685300Y-101295200D01*
X123659900Y-101041200D01*
X123558300Y-100787200D01*
X124193300Y-100076000D01*
X124625100Y-100330000D01*
X125285500Y-101066600D01*
X125564900Y-101600000D01*
X125691900Y-102158800D01*
X125768100Y-102717600D01*
X125768100Y-103276400D01*
X125615700Y-103886000D01*
X125412500Y-104444800D01*
X125006100Y-105003600D01*
X124523500Y-105410000D01*
X123990100Y-105714800D01*
X123431300Y-105968800D01*
X122770900Y-105994200D01*
X122110500Y-105968800D01*
X121551700Y-105765600D01*
X121094500Y-105486200D01*
X120789700Y-105105200D01*
X120510300Y-104648000D01*
X120332500Y-104165400D01*
X120154700Y-102844600D01*
X120357900Y-101727000D01*
X120637300Y-101219000D01*
X120942100Y-100787200D01*
X121399300Y-100406200D01*
X121907300Y-100101400D01*
X122745500Y-99923600D01*
X123405900Y-99898200D01*
X123151900Y-100533200D01*
G37*
X123151900Y-100533200D02*
X122897900Y-100558600D01*
X122669300Y-100736400D01*
X122542300Y-100965000D01*
X122542300Y-101269800D01*
X122669300Y-101498400D01*
X122872500Y-101676200D01*
X123126500Y-101752400D01*
X123380500Y-101676200D01*
X123558300Y-101523800D01*
X123685300Y-101295200D01*
X123659900Y-101041200D01*
X123558300Y-100787200D01*
X124193300Y-100076000D01*
X124625100Y-100330000D01*
X125285500Y-101066600D01*
X125564900Y-101600000D01*
X125691900Y-102158800D01*
X125768100Y-102717600D01*
X125768100Y-103276400D01*
X125615700Y-103886000D01*
X125412500Y-104444800D01*
X125006100Y-105003600D01*
X124523500Y-105410000D01*
X123990100Y-105714800D01*
X123431300Y-105968800D01*
X122770900Y-105994200D01*
X122110500Y-105968800D01*
X121551700Y-105765600D01*
X121094500Y-105486200D01*
X120789700Y-105105200D01*
X120510300Y-104648000D01*
X120332500Y-104165400D01*
X120154700Y-102844600D01*
X120357900Y-101727000D01*
X120637300Y-101219000D01*
X120942100Y-100787200D01*
X121399300Y-100406200D01*
X121907300Y-100101400D01*
X122745500Y-99923600D01*
X123405900Y-99898200D01*
X123151900Y-100533200D01*
X127952500Y-104368600D02*
X128358900Y-104673400D01*
X122440700Y-99974400D02*
X122745500Y-99923600D01*
X120789700Y-105105200D02*
X121094500Y-105486200D01*
X124523500Y-109702600D02*
X124955300Y-109143800D01*
G36*
X137274300Y-108229400D02*
G01*
X137274300Y-108991400D01*
X135623300Y-109499400D01*
X135623300Y-107848400D01*
X137274300Y-108229400D01*
G37*
X137274300Y-108229400D02*
X137274300Y-108991400D01*
X135623300Y-109499400D01*
X135623300Y-107848400D01*
X137274300Y-108229400D01*
X133718300Y-101447600D02*
X133946900Y-101981000D01*
X131102100Y-105943400D02*
X130492500Y-105765600D01*
G36*
X124193300Y-100076000D02*
G01*
X123558300Y-100787200D01*
X123405900Y-100634800D01*
X123151900Y-100533200D01*
X123405900Y-99898200D01*
X124193300Y-100076000D01*
G37*
X124193300Y-100076000D02*
X123558300Y-100787200D01*
X123405900Y-100634800D01*
X123151900Y-100533200D01*
X123405900Y-99898200D01*
X124193300Y-100076000D01*
X130416300Y-110159800D02*
X130771900Y-110693200D01*
X130822700Y-101523800D02*
X130975100Y-101727000D01*
X123990100Y-105714800D02*
X123431300Y-105968800D01*
X120256300Y-113436400D02*
X133972300Y-113436400D01*
X126225300Y-93751400D02*
G75*
G03*
X128003300Y-93751400I889000J0D01*
G01*
X131457700Y-101981000D02*
X131711700Y-101904800D01*
X130975100Y-101727000D02*
X131203700Y-101930200D01*
G36*
X118605300Y-103403400D02*
G01*
X116954300Y-103022400D01*
X116954300Y-102260400D01*
X118605300Y-101752400D01*
X118605300Y-103403400D01*
G37*
X118605300Y-103403400D02*
X116954300Y-103022400D01*
X116954300Y-102260400D01*
X118605300Y-101752400D01*
X118605300Y-103403400D01*
X120154700Y-102844600D02*
X120230900Y-102260400D01*
X133261100Y-99898200D02*
X133388100Y-99542600D01*
X126225300Y-93751400D02*
X119494300Y-93751400D01*
X124955300Y-109143800D02*
X125463300Y-108737400D01*
X122745500Y-99923600D02*
X123405900Y-99898200D01*
X123380500Y-101676200D02*
X123558300Y-101523800D01*
X130822700Y-101269800D02*
X130822700Y-101523800D01*
X126555500Y-108356400D02*
X126987300Y-108356400D01*
X123228100Y-98983800D02*
X123990100Y-98602800D01*
X124828300Y-98323400D02*
X125818900Y-98171000D01*
X123405900Y-100634800D02*
X123151900Y-100533200D01*
X125691900Y-102158800D02*
X125768100Y-102717600D01*
X124625100Y-100330000D02*
X124980700Y-100711000D01*
X121399300Y-100406200D02*
X121907300Y-100101400D01*
X121551700Y-105765600D02*
X121094500Y-105486200D01*
G36*
X118605300Y-97307400D02*
G01*
X116954300Y-96926400D01*
X116954300Y-96164400D01*
X118605300Y-95656400D01*
X118605300Y-97307400D01*
G37*
X118605300Y-97307400D02*
X116954300Y-96926400D01*
X116954300Y-96164400D01*
X118605300Y-95656400D01*
X118605300Y-97307400D01*
X125768100Y-102717600D02*
X125768100Y-103276400D01*
G36*
X137274300Y-96164400D02*
G01*
X137274300Y-96926400D01*
X135623300Y-97434400D01*
X135623300Y-95783400D01*
X137274300Y-96164400D01*
G37*
X137274300Y-96164400D02*
X137274300Y-96926400D01*
X135623300Y-97434400D01*
X135623300Y-95783400D01*
X137274300Y-96164400D01*
X134734300Y-114071400D02*
G75*
G03*
X135623300Y-113182400I0J889000D01*
G01*
X131546600Y-99085400D02*
X131965700Y-98526600D01*
X133972300Y-103809800D02*
X133769100Y-104394000D01*
X133819900Y-109220000D02*
X133845300Y-106680000D01*
X130492500Y-98526600D02*
X131203700Y-98831400D01*
X128130300Y-108407200D02*
X128714500Y-108585000D01*
X130848100Y-100990400D02*
X130822700Y-101269800D01*
X121907300Y-100101400D02*
X122135900Y-99872800D01*
X133337300Y-105105200D02*
X132905500Y-105537000D01*
X126911100Y-98044000D02*
X127927100Y-98069400D01*
X128460500Y-103352600D02*
X128460500Y-102539800D01*
X123659900Y-101041200D02*
X123558300Y-100787200D01*
X133819900Y-112344200D02*
X133819900Y-109220000D01*
X124980700Y-100711000D02*
X125285500Y-101066600D01*
X134048500Y-102616000D02*
X134048500Y-103251000D01*
X126606300Y-104521000D02*
X126403100Y-104216200D01*
X128358900Y-104673400D02*
X128612900Y-105029000D01*
X118605300Y-94640400D02*
X118605300Y-113055400D01*
X134607300Y-93751400D02*
X128003300Y-93751400D01*
X126428500Y-105638600D02*
X126072900Y-105613200D01*
X123558300Y-101523800D02*
X123685300Y-101295200D01*
X127215900Y-103682800D02*
X127596900Y-103682800D01*
X125412500Y-104444800D02*
X125006100Y-105003600D01*
X134988300Y-112420400D02*
X134988300Y-96291400D01*
X122669300Y-100736400D02*
X122542300Y-100965000D01*
X133769100Y-104394000D02*
X133540500Y-104724200D01*
X131889500Y-99339400D02*
X132397500Y-99847400D01*
X128079500Y-104140000D02*
X127952500Y-104368600D01*
X122770900Y-105994200D02*
X122110500Y-105968800D01*
X122897900Y-100558600D02*
X122669300Y-100736400D01*
X126834900Y-104673400D02*
X126606300Y-104521000D01*
X122669300Y-101498400D02*
X122872500Y-101676200D01*
X121043700Y-98628200D02*
X121348500Y-98272600D01*
G36*
X118605300Y-107467400D02*
G01*
X116954300Y-107086400D01*
X116954300Y-106324400D01*
X118605300Y-105816400D01*
X118605300Y-107467400D01*
G37*
X118605300Y-107467400D02*
X116954300Y-107086400D01*
X116954300Y-106324400D01*
X118605300Y-105816400D01*
X118605300Y-107467400D01*
X125996700Y-108508800D02*
X126555500Y-108356400D01*
X123431300Y-105968800D02*
X122770900Y-105994200D01*
X131711700Y-101904800D02*
X131940300Y-101727000D01*
X127927100Y-98069400D02*
X128841500Y-98145600D01*
X121653300Y-100253800D02*
X121246900Y-99898200D01*
X122872500Y-101676200D02*
X123126500Y-101752400D01*
G36*
X132295900Y-100126800D02*
G01*
X132829300Y-100457000D01*
X133159500Y-100685600D01*
X133718300Y-101447600D01*
X133832600Y-101714300D01*
X131940300Y-101727000D01*
X132041900Y-101447600D01*
X132041900Y-101142800D01*
X131940300Y-100939600D01*
X131559300Y-100711000D01*
X131279900Y-100660200D01*
X131025900Y-100761800D01*
X130815300Y-100909400D01*
X130873500Y-99949000D01*
X131686300Y-99949000D01*
X132295900Y-100126800D01*
G37*
X132295900Y-100126800D02*
X132829300Y-100457000D01*
X133159500Y-100685600D01*
X133718300Y-101447600D01*
X133832600Y-101714300D01*
X131940300Y-101727000D01*
X132041900Y-101447600D01*
X132041900Y-101142800D01*
X131940300Y-100939600D01*
X131559300Y-100711000D01*
X131279900Y-100660200D01*
X131025900Y-100761800D01*
X130815300Y-100909400D01*
X130873500Y-99949000D01*
X131686300Y-99949000D01*
X132295900Y-100126800D01*
X132905500Y-105537000D02*
X132397500Y-105791000D01*
X132041900Y-101142800D02*
X131940300Y-100939600D01*
X130873500Y-99949000D02*
X131686300Y-99949000D01*
X129451100Y-109093000D02*
X130009900Y-109626400D01*
X121069100Y-99491800D02*
X120916700Y-99161600D01*
X126428500Y-105638600D02*
X126504700Y-106095800D01*
X127215900Y-106756200D02*
X127571500Y-106603800D01*
X123990100Y-98602800D02*
X124828300Y-98323400D01*
X126606300Y-106476800D02*
X126834900Y-106680000D01*
X125818900Y-98171000D02*
X126911100Y-98044000D01*
X122135900Y-99872800D02*
X121780300Y-98983800D01*
X126072900Y-105613200D02*
X125844300Y-105283000D01*
G36*
X118605300Y-101430619D02*
G01*
X116954300Y-101049619D01*
X116954300Y-100287619D01*
X118605300Y-99779619D01*
X118605300Y-101430619D01*
G37*
X118605300Y-101430619D02*
X116954300Y-101049619D01*
X116954300Y-100287619D01*
X118605300Y-99779619D01*
X118605300Y-101430619D01*
X130771900Y-110693200D02*
X130924300Y-111150400D01*
X132295900Y-100126800D02*
X131686300Y-99949000D01*
X134988300Y-96291400D02*
G75*
G03*
X134099300Y-95402400I-889000J0D01*
G01*
X127774700Y-106375200D02*
X127825500Y-106019600D01*
X128587500Y-104114600D02*
X128460500Y-103352600D01*
X124523500Y-105410000D02*
X123990100Y-105714800D01*
X135623300Y-94767400D02*
G75*
G03*
X134607300Y-93751400I-1016000J0D01*
G01*
X127596900Y-108381800D02*
X128130300Y-108407200D01*
X129197100Y-100812600D02*
X129679700Y-100431600D01*
G36*
X137274300Y-98196400D02*
G01*
X137274300Y-98958400D01*
X135623300Y-99466400D01*
X135623300Y-97815400D01*
X137274300Y-98196400D01*
G37*
X137274300Y-98196400D02*
X137274300Y-98958400D01*
X135623300Y-99466400D01*
X135623300Y-97815400D01*
X137274300Y-98196400D01*
X131203700Y-98831400D02*
X131889500Y-99339400D01*
X133159500Y-100685600D02*
X133413500Y-101041200D01*
X132397500Y-99847400D02*
X132829300Y-100457000D01*
X126987300Y-108356400D02*
X127596900Y-108381800D01*
X122135900Y-99872800D02*
X122643900Y-99390200D01*
X120510300Y-104648000D02*
X120332500Y-104165400D01*
G36*
X118605300Y-109499400D02*
G01*
X116954300Y-109118400D01*
X116954300Y-108356400D01*
X118605300Y-107848400D01*
X118605300Y-109499400D01*
G37*
X118605300Y-109499400D02*
X116954300Y-109118400D01*
X116954300Y-108356400D01*
X118605300Y-107848400D01*
X118605300Y-109499400D01*
X122542300Y-100965000D02*
X122542300Y-101269800D01*
G36*
X118605300Y-105435400D02*
G01*
X116954300Y-105054400D01*
X116954300Y-104292400D01*
X118605300Y-103784400D01*
X118605300Y-105435400D01*
G37*
X118605300Y-105435400D02*
X116954300Y-105054400D01*
X116954300Y-104292400D01*
X118605300Y-103784400D01*
X118605300Y-105435400D01*
X128587500Y-105435400D02*
X128333500Y-105714800D01*
X127596900Y-103682800D02*
X127901700Y-103835200D01*
X125615700Y-103886000D02*
X125412500Y-104444800D01*
X124294900Y-110388400D02*
X124523500Y-109702600D01*
X127927100Y-105765600D02*
X127596900Y-105664000D01*
G36*
X137274300Y-106197400D02*
G01*
X137274300Y-106959400D01*
X135623300Y-107467400D01*
X135623300Y-105816400D01*
X137274300Y-106197400D01*
G37*
X137274300Y-106197400D02*
X137274300Y-106959400D01*
X135623300Y-107467400D01*
X135623300Y-105816400D01*
X137274300Y-106197400D01*
X122491500Y-98475800D02*
X122745500Y-98933000D01*
X128460500Y-102539800D02*
X128587500Y-101828600D01*
X118605300Y-113055400D02*
G75*
G03*
X119621300Y-114071400I1016000J0D01*
G01*
X119621300Y-114071400D02*
X134734300Y-114071400D01*
X122135900Y-99872800D02*
X121526300Y-99618800D01*
X130924300Y-111150400D02*
X131051300Y-111760000D01*
G36*
X137274300Y-102260400D02*
G01*
X137274300Y-103022400D01*
X135623300Y-103530400D01*
X135623300Y-101879400D01*
X137274300Y-102260400D01*
G37*
X137274300Y-102260400D02*
X137274300Y-103022400D01*
X135623300Y-103530400D01*
X135623300Y-101879400D01*
X137274300Y-102260400D01*
X122643900Y-99390200D02*
X123228100Y-98983800D01*
X123761500Y-112903000D02*
X123761500Y-112471200D01*
X131051300Y-111760000D02*
X131076700Y-112445800D01*
X132829300Y-100457000D02*
X133159500Y-100685600D01*
X120357900Y-101727000D02*
X120637300Y-101219000D01*
G36*
X118605300Y-111531400D02*
G01*
X116954300Y-111150400D01*
X116954300Y-110388400D01*
X118605300Y-109880400D01*
X118605300Y-111531400D01*
G37*
X118605300Y-111531400D02*
X116954300Y-111150400D01*
X116954300Y-110388400D01*
X118605300Y-109880400D01*
X118605300Y-111531400D01*
G36*
X137274300Y-100101400D02*
G01*
X137274300Y-100863400D01*
X135623300Y-101371400D01*
X135623300Y-99720400D01*
X137274300Y-100101400D01*
G37*
X137274300Y-100101400D02*
X137274300Y-100863400D01*
X135623300Y-101371400D01*
X135623300Y-99720400D01*
X137274300Y-100101400D01*
X131076700Y-112445800D02*
X131051300Y-112928400D01*
X123151900Y-100533200D02*
X122897900Y-100558600D01*
X120332500Y-104165400D02*
X120230900Y-103505000D01*
X127571500Y-106603800D02*
X127774700Y-106375200D01*
X131559300Y-100711000D02*
X131279900Y-100660200D01*
X120916700Y-99161600D02*
X121043700Y-98628200D01*
X120230900Y-103505000D02*
X120154700Y-102844600D01*
X125285500Y-101066600D02*
X125564900Y-101600000D01*
X120688100Y-107619800D02*
X120789700Y-105105200D01*
G36*
X177141172Y-61553998D02*
G01*
X177118351Y-61536364D01*
X177095136Y-61520464D01*
X177071525Y-61506299D01*
X177047520Y-61493869D01*
X177023119Y-61483172D01*
X176998324Y-61474211D01*
X176973134Y-61466984D01*
X176947548Y-61461491D01*
X176921568Y-61457733D01*
X176895193Y-61455709D01*
X176877390Y-61455324D01*
X176855709Y-61455709D01*
X176834632Y-61456866D01*
X176814157Y-61458793D01*
X176794286Y-61461491D01*
X176775017Y-61464960D01*
X176747245Y-61471609D01*
X176720830Y-61479993D01*
X176695771Y-61490110D01*
X176672069Y-61501963D01*
X176649724Y-61515550D01*
X176628735Y-61530871D01*
X176609103Y-61547927D01*
X176602861Y-61553998D01*
X176587147Y-61570871D01*
X176572979Y-61588516D01*
X176560357Y-61606935D01*
X176549280Y-61626126D01*
X176539749Y-61646090D01*
X176531763Y-61666827D01*
X176525323Y-61688336D01*
X176520429Y-61710619D01*
X176517080Y-61733674D01*
X176515277Y-61757502D01*
X176514933Y-61773817D01*
X176514933Y-63103963D01*
X176822679Y-63103963D01*
X176822679Y-61839762D01*
X176823478Y-61819965D01*
X176826546Y-61798350D01*
X176831916Y-61779070D01*
X176841089Y-61759528D01*
X176853394Y-61743166D01*
X176855408Y-61741088D01*
X176872020Y-61728145D01*
X176892794Y-61718381D01*
X176913911Y-61712542D01*
X176933844Y-61709461D01*
X176955900Y-61708001D01*
X176965317Y-61707871D01*
X176984948Y-61708901D01*
X177005251Y-61711993D01*
X177026225Y-61717145D01*
X177047871Y-61724357D01*
X177070189Y-61733631D01*
X177093178Y-61744965D01*
X177110861Y-61754819D01*
X177128921Y-61765831D01*
X177141172Y-61773817D01*
X177141172Y-63103963D01*
X177448918Y-63103963D01*
X177448918Y-60861814D01*
X177141172Y-60861814D01*
X177141172Y-61553998D01*
G37*
G36*
X175456385Y-61477306D02*
G01*
X175203838Y-61477306D01*
X175203838Y-61789448D01*
X175456385Y-61789448D01*
X175456385Y-62763000D01*
X175454775Y-62785235D01*
X175448592Y-62806942D01*
X175437773Y-62823222D01*
X175419290Y-62835357D01*
X175398425Y-62839879D01*
X175390439Y-62840181D01*
X175225819Y-62840181D01*
X175225819Y-63103963D01*
X175544312Y-63103963D01*
X175570931Y-63103061D01*
X175595832Y-63100353D01*
X175619016Y-63095840D01*
X175640483Y-63089522D01*
X175660232Y-63081399D01*
X175678264Y-63071471D01*
X175694579Y-63059738D01*
X175709176Y-63046200D01*
X175722056Y-63030856D01*
X175733219Y-63013708D01*
X175742664Y-62994754D01*
X175750392Y-62973995D01*
X175756403Y-62951432D01*
X175760696Y-62927063D01*
X175763272Y-62900889D01*
X175764131Y-62872909D01*
X175764131Y-61789448D01*
X176005931Y-61789448D01*
X176005931Y-61477306D01*
X175764131Y-61477306D01*
X175764131Y-60861814D01*
X175456385Y-60861814D01*
X175456385Y-61477306D01*
G37*
G36*
X174057362Y-61477306D02*
G01*
X173804814Y-61477306D01*
X173804814Y-61789448D01*
X174057362Y-61789448D01*
X174057362Y-62763000D01*
X174055752Y-62785235D01*
X174049569Y-62806942D01*
X174038750Y-62823222D01*
X174020267Y-62835357D01*
X173999402Y-62839879D01*
X173991416Y-62840181D01*
X173826796Y-62840181D01*
X173826796Y-63103963D01*
X174145289Y-63103963D01*
X174171908Y-63103061D01*
X174196809Y-63100353D01*
X174219993Y-63095840D01*
X174241460Y-63089522D01*
X174261209Y-63081399D01*
X174279241Y-63071471D01*
X174295556Y-63059738D01*
X174310153Y-63046200D01*
X174323033Y-63030856D01*
X174334196Y-63013708D01*
X174343641Y-62994754D01*
X174351369Y-62973995D01*
X174357380Y-62951432D01*
X174361673Y-62927063D01*
X174364249Y-62900889D01*
X174365108Y-62872909D01*
X174365108Y-61789448D01*
X174606908Y-61789448D01*
X174606908Y-61477306D01*
X174365108Y-61477306D01*
X174365108Y-60861814D01*
X174057362Y-60861814D01*
X174057362Y-61477306D01*
G37*
G36*
X172685170Y-61456097D02*
G01*
X172711994Y-61458415D01*
X172738808Y-61462279D01*
X172765615Y-61467689D01*
X172792412Y-61474644D01*
X172819201Y-61483145D01*
X172845981Y-61493191D01*
X172872753Y-61504783D01*
X172890596Y-61513370D01*
X172908436Y-61522643D01*
X172926271Y-61532604D01*
X172944103Y-61543251D01*
X172944103Y-61477306D01*
X173251849Y-61477306D01*
X173251849Y-63444926D01*
X172944103Y-63444926D01*
X172944103Y-63048764D01*
X172937169Y-63053513D01*
X172915595Y-63066854D01*
X172892862Y-63078838D01*
X172868969Y-63089465D01*
X172843918Y-63098736D01*
X172817707Y-63106650D01*
X172790337Y-63113207D01*
X172761808Y-63118408D01*
X172742144Y-63121121D01*
X172721966Y-63123232D01*
X172701272Y-63124739D01*
X172680063Y-63125644D01*
X172658339Y-63125945D01*
X172647444Y-63125870D01*
X172626237Y-63125267D01*
X172605805Y-63124061D01*
X172576609Y-63121121D01*
X172549156Y-63116825D01*
X172523446Y-63111172D01*
X172499479Y-63104163D01*
X172477255Y-63095796D01*
X172456775Y-63086073D01*
X172438037Y-63074994D01*
X172421043Y-63062557D01*
X172405791Y-63048764D01*
X172401043Y-63043863D01*
X172387702Y-63027866D01*
X172375718Y-63009929D01*
X172365091Y-62990051D01*
X172355820Y-62968232D01*
X172347906Y-62944473D01*
X172341349Y-62918773D01*
X172336148Y-62891132D01*
X172333435Y-62871627D01*
X172331324Y-62851260D01*
X172329817Y-62830030D01*
X172328912Y-62807937D01*
X172328611Y-62784982D01*
X172328611Y-62752254D01*
X172636357Y-62752254D01*
X172636876Y-62765595D01*
X172640282Y-62787327D01*
X172646867Y-62807002D01*
X172656631Y-62824620D01*
X172669574Y-62840181D01*
X172680350Y-62849610D01*
X172697280Y-62860125D01*
X172716361Y-62867508D01*
X172737592Y-62871759D01*
X172757501Y-62872909D01*
X172777193Y-62871879D01*
X172797923Y-62868788D01*
X172819691Y-62863636D01*
X172842498Y-62856423D01*
X172866342Y-62847149D01*
X172884906Y-62838842D01*
X172904054Y-62829375D01*
X172923787Y-62818749D01*
X172944103Y-62806964D01*
X172944103Y-61729853D01*
X172937255Y-61726487D01*
X172916969Y-61717030D01*
X172897069Y-61708535D01*
X172877556Y-61701002D01*
X172858429Y-61694430D01*
X172839689Y-61688820D01*
X172815303Y-61682836D01*
X172791604Y-61678562D01*
X172768591Y-61675997D01*
X172746266Y-61675143D01*
X172726900Y-61675915D01*
X172707215Y-61678770D01*
X172686509Y-61685532D01*
X172669574Y-61697124D01*
X172660004Y-61707901D01*
X172649332Y-61724831D01*
X172641839Y-61743911D01*
X172637524Y-61765142D01*
X172636357Y-61785052D01*
X172636357Y-62752254D01*
X172328611Y-62752254D01*
X172328611Y-61795799D01*
X172328954Y-61775521D01*
X172330757Y-61746227D01*
X172334106Y-61718282D01*
X172339001Y-61691685D01*
X172345441Y-61666436D01*
X172353426Y-61642535D01*
X172362957Y-61619982D01*
X172374034Y-61598777D01*
X172386657Y-61578920D01*
X172400825Y-61560412D01*
X172416538Y-61543251D01*
X172427787Y-61532604D01*
X172445625Y-61517921D01*
X172464623Y-61504783D01*
X172484781Y-61493191D01*
X172506097Y-61483145D01*
X172528573Y-61474644D01*
X172552207Y-61467689D01*
X172577001Y-61462279D01*
X172602955Y-61458415D01*
X172630067Y-61456097D01*
X172658339Y-61455324D01*
X172685170Y-61456097D01*
G37*
G36*
X171424424Y-61455324D02*
G01*
X171395973Y-61455795D01*
X171368385Y-61457209D01*
X171341660Y-61459566D01*
X171315797Y-61462865D01*
X171290796Y-61467107D01*
X171266658Y-61472291D01*
X171243383Y-61478418D01*
X171220969Y-61485488D01*
X171199419Y-61493500D01*
X171178731Y-61502455D01*
X171158905Y-61512353D01*
X171139942Y-61523193D01*
X171121841Y-61534976D01*
X171104603Y-61547701D01*
X171088227Y-61561369D01*
X171072714Y-61575980D01*
X171058002Y-61591379D01*
X171044153Y-61607289D01*
X171031166Y-61623710D01*
X171019042Y-61640643D01*
X171007780Y-61658088D01*
X170997380Y-61676043D01*
X170987843Y-61694510D01*
X170979169Y-61713489D01*
X170971357Y-61732978D01*
X170964408Y-61752980D01*
X170958321Y-61773492D01*
X170953096Y-61794516D01*
X170948734Y-61816052D01*
X170945234Y-61838098D01*
X170942597Y-61860656D01*
X170940823Y-61883726D01*
X171226587Y-61927690D01*
X171226973Y-61907661D01*
X171228691Y-61882760D01*
X171231782Y-61859919D01*
X171236247Y-61839140D01*
X171242086Y-61820421D01*
X171251317Y-61799920D01*
X171262694Y-61782639D01*
X171270551Y-61773817D01*
X171287922Y-61758055D01*
X171305842Y-61744965D01*
X171324310Y-61734547D01*
X171343327Y-61726800D01*
X171362893Y-61721724D01*
X171383007Y-61719320D01*
X171391207Y-61719106D01*
X171414240Y-61719905D01*
X171435104Y-61722302D01*
X171457274Y-61727288D01*
X171476320Y-61734576D01*
X171494589Y-61745986D01*
X171501116Y-61751835D01*
X171516057Y-61769094D01*
X171527906Y-61787899D01*
X171536665Y-61808249D01*
X171542332Y-61830145D01*
X171544693Y-61849572D01*
X171545080Y-61861744D01*
X171541645Y-61887733D01*
X171534561Y-61908798D01*
X171523613Y-61931210D01*
X171508801Y-61954971D01*
X171496780Y-61971560D01*
X171483041Y-61988749D01*
X171467585Y-62006537D01*
X171450412Y-62024924D01*
X171431521Y-62043910D01*
X171410913Y-62063495D01*
X171388588Y-62083679D01*
X171364545Y-62104463D01*
X171338785Y-62125846D01*
X171325261Y-62136762D01*
X171304897Y-62153162D01*
X171284961Y-62169391D01*
X171265452Y-62185448D01*
X171246371Y-62201333D01*
X171227717Y-62217047D01*
X171209490Y-62232589D01*
X171191691Y-62247959D01*
X171174319Y-62263157D01*
X171157375Y-62278184D01*
X171140858Y-62293039D01*
X171124768Y-62307722D01*
X171109106Y-62322233D01*
X171093872Y-62336573D01*
X171079064Y-62350741D01*
X171064685Y-62364737D01*
X171050732Y-62378562D01*
X171034761Y-62395262D01*
X171019820Y-62412390D01*
X171005910Y-62429945D01*
X170993030Y-62447927D01*
X170981180Y-62466337D01*
X170970361Y-62485174D01*
X170960572Y-62504439D01*
X170951814Y-62524131D01*
X170944086Y-62544250D01*
X170937388Y-62564797D01*
X170931721Y-62585771D01*
X170927084Y-62607173D01*
X170923478Y-62629002D01*
X170920902Y-62651259D01*
X170919356Y-62673943D01*
X170918841Y-62697055D01*
X170919312Y-62718823D01*
X170920726Y-62740163D01*
X170923083Y-62761077D01*
X170926382Y-62781563D01*
X170930624Y-62801621D01*
X170935808Y-62821252D01*
X170941935Y-62840456D01*
X170949005Y-62859232D01*
X170957017Y-62877581D01*
X170965972Y-62895502D01*
X170975870Y-62912996D01*
X170986710Y-62930062D01*
X170998493Y-62946701D01*
X171011218Y-62962913D01*
X171024886Y-62978697D01*
X171039497Y-62994054D01*
X171056241Y-63010025D01*
X171073500Y-63024966D01*
X171091275Y-63038876D01*
X171109564Y-63051756D01*
X171128369Y-63063606D01*
X171147689Y-63074425D01*
X171167524Y-63084214D01*
X171187875Y-63092972D01*
X171208740Y-63100700D01*
X171230121Y-63107398D01*
X171252017Y-63113065D01*
X171274428Y-63117702D01*
X171297354Y-63121308D01*
X171320796Y-63123884D01*
X171344753Y-63125430D01*
X171369225Y-63125945D01*
X171397675Y-63125472D01*
X171425263Y-63124052D01*
X171451989Y-63121686D01*
X171477852Y-63118374D01*
X171502852Y-63114115D01*
X171526990Y-63108909D01*
X171550266Y-63102757D01*
X171572679Y-63095659D01*
X171594230Y-63087614D01*
X171614918Y-63078623D01*
X171634744Y-63068685D01*
X171653707Y-63057801D01*
X171671807Y-63045971D01*
X171689046Y-63033194D01*
X171705421Y-63019470D01*
X171720935Y-63004801D01*
X171735690Y-62989245D01*
X171749671Y-62972744D01*
X171762877Y-62955296D01*
X171775309Y-62936901D01*
X171786966Y-62917560D01*
X171797848Y-62897273D01*
X171807956Y-62876039D01*
X171817288Y-62853859D01*
X171825846Y-62830732D01*
X171833630Y-62806659D01*
X171840638Y-62781639D01*
X171846872Y-62755673D01*
X171852331Y-62728760D01*
X171857016Y-62700901D01*
X171860926Y-62672096D01*
X171864061Y-62642344D01*
X171567062Y-62587145D01*
X171566482Y-62613303D01*
X171564743Y-62638104D01*
X171561845Y-62661549D01*
X171557788Y-62683637D01*
X171552572Y-62704368D01*
X171546196Y-62723742D01*
X171535892Y-62747464D01*
X171523527Y-62768774D01*
X171509102Y-62787673D01*
X171501116Y-62796217D01*
X171483745Y-62811979D01*
X171465825Y-62825068D01*
X171447356Y-62835487D01*
X171428339Y-62843234D01*
X171408774Y-62848310D01*
X171388659Y-62850714D01*
X171380460Y-62850928D01*
X171357152Y-62849854D01*
X171335466Y-62846634D01*
X171315402Y-62841268D01*
X171296959Y-62833754D01*
X171276970Y-62821905D01*
X171259316Y-62806964D01*
X171246650Y-62791890D01*
X171236132Y-62774144D01*
X171227760Y-62753727D01*
X171221534Y-62730638D01*
X171218100Y-62710244D01*
X171216039Y-62688140D01*
X171215352Y-62664326D01*
X171217189Y-62641131D01*
X171222702Y-62616974D01*
X171231890Y-62591855D01*
X171244753Y-62565774D01*
X171255369Y-62547853D01*
X171267620Y-62529504D01*
X171281503Y-62510728D01*
X171297021Y-62491524D01*
X171314171Y-62471893D01*
X171332955Y-62451835D01*
X171353372Y-62431349D01*
X171375422Y-62410436D01*
X171399106Y-62389095D01*
X171424424Y-62367327D01*
X171450111Y-62345603D01*
X171475028Y-62324393D01*
X171499173Y-62303700D01*
X171522548Y-62283521D01*
X171545152Y-62263858D01*
X171566985Y-62244709D01*
X171588047Y-62226076D01*
X171608339Y-62207958D01*
X171627859Y-62190356D01*
X171646608Y-62173268D01*
X171664587Y-62156696D01*
X171681795Y-62140639D01*
X171698231Y-62125097D01*
X171713897Y-62110070D01*
X171728792Y-62095559D01*
X171742916Y-62081563D01*
X171758630Y-62064303D01*
X171772798Y-62045499D01*
X171785420Y-62025148D01*
X171796497Y-62003252D01*
X171806028Y-61979811D01*
X171814014Y-61954824D01*
X171820454Y-61928291D01*
X171825348Y-61900212D01*
X171827753Y-61880635D01*
X171829470Y-61860370D01*
X171830500Y-61839419D01*
X171830844Y-61817780D01*
X171829878Y-61791323D01*
X171826980Y-61765442D01*
X171822150Y-61740135D01*
X171815388Y-61715404D01*
X171806694Y-61691249D01*
X171796068Y-61667668D01*
X171783510Y-61644663D01*
X171769020Y-61622233D01*
X171752598Y-61600379D01*
X171734244Y-61579100D01*
X171720935Y-61565233D01*
X171699652Y-61545591D01*
X171677022Y-61527881D01*
X171653044Y-61512103D01*
X171627718Y-61498257D01*
X171601043Y-61486343D01*
X171582511Y-61479474D01*
X171563380Y-61473463D01*
X171543650Y-61468311D01*
X171523321Y-61464018D01*
X171502392Y-61460583D01*
X171480864Y-61458007D01*
X171458737Y-61456290D01*
X171436011Y-61455431D01*
X171424424Y-61455324D01*
G37*
G36*
X169816329Y-61631179D02*
G01*
X170168038Y-61631179D01*
X170168038Y-61279469D01*
X169816329Y-61279469D01*
X169816329Y-61631179D01*
G37*
G36*
X169816329Y-62818199D02*
G01*
X170168038Y-62818199D01*
X170168038Y-62466489D01*
X169816329Y-62466489D01*
X169816329Y-62818199D01*
G37*
G36*
X167900976Y-60806615D02*
G01*
X169098743Y-63411709D01*
X169274598Y-63301800D01*
X168076831Y-60707941D01*
X167900976Y-60806615D01*
G37*
G36*
X166501953Y-60806615D02*
G01*
X167699720Y-63411709D01*
X167875575Y-63301800D01*
X166677808Y-60707941D01*
X166501953Y-60806615D01*
G37*
G36*
X165826757Y-61455795D02*
G01*
X165846825Y-61457209D01*
X165866554Y-61459566D01*
X165885942Y-61462865D01*
X165914389Y-61469581D01*
X165942071Y-61478418D01*
X165968988Y-61489376D01*
X165995142Y-61502455D01*
X166012153Y-61512353D01*
X166028824Y-61523193D01*
X166045156Y-61534976D01*
X166061148Y-61547701D01*
X166076801Y-61561369D01*
X166092114Y-61575980D01*
X166108085Y-61592810D01*
X166123026Y-61610327D01*
X166136936Y-61628530D01*
X166149816Y-61647421D01*
X166161666Y-61666999D01*
X166172485Y-61687263D01*
X166182274Y-61708215D01*
X166191032Y-61729853D01*
X166198760Y-61752178D01*
X166205458Y-61775191D01*
X166211125Y-61798890D01*
X166215762Y-61823276D01*
X166219368Y-61848349D01*
X166221944Y-61874109D01*
X166223490Y-61900556D01*
X166224005Y-61927690D01*
X166223490Y-61954867D01*
X166221944Y-61981446D01*
X166219368Y-62007425D01*
X166215762Y-62032806D01*
X166211125Y-62057587D01*
X166205458Y-62081769D01*
X166198760Y-62105352D01*
X166191032Y-62128335D01*
X166182274Y-62150720D01*
X166172485Y-62172505D01*
X166161666Y-62193691D01*
X166149816Y-62214278D01*
X166136936Y-62234266D01*
X166123026Y-62253655D01*
X166108085Y-62272444D01*
X166092114Y-62290635D01*
X166113409Y-62307077D01*
X166133330Y-62323432D01*
X166151877Y-62339699D01*
X166169050Y-62355878D01*
X166184850Y-62371969D01*
X166199275Y-62387973D01*
X166212327Y-62403889D01*
X166229329Y-62427598D01*
X166243239Y-62451110D01*
X166254058Y-62474424D01*
X166261786Y-62497541D01*
X166266423Y-62520460D01*
X166267969Y-62543182D01*
X166267829Y-62554055D01*
X166266711Y-62575094D01*
X166264474Y-62595191D01*
X166259023Y-62623568D01*
X166251056Y-62649825D01*
X166240573Y-62673960D01*
X166227575Y-62695975D01*
X166212060Y-62715869D01*
X166194029Y-62733642D01*
X166173483Y-62749294D01*
X166150421Y-62762825D01*
X166124842Y-62774235D01*
X166146137Y-62790893D01*
X166166058Y-62807895D01*
X166184606Y-62825240D01*
X166201779Y-62842929D01*
X166217578Y-62860961D01*
X166232004Y-62879336D01*
X166245056Y-62898055D01*
X166256734Y-62917117D01*
X166267038Y-62936523D01*
X166275968Y-62956273D01*
X166283524Y-62976365D01*
X166289706Y-62996802D01*
X166294515Y-63017581D01*
X166297950Y-63038705D01*
X166300010Y-63060171D01*
X166300697Y-63081981D01*
X166300268Y-63099742D01*
X166298014Y-63125897D01*
X166293828Y-63151468D01*
X166287710Y-63176456D01*
X166279660Y-63200859D01*
X166269678Y-63224678D01*
X166257764Y-63247914D01*
X166243918Y-63270565D01*
X166228140Y-63292633D01*
X166210430Y-63314117D01*
X166190788Y-63335017D01*
X166183715Y-63341779D01*
X166168347Y-63354659D01*
X166151349Y-63366680D01*
X166132722Y-63377843D01*
X166112465Y-63388147D01*
X166090578Y-63397592D01*
X166067062Y-63406179D01*
X166041917Y-63413907D01*
X166015142Y-63420776D01*
X165986737Y-63426787D01*
X165956703Y-63431939D01*
X165925039Y-63436232D01*
X165891746Y-63439667D01*
X165856823Y-63442243D01*
X165820270Y-63443960D01*
X165782088Y-63444819D01*
X165762386Y-63444926D01*
X165741971Y-63444797D01*
X165721943Y-63444411D01*
X165683045Y-63442865D01*
X165645693Y-63440289D01*
X165609887Y-63436683D01*
X165575626Y-63432046D01*
X165542911Y-63426379D01*
X165511741Y-63419681D01*
X165482117Y-63411953D01*
X165454039Y-63403195D01*
X165427506Y-63393406D01*
X165402519Y-63382587D01*
X165379077Y-63370737D01*
X165357181Y-63357857D01*
X165336831Y-63343947D01*
X165318026Y-63329006D01*
X165300767Y-63313035D01*
X165284796Y-63296505D01*
X165269855Y-63279887D01*
X165255945Y-63263181D01*
X165243065Y-63246387D01*
X165231215Y-63229506D01*
X165220396Y-63212537D01*
X165210607Y-63195480D01*
X165197856Y-63169730D01*
X165187423Y-63143782D01*
X165179309Y-63117637D01*
X165173513Y-63091295D01*
X165170035Y-63064755D01*
X165169342Y-63048764D01*
X165465387Y-63048764D01*
X165465677Y-63056909D01*
X165470027Y-63079791D01*
X165479599Y-63100346D01*
X165494391Y-63118574D01*
X165514403Y-63134475D01*
X165539637Y-63148049D01*
X165559359Y-63155806D01*
X165581402Y-63162528D01*
X165605765Y-63168216D01*
X165632449Y-63172870D01*
X165661453Y-63176490D01*
X165692777Y-63179076D01*
X165726421Y-63180627D01*
X165762386Y-63181144D01*
X165792968Y-63180541D01*
X165821577Y-63178732D01*
X165848213Y-63175717D01*
X165872875Y-63171496D01*
X165895565Y-63166070D01*
X165916282Y-63159437D01*
X165935026Y-63151598D01*
X165959442Y-63137579D01*
X165979419Y-63120846D01*
X165994956Y-63101401D01*
X166006055Y-63079241D01*
X166012713Y-63054369D01*
X166014933Y-63026782D01*
X166014504Y-63011914D01*
X166012250Y-62990413D01*
X166008064Y-62969874D01*
X166001946Y-62950296D01*
X165993896Y-62931680D01*
X165983914Y-62914026D01*
X165972000Y-62897334D01*
X165958154Y-62881603D01*
X165942376Y-62866834D01*
X165924666Y-62853027D01*
X165905024Y-62840181D01*
X165883332Y-62843601D01*
X165862220Y-62847022D01*
X165841689Y-62850443D01*
X165821737Y-62853866D01*
X165783574Y-62860715D01*
X165747731Y-62867567D01*
X165714209Y-62874423D01*
X165683007Y-62881282D01*
X165654125Y-62888146D01*
X165627564Y-62895013D01*
X165603323Y-62901885D01*
X165581402Y-62908760D01*
X165561802Y-62915639D01*
X165536751Y-62925964D01*
X165516922Y-62936298D01*
X165498604Y-62950090D01*
X165496560Y-62952168D01*
X165484071Y-62968531D01*
X165474761Y-62988072D01*
X165469312Y-63007352D01*
X165466198Y-63028967D01*
X165465387Y-63048764D01*
X165169342Y-63048764D01*
X165168876Y-63038018D01*
X165169219Y-63019041D01*
X165171023Y-62991542D01*
X165174371Y-62965203D01*
X165179266Y-62940022D01*
X165185706Y-62916001D01*
X165193691Y-62893139D01*
X165203223Y-62871436D01*
X165214299Y-62850893D01*
X165226922Y-62831508D01*
X165241090Y-62813283D01*
X165256803Y-62796217D01*
X165268523Y-62785398D01*
X165288836Y-62769813D01*
X165312430Y-62755001D01*
X165329981Y-62745556D01*
X165348990Y-62736454D01*
X165369457Y-62727696D01*
X165391381Y-62719281D01*
X165414764Y-62711209D01*
X165439604Y-62703481D01*
X165465902Y-62696097D01*
X165493658Y-62689056D01*
X165522872Y-62682358D01*
X165553543Y-62676004D01*
X165585672Y-62669993D01*
X165619260Y-62664326D01*
X165636233Y-62661567D01*
X165668889Y-62655984D01*
X165699824Y-62650313D01*
X165729038Y-62644554D01*
X165756530Y-62638708D01*
X165782302Y-62632773D01*
X165806352Y-62626751D01*
X165828681Y-62620641D01*
X165849289Y-62614444D01*
X165868176Y-62608158D01*
X165893279Y-62598566D01*
X165914510Y-62588775D01*
X165931868Y-62578788D01*
X165948988Y-62565163D01*
X165953629Y-62560370D01*
X165968539Y-62541185D01*
X165977603Y-62521985D01*
X165980710Y-62497964D01*
X165976619Y-62478730D01*
X165966682Y-62459481D01*
X165950898Y-62440216D01*
X165935223Y-62425758D01*
X165916259Y-62411290D01*
X165903409Y-62417227D01*
X165884766Y-62424233D01*
X165864399Y-62430202D01*
X165842306Y-62435133D01*
X165818489Y-62439025D01*
X165792946Y-62441880D01*
X165772658Y-62443340D01*
X165751398Y-62444216D01*
X165729169Y-62444508D01*
X165719584Y-62444389D01*
X165691220Y-62442615D01*
X165663439Y-62438711D01*
X165636242Y-62432677D01*
X165609629Y-62424514D01*
X165583600Y-62414221D01*
X165558155Y-62401799D01*
X165533294Y-62387248D01*
X165517044Y-62376364D01*
X165501054Y-62364533D01*
X165485323Y-62351756D01*
X165469852Y-62338033D01*
X165454640Y-62323363D01*
X165441331Y-62309109D01*
X165428880Y-62293825D01*
X165417288Y-62277510D01*
X165406555Y-62260165D01*
X165396680Y-62241790D01*
X165387664Y-62222384D01*
X165379507Y-62201948D01*
X165372208Y-62180481D01*
X165365768Y-62157984D01*
X165360187Y-62134456D01*
X165355464Y-62109899D01*
X165351600Y-62084310D01*
X165348595Y-62057692D01*
X165346448Y-62030043D01*
X165345160Y-62001363D01*
X165344731Y-61971653D01*
X165344971Y-61949672D01*
X165641242Y-61949672D01*
X165641381Y-61963887D01*
X165642500Y-61990963D01*
X165644736Y-62016235D01*
X165648090Y-62039701D01*
X165652563Y-62061363D01*
X165658154Y-62081219D01*
X165668637Y-62107618D01*
X165681636Y-62129957D01*
X165697150Y-62148233D01*
X165715181Y-62162449D01*
X165735727Y-62172602D01*
X165758790Y-62178695D01*
X165784368Y-62180725D01*
X165801640Y-62179823D01*
X165825460Y-62175084D01*
X165846772Y-62166284D01*
X165865577Y-62153423D01*
X165881874Y-62136500D01*
X165895664Y-62115516D01*
X165906947Y-62090470D01*
X165913076Y-62071516D01*
X165918091Y-62050758D01*
X165921991Y-62028194D01*
X165924777Y-62003825D01*
X165926449Y-61977651D01*
X165927006Y-61949672D01*
X165926866Y-61935486D01*
X165925752Y-61908467D01*
X165923523Y-61883249D01*
X165920180Y-61859832D01*
X165915723Y-61838217D01*
X165910151Y-61818402D01*
X165899704Y-61792059D01*
X165886750Y-61769768D01*
X165871288Y-61751530D01*
X165853319Y-61737344D01*
X165832842Y-61727212D01*
X165809859Y-61721133D01*
X165784368Y-61719106D01*
X165767036Y-61720007D01*
X165743135Y-61724735D01*
X165721750Y-61733517D01*
X165702881Y-61746351D01*
X165686528Y-61763238D01*
X165672690Y-61784178D01*
X165661369Y-61809171D01*
X165655219Y-61828084D01*
X165650187Y-61848799D01*
X165646273Y-61871315D01*
X165643478Y-61895633D01*
X165641801Y-61921752D01*
X165641242Y-61949672D01*
X165344971Y-61949672D01*
X165345018Y-61945390D01*
X165345881Y-61920088D01*
X165347320Y-61895747D01*
X165349333Y-61872369D01*
X165351922Y-61849952D01*
X165355086Y-61828497D01*
X165358826Y-61808003D01*
X165363141Y-61788471D01*
X165369789Y-61763925D01*
X165377459Y-61741088D01*
X165366146Y-61725186D01*
X165349706Y-61709661D01*
X165330140Y-61698018D01*
X165311447Y-61691280D01*
X165290584Y-61687237D01*
X165267550Y-61685889D01*
X165179623Y-61685889D01*
X165179623Y-61466071D01*
X165311514Y-61466071D01*
X165326441Y-61466500D01*
X165348024Y-61468754D01*
X165368636Y-61472940D01*
X165388278Y-61479058D01*
X165406950Y-61487108D01*
X165424651Y-61497090D01*
X165441382Y-61509004D01*
X165457143Y-61522850D01*
X165471934Y-61538628D01*
X165485754Y-61556338D01*
X165498604Y-61575980D01*
X165515262Y-61561369D01*
X165532263Y-61547701D01*
X165549609Y-61534976D01*
X165567297Y-61523193D01*
X165585329Y-61512353D01*
X165603704Y-61502455D01*
X165622423Y-61493500D01*
X165641486Y-61485488D01*
X165660892Y-61478418D01*
X165680641Y-61472291D01*
X165700734Y-61467107D01*
X165721170Y-61462865D01*
X165741950Y-61459566D01*
X165763073Y-61457209D01*
X165784540Y-61455795D01*
X165806350Y-61455324D01*
X165826757Y-61455795D01*
G37*
G36*
X164242219Y-61191542D02*
G01*
X164549965Y-61191542D01*
X164549965Y-60861814D01*
X164242219Y-60861814D01*
X164242219Y-61191542D01*
G37*
G36*
X164242219Y-63103963D02*
G01*
X164549965Y-63103963D01*
X164549965Y-61477306D01*
X164242219Y-61477306D01*
X164242219Y-63103963D01*
G37*
G36*
X162865177Y-61477306D02*
G01*
X162612630Y-61477306D01*
X162612630Y-61789448D01*
X162865177Y-61789448D01*
X162865177Y-62763000D01*
X162863567Y-62785235D01*
X162857385Y-62806942D01*
X162846566Y-62823222D01*
X162828083Y-62835357D01*
X162807217Y-62839879D01*
X162799232Y-62840181D01*
X162634612Y-62840181D01*
X162634612Y-63103963D01*
X162953105Y-63103963D01*
X162979723Y-63103061D01*
X163004625Y-63100353D01*
X163027809Y-63095840D01*
X163049275Y-63089522D01*
X163069025Y-63081399D01*
X163087057Y-63071471D01*
X163103371Y-63059738D01*
X163117969Y-63046200D01*
X163130849Y-63030856D01*
X163142011Y-63013708D01*
X163151457Y-62994754D01*
X163159185Y-62973995D01*
X163165195Y-62951432D01*
X163169489Y-62927063D01*
X163172065Y-62900889D01*
X163172923Y-62872909D01*
X163172923Y-61789448D01*
X163414724Y-61789448D01*
X163414724Y-61477306D01*
X163172923Y-61477306D01*
X163172923Y-60861814D01*
X162865177Y-60861814D01*
X162865177Y-61477306D01*
G37*
G36*
X161751918Y-61553998D02*
G01*
X161729098Y-61536364D01*
X161705883Y-61520464D01*
X161682272Y-61506299D01*
X161658267Y-61493869D01*
X161633866Y-61483172D01*
X161609071Y-61474211D01*
X161583880Y-61466984D01*
X161558295Y-61461491D01*
X161532315Y-61457733D01*
X161505939Y-61455709D01*
X161488136Y-61455324D01*
X161466456Y-61455709D01*
X161445378Y-61456866D01*
X161424904Y-61458793D01*
X161405033Y-61461491D01*
X161385764Y-61464960D01*
X161357992Y-61471609D01*
X161331577Y-61479993D01*
X161306518Y-61490110D01*
X161282816Y-61501963D01*
X161260470Y-61515550D01*
X161239482Y-61530871D01*
X161219850Y-61547927D01*
X161213607Y-61553998D01*
X161197894Y-61570871D01*
X161183726Y-61588516D01*
X161171103Y-61606935D01*
X161160026Y-61626126D01*
X161150495Y-61646090D01*
X161142510Y-61666827D01*
X161136070Y-61688336D01*
X161131175Y-61710619D01*
X161127826Y-61733674D01*
X161126023Y-61757502D01*
X161125680Y-61773817D01*
X161125680Y-63103963D01*
X161433426Y-63103963D01*
X161433426Y-61839762D01*
X161434225Y-61819965D01*
X161437293Y-61798350D01*
X161442663Y-61779070D01*
X161451836Y-61759528D01*
X161464141Y-61743166D01*
X161466154Y-61741088D01*
X161482767Y-61728145D01*
X161503541Y-61718381D01*
X161524658Y-61712542D01*
X161544591Y-61709461D01*
X161566647Y-61708001D01*
X161576064Y-61707871D01*
X161595695Y-61708901D01*
X161615997Y-61711993D01*
X161636972Y-61717145D01*
X161658618Y-61724357D01*
X161680935Y-61733631D01*
X161703925Y-61744965D01*
X161721608Y-61754819D01*
X161739668Y-61765831D01*
X161751918Y-61773817D01*
X161751918Y-63103963D01*
X162059664Y-63103963D01*
X162059664Y-60861814D01*
X161751918Y-60861814D01*
X161751918Y-61553998D01*
G37*
G36*
X160364131Y-62752254D02*
G01*
X160363320Y-62772051D01*
X160360206Y-62793666D01*
X160354756Y-62812946D01*
X160345446Y-62832487D01*
X160332957Y-62848850D01*
X160330914Y-62850928D01*
X160315520Y-62863871D01*
X160297975Y-62873635D01*
X160278280Y-62880220D01*
X160256435Y-62883626D01*
X160242986Y-62884145D01*
X160218310Y-62882427D01*
X160193619Y-62877275D01*
X160168912Y-62868689D01*
X160150372Y-62859995D01*
X160131823Y-62849369D01*
X160113266Y-62836811D01*
X160094700Y-62822321D01*
X160076126Y-62805899D01*
X160057543Y-62787545D01*
X160045149Y-62774235D01*
X160045149Y-61477306D01*
X159737403Y-61477306D01*
X159737403Y-63103963D01*
X160045149Y-63103963D01*
X160045149Y-63016036D01*
X160064298Y-63030706D01*
X160083274Y-63044429D01*
X160102079Y-63057206D01*
X160120712Y-63069036D01*
X160139173Y-63079921D01*
X160157463Y-63089858D01*
X160175581Y-63098849D01*
X160193527Y-63106894D01*
X160220124Y-63117187D01*
X160246335Y-63125350D01*
X160272159Y-63131383D01*
X160297597Y-63135287D01*
X160322649Y-63137062D01*
X160330914Y-63137180D01*
X160351207Y-63136879D01*
X160370809Y-63135974D01*
X160398918Y-63133487D01*
X160425472Y-63129643D01*
X160450472Y-63124442D01*
X160473918Y-63117885D01*
X160495809Y-63109971D01*
X160516147Y-63100700D01*
X160534930Y-63090073D01*
X160552159Y-63078089D01*
X160567834Y-63064748D01*
X160572714Y-63060000D01*
X160590435Y-63041024D01*
X160606414Y-63021285D01*
X160620649Y-63000782D01*
X160633141Y-62979514D01*
X160643890Y-62957482D01*
X160652896Y-62934686D01*
X160660159Y-62911125D01*
X160665679Y-62886801D01*
X160669456Y-62861712D01*
X160671489Y-62835859D01*
X160671877Y-62818199D01*
X160671877Y-61477306D01*
X160364131Y-61477306D01*
X160364131Y-62752254D01*
G37*
G36*
X159261618Y-63103963D02*
G01*
X158953872Y-63103963D01*
X158953872Y-63016036D01*
X158938874Y-63030706D01*
X158924044Y-63044429D01*
X158902114Y-63063240D01*
X158880561Y-63079921D01*
X158859387Y-63094472D01*
X158838590Y-63106894D01*
X158818171Y-63117187D01*
X158798129Y-63125350D01*
X158778466Y-63131383D01*
X158759180Y-63135287D01*
X158734054Y-63137180D01*
X158712373Y-63136793D01*
X158691296Y-63135631D01*
X158670822Y-63133694D01*
X158650950Y-63130983D01*
X158622274Y-63125463D01*
X158594954Y-63118200D01*
X158568991Y-63109194D01*
X158544384Y-63098445D01*
X158521134Y-63085953D01*
X158499241Y-63071717D01*
X158478705Y-63055739D01*
X158459525Y-63038018D01*
X158444855Y-63022661D01*
X158431132Y-63006877D01*
X158418355Y-62990665D01*
X158406524Y-62974026D01*
X158395640Y-62956960D01*
X158385702Y-62939466D01*
X158376711Y-62921544D01*
X158368667Y-62903196D01*
X158361568Y-62884419D01*
X158355416Y-62865216D01*
X158350211Y-62845585D01*
X158345952Y-62825526D01*
X158342639Y-62805040D01*
X158340273Y-62784127D01*
X158338854Y-62762786D01*
X158338380Y-62741018D01*
X158646126Y-62741018D01*
X158646645Y-62754467D01*
X158650051Y-62776312D01*
X158656636Y-62796007D01*
X158666400Y-62813552D01*
X158679343Y-62828946D01*
X158690120Y-62838515D01*
X158707050Y-62849187D01*
X158726130Y-62856681D01*
X158747361Y-62860995D01*
X158767271Y-62862163D01*
X158791771Y-62861300D01*
X158815936Y-62858713D01*
X158839765Y-62854400D01*
X158863258Y-62848363D01*
X158886416Y-62840601D01*
X158909237Y-62831113D01*
X158931723Y-62819901D01*
X158953872Y-62806964D01*
X158953872Y-61785052D01*
X158949708Y-61781656D01*
X158932191Y-61769150D01*
X158913300Y-61758369D01*
X158893036Y-61749313D01*
X158871398Y-61741982D01*
X158848385Y-61736375D01*
X158823999Y-61732494D01*
X158798239Y-61730338D01*
X158778018Y-61729853D01*
X158754456Y-61731021D01*
X158733230Y-61734524D01*
X158714339Y-61740363D01*
X158695252Y-61750127D01*
X158679343Y-61763070D01*
X158677300Y-61765148D01*
X158664811Y-61781510D01*
X158655501Y-61801052D01*
X158650051Y-61820332D01*
X158646937Y-61841947D01*
X158646126Y-61861744D01*
X158646126Y-62741018D01*
X158338380Y-62741018D01*
X158338380Y-61861744D01*
X158338854Y-61839978D01*
X158340273Y-61818643D01*
X158342639Y-61797739D01*
X158345952Y-61777267D01*
X158350211Y-61757225D01*
X158355416Y-61737615D01*
X158361568Y-61718437D01*
X158368667Y-61699689D01*
X158376711Y-61681373D01*
X158385702Y-61663488D01*
X158395640Y-61646034D01*
X158406524Y-61629011D01*
X158418355Y-61612420D01*
X158431132Y-61596260D01*
X158444855Y-61580531D01*
X158459525Y-61565233D01*
X158465767Y-61559132D01*
X158485399Y-61541992D01*
X158506388Y-61526595D01*
X158528733Y-61512941D01*
X158552435Y-61501029D01*
X158577494Y-61490861D01*
X158603910Y-61482436D01*
X158631682Y-61475755D01*
X158650950Y-61472268D01*
X158670822Y-61469557D01*
X158691296Y-61467620D01*
X158712373Y-61466458D01*
X158734054Y-61466071D01*
X158750369Y-61466286D01*
X158774196Y-61467418D01*
X158797252Y-61469521D01*
X158819534Y-61472593D01*
X158841044Y-61476636D01*
X158861780Y-61481649D01*
X158881744Y-61487633D01*
X158900936Y-61494587D01*
X158919354Y-61502511D01*
X158937000Y-61511405D01*
X158953872Y-61521270D01*
X158953872Y-60861814D01*
X159261618Y-60861814D01*
X159261618Y-63103963D01*
G37*
G36*
X157632030Y-63103963D02*
G01*
X157983740Y-63103963D01*
X157983740Y-62752254D01*
X157632030Y-62752254D01*
X157632030Y-63103963D01*
G37*
G36*
X155551570Y-61982889D02*
G01*
X155859316Y-61982889D01*
X155859316Y-61872979D01*
X155860115Y-61853170D01*
X155863183Y-61831509D01*
X155868552Y-61812149D01*
X155877725Y-61792471D01*
X155890031Y-61775925D01*
X155892044Y-61773817D01*
X155909303Y-61758876D01*
X155928108Y-61747026D01*
X155948458Y-61738268D01*
X155970354Y-61732601D01*
X155989782Y-61730239D01*
X156001953Y-61729853D01*
X156022025Y-61730926D01*
X156044693Y-61735048D01*
X156065817Y-61742261D01*
X156085394Y-61752565D01*
X156103426Y-61765960D01*
X156111863Y-61773817D01*
X156124806Y-61789915D01*
X156134570Y-61809146D01*
X156140409Y-61828123D01*
X156143912Y-61849400D01*
X156145080Y-61872979D01*
X156145080Y-62708290D01*
X156144269Y-62728087D01*
X156141155Y-62749702D01*
X156135705Y-62768982D01*
X156126395Y-62788524D01*
X156113906Y-62804886D01*
X156111863Y-62806964D01*
X156094603Y-62821905D01*
X156075799Y-62833754D01*
X156055448Y-62842513D01*
X156033552Y-62848180D01*
X156014125Y-62850541D01*
X156001953Y-62850928D01*
X155981882Y-62849854D01*
X155959213Y-62845733D01*
X155938090Y-62838520D01*
X155918512Y-62828216D01*
X155900480Y-62814821D01*
X155892044Y-62806964D01*
X155879291Y-62791056D01*
X155869671Y-62771968D01*
X155863918Y-62753078D01*
X155860466Y-62731852D01*
X155859316Y-62708290D01*
X155859316Y-62543182D01*
X155551570Y-62543182D01*
X155551570Y-62697055D01*
X155552041Y-62721485D01*
X155553455Y-62745315D01*
X155555811Y-62768547D01*
X155559111Y-62791180D01*
X155563352Y-62813213D01*
X155568537Y-62834647D01*
X155574664Y-62855482D01*
X155581734Y-62875718D01*
X155589746Y-62895355D01*
X155598701Y-62914393D01*
X155608598Y-62932831D01*
X155619439Y-62950670D01*
X155631221Y-62967910D01*
X155643947Y-62984551D01*
X155657615Y-63000593D01*
X155672226Y-63016036D01*
X155693800Y-63035678D01*
X155709255Y-63047699D01*
X155725570Y-63058862D01*
X155742743Y-63069166D01*
X155760775Y-63078611D01*
X155779666Y-63087198D01*
X155799415Y-63094926D01*
X155820023Y-63101795D01*
X155841490Y-63107806D01*
X155863815Y-63112958D01*
X155886999Y-63117251D01*
X155911042Y-63120686D01*
X155935943Y-63123262D01*
X155961703Y-63124979D01*
X155988322Y-63125838D01*
X156001953Y-63125945D01*
X156025124Y-63125430D01*
X156047863Y-63123884D01*
X156070172Y-63121308D01*
X156092048Y-63117702D01*
X156113494Y-63113065D01*
X156134509Y-63107398D01*
X156155092Y-63100700D01*
X156175244Y-63092972D01*
X156194964Y-63084214D01*
X156214254Y-63074425D01*
X156233112Y-63063606D01*
X156251539Y-63051756D01*
X156269535Y-63038876D01*
X156287099Y-63024966D01*
X156304233Y-63010025D01*
X156320935Y-62994054D01*
X156336906Y-62977438D01*
X156351847Y-62960562D01*
X156365757Y-62943427D01*
X156378637Y-62926032D01*
X156390486Y-62908378D01*
X156401306Y-62890464D01*
X156411094Y-62872291D01*
X156419853Y-62853859D01*
X156427581Y-62835166D01*
X156434278Y-62816215D01*
X156439946Y-62797003D01*
X156444582Y-62777533D01*
X156448189Y-62757802D01*
X156450765Y-62737813D01*
X156452310Y-62717563D01*
X156452826Y-62697055D01*
X156452826Y-61883726D01*
X156452310Y-61861916D01*
X156450765Y-61840449D01*
X156448189Y-61819326D01*
X156444582Y-61798546D01*
X156439946Y-61778110D01*
X156434278Y-61758017D01*
X156427581Y-61738268D01*
X156419853Y-61718862D01*
X156411094Y-61699800D01*
X156401306Y-61681081D01*
X156390486Y-61662705D01*
X156378637Y-61644673D01*
X156365757Y-61626985D01*
X156351847Y-61609640D01*
X156336906Y-61592638D01*
X156320935Y-61575980D01*
X156305492Y-61561369D01*
X156289450Y-61547701D01*
X156272809Y-61534976D01*
X156255569Y-61523193D01*
X156237730Y-61512353D01*
X156219291Y-61502455D01*
X156200254Y-61493500D01*
X156180617Y-61485488D01*
X156160381Y-61478418D01*
X156139546Y-61472291D01*
X156118112Y-61467107D01*
X156096078Y-61462865D01*
X156073446Y-61459566D01*
X156050214Y-61457209D01*
X156026383Y-61455795D01*
X156001953Y-61455324D01*
X155976222Y-61455795D01*
X155951174Y-61457209D01*
X155926809Y-61459566D01*
X155903127Y-61462865D01*
X155880128Y-61467107D01*
X155857812Y-61472291D01*
X155836179Y-61478418D01*
X155815230Y-61485488D01*
X155794963Y-61493500D01*
X155775380Y-61502455D01*
X155756480Y-61512353D01*
X155738263Y-61523193D01*
X155720729Y-61534976D01*
X155703878Y-61547701D01*
X155687710Y-61561369D01*
X155672226Y-61575980D01*
X155657615Y-61591379D01*
X155643947Y-61607289D01*
X155631221Y-61623710D01*
X155619439Y-61640643D01*
X155608598Y-61658088D01*
X155598701Y-61676043D01*
X155589746Y-61694510D01*
X155581734Y-61713489D01*
X155574664Y-61732978D01*
X155568537Y-61752980D01*
X155563352Y-61773492D01*
X155559111Y-61794516D01*
X155555811Y-61816052D01*
X155553455Y-61838098D01*
X155552041Y-61860656D01*
X155551570Y-61883726D01*
X155551570Y-61982889D01*
G37*
G36*
X154616562Y-61466178D02*
G01*
X154643180Y-61467037D01*
X154668940Y-61468754D01*
X154693842Y-61471330D01*
X154717884Y-61474765D01*
X154741068Y-61479058D01*
X154763394Y-61484210D01*
X154784860Y-61490221D01*
X154805468Y-61497090D01*
X154825218Y-61504818D01*
X154844108Y-61513405D01*
X154862140Y-61522850D01*
X154879314Y-61533154D01*
X154895628Y-61544317D01*
X154911084Y-61556338D01*
X154932658Y-61575980D01*
X154947328Y-61591465D01*
X154961051Y-61607632D01*
X154973828Y-61624483D01*
X154985659Y-61642017D01*
X154996543Y-61660234D01*
X155006481Y-61679134D01*
X155015472Y-61698718D01*
X155023517Y-61718984D01*
X155030615Y-61739934D01*
X155036767Y-61761566D01*
X155041972Y-61783882D01*
X155046231Y-61806881D01*
X155049544Y-61830563D01*
X155051910Y-61854928D01*
X155053329Y-61879976D01*
X155053803Y-61905708D01*
X155053803Y-62686308D01*
X155053329Y-62712039D01*
X155051910Y-62737088D01*
X155049544Y-62761453D01*
X155046231Y-62785135D01*
X155041972Y-62808134D01*
X155036767Y-62830449D01*
X155030615Y-62852082D01*
X155023517Y-62873032D01*
X155015472Y-62893298D01*
X155006481Y-62912881D01*
X154996543Y-62931782D01*
X154985659Y-62949999D01*
X154973828Y-62967533D01*
X154961051Y-62984383D01*
X154947328Y-63000551D01*
X154932658Y-63016036D01*
X154925682Y-63022798D01*
X154903464Y-63041796D01*
X154887578Y-63053388D01*
X154870834Y-63064121D01*
X154853232Y-63073996D01*
X154834770Y-63083012D01*
X154815450Y-63091169D01*
X154795272Y-63098468D01*
X154774234Y-63104908D01*
X154752338Y-63110489D01*
X154729584Y-63115212D01*
X154705970Y-63119076D01*
X154681498Y-63122081D01*
X154656168Y-63124228D01*
X154629978Y-63125516D01*
X154602930Y-63125945D01*
X154589299Y-63125838D01*
X154562680Y-63124979D01*
X154536920Y-63123262D01*
X154512019Y-63120686D01*
X154487976Y-63117251D01*
X154464792Y-63112958D01*
X154442467Y-63107806D01*
X154421000Y-63101795D01*
X154400392Y-63094926D01*
X154380643Y-63087198D01*
X154361752Y-63078611D01*
X154343720Y-63069166D01*
X154326547Y-63058862D01*
X154310232Y-63047699D01*
X154294776Y-63035678D01*
X154273202Y-63016036D01*
X154258592Y-63000551D01*
X154244924Y-62984383D01*
X154232198Y-62967533D01*
X154220415Y-62949999D01*
X154209575Y-62931782D01*
X154199678Y-62912881D01*
X154190723Y-62893298D01*
X154182711Y-62873032D01*
X154175641Y-62852082D01*
X154169514Y-62830449D01*
X154164329Y-62808134D01*
X154160088Y-62785135D01*
X154156788Y-62761453D01*
X154154432Y-62737088D01*
X154153413Y-62719036D01*
X154460293Y-62719036D01*
X154460679Y-62731208D01*
X154463040Y-62750635D01*
X154468707Y-62772531D01*
X154477466Y-62792882D01*
X154489315Y-62811687D01*
X154504256Y-62828946D01*
X154506334Y-62830989D01*
X154522697Y-62843478D01*
X154542238Y-62852788D01*
X154561518Y-62858238D01*
X154583133Y-62861352D01*
X154602930Y-62862163D01*
X154626509Y-62860995D01*
X154647787Y-62857492D01*
X154666764Y-62851653D01*
X154685994Y-62841889D01*
X154702093Y-62828946D01*
X154709950Y-62820509D01*
X154723345Y-62802477D01*
X154733649Y-62782900D01*
X154740862Y-62761777D01*
X154744983Y-62739108D01*
X154746057Y-62719036D01*
X154746057Y-61872979D01*
X154745670Y-61860808D01*
X154743309Y-61841380D01*
X154737642Y-61819484D01*
X154728883Y-61799134D01*
X154717034Y-61780329D01*
X154702093Y-61763070D01*
X154699985Y-61761026D01*
X154683439Y-61748538D01*
X154663761Y-61739228D01*
X154644401Y-61733778D01*
X154622739Y-61730664D01*
X154602930Y-61729853D01*
X154579369Y-61731021D01*
X154558142Y-61734524D01*
X154539252Y-61740363D01*
X154520164Y-61750127D01*
X154504256Y-61763070D01*
X154496399Y-61771506D01*
X154483004Y-61789538D01*
X154472700Y-61809116D01*
X154465487Y-61830239D01*
X154461366Y-61852908D01*
X154460293Y-61872979D01*
X154460293Y-62719036D01*
X154153413Y-62719036D01*
X154153018Y-62712039D01*
X154152547Y-62686308D01*
X154152547Y-61905708D01*
X154153018Y-61879976D01*
X154154432Y-61854928D01*
X154156788Y-61830563D01*
X154160088Y-61806881D01*
X154164329Y-61783882D01*
X154169514Y-61761566D01*
X154175641Y-61739934D01*
X154182711Y-61718984D01*
X154190723Y-61698718D01*
X154199678Y-61679134D01*
X154209575Y-61660234D01*
X154220415Y-61642017D01*
X154232198Y-61624483D01*
X154244924Y-61607632D01*
X154258592Y-61591465D01*
X154273202Y-61575980D01*
X154280179Y-61569218D01*
X154302397Y-61550220D01*
X154318282Y-61538628D01*
X154335026Y-61527895D01*
X154352629Y-61518020D01*
X154371090Y-61509004D01*
X154390410Y-61500847D01*
X154410589Y-61493548D01*
X154431626Y-61487108D01*
X154453522Y-61481527D01*
X154476277Y-61476804D01*
X154499890Y-61472940D01*
X154524362Y-61469935D01*
X154549693Y-61467788D01*
X154575882Y-61466500D01*
X154602930Y-61466071D01*
X154616562Y-61466178D01*
G37*
G36*
X153577599Y-63103963D02*
G01*
X153885345Y-63103963D01*
X153885345Y-61477306D01*
X153577599Y-61477306D01*
X153577599Y-61532016D01*
X153561027Y-61521369D01*
X153535846Y-61506686D01*
X153510279Y-61493548D01*
X153484326Y-61481956D01*
X153457987Y-61471910D01*
X153431261Y-61463409D01*
X153404148Y-61456454D01*
X153376649Y-61451044D01*
X153348764Y-61447180D01*
X153320493Y-61444862D01*
X153291835Y-61444089D01*
X153269499Y-61445055D01*
X153247739Y-61447953D01*
X153226555Y-61452783D01*
X153205945Y-61459545D01*
X153185911Y-61468239D01*
X153166452Y-61478865D01*
X153147569Y-61491423D01*
X153129261Y-61505913D01*
X153111528Y-61522335D01*
X153094370Y-61540689D01*
X153083251Y-61553998D01*
X153060039Y-61540689D01*
X153037173Y-61528238D01*
X153014655Y-61516646D01*
X152992485Y-61505913D01*
X152970661Y-61496038D01*
X152949185Y-61487022D01*
X152928056Y-61478865D01*
X152907274Y-61471566D01*
X152886840Y-61465126D01*
X152866753Y-61459545D01*
X152847013Y-61454822D01*
X152827621Y-61450958D01*
X152799183Y-61446772D01*
X152771527Y-61444518D01*
X152753523Y-61444089D01*
X152731294Y-61444668D01*
X152710035Y-61446407D01*
X152689746Y-61449305D01*
X152670427Y-61453362D01*
X152646179Y-61460575D01*
X152623655Y-61469849D01*
X152602856Y-61481183D01*
X152583782Y-61494578D01*
X152566433Y-61510034D01*
X152550977Y-61528070D01*
X152537582Y-61549205D01*
X152528888Y-61567089D01*
X152521353Y-61586717D01*
X152514978Y-61608088D01*
X152509761Y-61631202D01*
X152505704Y-61656059D01*
X152502806Y-61682659D01*
X152501067Y-61711002D01*
X152500552Y-61730866D01*
X152500488Y-61741088D01*
X152500488Y-63103963D01*
X152808234Y-63103963D01*
X152808234Y-61795799D01*
X152809608Y-61775191D01*
X152814438Y-61755291D01*
X152823883Y-61737259D01*
X152830216Y-61729853D01*
X152846656Y-61717338D01*
X152865751Y-61710018D01*
X152885415Y-61707871D01*
X152909393Y-61710018D01*
X152928593Y-61714826D01*
X152947808Y-61722383D01*
X152967038Y-61732687D01*
X152986284Y-61745738D01*
X153005544Y-61761538D01*
X153020000Y-61775191D01*
X153034464Y-61790389D01*
X153039288Y-61795799D01*
X153039288Y-63103963D01*
X153347034Y-63103963D01*
X153347034Y-61795799D01*
X153348407Y-61775191D01*
X153353237Y-61755291D01*
X153362683Y-61737259D01*
X153369015Y-61729853D01*
X153385398Y-61717338D01*
X153404320Y-61710018D01*
X153423726Y-61707871D01*
X153447833Y-61710018D01*
X153467101Y-61714826D01*
X153486355Y-61722383D01*
X153505593Y-61732687D01*
X153524815Y-61745738D01*
X153544023Y-61761538D01*
X153558418Y-61775191D01*
X153572805Y-61790389D01*
X153577599Y-61795799D01*
X153577599Y-63103963D01*
G37*
G36*
X151112700Y-60806615D02*
G01*
X152310467Y-63411709D01*
X152486322Y-63301800D01*
X151288555Y-60707941D01*
X151112700Y-60806615D01*
G37*
G36*
X150439078Y-61455324D02*
G01*
X150410628Y-61455795D01*
X150383040Y-61457209D01*
X150356314Y-61459566D01*
X150330451Y-61462865D01*
X150305451Y-61467107D01*
X150281313Y-61472291D01*
X150258037Y-61478418D01*
X150235624Y-61485488D01*
X150214073Y-61493500D01*
X150193385Y-61502455D01*
X150173560Y-61512353D01*
X150154596Y-61523193D01*
X150136496Y-61534976D01*
X150119258Y-61547701D01*
X150102882Y-61561369D01*
X150087369Y-61575980D01*
X150072657Y-61591379D01*
X150058807Y-61607289D01*
X150045821Y-61623710D01*
X150033696Y-61640643D01*
X150022434Y-61658088D01*
X150012035Y-61676043D01*
X150002498Y-61694510D01*
X149993824Y-61713489D01*
X149986012Y-61732978D01*
X149979062Y-61752980D01*
X149972975Y-61773492D01*
X149967751Y-61794516D01*
X149963389Y-61816052D01*
X149959889Y-61838098D01*
X149957252Y-61860656D01*
X149955477Y-61883726D01*
X150241242Y-61927690D01*
X150241628Y-61907661D01*
X150243345Y-61882760D01*
X150246436Y-61859919D01*
X150250902Y-61839140D01*
X150256740Y-61820421D01*
X150265971Y-61799920D01*
X150277348Y-61782639D01*
X150285205Y-61773817D01*
X150302577Y-61758055D01*
X150320496Y-61744965D01*
X150338965Y-61734547D01*
X150357982Y-61726800D01*
X150377548Y-61721724D01*
X150397662Y-61719320D01*
X150405861Y-61719106D01*
X150428895Y-61719905D01*
X150449758Y-61722302D01*
X150471929Y-61727288D01*
X150490974Y-61734576D01*
X150509243Y-61745986D01*
X150515771Y-61751835D01*
X150530711Y-61769094D01*
X150542561Y-61787899D01*
X150551319Y-61808249D01*
X150556987Y-61830145D01*
X150559348Y-61849572D01*
X150559734Y-61861744D01*
X150556300Y-61887733D01*
X150549216Y-61908798D01*
X150538268Y-61931210D01*
X150523456Y-61954971D01*
X150511434Y-61971560D01*
X150497696Y-61988749D01*
X150482240Y-62006537D01*
X150465066Y-62024924D01*
X150446176Y-62043910D01*
X150425568Y-62063495D01*
X150403242Y-62083679D01*
X150379200Y-62104463D01*
X150353440Y-62125846D01*
X150339916Y-62136762D01*
X150319552Y-62153162D01*
X150299616Y-62169391D01*
X150280107Y-62185448D01*
X150261025Y-62201333D01*
X150242371Y-62217047D01*
X150224145Y-62232589D01*
X150206345Y-62247959D01*
X150188974Y-62263157D01*
X150172029Y-62278184D01*
X150155512Y-62293039D01*
X150139423Y-62307722D01*
X150123761Y-62322233D01*
X150108526Y-62336573D01*
X150093719Y-62350741D01*
X150079339Y-62364737D01*
X150065387Y-62378562D01*
X150049416Y-62395262D01*
X150034475Y-62412390D01*
X150020564Y-62429945D01*
X150007684Y-62447927D01*
X149995835Y-62466337D01*
X149985016Y-62485174D01*
X149975227Y-62504439D01*
X149966468Y-62524131D01*
X149958740Y-62544250D01*
X149952043Y-62564797D01*
X149946376Y-62585771D01*
X149941739Y-62607173D01*
X149938132Y-62629002D01*
X149935556Y-62651259D01*
X149934011Y-62673943D01*
X149933496Y-62697055D01*
X149933967Y-62718823D01*
X149935381Y-62740163D01*
X149937737Y-62761077D01*
X149941037Y-62781563D01*
X149945278Y-62801621D01*
X149950463Y-62821252D01*
X149956590Y-62840456D01*
X149963660Y-62859232D01*
X149971672Y-62877581D01*
X149980627Y-62895502D01*
X149990524Y-62912996D01*
X150001365Y-62930062D01*
X150013147Y-62946701D01*
X150025873Y-62962913D01*
X150039541Y-62978697D01*
X150054152Y-62994054D01*
X150070896Y-63010025D01*
X150088155Y-63024966D01*
X150105929Y-63038876D01*
X150124219Y-63051756D01*
X150143023Y-63063606D01*
X150162343Y-63074425D01*
X150182179Y-63084214D01*
X150202529Y-63092972D01*
X150223395Y-63100700D01*
X150244775Y-63107398D01*
X150266671Y-63113065D01*
X150289083Y-63117702D01*
X150312009Y-63121308D01*
X150335451Y-63123884D01*
X150359407Y-63125430D01*
X150383879Y-63125945D01*
X150412330Y-63125472D01*
X150439918Y-63124052D01*
X150466643Y-63121686D01*
X150492506Y-63118374D01*
X150517507Y-63114115D01*
X150541645Y-63108909D01*
X150564921Y-63102757D01*
X150587334Y-63095659D01*
X150608884Y-63087614D01*
X150629572Y-63078623D01*
X150649398Y-63068685D01*
X150668361Y-63057801D01*
X150686462Y-63045971D01*
X150703700Y-63033194D01*
X150720076Y-63019470D01*
X150735589Y-63004801D01*
X150750345Y-62989245D01*
X150764326Y-62972744D01*
X150777532Y-62955296D01*
X150789964Y-62936901D01*
X150801621Y-62917560D01*
X150812503Y-62897273D01*
X150822610Y-62876039D01*
X150831943Y-62853859D01*
X150840501Y-62830732D01*
X150848284Y-62806659D01*
X150855293Y-62781639D01*
X150861527Y-62755673D01*
X150866986Y-62728760D01*
X150871671Y-62700901D01*
X150875580Y-62672096D01*
X150878715Y-62642344D01*
X150581716Y-62587145D01*
X150581136Y-62613303D01*
X150579398Y-62638104D01*
X150576500Y-62661549D01*
X150572442Y-62683637D01*
X150567226Y-62704368D01*
X150560851Y-62723742D01*
X150550547Y-62747464D01*
X150538182Y-62768774D01*
X150523756Y-62787673D01*
X150515771Y-62796217D01*
X150498399Y-62811979D01*
X150480479Y-62825068D01*
X150462011Y-62835487D01*
X150442994Y-62843234D01*
X150423428Y-62848310D01*
X150403314Y-62850714D01*
X150395115Y-62850928D01*
X150371807Y-62849854D01*
X150350120Y-62846634D01*
X150330056Y-62841268D01*
X150311614Y-62833754D01*
X150291624Y-62821905D01*
X150273970Y-62806964D01*
X150261305Y-62791890D01*
X150250786Y-62774144D01*
X150242414Y-62753727D01*
X150236189Y-62730638D01*
X150232754Y-62710244D01*
X150230693Y-62688140D01*
X150230006Y-62664326D01*
X150231844Y-62641131D01*
X150237357Y-62616974D01*
X150246544Y-62591855D01*
X150259407Y-62565774D01*
X150270024Y-62547853D01*
X150282274Y-62529504D01*
X150296158Y-62510728D01*
X150311675Y-62491524D01*
X150328826Y-62471893D01*
X150347609Y-62451835D01*
X150368026Y-62431349D01*
X150390077Y-62410436D01*
X150413761Y-62389095D01*
X150439078Y-62367327D01*
X150464766Y-62345603D01*
X150489682Y-62324393D01*
X150513828Y-62303700D01*
X150537203Y-62283521D01*
X150559807Y-62263858D01*
X150581640Y-62244709D01*
X150602702Y-62226076D01*
X150622993Y-62207958D01*
X150642513Y-62190356D01*
X150661263Y-62173268D01*
X150679241Y-62156696D01*
X150696449Y-62140639D01*
X150712886Y-62125097D01*
X150728552Y-62110070D01*
X150743447Y-62095559D01*
X150757571Y-62081563D01*
X150773285Y-62064303D01*
X150787453Y-62045499D01*
X150800075Y-62025148D01*
X150811152Y-62003252D01*
X150820683Y-61979811D01*
X150828669Y-61954824D01*
X150835109Y-61928291D01*
X150840003Y-61900212D01*
X150842407Y-61880635D01*
X150844125Y-61860370D01*
X150845155Y-61839419D01*
X150845498Y-61817780D01*
X150844532Y-61791323D01*
X150841634Y-61765442D01*
X150836804Y-61740135D01*
X150830042Y-61715404D01*
X150821348Y-61691249D01*
X150810722Y-61667668D01*
X150798164Y-61644663D01*
X150783674Y-61622233D01*
X150767252Y-61600379D01*
X150748898Y-61579100D01*
X150735589Y-61565233D01*
X150714307Y-61545591D01*
X150691677Y-61527881D01*
X150667699Y-61512103D01*
X150642372Y-61498257D01*
X150615698Y-61486343D01*
X150597166Y-61479474D01*
X150578035Y-61473463D01*
X150558305Y-61468311D01*
X150537975Y-61464018D01*
X150517047Y-61460583D01*
X150495519Y-61458007D01*
X150473392Y-61456290D01*
X150450666Y-61455431D01*
X150439078Y-61455324D01*
G37*
G36*
X149040438Y-61455431D02*
G01*
X149063221Y-61456290D01*
X149085401Y-61458007D01*
X149106979Y-61460583D01*
X149127953Y-61464018D01*
X149148324Y-61468311D01*
X149168093Y-61473463D01*
X149187258Y-61479474D01*
X149205821Y-61486343D01*
X149232534Y-61498257D01*
X149257890Y-61512103D01*
X149281890Y-61527881D01*
X149304533Y-61545591D01*
X149325819Y-61565233D01*
X149333934Y-61573465D01*
X149349390Y-61589864D01*
X149363815Y-61606175D01*
X149377211Y-61622398D01*
X149389575Y-61638533D01*
X149400910Y-61654581D01*
X149415979Y-61678488D01*
X149428731Y-61702197D01*
X149439163Y-61725708D01*
X149447278Y-61749023D01*
X149453074Y-61772139D01*
X149456551Y-61795059D01*
X149457711Y-61817780D01*
X149457711Y-61938925D01*
X149149965Y-61938925D01*
X149149965Y-61861744D01*
X149148797Y-61838182D01*
X149145293Y-61816956D01*
X149139454Y-61798065D01*
X149129690Y-61778978D01*
X149116747Y-61763070D01*
X149114670Y-61761026D01*
X149098307Y-61748538D01*
X149078766Y-61739228D01*
X149059486Y-61733778D01*
X149037870Y-61730664D01*
X149018073Y-61729853D01*
X149005902Y-61730239D01*
X148986474Y-61732601D01*
X148964578Y-61738268D01*
X148944228Y-61747026D01*
X148925423Y-61758876D01*
X148908164Y-61773817D01*
X148900307Y-61782253D01*
X148886912Y-61800285D01*
X148876608Y-61819863D01*
X148869395Y-61840986D01*
X148865274Y-61863655D01*
X148864200Y-61883726D01*
X148864200Y-61971653D01*
X148896916Y-61981772D01*
X148929116Y-61992834D01*
X148960800Y-62004838D01*
X148991970Y-62017785D01*
X149022624Y-62031674D01*
X149052764Y-62046506D01*
X149082387Y-62062281D01*
X149111496Y-62078998D01*
X149140090Y-62096658D01*
X149168168Y-62115261D01*
X149195731Y-62134806D01*
X149222779Y-62155293D01*
X149249312Y-62176724D01*
X149275330Y-62199097D01*
X149300832Y-62222413D01*
X149325819Y-62246671D01*
X149347114Y-62268952D01*
X149367035Y-62291833D01*
X149385583Y-62315313D01*
X149402756Y-62339392D01*
X149418555Y-62364070D01*
X149432981Y-62389347D01*
X149446033Y-62415223D01*
X149457711Y-62441699D01*
X149468015Y-62468773D01*
X149476945Y-62496447D01*
X149484501Y-62524720D01*
X149490683Y-62553592D01*
X149495492Y-62583064D01*
X149498926Y-62613134D01*
X149500987Y-62643804D01*
X149501674Y-62675073D01*
X149501567Y-62690056D01*
X149500708Y-62719251D01*
X149498991Y-62747415D01*
X149496415Y-62774549D01*
X149492980Y-62800653D01*
X149488687Y-62825726D01*
X149483535Y-62849768D01*
X149477524Y-62872781D01*
X149470655Y-62894763D01*
X149462927Y-62915714D01*
X149454340Y-62935635D01*
X149444895Y-62954526D01*
X149434591Y-62972386D01*
X149423428Y-62989216D01*
X149411407Y-63005015D01*
X149391765Y-63026782D01*
X149385503Y-63032883D01*
X149365952Y-63050024D01*
X149345249Y-63065421D01*
X149323396Y-63079075D01*
X149300392Y-63090986D01*
X149276238Y-63101154D01*
X149250933Y-63109579D01*
X149224478Y-63116261D01*
X149196872Y-63121200D01*
X149168115Y-63124396D01*
X149148304Y-63125558D01*
X149127983Y-63125945D01*
X149099226Y-63124880D01*
X149070658Y-63121686D01*
X149042279Y-63116362D01*
X149014089Y-63108909D01*
X148995401Y-63102757D01*
X148976796Y-63095659D01*
X148958276Y-63087614D01*
X148939839Y-63078623D01*
X148921487Y-63068685D01*
X148903218Y-63057801D01*
X148885034Y-63045971D01*
X148866933Y-63033194D01*
X148848916Y-63019470D01*
X148830983Y-63004801D01*
X148827887Y-63021776D01*
X148824865Y-63041422D01*
X148822294Y-63063344D01*
X148820751Y-63084191D01*
X148820237Y-63103963D01*
X148512491Y-63103963D01*
X148515238Y-63084557D01*
X148517986Y-63064808D01*
X148520734Y-63044715D01*
X148523482Y-63024279D01*
X148526229Y-63003499D01*
X148528977Y-62982376D01*
X148531725Y-62960909D01*
X148534473Y-62939099D01*
X148537220Y-62916946D01*
X148539968Y-62894449D01*
X148542716Y-62871608D01*
X148545463Y-62848424D01*
X148548211Y-62824897D01*
X148550959Y-62801026D01*
X148553707Y-62776811D01*
X148556454Y-62752254D01*
X148556454Y-62213454D01*
X148864200Y-62213454D01*
X148864200Y-62719036D01*
X148870378Y-62727842D01*
X148882801Y-62744615D01*
X148895310Y-62760269D01*
X148914240Y-62781654D01*
X148933366Y-62800523D01*
X148952691Y-62816877D01*
X148972212Y-62830714D01*
X148991932Y-62842036D01*
X149011849Y-62850841D01*
X149031963Y-62857131D01*
X149052275Y-62860905D01*
X149072784Y-62862163D01*
X149082251Y-62861959D01*
X149108848Y-62858896D01*
X149132740Y-62852158D01*
X149153928Y-62841746D01*
X149172411Y-62827658D01*
X149188189Y-62809895D01*
X149201262Y-62788457D01*
X149211630Y-62763344D01*
X149217040Y-62744560D01*
X149221247Y-62724143D01*
X149224253Y-62702092D01*
X149226056Y-62678408D01*
X149226657Y-62653091D01*
X149226560Y-62642866D01*
X149225790Y-62622800D01*
X149224248Y-62603245D01*
X149220490Y-62574872D01*
X149214997Y-62547650D01*
X149207770Y-62521578D01*
X149198808Y-62496656D01*
X149188112Y-62472885D01*
X149175682Y-62450265D01*
X149161516Y-62428796D01*
X149145617Y-62408477D01*
X149127983Y-62389309D01*
X149112756Y-62374482D01*
X149097361Y-62360167D01*
X149081798Y-62346364D01*
X149066067Y-62333072D01*
X149050168Y-62320291D01*
X149034102Y-62308022D01*
X149017867Y-62296264D01*
X149001465Y-62285017D01*
X148984895Y-62274282D01*
X148968156Y-62264058D01*
X148942734Y-62249681D01*
X148916934Y-62236455D01*
X148890756Y-62224379D01*
X148864200Y-62213454D01*
X148556454Y-62213454D01*
X148556454Y-61817780D01*
X148556884Y-61802740D01*
X148559138Y-61780338D01*
X148563324Y-61758124D01*
X148569442Y-61736099D01*
X148577492Y-61714263D01*
X148587474Y-61692616D01*
X148599388Y-61671158D01*
X148613234Y-61649889D01*
X148629012Y-61628809D01*
X148646722Y-61607918D01*
X148666364Y-61587215D01*
X148683236Y-61571244D01*
X148700878Y-61556303D01*
X148719292Y-61542393D01*
X148738476Y-61529513D01*
X148758432Y-61517663D01*
X148779158Y-61506844D01*
X148800655Y-61497055D01*
X148822923Y-61488297D01*
X148845962Y-61480569D01*
X148869772Y-61473871D01*
X148894353Y-61468204D01*
X148919705Y-61463567D01*
X148945827Y-61459961D01*
X148972721Y-61457385D01*
X149000385Y-61455839D01*
X149028820Y-61455324D01*
X149040438Y-61455431D01*
G37*
G36*
X147639458Y-61455795D02*
G01*
X147659526Y-61457209D01*
X147679254Y-61459566D01*
X147698643Y-61462865D01*
X147727089Y-61469581D01*
X147754771Y-61478418D01*
X147781689Y-61489376D01*
X147807842Y-61502455D01*
X147824854Y-61512353D01*
X147841525Y-61523193D01*
X147857857Y-61534976D01*
X147873849Y-61547701D01*
X147889502Y-61561369D01*
X147904814Y-61575980D01*
X147920786Y-61592810D01*
X147935726Y-61610327D01*
X147949637Y-61628530D01*
X147962517Y-61647421D01*
X147974366Y-61666999D01*
X147985186Y-61687263D01*
X147994974Y-61708215D01*
X148003733Y-61729853D01*
X148011461Y-61752178D01*
X148018158Y-61775191D01*
X148023826Y-61798890D01*
X148028462Y-61823276D01*
X148032069Y-61848349D01*
X148034645Y-61874109D01*
X148036190Y-61900556D01*
X148036706Y-61927690D01*
X148036190Y-61954867D01*
X148034645Y-61981446D01*
X148032069Y-62007425D01*
X148028462Y-62032806D01*
X148023826Y-62057587D01*
X148018158Y-62081769D01*
X148011461Y-62105352D01*
X148003733Y-62128335D01*
X147994974Y-62150720D01*
X147985186Y-62172505D01*
X147974366Y-62193691D01*
X147962517Y-62214278D01*
X147949637Y-62234266D01*
X147935726Y-62253655D01*
X147920786Y-62272444D01*
X147904814Y-62290635D01*
X147926109Y-62307077D01*
X147946030Y-62323432D01*
X147964578Y-62339699D01*
X147981751Y-62355878D01*
X147997550Y-62371969D01*
X148011976Y-62387973D01*
X148025028Y-62403889D01*
X148042029Y-62427598D01*
X148055940Y-62451110D01*
X148066759Y-62474424D01*
X148074487Y-62497541D01*
X148079124Y-62520460D01*
X148080669Y-62543182D01*
X148080530Y-62554055D01*
X148079411Y-62575094D01*
X148077175Y-62595191D01*
X148071724Y-62623568D01*
X148063757Y-62649825D01*
X148053274Y-62673960D01*
X148040275Y-62695975D01*
X148024761Y-62715869D01*
X148006730Y-62733642D01*
X147986184Y-62749294D01*
X147963121Y-62762825D01*
X147937543Y-62774235D01*
X147958838Y-62790893D01*
X147978759Y-62807895D01*
X147997306Y-62825240D01*
X148014480Y-62842929D01*
X148030279Y-62860961D01*
X148044705Y-62879336D01*
X148057756Y-62898055D01*
X148069434Y-62917117D01*
X148079738Y-62936523D01*
X148088668Y-62956273D01*
X148096225Y-62976365D01*
X148102407Y-62996802D01*
X148107215Y-63017581D01*
X148110650Y-63038705D01*
X148112711Y-63060171D01*
X148113398Y-63081981D01*
X148112969Y-63099742D01*
X148110715Y-63125897D01*
X148106529Y-63151468D01*
X148100411Y-63176456D01*
X148092361Y-63200859D01*
X148082379Y-63224678D01*
X148070465Y-63247914D01*
X148056619Y-63270565D01*
X148040841Y-63292633D01*
X148023131Y-63314117D01*
X148003489Y-63335017D01*
X147996416Y-63341779D01*
X147981047Y-63354659D01*
X147964050Y-63366680D01*
X147945422Y-63377843D01*
X147925165Y-63388147D01*
X147903279Y-63397592D01*
X147879763Y-63406179D01*
X147854617Y-63413907D01*
X147827842Y-63420776D01*
X147799438Y-63426787D01*
X147769403Y-63431939D01*
X147737739Y-63436232D01*
X147704446Y-63439667D01*
X147669523Y-63442243D01*
X147632971Y-63443960D01*
X147594789Y-63444819D01*
X147575087Y-63444926D01*
X147554672Y-63444797D01*
X147534643Y-63444411D01*
X147495746Y-63442865D01*
X147458394Y-63440289D01*
X147422588Y-63436683D01*
X147388327Y-63432046D01*
X147355612Y-63426379D01*
X147324442Y-63419681D01*
X147294818Y-63411953D01*
X147266740Y-63403195D01*
X147240207Y-63393406D01*
X147215220Y-63382587D01*
X147191778Y-63370737D01*
X147169882Y-63357857D01*
X147149532Y-63343947D01*
X147130727Y-63329006D01*
X147113468Y-63313035D01*
X147097496Y-63296505D01*
X147082556Y-63279887D01*
X147068645Y-63263181D01*
X147055765Y-63246387D01*
X147043916Y-63229506D01*
X147033097Y-63212537D01*
X147023308Y-63195480D01*
X147010557Y-63169730D01*
X147000124Y-63143782D01*
X146992009Y-63117637D01*
X146986213Y-63091295D01*
X146982736Y-63064755D01*
X146982043Y-63048764D01*
X147278087Y-63048764D01*
X147278377Y-63056909D01*
X147282728Y-63079791D01*
X147292299Y-63100346D01*
X147307091Y-63118574D01*
X147327104Y-63134475D01*
X147352337Y-63148049D01*
X147372060Y-63155806D01*
X147394103Y-63162528D01*
X147418466Y-63168216D01*
X147445149Y-63172870D01*
X147474153Y-63176490D01*
X147505477Y-63179076D01*
X147539122Y-63180627D01*
X147575087Y-63181144D01*
X147605669Y-63180541D01*
X147634277Y-63178732D01*
X147660913Y-63175717D01*
X147685576Y-63171496D01*
X147708266Y-63166070D01*
X147728983Y-63159437D01*
X147747726Y-63151598D01*
X147772142Y-63137579D01*
X147792119Y-63120846D01*
X147807657Y-63101401D01*
X147818755Y-63079241D01*
X147825414Y-63054369D01*
X147827634Y-63026782D01*
X147827204Y-63011914D01*
X147824950Y-62990413D01*
X147820764Y-62969874D01*
X147814646Y-62950296D01*
X147806596Y-62931680D01*
X147796614Y-62914026D01*
X147784700Y-62897334D01*
X147770854Y-62881603D01*
X147755076Y-62866834D01*
X147737366Y-62853027D01*
X147717724Y-62840181D01*
X147696033Y-62843601D01*
X147674921Y-62847022D01*
X147654389Y-62850443D01*
X147634438Y-62853866D01*
X147596275Y-62860715D01*
X147560432Y-62867567D01*
X147526910Y-62874423D01*
X147495708Y-62881282D01*
X147466826Y-62888146D01*
X147440265Y-62895013D01*
X147416023Y-62901885D01*
X147394103Y-62908760D01*
X147374502Y-62915639D01*
X147349452Y-62925964D01*
X147329623Y-62936298D01*
X147311304Y-62950090D01*
X147309261Y-62952168D01*
X147296772Y-62968531D01*
X147287462Y-62988072D01*
X147282012Y-63007352D01*
X147278898Y-63028967D01*
X147278087Y-63048764D01*
X146982043Y-63048764D01*
X146981577Y-63038018D01*
X146981920Y-63019041D01*
X146983723Y-62991542D01*
X146987072Y-62965203D01*
X146991966Y-62940022D01*
X146998406Y-62916001D01*
X147006392Y-62893139D01*
X147015923Y-62871436D01*
X147027000Y-62850893D01*
X147039622Y-62831508D01*
X147053790Y-62813283D01*
X147069504Y-62796217D01*
X147081224Y-62785398D01*
X147101537Y-62769813D01*
X147125130Y-62755001D01*
X147142681Y-62745556D01*
X147161690Y-62736454D01*
X147182157Y-62727696D01*
X147204082Y-62719281D01*
X147227464Y-62711209D01*
X147252304Y-62703481D01*
X147278603Y-62696097D01*
X147306358Y-62689056D01*
X147335572Y-62682358D01*
X147366244Y-62676004D01*
X147398373Y-62669993D01*
X147431960Y-62664326D01*
X147448934Y-62661567D01*
X147481590Y-62655984D01*
X147512525Y-62650313D01*
X147541738Y-62644554D01*
X147569231Y-62638708D01*
X147595002Y-62632773D01*
X147619053Y-62626751D01*
X147641382Y-62620641D01*
X147661990Y-62614444D01*
X147680877Y-62608158D01*
X147705980Y-62598566D01*
X147727210Y-62588775D01*
X147744568Y-62578788D01*
X147761688Y-62565163D01*
X147766329Y-62560370D01*
X147781240Y-62541185D01*
X147790303Y-62521985D01*
X147793411Y-62497964D01*
X147789320Y-62478730D01*
X147779382Y-62459481D01*
X147763598Y-62440216D01*
X147747923Y-62425758D01*
X147728960Y-62411290D01*
X147716110Y-62417227D01*
X147697467Y-62424233D01*
X147677100Y-62430202D01*
X147655007Y-62435133D01*
X147631190Y-62439025D01*
X147605647Y-62441880D01*
X147585358Y-62443340D01*
X147564099Y-62444216D01*
X147541870Y-62444508D01*
X147532285Y-62444389D01*
X147503920Y-62442615D01*
X147476140Y-62438711D01*
X147448943Y-62432677D01*
X147422330Y-62424514D01*
X147396301Y-62414221D01*
X147370856Y-62401799D01*
X147345994Y-62387248D01*
X147329745Y-62376364D01*
X147313754Y-62364533D01*
X147298024Y-62351756D01*
X147282552Y-62338033D01*
X147267341Y-62323363D01*
X147254031Y-62309109D01*
X147241581Y-62293825D01*
X147229989Y-62277510D01*
X147219255Y-62260165D01*
X147209381Y-62241790D01*
X147200365Y-62222384D01*
X147192207Y-62201948D01*
X147184909Y-62180481D01*
X147178469Y-62157984D01*
X147172887Y-62134456D01*
X147168165Y-62109899D01*
X147164301Y-62084310D01*
X147161295Y-62057692D01*
X147159149Y-62030043D01*
X147157861Y-62001363D01*
X147157431Y-61971653D01*
X147157672Y-61949672D01*
X147453942Y-61949672D01*
X147454082Y-61963887D01*
X147455200Y-61990963D01*
X147457436Y-62016235D01*
X147460791Y-62039701D01*
X147465264Y-62061363D01*
X147470855Y-62081219D01*
X147481337Y-62107618D01*
X147494336Y-62129957D01*
X147509851Y-62148233D01*
X147527881Y-62162449D01*
X147548428Y-62172602D01*
X147571490Y-62178695D01*
X147597068Y-62180725D01*
X147614341Y-62179823D01*
X147638160Y-62175084D01*
X147659473Y-62166284D01*
X147678277Y-62153423D01*
X147694575Y-62136500D01*
X147708365Y-62115516D01*
X147719648Y-62090470D01*
X147725777Y-62071516D01*
X147730791Y-62050758D01*
X147734692Y-62028194D01*
X147737478Y-62003825D01*
X147739149Y-61977651D01*
X147739706Y-61949672D01*
X147739567Y-61935486D01*
X147738453Y-61908467D01*
X147736224Y-61883249D01*
X147732881Y-61859832D01*
X147728423Y-61838217D01*
X147722852Y-61818402D01*
X147712405Y-61792059D01*
X147699450Y-61769768D01*
X147683988Y-61751530D01*
X147666019Y-61737344D01*
X147645543Y-61727212D01*
X147622559Y-61721133D01*
X147597068Y-61719106D01*
X147579737Y-61720007D01*
X147555836Y-61724735D01*
X147534451Y-61733517D01*
X147515582Y-61746351D01*
X147499228Y-61763238D01*
X147485391Y-61784178D01*
X147474069Y-61809171D01*
X147467919Y-61828084D01*
X147462888Y-61848799D01*
X147458974Y-61871315D01*
X147456179Y-61895633D01*
X147454501Y-61921752D01*
X147453942Y-61949672D01*
X147157672Y-61949672D01*
X147157719Y-61945390D01*
X147158582Y-61920088D01*
X147160020Y-61895747D01*
X147162034Y-61872369D01*
X147164623Y-61849952D01*
X147167787Y-61828497D01*
X147171526Y-61808003D01*
X147175841Y-61788471D01*
X147182489Y-61763925D01*
X147190160Y-61741088D01*
X147178847Y-61725186D01*
X147162406Y-61709661D01*
X147142840Y-61698018D01*
X147124148Y-61691280D01*
X147103284Y-61687237D01*
X147080251Y-61685889D01*
X146992323Y-61685889D01*
X146992323Y-61466071D01*
X147124214Y-61466071D01*
X147139142Y-61466500D01*
X147160724Y-61468754D01*
X147181337Y-61472940D01*
X147200979Y-61479058D01*
X147219650Y-61487108D01*
X147237352Y-61497090D01*
X147254083Y-61509004D01*
X147269844Y-61522850D01*
X147284634Y-61538628D01*
X147298454Y-61556338D01*
X147311304Y-61575980D01*
X147327962Y-61561369D01*
X147344964Y-61547701D01*
X147362309Y-61534976D01*
X147379998Y-61523193D01*
X147398030Y-61512353D01*
X147416405Y-61502455D01*
X147435124Y-61493500D01*
X147454186Y-61485488D01*
X147473592Y-61478418D01*
X147493342Y-61472291D01*
X147513434Y-61467107D01*
X147533871Y-61462865D01*
X147554650Y-61459566D01*
X147575774Y-61457209D01*
X147597240Y-61455795D01*
X147619050Y-61455324D01*
X147639458Y-61455795D01*
G37*
G36*
X146222423Y-61466178D02*
G01*
X146249042Y-61467037D01*
X146274802Y-61468754D01*
X146299703Y-61471330D01*
X146323746Y-61474765D01*
X146346930Y-61479058D01*
X146369255Y-61484210D01*
X146390722Y-61490221D01*
X146411330Y-61497090D01*
X146431079Y-61504818D01*
X146449970Y-61513405D01*
X146468002Y-61522850D01*
X146485175Y-61533154D01*
X146501490Y-61544317D01*
X146516946Y-61556338D01*
X146538520Y-61575980D01*
X146553190Y-61591465D01*
X146566913Y-61607632D01*
X146579690Y-61624483D01*
X146591521Y-61642017D01*
X146602405Y-61660234D01*
X146612342Y-61679134D01*
X146621334Y-61698718D01*
X146629378Y-61718984D01*
X146636477Y-61739934D01*
X146642629Y-61761566D01*
X146647834Y-61783882D01*
X146652093Y-61806881D01*
X146655405Y-61830563D01*
X146657772Y-61854928D01*
X146659191Y-61879976D01*
X146659664Y-61905708D01*
X146659664Y-62686308D01*
X146659191Y-62712039D01*
X146657772Y-62737088D01*
X146655405Y-62761453D01*
X146652093Y-62785135D01*
X146647834Y-62808134D01*
X146642629Y-62830449D01*
X146636477Y-62852082D01*
X146629378Y-62873032D01*
X146621334Y-62893298D01*
X146612342Y-62912881D01*
X146602405Y-62931782D01*
X146591521Y-62949999D01*
X146579690Y-62967533D01*
X146566913Y-62984383D01*
X146553190Y-63000551D01*
X146538520Y-63016036D01*
X146531543Y-63022798D01*
X146509325Y-63041796D01*
X146493440Y-63053388D01*
X146476696Y-63064121D01*
X146459093Y-63073996D01*
X146440632Y-63083012D01*
X146421312Y-63091169D01*
X146401133Y-63098468D01*
X146380096Y-63104908D01*
X146358200Y-63110489D01*
X146335445Y-63115212D01*
X146311832Y-63119076D01*
X146287360Y-63122081D01*
X146262029Y-63124228D01*
X146235840Y-63125516D01*
X146208792Y-63125945D01*
X146195161Y-63125838D01*
X146168542Y-63124979D01*
X146142782Y-63123262D01*
X146117881Y-63120686D01*
X146093838Y-63117251D01*
X146070654Y-63112958D01*
X146048329Y-63107806D01*
X146026862Y-63101795D01*
X146006254Y-63094926D01*
X145986505Y-63087198D01*
X145967614Y-63078611D01*
X145949582Y-63069166D01*
X145932409Y-63058862D01*
X145916094Y-63047699D01*
X145900638Y-63035678D01*
X145879064Y-63016036D01*
X145864454Y-63000551D01*
X145850786Y-62984383D01*
X145838060Y-62967533D01*
X145826277Y-62949999D01*
X145815437Y-62931782D01*
X145805540Y-62912881D01*
X145796585Y-62893298D01*
X145788572Y-62873032D01*
X145781503Y-62852082D01*
X145775376Y-62830449D01*
X145770191Y-62808134D01*
X145765949Y-62785135D01*
X145762650Y-62761453D01*
X145760294Y-62737088D01*
X145759275Y-62719036D01*
X146066154Y-62719036D01*
X146066541Y-62731208D01*
X146068902Y-62750635D01*
X146074569Y-62772531D01*
X146083328Y-62792882D01*
X146095177Y-62811687D01*
X146110118Y-62828946D01*
X146112196Y-62830989D01*
X146128558Y-62843478D01*
X146148100Y-62852788D01*
X146167380Y-62858238D01*
X146188995Y-62861352D01*
X146208792Y-62862163D01*
X146232371Y-62860995D01*
X146253649Y-62857492D01*
X146272625Y-62851653D01*
X146291856Y-62841889D01*
X146307955Y-62828946D01*
X146315812Y-62820509D01*
X146329207Y-62802477D01*
X146339511Y-62782900D01*
X146346724Y-62761777D01*
X146350845Y-62739108D01*
X146351918Y-62719036D01*
X146351918Y-61872979D01*
X146351532Y-61860808D01*
X146349171Y-61841380D01*
X146343504Y-61819484D01*
X146334745Y-61799134D01*
X146322896Y-61780329D01*
X146307955Y-61763070D01*
X146305847Y-61761026D01*
X146289301Y-61748538D01*
X146269622Y-61739228D01*
X146250262Y-61733778D01*
X146228601Y-61730664D01*
X146208792Y-61729853D01*
X146185230Y-61731021D01*
X146164004Y-61734524D01*
X146145113Y-61740363D01*
X146126026Y-61750127D01*
X146110118Y-61763070D01*
X146102261Y-61771506D01*
X146088866Y-61789538D01*
X146078562Y-61809116D01*
X146071349Y-61830239D01*
X146067228Y-61852908D01*
X146066154Y-61872979D01*
X146066154Y-62719036D01*
X145759275Y-62719036D01*
X145758880Y-62712039D01*
X145758408Y-62686308D01*
X145758408Y-61905708D01*
X145758880Y-61879976D01*
X145760294Y-61854928D01*
X145762650Y-61830563D01*
X145765949Y-61806881D01*
X145770191Y-61783882D01*
X145775376Y-61761566D01*
X145781503Y-61739934D01*
X145788572Y-61718984D01*
X145796585Y-61698718D01*
X145805540Y-61679134D01*
X145815437Y-61660234D01*
X145826277Y-61642017D01*
X145838060Y-61624483D01*
X145850786Y-61607632D01*
X145864454Y-61591465D01*
X145879064Y-61575980D01*
X145886041Y-61569218D01*
X145908259Y-61550220D01*
X145924144Y-61538628D01*
X145940888Y-61527895D01*
X145958491Y-61518020D01*
X145976952Y-61509004D01*
X145996272Y-61500847D01*
X146016451Y-61493548D01*
X146037488Y-61487108D01*
X146059384Y-61481527D01*
X146082139Y-61476804D01*
X146105752Y-61472940D01*
X146130224Y-61469935D01*
X146155555Y-61467788D01*
X146181744Y-61466500D01*
X146208792Y-61466071D01*
X146222423Y-61466178D01*
G37*
G36*
X144809769Y-60839832D02*
G01*
X144784082Y-60840261D01*
X144759165Y-60841549D01*
X144735019Y-60843696D01*
X144711645Y-60846701D01*
X144689041Y-60850565D01*
X144667208Y-60855288D01*
X144646146Y-60860869D01*
X144625854Y-60867309D01*
X144606334Y-60874608D01*
X144587584Y-60882765D01*
X144569606Y-60891781D01*
X144552398Y-60901656D01*
X144535961Y-60912389D01*
X144512752Y-60930099D01*
X144491276Y-60949741D01*
X144476607Y-60965083D01*
X144462883Y-60980943D01*
X144450106Y-60997323D01*
X144438276Y-61014221D01*
X144427392Y-61031639D01*
X144417454Y-61049576D01*
X144408463Y-61068031D01*
X144400418Y-61087006D01*
X144393320Y-61106499D01*
X144387168Y-61126512D01*
X144381963Y-61147044D01*
X144377704Y-61168094D01*
X144374391Y-61189664D01*
X144372025Y-61211753D01*
X144370605Y-61234361D01*
X144370132Y-61257487D01*
X144370132Y-61751835D01*
X144370994Y-61773305D01*
X144373582Y-61793753D01*
X144377894Y-61813178D01*
X144385711Y-61836021D01*
X144396222Y-61857266D01*
X144409429Y-61876912D01*
X144425331Y-61894961D01*
X144440187Y-61909303D01*
X144456119Y-61923692D01*
X144473126Y-61938128D01*
X144488559Y-61950538D01*
X144502023Y-61960907D01*
X144485537Y-61973575D01*
X144469050Y-61987033D01*
X144452564Y-62001281D01*
X144436078Y-62016319D01*
X144419591Y-62032147D01*
X144414096Y-62037599D01*
X144398334Y-62055373D01*
X144385245Y-62074197D01*
X144374826Y-62094071D01*
X144367079Y-62114993D01*
X144362003Y-62136966D01*
X144359599Y-62159988D01*
X144359385Y-62169490D01*
X144359385Y-62697055D01*
X144359857Y-62720181D01*
X144361271Y-62742789D01*
X144363627Y-62764878D01*
X144366926Y-62786448D01*
X144371168Y-62807498D01*
X144376353Y-62828030D01*
X144382480Y-62848043D01*
X144389549Y-62867536D01*
X144397562Y-62886511D01*
X144406517Y-62904966D01*
X144416414Y-62922903D01*
X144427254Y-62940321D01*
X144439037Y-62957219D01*
X144451763Y-62973599D01*
X144465431Y-62989459D01*
X144480041Y-63004801D01*
X144495526Y-63019470D01*
X144511694Y-63033194D01*
X144528544Y-63045971D01*
X144546078Y-63057801D01*
X144564296Y-63068685D01*
X144583196Y-63078623D01*
X144602779Y-63087614D01*
X144623045Y-63095659D01*
X144643995Y-63102757D01*
X144665628Y-63108909D01*
X144687943Y-63114115D01*
X144710942Y-63118374D01*
X144734624Y-63121686D01*
X144758990Y-63124052D01*
X144784038Y-63125472D01*
X144809769Y-63125945D01*
X144835558Y-63125472D01*
X144860656Y-63124052D01*
X144885063Y-63121686D01*
X144908779Y-63118374D01*
X144931805Y-63114115D01*
X144954140Y-63108909D01*
X144975784Y-63102757D01*
X144996737Y-63095659D01*
X145017000Y-63087614D01*
X145036572Y-63078623D01*
X145055453Y-63068685D01*
X145073643Y-63057801D01*
X145091143Y-63045971D01*
X145107951Y-63033194D01*
X145124070Y-63019470D01*
X145139497Y-63004801D01*
X145154167Y-62989459D01*
X145167890Y-62973599D01*
X145180667Y-62957219D01*
X145192498Y-62940321D01*
X145203382Y-62922903D01*
X145213319Y-62904966D01*
X145222311Y-62886511D01*
X145230355Y-62867536D01*
X145237454Y-62848043D01*
X145243605Y-62828030D01*
X145248811Y-62807498D01*
X145253070Y-62786448D01*
X145256382Y-62764878D01*
X145258749Y-62742789D01*
X145260168Y-62720181D01*
X145260641Y-62697055D01*
X145260641Y-62510453D01*
X144974877Y-62510453D01*
X144974877Y-62697055D01*
X144973804Y-62720363D01*
X144970584Y-62742049D01*
X144965217Y-62762113D01*
X144957704Y-62780555D01*
X144945854Y-62800545D01*
X144930914Y-62818199D01*
X144913259Y-62833140D01*
X144893270Y-62844989D01*
X144874827Y-62852503D01*
X144854763Y-62857869D01*
X144833077Y-62861089D01*
X144809769Y-62862163D01*
X144786602Y-62861089D01*
X144765033Y-62857869D01*
X144745061Y-62852503D01*
X144726688Y-62844989D01*
X144706750Y-62833140D01*
X144689113Y-62818199D01*
X144674172Y-62800545D01*
X144662323Y-62780555D01*
X144654809Y-62762113D01*
X144649443Y-62742049D01*
X144646223Y-62720363D01*
X144645149Y-62697055D01*
X144645149Y-62246671D01*
X144646223Y-62226599D01*
X144650344Y-62203931D01*
X144657557Y-62182808D01*
X144667861Y-62163230D01*
X144681256Y-62145198D01*
X144689113Y-62136762D01*
X144704507Y-62123819D01*
X144722052Y-62114055D01*
X144741747Y-62107470D01*
X144763592Y-62104064D01*
X144777041Y-62103545D01*
X144897697Y-62103545D01*
X144897697Y-61839762D01*
X144787787Y-61839762D01*
X144767990Y-61838963D01*
X144746375Y-61835895D01*
X144727095Y-61830525D01*
X144707553Y-61821352D01*
X144691191Y-61809047D01*
X144689113Y-61807034D01*
X144676170Y-61790421D01*
X144666406Y-61769647D01*
X144660567Y-61748530D01*
X144657486Y-61728597D01*
X144656026Y-61706541D01*
X144655896Y-61697124D01*
X144655896Y-61257487D01*
X144656707Y-61234454D01*
X144659140Y-61213590D01*
X144664200Y-61191420D01*
X144671596Y-61172374D01*
X144683177Y-61154105D01*
X144689113Y-61147578D01*
X144706750Y-61132637D01*
X144726688Y-61120788D01*
X144745061Y-61113274D01*
X144765033Y-61107908D01*
X144786602Y-61104688D01*
X144809769Y-61103614D01*
X144829840Y-61104688D01*
X144852509Y-61108809D01*
X144873632Y-61116022D01*
X144893210Y-61126326D01*
X144911242Y-61139721D01*
X144919678Y-61147578D01*
X144934619Y-61164837D01*
X144946469Y-61183642D01*
X144955227Y-61203992D01*
X144960894Y-61225888D01*
X144963256Y-61245316D01*
X144963642Y-61257487D01*
X144963642Y-61455324D01*
X145249406Y-61455324D01*
X145249406Y-61257487D01*
X145248935Y-61234361D01*
X145247521Y-61211753D01*
X145245164Y-61189664D01*
X145241865Y-61168094D01*
X145237623Y-61147044D01*
X145232439Y-61126512D01*
X145226312Y-61106499D01*
X145219242Y-61087006D01*
X145211230Y-61068031D01*
X145202275Y-61049576D01*
X145192377Y-61031639D01*
X145181537Y-61014221D01*
X145169754Y-60997323D01*
X145157029Y-60980943D01*
X145143361Y-60965083D01*
X145128750Y-60949741D01*
X145107271Y-60930099D01*
X145084048Y-60912389D01*
X145067598Y-60901656D01*
X145050373Y-60891781D01*
X145032374Y-60882765D01*
X145013599Y-60874608D01*
X144994050Y-60867309D01*
X144973727Y-60860869D01*
X144952628Y-60855288D01*
X144930755Y-60850565D01*
X144908107Y-60846701D01*
X144884685Y-60843696D01*
X144860488Y-60841549D01*
X144835516Y-60840261D01*
X144809769Y-60839832D01*
G37*
G36*
X143004326Y-61125596D02*
G01*
X143553872Y-61125596D01*
X143553872Y-61751835D01*
X143539019Y-61738129D01*
X143523401Y-61725771D01*
X143507019Y-61714762D01*
X143489873Y-61705100D01*
X143471963Y-61696787D01*
X143453288Y-61689822D01*
X143433849Y-61684205D01*
X143413646Y-61679936D01*
X143392679Y-61677015D01*
X143370948Y-61675442D01*
X143356036Y-61675143D01*
X143332995Y-61675528D01*
X143310645Y-61676684D01*
X143288985Y-61678612D01*
X143268017Y-61681310D01*
X143247739Y-61684779D01*
X143228152Y-61689019D01*
X143209255Y-61694029D01*
X143182206Y-61702991D01*
X143156711Y-61713687D01*
X143132770Y-61726118D01*
X143110383Y-61740283D01*
X143089550Y-61756183D01*
X143070272Y-61773817D01*
X143052550Y-61793178D01*
X143036572Y-61814077D01*
X143022337Y-61836512D01*
X143009844Y-61860485D01*
X142999095Y-61885994D01*
X142990089Y-61913041D01*
X142985054Y-61931926D01*
X142980793Y-61951494D01*
X142977307Y-61971745D01*
X142974595Y-61992679D01*
X142972658Y-62014297D01*
X142971496Y-62036597D01*
X142971109Y-62059581D01*
X142971109Y-62697055D01*
X142971582Y-62721485D01*
X142973002Y-62745315D01*
X142975368Y-62768547D01*
X142978681Y-62791180D01*
X142982939Y-62813213D01*
X142988145Y-62834647D01*
X142994297Y-62855482D01*
X143001395Y-62875718D01*
X143009440Y-62895355D01*
X143018431Y-62914393D01*
X143028369Y-62932831D01*
X143039253Y-62950670D01*
X143051083Y-62967910D01*
X143063860Y-62984551D01*
X143077584Y-63000593D01*
X143092253Y-63016036D01*
X143113729Y-63035678D01*
X143136938Y-63053388D01*
X143153375Y-63064121D01*
X143170583Y-63073996D01*
X143188561Y-63083012D01*
X143207311Y-63091169D01*
X143226831Y-63098468D01*
X143247122Y-63104908D01*
X143268185Y-63110489D01*
X143290018Y-63115212D01*
X143312622Y-63119076D01*
X143335996Y-63122081D01*
X143360142Y-63124228D01*
X143385059Y-63125516D01*
X143410746Y-63125945D01*
X143436493Y-63125516D01*
X143461465Y-63124228D01*
X143485662Y-63122081D01*
X143509084Y-63119076D01*
X143531732Y-63115212D01*
X143553605Y-63110489D01*
X143574704Y-63104908D01*
X143595027Y-63098468D01*
X143614576Y-63091169D01*
X143633351Y-63083012D01*
X143651350Y-63073996D01*
X143668575Y-63064121D01*
X143685025Y-63053388D01*
X143708248Y-63035678D01*
X143729727Y-63016036D01*
X143744338Y-63000593D01*
X143758006Y-62984551D01*
X143770731Y-62967910D01*
X143782514Y-62950670D01*
X143793354Y-62932831D01*
X143803252Y-62914393D01*
X143812207Y-62895355D01*
X143820219Y-62875718D01*
X143827289Y-62855482D01*
X143833416Y-62834647D01*
X143838600Y-62813213D01*
X143842842Y-62791180D01*
X143846141Y-62768547D01*
X143848498Y-62745315D01*
X143849912Y-62721485D01*
X143850383Y-62697055D01*
X143850383Y-62488471D01*
X143564619Y-62488471D01*
X143564619Y-62697055D01*
X143563546Y-62720363D01*
X143560326Y-62742049D01*
X143554959Y-62762113D01*
X143547446Y-62780555D01*
X143535596Y-62800545D01*
X143520655Y-62818199D01*
X143503396Y-62833140D01*
X143484591Y-62844989D01*
X143464241Y-62853748D01*
X143442345Y-62859415D01*
X143422918Y-62861776D01*
X143410746Y-62862163D01*
X143387579Y-62861089D01*
X143366010Y-62857869D01*
X143346038Y-62852503D01*
X143327665Y-62844989D01*
X143307727Y-62833140D01*
X143290090Y-62818199D01*
X143277147Y-62801049D01*
X143268583Y-62782181D01*
X143262355Y-62759466D01*
X143258949Y-62737599D01*
X143257165Y-62713060D01*
X143256873Y-62697055D01*
X143256873Y-62114780D01*
X143257560Y-62090852D01*
X143259621Y-62068648D01*
X143263056Y-62048170D01*
X143269281Y-62024998D01*
X143277653Y-62004521D01*
X143288171Y-61986740D01*
X143300837Y-61971653D01*
X143318096Y-61956713D01*
X143336901Y-61944863D01*
X143357251Y-61936105D01*
X143379147Y-61930437D01*
X143398575Y-61928076D01*
X143410746Y-61927690D01*
X143431051Y-61929235D01*
X143450565Y-61933872D01*
X143469290Y-61941600D01*
X143487225Y-61952419D01*
X143504369Y-61966330D01*
X143509909Y-61971653D01*
X143524849Y-61988913D01*
X143536699Y-62007717D01*
X143545457Y-62028068D01*
X143551125Y-62049964D01*
X143553486Y-62069391D01*
X143553872Y-62081563D01*
X143839637Y-62081563D01*
X143839637Y-60861814D01*
X143004326Y-60861814D01*
X143004326Y-61125596D01*
G37*
G36*
X141319539Y-60806615D02*
G01*
X142517306Y-63411709D01*
X142693161Y-63301800D01*
X141495394Y-60707941D01*
X141319539Y-60806615D01*
G37*
G36*
X140480809Y-61477306D02*
G01*
X140228262Y-61477306D01*
X140228262Y-61789448D01*
X140480809Y-61789448D01*
X140480809Y-62763000D01*
X140479199Y-62785235D01*
X140473017Y-62806942D01*
X140462197Y-62823222D01*
X140443715Y-62835357D01*
X140422849Y-62839879D01*
X140414863Y-62840181D01*
X140250244Y-62840181D01*
X140250244Y-63103963D01*
X140568736Y-63103963D01*
X140595355Y-63103061D01*
X140620256Y-63100353D01*
X140643440Y-63095840D01*
X140664907Y-63089522D01*
X140684656Y-63081399D01*
X140702688Y-63071471D01*
X140719003Y-63059738D01*
X140733600Y-63046200D01*
X140746480Y-63030856D01*
X140757643Y-63013708D01*
X140767088Y-62994754D01*
X140774816Y-62973995D01*
X140780827Y-62951432D01*
X140785120Y-62927063D01*
X140787696Y-62900889D01*
X140788555Y-62872909D01*
X140788555Y-61789448D01*
X141030355Y-61789448D01*
X141030355Y-61477306D01*
X140788555Y-61477306D01*
X140788555Y-60861814D01*
X140480809Y-60861814D01*
X140480809Y-61477306D01*
G37*
G36*
X139059804Y-61191542D02*
G01*
X139367550Y-61191542D01*
X139367550Y-60861814D01*
X139059804Y-60861814D01*
X139059804Y-61191542D01*
G37*
G36*
X139059804Y-63103963D02*
G01*
X139367550Y-63103963D01*
X139367550Y-61477306D01*
X139059804Y-61477306D01*
X139059804Y-63103963D01*
G37*
G36*
X137353035Y-63103963D02*
G01*
X137660781Y-63103963D01*
X137660781Y-61807034D01*
X137661554Y-61787502D01*
X137664409Y-61767667D01*
X137670248Y-61748891D01*
X137681410Y-61731259D01*
X137682763Y-61729853D01*
X137698324Y-61717100D01*
X137715942Y-61707480D01*
X137735617Y-61700992D01*
X137757349Y-61697636D01*
X137770690Y-61697124D01*
X137795473Y-61698666D01*
X137820241Y-61703292D01*
X137844994Y-61711000D01*
X137863548Y-61718806D01*
X137882094Y-61728346D01*
X137900631Y-61739620D01*
X137919159Y-61752629D01*
X137937679Y-61767372D01*
X137956191Y-61783850D01*
X137968527Y-61795799D01*
X137968527Y-63103963D01*
X138276273Y-63103963D01*
X138276273Y-61477306D01*
X137968527Y-61477306D01*
X137968527Y-61553998D01*
X137949337Y-61542049D01*
X137930234Y-61530871D01*
X137911220Y-61520464D01*
X137892293Y-61510828D01*
X137873454Y-61501963D01*
X137854702Y-61493869D01*
X137836039Y-61486545D01*
X137817463Y-61479993D01*
X137789764Y-61471609D01*
X137762262Y-61464960D01*
X137734958Y-61460046D01*
X137707851Y-61456866D01*
X137680942Y-61455420D01*
X137672016Y-61455324D01*
X137645764Y-61455998D01*
X137620679Y-61458020D01*
X137596763Y-61461390D01*
X137574014Y-61466109D01*
X137552433Y-61472175D01*
X137532019Y-61479590D01*
X137512774Y-61488353D01*
X137494696Y-61498463D01*
X137477786Y-61509922D01*
X137462044Y-61522729D01*
X137452198Y-61532016D01*
X137434476Y-61551185D01*
X137418498Y-61571503D01*
X137404263Y-61592973D01*
X137391770Y-61615593D01*
X137381021Y-61639364D01*
X137372015Y-61664285D01*
X137364752Y-61690357D01*
X137359233Y-61717580D01*
X137355456Y-61745953D01*
X137353907Y-61765508D01*
X137353132Y-61785574D01*
X137353035Y-61795799D01*
X137353035Y-63103963D01*
G37*
G36*
X136415631Y-62367327D02*
G01*
X136173831Y-61477306D01*
X135844103Y-61477306D01*
X136371667Y-63225108D01*
X136380384Y-63251726D01*
X136390047Y-63276628D01*
X136400656Y-63299812D01*
X136412212Y-63321278D01*
X136424714Y-63341028D01*
X136438162Y-63359060D01*
X136452557Y-63375374D01*
X136467899Y-63389972D01*
X136484187Y-63402852D01*
X136501421Y-63414014D01*
X136519602Y-63423460D01*
X136538729Y-63431188D01*
X136558803Y-63437198D01*
X136579823Y-63441492D01*
X136601790Y-63444068D01*
X136624703Y-63444926D01*
X136910467Y-63444926D01*
X136910467Y-63191891D01*
X136789323Y-63191891D01*
X136769525Y-63191354D01*
X136747910Y-63189293D01*
X136728630Y-63185687D01*
X136709089Y-63179526D01*
X136690648Y-63169909D01*
X136676139Y-63156084D01*
X136663740Y-63137537D01*
X136653434Y-63117358D01*
X136645206Y-63098124D01*
X136636993Y-63076142D01*
X136628796Y-63051413D01*
X136624703Y-63038018D01*
X136569504Y-62850928D01*
X136976413Y-61477306D01*
X136646685Y-61477306D01*
X136415631Y-62367327D01*
G37*
G36*
X135048251Y-61455795D02*
G01*
X135068319Y-61457209D01*
X135088047Y-61459566D01*
X135107436Y-61462865D01*
X135135882Y-61469581D01*
X135163564Y-61478418D01*
X135190482Y-61489376D01*
X135216635Y-61502455D01*
X135233646Y-61512353D01*
X135250318Y-61523193D01*
X135266650Y-61534976D01*
X135282642Y-61547701D01*
X135298294Y-61561369D01*
X135313607Y-61575980D01*
X135329578Y-61592810D01*
X135344519Y-61610327D01*
X135358430Y-61628530D01*
X135371310Y-61647421D01*
X135383159Y-61666999D01*
X135393978Y-61687263D01*
X135403767Y-61708215D01*
X135412526Y-61729853D01*
X135420254Y-61752178D01*
X135426951Y-61775191D01*
X135432618Y-61798890D01*
X135437255Y-61823276D01*
X135440862Y-61848349D01*
X135443438Y-61874109D01*
X135444983Y-61900556D01*
X135445498Y-61927690D01*
X135444983Y-61954867D01*
X135443438Y-61981446D01*
X135440862Y-62007425D01*
X135437255Y-62032806D01*
X135432618Y-62057587D01*
X135426951Y-62081769D01*
X135420254Y-62105352D01*
X135412526Y-62128335D01*
X135403767Y-62150720D01*
X135393978Y-62172505D01*
X135383159Y-62193691D01*
X135371310Y-62214278D01*
X135358430Y-62234266D01*
X135344519Y-62253655D01*
X135329578Y-62272444D01*
X135313607Y-62290635D01*
X135334902Y-62307077D01*
X135354823Y-62323432D01*
X135373370Y-62339699D01*
X135390544Y-62355878D01*
X135406343Y-62371969D01*
X135420769Y-62387973D01*
X135433821Y-62403889D01*
X135450822Y-62427598D01*
X135464732Y-62451110D01*
X135475552Y-62474424D01*
X135483280Y-62497541D01*
X135487916Y-62520460D01*
X135489462Y-62543182D01*
X135489322Y-62554055D01*
X135488204Y-62575094D01*
X135485968Y-62595191D01*
X135480517Y-62623568D01*
X135472550Y-62649825D01*
X135462067Y-62673960D01*
X135449068Y-62695975D01*
X135433553Y-62715869D01*
X135415523Y-62733642D01*
X135394976Y-62749294D01*
X135371914Y-62762825D01*
X135346336Y-62774235D01*
X135367631Y-62790893D01*
X135387552Y-62807895D01*
X135406099Y-62825240D01*
X135423272Y-62842929D01*
X135439072Y-62860961D01*
X135453497Y-62879336D01*
X135466549Y-62898055D01*
X135478227Y-62917117D01*
X135488531Y-62936523D01*
X135497461Y-62956273D01*
X135505017Y-62976365D01*
X135511200Y-62996802D01*
X135516008Y-63017581D01*
X135519443Y-63038705D01*
X135521504Y-63060171D01*
X135522191Y-63081981D01*
X135521761Y-63099742D01*
X135519507Y-63125897D01*
X135515321Y-63151468D01*
X135509203Y-63176456D01*
X135501153Y-63200859D01*
X135491171Y-63224678D01*
X135479257Y-63247914D01*
X135465411Y-63270565D01*
X135449633Y-63292633D01*
X135431923Y-63314117D01*
X135412281Y-63335017D01*
X135405208Y-63341779D01*
X135389840Y-63354659D01*
X135372842Y-63366680D01*
X135354215Y-63377843D01*
X135333958Y-63388147D01*
X135312072Y-63397592D01*
X135288556Y-63406179D01*
X135263410Y-63413907D01*
X135236635Y-63420776D01*
X135208230Y-63426787D01*
X135178196Y-63431939D01*
X135146532Y-63436232D01*
X135113239Y-63439667D01*
X135078316Y-63442243D01*
X135041764Y-63443960D01*
X135003581Y-63444819D01*
X134983879Y-63444926D01*
X134963465Y-63444797D01*
X134943436Y-63444411D01*
X134904539Y-63442865D01*
X134867187Y-63440289D01*
X134831380Y-63436683D01*
X134797119Y-63432046D01*
X134764404Y-63426379D01*
X134733235Y-63419681D01*
X134703611Y-63411953D01*
X134675532Y-63403195D01*
X134649000Y-63393406D01*
X134624012Y-63382587D01*
X134600571Y-63370737D01*
X134578675Y-63357857D01*
X134558324Y-63343947D01*
X134539520Y-63329006D01*
X134522260Y-63313035D01*
X134506289Y-63296505D01*
X134491348Y-63279887D01*
X134477438Y-63263181D01*
X134464558Y-63246387D01*
X134452708Y-63229506D01*
X134441889Y-63212537D01*
X134432100Y-63195480D01*
X134419349Y-63169730D01*
X134408916Y-63143782D01*
X134400802Y-63117637D01*
X134395006Y-63091295D01*
X134391528Y-63064755D01*
X134390835Y-63048764D01*
X134686880Y-63048764D01*
X134687170Y-63056909D01*
X134691521Y-63079791D01*
X134701092Y-63100346D01*
X134715884Y-63118574D01*
X134735897Y-63134475D01*
X134761130Y-63148049D01*
X134780853Y-63155806D01*
X134802895Y-63162528D01*
X134827259Y-63168216D01*
X134853942Y-63172870D01*
X134882946Y-63176490D01*
X134914270Y-63179076D01*
X134947915Y-63180627D01*
X134983879Y-63181144D01*
X135014461Y-63180541D01*
X135043070Y-63178732D01*
X135069706Y-63175717D01*
X135094369Y-63171496D01*
X135117059Y-63166070D01*
X135137775Y-63159437D01*
X135156519Y-63151598D01*
X135180935Y-63137579D01*
X135200912Y-63120846D01*
X135216450Y-63101401D01*
X135227548Y-63079241D01*
X135234207Y-63054369D01*
X135236426Y-63026782D01*
X135235997Y-63011914D01*
X135233743Y-62990413D01*
X135229557Y-62969874D01*
X135223439Y-62950296D01*
X135215389Y-62931680D01*
X135205407Y-62914026D01*
X135193493Y-62897334D01*
X135179647Y-62881603D01*
X135163869Y-62866834D01*
X135146159Y-62853027D01*
X135126517Y-62840181D01*
X135104825Y-62843601D01*
X135083714Y-62847022D01*
X135063182Y-62850443D01*
X135043230Y-62853866D01*
X135005067Y-62860715D01*
X134969225Y-62867567D01*
X134935702Y-62874423D01*
X134904500Y-62881282D01*
X134875619Y-62888146D01*
X134849057Y-62895013D01*
X134824816Y-62901885D01*
X134802895Y-62908760D01*
X134783295Y-62915639D01*
X134758245Y-62925964D01*
X134738415Y-62936298D01*
X134720097Y-62950090D01*
X134718053Y-62952168D01*
X134705565Y-62968531D01*
X134696255Y-62988072D01*
X134690805Y-63007352D01*
X134687691Y-63028967D01*
X134686880Y-63048764D01*
X134390835Y-63048764D01*
X134390369Y-63038018D01*
X134390713Y-63019041D01*
X134392516Y-62991542D01*
X134395865Y-62965203D01*
X134400759Y-62940022D01*
X134407199Y-62916001D01*
X134415185Y-62893139D01*
X134424716Y-62871436D01*
X134435793Y-62850893D01*
X134448415Y-62831508D01*
X134462583Y-62813283D01*
X134478297Y-62796217D01*
X134490017Y-62785398D01*
X134510330Y-62769813D01*
X134533923Y-62755001D01*
X134551474Y-62745556D01*
X134570483Y-62736454D01*
X134590950Y-62727696D01*
X134612875Y-62719281D01*
X134636257Y-62711209D01*
X134661097Y-62703481D01*
X134687395Y-62696097D01*
X134715151Y-62689056D01*
X134744365Y-62682358D01*
X134775036Y-62676004D01*
X134807166Y-62669993D01*
X134840753Y-62664326D01*
X134857727Y-62661567D01*
X134890383Y-62655984D01*
X134921317Y-62650313D01*
X134950531Y-62644554D01*
X134978024Y-62638708D01*
X135003795Y-62632773D01*
X135027845Y-62626751D01*
X135050175Y-62620641D01*
X135070783Y-62614444D01*
X135089669Y-62608158D01*
X135114773Y-62598566D01*
X135136003Y-62588775D01*
X135153361Y-62578788D01*
X135170481Y-62565163D01*
X135175122Y-62560370D01*
X135190032Y-62541185D01*
X135199096Y-62521985D01*
X135202204Y-62497964D01*
X135198113Y-62478730D01*
X135188175Y-62459481D01*
X135172391Y-62440216D01*
X135156716Y-62425758D01*
X135137752Y-62411290D01*
X135124902Y-62417227D01*
X135106260Y-62424233D01*
X135085892Y-62430202D01*
X135063800Y-62435133D01*
X135039982Y-62439025D01*
X135014440Y-62441880D01*
X134994151Y-62443340D01*
X134972892Y-62444216D01*
X134950662Y-62444508D01*
X134941078Y-62444389D01*
X134912713Y-62442615D01*
X134884932Y-62438711D01*
X134857736Y-62432677D01*
X134831123Y-62424514D01*
X134805094Y-62414221D01*
X134779648Y-62401799D01*
X134754787Y-62387248D01*
X134738537Y-62376364D01*
X134722547Y-62364533D01*
X134706816Y-62351756D01*
X134691345Y-62338033D01*
X134676133Y-62323363D01*
X134662824Y-62309109D01*
X134650373Y-62293825D01*
X134638781Y-62277510D01*
X134628048Y-62260165D01*
X134618173Y-62241790D01*
X134609157Y-62222384D01*
X134601000Y-62201948D01*
X134593701Y-62180481D01*
X134587261Y-62157984D01*
X134581680Y-62134456D01*
X134576957Y-62109899D01*
X134573093Y-62084310D01*
X134570088Y-62057692D01*
X134567941Y-62030043D01*
X134566653Y-62001363D01*
X134566224Y-61971653D01*
X134566465Y-61949672D01*
X134862735Y-61949672D01*
X134862875Y-61963887D01*
X134863993Y-61990963D01*
X134866229Y-62016235D01*
X134869584Y-62039701D01*
X134874056Y-62061363D01*
X134879647Y-62081219D01*
X134890130Y-62107618D01*
X134903129Y-62129957D01*
X134918644Y-62148233D01*
X134936674Y-62162449D01*
X134957221Y-62172602D01*
X134980283Y-62178695D01*
X135005861Y-62180725D01*
X135023134Y-62179823D01*
X135046953Y-62175084D01*
X135068265Y-62166284D01*
X135087070Y-62153423D01*
X135103368Y-62136500D01*
X135117158Y-62115516D01*
X135128441Y-62090470D01*
X135134570Y-62071516D01*
X135139584Y-62050758D01*
X135143484Y-62028194D01*
X135146270Y-62003825D01*
X135147942Y-61977651D01*
X135148499Y-61949672D01*
X135148360Y-61935486D01*
X135147245Y-61908467D01*
X135145017Y-61883249D01*
X135141674Y-61859832D01*
X135137216Y-61838217D01*
X135131644Y-61818402D01*
X135121197Y-61792059D01*
X135108243Y-61769768D01*
X135092781Y-61751530D01*
X135074812Y-61737344D01*
X135054336Y-61727212D01*
X135031352Y-61721133D01*
X135005861Y-61719106D01*
X134988530Y-61720007D01*
X134964629Y-61724735D01*
X134943243Y-61733517D01*
X134924374Y-61746351D01*
X134908021Y-61763238D01*
X134894184Y-61784178D01*
X134882862Y-61809171D01*
X134876712Y-61828084D01*
X134871680Y-61848799D01*
X134867767Y-61871315D01*
X134864971Y-61895633D01*
X134863294Y-61921752D01*
X134862735Y-61949672D01*
X134566465Y-61949672D01*
X134566512Y-61945390D01*
X134567375Y-61920088D01*
X134568813Y-61895747D01*
X134570827Y-61872369D01*
X134573415Y-61849952D01*
X134576580Y-61828497D01*
X134580319Y-61808003D01*
X134584634Y-61788471D01*
X134591282Y-61763925D01*
X134598953Y-61741088D01*
X134587640Y-61725186D01*
X134571199Y-61709661D01*
X134551633Y-61698018D01*
X134532940Y-61691280D01*
X134512077Y-61687237D01*
X134489043Y-61685889D01*
X134401116Y-61685889D01*
X134401116Y-61466071D01*
X134533007Y-61466071D01*
X134547935Y-61466500D01*
X134569517Y-61468754D01*
X134590129Y-61472940D01*
X134609771Y-61479058D01*
X134628443Y-61487108D01*
X134646144Y-61497090D01*
X134662876Y-61509004D01*
X134678636Y-61522850D01*
X134693427Y-61538628D01*
X134707247Y-61556338D01*
X134720097Y-61575980D01*
X134736755Y-61561369D01*
X134753757Y-61547701D01*
X134771102Y-61534976D01*
X134788790Y-61523193D01*
X134806822Y-61512353D01*
X134825198Y-61502455D01*
X134843917Y-61493500D01*
X134862979Y-61485488D01*
X134882385Y-61478418D01*
X134902134Y-61472291D01*
X134922227Y-61467107D01*
X134942663Y-61462865D01*
X134963443Y-61459566D01*
X134984566Y-61457209D01*
X135006033Y-61455795D01*
X135027843Y-61455324D01*
X135048251Y-61455795D01*
G37*
G36*
X133631216Y-61466178D02*
G01*
X133657835Y-61467037D01*
X133683595Y-61468754D01*
X133708496Y-61471330D01*
X133732539Y-61474765D01*
X133755723Y-61479058D01*
X133778048Y-61484210D01*
X133799515Y-61490221D01*
X133820123Y-61497090D01*
X133839872Y-61504818D01*
X133858763Y-61513405D01*
X133876795Y-61522850D01*
X133893968Y-61533154D01*
X133910283Y-61544317D01*
X133925739Y-61556338D01*
X133947313Y-61575980D01*
X133961983Y-61591465D01*
X133975706Y-61607632D01*
X133988483Y-61624483D01*
X134000313Y-61642017D01*
X134011198Y-61660234D01*
X134021135Y-61679134D01*
X134030126Y-61698718D01*
X134038171Y-61718984D01*
X134045269Y-61739934D01*
X134051421Y-61761566D01*
X134056627Y-61783882D01*
X134060886Y-61806881D01*
X134064198Y-61830563D01*
X134066564Y-61854928D01*
X134067984Y-61879976D01*
X134068457Y-61905708D01*
X134068457Y-62686308D01*
X134067984Y-62712039D01*
X134066564Y-62737088D01*
X134064198Y-62761453D01*
X134060886Y-62785135D01*
X134056627Y-62808134D01*
X134051421Y-62830449D01*
X134045269Y-62852082D01*
X134038171Y-62873032D01*
X134030126Y-62893298D01*
X134021135Y-62912881D01*
X134011198Y-62931782D01*
X134000313Y-62949999D01*
X133988483Y-62967533D01*
X133975706Y-62984383D01*
X133961983Y-63000551D01*
X133947313Y-63016036D01*
X133940336Y-63022798D01*
X133918118Y-63041796D01*
X133902233Y-63053388D01*
X133885489Y-63064121D01*
X133867886Y-63073996D01*
X133849425Y-63083012D01*
X133830105Y-63091169D01*
X133809926Y-63098468D01*
X133788889Y-63104908D01*
X133766993Y-63110489D01*
X133744238Y-63115212D01*
X133720625Y-63119076D01*
X133696153Y-63122081D01*
X133670822Y-63124228D01*
X133644633Y-63125516D01*
X133617585Y-63125945D01*
X133603954Y-63125838D01*
X133577335Y-63124979D01*
X133551575Y-63123262D01*
X133526674Y-63120686D01*
X133502631Y-63117251D01*
X133479447Y-63112958D01*
X133457122Y-63107806D01*
X133435655Y-63101795D01*
X133415047Y-63094926D01*
X133395298Y-63087198D01*
X133376407Y-63078611D01*
X133358375Y-63069166D01*
X133341202Y-63058862D01*
X133324887Y-63047699D01*
X133309431Y-63035678D01*
X133287857Y-63016036D01*
X133273246Y-63000551D01*
X133259578Y-62984383D01*
X133246853Y-62967533D01*
X133235070Y-62949999D01*
X133224230Y-62931782D01*
X133214332Y-62912881D01*
X133205377Y-62893298D01*
X133197365Y-62873032D01*
X133190295Y-62852082D01*
X133184168Y-62830449D01*
X133178984Y-62808134D01*
X133174742Y-62785135D01*
X133171443Y-62761453D01*
X133169086Y-62737088D01*
X133168067Y-62719036D01*
X133474947Y-62719036D01*
X133475333Y-62731208D01*
X133477695Y-62750635D01*
X133483362Y-62772531D01*
X133492120Y-62792882D01*
X133503970Y-62811687D01*
X133518911Y-62828946D01*
X133520989Y-62830989D01*
X133537351Y-62843478D01*
X133556892Y-62852788D01*
X133576172Y-62858238D01*
X133597788Y-62861352D01*
X133617585Y-62862163D01*
X133641164Y-62860995D01*
X133662442Y-62857492D01*
X133681418Y-62851653D01*
X133700649Y-62841889D01*
X133716747Y-62828946D01*
X133724604Y-62820509D01*
X133737999Y-62802477D01*
X133748303Y-62782900D01*
X133755516Y-62761777D01*
X133759638Y-62739108D01*
X133760711Y-62719036D01*
X133760711Y-61872979D01*
X133760325Y-61860808D01*
X133757963Y-61841380D01*
X133752296Y-61819484D01*
X133743538Y-61799134D01*
X133731688Y-61780329D01*
X133716747Y-61763070D01*
X133714639Y-61761026D01*
X133698093Y-61748538D01*
X133678415Y-61739228D01*
X133659055Y-61733778D01*
X133637394Y-61730664D01*
X133617585Y-61729853D01*
X133594023Y-61731021D01*
X133572797Y-61734524D01*
X133553906Y-61740363D01*
X133534819Y-61750127D01*
X133518911Y-61763070D01*
X133511054Y-61771506D01*
X133497659Y-61789538D01*
X133487355Y-61809116D01*
X133480142Y-61830239D01*
X133476020Y-61852908D01*
X133474947Y-61872979D01*
X133474947Y-62719036D01*
X133168067Y-62719036D01*
X133167672Y-62712039D01*
X133167201Y-62686308D01*
X133167201Y-61905708D01*
X133167672Y-61879976D01*
X133169086Y-61854928D01*
X133171443Y-61830563D01*
X133174742Y-61806881D01*
X133178984Y-61783882D01*
X133184168Y-61761566D01*
X133190295Y-61739934D01*
X133197365Y-61718984D01*
X133205377Y-61698718D01*
X133214332Y-61679134D01*
X133224230Y-61660234D01*
X133235070Y-61642017D01*
X133246853Y-61624483D01*
X133259578Y-61607632D01*
X133273246Y-61591465D01*
X133287857Y-61575980D01*
X133294834Y-61569218D01*
X133317052Y-61550220D01*
X133332937Y-61538628D01*
X133349681Y-61527895D01*
X133367284Y-61518020D01*
X133385745Y-61509004D01*
X133405065Y-61500847D01*
X133425244Y-61493548D01*
X133446281Y-61487108D01*
X133468177Y-61481527D01*
X133490932Y-61476804D01*
X133514545Y-61472940D01*
X133539017Y-61469935D01*
X133564348Y-61467788D01*
X133590537Y-61466500D01*
X133617585Y-61466071D01*
X133631216Y-61466178D01*
G37*
G36*
X131614305Y-62217850D02*
G01*
X132823307Y-62217850D01*
X132823307Y-61905708D01*
X131614305Y-61905708D01*
X131614305Y-62217850D01*
G37*
G36*
X130973412Y-61927690D02*
G01*
X130632937Y-61477306D01*
X130281228Y-61477306D01*
X130687648Y-62037599D01*
X130237264Y-63103963D01*
X130566992Y-63103963D01*
X130896720Y-62312616D01*
X130973412Y-62400544D01*
X130973412Y-63103963D01*
X131281158Y-63103963D01*
X131281158Y-60861814D01*
X130973412Y-60861814D01*
X130973412Y-61927690D01*
G37*
G36*
X129444946Y-61466544D02*
G01*
X129468777Y-61467964D01*
X129492008Y-61470330D01*
X129514641Y-61473642D01*
X129536674Y-61477901D01*
X129558108Y-61483107D01*
X129578944Y-61489258D01*
X129599179Y-61496357D01*
X129618816Y-61504402D01*
X129637854Y-61513393D01*
X129656292Y-61523330D01*
X129674131Y-61534214D01*
X129691372Y-61546045D01*
X129708013Y-61558822D01*
X129724054Y-61572545D01*
X129739497Y-61587215D01*
X129755468Y-61603959D01*
X129770409Y-61621218D01*
X129784319Y-61638993D01*
X129797199Y-61657282D01*
X129809049Y-61676087D01*
X129819868Y-61695407D01*
X129829657Y-61715242D01*
X129838415Y-61735593D01*
X129846143Y-61756458D01*
X129852841Y-61777839D01*
X129858508Y-61799735D01*
X129863145Y-61822146D01*
X129866751Y-61845073D01*
X129869327Y-61868514D01*
X129870873Y-61892471D01*
X129871388Y-61916943D01*
X129871388Y-62686308D01*
X129870915Y-62712039D01*
X129869495Y-62737088D01*
X129867129Y-62761453D01*
X129863817Y-62785135D01*
X129859558Y-62808134D01*
X129854352Y-62830449D01*
X129848200Y-62852082D01*
X129841102Y-62873032D01*
X129833057Y-62893298D01*
X129824066Y-62912881D01*
X129814128Y-62931782D01*
X129803244Y-62949999D01*
X129791414Y-62967533D01*
X129778637Y-62984383D01*
X129764913Y-63000551D01*
X129750244Y-63016036D01*
X129743267Y-63022798D01*
X129721049Y-63041796D01*
X129705164Y-63053388D01*
X129688420Y-63064121D01*
X129670817Y-63073996D01*
X129652356Y-63083012D01*
X129633036Y-63091169D01*
X129612857Y-63098468D01*
X129591820Y-63104908D01*
X129569924Y-63110489D01*
X129547169Y-63115212D01*
X129523556Y-63119076D01*
X129499084Y-63122081D01*
X129473753Y-63124228D01*
X129447564Y-63125516D01*
X129420516Y-63125945D01*
X129406234Y-63125838D01*
X129378440Y-63124979D01*
X129351672Y-63123262D01*
X129325931Y-63120686D01*
X129301217Y-63117251D01*
X129277529Y-63112958D01*
X129254868Y-63107806D01*
X129233234Y-63101795D01*
X129212626Y-63094926D01*
X129193044Y-63087198D01*
X129174489Y-63078611D01*
X129156961Y-63069166D01*
X129132594Y-63053388D01*
X129110536Y-63035678D01*
X129090788Y-63016036D01*
X129076177Y-63000551D01*
X129062509Y-62984383D01*
X129049784Y-62967533D01*
X129038001Y-62949999D01*
X129027161Y-62931782D01*
X129017263Y-62912881D01*
X129008308Y-62893298D01*
X129000296Y-62873032D01*
X128993226Y-62852082D01*
X128987099Y-62830449D01*
X128981915Y-62808134D01*
X128977673Y-62785135D01*
X128974374Y-62761453D01*
X128972017Y-62737088D01*
X128970603Y-62712039D01*
X128970132Y-62686308D01*
X128970132Y-62532435D01*
X129277878Y-62532435D01*
X129277878Y-62708290D01*
X129278264Y-62720461D01*
X129280626Y-62739889D01*
X129286293Y-62761785D01*
X129295051Y-62782135D01*
X129306901Y-62800940D01*
X129321842Y-62818199D01*
X129323920Y-62820213D01*
X129340282Y-62832518D01*
X129359823Y-62841691D01*
X129379103Y-62847060D01*
X129400719Y-62850129D01*
X129420516Y-62850928D01*
X129444095Y-62849777D01*
X129465373Y-62846325D01*
X129484349Y-62840572D01*
X129503580Y-62830952D01*
X129519678Y-62818199D01*
X129527535Y-62809763D01*
X129540930Y-62791731D01*
X129551234Y-62772153D01*
X129558447Y-62751030D01*
X129562569Y-62728361D01*
X129563642Y-62708290D01*
X129563642Y-62345345D01*
X128970132Y-62345345D01*
X128970132Y-62081563D01*
X129277878Y-62081563D01*
X129563642Y-62081563D01*
X129563642Y-61872979D01*
X129563470Y-61866123D01*
X129560894Y-61846082D01*
X129555227Y-61826831D01*
X129546469Y-61808369D01*
X129534619Y-61790698D01*
X129519678Y-61773817D01*
X129517570Y-61771803D01*
X129501024Y-61759498D01*
X129481346Y-61750325D01*
X129461986Y-61744955D01*
X129440325Y-61741887D01*
X129420516Y-61741088D01*
X129396954Y-61742239D01*
X129375728Y-61745691D01*
X129356837Y-61751444D01*
X129337750Y-61761064D01*
X129321842Y-61773817D01*
X129313985Y-61782253D01*
X129300590Y-61800285D01*
X129290286Y-61819863D01*
X129283073Y-61840986D01*
X129278951Y-61863655D01*
X129277878Y-61883726D01*
X129277878Y-62081563D01*
X128970132Y-62081563D01*
X128970132Y-61916943D01*
X128970647Y-61892471D01*
X128972193Y-61868514D01*
X128974769Y-61845073D01*
X128978375Y-61822146D01*
X128983012Y-61799735D01*
X128988679Y-61777839D01*
X128995377Y-61756458D01*
X129003105Y-61735593D01*
X129011863Y-61715242D01*
X129021652Y-61695407D01*
X129032471Y-61676087D01*
X129044321Y-61657282D01*
X129057201Y-61638993D01*
X129071111Y-61621218D01*
X129086052Y-61603959D01*
X129102023Y-61587215D01*
X129117407Y-61572545D01*
X129133393Y-61558822D01*
X129149983Y-61546045D01*
X129167175Y-61534214D01*
X129184970Y-61523330D01*
X129203369Y-61513393D01*
X129222370Y-61504402D01*
X129241974Y-61496357D01*
X129262182Y-61489258D01*
X129282992Y-61483107D01*
X129304405Y-61477901D01*
X129326421Y-61473642D01*
X129349040Y-61470330D01*
X129372263Y-61467964D01*
X129396088Y-61466544D01*
X129420516Y-61466071D01*
X129444946Y-61466544D01*
G37*
G36*
X128021493Y-62367327D02*
G01*
X127779692Y-61477306D01*
X127449965Y-61477306D01*
X127977529Y-63225108D01*
X127986245Y-63251726D01*
X127995908Y-63276628D01*
X128006518Y-63299812D01*
X128018073Y-63321278D01*
X128030576Y-63341028D01*
X128044024Y-63359060D01*
X128058419Y-63375374D01*
X128073761Y-63389972D01*
X128090049Y-63402852D01*
X128107283Y-63414014D01*
X128125464Y-63423460D01*
X128144591Y-63431188D01*
X128164665Y-63437198D01*
X128185685Y-63441492D01*
X128207652Y-63444068D01*
X128230565Y-63444926D01*
X128516329Y-63444926D01*
X128516329Y-63191891D01*
X128395184Y-63191891D01*
X128375387Y-63191354D01*
X128353772Y-63189293D01*
X128334492Y-63185687D01*
X128314951Y-63179526D01*
X128296510Y-63169909D01*
X128282001Y-63156084D01*
X128269602Y-63137537D01*
X128259296Y-63117358D01*
X128251068Y-63098124D01*
X128242855Y-63076142D01*
X128234658Y-63051413D01*
X128230565Y-63038018D01*
X128175366Y-62850928D01*
X128582274Y-61477306D01*
X128252547Y-61477306D01*
X128021493Y-62367327D01*
G37*
G36*
X127084089Y-63103963D02*
G01*
X126776343Y-63103963D01*
X126776343Y-63016036D01*
X126761345Y-63030706D01*
X126746515Y-63044429D01*
X126724584Y-63063240D01*
X126703032Y-63079921D01*
X126681857Y-63094472D01*
X126661060Y-63106894D01*
X126640641Y-63117187D01*
X126620600Y-63125350D01*
X126600936Y-63131383D01*
X126581651Y-63135287D01*
X126556524Y-63137180D01*
X126534844Y-63136793D01*
X126513766Y-63135631D01*
X126493292Y-63133694D01*
X126473421Y-63130983D01*
X126444744Y-63125463D01*
X126417424Y-63118200D01*
X126391461Y-63109194D01*
X126366854Y-63098445D01*
X126343605Y-63085953D01*
X126321711Y-63071717D01*
X126301175Y-63055739D01*
X126281995Y-63038018D01*
X126267325Y-63022661D01*
X126253602Y-63006877D01*
X126240825Y-62990665D01*
X126228995Y-62974026D01*
X126218110Y-62956960D01*
X126208173Y-62939466D01*
X126199182Y-62921544D01*
X126191137Y-62903196D01*
X126184039Y-62884419D01*
X126177887Y-62865216D01*
X126172681Y-62845585D01*
X126168422Y-62825526D01*
X126165110Y-62805040D01*
X126162744Y-62784127D01*
X126161324Y-62762786D01*
X126160851Y-62741018D01*
X126468597Y-62741018D01*
X126469116Y-62754467D01*
X126472522Y-62776312D01*
X126479107Y-62796007D01*
X126488871Y-62813552D01*
X126501814Y-62828946D01*
X126512590Y-62838515D01*
X126529520Y-62849187D01*
X126548601Y-62856681D01*
X126569832Y-62860995D01*
X126589741Y-62862163D01*
X126614242Y-62861300D01*
X126638407Y-62858713D01*
X126662236Y-62854400D01*
X126685729Y-62848363D01*
X126708886Y-62840601D01*
X126731707Y-62831113D01*
X126754193Y-62819901D01*
X126776343Y-62806964D01*
X126776343Y-61785052D01*
X126772178Y-61781656D01*
X126754661Y-61769150D01*
X126735771Y-61758369D01*
X126715506Y-61749313D01*
X126693868Y-61741982D01*
X126670856Y-61736375D01*
X126646469Y-61732494D01*
X126620709Y-61730338D01*
X126600488Y-61729853D01*
X126576926Y-61731021D01*
X126555700Y-61734524D01*
X126536809Y-61740363D01*
X126517722Y-61750127D01*
X126501814Y-61763070D01*
X126499770Y-61765148D01*
X126487281Y-61781510D01*
X126477971Y-61801052D01*
X126472522Y-61820332D01*
X126469408Y-61841947D01*
X126468597Y-61861744D01*
X126468597Y-62741018D01*
X126160851Y-62741018D01*
X126160851Y-61861744D01*
X126161324Y-61839978D01*
X126162744Y-61818643D01*
X126165110Y-61797739D01*
X126168422Y-61777267D01*
X126172681Y-61757225D01*
X126177887Y-61737615D01*
X126184039Y-61718437D01*
X126191137Y-61699689D01*
X126199182Y-61681373D01*
X126208173Y-61663488D01*
X126218110Y-61646034D01*
X126228995Y-61629011D01*
X126240825Y-61612420D01*
X126253602Y-61596260D01*
X126267325Y-61580531D01*
X126281995Y-61565233D01*
X126288238Y-61559132D01*
X126307870Y-61541992D01*
X126328858Y-61526595D01*
X126351204Y-61512941D01*
X126374906Y-61501029D01*
X126399965Y-61490861D01*
X126426380Y-61482436D01*
X126454152Y-61475755D01*
X126473421Y-61472268D01*
X126493292Y-61469557D01*
X126513766Y-61467620D01*
X126534844Y-61466458D01*
X126556524Y-61466071D01*
X126572839Y-61466286D01*
X126596667Y-61467418D01*
X126619722Y-61469521D01*
X126642004Y-61472593D01*
X126663514Y-61476636D01*
X126684251Y-61481649D01*
X126704215Y-61487633D01*
X126723406Y-61494587D01*
X126741824Y-61502511D01*
X126759470Y-61511405D01*
X126776343Y-61521270D01*
X126776343Y-60861814D01*
X127084089Y-60861814D01*
X127084089Y-63103963D01*
G37*
G36*
X125237078Y-61466178D02*
G01*
X125263697Y-61467037D01*
X125289457Y-61468754D01*
X125314358Y-61471330D01*
X125338401Y-61474765D01*
X125361585Y-61479058D01*
X125383910Y-61484210D01*
X125405377Y-61490221D01*
X125425985Y-61497090D01*
X125445734Y-61504818D01*
X125464625Y-61513405D01*
X125482657Y-61522850D01*
X125499830Y-61533154D01*
X125516145Y-61544317D01*
X125531601Y-61556338D01*
X125553175Y-61575980D01*
X125567844Y-61591465D01*
X125581568Y-61607632D01*
X125594345Y-61624483D01*
X125606175Y-61642017D01*
X125617059Y-61660234D01*
X125626997Y-61679134D01*
X125635988Y-61698718D01*
X125644033Y-61718984D01*
X125651131Y-61739934D01*
X125657283Y-61761566D01*
X125662489Y-61783882D01*
X125666747Y-61806881D01*
X125670060Y-61830563D01*
X125672426Y-61854928D01*
X125673846Y-61879976D01*
X125674319Y-61905708D01*
X125674319Y-62686308D01*
X125673846Y-62712039D01*
X125672426Y-62737088D01*
X125670060Y-62761453D01*
X125666747Y-62785135D01*
X125662489Y-62808134D01*
X125657283Y-62830449D01*
X125651131Y-62852082D01*
X125644033Y-62873032D01*
X125635988Y-62893298D01*
X125626997Y-62912881D01*
X125617059Y-62931782D01*
X125606175Y-62949999D01*
X125594345Y-62967533D01*
X125581568Y-62984383D01*
X125567844Y-63000551D01*
X125553175Y-63016036D01*
X125546198Y-63022798D01*
X125523980Y-63041796D01*
X125508095Y-63053388D01*
X125491351Y-63064121D01*
X125473748Y-63073996D01*
X125455287Y-63083012D01*
X125435967Y-63091169D01*
X125415788Y-63098468D01*
X125394751Y-63104908D01*
X125372855Y-63110489D01*
X125350100Y-63115212D01*
X125326487Y-63119076D01*
X125302015Y-63122081D01*
X125276684Y-63124228D01*
X125250495Y-63125516D01*
X125223447Y-63125945D01*
X125209815Y-63125838D01*
X125183197Y-63124979D01*
X125157437Y-63123262D01*
X125132535Y-63120686D01*
X125108493Y-63117251D01*
X125085309Y-63112958D01*
X125062983Y-63107806D01*
X125041517Y-63101795D01*
X125020909Y-63094926D01*
X125001159Y-63087198D01*
X124982269Y-63078611D01*
X124964237Y-63069166D01*
X124947064Y-63058862D01*
X124930749Y-63047699D01*
X124915293Y-63035678D01*
X124893719Y-63016036D01*
X124879108Y-63000551D01*
X124865440Y-62984383D01*
X124852715Y-62967533D01*
X124840932Y-62949999D01*
X124830092Y-62931782D01*
X124820194Y-62912881D01*
X124811239Y-62893298D01*
X124803227Y-62873032D01*
X124796157Y-62852082D01*
X124790030Y-62830449D01*
X124784846Y-62808134D01*
X124780604Y-62785135D01*
X124777305Y-62761453D01*
X124774948Y-62737088D01*
X124773929Y-62719036D01*
X125080809Y-62719036D01*
X125081195Y-62731208D01*
X125083557Y-62750635D01*
X125089224Y-62772531D01*
X125097982Y-62792882D01*
X125109832Y-62811687D01*
X125124773Y-62828946D01*
X125126851Y-62830989D01*
X125143213Y-62843478D01*
X125162754Y-62852788D01*
X125182034Y-62858238D01*
X125203650Y-62861352D01*
X125223447Y-62862163D01*
X125247026Y-62860995D01*
X125268303Y-62857492D01*
X125287280Y-62851653D01*
X125306511Y-62841889D01*
X125322609Y-62828946D01*
X125330466Y-62820509D01*
X125343861Y-62802477D01*
X125354165Y-62782900D01*
X125361378Y-62761777D01*
X125365500Y-62739108D01*
X125366573Y-62719036D01*
X125366573Y-61872979D01*
X125366187Y-61860808D01*
X125363825Y-61841380D01*
X125358158Y-61819484D01*
X125349400Y-61799134D01*
X125337550Y-61780329D01*
X125322609Y-61763070D01*
X125320501Y-61761026D01*
X125303955Y-61748538D01*
X125284277Y-61739228D01*
X125264917Y-61733778D01*
X125243256Y-61730664D01*
X125223447Y-61729853D01*
X125199885Y-61731021D01*
X125178659Y-61734524D01*
X125159768Y-61740363D01*
X125140681Y-61750127D01*
X125124773Y-61763070D01*
X125116916Y-61771506D01*
X125103521Y-61789538D01*
X125093217Y-61809116D01*
X125086004Y-61830239D01*
X125081882Y-61852908D01*
X125080809Y-61872979D01*
X125080809Y-62719036D01*
X124773929Y-62719036D01*
X124773534Y-62712039D01*
X124773063Y-62686308D01*
X124773063Y-61905708D01*
X124773534Y-61879976D01*
X124774948Y-61854928D01*
X124777305Y-61830563D01*
X124780604Y-61806881D01*
X124784846Y-61783882D01*
X124790030Y-61761566D01*
X124796157Y-61739934D01*
X124803227Y-61718984D01*
X124811239Y-61698718D01*
X124820194Y-61679134D01*
X124830092Y-61660234D01*
X124840932Y-61642017D01*
X124852715Y-61624483D01*
X124865440Y-61607632D01*
X124879108Y-61591465D01*
X124893719Y-61575980D01*
X124900696Y-61569218D01*
X124922914Y-61550220D01*
X124938799Y-61538628D01*
X124955543Y-61527895D01*
X124973146Y-61518020D01*
X124991607Y-61509004D01*
X125010927Y-61500847D01*
X125031105Y-61493548D01*
X125052143Y-61487108D01*
X125074039Y-61481527D01*
X125096793Y-61476804D01*
X125120407Y-61472940D01*
X125144879Y-61469935D01*
X125170209Y-61467788D01*
X125196399Y-61466500D01*
X125223447Y-61466071D01*
X125237078Y-61466178D01*
G37*
G36*
X123858023Y-61455431D02*
G01*
X123880807Y-61456290D01*
X123902987Y-61458007D01*
X123924564Y-61460583D01*
X123945539Y-61464018D01*
X123965910Y-61468311D01*
X123985678Y-61473463D01*
X124004844Y-61479474D01*
X124023406Y-61486343D01*
X124050119Y-61498257D01*
X124075476Y-61512103D01*
X124099475Y-61527881D01*
X124122119Y-61545591D01*
X124143405Y-61565233D01*
X124151519Y-61573465D01*
X124166975Y-61589864D01*
X124181401Y-61606175D01*
X124194796Y-61622398D01*
X124207161Y-61638533D01*
X124218495Y-61654581D01*
X124233565Y-61678488D01*
X124246316Y-61702197D01*
X124256749Y-61725708D01*
X124264863Y-61749023D01*
X124270659Y-61772139D01*
X124274137Y-61795059D01*
X124275296Y-61817780D01*
X124275296Y-61938925D01*
X123967550Y-61938925D01*
X123967550Y-61861744D01*
X123966382Y-61838182D01*
X123962879Y-61816956D01*
X123957040Y-61798065D01*
X123947276Y-61778978D01*
X123934333Y-61763070D01*
X123932255Y-61761026D01*
X123915893Y-61748538D01*
X123896351Y-61739228D01*
X123877071Y-61733778D01*
X123855456Y-61730664D01*
X123835659Y-61729853D01*
X123823487Y-61730239D01*
X123804060Y-61732601D01*
X123782164Y-61738268D01*
X123761814Y-61747026D01*
X123743009Y-61758876D01*
X123725750Y-61773817D01*
X123717893Y-61782253D01*
X123704498Y-61800285D01*
X123694194Y-61819863D01*
X123686981Y-61840986D01*
X123682859Y-61863655D01*
X123681786Y-61883726D01*
X123681786Y-61971653D01*
X123714501Y-61981772D01*
X123746701Y-61992834D01*
X123778386Y-62004838D01*
X123809555Y-62017785D01*
X123840210Y-62031674D01*
X123870349Y-62046506D01*
X123899973Y-62062281D01*
X123929082Y-62078998D01*
X123957675Y-62096658D01*
X123985754Y-62115261D01*
X124013317Y-62134806D01*
X124040365Y-62155293D01*
X124066898Y-62176724D01*
X124092915Y-62199097D01*
X124118418Y-62222413D01*
X124143405Y-62246671D01*
X124164700Y-62268952D01*
X124184621Y-62291833D01*
X124203168Y-62315313D01*
X124220341Y-62339392D01*
X124236141Y-62364070D01*
X124250566Y-62389347D01*
X124263618Y-62415223D01*
X124275296Y-62441699D01*
X124285600Y-62468773D01*
X124294530Y-62496447D01*
X124302086Y-62524720D01*
X124308269Y-62553592D01*
X124313077Y-62583064D01*
X124316512Y-62613134D01*
X124318573Y-62643804D01*
X124319260Y-62675073D01*
X124319152Y-62690056D01*
X124318294Y-62719251D01*
X124316576Y-62747415D01*
X124314000Y-62774549D01*
X124310566Y-62800653D01*
X124306272Y-62825726D01*
X124301120Y-62849768D01*
X124295110Y-62872781D01*
X124288240Y-62894763D01*
X124280512Y-62915714D01*
X124271926Y-62935635D01*
X124262480Y-62954526D01*
X124252176Y-62972386D01*
X124241014Y-62989216D01*
X124228992Y-63005015D01*
X124209350Y-63026782D01*
X124203089Y-63032883D01*
X124183537Y-63050024D01*
X124162835Y-63065421D01*
X124140982Y-63079075D01*
X124117978Y-63090986D01*
X124093824Y-63101154D01*
X124068519Y-63109579D01*
X124042063Y-63116261D01*
X124014457Y-63121200D01*
X123985700Y-63124396D01*
X123965890Y-63125558D01*
X123945568Y-63125945D01*
X123916811Y-63124880D01*
X123888244Y-63121686D01*
X123859865Y-63116362D01*
X123831675Y-63108909D01*
X123812986Y-63102757D01*
X123794382Y-63095659D01*
X123775861Y-63087614D01*
X123757425Y-63078623D01*
X123739072Y-63068685D01*
X123720804Y-63057801D01*
X123702619Y-63045971D01*
X123684518Y-63033194D01*
X123666502Y-63019470D01*
X123648569Y-63004801D01*
X123645473Y-63021776D01*
X123642450Y-63041422D01*
X123639879Y-63063344D01*
X123638336Y-63084191D01*
X123637822Y-63103963D01*
X123330076Y-63103963D01*
X123332824Y-63084557D01*
X123335572Y-63064808D01*
X123338319Y-63044715D01*
X123341067Y-63024279D01*
X123343815Y-63003499D01*
X123346563Y-62982376D01*
X123349310Y-62960909D01*
X123352058Y-62939099D01*
X123354806Y-62916946D01*
X123357553Y-62894449D01*
X123360301Y-62871608D01*
X123363049Y-62848424D01*
X123365797Y-62824897D01*
X123368544Y-62801026D01*
X123371292Y-62776811D01*
X123374040Y-62752254D01*
X123374040Y-62213454D01*
X123681786Y-62213454D01*
X123681786Y-62719036D01*
X123687964Y-62727842D01*
X123700386Y-62744615D01*
X123712896Y-62760269D01*
X123731825Y-62781654D01*
X123750952Y-62800523D01*
X123770276Y-62816877D01*
X123789798Y-62830714D01*
X123809517Y-62842036D01*
X123829434Y-62850841D01*
X123849548Y-62857131D01*
X123869860Y-62860905D01*
X123890369Y-62862163D01*
X123899836Y-62861959D01*
X123926433Y-62858896D01*
X123950326Y-62852158D01*
X123971513Y-62841746D01*
X123989996Y-62827658D01*
X124005774Y-62809895D01*
X124018847Y-62788457D01*
X124029216Y-62763344D01*
X124034625Y-62744560D01*
X124038833Y-62724143D01*
X124041838Y-62702092D01*
X124043641Y-62678408D01*
X124044242Y-62653091D01*
X124044146Y-62642866D01*
X124043375Y-62622800D01*
X124041833Y-62603245D01*
X124038075Y-62574872D01*
X124032583Y-62547650D01*
X124025355Y-62521578D01*
X124016394Y-62496656D01*
X124005698Y-62472885D01*
X123993267Y-62450265D01*
X123979102Y-62428796D01*
X123963202Y-62408477D01*
X123945568Y-62389309D01*
X123930341Y-62374482D01*
X123914946Y-62360167D01*
X123899383Y-62346364D01*
X123883653Y-62333072D01*
X123867754Y-62320291D01*
X123851687Y-62308022D01*
X123835453Y-62296264D01*
X123819050Y-62285017D01*
X123802480Y-62274282D01*
X123785742Y-62264058D01*
X123760319Y-62249681D01*
X123734519Y-62236455D01*
X123708342Y-62224379D01*
X123681786Y-62213454D01*
X123374040Y-62213454D01*
X123374040Y-61817780D01*
X123374469Y-61802740D01*
X123376723Y-61780338D01*
X123380909Y-61758124D01*
X123387027Y-61736099D01*
X123395077Y-61714263D01*
X123405059Y-61692616D01*
X123416973Y-61671158D01*
X123430819Y-61649889D01*
X123446597Y-61628809D01*
X123464307Y-61607918D01*
X123483949Y-61587215D01*
X123500821Y-61571244D01*
X123518464Y-61556303D01*
X123536877Y-61542393D01*
X123556062Y-61529513D01*
X123576017Y-61517663D01*
X123596744Y-61506844D01*
X123618241Y-61497055D01*
X123640509Y-61488297D01*
X123663548Y-61480569D01*
X123687358Y-61473871D01*
X123711938Y-61468204D01*
X123737290Y-61463567D01*
X123763413Y-61459961D01*
X123790306Y-61457385D01*
X123817970Y-61455839D01*
X123846406Y-61455324D01*
X123858023Y-61455431D01*
G37*
G36*
X122018981Y-61751835D02*
G01*
X122053041Y-61752737D01*
X122086590Y-61755445D01*
X122119628Y-61759958D01*
X122152154Y-61766276D01*
X122184169Y-61774399D01*
X122215672Y-61784327D01*
X122246665Y-61796060D01*
X122277145Y-61809598D01*
X122307115Y-61824942D01*
X122336573Y-61842090D01*
X122365519Y-61861044D01*
X122393954Y-61881803D01*
X122421878Y-61904366D01*
X122449291Y-61928735D01*
X122476192Y-61954909D01*
X122502581Y-61982889D01*
X122502581Y-63103963D01*
X122810327Y-63103963D01*
X122810327Y-61477306D01*
X122502581Y-61477306D01*
X122502581Y-61675143D01*
X122477508Y-61648524D01*
X122451748Y-61623623D01*
X122425301Y-61600439D01*
X122398168Y-61578972D01*
X122370347Y-61559223D01*
X122341839Y-61541191D01*
X122312644Y-61524876D01*
X122282763Y-61510279D01*
X122252194Y-61497399D01*
X122220939Y-61486236D01*
X122188996Y-61476791D01*
X122156367Y-61469063D01*
X122123051Y-61463052D01*
X122089048Y-61458759D01*
X122054358Y-61456183D01*
X122018981Y-61455324D01*
X122018981Y-61751835D01*
G37*
G36*
X120872505Y-61521270D02*
G01*
X120894662Y-61508332D01*
X120917171Y-61497120D01*
X120940030Y-61487633D01*
X120963241Y-61479870D01*
X120986803Y-61473833D01*
X121010716Y-61469521D01*
X121034980Y-61466933D01*
X121059595Y-61466071D01*
X121081361Y-61466544D01*
X121102696Y-61467964D01*
X121123600Y-61470330D01*
X121144072Y-61473642D01*
X121164113Y-61477901D01*
X121183723Y-61483107D01*
X121202902Y-61489258D01*
X121221650Y-61496357D01*
X121239966Y-61504402D01*
X121257851Y-61513393D01*
X121275305Y-61523330D01*
X121292328Y-61534214D01*
X121308919Y-61546045D01*
X121325079Y-61558822D01*
X121340808Y-61572545D01*
X121356105Y-61587215D01*
X121372077Y-61603873D01*
X121387017Y-61620875D01*
X121400928Y-61638220D01*
X121413808Y-61655908D01*
X121425657Y-61673940D01*
X121436477Y-61692316D01*
X121446265Y-61711035D01*
X121455024Y-61730097D01*
X121462752Y-61749503D01*
X121469449Y-61769252D01*
X121475117Y-61789345D01*
X121479753Y-61809781D01*
X121483360Y-61830561D01*
X121485936Y-61851684D01*
X121487481Y-61873151D01*
X121487997Y-61894961D01*
X121487997Y-62708290D01*
X121487481Y-62731401D01*
X121485936Y-62754085D01*
X121483360Y-62776342D01*
X121479753Y-62798171D01*
X121475117Y-62819573D01*
X121469449Y-62840547D01*
X121462752Y-62861094D01*
X121455024Y-62881214D01*
X121446265Y-62900906D01*
X121436477Y-62920170D01*
X121425657Y-62939008D01*
X121413808Y-62957418D01*
X121400928Y-62975400D01*
X121387017Y-62992955D01*
X121372077Y-63010082D01*
X121356105Y-63026782D01*
X121342109Y-63040151D01*
X121320149Y-63058587D01*
X121297029Y-63075081D01*
X121272750Y-63089636D01*
X121247312Y-63102250D01*
X121220715Y-63112923D01*
X121192959Y-63121656D01*
X121173811Y-63126399D01*
X121154147Y-63130280D01*
X121133969Y-63133299D01*
X121113275Y-63135455D01*
X121092066Y-63136749D01*
X121070341Y-63137180D01*
X121055429Y-63136707D01*
X121033698Y-63134223D01*
X121012731Y-63129609D01*
X120992528Y-63122865D01*
X120973089Y-63113992D01*
X120954414Y-63102990D01*
X120936504Y-63089858D01*
X120919358Y-63074597D01*
X120902976Y-63057206D01*
X120887358Y-63037686D01*
X120872505Y-63016036D01*
X120872505Y-63103963D01*
X120564759Y-63103963D01*
X120564759Y-62796217D01*
X120872505Y-62796217D01*
X120876669Y-62799583D01*
X120894186Y-62811979D01*
X120913077Y-62822664D01*
X120933341Y-62831640D01*
X120954980Y-62838906D01*
X120977992Y-62844463D01*
X121002378Y-62848310D01*
X121028138Y-62850447D01*
X121048359Y-62850928D01*
X121071938Y-62849777D01*
X121093216Y-62846325D01*
X121112193Y-62840572D01*
X121131424Y-62830952D01*
X121147522Y-62818199D01*
X121149536Y-62816113D01*
X121161841Y-62800919D01*
X121172068Y-62782295D01*
X121178205Y-62762329D01*
X121180251Y-62741018D01*
X121180251Y-61861744D01*
X121179100Y-61838182D01*
X121175648Y-61816956D01*
X121169895Y-61798065D01*
X121160275Y-61778978D01*
X121147522Y-61763070D01*
X121145414Y-61761026D01*
X121128868Y-61748538D01*
X121109190Y-61739228D01*
X121089830Y-61733778D01*
X121068168Y-61730664D01*
X121048359Y-61729853D01*
X121026378Y-61730715D01*
X121004396Y-61733303D01*
X120982414Y-61737615D01*
X120960432Y-61743653D01*
X120938450Y-61751415D01*
X120916468Y-61760902D01*
X120894487Y-61772115D01*
X120872505Y-61785052D01*
X120872505Y-62796217D01*
X120564759Y-62796217D01*
X120564759Y-60861814D01*
X120872505Y-60861814D01*
X120872505Y-61521270D01*
G37*
%TO.C,G\u002A\u002A\u002A*%
G36*
X157960540Y-112995676D02*
G01*
X157960540Y-113510541D01*
X157445675Y-113510541D01*
X156930811Y-113510541D01*
X156930811Y-112995676D01*
X156930811Y-112480811D01*
X157445675Y-112480811D01*
X157960540Y-112480811D01*
X157960540Y-112995676D01*
G37*
G36*
X157960540Y-105444325D02*
G01*
X157960540Y-105959189D01*
X157445675Y-105959189D01*
X156930811Y-105959189D01*
X156930811Y-105444325D01*
X156930811Y-104929460D01*
X157445675Y-104929460D01*
X157960540Y-104929460D01*
X157960540Y-105444325D01*
G37*
G36*
X156587567Y-111279460D02*
G01*
X156587567Y-111451081D01*
X156415946Y-111451081D01*
X156244324Y-111451081D01*
X156244324Y-111279460D01*
X156244324Y-111107838D01*
X156415946Y-111107838D01*
X156587567Y-111107838D01*
X156587567Y-111279460D01*
G37*
G36*
X156587567Y-109220000D02*
G01*
X156587567Y-109391622D01*
X156415946Y-109391622D01*
X156244324Y-109391622D01*
X156244324Y-109220000D01*
X156244324Y-109048379D01*
X156415946Y-109048379D01*
X156587567Y-109048379D01*
X156587567Y-109220000D01*
G37*
G36*
X156587567Y-108533514D02*
G01*
X156587567Y-108705135D01*
X156415946Y-108705135D01*
X156244324Y-108705135D01*
X156244324Y-108533514D01*
X156244324Y-108361892D01*
X156415946Y-108361892D01*
X156587567Y-108361892D01*
X156587567Y-108533514D01*
G37*
G36*
X156244324Y-109563244D02*
G01*
X156244324Y-109734865D01*
X155901081Y-109734865D01*
X155557838Y-109734865D01*
X155557838Y-109563244D01*
X155557838Y-109391622D01*
X155901081Y-109391622D01*
X156244324Y-109391622D01*
X156244324Y-109563244D01*
G37*
G36*
X155901081Y-108876757D02*
G01*
X155901081Y-109048379D01*
X155729459Y-109048379D01*
X155557838Y-109048379D01*
X155557838Y-108876757D01*
X155557838Y-108705135D01*
X155729459Y-108705135D01*
X155901081Y-108705135D01*
X155901081Y-108876757D01*
G37*
G36*
X155901081Y-111451081D02*
G01*
X155901081Y-111794325D01*
X155557838Y-111794325D01*
X155214594Y-111794325D01*
X155214594Y-111451081D01*
X155214594Y-111107838D01*
X155557838Y-111107838D01*
X155901081Y-111107838D01*
X155901081Y-111451081D01*
G37*
G36*
X155214594Y-106474054D02*
G01*
X155214594Y-106645676D01*
X155042973Y-106645676D01*
X154871351Y-106645676D01*
X154871351Y-106474054D01*
X154871351Y-106302433D01*
X155042973Y-106302433D01*
X155214594Y-106302433D01*
X155214594Y-106474054D01*
G37*
G36*
X154528108Y-107847027D02*
G01*
X154528108Y-108018649D01*
X154356486Y-108018649D01*
X154184865Y-108018649D01*
X154184865Y-107847027D01*
X154184865Y-107675406D01*
X154356486Y-107675406D01*
X154528108Y-107675406D01*
X154528108Y-107847027D01*
G37*
G36*
X154528108Y-108876757D02*
G01*
X154528108Y-109048379D01*
X154184865Y-109048379D01*
X153841621Y-109048379D01*
X153841621Y-108876757D01*
X153841621Y-108705135D01*
X154184865Y-108705135D01*
X154528108Y-108705135D01*
X154528108Y-108876757D01*
G37*
G36*
X153841621Y-114025406D02*
G01*
X153841621Y-114197027D01*
X153670000Y-114197027D01*
X153498378Y-114197027D01*
X153498378Y-114025406D01*
X153498378Y-113853784D01*
X153670000Y-113853784D01*
X153841621Y-113853784D01*
X153841621Y-114025406D01*
G37*
G36*
X153841621Y-109563244D02*
G01*
X153841621Y-109734865D01*
X153670000Y-109734865D01*
X153498378Y-109734865D01*
X153498378Y-109563244D01*
X153498378Y-109391622D01*
X153670000Y-109391622D01*
X153841621Y-109391622D01*
X153841621Y-109563244D01*
G37*
G36*
X152468648Y-113682162D02*
G01*
X152468648Y-113853784D01*
X152297027Y-113853784D01*
X152125405Y-113853784D01*
X152125405Y-113682162D01*
X152125405Y-113510541D01*
X152297027Y-113510541D01*
X152468648Y-113510541D01*
X152468648Y-113682162D01*
G37*
G36*
X152468648Y-106302433D02*
G01*
X152468648Y-106645676D01*
X152297027Y-106645676D01*
X152125405Y-106645676D01*
X152125405Y-106302433D01*
X152125405Y-105959189D01*
X152297027Y-105959189D01*
X152468648Y-105959189D01*
X152468648Y-106302433D01*
G37*
G36*
X152125405Y-104757838D02*
G01*
X152125405Y-104929460D01*
X151953784Y-104929460D01*
X151782162Y-104929460D01*
X151782162Y-104757838D01*
X151782162Y-104586216D01*
X151953784Y-104586216D01*
X152125405Y-104586216D01*
X152125405Y-104757838D01*
G37*
G36*
X152125405Y-114025406D02*
G01*
X152125405Y-114197027D01*
X151782162Y-114197027D01*
X151438919Y-114197027D01*
X151438919Y-114025406D01*
X151438919Y-113853784D01*
X151782162Y-113853784D01*
X152125405Y-113853784D01*
X152125405Y-114025406D01*
G37*
G36*
X151095675Y-111965946D02*
G01*
X151095675Y-112137568D01*
X150924054Y-112137568D01*
X150752432Y-112137568D01*
X150752432Y-111965946D01*
X150752432Y-111794325D01*
X150924054Y-111794325D01*
X151095675Y-111794325D01*
X151095675Y-111965946D01*
G37*
G36*
X150409189Y-105444325D02*
G01*
X150409189Y-105959189D01*
X149894324Y-105959189D01*
X149379459Y-105959189D01*
X149379459Y-105444325D01*
X149379459Y-104929460D01*
X149894324Y-104929460D01*
X150409189Y-104929460D01*
X150409189Y-105444325D01*
G37*
G36*
X149036216Y-110592973D02*
G01*
X149036216Y-110764595D01*
X148864594Y-110764595D01*
X148692973Y-110764595D01*
X148692973Y-110592973D01*
X148692973Y-110421352D01*
X148864594Y-110421352D01*
X149036216Y-110421352D01*
X149036216Y-110592973D01*
G37*
G36*
X149379459Y-112480811D02*
G01*
X149379459Y-112824054D01*
X149207838Y-112824054D01*
X149036216Y-112824054D01*
X149036216Y-112652433D01*
X149036216Y-112480811D01*
X148864594Y-112480811D01*
X148692973Y-112480811D01*
X148692973Y-112309189D01*
X148692973Y-112137568D01*
X149036216Y-112137568D01*
X149379459Y-112137568D01*
X149379459Y-112480811D01*
G37*
G36*
X155386216Y-107675406D02*
G01*
X155557838Y-107675406D01*
X155557838Y-107847027D01*
X155557838Y-108018649D01*
X155386216Y-108018649D01*
X155214594Y-108018649D01*
X155214594Y-107847027D01*
X155214594Y-107675406D01*
X155386216Y-107675406D01*
G37*
G36*
X155214594Y-107503784D02*
G01*
X155214594Y-107675406D01*
X155042973Y-107675406D01*
X154871351Y-107675406D01*
X154871351Y-107503784D01*
X154871351Y-107332162D01*
X155042973Y-107332162D01*
X155214594Y-107332162D01*
X155214594Y-107503784D01*
G37*
G36*
X154528108Y-106817298D02*
G01*
X154528108Y-107332162D01*
X154356486Y-107332162D01*
X154184865Y-107332162D01*
X154184865Y-107160541D01*
X154184865Y-106988919D01*
X154013243Y-106988919D01*
X153841621Y-106988919D01*
X153841621Y-106817298D01*
X153841621Y-106645676D01*
X154013243Y-106645676D01*
X154184865Y-106645676D01*
X154184865Y-106474054D01*
X154184865Y-106302433D01*
X154356486Y-106302433D01*
X154528108Y-106302433D01*
X154528108Y-106817298D01*
G37*
G36*
X152811892Y-105444325D02*
G01*
X152811892Y-105615946D01*
X152983513Y-105615946D01*
X153155135Y-105615946D01*
X153155135Y-105787568D01*
X153155135Y-105959189D01*
X152811892Y-105959189D01*
X152468648Y-105959189D01*
X152468648Y-105787568D01*
X152468648Y-105615946D01*
X152297027Y-105615946D01*
X152125405Y-105615946D01*
X152125405Y-105444325D01*
X152125405Y-105272703D01*
X152468648Y-105272703D01*
X152811892Y-105272703D01*
X152811892Y-105444325D01*
G37*
G36*
X151953784Y-105615946D02*
G01*
X152125405Y-105615946D01*
X152125405Y-105787568D01*
X152125405Y-105959189D01*
X151953784Y-105959189D01*
X151782162Y-105959189D01*
X151782162Y-105787568D01*
X151782162Y-105615946D01*
X151953784Y-105615946D01*
G37*
G36*
X151782162Y-105272703D02*
G01*
X151782162Y-105615946D01*
X151610540Y-105615946D01*
X151438919Y-105615946D01*
X151438919Y-105272703D01*
X151438919Y-104929460D01*
X151610540Y-104929460D01*
X151782162Y-104929460D01*
X151782162Y-105272703D01*
G37*
G36*
X151267297Y-107332162D02*
G01*
X151438919Y-107332162D01*
X151438919Y-107503784D01*
X151438919Y-107675406D01*
X151267297Y-107675406D01*
X151095675Y-107675406D01*
X151095675Y-107503784D01*
X151095675Y-107332162D01*
X151267297Y-107332162D01*
G37*
G36*
X151095675Y-107160541D02*
G01*
X151095675Y-107332162D01*
X150924054Y-107332162D01*
X150752432Y-107332162D01*
X150752432Y-107160541D01*
X150752432Y-106988919D01*
X150924054Y-106988919D01*
X151095675Y-106988919D01*
X151095675Y-107160541D01*
G37*
G36*
X158647027Y-112137568D02*
G01*
X158647027Y-112995676D01*
X158647027Y-114197027D01*
X157445675Y-114197027D01*
X156244324Y-114197027D01*
X156244324Y-113853784D01*
X156587567Y-113853784D01*
X157445675Y-113853784D01*
X158303784Y-113853784D01*
X158303784Y-112995676D01*
X158303784Y-112137568D01*
X157445675Y-112137568D01*
X156587567Y-112137568D01*
X156587567Y-112995676D01*
X156587567Y-113853784D01*
X156244324Y-113853784D01*
X156244324Y-112995676D01*
X156244324Y-111794325D01*
X157445675Y-111794325D01*
X158647027Y-111794325D01*
X158647027Y-112137568D01*
G37*
G36*
X158647027Y-104586216D02*
G01*
X158647027Y-105444325D01*
X158647027Y-106645676D01*
X157445675Y-106645676D01*
X156244324Y-106645676D01*
X156244324Y-106302433D01*
X156587567Y-106302433D01*
X157445675Y-106302433D01*
X158303784Y-106302433D01*
X158303784Y-105444325D01*
X158303784Y-104586216D01*
X157445675Y-104586216D01*
X156587567Y-104586216D01*
X156587567Y-105444325D01*
X156587567Y-106302433D01*
X156244324Y-106302433D01*
X156244324Y-105444325D01*
X156244324Y-104242973D01*
X157445675Y-104242973D01*
X158647027Y-104242973D01*
X158647027Y-104586216D01*
G37*
G36*
X151095675Y-104586216D02*
G01*
X151095675Y-105444325D01*
X151095675Y-106645676D01*
X149894324Y-106645676D01*
X148692973Y-106645676D01*
X148692973Y-106302433D01*
X149036216Y-106302433D01*
X149894324Y-106302433D01*
X150752432Y-106302433D01*
X150752432Y-105444325D01*
X150752432Y-104586216D01*
X149894324Y-104586216D01*
X149036216Y-104586216D01*
X149036216Y-105444325D01*
X149036216Y-106302433D01*
X148692973Y-106302433D01*
X148692973Y-105444325D01*
X148692973Y-104242973D01*
X149894324Y-104242973D01*
X151095675Y-104242973D01*
X151095675Y-104586216D01*
G37*
G36*
X157617297Y-109734865D02*
G01*
X157617297Y-110078108D01*
X156930811Y-110078108D01*
X156244324Y-110078108D01*
X156244324Y-110249730D01*
X156244324Y-110421352D01*
X155729459Y-110421352D01*
X155214594Y-110421352D01*
X155214594Y-110592973D01*
X155214594Y-110764595D01*
X155042973Y-110764595D01*
X154871351Y-110764595D01*
X154871351Y-111107838D01*
X154871351Y-111451081D01*
X154699729Y-111451081D01*
X154528108Y-111451081D01*
X154528108Y-111622703D01*
X154528108Y-111794325D01*
X154184865Y-111794325D01*
X154184865Y-111965946D01*
X154184865Y-112137568D01*
X154356486Y-112137568D01*
X154528108Y-112137568D01*
X154528108Y-111965946D01*
X154528108Y-111794325D01*
X154699729Y-111794325D01*
X154871351Y-111794325D01*
X154871351Y-111965946D01*
X154871351Y-112137568D01*
X155214594Y-112137568D01*
X155557838Y-112137568D01*
X155557838Y-112309189D01*
X155557838Y-112480811D01*
X155214594Y-112480811D01*
X154871351Y-112480811D01*
X154871351Y-112652433D01*
X154871351Y-112824054D01*
X154528108Y-112824054D01*
X154184865Y-112824054D01*
X154184865Y-112995676D01*
X154184865Y-113167298D01*
X154528108Y-113167298D01*
X154871351Y-113167298D01*
X154871351Y-113338919D01*
X154871351Y-113510541D01*
X155042973Y-113510541D01*
X155214594Y-113510541D01*
X155214594Y-113167298D01*
X155214594Y-112824054D01*
X155386216Y-112824054D01*
X155557838Y-112824054D01*
X155557838Y-112652433D01*
X155557838Y-112480811D01*
X155729459Y-112480811D01*
X155901081Y-112480811D01*
X155901081Y-112824054D01*
X155901081Y-113167298D01*
X155729459Y-113167298D01*
X155557838Y-113167298D01*
X155557838Y-113338919D01*
X155557838Y-113510541D01*
X155386216Y-113510541D01*
X155214594Y-113510541D01*
X155214594Y-113682162D01*
X155214594Y-113853784D01*
X155386216Y-113853784D01*
X155557838Y-113853784D01*
X155557838Y-113682162D01*
X155557838Y-113510541D01*
X155729459Y-113510541D01*
X155901081Y-113510541D01*
X155901081Y-113853784D01*
X155901081Y-114197027D01*
X155386216Y-114197027D01*
X154871351Y-114197027D01*
X154871351Y-114025406D01*
X154871351Y-113853784D01*
X154699729Y-113853784D01*
X154528108Y-113853784D01*
X154528108Y-113682162D01*
X154528108Y-113510541D01*
X154184865Y-113510541D01*
X153841621Y-113510541D01*
X153841621Y-113338919D01*
X153841621Y-113167298D01*
X153670000Y-113167298D01*
X153498378Y-113167298D01*
X153498378Y-113338919D01*
X153498378Y-113510541D01*
X153326756Y-113510541D01*
X153155135Y-113510541D01*
X153155135Y-113853784D01*
X153155135Y-114197027D01*
X152983513Y-114197027D01*
X152811892Y-114197027D01*
X152811892Y-113853784D01*
X152811892Y-113510541D01*
X152640270Y-113510541D01*
X152468648Y-113510541D01*
X152468648Y-113338919D01*
X152468648Y-113167298D01*
X152811892Y-113167298D01*
X152811892Y-113338919D01*
X152811892Y-113510541D01*
X152983513Y-113510541D01*
X153155135Y-113510541D01*
X153155135Y-113338919D01*
X153155135Y-113167298D01*
X152983513Y-113167298D01*
X152811892Y-113167298D01*
X152468648Y-113167298D01*
X152297027Y-113167298D01*
X152125405Y-113167298D01*
X152125405Y-112995676D01*
X152125405Y-112824054D01*
X152468648Y-112824054D01*
X152811892Y-112824054D01*
X153498378Y-112824054D01*
X153670000Y-112824054D01*
X153841621Y-112824054D01*
X153841621Y-112309189D01*
X153841621Y-111794325D01*
X153670000Y-111794325D01*
X153498378Y-111794325D01*
X153498378Y-112137568D01*
X153498378Y-112309189D01*
X153498378Y-112824054D01*
X152811892Y-112824054D01*
X152811892Y-112652433D01*
X152811892Y-112480811D01*
X152983513Y-112480811D01*
X153155135Y-112480811D01*
X153155135Y-112309189D01*
X153155135Y-112137568D01*
X152983513Y-112137568D01*
X152811892Y-112137568D01*
X152811892Y-112309189D01*
X152811892Y-112480811D01*
X152640270Y-112480811D01*
X152468648Y-112480811D01*
X152468648Y-112309189D01*
X152468648Y-112137568D01*
X152297027Y-112137568D01*
X152125405Y-112137568D01*
X152125405Y-112480811D01*
X152125405Y-112824054D01*
X151782162Y-112824054D01*
X151438919Y-112824054D01*
X151438919Y-112995676D01*
X151438919Y-113167298D01*
X151610540Y-113167298D01*
X151782162Y-113167298D01*
X151782162Y-113338919D01*
X151782162Y-113510541D01*
X151438919Y-113510541D01*
X151095675Y-113510541D01*
X151095675Y-113853784D01*
X151095675Y-114197027D01*
X150924054Y-114197027D01*
X150752432Y-114197027D01*
X150752432Y-114025406D01*
X150752432Y-113853784D01*
X150580811Y-113853784D01*
X150409189Y-113853784D01*
X150409189Y-114025406D01*
X150409189Y-114197027D01*
X150237567Y-114197027D01*
X150065946Y-114197027D01*
X150065946Y-114025406D01*
X150065946Y-113853784D01*
X150237567Y-113853784D01*
X150409189Y-113853784D01*
X150409189Y-113682162D01*
X150409189Y-113510541D01*
X150237567Y-113510541D01*
X150065946Y-113510541D01*
X150065946Y-113682162D01*
X150065946Y-113853784D01*
X149722702Y-113853784D01*
X149379459Y-113853784D01*
X149379459Y-113682162D01*
X149379459Y-113510541D01*
X149207838Y-113510541D01*
X149036216Y-113510541D01*
X149036216Y-113682162D01*
X149036216Y-113853784D01*
X148864594Y-113853784D01*
X148692973Y-113853784D01*
X148692973Y-113338919D01*
X148692973Y-112824054D01*
X148864594Y-112824054D01*
X149036216Y-112824054D01*
X149036216Y-112995676D01*
X149036216Y-113167298D01*
X149379459Y-113167298D01*
X149722702Y-113167298D01*
X149722702Y-113338919D01*
X149722702Y-113510541D01*
X149894324Y-113510541D01*
X150065946Y-113510541D01*
X150065946Y-113338919D01*
X150065946Y-113167298D01*
X150409189Y-113167298D01*
X150752432Y-113167298D01*
X150752432Y-113338919D01*
X150752432Y-113510541D01*
X150924054Y-113510541D01*
X151095675Y-113510541D01*
X151095675Y-113167298D01*
X151095675Y-112824054D01*
X150409189Y-112824054D01*
X149722702Y-112824054D01*
X149722702Y-112652433D01*
X149722702Y-112480811D01*
X149894324Y-112480811D01*
X150065946Y-112480811D01*
X150409189Y-112480811D01*
X150924054Y-112480811D01*
X151438919Y-112480811D01*
X151438919Y-111965946D01*
X151438919Y-111451081D01*
X150924054Y-111451081D01*
X150409189Y-111451081D01*
X150409189Y-111965946D01*
X150409189Y-112480811D01*
X150065946Y-112480811D01*
X150065946Y-112309189D01*
X150065946Y-112137568D01*
X149894324Y-112137568D01*
X149722702Y-112137568D01*
X149722702Y-111794325D01*
X149722702Y-111451081D01*
X149379459Y-111451081D01*
X149036216Y-111451081D01*
X149036216Y-111279460D01*
X149036216Y-111107838D01*
X149207838Y-111107838D01*
X149379459Y-111107838D01*
X149379459Y-110936216D01*
X149379459Y-110764595D01*
X149551081Y-110764595D01*
X149722702Y-110764595D01*
X149722702Y-110592973D01*
X149722702Y-110421352D01*
X149379459Y-110421352D01*
X149036216Y-110421352D01*
X149036216Y-110249730D01*
X149036216Y-110078108D01*
X149379459Y-110078108D01*
X149722702Y-110078108D01*
X149722702Y-110249730D01*
X149722702Y-110421352D01*
X149894324Y-110421352D01*
X150065946Y-110421352D01*
X150065946Y-110249730D01*
X150065946Y-110078108D01*
X150237567Y-110078108D01*
X150409189Y-110078108D01*
X150409189Y-110421352D01*
X150409189Y-110764595D01*
X150237567Y-110764595D01*
X150065946Y-110764595D01*
X150065946Y-110936216D01*
X150065946Y-111107838D01*
X150409189Y-111107838D01*
X150752432Y-111107838D01*
X150752432Y-110936216D01*
X150752432Y-110764595D01*
X150924054Y-110764595D01*
X151095675Y-110764595D01*
X151095675Y-110936216D01*
X151095675Y-111107838D01*
X151438919Y-111107838D01*
X151782162Y-111107838D01*
X151782162Y-111451081D01*
X151782162Y-111794325D01*
X151953784Y-111794325D01*
X152125405Y-111794325D01*
X152811892Y-111794325D01*
X152983513Y-111794325D01*
X153155135Y-111794325D01*
X153155135Y-111622703D01*
X153155135Y-111451081D01*
X153498378Y-111451081D01*
X153841621Y-111451081D01*
X153841621Y-111279460D01*
X153841621Y-111107838D01*
X153498378Y-111107838D01*
X153155135Y-111107838D01*
X153155135Y-111279460D01*
X153155135Y-111451081D01*
X152983513Y-111451081D01*
X152811892Y-111451081D01*
X152811892Y-111622703D01*
X152811892Y-111794325D01*
X152125405Y-111794325D01*
X152125405Y-111622703D01*
X152125405Y-111451081D01*
X152297027Y-111451081D01*
X152468648Y-111451081D01*
X152468648Y-111279460D01*
X152468648Y-111107838D01*
X152640270Y-111107838D01*
X152811892Y-111107838D01*
X152811892Y-110936216D01*
X152811892Y-110764595D01*
X152983513Y-110764595D01*
X153155135Y-110764595D01*
X153155135Y-110592973D01*
X153155135Y-110421352D01*
X152983513Y-110421352D01*
X152811892Y-110421352D01*
X152811892Y-110592973D01*
X152811892Y-110764595D01*
X152640270Y-110764595D01*
X152468648Y-110764595D01*
X152468648Y-110421352D01*
X152468648Y-110078108D01*
X152983513Y-110078108D01*
X153498378Y-110078108D01*
X153498378Y-110421352D01*
X153498378Y-110764595D01*
X153670000Y-110764595D01*
X153841621Y-110764595D01*
X153841621Y-110592973D01*
X153841621Y-110421352D01*
X154184865Y-110421352D01*
X154528108Y-110421352D01*
X154528108Y-110592973D01*
X154528108Y-110764595D01*
X154356486Y-110764595D01*
X154184865Y-110764595D01*
X154184865Y-111107838D01*
X154184865Y-111451081D01*
X154356486Y-111451081D01*
X154528108Y-111451081D01*
X154528108Y-111107838D01*
X154528108Y-110764595D01*
X154699729Y-110764595D01*
X154871351Y-110764595D01*
X154871351Y-110592973D01*
X154871351Y-110421352D01*
X154699729Y-110421352D01*
X154528108Y-110421352D01*
X154528108Y-110249730D01*
X154528108Y-110078108D01*
X154184865Y-110078108D01*
X153841621Y-110078108D01*
X153841621Y-109906487D01*
X153841621Y-109734865D01*
X154013243Y-109734865D01*
X154184865Y-109734865D01*
X154184865Y-109563244D01*
X154184865Y-109391622D01*
X154356486Y-109391622D01*
X154528108Y-109391622D01*
X154528108Y-109563244D01*
X154528108Y-109734865D01*
X154699729Y-109734865D01*
X154871351Y-109734865D01*
X154871351Y-109048379D01*
X154871351Y-108361892D01*
X155214594Y-108361892D01*
X155557838Y-108361892D01*
X155557838Y-108533514D01*
X155557838Y-108705135D01*
X155386216Y-108705135D01*
X155214594Y-108705135D01*
X155214594Y-109220000D01*
X155214594Y-109734865D01*
X155386216Y-109734865D01*
X155557838Y-109734865D01*
X155557838Y-109906487D01*
X155557838Y-110078108D01*
X155901081Y-110078108D01*
X156244324Y-110078108D01*
X156244324Y-109906487D01*
X156244324Y-109734865D01*
X156415946Y-109734865D01*
X156587567Y-109734865D01*
X156587567Y-109563244D01*
X156587567Y-109391622D01*
X156759189Y-109391622D01*
X156930811Y-109391622D01*
X156930811Y-109563244D01*
X156930811Y-109734865D01*
X157102432Y-109734865D01*
X157274054Y-109734865D01*
X157274054Y-109563244D01*
X157274054Y-109391622D01*
X157445675Y-109391622D01*
X157617297Y-109391622D01*
X157617297Y-109734865D01*
G37*
G36*
X157617297Y-110592973D02*
G01*
X157617297Y-110764595D01*
X157788919Y-110764595D01*
X157960540Y-110764595D01*
X157960540Y-110592973D01*
X157960540Y-110421352D01*
X157788919Y-110421352D01*
X157617297Y-110421352D01*
X157617297Y-110249730D01*
X157617297Y-110078108D01*
X157788919Y-110078108D01*
X157960540Y-110078108D01*
X157960540Y-110249730D01*
X157960540Y-110421352D01*
X158132162Y-110421352D01*
X158303784Y-110421352D01*
X158303784Y-110249730D01*
X158303784Y-110078108D01*
X158132162Y-110078108D01*
X157960540Y-110078108D01*
X157960540Y-109906487D01*
X157960540Y-109734865D01*
X158132162Y-109734865D01*
X158303784Y-109734865D01*
X158303784Y-109563244D01*
X158303784Y-109391622D01*
X158475405Y-109391622D01*
X158647027Y-109391622D01*
X158647027Y-110421352D01*
X158647027Y-111451081D01*
X157788919Y-111451081D01*
X156930811Y-111451081D01*
X156930811Y-110936216D01*
X156930811Y-110421352D01*
X157274054Y-110421352D01*
X157617297Y-110421352D01*
X157617297Y-110592973D01*
G37*
G36*
X153155135Y-108361892D02*
G01*
X153155135Y-108533514D01*
X153155135Y-108705135D01*
X153326756Y-108705135D01*
X153498378Y-108705135D01*
X153498378Y-109048379D01*
X153498378Y-109391622D01*
X153326756Y-109391622D01*
X153155135Y-109391622D01*
X153155135Y-109220000D01*
X153155135Y-109048379D01*
X152983513Y-109048379D01*
X152811892Y-109048379D01*
X152811892Y-109220000D01*
X152811892Y-109391622D01*
X152640270Y-109391622D01*
X152468648Y-109391622D01*
X152468648Y-109220000D01*
X152468648Y-109048379D01*
X152297027Y-109048379D01*
X152125405Y-109048379D01*
X152125405Y-109906487D01*
X152125405Y-110764595D01*
X152297027Y-110764595D01*
X152468648Y-110764595D01*
X152468648Y-110936216D01*
X152468648Y-111107838D01*
X152125405Y-111107838D01*
X151782162Y-111107838D01*
X151782162Y-110592973D01*
X151782162Y-110078108D01*
X151438919Y-110078108D01*
X151095675Y-110078108D01*
X151095675Y-109906487D01*
X151095675Y-109734865D01*
X151438919Y-109734865D01*
X151782162Y-109734865D01*
X151782162Y-109563244D01*
X151782162Y-109391622D01*
X151267297Y-109391622D01*
X150752432Y-109391622D01*
X150752432Y-109563244D01*
X150752432Y-109734865D01*
X150409189Y-109734865D01*
X150065946Y-109734865D01*
X150065946Y-109391622D01*
X150065946Y-109048379D01*
X150409189Y-109048379D01*
X150409189Y-109220000D01*
X150409189Y-109391622D01*
X150580811Y-109391622D01*
X150752432Y-109391622D01*
X150752432Y-109220000D01*
X150752432Y-109048379D01*
X150580811Y-109048379D01*
X150409189Y-109048379D01*
X150065946Y-109048379D01*
X149894324Y-109048379D01*
X149722702Y-109048379D01*
X149722702Y-109391622D01*
X149722702Y-109734865D01*
X149551081Y-109734865D01*
X149379459Y-109734865D01*
X149379459Y-109391622D01*
X149379459Y-109048379D01*
X149207838Y-109048379D01*
X149036216Y-109048379D01*
X149036216Y-109391622D01*
X149036216Y-109734865D01*
X148864594Y-109734865D01*
X148692973Y-109734865D01*
X148692973Y-108876757D01*
X148692973Y-108018649D01*
X148864594Y-108018649D01*
X149036216Y-108018649D01*
X149036216Y-108361892D01*
X149036216Y-108705135D01*
X149722702Y-108705135D01*
X150409189Y-108705135D01*
X150409189Y-108361892D01*
X150409189Y-108018649D01*
X150237567Y-108018649D01*
X150065946Y-108018649D01*
X150065946Y-108190271D01*
X150065946Y-108361892D01*
X149894324Y-108361892D01*
X149722702Y-108361892D01*
X149722702Y-108190271D01*
X149722702Y-108018649D01*
X149551081Y-108018649D01*
X149379459Y-108018649D01*
X149379459Y-107847027D01*
X149379459Y-107675406D01*
X149207838Y-107675406D01*
X149036216Y-107675406D01*
X149036216Y-107503784D01*
X149036216Y-107332162D01*
X149379459Y-107332162D01*
X149722702Y-107332162D01*
X149722702Y-107675406D01*
X149722702Y-108018649D01*
X149894324Y-108018649D01*
X150065946Y-108018649D01*
X150065946Y-107675406D01*
X150065946Y-107332162D01*
X150409189Y-107332162D01*
X150752432Y-107332162D01*
X150752432Y-107675406D01*
X150752432Y-108018649D01*
X151095675Y-108018649D01*
X151438919Y-108018649D01*
X151438919Y-108190271D01*
X151438919Y-108361892D01*
X151267297Y-108361892D01*
X151095675Y-108361892D01*
X151095675Y-108705135D01*
X151095675Y-109048379D01*
X151610540Y-109048379D01*
X152125405Y-109048379D01*
X152125405Y-108876757D01*
X152125405Y-108705135D01*
X152468648Y-108705135D01*
X152640270Y-108705135D01*
X152811892Y-108705135D01*
X152811892Y-108533514D01*
X152811892Y-108361892D01*
X152640270Y-108361892D01*
X152468648Y-108361892D01*
X152468648Y-108533514D01*
X152468648Y-108705135D01*
X152125405Y-108705135D01*
X151953784Y-108705135D01*
X151782162Y-108705135D01*
X151782162Y-108361892D01*
X151782162Y-108018649D01*
X151953784Y-108018649D01*
X152125405Y-108018649D01*
X152125405Y-108190271D01*
X152125405Y-108361892D01*
X152297027Y-108361892D01*
X152468648Y-108361892D01*
X152468648Y-108018649D01*
X152468648Y-107675406D01*
X152811892Y-107675406D01*
X153155135Y-107675406D01*
X153155135Y-107503784D01*
X153155135Y-107332162D01*
X152640270Y-107332162D01*
X152125405Y-107332162D01*
X152125405Y-107503784D01*
X152125405Y-107675406D01*
X151953784Y-107675406D01*
X151782162Y-107675406D01*
X151782162Y-107332162D01*
X151782162Y-106988919D01*
X151610540Y-106988919D01*
X151438919Y-106988919D01*
X151438919Y-106474054D01*
X151438919Y-105959189D01*
X151610540Y-105959189D01*
X151782162Y-105959189D01*
X151782162Y-106302433D01*
X151782162Y-106645676D01*
X151953784Y-106645676D01*
X152125405Y-106645676D01*
X152125405Y-106817298D01*
X152125405Y-106988919D01*
X152468648Y-106988919D01*
X152811892Y-106988919D01*
X152811892Y-106645676D01*
X152811892Y-106302433D01*
X152983513Y-106302433D01*
X153155135Y-106302433D01*
X153155135Y-106645676D01*
X153155135Y-106988919D01*
X153498378Y-106988919D01*
X153841621Y-106988919D01*
X153841621Y-107675406D01*
X153841621Y-108361892D01*
X153155135Y-108361892D01*
G37*
G36*
X156415946Y-110421352D02*
G01*
X156587567Y-110421352D01*
X156587567Y-110592973D01*
X156587567Y-110764595D01*
X156415946Y-110764595D01*
X156244324Y-110764595D01*
X156244324Y-110592973D01*
X156244324Y-110421352D01*
X156415946Y-110421352D01*
G37*
G36*
X149722702Y-109906487D02*
G01*
X149722702Y-109734865D01*
X149894324Y-109734865D01*
X150065946Y-109734865D01*
X150065946Y-109906487D01*
X150065946Y-110078108D01*
X149894324Y-110078108D01*
X149722702Y-110078108D01*
X149722702Y-109906487D01*
G37*
G36*
X158647027Y-107332162D02*
G01*
X158647027Y-108018649D01*
X158647027Y-109048379D01*
X158475405Y-109048379D01*
X158303784Y-109048379D01*
X158303784Y-109220000D01*
X158303784Y-109391622D01*
X157960540Y-109391622D01*
X157617297Y-109391622D01*
X157617297Y-109220000D01*
X157617297Y-109048379D01*
X157445675Y-109048379D01*
X157274054Y-109048379D01*
X157274054Y-108876757D01*
X157274054Y-108705135D01*
X157617297Y-108705135D01*
X157960540Y-108705135D01*
X158303784Y-108705135D01*
X158303784Y-108533514D01*
X158303784Y-108361892D01*
X158132162Y-108361892D01*
X157960540Y-108361892D01*
X157960540Y-108190271D01*
X157960540Y-108018649D01*
X158132162Y-108018649D01*
X158303784Y-108018649D01*
X158303784Y-107675406D01*
X158303784Y-107332162D01*
X158132162Y-107332162D01*
X157960540Y-107332162D01*
X157960540Y-107503784D01*
X157960540Y-107675406D01*
X157788919Y-107675406D01*
X157617297Y-107675406D01*
X157617297Y-108190271D01*
X157617297Y-108705135D01*
X157274054Y-108705135D01*
X157102432Y-108705135D01*
X156930811Y-108705135D01*
X156930811Y-108533514D01*
X156930811Y-108361892D01*
X157102432Y-108361892D01*
X157274054Y-108361892D01*
X157274054Y-108190271D01*
X157274054Y-108018649D01*
X157102432Y-108018649D01*
X156930811Y-108018649D01*
X156930811Y-107847027D01*
X156930811Y-107675406D01*
X156759189Y-107675406D01*
X156587567Y-107675406D01*
X156587567Y-107847027D01*
X156587567Y-108018649D01*
X156415946Y-108018649D01*
X156244324Y-108018649D01*
X156244324Y-108190271D01*
X156244324Y-108361892D01*
X155901081Y-108361892D01*
X155557838Y-108361892D01*
X155557838Y-108190271D01*
X155557838Y-108018649D01*
X155729459Y-108018649D01*
X155901081Y-108018649D01*
X155901081Y-107847027D01*
X155901081Y-107675406D01*
X155729459Y-107675406D01*
X155557838Y-107675406D01*
X155557838Y-107503784D01*
X155557838Y-107332162D01*
X155386216Y-107332162D01*
X155214594Y-107332162D01*
X155214594Y-106988919D01*
X155214594Y-106645676D01*
X155386216Y-106645676D01*
X155557838Y-106645676D01*
X155557838Y-106474054D01*
X155557838Y-106302433D01*
X155729459Y-106302433D01*
X155901081Y-106302433D01*
X155901081Y-106645676D01*
X155901081Y-106988919D01*
X155729459Y-106988919D01*
X155557838Y-106988919D01*
X155557838Y-107160541D01*
X155557838Y-107332162D01*
X155901081Y-107332162D01*
X156244324Y-107332162D01*
X156244324Y-107503784D01*
X156244324Y-107675406D01*
X156415946Y-107675406D01*
X156587567Y-107675406D01*
X156587567Y-107503784D01*
X156587567Y-107332162D01*
X156415946Y-107332162D01*
X156244324Y-107332162D01*
X156244324Y-107160541D01*
X156244324Y-106988919D01*
X156415946Y-106988919D01*
X156587567Y-106988919D01*
X156587567Y-107160541D01*
X156587567Y-107332162D01*
X156759189Y-107332162D01*
X156930811Y-107332162D01*
X156930811Y-107160541D01*
X156930811Y-106988919D01*
X157274054Y-106988919D01*
X157617297Y-106988919D01*
X157617297Y-107160541D01*
X157617297Y-107332162D01*
X157788919Y-107332162D01*
X157960540Y-107332162D01*
X157960540Y-107160541D01*
X157960540Y-106988919D01*
X158303784Y-106988919D01*
X158647027Y-106988919D01*
X158647027Y-107332162D01*
G37*
G36*
X149036216Y-107160541D02*
G01*
X149036216Y-107332162D01*
X148864594Y-107332162D01*
X148692973Y-107332162D01*
X148692973Y-107160541D01*
X148692973Y-106988919D01*
X148864594Y-106988919D01*
X149036216Y-106988919D01*
X149036216Y-107160541D01*
G37*
G36*
X155214594Y-105615946D02*
G01*
X155214594Y-105959189D01*
X155042973Y-105959189D01*
X154871351Y-105959189D01*
X154871351Y-106130811D01*
X154871351Y-106302433D01*
X154699729Y-106302433D01*
X154528108Y-106302433D01*
X154528108Y-106130811D01*
X154528108Y-105959189D01*
X154356486Y-105959189D01*
X154184865Y-105959189D01*
X154184865Y-106130811D01*
X154184865Y-106302433D01*
X154013243Y-106302433D01*
X153841621Y-106302433D01*
X153841621Y-106474054D01*
X153841621Y-106645676D01*
X153670000Y-106645676D01*
X153498378Y-106645676D01*
X153498378Y-106130811D01*
X153498378Y-105615946D01*
X153670000Y-105615946D01*
X153841621Y-105615946D01*
X154184865Y-105615946D01*
X154356486Y-105615946D01*
X154528108Y-105615946D01*
X154528108Y-105272703D01*
X154528108Y-104929460D01*
X154356486Y-104929460D01*
X154184865Y-104929460D01*
X154184865Y-105272703D01*
X154184865Y-105615946D01*
X153841621Y-105615946D01*
X153841621Y-105272703D01*
X153841621Y-104929460D01*
X154013243Y-104929460D01*
X154184865Y-104929460D01*
X154184865Y-104757838D01*
X154184865Y-104586216D01*
X154013243Y-104586216D01*
X153841621Y-104586216D01*
X153841621Y-104757838D01*
X153841621Y-104929460D01*
X153670000Y-104929460D01*
X153498378Y-104929460D01*
X153498378Y-105272703D01*
X153498378Y-105615946D01*
X153326756Y-105615946D01*
X153155135Y-105615946D01*
X153155135Y-105444325D01*
X153155135Y-105272703D01*
X152983513Y-105272703D01*
X152811892Y-105272703D01*
X152811892Y-105101081D01*
X152811892Y-104929460D01*
X152640270Y-104929460D01*
X152468648Y-104929460D01*
X152468648Y-104757838D01*
X152468648Y-104586216D01*
X152811892Y-104586216D01*
X153155135Y-104586216D01*
X153155135Y-104757838D01*
X153155135Y-104929460D01*
X153326756Y-104929460D01*
X153498378Y-104929460D01*
X153498378Y-104586216D01*
X153498378Y-104242973D01*
X153841621Y-104242973D01*
X154184865Y-104242973D01*
X154184865Y-104414595D01*
X154184865Y-104586216D01*
X154356486Y-104586216D01*
X154528108Y-104586216D01*
X154528108Y-104414595D01*
X154528108Y-104242973D01*
X155214594Y-104242973D01*
X155901081Y-104242973D01*
X155901081Y-104414595D01*
X155901081Y-104586216D01*
X155386216Y-104586216D01*
X154871351Y-104586216D01*
X154871351Y-104929460D01*
X154871351Y-105272703D01*
X155042973Y-105272703D01*
X155214594Y-105272703D01*
X155214594Y-105101081D01*
X155214594Y-104929460D01*
X155386216Y-104929460D01*
X155557838Y-104929460D01*
X155557838Y-105101081D01*
X155557838Y-105272703D01*
X155386216Y-105272703D01*
X155214594Y-105272703D01*
X155214594Y-105615946D01*
G37*
G36*
X155386216Y-105959189D02*
G01*
X155557838Y-105959189D01*
X155557838Y-106130811D01*
X155557838Y-106302433D01*
X155386216Y-106302433D01*
X155214594Y-106302433D01*
X155214594Y-106130811D01*
X155214594Y-105959189D01*
X155386216Y-105959189D01*
G37*
G36*
X152468648Y-104414595D02*
G01*
X152468648Y-104586216D01*
X152297027Y-104586216D01*
X152125405Y-104586216D01*
X152125405Y-104414595D01*
X152125405Y-104242973D01*
X152297027Y-104242973D01*
X152468648Y-104242973D01*
X152468648Y-104414595D01*
G37*
%TD*%
M02*
