%TF.GenerationSoftware,KiCad,Pcbnew,(7.0.0)*%
%TF.CreationDate,2023-05-23T14:57:48+09:00*%
%TF.ProjectId,sgkb-right,73676b62-2d72-4696-9768-742e6b696361,rev?*%
%TF.SameCoordinates,Original*%
%TF.FileFunction,Soldermask,Top*%
%TF.FilePolarity,Negative*%
%FSLAX46Y46*%
G04 Gerber Fmt 4.6, Leading zero omitted, Abs format (unit mm)*
G04 Created by KiCad (PCBNEW (7.0.0)) date 2023-05-23 14:57:48*
%MOMM*%
%LPD*%
G01*
G04 APERTURE LIST*
%ADD10C,3.050000*%
%ADD11C,4.000000*%
%ADD12C,1.800000*%
%ADD13C,1.700000*%
%ADD14C,4.900000*%
%ADD15R,1.600000X1.600000*%
%ADD16O,1.600000X1.600000*%
%ADD17C,2.200000*%
%ADD18C,1.200000*%
%ADD19O,1.700000X2.500000*%
%ADD20C,1.524000*%
G04 APERTURE END LIST*
D10*
%TO.C,SW19*%
X204643750Y-64300000D03*
D11*
X189403750Y-64300000D03*
D12*
X197643750Y-70700000D03*
D13*
X197643750Y-71120000D03*
D14*
X197643750Y-76200000D03*
D13*
X197643750Y-81280000D03*
D12*
X197643750Y-81700000D03*
D10*
X204643750Y-88100000D03*
D11*
X189403750Y-88100000D03*
%TD*%
D12*
%TO.C,SW5*%
X99275000Y-47625000D03*
D13*
X99695000Y-47625000D03*
D14*
X104775000Y-47625000D03*
D13*
X109855000Y-47625000D03*
D12*
X110275000Y-47625000D03*
%TD*%
D15*
%TO.C,D18*%
X180974999Y-61594999D03*
D16*
X180974999Y-69214999D03*
%TD*%
D12*
%TO.C,SW33*%
X80225000Y-104775000D03*
D13*
X80645000Y-104775000D03*
D14*
X85725000Y-104775000D03*
D13*
X90805000Y-104775000D03*
D12*
X91225000Y-104775000D03*
%TD*%
%TO.C,SW37*%
X156425000Y-104775000D03*
D13*
X156845000Y-104775000D03*
D14*
X161925000Y-104775000D03*
D13*
X167005000Y-104775000D03*
D12*
X167425000Y-104775000D03*
%TD*%
D17*
%TO.C,H8*%
X190500000Y-114300000D03*
%TD*%
D15*
%TO.C,D39*%
X201929999Y-95249999D03*
D16*
X194309999Y-95249999D03*
%TD*%
D12*
%TO.C,SW32*%
X61175000Y-104775000D03*
D13*
X61595000Y-104775000D03*
D14*
X66675000Y-104775000D03*
D13*
X71755000Y-104775000D03*
D12*
X72175000Y-104775000D03*
%TD*%
D15*
%TO.C,D22*%
X71754999Y-80644999D03*
D16*
X71754999Y-88264999D03*
%TD*%
D12*
%TO.C,SW49*%
X194525000Y-123825000D03*
D13*
X194945000Y-123825000D03*
D14*
X200025000Y-123825000D03*
D13*
X205105000Y-123825000D03*
D12*
X205525000Y-123825000D03*
%TD*%
D15*
%TO.C,D33*%
X95249999Y-99694999D03*
D16*
X95249999Y-107314999D03*
%TD*%
D15*
%TO.C,D47*%
X152399999Y-118744999D03*
D16*
X152399999Y-126364999D03*
%TD*%
D15*
%TO.C,D6*%
X133349999Y-42544999D03*
D16*
X133349999Y-50164999D03*
%TD*%
D15*
%TO.C,D45*%
X128269999Y-118744999D03*
D16*
X128269999Y-126364999D03*
%TD*%
D12*
%TO.C,SW3*%
X61175000Y-47625000D03*
D13*
X61595000Y-47625000D03*
D14*
X66675000Y-47625000D03*
D13*
X71755000Y-47625000D03*
D12*
X72175000Y-47625000D03*
%TD*%
%TO.C,SW6*%
X118325000Y-47625000D03*
D13*
X118745000Y-47625000D03*
D14*
X123825000Y-47625000D03*
D13*
X128905000Y-47625000D03*
D12*
X129325000Y-47625000D03*
%TD*%
%TO.C,SW46*%
X132612500Y-123825000D03*
D13*
X133032500Y-123825000D03*
D14*
X138112500Y-123825000D03*
D13*
X143192500Y-123825000D03*
D12*
X143612500Y-123825000D03*
%TD*%
%TO.C,SW45*%
X113562500Y-123825000D03*
D13*
X113982500Y-123825000D03*
D14*
X119062500Y-123825000D03*
D13*
X124142500Y-123825000D03*
D12*
X124562500Y-123825000D03*
%TD*%
%TO.C,SW17*%
X146900000Y-66675000D03*
D13*
X147320000Y-66675000D03*
D14*
X152400000Y-66675000D03*
D13*
X157480000Y-66675000D03*
D12*
X157900000Y-66675000D03*
%TD*%
D15*
%TO.C,D2*%
X57149999Y-42544999D03*
D16*
X57149999Y-50164999D03*
%TD*%
D15*
%TO.C,D7*%
X152399999Y-42544999D03*
D16*
X152399999Y-50164999D03*
%TD*%
D12*
%TO.C,SW48*%
X175475000Y-123825000D03*
D13*
X175895000Y-123825000D03*
D14*
X180975000Y-123825000D03*
D13*
X186055000Y-123825000D03*
D12*
X186475000Y-123825000D03*
%TD*%
D15*
%TO.C,D32*%
X76199999Y-99694999D03*
D16*
X76199999Y-107314999D03*
%TD*%
D15*
%TO.C,D15*%
X123824999Y-61594999D03*
D16*
X123824999Y-69214999D03*
%TD*%
D15*
%TO.C,D5*%
X114299999Y-42544999D03*
D16*
X114299999Y-50164999D03*
%TD*%
D15*
%TO.C,D8*%
X171449999Y-42544999D03*
D16*
X171449999Y-50164999D03*
%TD*%
D15*
%TO.C,D12*%
X66674999Y-61594999D03*
D16*
X66674999Y-69214999D03*
%TD*%
D12*
%TO.C,SW34*%
X99275000Y-104775000D03*
D13*
X99695000Y-104775000D03*
D14*
X104775000Y-104775000D03*
D13*
X109855000Y-104775000D03*
D12*
X110275000Y-104775000D03*
%TD*%
%TO.C,SW14*%
X89750000Y-66675000D03*
D13*
X90170000Y-66675000D03*
D14*
X95250000Y-66675000D03*
D13*
X100330000Y-66675000D03*
D12*
X100750000Y-66675000D03*
%TD*%
D15*
%TO.C,D31*%
X57149999Y-99694999D03*
D16*
X57149999Y-107314999D03*
%TD*%
D15*
%TO.C,D9*%
X184784999Y-57149999D03*
D16*
X177164999Y-57149999D03*
%TD*%
D17*
%TO.C,H7*%
X109537500Y-114300000D03*
%TD*%
D12*
%TO.C,SW8*%
X156425000Y-47625000D03*
D13*
X156845000Y-47625000D03*
D14*
X161925000Y-47625000D03*
D13*
X167005000Y-47625000D03*
D12*
X167425000Y-47625000D03*
%TD*%
%TO.C,SW28*%
X170712500Y-85725000D03*
D13*
X171132500Y-85725000D03*
D14*
X176212500Y-85725000D03*
D13*
X181292500Y-85725000D03*
D12*
X181712500Y-85725000D03*
%TD*%
%TO.C,SW25*%
X113562500Y-85725000D03*
D13*
X113982500Y-85725000D03*
D14*
X119062500Y-85725000D03*
D13*
X124142500Y-85725000D03*
D12*
X124562500Y-85725000D03*
%TD*%
D15*
%TO.C,D10*%
X203834999Y-57149999D03*
D16*
X196214999Y-57149999D03*
%TD*%
D15*
%TO.C,D36*%
X152399999Y-99694999D03*
D16*
X152399999Y-107314999D03*
%TD*%
D15*
%TO.C,D34*%
X114299999Y-99694999D03*
D16*
X114299999Y-107314999D03*
%TD*%
D15*
%TO.C,D38*%
X190499999Y-99694999D03*
D16*
X190499999Y-107314999D03*
%TD*%
D15*
%TO.C,D27*%
X167004999Y-80644999D03*
D16*
X167004999Y-88264999D03*
%TD*%
D17*
%TO.C,H4*%
X147637500Y-114300000D03*
%TD*%
D12*
%TO.C,SW35*%
X118325000Y-104775000D03*
D13*
X118745000Y-104775000D03*
D14*
X123825000Y-104775000D03*
D13*
X128905000Y-104775000D03*
D12*
X129325000Y-104775000D03*
%TD*%
%TO.C,SW31*%
X42125000Y-104775000D03*
D13*
X42545000Y-104775000D03*
D14*
X47625000Y-104775000D03*
D13*
X52705000Y-104775000D03*
D12*
X53125000Y-104775000D03*
%TD*%
D17*
%TO.C,H1*%
X57150000Y-57150000D03*
%TD*%
D12*
%TO.C,SW42*%
X56412500Y-123825000D03*
D13*
X56832500Y-123825000D03*
D14*
X61912500Y-123825000D03*
D13*
X66992500Y-123825000D03*
D12*
X67412500Y-123825000D03*
%TD*%
D15*
%TO.C,D35*%
X133349999Y-99694999D03*
D16*
X133349999Y-107314999D03*
%TD*%
D15*
%TO.C,D42*%
X71119999Y-118744999D03*
D16*
X71119999Y-126364999D03*
%TD*%
D12*
%TO.C,SW15*%
X108800000Y-66675000D03*
D13*
X109220000Y-66675000D03*
D14*
X114300000Y-66675000D03*
D13*
X119380000Y-66675000D03*
D12*
X119800000Y-66675000D03*
%TD*%
%TO.C,SW44*%
X94512500Y-123825000D03*
D13*
X94932500Y-123825000D03*
D14*
X100012500Y-123825000D03*
D13*
X105092500Y-123825000D03*
D12*
X105512500Y-123825000D03*
%TD*%
D15*
%TO.C,D48*%
X171449999Y-118744999D03*
D16*
X171449999Y-126364999D03*
%TD*%
D12*
%TO.C,SW43*%
X75462500Y-123825000D03*
D13*
X75882500Y-123825000D03*
D14*
X80962500Y-123825000D03*
D13*
X86042500Y-123825000D03*
D12*
X86462500Y-123825000D03*
%TD*%
D15*
%TO.C,D43*%
X90169999Y-118744999D03*
D16*
X90169999Y-126364999D03*
%TD*%
D15*
%TO.C,D13*%
X85724999Y-61594999D03*
D16*
X85724999Y-69214999D03*
%TD*%
D12*
%TO.C,SW12*%
X51650000Y-66675000D03*
D13*
X52070000Y-66675000D03*
D14*
X57150000Y-66675000D03*
D13*
X62230000Y-66675000D03*
D12*
X62650000Y-66675000D03*
%TD*%
%TO.C,SW36*%
X137375000Y-104775000D03*
D13*
X137795000Y-104775000D03*
D14*
X142875000Y-104775000D03*
D13*
X147955000Y-104775000D03*
D12*
X148375000Y-104775000D03*
%TD*%
D17*
%TO.C,H2*%
X133350000Y-57150000D03*
%TD*%
%TO.C,H6*%
X171450000Y-57150000D03*
%TD*%
D12*
%TO.C,SW39*%
X194525000Y-104775000D03*
D13*
X194945000Y-104775000D03*
D14*
X200025000Y-104775000D03*
D13*
X205105000Y-104775000D03*
D12*
X205525000Y-104775000D03*
%TD*%
%TO.C,SW18*%
X165950000Y-66675000D03*
D13*
X166370000Y-66675000D03*
D14*
X171450000Y-66675000D03*
D13*
X176530000Y-66675000D03*
D12*
X176950000Y-66675000D03*
%TD*%
%TO.C,SW47*%
X156425000Y-123825000D03*
D13*
X156845000Y-123825000D03*
D14*
X161925000Y-123825000D03*
D13*
X167005000Y-123825000D03*
D12*
X167425000Y-123825000D03*
%TD*%
%TO.C,SW23*%
X75462500Y-85725000D03*
D13*
X75882500Y-85725000D03*
D14*
X80962500Y-85725000D03*
D13*
X86042500Y-85725000D03*
D12*
X86462500Y-85725000D03*
%TD*%
D15*
%TO.C,D3*%
X76199999Y-42544999D03*
D16*
X76199999Y-50164999D03*
%TD*%
D12*
%TO.C,SW24*%
X94512500Y-85725000D03*
D13*
X94932500Y-85725000D03*
D14*
X100012500Y-85725000D03*
D13*
X105092500Y-85725000D03*
D12*
X105512500Y-85725000D03*
%TD*%
%TO.C,SW16*%
X127850000Y-66675000D03*
D13*
X128270000Y-66675000D03*
D14*
X133350000Y-66675000D03*
D13*
X138430000Y-66675000D03*
D12*
X138850000Y-66675000D03*
%TD*%
D15*
%TO.C,D25*%
X128904999Y-80644999D03*
D16*
X128904999Y-88264999D03*
%TD*%
D12*
%TO.C,SW26*%
X132612500Y-85725000D03*
D13*
X133032500Y-85725000D03*
D14*
X138112500Y-85725000D03*
D13*
X143192500Y-85725000D03*
D12*
X143612500Y-85725000D03*
%TD*%
%TO.C,SW9*%
X175475000Y-47625000D03*
D13*
X175895000Y-47625000D03*
D14*
X180975000Y-47625000D03*
D13*
X186055000Y-47625000D03*
D12*
X186475000Y-47625000D03*
%TD*%
D15*
%TO.C,D44*%
X109219999Y-118744999D03*
D16*
X109219999Y-126364999D03*
%TD*%
D15*
%TO.C,D4*%
X95249999Y-42544999D03*
D16*
X95249999Y-50164999D03*
%TD*%
D15*
%TO.C,D28*%
X182403749Y-76199999D03*
D16*
X174783749Y-76199999D03*
%TD*%
D12*
%TO.C,SW10*%
X194525000Y-47625000D03*
D13*
X194945000Y-47625000D03*
D14*
X200025000Y-47625000D03*
D13*
X205105000Y-47625000D03*
D12*
X205525000Y-47625000D03*
%TD*%
%TO.C,SW4*%
X80225000Y-47625000D03*
D13*
X80645000Y-47625000D03*
D14*
X85725000Y-47625000D03*
D13*
X90805000Y-47625000D03*
D12*
X91225000Y-47625000D03*
%TD*%
D15*
%TO.C,D26*%
X147954999Y-80644999D03*
D16*
X147954999Y-88264999D03*
%TD*%
D15*
%TO.C,D17*%
X161924999Y-61594999D03*
D16*
X161924999Y-69214999D03*
%TD*%
D15*
%TO.C,D19*%
X190499999Y-95249999D03*
D16*
X182879999Y-95249999D03*
%TD*%
D12*
%TO.C,SW27*%
X151662500Y-85725000D03*
D13*
X152082500Y-85725000D03*
D14*
X157162500Y-85725000D03*
D13*
X162242500Y-85725000D03*
D12*
X162662500Y-85725000D03*
%TD*%
D15*
%TO.C,D24*%
X109854999Y-80644999D03*
D16*
X109854999Y-88264999D03*
%TD*%
D15*
%TO.C,D49*%
X190499999Y-118744999D03*
D16*
X190499999Y-126364999D03*
%TD*%
D12*
%TO.C,SW22*%
X56412500Y-85725000D03*
D13*
X56832500Y-85725000D03*
D14*
X61912500Y-85725000D03*
D13*
X66992500Y-85725000D03*
D12*
X67412500Y-85725000D03*
%TD*%
D15*
%TO.C,D16*%
X142874999Y-61594999D03*
D16*
X142874999Y-69214999D03*
%TD*%
D12*
%TO.C,SW2*%
X42125000Y-47625000D03*
D13*
X42545000Y-47625000D03*
D14*
X47625000Y-47625000D03*
D13*
X52705000Y-47625000D03*
D12*
X53125000Y-47625000D03*
%TD*%
%TO.C,SW7*%
X137375000Y-47625000D03*
D13*
X137795000Y-47625000D03*
D14*
X142875000Y-47625000D03*
D13*
X147955000Y-47625000D03*
D12*
X148375000Y-47625000D03*
%TD*%
%TO.C,SW13*%
X70700000Y-66675000D03*
D13*
X71120000Y-66675000D03*
D14*
X76200000Y-66675000D03*
D13*
X81280000Y-66675000D03*
D12*
X81700000Y-66675000D03*
%TD*%
D15*
%TO.C,D23*%
X90169999Y-80644999D03*
D16*
X90169999Y-88264999D03*
%TD*%
D17*
%TO.C,H5*%
X95250000Y-57150000D03*
%TD*%
D15*
%TO.C,D14*%
X104774999Y-61594999D03*
D16*
X104774999Y-69214999D03*
%TD*%
D15*
%TO.C,D46*%
X147319999Y-118744999D03*
D16*
X147319999Y-126364999D03*
%TD*%
D15*
%TO.C,D37*%
X171449999Y-99694999D03*
D16*
X171449999Y-107314999D03*
%TD*%
D12*
%TO.C,SW38*%
X175475000Y-104775000D03*
D13*
X175895000Y-104775000D03*
D14*
X180975000Y-104775000D03*
D13*
X186055000Y-104775000D03*
D12*
X186475000Y-104775000D03*
%TD*%
D17*
%TO.C,H3*%
X71437500Y-114300000D03*
%TD*%
D18*
%TO.C,J1*%
X41275000Y-65405000D03*
X41275000Y-58405000D03*
D19*
X43374999Y-68704999D03*
X39174999Y-60204999D03*
X39174999Y-63204999D03*
X39174999Y-67204999D03*
%TD*%
D20*
%TO.C,U1*%
X208300000Y-41200000D03*
X208300000Y-43740000D03*
X208300000Y-46280000D03*
X208300000Y-48820000D03*
X208300000Y-51360000D03*
X208300000Y-53900000D03*
X208300000Y-56440000D03*
X190520000Y-56440000D03*
X190520000Y-53900000D03*
X190520000Y-51360000D03*
X190520000Y-48820000D03*
X190520000Y-46280000D03*
X190520000Y-43740000D03*
X190520000Y-41200000D03*
%TD*%
M02*
