M48
; DRILL file {KiCad (7.0.0)} date Tue May 23 14:57:50 2023
; FORMAT={-:-/ absolute / inch / decimal}
; #@! TF.CreationDate,2023-05-23T14:57:50+09:00
; #@! TF.GenerationSoftware,Kicad,Pcbnew,(7.0.0)
; #@! TF.FileFunction,Plated,1,2,PTH
FMAT,2
INCH
; #@! TA.AperFunction,Plated,PTH,ComponentDrill
T1C0.0118
; #@! TA.AperFunction,Plated,PTH,ViaDrill
T2C0.0157
; #@! TA.AperFunction,Plated,PTH,ComponentDrill
T3C0.0157
; #@! TA.AperFunction,Plated,PTH,ComponentDrill
T4C0.0300
; #@! TA.AperFunction,Plated,PTH,ComponentDrill
T5C0.0315
; #@! TA.AperFunction,Plated,PTH,ComponentDrill
T6C0.0394
; #@! TA.AperFunction,Plated,PTH,ComponentDrill
T7C0.0472
%
G90
G05
T2
X6.62Y-2.95
X7.63Y-2.42
T4
X7.5008Y-1.622
X7.5008Y-1.722
X7.5008Y-1.822
X7.5008Y-1.922
X7.5008Y-2.022
X7.5008Y-2.122
X7.5008Y-2.222
X8.2008Y-1.622
X8.2008Y-1.722
X8.2008Y-1.822
X8.2008Y-1.922
X8.2008Y-2.022
X8.2008Y-2.122
X8.2008Y-2.222
T5
X2.25Y-1.675
X2.25Y-1.975
X2.25Y-3.925
X2.25Y-4.225
X2.625Y-2.425
X2.625Y-2.725
X2.8Y-4.675
X2.8Y-4.975
X2.825Y-3.175
X2.825Y-3.475
X3.0Y-1.675
X3.0Y-1.975
X3.0Y-3.925
X3.0Y-4.225
X3.375Y-2.425
X3.375Y-2.725
X3.55Y-3.175
X3.55Y-3.475
X3.55Y-4.675
X3.55Y-4.975
X3.75Y-1.675
X3.75Y-1.975
X3.75Y-3.925
X3.75Y-4.225
X4.125Y-2.425
X4.125Y-2.725
X4.3Y-4.675
X4.3Y-4.975
X4.325Y-3.175
X4.325Y-3.475
X4.5Y-1.675
X4.5Y-1.975
X4.5Y-3.925
X4.5Y-4.225
X4.875Y-2.425
X4.875Y-2.725
X5.05Y-4.675
X5.05Y-4.975
X5.075Y-3.175
X5.075Y-3.475
X5.25Y-1.675
X5.25Y-1.975
X5.25Y-3.925
X5.25Y-4.225
X5.625Y-2.425
X5.625Y-2.725
X5.8Y-4.675
X5.8Y-4.975
X5.825Y-3.175
X5.825Y-3.475
X6.0Y-1.675
X6.0Y-1.975
X6.0Y-3.925
X6.0Y-4.225
X6.0Y-4.675
X6.0Y-4.975
X6.375Y-2.425
X6.375Y-2.725
X6.575Y-3.175
X6.575Y-3.475
X6.75Y-1.675
X6.75Y-1.975
X6.75Y-3.925
X6.75Y-4.225
X6.75Y-4.675
X6.75Y-4.975
X6.8812Y-3.0
X6.975Y-2.25
X7.125Y-2.425
X7.125Y-2.725
X7.1812Y-3.0
X7.2Y-3.75
X7.275Y-2.25
X7.5Y-3.75
X7.5Y-3.925
X7.5Y-4.225
X7.5Y-4.675
X7.5Y-4.975
X7.65Y-3.75
X7.725Y-2.25
X7.95Y-3.75
X8.025Y-2.25
T7
X1.725Y-1.775
X1.725Y-4.025
X1.975Y-1.675
X1.975Y-3.925
X2.1Y-2.525
X2.2875Y-3.275
X2.2875Y-4.775
X2.35Y-2.425
X2.475Y-1.775
X2.475Y-4.025
X2.5375Y-3.175
X2.5375Y-4.675
X2.725Y-1.675
X2.725Y-3.925
X2.85Y-2.525
X3.0375Y-3.275
X3.0375Y-4.775
X3.1Y-2.425
X3.225Y-1.775
X3.225Y-4.025
X3.2875Y-3.175
X3.2875Y-4.675
X3.475Y-1.675
X3.475Y-3.925
X3.6Y-2.525
X3.7875Y-3.275
X3.7875Y-4.775
X3.85Y-2.425
X3.975Y-1.775
X3.975Y-4.025
X4.0375Y-3.175
X4.0375Y-4.675
X4.225Y-1.675
X4.225Y-3.925
X4.35Y-2.525
X4.5375Y-3.275
X4.5375Y-4.775
X4.6Y-2.425
X4.725Y-1.775
X4.725Y-4.025
X4.7875Y-3.175
X4.7875Y-4.675
X4.975Y-1.675
X4.975Y-3.925
X5.1Y-2.525
X5.2875Y-3.275
X5.2875Y-4.775
X5.35Y-2.425
X5.475Y-1.775
X5.475Y-4.025
X5.5375Y-3.175
X5.5375Y-4.675
X5.725Y-1.675
X5.725Y-3.925
X5.85Y-2.525
X6.0375Y-3.275
X6.1Y-2.425
X6.225Y-1.775
X6.225Y-4.025
X6.225Y-4.775
X6.2875Y-3.175
X6.475Y-1.675
X6.475Y-3.925
X6.475Y-4.675
X6.6Y-2.525
X6.7875Y-3.275
X6.85Y-2.425
X6.975Y-1.775
X6.975Y-4.025
X6.975Y-4.775
X7.0375Y-3.175
X7.225Y-1.675
X7.225Y-3.925
X7.225Y-4.675
X7.725Y-1.775
X7.725Y-4.025
X7.725Y-4.775
X7.8812Y-2.85
X7.975Y-1.675
X7.975Y-3.925
X7.975Y-4.675
X7.9813Y-3.1
T1
G00X1.8612Y-2.1073
M15
G01X1.8888Y-2.1073
M16
G05
G00X1.8612Y-4.3573
M15
G01X1.8888Y-4.3573
M16
G05
G00X2.0581Y-1.6566
M15
G01X2.0856Y-1.6564
M16
G05
G00X2.0581Y-3.9066
M15
G01X2.0856Y-3.9064
M16
G05
G00X2.2362Y-2.8573
M15
G01X2.2638Y-2.8573
M16
G05
G00X2.4237Y-3.6073
M15
G01X2.4513Y-3.6073
M16
G05
G00X2.4237Y-5.1073
M15
G01X2.4513Y-5.1073
M16
G05
G00X2.4331Y-2.4066
M15
G01X2.4606Y-2.4064
M16
G05
G00X2.6112Y-2.1073
M15
G01X2.6388Y-2.1073
M16
G05
G00X2.6112Y-4.3573
M15
G01X2.6388Y-4.3573
M16
G05
G00X2.6206Y-3.1566
M15
G01X2.6481Y-3.1564
M16
G05
G00X2.6206Y-4.6566
M15
G01X2.6481Y-4.6564
M16
G05
G00X2.8081Y-1.6566
M15
G01X2.8356Y-1.6564
M16
G05
G00X2.8081Y-3.9066
M15
G01X2.8356Y-3.9064
M16
G05
G00X2.9862Y-2.8573
M15
G01X3.0138Y-2.8573
M16
G05
G00X3.1737Y-3.6073
M15
G01X3.2013Y-3.6073
M16
G05
G00X3.1737Y-5.1073
M15
G01X3.2013Y-5.1073
M16
G05
G00X3.1831Y-2.4066
M15
G01X3.2106Y-2.4064
M16
G05
G00X3.3612Y-2.1073
M15
G01X3.3888Y-2.1073
M16
G05
G00X3.3612Y-4.3573
M15
G01X3.3888Y-4.3573
M16
G05
G00X3.3706Y-3.1566
M15
G01X3.3981Y-3.1564
M16
G05
G00X3.3706Y-4.6566
M15
G01X3.3981Y-4.6564
M16
G05
G00X3.5581Y-1.6566
M15
G01X3.5856Y-1.6564
M16
G05
G00X3.5581Y-3.9066
M15
G01X3.5856Y-3.9064
M16
G05
G00X3.7362Y-2.8573
M15
G01X3.7638Y-2.8573
M16
G05
G00X3.9237Y-3.6073
M15
G01X3.9513Y-3.6073
M16
G05
G00X3.9237Y-5.1073
M15
G01X3.9513Y-5.1073
M16
G05
G00X3.9331Y-2.4066
M15
G01X3.9606Y-2.4064
M16
G05
G00X4.1112Y-2.1073
M15
G01X4.1388Y-2.1073
M16
G05
G00X4.1112Y-4.3573
M15
G01X4.1388Y-4.3573
M16
G05
G00X4.1206Y-3.1566
M15
G01X4.1481Y-3.1564
M16
G05
G00X4.1206Y-4.6566
M15
G01X4.1481Y-4.6564
M16
G05
G00X4.3081Y-1.6566
M15
G01X4.3356Y-1.6564
M16
G05
G00X4.3081Y-3.9066
M15
G01X4.3356Y-3.9064
M16
G05
G00X4.4862Y-2.8573
M15
G01X4.5138Y-2.8573
M16
G05
G00X4.6737Y-3.6073
M15
G01X4.7013Y-3.6073
M16
G05
G00X4.6737Y-5.1073
M15
G01X4.7013Y-5.1073
M16
G05
G00X4.6831Y-2.4066
M15
G01X4.7106Y-2.4064
M16
G05
G00X4.8612Y-2.1073
M15
G01X4.8888Y-2.1073
M16
G05
G00X4.8612Y-4.3573
M15
G01X4.8888Y-4.3573
M16
G05
G00X4.8706Y-3.1566
M15
G01X4.8981Y-3.1564
M16
G05
G00X4.8706Y-4.6566
M15
G01X4.8981Y-4.6564
M16
G05
G00X5.0581Y-1.6566
M15
G01X5.0856Y-1.6564
M16
G05
G00X5.0581Y-3.9066
M15
G01X5.0856Y-3.9064
M16
G05
G00X5.2362Y-2.8573
M15
G01X5.2638Y-2.8573
M16
G05
G00X5.4237Y-3.6073
M15
G01X5.4513Y-3.6073
M16
G05
G00X5.4237Y-5.1073
M15
G01X5.4513Y-5.1073
M16
G05
G00X5.4331Y-2.4066
M15
G01X5.4606Y-2.4064
M16
G05
G00X5.6112Y-2.1073
M15
G01X5.6388Y-2.1073
M16
G05
G00X5.6112Y-4.3573
M15
G01X5.6388Y-4.3573
M16
G05
G00X5.6206Y-3.1566
M15
G01X5.6481Y-3.1564
M16
G05
G00X5.6206Y-4.6566
M15
G01X5.6481Y-4.6564
M16
G05
G00X5.8081Y-1.6566
M15
G01X5.8356Y-1.6564
M16
G05
G00X5.8081Y-3.9066
M15
G01X5.8356Y-3.9064
M16
G05
G00X5.9862Y-2.8573
M15
G01X6.0138Y-2.8573
M16
G05
G00X6.1737Y-3.6073
M15
G01X6.2013Y-3.6073
M16
G05
G00X6.1831Y-2.4066
M15
G01X6.2106Y-2.4064
M16
G05
G00X6.3612Y-2.1073
M15
G01X6.3888Y-2.1073
M16
G05
G00X6.3612Y-4.3573
M15
G01X6.3888Y-4.3573
M16
G05
G00X6.3612Y-5.1073
M15
G01X6.3888Y-5.1073
M16
G05
G00X6.3706Y-3.1566
M15
G01X6.3981Y-3.1564
M16
G05
G00X6.5581Y-1.6566
M15
G01X6.5856Y-1.6564
M16
G05
G00X6.5581Y-3.9066
M15
G01X6.5856Y-3.9064
M16
G05
G00X6.5581Y-4.6566
M15
G01X6.5856Y-4.6564
M16
G05
G00X6.7362Y-2.8573
M15
G01X6.7638Y-2.8573
M16
G05
G00X6.9237Y-3.6073
M15
G01X6.9513Y-3.6073
M16
G05
G00X6.9331Y-2.4066
M15
G01X6.9606Y-2.4064
M16
G05
G00X7.1112Y-2.1073
M15
G01X7.1388Y-2.1073
M16
G05
G00X7.1112Y-4.3573
M15
G01X7.1388Y-4.3573
M16
G05
G00X7.1112Y-5.1073
M15
G01X7.1388Y-5.1073
M16
G05
G00X7.1206Y-3.1566
M15
G01X7.1481Y-3.1564
M16
G05
G00X7.3081Y-1.6566
M15
G01X7.3356Y-1.6564
M16
G05
G00X7.3081Y-3.9066
M15
G01X7.3356Y-3.9064
M16
G05
G00X7.3081Y-4.6566
M15
G01X7.3356Y-4.6564
M16
G05
G00X7.549Y-2.9862
M15
G01X7.549Y-3.0138
M16
G05
G00X7.8612Y-2.1073
M15
G01X7.8888Y-2.1073
M16
G05
G00X7.8612Y-4.3573
M15
G01X7.8888Y-4.3573
M16
G05
G00X7.8612Y-5.1073
M15
G01X7.8888Y-5.1073
M16
G05
G00X7.9996Y-3.1831
M15
G01X7.9999Y-3.2106
M16
G05
G00X8.0581Y-1.6566
M15
G01X8.0856Y-1.6564
M16
G05
G00X8.0581Y-3.9066
M15
G01X8.0856Y-3.9064
M16
G05
G00X8.0581Y-4.6566
M15
G01X8.0856Y-4.6564
M16
G05
T3
G00X1.6624Y-2.0285
M15
G01X1.686Y-2.0285
M16
G05
G00X1.6624Y-4.2785
M15
G01X1.686Y-4.2785
M16
G05
G00X2.0374Y-2.7785
M15
G01X2.061Y-2.7785
M16
G05
G00X2.2249Y-3.5285
M15
G01X2.2485Y-3.5285
M16
G05
G00X2.2249Y-5.0285
M15
G01X2.2485Y-5.0285
M16
G05
G00X2.4124Y-2.0285
M15
G01X2.436Y-2.0285
M16
G05
G00X2.4124Y-4.2785
M15
G01X2.436Y-4.2785
M16
G05
G00X2.7874Y-2.7785
M15
G01X2.811Y-2.7785
M16
G05
G00X2.9749Y-3.5285
M15
G01X2.9985Y-3.5285
M16
G05
G00X2.9749Y-5.0285
M15
G01X2.9985Y-5.0285
M16
G05
G00X3.1624Y-2.0285
M15
G01X3.186Y-2.0285
M16
G05
G00X3.1624Y-4.2785
M15
G01X3.186Y-4.2785
M16
G05
G00X3.5374Y-2.7785
M15
G01X3.561Y-2.7785
M16
G05
G00X3.7249Y-3.5285
M15
G01X3.7485Y-3.5285
M16
G05
G00X3.7249Y-5.0285
M15
G01X3.7485Y-5.0285
M16
G05
G00X3.9124Y-2.0285
M15
G01X3.936Y-2.0285
M16
G05
G00X3.9124Y-4.2785
M15
G01X3.936Y-4.2785
M16
G05
G00X4.2874Y-2.7785
M15
G01X4.311Y-2.7785
M16
G05
G00X4.4749Y-3.5285
M15
G01X4.4985Y-3.5285
M16
G05
G00X4.4749Y-5.0285
M15
G01X4.4985Y-5.0285
M16
G05
G00X4.6624Y-2.0285
M15
G01X4.686Y-2.0285
M16
G05
G00X4.6624Y-4.2785
M15
G01X4.686Y-4.2785
M16
G05
G00X5.0374Y-2.7785
M15
G01X5.061Y-2.7785
M16
G05
G00X5.2249Y-3.5285
M15
G01X5.2485Y-3.5285
M16
G05
G00X5.2249Y-5.0285
M15
G01X5.2485Y-5.0285
M16
G05
G00X5.4124Y-2.0285
M15
G01X5.436Y-2.0285
M16
G05
G00X5.4124Y-4.2785
M15
G01X5.436Y-4.2785
M16
G05
G00X5.7874Y-2.7785
M15
G01X5.811Y-2.7785
M16
G05
G00X5.9749Y-3.5285
M15
G01X5.9985Y-3.5285
M16
G05
G00X6.1624Y-2.0285
M15
G01X6.186Y-2.0285
M16
G05
G00X6.1624Y-4.2785
M15
G01X6.186Y-4.2785
M16
G05
G00X6.1624Y-5.0285
M15
G01X6.186Y-5.0285
M16
G05
G00X6.5374Y-2.7785
M15
G01X6.561Y-2.7785
M16
G05
G00X6.7249Y-3.5285
M15
G01X6.7485Y-3.5285
M16
G05
G00X6.9124Y-2.0285
M15
G01X6.936Y-2.0285
M16
G05
G00X6.9124Y-4.2785
M15
G01X6.936Y-4.2785
M16
G05
G00X6.9124Y-5.0285
M15
G01X6.936Y-5.0285
M16
G05
G00X7.6277Y-2.7874
M15
G01X7.6277Y-2.811
M16
G05
G00X7.6624Y-2.0285
M15
G01X7.686Y-2.0285
M16
G05
G00X7.6624Y-4.2785
M15
G01X7.686Y-4.2785
M16
G05
G00X7.6624Y-5.0285
M15
G01X7.686Y-5.0285
M16
G05
T6
G00X1.5423Y-2.3801
M15
G01X1.5423Y-2.3604
M16
G05
G00X1.5423Y-2.4982
M15
G01X1.5423Y-2.4785
M16
G05
G00X1.5423Y-2.6557
M15
G01X1.5423Y-2.636
M16
G05
G00X1.7077Y-2.7148
M15
G01X1.7077Y-2.6951
M16
G05
T0
M30
