%TF.GenerationSoftware,KiCad,Pcbnew,(7.0.0)*%
%TF.CreationDate,2023-05-23T14:57:48+09:00*%
%TF.ProjectId,sgkb-right,73676b62-2d72-4696-9768-742e6b696361,rev?*%
%TF.SameCoordinates,Original*%
%TF.FileFunction,Legend,Top*%
%TF.FilePolarity,Positive*%
%FSLAX46Y46*%
G04 Gerber Fmt 4.6, Leading zero omitted, Abs format (unit mm)*
G04 Created by KiCad (PCBNEW (7.0.0)) date 2023-05-23 14:57:48*
%MOMM*%
%LPD*%
G01*
G04 APERTURE LIST*
%ADD10C,0.120000*%
G04 APERTURE END LIST*
D10*
%TO.C,D18*%
X180975000Y-62635000D02*
X180975000Y-63285000D01*
X182095000Y-63285000D02*
X179855000Y-63285000D01*
X179855000Y-63285000D02*
X179855000Y-67525000D01*
X182095000Y-63885000D02*
X179855000Y-63885000D01*
X182095000Y-64005000D02*
X179855000Y-64005000D01*
X182095000Y-64125000D02*
X179855000Y-64125000D01*
X182095000Y-67525000D02*
X182095000Y-63285000D01*
X179855000Y-67525000D02*
X182095000Y-67525000D01*
X180975000Y-68175000D02*
X180975000Y-67525000D01*
%TO.C,D39*%
X200890000Y-95250000D02*
X200240000Y-95250000D01*
X200240000Y-96370000D02*
X200240000Y-94130000D01*
X200240000Y-94130000D02*
X196000000Y-94130000D01*
X199640000Y-96370000D02*
X199640000Y-94130000D01*
X199520000Y-96370000D02*
X199520000Y-94130000D01*
X199400000Y-96370000D02*
X199400000Y-94130000D01*
X196000000Y-96370000D02*
X200240000Y-96370000D01*
X196000000Y-94130000D02*
X196000000Y-96370000D01*
X195350000Y-95250000D02*
X196000000Y-95250000D01*
%TO.C,D22*%
X71755000Y-81685000D02*
X71755000Y-82335000D01*
X72875000Y-82335000D02*
X70635000Y-82335000D01*
X70635000Y-82335000D02*
X70635000Y-86575000D01*
X72875000Y-82935000D02*
X70635000Y-82935000D01*
X72875000Y-83055000D02*
X70635000Y-83055000D01*
X72875000Y-83175000D02*
X70635000Y-83175000D01*
X72875000Y-86575000D02*
X72875000Y-82335000D01*
X70635000Y-86575000D02*
X72875000Y-86575000D01*
X71755000Y-87225000D02*
X71755000Y-86575000D01*
%TO.C,D33*%
X95250000Y-100735000D02*
X95250000Y-101385000D01*
X96370000Y-101385000D02*
X94130000Y-101385000D01*
X94130000Y-101385000D02*
X94130000Y-105625000D01*
X96370000Y-101985000D02*
X94130000Y-101985000D01*
X96370000Y-102105000D02*
X94130000Y-102105000D01*
X96370000Y-102225000D02*
X94130000Y-102225000D01*
X96370000Y-105625000D02*
X96370000Y-101385000D01*
X94130000Y-105625000D02*
X96370000Y-105625000D01*
X95250000Y-106275000D02*
X95250000Y-105625000D01*
%TO.C,D47*%
X152400000Y-119785000D02*
X152400000Y-120435000D01*
X153520000Y-120435000D02*
X151280000Y-120435000D01*
X151280000Y-120435000D02*
X151280000Y-124675000D01*
X153520000Y-121035000D02*
X151280000Y-121035000D01*
X153520000Y-121155000D02*
X151280000Y-121155000D01*
X153520000Y-121275000D02*
X151280000Y-121275000D01*
X153520000Y-124675000D02*
X153520000Y-120435000D01*
X151280000Y-124675000D02*
X153520000Y-124675000D01*
X152400000Y-125325000D02*
X152400000Y-124675000D01*
%TO.C,D6*%
X133350000Y-43585000D02*
X133350000Y-44235000D01*
X134470000Y-44235000D02*
X132230000Y-44235000D01*
X132230000Y-44235000D02*
X132230000Y-48475000D01*
X134470000Y-44835000D02*
X132230000Y-44835000D01*
X134470000Y-44955000D02*
X132230000Y-44955000D01*
X134470000Y-45075000D02*
X132230000Y-45075000D01*
X134470000Y-48475000D02*
X134470000Y-44235000D01*
X132230000Y-48475000D02*
X134470000Y-48475000D01*
X133350000Y-49125000D02*
X133350000Y-48475000D01*
%TO.C,D45*%
X128270000Y-119785000D02*
X128270000Y-120435000D01*
X129390000Y-120435000D02*
X127150000Y-120435000D01*
X127150000Y-120435000D02*
X127150000Y-124675000D01*
X129390000Y-121035000D02*
X127150000Y-121035000D01*
X129390000Y-121155000D02*
X127150000Y-121155000D01*
X129390000Y-121275000D02*
X127150000Y-121275000D01*
X129390000Y-124675000D02*
X129390000Y-120435000D01*
X127150000Y-124675000D02*
X129390000Y-124675000D01*
X128270000Y-125325000D02*
X128270000Y-124675000D01*
%TO.C,D2*%
X57150000Y-43585000D02*
X57150000Y-44235000D01*
X58270000Y-44235000D02*
X56030000Y-44235000D01*
X56030000Y-44235000D02*
X56030000Y-48475000D01*
X58270000Y-44835000D02*
X56030000Y-44835000D01*
X58270000Y-44955000D02*
X56030000Y-44955000D01*
X58270000Y-45075000D02*
X56030000Y-45075000D01*
X58270000Y-48475000D02*
X58270000Y-44235000D01*
X56030000Y-48475000D02*
X58270000Y-48475000D01*
X57150000Y-49125000D02*
X57150000Y-48475000D01*
%TO.C,D7*%
X152400000Y-43585000D02*
X152400000Y-44235000D01*
X153520000Y-44235000D02*
X151280000Y-44235000D01*
X151280000Y-44235000D02*
X151280000Y-48475000D01*
X153520000Y-44835000D02*
X151280000Y-44835000D01*
X153520000Y-44955000D02*
X151280000Y-44955000D01*
X153520000Y-45075000D02*
X151280000Y-45075000D01*
X153520000Y-48475000D02*
X153520000Y-44235000D01*
X151280000Y-48475000D02*
X153520000Y-48475000D01*
X152400000Y-49125000D02*
X152400000Y-48475000D01*
%TO.C,D32*%
X76200000Y-100735000D02*
X76200000Y-101385000D01*
X77320000Y-101385000D02*
X75080000Y-101385000D01*
X75080000Y-101385000D02*
X75080000Y-105625000D01*
X77320000Y-101985000D02*
X75080000Y-101985000D01*
X77320000Y-102105000D02*
X75080000Y-102105000D01*
X77320000Y-102225000D02*
X75080000Y-102225000D01*
X77320000Y-105625000D02*
X77320000Y-101385000D01*
X75080000Y-105625000D02*
X77320000Y-105625000D01*
X76200000Y-106275000D02*
X76200000Y-105625000D01*
%TO.C,D15*%
X123825000Y-62635000D02*
X123825000Y-63285000D01*
X124945000Y-63285000D02*
X122705000Y-63285000D01*
X122705000Y-63285000D02*
X122705000Y-67525000D01*
X124945000Y-63885000D02*
X122705000Y-63885000D01*
X124945000Y-64005000D02*
X122705000Y-64005000D01*
X124945000Y-64125000D02*
X122705000Y-64125000D01*
X124945000Y-67525000D02*
X124945000Y-63285000D01*
X122705000Y-67525000D02*
X124945000Y-67525000D01*
X123825000Y-68175000D02*
X123825000Y-67525000D01*
%TO.C,D5*%
X114300000Y-43585000D02*
X114300000Y-44235000D01*
X115420000Y-44235000D02*
X113180000Y-44235000D01*
X113180000Y-44235000D02*
X113180000Y-48475000D01*
X115420000Y-44835000D02*
X113180000Y-44835000D01*
X115420000Y-44955000D02*
X113180000Y-44955000D01*
X115420000Y-45075000D02*
X113180000Y-45075000D01*
X115420000Y-48475000D02*
X115420000Y-44235000D01*
X113180000Y-48475000D02*
X115420000Y-48475000D01*
X114300000Y-49125000D02*
X114300000Y-48475000D01*
%TO.C,D8*%
X171450000Y-43585000D02*
X171450000Y-44235000D01*
X172570000Y-44235000D02*
X170330000Y-44235000D01*
X170330000Y-44235000D02*
X170330000Y-48475000D01*
X172570000Y-44835000D02*
X170330000Y-44835000D01*
X172570000Y-44955000D02*
X170330000Y-44955000D01*
X172570000Y-45075000D02*
X170330000Y-45075000D01*
X172570000Y-48475000D02*
X172570000Y-44235000D01*
X170330000Y-48475000D02*
X172570000Y-48475000D01*
X171450000Y-49125000D02*
X171450000Y-48475000D01*
%TO.C,D12*%
X66675000Y-62635000D02*
X66675000Y-63285000D01*
X67795000Y-63285000D02*
X65555000Y-63285000D01*
X65555000Y-63285000D02*
X65555000Y-67525000D01*
X67795000Y-63885000D02*
X65555000Y-63885000D01*
X67795000Y-64005000D02*
X65555000Y-64005000D01*
X67795000Y-64125000D02*
X65555000Y-64125000D01*
X67795000Y-67525000D02*
X67795000Y-63285000D01*
X65555000Y-67525000D02*
X67795000Y-67525000D01*
X66675000Y-68175000D02*
X66675000Y-67525000D01*
%TO.C,D31*%
X57150000Y-100735000D02*
X57150000Y-101385000D01*
X58270000Y-101385000D02*
X56030000Y-101385000D01*
X56030000Y-101385000D02*
X56030000Y-105625000D01*
X58270000Y-101985000D02*
X56030000Y-101985000D01*
X58270000Y-102105000D02*
X56030000Y-102105000D01*
X58270000Y-102225000D02*
X56030000Y-102225000D01*
X58270000Y-105625000D02*
X58270000Y-101385000D01*
X56030000Y-105625000D02*
X58270000Y-105625000D01*
X57150000Y-106275000D02*
X57150000Y-105625000D01*
%TO.C,D9*%
X183745000Y-57150000D02*
X183095000Y-57150000D01*
X183095000Y-58270000D02*
X183095000Y-56030000D01*
X183095000Y-56030000D02*
X178855000Y-56030000D01*
X182495000Y-58270000D02*
X182495000Y-56030000D01*
X182375000Y-58270000D02*
X182375000Y-56030000D01*
X182255000Y-58270000D02*
X182255000Y-56030000D01*
X178855000Y-58270000D02*
X183095000Y-58270000D01*
X178855000Y-56030000D02*
X178855000Y-58270000D01*
X178205000Y-57150000D02*
X178855000Y-57150000D01*
%TO.C,D10*%
X202795000Y-57150000D02*
X202145000Y-57150000D01*
X202145000Y-58270000D02*
X202145000Y-56030000D01*
X202145000Y-56030000D02*
X197905000Y-56030000D01*
X201545000Y-58270000D02*
X201545000Y-56030000D01*
X201425000Y-58270000D02*
X201425000Y-56030000D01*
X201305000Y-58270000D02*
X201305000Y-56030000D01*
X197905000Y-58270000D02*
X202145000Y-58270000D01*
X197905000Y-56030000D02*
X197905000Y-58270000D01*
X197255000Y-57150000D02*
X197905000Y-57150000D01*
%TO.C,D36*%
X152400000Y-100735000D02*
X152400000Y-101385000D01*
X153520000Y-101385000D02*
X151280000Y-101385000D01*
X151280000Y-101385000D02*
X151280000Y-105625000D01*
X153520000Y-101985000D02*
X151280000Y-101985000D01*
X153520000Y-102105000D02*
X151280000Y-102105000D01*
X153520000Y-102225000D02*
X151280000Y-102225000D01*
X153520000Y-105625000D02*
X153520000Y-101385000D01*
X151280000Y-105625000D02*
X153520000Y-105625000D01*
X152400000Y-106275000D02*
X152400000Y-105625000D01*
%TO.C,D34*%
X114300000Y-100735000D02*
X114300000Y-101385000D01*
X115420000Y-101385000D02*
X113180000Y-101385000D01*
X113180000Y-101385000D02*
X113180000Y-105625000D01*
X115420000Y-101985000D02*
X113180000Y-101985000D01*
X115420000Y-102105000D02*
X113180000Y-102105000D01*
X115420000Y-102225000D02*
X113180000Y-102225000D01*
X115420000Y-105625000D02*
X115420000Y-101385000D01*
X113180000Y-105625000D02*
X115420000Y-105625000D01*
X114300000Y-106275000D02*
X114300000Y-105625000D01*
%TO.C,D38*%
X190500000Y-100735000D02*
X190500000Y-101385000D01*
X191620000Y-101385000D02*
X189380000Y-101385000D01*
X189380000Y-101385000D02*
X189380000Y-105625000D01*
X191620000Y-101985000D02*
X189380000Y-101985000D01*
X191620000Y-102105000D02*
X189380000Y-102105000D01*
X191620000Y-102225000D02*
X189380000Y-102225000D01*
X191620000Y-105625000D02*
X191620000Y-101385000D01*
X189380000Y-105625000D02*
X191620000Y-105625000D01*
X190500000Y-106275000D02*
X190500000Y-105625000D01*
%TO.C,D27*%
X167005000Y-81685000D02*
X167005000Y-82335000D01*
X168125000Y-82335000D02*
X165885000Y-82335000D01*
X165885000Y-82335000D02*
X165885000Y-86575000D01*
X168125000Y-82935000D02*
X165885000Y-82935000D01*
X168125000Y-83055000D02*
X165885000Y-83055000D01*
X168125000Y-83175000D02*
X165885000Y-83175000D01*
X168125000Y-86575000D02*
X168125000Y-82335000D01*
X165885000Y-86575000D02*
X168125000Y-86575000D01*
X167005000Y-87225000D02*
X167005000Y-86575000D01*
%TO.C,D35*%
X133350000Y-100735000D02*
X133350000Y-101385000D01*
X134470000Y-101385000D02*
X132230000Y-101385000D01*
X132230000Y-101385000D02*
X132230000Y-105625000D01*
X134470000Y-101985000D02*
X132230000Y-101985000D01*
X134470000Y-102105000D02*
X132230000Y-102105000D01*
X134470000Y-102225000D02*
X132230000Y-102225000D01*
X134470000Y-105625000D02*
X134470000Y-101385000D01*
X132230000Y-105625000D02*
X134470000Y-105625000D01*
X133350000Y-106275000D02*
X133350000Y-105625000D01*
%TO.C,D42*%
X71120000Y-119785000D02*
X71120000Y-120435000D01*
X72240000Y-120435000D02*
X70000000Y-120435000D01*
X70000000Y-120435000D02*
X70000000Y-124675000D01*
X72240000Y-121035000D02*
X70000000Y-121035000D01*
X72240000Y-121155000D02*
X70000000Y-121155000D01*
X72240000Y-121275000D02*
X70000000Y-121275000D01*
X72240000Y-124675000D02*
X72240000Y-120435000D01*
X70000000Y-124675000D02*
X72240000Y-124675000D01*
X71120000Y-125325000D02*
X71120000Y-124675000D01*
%TO.C,D48*%
X171450000Y-119785000D02*
X171450000Y-120435000D01*
X172570000Y-120435000D02*
X170330000Y-120435000D01*
X170330000Y-120435000D02*
X170330000Y-124675000D01*
X172570000Y-121035000D02*
X170330000Y-121035000D01*
X172570000Y-121155000D02*
X170330000Y-121155000D01*
X172570000Y-121275000D02*
X170330000Y-121275000D01*
X172570000Y-124675000D02*
X172570000Y-120435000D01*
X170330000Y-124675000D02*
X172570000Y-124675000D01*
X171450000Y-125325000D02*
X171450000Y-124675000D01*
%TO.C,D43*%
X90170000Y-119785000D02*
X90170000Y-120435000D01*
X91290000Y-120435000D02*
X89050000Y-120435000D01*
X89050000Y-120435000D02*
X89050000Y-124675000D01*
X91290000Y-121035000D02*
X89050000Y-121035000D01*
X91290000Y-121155000D02*
X89050000Y-121155000D01*
X91290000Y-121275000D02*
X89050000Y-121275000D01*
X91290000Y-124675000D02*
X91290000Y-120435000D01*
X89050000Y-124675000D02*
X91290000Y-124675000D01*
X90170000Y-125325000D02*
X90170000Y-124675000D01*
%TO.C,D13*%
X85725000Y-62635000D02*
X85725000Y-63285000D01*
X86845000Y-63285000D02*
X84605000Y-63285000D01*
X84605000Y-63285000D02*
X84605000Y-67525000D01*
X86845000Y-63885000D02*
X84605000Y-63885000D01*
X86845000Y-64005000D02*
X84605000Y-64005000D01*
X86845000Y-64125000D02*
X84605000Y-64125000D01*
X86845000Y-67525000D02*
X86845000Y-63285000D01*
X84605000Y-67525000D02*
X86845000Y-67525000D01*
X85725000Y-68175000D02*
X85725000Y-67525000D01*
%TO.C,D3*%
X76200000Y-43585000D02*
X76200000Y-44235000D01*
X77320000Y-44235000D02*
X75080000Y-44235000D01*
X75080000Y-44235000D02*
X75080000Y-48475000D01*
X77320000Y-44835000D02*
X75080000Y-44835000D01*
X77320000Y-44955000D02*
X75080000Y-44955000D01*
X77320000Y-45075000D02*
X75080000Y-45075000D01*
X77320000Y-48475000D02*
X77320000Y-44235000D01*
X75080000Y-48475000D02*
X77320000Y-48475000D01*
X76200000Y-49125000D02*
X76200000Y-48475000D01*
%TO.C,D25*%
X128905000Y-81685000D02*
X128905000Y-82335000D01*
X130025000Y-82335000D02*
X127785000Y-82335000D01*
X127785000Y-82335000D02*
X127785000Y-86575000D01*
X130025000Y-82935000D02*
X127785000Y-82935000D01*
X130025000Y-83055000D02*
X127785000Y-83055000D01*
X130025000Y-83175000D02*
X127785000Y-83175000D01*
X130025000Y-86575000D02*
X130025000Y-82335000D01*
X127785000Y-86575000D02*
X130025000Y-86575000D01*
X128905000Y-87225000D02*
X128905000Y-86575000D01*
%TO.C,D44*%
X109220000Y-119785000D02*
X109220000Y-120435000D01*
X110340000Y-120435000D02*
X108100000Y-120435000D01*
X108100000Y-120435000D02*
X108100000Y-124675000D01*
X110340000Y-121035000D02*
X108100000Y-121035000D01*
X110340000Y-121155000D02*
X108100000Y-121155000D01*
X110340000Y-121275000D02*
X108100000Y-121275000D01*
X110340000Y-124675000D02*
X110340000Y-120435000D01*
X108100000Y-124675000D02*
X110340000Y-124675000D01*
X109220000Y-125325000D02*
X109220000Y-124675000D01*
%TO.C,D4*%
X95250000Y-43585000D02*
X95250000Y-44235000D01*
X96370000Y-44235000D02*
X94130000Y-44235000D01*
X94130000Y-44235000D02*
X94130000Y-48475000D01*
X96370000Y-44835000D02*
X94130000Y-44835000D01*
X96370000Y-44955000D02*
X94130000Y-44955000D01*
X96370000Y-45075000D02*
X94130000Y-45075000D01*
X96370000Y-48475000D02*
X96370000Y-44235000D01*
X94130000Y-48475000D02*
X96370000Y-48475000D01*
X95250000Y-49125000D02*
X95250000Y-48475000D01*
%TO.C,D28*%
X181363750Y-76200000D02*
X180713750Y-76200000D01*
X180713750Y-77320000D02*
X180713750Y-75080000D01*
X180713750Y-75080000D02*
X176473750Y-75080000D01*
X180113750Y-77320000D02*
X180113750Y-75080000D01*
X179993750Y-77320000D02*
X179993750Y-75080000D01*
X179873750Y-77320000D02*
X179873750Y-75080000D01*
X176473750Y-77320000D02*
X180713750Y-77320000D01*
X176473750Y-75080000D02*
X176473750Y-77320000D01*
X175823750Y-76200000D02*
X176473750Y-76200000D01*
%TO.C,D26*%
X147955000Y-81685000D02*
X147955000Y-82335000D01*
X149075000Y-82335000D02*
X146835000Y-82335000D01*
X146835000Y-82335000D02*
X146835000Y-86575000D01*
X149075000Y-82935000D02*
X146835000Y-82935000D01*
X149075000Y-83055000D02*
X146835000Y-83055000D01*
X149075000Y-83175000D02*
X146835000Y-83175000D01*
X149075000Y-86575000D02*
X149075000Y-82335000D01*
X146835000Y-86575000D02*
X149075000Y-86575000D01*
X147955000Y-87225000D02*
X147955000Y-86575000D01*
%TO.C,D17*%
X161925000Y-62635000D02*
X161925000Y-63285000D01*
X163045000Y-63285000D02*
X160805000Y-63285000D01*
X160805000Y-63285000D02*
X160805000Y-67525000D01*
X163045000Y-63885000D02*
X160805000Y-63885000D01*
X163045000Y-64005000D02*
X160805000Y-64005000D01*
X163045000Y-64125000D02*
X160805000Y-64125000D01*
X163045000Y-67525000D02*
X163045000Y-63285000D01*
X160805000Y-67525000D02*
X163045000Y-67525000D01*
X161925000Y-68175000D02*
X161925000Y-67525000D01*
%TO.C,D19*%
X189460000Y-95250000D02*
X188810000Y-95250000D01*
X188810000Y-96370000D02*
X188810000Y-94130000D01*
X188810000Y-94130000D02*
X184570000Y-94130000D01*
X188210000Y-96370000D02*
X188210000Y-94130000D01*
X188090000Y-96370000D02*
X188090000Y-94130000D01*
X187970000Y-96370000D02*
X187970000Y-94130000D01*
X184570000Y-96370000D02*
X188810000Y-96370000D01*
X184570000Y-94130000D02*
X184570000Y-96370000D01*
X183920000Y-95250000D02*
X184570000Y-95250000D01*
%TO.C,D24*%
X109855000Y-81685000D02*
X109855000Y-82335000D01*
X110975000Y-82335000D02*
X108735000Y-82335000D01*
X108735000Y-82335000D02*
X108735000Y-86575000D01*
X110975000Y-82935000D02*
X108735000Y-82935000D01*
X110975000Y-83055000D02*
X108735000Y-83055000D01*
X110975000Y-83175000D02*
X108735000Y-83175000D01*
X110975000Y-86575000D02*
X110975000Y-82335000D01*
X108735000Y-86575000D02*
X110975000Y-86575000D01*
X109855000Y-87225000D02*
X109855000Y-86575000D01*
%TO.C,D49*%
X190500000Y-119785000D02*
X190500000Y-120435000D01*
X191620000Y-120435000D02*
X189380000Y-120435000D01*
X189380000Y-120435000D02*
X189380000Y-124675000D01*
X191620000Y-121035000D02*
X189380000Y-121035000D01*
X191620000Y-121155000D02*
X189380000Y-121155000D01*
X191620000Y-121275000D02*
X189380000Y-121275000D01*
X191620000Y-124675000D02*
X191620000Y-120435000D01*
X189380000Y-124675000D02*
X191620000Y-124675000D01*
X190500000Y-125325000D02*
X190500000Y-124675000D01*
%TO.C,D16*%
X142875000Y-62635000D02*
X142875000Y-63285000D01*
X143995000Y-63285000D02*
X141755000Y-63285000D01*
X141755000Y-63285000D02*
X141755000Y-67525000D01*
X143995000Y-63885000D02*
X141755000Y-63885000D01*
X143995000Y-64005000D02*
X141755000Y-64005000D01*
X143995000Y-64125000D02*
X141755000Y-64125000D01*
X143995000Y-67525000D02*
X143995000Y-63285000D01*
X141755000Y-67525000D02*
X143995000Y-67525000D01*
X142875000Y-68175000D02*
X142875000Y-67525000D01*
%TO.C,D23*%
X90170000Y-81685000D02*
X90170000Y-82335000D01*
X91290000Y-82335000D02*
X89050000Y-82335000D01*
X89050000Y-82335000D02*
X89050000Y-86575000D01*
X91290000Y-82935000D02*
X89050000Y-82935000D01*
X91290000Y-83055000D02*
X89050000Y-83055000D01*
X91290000Y-83175000D02*
X89050000Y-83175000D01*
X91290000Y-86575000D02*
X91290000Y-82335000D01*
X89050000Y-86575000D02*
X91290000Y-86575000D01*
X90170000Y-87225000D02*
X90170000Y-86575000D01*
%TO.C,D14*%
X104775000Y-62635000D02*
X104775000Y-63285000D01*
X105895000Y-63285000D02*
X103655000Y-63285000D01*
X103655000Y-63285000D02*
X103655000Y-67525000D01*
X105895000Y-63885000D02*
X103655000Y-63885000D01*
X105895000Y-64005000D02*
X103655000Y-64005000D01*
X105895000Y-64125000D02*
X103655000Y-64125000D01*
X105895000Y-67525000D02*
X105895000Y-63285000D01*
X103655000Y-67525000D02*
X105895000Y-67525000D01*
X104775000Y-68175000D02*
X104775000Y-67525000D01*
%TO.C,D46*%
X147320000Y-119785000D02*
X147320000Y-120435000D01*
X148440000Y-120435000D02*
X146200000Y-120435000D01*
X146200000Y-120435000D02*
X146200000Y-124675000D01*
X148440000Y-121035000D02*
X146200000Y-121035000D01*
X148440000Y-121155000D02*
X146200000Y-121155000D01*
X148440000Y-121275000D02*
X146200000Y-121275000D01*
X148440000Y-124675000D02*
X148440000Y-120435000D01*
X146200000Y-124675000D02*
X148440000Y-124675000D01*
X147320000Y-125325000D02*
X147320000Y-124675000D01*
%TO.C,D37*%
X171450000Y-100735000D02*
X171450000Y-101385000D01*
X172570000Y-101385000D02*
X170330000Y-101385000D01*
X170330000Y-101385000D02*
X170330000Y-105625000D01*
X172570000Y-101985000D02*
X170330000Y-101985000D01*
X172570000Y-102105000D02*
X170330000Y-102105000D01*
X172570000Y-102225000D02*
X170330000Y-102225000D01*
X172570000Y-105625000D02*
X172570000Y-101385000D01*
X170330000Y-105625000D02*
X172570000Y-105625000D01*
X171450000Y-106275000D02*
X171450000Y-105625000D01*
%TD*%
M02*
