M48
; DRILL file {KiCad (7.0.0)} date Tue May 23 14:57:50 2023
; FORMAT={-:-/ absolute / inch / decimal}
; #@! TF.CreationDate,2023-05-23T14:57:50+09:00
; #@! TF.GenerationSoftware,Kicad,Pcbnew,(7.0.0)
; #@! TF.FileFunction,NonPlated,1,2,NPTH
FMAT,2
INCH
; #@! TA.AperFunction,NonPlated,NPTH,ComponentDrill
T1C0.0472
; #@! TA.AperFunction,NonPlated,NPTH,ComponentDrill
T2C0.0669
; #@! TA.AperFunction,NonPlated,NPTH,ComponentDrill
T3C0.0709
; #@! TA.AperFunction,NonPlated,NPTH,ComponentDrill
T4C0.0866
; #@! TA.AperFunction,NonPlated,NPTH,ComponentDrill
T5C0.1201
; #@! TA.AperFunction,NonPlated,NPTH,ComponentDrill
T6C0.1575
; #@! TA.AperFunction,NonPlated,NPTH,ComponentDrill
T7C0.1929
%
G90
G05
T1
X1.625Y-2.2994
X1.625Y-2.575
T2
X1.675Y-1.875
X1.675Y-4.125
X2.05Y-2.625
X2.075Y-1.875
X2.075Y-4.125
X2.2375Y-3.375
X2.2375Y-4.875
X2.425Y-1.875
X2.425Y-4.125
X2.45Y-2.625
X2.6375Y-3.375
X2.6375Y-4.875
X2.8Y-2.625
X2.825Y-1.875
X2.825Y-4.125
X2.9875Y-3.375
X2.9875Y-4.875
X3.175Y-1.875
X3.175Y-4.125
X3.2Y-2.625
X3.3875Y-3.375
X3.3875Y-4.875
X3.55Y-2.625
X3.575Y-1.875
X3.575Y-4.125
X3.7375Y-3.375
X3.7375Y-4.875
X3.925Y-1.875
X3.925Y-4.125
X3.95Y-2.625
X4.1375Y-3.375
X4.1375Y-4.875
X4.3Y-2.625
X4.325Y-1.875
X4.325Y-4.125
X4.4875Y-3.375
X4.4875Y-4.875
X4.675Y-1.875
X4.675Y-4.125
X4.7Y-2.625
X4.8875Y-3.375
X4.8875Y-4.875
X5.05Y-2.625
X5.075Y-1.875
X5.075Y-4.125
X5.2375Y-3.375
X5.2375Y-4.875
X5.425Y-1.875
X5.425Y-4.125
X5.45Y-2.625
X5.6375Y-3.375
X5.6375Y-4.875
X5.8Y-2.625
X5.825Y-1.875
X5.825Y-4.125
X5.9875Y-3.375
X6.175Y-1.875
X6.175Y-4.125
X6.175Y-4.875
X6.2Y-2.625
X6.3875Y-3.375
X6.55Y-2.625
X6.575Y-1.875
X6.575Y-4.125
X6.575Y-4.875
X6.7375Y-3.375
X6.925Y-1.875
X6.925Y-4.125
X6.925Y-4.875
X6.95Y-2.625
X7.1375Y-3.375
X7.325Y-1.875
X7.325Y-4.125
X7.325Y-4.875
X7.675Y-1.875
X7.675Y-4.125
X7.675Y-4.875
X7.7812Y-2.8
X7.7812Y-3.2
X8.075Y-1.875
X8.075Y-4.125
X8.075Y-4.875
T3
X1.6585Y-1.875
X1.6585Y-4.125
X2.0335Y-2.625
X2.0915Y-1.875
X2.0915Y-4.125
X2.221Y-3.375
X2.221Y-4.875
X2.4085Y-1.875
X2.4085Y-4.125
X2.4665Y-2.625
X2.654Y-3.375
X2.654Y-4.875
X2.7835Y-2.625
X2.8415Y-1.875
X2.8415Y-4.125
X2.971Y-3.375
X2.971Y-4.875
X3.1585Y-1.875
X3.1585Y-4.125
X3.2165Y-2.625
X3.404Y-3.375
X3.404Y-4.875
X3.5335Y-2.625
X3.5915Y-1.875
X3.5915Y-4.125
X3.721Y-3.375
X3.721Y-4.875
X3.9085Y-1.875
X3.9085Y-4.125
X3.9665Y-2.625
X4.154Y-3.375
X4.154Y-4.875
X4.2835Y-2.625
X4.3415Y-1.875
X4.3415Y-4.125
X4.471Y-3.375
X4.471Y-4.875
X4.6585Y-1.875
X4.6585Y-4.125
X4.7165Y-2.625
X4.904Y-3.375
X4.904Y-4.875
X5.0335Y-2.625
X5.0915Y-1.875
X5.0915Y-4.125
X5.221Y-3.375
X5.221Y-4.875
X5.4085Y-1.875
X5.4085Y-4.125
X5.4665Y-2.625
X5.654Y-3.375
X5.654Y-4.875
X5.7835Y-2.625
X5.8415Y-1.875
X5.8415Y-4.125
X5.971Y-3.375
X6.1585Y-1.875
X6.1585Y-4.125
X6.1585Y-4.875
X6.2165Y-2.625
X6.404Y-3.375
X6.5335Y-2.625
X6.5915Y-1.875
X6.5915Y-4.125
X6.5915Y-4.875
X6.721Y-3.375
X6.9085Y-1.875
X6.9085Y-4.125
X6.9085Y-4.875
X6.9665Y-2.625
X7.154Y-3.375
X7.3415Y-1.875
X7.3415Y-4.125
X7.3415Y-4.875
X7.6585Y-1.875
X7.6585Y-4.125
X7.6585Y-4.875
X7.7812Y-2.7835
X7.7812Y-3.2165
X8.0915Y-1.875
X8.0915Y-4.125
X8.0915Y-4.875
T4
X2.25Y-2.25
X2.8125Y-4.5
X3.75Y-2.25
X4.3125Y-4.5
X5.25Y-2.25
X5.8125Y-4.5
X6.75Y-2.25
X7.5Y-4.5
T5
X8.0568Y-2.5315
X8.0568Y-3.4685
T6
X7.4568Y-2.5315
X7.4568Y-3.4685
T7
X1.875Y-1.875
X1.875Y-4.125
X2.25Y-2.625
X2.4375Y-3.375
X2.4375Y-4.875
X2.625Y-1.875
X2.625Y-4.125
X3.0Y-2.625
X3.1875Y-3.375
X3.1875Y-4.875
X3.375Y-1.875
X3.375Y-4.125
X3.75Y-2.625
X3.9375Y-3.375
X3.9375Y-4.875
X4.125Y-1.875
X4.125Y-4.125
X4.5Y-2.625
X4.6875Y-3.375
X4.6875Y-4.875
X4.875Y-1.875
X4.875Y-4.125
X5.25Y-2.625
X5.4375Y-3.375
X5.4375Y-4.875
X5.625Y-1.875
X5.625Y-4.125
X6.0Y-2.625
X6.1875Y-3.375
X6.375Y-1.875
X6.375Y-4.125
X6.375Y-4.875
X6.75Y-2.625
X6.9375Y-3.375
X7.125Y-1.875
X7.125Y-4.125
X7.125Y-4.875
X7.7812Y-3.0
X7.875Y-1.875
X7.875Y-4.125
X7.875Y-4.875
T0
M30
